<svg xmlns="http://www.w3.org/2000/svg" width="156" height="25" fill="none" viewBox="0 0 156 25"><path fill="#F35822" d="M45.133.232H24.615l-1.61 5.352h6.682L24.6 24.769h7.917l5.09-19.185h5.917l1.61-5.352zM102.8 10.31c.651-1.704.586-3.701-.016-5.206-.601-1.504-1.74-2.516-2.991-3.235C98.54 1.15 97.175.724 95.679.498c-1.04-.16-2.146-.213-3.138-.226V.218h-7.917l-6.032 24.538h7.918l2-8.109c.78-.026 1.674-.066 2.52-.12 1.495-.093 2.78-.226 4.145-.519 1.382-.28 2.846-.719 4.244-1.65 1.398-.933 2.747-2.344 3.381-4.048zm-6.34-2.09c-.065.759-.39 1.371-.894 1.89-.505.52-1.204.932-2.488 1.132-.975.16-2.292.186-3.284.186l1.512-6.244c.309-.013.601 0 .91.014 1.22.066 2.553.266 3.333.812.78.546.976 1.45.91 2.21zm-15.9-5.246c.487-.865.487-.865.422-.918-.049-.067-.163-.174-.894-.506-.732-.347-2.065-.906-4.065-1.225-2-.32-4.666-.4-6.828-.2-2.163.2-3.837.68-5.187 1.345-1.349.679-2.39 1.518-3.414 2.53-1.024 1.011-2.048 2.17-2.877 3.86-.846 1.691-1.496 3.901-1.643 5.978-.146 2.077.196 4.008 1.106 5.712a9.517 9.517 0 004.325 4.087c1.918.892 4.276 1.212 6.113 1.292 1.82.08 3.121-.067 4.373-.347 1.252-.266 2.455-.665 3.057-.865.601-.213.601-.226.601-.253v-5.312c0-.013 0-.013-.65.173-.634.186-1.919.572-3.48.825-1.544.253-3.381.36-4.73-.053-1.35-.413-2.228-1.358-2.618-2.516-.407-1.158-.325-2.516-.049-3.821.277-1.305.732-2.53 1.561-3.755.83-1.225 2-2.436 3.382-3.049 1.365-.612 2.942-.625 4.21-.452 1.269.173 2.228.532 2.976.865.748.333 1.317.64 1.593.76.277.159.277.159.764-.707.488-.865 1.463-2.582 1.951-3.448zM21.51 1.51c-.488-.227-1.464-.666-2.618-.959-1.154-.306-2.504-.453-3.853-.52-1.35-.066-2.732-.04-4.048.187-1.317.227-2.586.64-3.772 1.305-1.187.666-2.309 1.584-3.057 2.596-.764 1.025-1.154 2.13-1.105 3.409.032 1.278.504 2.702 1.772 4.14 1.268 1.438 3.333 2.863 4.536 3.954 1.203 1.092 1.528 1.838 1.398 2.49-.13.652-.716 1.212-1.545 1.491-.813.28-1.87.28-3.04.08-1.17-.186-2.471-.586-3.512-.972-1.04-.386-1.82-.772-2.227-.972-.39-.2-.406-.2-.423-.173C0 17.593 0 17.646 0 18.631v3.888c0 .985 0 1.025.016 1.052 0 .026.033.026.732.24.699.199 2.097.625 3.414.878 1.317.253 2.553.333 3.853.306 1.3-.027 2.667-.16 3.902-.413 1.236-.253 2.358-.639 3.512-1.438 1.154-.798 2.309-1.996 2.878-3.301.569-1.305.52-2.73.244-3.915-.277-1.184-.813-2.156-1.854-3.195-1.04-1.038-2.601-2.157-3.707-2.995-1.122-.84-1.772-1.412-2.016-2.117-.244-.706-.065-1.558.553-2.064.618-.52 1.642-.679 2.634-.599.975.08 1.918.4 2.764.719.845.32 1.61.612 2 .772.373.16.373.16.39.133.016-.013.032-.053.471-.852.44-.785 1.285-2.33 1.723-3.129.44-.798.456-.838.472-.852.016-.026.016-.026-.472-.24zM114.636.152L99.5 24.782h8.568l2.406-4.633h8.698l.114 4.62h7.674L124.668.152h-10.032zm-1.528 14.711l5.56-10.384.277 10.384h-5.837zm34.5-14.618l-6.308 9.32-2.309-9.347h-7.853l4.959 14.645-2.26 9.893h7.804l2.39-9.813L155.835.245h-8.227zM48.319.232l-6.86 24.537h7.917L56.237.232h-7.918z"></path></svg>