<svg xmlns="http://www.w3.org/2000/svg" width="160" height="40" viewBox="0 0 198 46"><path fill="#35465B" d="M193.801 18.918h-4.623l-3.39 4.619-3.428-4.62h-4.603l5.817 7.533-6.029 7.8h4.603l3.64-4.925 3.602 4.926h4.642l-6.067-7.801 5.836-7.532z"></path><path fill="#35465B" d="M176.139 21.007c-1.329-1.457-3.235-2.339-5.547-2.339-4.661 0-7.646 3.489-7.646 8.012 0 2.32.732 4.16 2.08 5.482 1.329 1.322 3.274 2.05 5.624 2.05 1.811 0 3.371-.383 4.603-1.169 1.233-.785 2.119-1.955 2.581-3.507l.058-.192h-3.852l-.039.077c-.635.997-1.791 1.61-3.389 1.61-1.098 0-1.984-.268-2.658-.805-.655-.498-1.137-1.188-1.329-2.358H178.2v-.249c0-.057 0-.134.02-.249 0-.21.019-.48.019-.767-.019-2.242-.79-4.14-2.1-5.596zm-9.457 3.967c.193-.939.597-1.61 1.233-2.166.674-.594 1.56-.958 2.677-.958s1.984.345 2.62.94a3.756 3.756 0 0 1 1.194 2.184h-7.724zm-4.796-6.152v3.392h-1.367c-1.888 0-3.429 1.534-3.429 3.412v8.625h-3.833v-8.625c0-2.204.655-3.91 1.984-5.08 1.329-1.15 3.313-1.724 5.952-1.724h.693zm-17.951-.096c-4.314 0-7.8 3.469-7.8 7.762 0 4.294 3.486 7.763 7.8 7.763 4.315 0 7.801-3.47 7.801-7.763 0-4.293-3.506-7.762-7.801-7.762zm0 12.017c-2.6 0-4.237-1.993-4.237-4.255 0-2.261 1.637-4.35 4.237-4.35 2.601 0 4.238 2.089 4.238 4.35 0 2.262-1.637 4.255-4.238 4.255zm-15.659 3.507h-3.89V12.21h12.904v3.602h-9.014v4.811h6.472v3.604h-6.472V34.25zm-5.759-15.448v3.393h-1.367c-1.888 0-3.428 1.533-3.428 3.412v8.625h-3.833v-8.625c0-2.204.655-3.91 1.984-5.08 1.329-1.15 3.312-1.725 5.951-1.725h.693zm-12.326 2.205c-1.329-1.457-3.236-2.339-5.547-2.339-4.662 0-7.647 3.489-7.647 8.012 0 2.32.732 4.16 2.08 5.482 1.329 1.322 3.275 2.05 5.624 2.05 1.811 0 3.371-.383 4.604-1.169 1.232-.785 2.118-1.955 2.581-3.507l.057-.192h-3.852l-.038.077c-.636.997-1.792 1.61-3.39 1.61-1.098 0-1.984-.268-2.658-.805-.655-.498-1.137-1.188-1.329-2.358h11.576v-.249c0-.057 0-.134.019-.249 0-.21.019-.48.019-.767-.019-2.261-.77-4.159-2.099-5.596zm-9.457 3.948c.192-.94.597-1.61 1.232-2.166.674-.594 1.56-.958 2.678-.958 1.117 0 1.983.345 2.619.939a3.756 3.756 0 0 1 1.194 2.185h-7.723zm-12.828-6.133c-2.966 0-5.143 1.418-6.568 3.967-.963 1.744-.963 3.68-.963 6.325v11.462h.154c1.926 0 3.505-1.553 3.505-3.489v-3.986c.386.23.829.479 1.464.67.77.25 1.792.403 3.294.403 3.582 0 6.568-3.124 6.568-7.647.02-4.543-3.217-7.705-7.454-7.705zm2.831 10.867c-.712.729-1.656 1.112-2.792 1.112-1.118 0-2.061-.422-2.697-1.17-.713-.823-1.079-1.82-1.079-3.047 0-1.226.347-2.204 1.079-3.009a3.565 3.565 0 0 1 2.697-1.207c1.136 0 2.08.402 2.792 1.13.713.729 1.156 1.783 1.156 3.086s-.443 2.377-1.156 3.105zM68.606 19.013v8.395c0 1.17.27 2.013.79 2.569.5.555 1.271.843 2.311.843s1.81-.288 2.312-.843c.52-.556.79-1.4.79-2.569v-8.395h3.832v8.204c0 1.974-.462 3.718-1.56 4.983-1.117 1.265-2.85 1.993-5.374 1.993-2.523 0-4.256-.747-5.373-1.993-1.098-1.265-1.56-3.01-1.56-4.983v-8.204h3.832zm-9.321 8.855c0-.613-.173-1.092-.482-1.476-.289-.383-.712-.69-1.213-.939-.732-.364-1.618-.613-2.562-.881-.327-.096-.674-.192-1.02-.288-1.291-.402-2.562-.881-3.525-1.782-.944-.882-1.58-2.166-1.58-4.14 0-1.764.655-3.297 1.85-4.409 1.194-1.111 2.965-1.763 5.18-1.763 2.562 0 4.257.882 5.336 2.108 1.059 1.208 1.54 2.76 1.637 4.179h-3.698c-.077-.748-.385-1.419-.905-1.898-.54-.498-1.33-.786-2.35-.786-1.002 0-1.83.211-2.389.652-.558.44-.866 1.093-.866 1.917 0 .536.173.977.462 1.322.289.364.713.633 1.213.882.501.249 1.079.44 1.695.652.231.076.463.153.713.23.404.114.809.249 1.213.383 1.31.44 2.6.997 3.583 1.916.963.92 1.618 2.205 1.618 4.14 0 1.956-.597 3.546-1.772 4.658-1.194 1.112-2.986 1.725-5.432 1.725-2.561 0-4.468-.71-5.74-1.917-1.251-1.188-1.906-2.836-1.906-4.772h3.736c.058.9.424 1.648 1.06 2.166.654.536 1.617.824 2.85.824 1.06 0 1.888-.288 2.466-.767.52-.498.828-1.188.828-1.936z"></path><path fill="#3ecf8e" d="M23.537 3.507c-10.806 0-19.57 8.74-19.57 19.493 0 10.752 8.764 19.492 19.589 19.492 10.824 0 19.588-8.72 19.588-19.492-.02-10.752-8.783-19.493-19.607-19.493zm-7.3 16.656c.115.192.27.364.443.518.173.153.385.287.635.402.25.115.501.25.77.384.463.249.925.498 1.35.766.442.269.808.575 1.155.94.327.345.597.747.79 1.188.192.44.288.977.288 1.59 0 .844-.154 1.591-.481 2.224-.308.633-.751 1.265-1.33 1.687-.577.421-1.251.728-2.04.92-.771.21-1.638.249-2.582.249-.635 0-2.1-.058-4.276-.537l.578-3.181c1.984.536 3.506.728 4.527.594 1.637-.211 2.003-1.189 2.003-1.725 0-.307-.077-.556-.25-.767a3.217 3.217 0 0 0-.636-.613 7.043 7.043 0 0 0-.848-.499c-.308-.153-.635-.306-.944-.498-.404-.25-.79-.498-1.155-.767a4.58 4.58 0 0 1-.925-.9 4.954 4.954 0 0 1-.616-1.131 4.17 4.17 0 0 1-.231-1.438c0-.69.135-1.322.385-1.916a4.377 4.377 0 0 1 1.175-1.553 6.69 6.69 0 0 1 1.964-.958c.77-.25 1.695-.384 2.755-.384 1.483 0 2.6.173 4.218.633l-.462 2.683c-1.984-.498-3.467-.613-4.334-.517-.655.057-1.56.326-1.984 1.054-.404.709-.038 1.341.058 1.552zm17.681 4.217h-5.566a3.887 3.887 0 0 1 3.736-2.837h2.33l-.5 2.837zm2.196-6.727h-7.666l-.674 3.89-.5 2.837-1.176 6.65h-3.601l2.465-14.087a2.554 2.554 0 0 1 2.504-2.127h9.13l-.482 2.836z"></path></svg>