<svg xmlns="http://www.w3.org/2000/svg" viewBox="0 0 1000 1000"><path fill="none" d="M0 0h1000v1000H0z"></path><g fill="#00AFB2"><path d="M727.4 433.2c-4.4 0-8-3.6-8-8v-30.7c0-4.4 3.6-8 8-8s8 3.6 8 8v30.7c0 4.4-3.6 8-8 8zm0 233.6c-4.4 0-8-3.6-8-8v-30.7c0-4.4 3.6-8 8-8s8 3.6 8 8v30.7c0 4.5-3.6 8-8 8z"></path><path d="M732.6 529.4h-15c-29.9 0-54.3-24.4-54.3-54.3s24.4-54.3 54.3-54.3h25.5c15.8 0 30.9 7 41.3 19.1 2.9 3.4 2.5 8.4-.9 11.3s-8.4 2.5-11.3-.9c-7.3-8.6-17.9-13.5-29.1-13.5h-25.5c-21.1 0-38.3 17.2-38.3 38.3 0 21.1 17.2 38.3 38.3 38.3h15c4.4 0 8 3.6 8 8s-3.6 8-8 8z"></path><path d="M738.3 632.8h-28.5c-17.4 0-34-7.7-45.4-21-2.9-3.4-2.5-8.4.9-11.3 3.4-2.9 8.4-2.5 11.3.9 8.4 9.8 20.5 15.4 33.2 15.4h28.5c24.1 0 43.7-19.6 43.7-43.7s-19.6-43.7-43.7-43.7h-16.7c-4.4 0-8-3.6-8-8s3.6-8 8-8h16.7c32.9 0 59.7 26.8 59.7 59.7 0 32.9-26.7 59.7-59.7 59.7zM459 396.7h-.6l-148.3-10.2c-4.4-.3-7.7-4.1-7.4-8.5.3-4.4 4.1-7.7 8.5-7.4l136 9.4-46.5-128.2c-1.5-4.2.6-8.7 4.8-10.2s8.7.6 10.2 4.8L466.5 386c.9 2.5.5 5.4-1.1 7.5-1.6 2-3.9 3.2-6.4 3.2z"></path><path d="M269.5 759.1c-27.6 0-55.3-4.9-82-14.9C128.8 722.3 82.2 678.9 56.1 622c-26-57-28.3-120.6-6.4-179.3C71.6 384 115 337.4 171.9 311.3c97.3-44.5 212.3-17.5 279.6 65.6 2.8 3.4 2.3 8.5-1.2 11.3-3.4 2.8-8.5 2.3-11.3-1.2-62.7-77.4-169.9-102.6-260.5-61.2C69 375.9 20.6 505.7 70.7 615.3c24.3 53.1 67.7 93.5 122.4 113.9 54.7 20.4 114 18.2 167.1-6 64.8-29.6 111.1-89.1 124-159.1.8-4.3 5-7.2 9.3-6.4 4.3.8 7.2 5 6.4 9.3-13.9 75.1-63.6 139-133.1 170.7-31.1 14.2-64.2 21.4-97.3 21.4zm461.2-.1c-69.1 0-136.6-30.5-182.2-86.9-2.8-3.4-2.3-8.5 1.2-11.3 3.4-2.8 8.5-2.3 11.3 1.2 62.7 77.4 169.9 102.6 260.5 61.2 53.1-24.3 93.5-67.7 113.9-122.4s18.2-114-6-167.1c-24.3-53.1-67.7-93.5-122.4-113.9-54.7-20.4-114-18.2-167.1 6-64.8 29.6-111.1 89.1-124 159.1-.8 4.3-5 7.2-9.3 6.4-4.3-.8-7.2-5-6.4-9.3 13.9-75.2 63.6-139 133.1-170.7 57-26 120.6-28.3 179.3-6.5S917.9 370.1 944 427c26 57 28.3 120.6 6.4 179.3-21.9 58.7-65.3 105.3-122.2 131.4-31.4 14.4-64.6 21.3-97.5 21.3z"></path><path d="M492.1 574.7c-.5 0-1 0-1.5-.1-4.3-.8-7.2-5-6.4-9.4l16.5-87c.8-4.3 5-7.2 9.4-6.4 4.3.8 7.2 5 6.4 9.4l-16.5 87c-.8 3.8-4.1 6.5-7.9 6.5zm238.2 138c-102.6 0-186-83.5-186-186 0-102.6 83.5-186 186-186 102.6 0 186 83.5 186 186 0 102.6-83.5 186-186 186zm0-356c-93.8 0-170 76.3-170 170 0 93.8 76.3 170 170 170 93.8 0 170-76.3 170-170 0-93.8-76.3-170-170-170z"></path></g></svg>