<svg xmlns="http://www.w3.org/2000/svg" viewBox="0 0 1000 1000"><path fill="none" d="M0 0h1000v1000H0z"></path><g fill="#00AEB1"><path d="M500.2 534.3c-3.9 0-7.1-3.2-7.1-7.1V196.6c0-3.9 3.2-7.1 7.1-7.1s7.1 3.2 7.1 7.1v330.6c0 4-3.2 7.1-7.1 7.1z"></path><path d="M582 293.3c-2.1 0-4.1-.9-5.5-2.7l-80.7-101.1c-2.4-3.1-1.9-7.5 1.1-10 3.1-2.4 7.5-2 10 1.1l80.7 101.1c2.4 3.1 1.9 7.5-1.1 10-1.4 1.1-2.9 1.6-4.5 1.6z"></path><path d="M417.9 293.3c-1.6 0-3.1-.5-4.4-1.6-3.1-2.4-3.6-6.9-1.1-10l80.7-101.1c2.5-3.1 6.9-3.5 10-1.1 3.1 2.4 3.6 6.9 1.1 10l-80.7 101.1c-1.4 1.7-3.5 2.7-5.6 2.7zm83.5 250.3c-1.6 0-3.1-.5-4.4-1.6-3.1-2.4-3.6-6.9-1.1-10l80.7-101.1c2.5-3.1 6.9-3.5 10-1.1 3.1 2.4 3.6 6.9 1.1 10L507 540.9c-1.5 1.8-3.6 2.7-5.6 2.7z"></path><path d="M498.6 543.6c-2.1 0-4.1-.9-5.5-2.7l-80.7-101.1c-2.4-3.1-1.9-7.5 1.1-10 3.1-2.4 7.5-1.9 10 1.1L504.2 532c2.4 3.1 1.9 7.5-1.1 10-1.4 1.1-2.9 1.6-4.5 1.6z"></path><path d="M885.3 822.1H114.4c-9 0-17.4-3.7-23.5-10.3-6.7-7.2-10-17.3-9.2-27.8l30.8-389c1.4-17.9 17-32.5 34.8-32.5H443c3.9 0 7.1 3.2 7.1 7.1s-3.2 7.1-7.1 7.1H147.3c-10.4 0-19.8 8.9-20.7 19.4l-30.8 389c-.5 6.5 1.5 12.7 5.5 17 3.4 3.7 8.1 5.7 13.1 5.7h770.9c5.1 0 9.8-2.1 13.3-5.9 4-4.3 6-10.5 5.5-16.9l-29.7-388.9c-.8-10.5-10.4-19.4-20.8-19.4H547.4c-3.9 0-7.1-3.2-7.1-7.1s3.2-7.1 7.1-7.1h306.2c17.9 0 33.6 14.6 35 32.5l29.7 389c.8 10.4-2.6 20.4-9.3 27.6-6.2 6.7-14.6 10.5-23.7 10.5z"></path><path d="M886.9 590.4H113.5c-3.9 0-7.1-3.2-7.1-7.1s3.2-7.1 7.1-7.1h773.4c3.9 0 7.1 3.2 7.1 7.1s-3.2 7.1-7.1 7.1zM287.8 750.2H155.7c-3.9 0-7.1-3.2-7.1-7.1s3.2-7.1 7.1-7.1h132.1c3.9 0 7.1 3.2 7.1 7.1s-3.2 7.1-7.1 7.1zm180.8 0H336.4c-3.9 0-7.1-3.2-7.1-7.1s3.2-7.1 7.1-7.1h132.2c3.9 0 7.1 3.2 7.1 7.1s-3.1 7.1-7.1 7.1zm208.5 27.5c-44.3 0-81.1-38.1-81.9-85-.4-23.1 7.9-44.5 23.4-60.3 14.3-14.6 33.4-22.6 53.6-22.6 43 0 79.7 37 81.8 82.5 1.1 23.4-7.2 46-22.6 62.2-14.5 14.9-33.7 23.2-54.3 23.2zm-5-153.8c-16.4 0-31.8 6.5-43.5 18.4-12.8 13-19.7 30.9-19.3 50.1.7 39.2 31.1 71.1 67.8 71.1 16.7 0 32.3-6.7 44-18.9 12.8-13.4 19.6-32.2 18.7-51.7-1.8-38.1-32.2-69-67.7-69z"></path><path d="M774.9 777.7c-44.3 0-81.7-38.1-83.4-84.9-.9-23.1 7.1-44.6 22.3-60.4 14.1-14.6 33-22.7 53.2-22.7 43 0 80.3 37 83.3 82.4 1.5 23.4-6.3 46-21.5 62.2-14 15.1-33.2 23.4-53.9 23.4zm-7.8-153.8c-16.3 0-31.6 6.5-43 18.3-12.6 13-19.1 30.8-18.4 50 1.4 39.3 32.5 71.2 69.2 71.2 16.7 0 32.2-6.7 43.6-18.9 12.5-13.3 18.9-32.1 17.7-51.6-2.4-38-33.4-69-69.1-69z"></path></g></svg>