<svg xmlns="http://www.w3.org/2000/svg" viewBox="0 0 1000 1000"><path fill="none" d="M0 0h1000v1000H0z"></path><g fill="#00AEB1"><path d="M677.3 587H337.6c-3.9 0-7.1-3.2-7.1-7.1s3.2-7.1 7.1-7.1h339.7c25.4 0 46.1-20.7 46.1-46V215.9c0-25.4-20.7-46-46.1-46H163.2c-25.4 0-46 20.7-46 46v310.9c0 25.4 20.7 46 46 46h50.5c3.9 0 7.1 3.2 7.1 7.1s-3.2 7.1-7.1 7.1h-50.5c-33.2 0-60.2-27-60.2-60.2V215.9c0-33.2 27-60.2 60.2-60.2h514.1c33.2 0 60.2 27 60.2 60.2v310.9c.1 33.1-27 60.2-60.2 60.2zm-6.6 130.2H352.9c-3.9 0-7.1-3.2-7.1-7.1s3.2-7.1 7.1-7.1h317.8c3.9 0 7.1 3.2 7.1 7.1s-3.2 7.1-7.1 7.1zm166.1-.1h-39.6c-3.9 0-7.1-3.2-7.1-7.1s3.2-7.1 7.1-7.1h39.6c25.4 0 46.1-20.7 46.1-46V346.1c0-25.4-20.7-46.1-46.1-46.1h-20.9c-3.9 0-7.1-3.2-7.1-7.1s3.2-7.1 7.1-7.1h20.9c33.2 0 60.2 27 60.2 60.2v310.9c0 33.2-27 60.2-60.2 60.2z"></path><path d="M214.1 713.5c-.9 0-1.8-.2-2.7-.5-2.7-1.1-4.4-3.7-4.4-6.6V582.6c0-3.9 3.2-7.1 7.1-7.1s7.1 3.2 7.1 7.1V689l111.1-113.6c2.7-2.8 7.2-2.9 10-.1 2.8 2.7 2.9 7.2.1 10L219.1 711.4c-1.3 1.4-3.2 2.1-5 2.1zm581.8 130.8c-1.9 0-3.7-.7-5.1-2.1L666 715.4c-2.7-2.8-2.7-7.3.1-10 2.8-2.7 7.3-2.7 10 .1L788.8 820V711.1c0-3.9 3.2-7.1 7.1-7.1s7.1 3.2 7.1 7.1v126.2c0 2.9-1.7 5.5-4.4 6.6-.9.3-1.8.4-2.7.4zm-455.3-434c-14.2 0-25.7-11.5-25.7-25.7s11.5-25.7 25.7-25.7 25.7 11.5 25.7 25.7-11.6 25.7-25.7 25.7zm0-37.2c-6.3 0-11.5 5.2-11.5 11.5s5.2 11.5 11.5 11.5 11.5-5.2 11.5-11.5-5.2-11.5-11.5-11.5zm80.3 37.2c-14.2 0-25.7-11.5-25.7-25.7s11.5-25.7 25.7-25.7 25.7 11.5 25.7 25.7-11.5 25.7-25.7 25.7zm0-37.2c-6.3 0-11.5 5.2-11.5 11.5s5.2 11.5 11.5 11.5 11.5-5.2 11.5-11.5-5.1-11.5-11.5-11.5zm83.7 37.2c-14.2 0-25.7-11.5-25.7-25.7s11.5-25.7 25.7-25.7 25.7 11.5 25.7 25.7-11.5 25.7-25.7 25.7zm0-37.2c-6.3 0-11.5 5.2-11.5 11.5s5.2 11.5 11.5 11.5 11.5-5.2 11.5-11.5-5.1-11.5-11.5-11.5z"></path></g></svg>