<svg xmlns="http://www.w3.org/2000/svg" viewBox="0 0 1000 1000"><path fill="none" d="M0 0h1000v1000H0z"></path><g fill="#00AEB1"><path d="M648.9 482.2c-3.9 0-7.1-3.2-7.1-7.1V267.8c0-3.9 3.2-7.1 7.1-7.1s7.1 3.2 7.1 7.1v207.3c0 3.9-3.2 7.1-7.1 7.1zm84 167.8c-2.5 0-4.9-1.3-6.2-3.6l-70.3-124.8c-1.9-3.4-.7-7.7 2.7-9.7 3.4-1.9 7.8-.7 9.7 2.7L739 639.4c1.9 3.4.7 7.7-2.7 9.7-1.1.6-2.2.9-3.4.9z"></path><path d="M648.9 835.3c-118.1 0-228.8-63.2-288.8-164.9-2-3.4-.9-7.7 2.5-9.7 3.3-2 7.7-.9 9.7 2.5 57.5 97.4 163.5 158 276.6 158 177.1 0 321.1-144 321.1-321.1C970 324 826.7 179.9 650.5 179c-3.9 0-7.1-3.2-7-7.1 0-3.9 3.2-7.1 7.1-7.1 183.9 1 333.5 151.3 333.5 335.3 0 184.8-150.4 335.2-335.2 335.2z"></path><path d="M648.9 784.7c-157 0-284.7-127.7-284.7-284.7s127.7-284.7 284.7-284.7S933.6 343 933.6 500 805.9 784.7 648.9 784.7zm0-555.2c-149.2 0-270.6 121.4-270.6 270.5s121.4 270.5 270.6 270.5S919.4 649.2 919.4 500 798 229.5 648.9 229.5z"></path><path d="M648.9 529c-16 0-29-13-29-29s13-29 29-29 29 13 29 29-13 29-29 29zm0-43.8c-8.2 0-14.9 6.7-14.9 14.9s6.7 14.9 14.9 14.9 14.9-6.7 14.9-14.9-6.7-14.9-14.9-14.9zm2.8-306.3H22.9c-3.9 0-7.1-3.2-7.1-7.1s3.2-7.1 7.1-7.1h628.8c3.9 0 7.1 3.2 7.1 7.1s-3.2 7.1-7.1 7.1zM354.1 343H108.5c-3.9 0-7.1-3.2-7.1-7.1s3.2-7.1 7.1-7.1h245.6c3.9 0 7.1 3.2 7.1 7.1s-3.2 7.1-7.1 7.1zm-40.3 164H194.1c-3.9 0-7.1-3.2-7.1-7.1s3.2-7.1 7.1-7.1h119.8c3.9 0 7.1 3.2 7.1 7.1s-3.3 7.1-7.2 7.1zm50.5 164h-84.7c-3.9 0-7.1-3.2-7.1-7.1s3.2-7.1 7.1-7.1h84.7c3.9 0 7.1 3.2 7.1 7.1s-3.2 7.1-7.1 7.1z"></path></g></svg>