<svg xmlns="http://www.w3.org/2000/svg" width="72" height="72" fill="none" viewBox="0 0 72 72"><path fill="#3ECF8E" fill-rule="evenodd" d="M39.589 5.44c-2.101.916-3.732 2.03-5.446 3.716-3.147 3.098-4.618 6.456-4.875 11.123-.098 1.797-.205 2.21-.725 2.81-.64.74-1.992 1.03-2.962.634-.254-.103-1.147-.878-2.296-1.991-1.034-1.003-1.9-1.801-1.922-1.775-.279.327-4.3 5.842-4.75 6.516-3.214 4.807-4.36 10.942-3.13 16.733 1.636 7.691 7.427 14.069 15.063 16.591 10.959 3.62 22.845-1.158 28.057-11.278 2.585-5.019 2.556-9.993 1.807-13.781-.475-2.406-1.782-5.371-3.41-7.738-.903-1.313-1.285-1.777-3.872-4.698-1.31-1.48-2.536-2.759-3.656-3.927-3.128-3.262-5.434-5.667-6.472-9.219-.412-1.408-.34-3.414-.318-3.993.004-.102.006-.16.003-.162-.016-.015-.51.183-1.096.438ZM33.18 42.041c.762.639 1.681.958 2.758.958s1.996-.32 2.757-.958c.762-.64 1.333-1.521 1.714-2.646.394-1.125.591-2.424.591-3.896s-.197-2.77-.59-3.896c-.382-1.125-.953-2.007-1.715-2.646-.761-.639-1.68-.958-2.757-.958-1.077 0-1.996.32-2.758.958-.761.64-1.34 1.521-1.733 2.646-.38 1.125-.571 2.424-.571 3.896s.19 2.77.571 3.896c.394 1.125.972 2.007 1.733 2.646Zm4.984-2.48c-.526.959-1.267 1.438-2.226 1.438-.959 0-1.707-.48-2.246-1.438-.525-.958-.788-2.312-.788-4.062 0-1.75.263-3.104.788-4.063C34.231 30.48 34.98 30 35.938 30c.959 0 1.7.48 2.226 1.438.538.958.807 2.312.807 4.062 0 1.75-.269 3.104-.807 4.063ZM27.44 33.668a4.438 4.438 0 0 0-2.324-.625c-.407 0-.821.055-1.241.166-.407.111-.755.25-1.044.417l.512-3.563h5.14c.25 0 .454-.083.611-.25a.934.934 0 0 0 .257-.666.933.933 0 0 0-.256-.667.773.773 0 0 0-.611-.27h-5.791a.985.985 0 0 0-.65.229.961.961 0 0 0-.315.562l-.71 5.396-.019.208c0 .306.092.577.276.813.184.236.466.354.847.354.105 0 .23-.028.374-.084a7.33 7.33 0 0 0 .473-.229c.38-.194.702-.34.965-.437.276-.097.59-.146.945-.146.84 0 1.537.27 2.088.813.552.541.828 1.256.828 2.145 0 .598-.151 1.146-.454 1.646-.302.5-.715.896-1.24 1.188a3.402 3.402 0 0 1-1.714.437c-.617 0-1.221-.229-1.812-.687-.29-.209-.519-.313-.69-.313-.262 0-.479.09-.65.271a.799.799 0 0 0-.236.563c0 .18.04.36.118.541.079.18.184.327.315.438.368.32.821.57 1.36.75.538.18 1.076.27 1.615.27.958 0 1.838-.222 2.639-.666a5.052 5.052 0 0 0 1.91-1.854c.473-.778.71-1.646.71-2.605 0-.902-.197-1.715-.591-2.437a4.237 4.237 0 0 0-1.635-1.708ZM44.084 43a.737.737 0 0 1-.55-.23.796.796 0 0 1-.209-.554c0-.215.06-.389.179-.522l7.831-10.387c.179-.205.382-.307.61-.307.219 0 .402.077.551.23a.766.766 0 0 1 .224.554.768.768 0 0 1-.164.476L44.65 42.754a.731.731 0 0 1-.566.246Zm.894-5.87a2.848 2.848 0 0 1-1.504-.414 3.263 3.263 0 0 1-1.072-1.122A2.972 2.972 0 0 1 42 34.073c0-.553.134-1.06.402-1.521a3.094 3.094 0 0 1 1.072-1.122c.457-.287.958-.43 1.504-.43s1.042.143 1.489.43c.446.277.803.65 1.072 1.122.267.46.401.968.401 1.521 0 .553-.134 1.06-.401 1.521a3.262 3.262 0 0 1-1.072 1.122 2.771 2.771 0 0 1-1.49.415Zm0-1.567c.397 0 .734-.143 1.012-.43.288-.297.432-.65.432-1.06 0-.41-.144-.763-.432-1.06-.288-.297-.625-.446-1.012-.446-.407 0-.755.149-1.043.446a1.5 1.5 0 0 0-.416 1.06c0 .41.139.763.416 1.06.288.287.636.43 1.043.43ZM51.022 43a2.821 2.821 0 0 1-1.489-.415 3.13 3.13 0 0 1-1.072-1.106 3.056 3.056 0 0 1-.401-1.537c0-.563.134-1.075.401-1.536a3.13 3.13 0 0 1 1.072-1.106 2.771 2.771 0 0 1 1.49-.415c.535 0 1.027.138 1.473.415.457.266.82.63 1.087 1.09.278.462.417.979.417 1.552 0 .564-.139 1.076-.417 1.537a3.13 3.13 0 0 1-1.072 1.106 2.772 2.772 0 0 1-1.489.415Zm0-1.567c.407 0 .75-.144 1.028-.43.288-.297.431-.65.431-1.06 0-.41-.144-.759-.431-1.045a1.351 1.351 0 0 0-1.028-.446c-.397 0-.74.143-1.027.43-.278.287-.417.64-.417 1.06 0 .41.14.764.417 1.06.288.287.63.43 1.027.43ZM32.762 49.5c0 .825-.19 1.583-.568 2.275A4.267 4.267 0 0 1 30.62 53.4c-.662.4-1.41.6-2.245.6-.835 0-1.588-.2-2.259-.6a4.296 4.296 0 0 1-1.561-1.625A4.748 4.748 0 0 1 24 49.5c0-.825.185-1.58.555-2.263a4.27 4.27 0 0 1 1.561-1.637c.671-.4 1.424-.6 2.259-.6.834 0 1.583.2 2.245.6.671.4 1.196.946 1.574 1.637a4.59 4.59 0 0 1 .568 2.263Zm-1.677 0c0-.558-.117-1.063-.349-1.513a2.742 2.742 0 0 0-.968-1.087 2.513 2.513 0 0 0-1.393-.4c-.525 0-.994.133-1.407.4a2.684 2.684 0 0 0-.955 1.075 3.43 3.43 0 0 0-.335 1.525c0 .558.111 1.067.335 1.525.232.458.55.82.955 1.087.413.259.882.388 1.407.388.516 0 .98-.133 1.393-.4.413-.267.736-.625.968-1.075.232-.458.349-.967.349-1.525Zm4.642-2.938v2.2h2.788c.224 0 .409.071.555.213a.66.66 0 0 1 .232.525.645.645 0 0 1-.232.487.765.765 0 0 1-.555.213h-2.788v2.912c0 .217-.081.4-.245.55a.794.794 0 0 1-.554.213.845.845 0 0 1-.594-.212.732.732 0 0 1-.22-.55v-7.225c0-.217.074-.396.22-.538a.786.786 0 0 1 .568-.225h4.194c.223 0 .408.07.555.212a.66.66 0 0 1 .232.525.645.645 0 0 1-.233.488.765.765 0 0 1-.554.212h-3.368Zm7.118 2.2v-2.2h3.368c.224 0 .408-.07.555-.212a.645.645 0 0 0 .232-.488.66.66 0 0 0-.232-.525.765.765 0 0 0-.555-.212h-4.194a.785.785 0 0 0-.568.225.717.717 0 0 0-.22.538v7.224c0 .225.074.409.22.55a.845.845 0 0 0 .594.213c.215 0 .4-.07.554-.212a.718.718 0 0 0 .246-.55V50.2h2.787c.224 0 .409-.07.555-.213a.645.645 0 0 0 .232-.487.66.66 0 0 0-.232-.525.765.765 0 0 0-.555-.212h-2.787Z" clip-rule="evenodd"></path></svg>