<svg xmlns="http://www.w3.org/2000/svg" width="72" height="72" fill="none" viewBox="0 0 72 72"><path fill="#9FE7C7" fill-rule="evenodd" d="M23 19c0-5.523 4.477-10 10-10h6c5.523 0 10 4.477 10 10v4h-4v-4a6 6 0 0 0-6-6h-6a6 6 0 0 0-6 6v4h-4v-4Z" clip-rule="evenodd"></path><path fill="#3ECF8E" fill-rule="evenodd" d="M17 25.714a5 5 0 0 0-5 5v26.572a5 5 0 0 0 5 5h38a5 5 0 0 0 5-5V30.714a5 5 0 0 0-5-5H17Zm11.936 18.134c-3.324 0-5.936-2.725-5.936-5.924C23 34.725 25.73 32 28.936 32s5.936 2.725 5.936 5.924c0 3.2-2.612 5.924-5.936 5.924Zm0-9.478c-2.018 0-3.562 1.659-3.562 3.554 0 2.014 1.663 3.555 3.562 3.555 1.9 0 3.562-1.659 3.562-3.555 0-1.895-1.544-3.554-3.562-3.554ZM43.064 57c-3.324 0-5.936-2.725-5.936-5.924 0-3.2 2.73-5.924 5.936-5.924 3.205 0 5.936 2.725 5.936 5.924C49 54.275 46.388 57 43.064 57Zm0-9.597c-2.018 0-3.562 1.659-3.562 3.554 0 1.896 1.662 3.555 3.562 3.555s3.562-1.659 3.562-3.555c0-1.895-1.544-3.554-3.562-3.554ZM25.61 54.63c.238.237.475.356.831.356.357 0 .594-.119.831-.356l19.115-19.076a1.144 1.144 0 0 0 0-1.658 1.15 1.15 0 0 0-1.663 0L25.611 52.972a1.144 1.144 0 0 0 0 1.658Z" clip-rule="evenodd"></path></svg>