<svg xmlns="http://www.w3.org/2000/svg" data-name="Layer 1" viewBox="0 0 1000 1000" fill="white"><path d="M139.22 779.1a8 8 0 0 1-7.89-9.36c2-11.55 3.56-23.28 5.07-34.62 5.57-41.68 10.37-77.67 33.67-92.13 20.24-12.57 48.35-23.82 78.1-35.74 26-10.42 53-21.21 73.33-32.67 46.78-26.32 53.24-40.34 57.77-58.73 2-8.06-4.53-50.32-14-70-11.54-6.1-23-18.69-31.85-35.05-9.11-16.86-13.39-34-11.46-45.79 1.19-7.26 4.68-12.66 9.92-15.65-5.89-34.53-.41-70.55 16.33-107.18C351.86 234 386.15 162 464.86 162c66.54 0 99.21 44.16 111.51 60.79.76 1 1.44 1.94 2 2.74 25.28 33.26 31.77 83.55 29.37 122.67a14.2 14.2 0 0 1 9.06 8.92c5.75 15-5.8 42.7-9.48 50.82-4.48 9.89-16.07 32.62-31.31 41.3-1.43 4-3.07 8.11-4.79 12.41-6.69 16.8-14.27 35.85-13.41 56.7.88 21.11 28.69 51 64.68 69.62a8 8 0 1 1-7.34 14.21c-42-21.69-72.19-55.89-73.32-83.16-1-24.27 7.6-45.9 14.53-63.29 2.09-5.25 4.06-10.21 5.59-14.75a8 8 0 0 1 4.55-4.86c10-4.09 23.85-25.25 31.53-48.19 4.39-13.11 4.72-21.13 4.1-24.19l-.37.12a8 8 0 0 1-10.65-8.33c4.66-46.59-5.34-93.82-25.48-120.32-.65-.85-1.37-1.82-2.17-2.91-12-16.25-40.17-54.3-98.65-54.3-68.61 0-98.81 63.51-102 70.76-16.46 36-21.13 71.08-13.9 104.31a8 8 0 0 1-7.1 9.67c-1.47.13-3.3.3-4.05 4.86-2.88 17.55 16.63 56.1 36.66 64.91a7.9 7.9 0 0 1 3.81 3.52c11.27 20.83 20 69.82 16.55 83.69-6.19 25.18-17.56 41.9-65.46 68.85-21.28 12-48.7 23-75.22 33.58-29.09 11.64-56.56 22.65-75.62 34.48-16.87 10.47-21.42 44.56-26.24 80.65-1.53 11.49-3.12 23.37-5.17 35.22a8 8 0 0 1-7.85 6.6zm616.2 96.9c-85.37 0-154.83-69.46-154.83-154.83a154.83 154.83 0 0 1 309.66 0c0 85.37-69.45 154.83-154.83 154.83zm0-293.66c-76.55 0-138.83 62.28-138.83 138.83S678.87 860 755.42 860s138.83-62.28 138.83-138.83S832 582.34 755.42 582.34z" class="step-1_svg__cls-1"></path><path d="M755.42 801.15a8 8 0 0 1-8-8V649.92a8 8 0 0 1 16 0v143.23a8 8 0 0 1-8 8z" class="step-1_svg__cls-1"></path><path d="M827.4 729.17H684.17a8 8 0 0 1 0-16H827.4a8 8 0 0 1 0 16zM139.22 779.1a8 8 0 0 1-7.89-9.36c2-11.55 3.56-23.28 5.07-34.62 5.57-41.68 10.37-77.67 33.67-92.13 20.24-12.57 48.35-23.82 78.1-35.74 26-10.42 53-21.21 73.33-32.67 46.78-26.32 53.24-40.34 57.77-58.73 2-8.06-4.53-50.32-14-70-11.54-6.1-23-18.69-31.85-35.05-9.11-16.86-13.39-34-11.46-45.79 1.19-7.26 4.68-12.66 9.92-15.65-5.89-34.53-.41-70.55 16.33-107.18C351.86 234 386.15 162 464.86 162c66.54 0 99.21 44.16 111.51 60.79.76 1 1.44 1.94 2 2.74 25.28 33.26 31.77 83.55 29.37 122.67a14.2 14.2 0 0 1 9.06 8.92c5.75 15-5.8 42.7-9.48 50.82-4.48 9.89-16.07 32.62-31.31 41.3-1.43 4-3.07 8.11-4.79 12.41-6.69 16.8-14.27 35.85-13.41 56.7.88 21.11 28.69 51 64.68 69.62a8 8 0 1 1-7.34 14.21c-42-21.69-72.19-55.89-73.32-83.16-1-24.27 7.6-45.9 14.53-63.29 2.09-5.25 4.06-10.21 5.59-14.75a8 8 0 0 1 4.55-4.86c10-4.09 23.85-25.25 31.53-48.19 4.39-13.11 4.72-21.13 4.1-24.19l-.37.12a8 8 0 0 1-10.65-8.33c4.66-46.59-5.34-93.82-25.48-120.32-.65-.85-1.37-1.82-2.17-2.91-12-16.25-40.17-54.3-98.65-54.3-68.61 0-98.81 63.51-102 70.76-16.46 36-21.13 71.08-13.9 104.31a8 8 0 0 1-7.1 9.67c-1.47.13-3.3.3-4.05 4.86-2.88 17.55 16.63 56.1 36.66 64.91a7.9 7.9 0 0 1 3.81 3.52c11.27 20.83 20 69.82 16.55 83.69-6.19 25.18-17.56 41.9-65.46 68.85-21.28 12-48.7 23-75.22 33.58-29.09 11.64-56.56 22.65-75.62 34.48-16.87 10.47-21.42 44.56-26.24 80.65-1.53 11.49-3.12 23.37-5.17 35.22a8 8 0 0 1-7.85 6.6z" class="step-1_svg__cls-1"></path><path d="M755.42 876c-85.37 0-154.83-69.46-154.83-154.83a154.83 154.83 0 0 1 309.66 0c0 85.37-69.45 154.83-154.83 154.83zm0-293.66c-76.55 0-138.83 62.28-138.83 138.83S678.87 860 755.42 860s138.83-62.28 138.83-138.83S832 582.34 755.42 582.34z" class="step-1_svg__cls-1"></path><path d="M755.42 801.15a8 8 0 0 1-8-8V649.92a8 8 0 0 1 16 0v143.23a8 8 0 0 1-8 8z" class="step-1_svg__cls-1"></path><path d="M827.4 729.17H684.17a8 8 0 0 1 0-16H827.4a8 8 0 0 1 0 16z" class="step-1_svg__cls-1"></path></svg>