<svg xmlns="http://www.w3.org/2000/svg" data-name="Layer 1" viewBox="0 0 1000 1000" style="fill:#dfa748"><path d="M825.73 677.06H174.29a37.19 37.19 0 0 1-37.15-37.15V221.75a37.2 37.2 0 0 1 37.15-37.15h651.44a37.19 37.19 0 0 1 37.13 37.15v418.16a37.18 37.18 0 0 1-37.13 37.15zM174.29 200.6a21.18 21.18 0 0 0-21.15 21.15v418.16a21.18 21.18 0 0 0 21.15 21.15h651.44a21.17 21.17 0 0 0 21.13-21.15V221.75a21.17 21.17 0 0 0-21.13-21.15z"></path><path d="M501.09 200.6a8 8 0 0 1-8-8V153a8 8 0 1 1 16 0v39.6a8 8 0 0 1-8 8zm44.41 315.98a8 8 0 0 1-5.09-1.83L385.09 386.66 254.54 497.14a8 8 0 0 1-10.34-12.22l135.66-114.79a8 8 0 0 1 10.25-.07l155.45 128.2L735.68 345.2a8 8 0 0 1 10 12.46L550.51 514.81a8 8 0 0 1-5.01 1.77z"></path><path d="M412.41 376.24A27.38 27.38 0 1 1 385 348.87a27.38 27.38 0 0 1 27.41 27.37zM287 481.32a27.38 27.38 0 1 1-27.38-27.38A27.37 27.37 0 0 1 287 481.32z"></path><ellipse cx="546.34" cy="508.59" rx="27.39" ry="27.37"></ellipse><ellipse cx="738.34" cy="353.59" rx="27.39" ry="27.37"></ellipse><path d="M501.09 798.34a8 8 0 0 1-8-8V669.06a8 8 0 0 1 16 0v121.28a8 8 0 0 1-8 8z"></path><path d="M357.65 855a8 8 0 0 1-5.32-14l142.35-126.71a8 8 0 1 1 10.64 12L363 853a8 8 0 0 1-5.35 2z"></path><path d="M649.4 859a7.94 7.94 0 0 1-5.31-2L501.73 730.24a8 8 0 0 1 10.64-12L654.72 845a8 8 0 0 1-5.32 14z"></path></svg>