<svg xmlns="http://www.w3.org/2000/svg" data-name="Layer 1" viewBox="0 0 1000 1000" fill="white"><path d="M729.71 533.16h-.73a8 8 0 0 1-7.25-8.69l28.33-313.65a32.69 32.69 0 0 0-29.5-35.37l-344-31.07a32.69 32.69 0 0 0-35.36 29.5 8 8 0 0 1-15.94-1.43 48.68 48.68 0 0 1 52.74-44l344 31.07a48.68 48.68 0 0 1 44 52.73l-28.33 313.63a8 8 0 0 1-7.96 7.28z" class="step-2_svg__cls-1"></path><path d="M466.15 818.58h-206a50.27 50.27 0 0 1-50.22-50.21V244.78a50.28 50.28 0 0 1 50.22-50.21h359.42a50.28 50.28 0 0 1 50.22 50.21v269.64a8 8 0 1 1-16 0V244.78a34.26 34.26 0 0 0-34.22-34.21H260.14a34.26 34.26 0 0 0-34.22 34.21v523.59a34.25 34.25 0 0 0 34.22 34.21h206a8 8 0 0 1 0 16z" class="step-2_svg__cls-1"></path><path d="M439.31 557.24c-72.29 0-131.11-58.82-131.11-131.12S367 295 439.31 295s131.12 58.81 131.12 131.11-58.82 131.13-131.12 131.13zm0-246.23a115.12 115.12 0 1 0 115.12 115.11A115.24 115.24 0 0 0 439.31 311z" class="step-2_svg__cls-1"></path><path d="M439.31 557.24c-16.64 0-31.65-14.6-42.25-41.09-9.67-24.18-15-56.15-15-90s5.32-65.85 15-90c10.6-26.55 25.61-41.15 42.25-41.15s31.69 14.6 42.25 41.09c9.67 24.18 15 56.15 15 90s-5.33 65.85-15 90C471 542.64 456 557.24 439.31 557.24zm0-246.23c-9.38 0-19.62 11.6-27.39 31-8.93 22.33-13.85 52.19-13.85 84.08s4.92 61.75 13.85 84.08c7.77 19.44 18 31 27.39 31s19.63-11.6 27.4-31c8.93-22.33 13.85-52.19 13.85-84.08s-4.92-61.75-13.85-84.08c-7.77-19.4-18.01-31.01-27.4-31.01z" class="step-2_svg__cls-1"></path><path d="M562.43 434.12H316.2a8 8 0 1 1 0-16h246.23a8 8 0 0 1 0 16zM668.8 915.78c-103.26 0-187.27-84-187.27-187.27s84-187.27 187.27-187.27 187.28 84 187.28 187.27-84.01 187.27-187.28 187.27zm0-358.54c-94.43 0-171.27 76.83-171.27 171.27s76.84 171.27 171.27 171.27S840.08 823 840.08 728.51 763.24 557.24 668.8 557.24z" class="step-2_svg__cls-1"></path><path d="M670.4 810.45a8 8 0 0 1-5.35-2.05l-94.69-85.11a8 8 0 0 1 10.7-11.9l87.57 78.71 86.47-139.74a8 8 0 1 1 13.6 8.41l-91.5 147.89a8 8 0 0 1-5.66 3.71 8.74 8.74 0 0 1-1.14.08zM489 604.75H298.92a8 8 0 0 1 0-16H489a8 8 0 0 1 0 16zm-32.41 44.9H298.92a8 8 0 1 1 0-16h157.67a8 8 0 1 1 0 16z" class="step-2_svg__cls-1"></path></svg>