<svg xmlns="http://www.w3.org/2000/svg" data-name="Layer 1" viewBox="0 0 1000 1000" style="fill: rgb(223, 167, 72);"><path fill="none" d="M0 0h1000v1000H0z"></path><path d="M85 388.32a8 8 0 0 1-8-8v-97.14a8 8 0 0 1 8-8h97.15a8 8 0 0 1 8 8A105.26 105.26 0 0 1 85 388.32zm8-97.14V372a89.31 89.31 0 0 0 80.79-80.79zm822 97.14a105.26 105.26 0 0 1-105.15-105.14 8 8 0 0 1 8-8H915a8 8 0 0 1 8 8v97.14a8 8 0 0 1-8 8zm-88.79-97.14A89.31 89.31 0 0 0 907 372v-80.82zM915 724.82h-97.15a8 8 0 0 1-8-8A105.26 105.26 0 0 1 915 611.68a8 8 0 0 1 8 8v97.14a8 8 0 0 1-8 8zm-88.79-16H907V628a89.31 89.31 0 0 0-80.79 80.82zm-644.06 16H85a8 8 0 0 1-8-8v-97.14a8 8 0 0 1 8-8 105.26 105.26 0 0 1 105.15 105.14 8 8 0 0 1-8 8zm-89.15-16h80.79A89.31 89.31 0 0 0 93 628zm407.67-32.57c-92.67 0-168.09-79.07-168.09-176.25S408 323.75 500.67 323.75 668.75 402.82 668.75 500s-75.4 176.25-168.08 176.25zm0-336.5c-83.86 0-152.09 71.89-152.09 160.25s68.23 160.25 152.09 160.25S652.75 588.36 652.75 500s-68.22-160.25-152.08-160.25z" class="initial-payment_svg__cls-2"></path><path d="M518 604.67h-18.78a3.36 3.36 0 0 1-3.37-3.36V440.59a3.36 3.36 0 0 0-4.52-3.16l-42.05 15.45a3.37 3.37 0 0 1-4.52-3.16v-15.86a3.36 3.36 0 0 1 2.18-3.15l69.85-26.23a3.41 3.41 0 0 1 1.18-.21 3.35 3.35 0 0 1 3.36 3.36v193.68a3.35 3.35 0 0 1-3.33 3.36zm-290.83-26.89c-14.37 0-27.65-8.06-37.4-22.69-9.07-13.63-14.07-31.59-14.07-50.59s5-37 14.07-50.59c9.75-14.63 23-22.69 37.4-22.69s27.66 8.06 37.4 22.69c9.07 13.63 14.07 31.59 14.07 50.59s-5 37-14.07 50.59c-9.74 14.63-23.03 22.69-37.4 22.69zm0-130.56c-19.23 0-35.47 26.23-35.47 57.28s16.24 57.28 35.47 57.28 35.47-26.23 35.47-57.28-16.24-57.28-35.47-57.28zm547.21 130.56c-14.37 0-27.65-8.06-37.39-22.69-9.08-13.63-14.07-31.59-14.07-50.59s5-37 14.07-50.59c9.74-14.63 23-22.69 37.39-22.69s27.66 8.06 37.4 22.69c9.08 13.63 14.07 31.59 14.07 50.59s-5 37-14.07 50.59c-9.78 14.63-23.02 22.69-37.4 22.69zm0-130.56c-19.22 0-35.46 26.23-35.46 57.28s16.24 57.28 35.46 57.28 35.47-26.23 35.47-57.28-16.24-57.28-35.47-57.28z" class="initial-payment_svg__cls-2"></path><path d="M915 724.82H85a8 8 0 0 1-8-8V283.18a8 8 0 0 1 8-8h830a8 8 0 0 1 8 8v433.64a8 8 0 0 1-8 8zm-822-16h814V291.18H93z" class="initial-payment_svg__cls-2"></path></svg>