<svg xmlns="http://www.w3.org/2000/svg" data-name="Layer 1" viewBox="0 0 1000 1000" style="fill: rgb(223, 167, 72);"><path d="M625.75 928.45a8.06 8.06 0 0 1-4.43-1.33l-123-81.73-123 81.73a8 8 0 0 1-12.32-6.67V626.22a7.7 7.7 0 0 1 .18-1.67 23.73 23.73 0 0 0-21.79-10.08l-37.24 2.79a40.18 40.18 0 0 1-30.49-10.51 39.68 39.68 0 0 1-13.23-29.52l-.71-51.23a24.13 24.13 0 0 0-14-22l-33.51-16a40.66 40.66 0 0 1-17.75-56.56l25.1-44.81a23.87 23.87 0 0 0-1.15-25.91l-21-30.82a40.65 40.65 0 0 1 12.88-57.9l44.1-26.23a23.83 23.83 0 0 0 12-23l-2.79-37.25A40.22 40.22 0 0 1 274.1 155a39.67 39.67 0 0 1 29.52-13.22l51.26-.67a24.17 24.17 0 0 0 22-14L393 93.55a39.45 39.45 0 0 1 24.46-21.1 39.93 39.93 0 0 1 32 3.33l44.75 25.12a23.67 23.67 0 0 0 25.89-1.16l30.93-21A40.64 40.64 0 0 1 609 91.64l26.23 44.11a23.84 23.84 0 0 0 23 12l37.26-2.75A40.16 40.16 0 0 1 726 155.45 39.69 39.69 0 0 1 739.2 185l.68 51.35a23.85 23.85 0 0 0 13.93 21.86l33.5 16.17A40.67 40.67 0 0 1 805 330.92l-25.1 44.72a23.68 23.68 0 0 0 1.15 25.9l21 30.82a40.65 40.65 0 0 1-12.88 57.89l-44.1 26.23a24 24 0 0 0-12 23l2.79 37.25a40.23 40.23 0 0 1-10.51 30.5 39.71 39.71 0 0 1-29.52 13.22l-51.26.67a25.2 25.2 0 0 0-10.87 2.55v296.78a8 8 0 0 1-8 8zm-127.4-100.67a8 8 0 0 1 4.43 1.34l115 76.41V645.28l-11.28 23.38a40.67 40.67 0 0 1-56.56 17.73l-44.73-25.1a23.83 23.83 0 0 0-25.89 1.15l-30.82 21a40.63 40.63 0 0 1-57.89-12.88L379 651v254.53l115-76.41a8 8 0 0 1 4.35-1.34zM493.06 642a41 41 0 0 1 20 5.3l44.77 25.13a23.49 23.49 0 0 0 19.49 2 23.22 23.22 0 0 0 14.79-12.74l16.17-33.6a40.2 40.2 0 0 1 36.15-23l51.3-.67a23.42 23.42 0 0 0 17.88-8 23.85 23.85 0 0 0 6.39-18.5l-2.79-37.22a40 40 0 0 1 19.73-38l44.2-26.29a23.18 23.18 0 0 0 11.48-15.83 23.7 23.7 0 0 0-3.69-19.24l-21-30.81a39.64 39.64 0 0 1-1.93-42.74l25.1-44.73a23.48 23.48 0 0 0 2-19.48 23.2 23.2 0 0 0-12.74-14.79l-33.52-16.18a39.88 39.88 0 0 1-23-36.05l-.68-51.4a23.41 23.41 0 0 0-8-17.87 23.85 23.85 0 0 0-18.55-6.39l-37.22 2.79a39.82 39.82 0 0 1-38-19.77L595.2 99.76a23.19 23.19 0 0 0-15.82-11.48A23.73 23.73 0 0 0 560.14 92l-30.93 21a39.64 39.64 0 0 1-42.78 1.89l-44.69-25.12a24 24 0 0 0-19.49-2 23.24 23.24 0 0 0-14.82 12.75l-16.17 33.6a40.19 40.19 0 0 1-36.15 23l-51.3.68a23.38 23.38 0 0 0-17.88 8 23.84 23.84 0 0 0-6.38 18.55l2.79 37.22a39.84 39.84 0 0 1-19.78 38l-44.15 26.26a23.16 23.16 0 0 0-11.48 15.82 23.7 23.7 0 0 0 3.69 19.24l21 30.82a39.85 39.85 0 0 1 1.92 42.75l-25.12 44.85a23.49 23.49 0 0 0-2 19.5 23.24 23.24 0 0 0 12.74 14.79l33.59 16.07a40.18 40.18 0 0 1 23 36.15l.67 51.3a23.45 23.45 0 0 0 8 17.88 23.88 23.88 0 0 0 18.56 6.38l37.21-2.78a39.8 39.8 0 0 1 38 19.77l26.26 44.15A23.15 23.15 0 0 0 420.28 674a23.73 23.73 0 0 0 19.24-3.68l30.82-21a40 40 0 0 1 22.72-7.32zm6.74-53.79a207 207 0 1 1 146.43-60.64 205.76 205.76 0 0 1-146.43 60.66zm0-398.15c-105.36 0-191.08 85.71-191.08 191.07s85.72 191.1 191.08 191.1 191.07-85.72 191.07-191.08-85.71-191.07-191.07-191.07zm85.53 327.81a8 8 0 0 1-4.3-1.26l-80.49-51.41L419 516.66a8 8 0 0 1-12-8.78l24-92.46-74.13-61.7a8 8 0 0 1 4.63-14.13l95.38-5.76 35.65-89.57a8 8 0 0 1 7.43-5 8 8 0 0 1 7.43 5.07l35 89 96.25 6.31a8 8 0 0 1 4.56 14.16l-73.82 60.76 23.67 93.42a8 8 0 0 1-7.76 10zM382.65 354.34l62.52 52a8 8 0 0 1 2.62 8.16l-20.22 77.8L496.3 449a8 8 0 0 1 8.58 0l67.74 43.29-20-78.75a8 8 0 0 1 2.67-8.14l62.15-51.15-81.16-5.31a8 8 0 0 1-6.92-5.06L500 269l-30.1 75.47a8 8 0 0 1-6.95 5z"></path></svg>