<svg xmlns="http://www.w3.org/2000/svg" data-name="Layer 1" viewBox="0 0 1000 1000" fill="white"><path d="M126.11 832h747.78v16H126.11z" class="step-3_svg__cls-1"></path><path d="M265.94 848h-115.8V676.14a21.42 21.42 0 0 1 21.4-21.4h73a21.43 21.43 0 0 1 21.41 21.4zm-99.8-16h83.8V676.14a5.34 5.34 0 0 0-5.41-5.4h-73a5.34 5.34 0 0 0-5.4 5.4zm293.45 16h-115.8V531.65c0-11.2 9.8-20.66 21.4-20.66h73c11.61 0 21.41 9.46 21.41 20.66zm-99.8-16h83.8V531.65c0-2.2-2.31-4.66-5.41-4.66h-73c-3.09 0-5.4 2.46-5.4 4.66zm293.45 16H537.43V595a21.43 21.43 0 0 1 21.41-21.4h73a21.43 21.43 0 0 1 21.4 21.4zm-99.81-16h83.81V595a5.35 5.35 0 0 0-5.41-5.4h-73a5.35 5.35 0 0 0-5.41 5.4zm293.45 16h-115.8V422.17a21.43 21.43 0 0 1 21.41-21.41h73a21.43 21.43 0 0 1 21.4 21.41zm-99.8-16h83.8V422.17a5.35 5.35 0 0 0-5.4-5.41h-73a5.36 5.36 0 0 0-5.41 5.41zM208 552.32a54.73 54.73 0 1 1 38.89-16 55 55 0 0 1-38.89 16zm0-93.85c-21.1 0-38.92 17.83-38.92 38.92s17.82 38.93 38.92 38.93a38.93 38.93 0 0 0 0-77.85zm193.69-64.8a55 55 0 0 1-54.93-54.92c0-29.77 25.16-54.92 54.93-54.92a54.92 54.92 0 1 1 0 109.84zm0-93.84c-20.74 0-38.93 18.19-38.93 38.92 0 21.1 17.83 38.92 38.93 38.92a38.51 38.51 0 0 0 38.92-38.92c0-21.1-17.82-38.92-38.92-38.92zm193.64 155.66a54.73 54.73 0 1 1 38.9-16 55 55 0 0 1-38.9 16zm0-93.84c-21.09 0-38.92 17.82-38.92 38.92s17.83 38.92 38.92 38.92a38.92 38.92 0 1 0 0-77.84zM789 261.84a54.7 54.7 0 1 1 38.9-16 55 55 0 0 1-38.9 16zm0-93.84c-21.1 0-38.92 17.82-38.92 38.92s17.82 38.92 38.92 38.92a38.92 38.92 0 0 0 0-77.84z" class="step-3_svg__cls-1"></path><path d="m241.76 461.37 123.644-99.058 10.004 12.487-123.643 99.057zM626.895 359.983l122.902-124.369 11.38 11.247-122.9 124.369zM446.92 359.037l4.864-15.243 105.022 33.517-4.865 15.242z" class="step-3_svg__cls-1"></path></svg>