<svg xmlns="http://www.w3.org/2000/svg" data-name="Layer 1" viewBox="0 0 1000 1000" style="fill:#dfa748"><path d="M439.78 553.54a8 8 0 0 1-3.35-.73L225.9 455.64a8 8 0 0 1-4.24-9.77l43.51-131.58a8 8 0 0 1 10.61-4.9L405.33 362a8 8 0 0 1 4.82 5.75l37.45 176.13a8 8 0 0 1-7.82 9.66zM239.09 444.11l189.54 87.48-33.25-156.34-117.7-47.82z" class="profitable_svg__cls-1"></path><path d="M402.59 377.54a8 8 0 0 1-4.08-14.88l255.15-151.24-108.84-37.71L277.94 323a8 8 0 0 1-7.81-14l270.01-151a8 8 0 0 1 6.52-.57L675.2 202a8 8 0 0 1 1.46 14.44l-270 160a8 8 0 0 1-4.07 1.1z" class="profitable_svg__cls-1"></path><path d="M440.05 553.3a8 8 0 0 1-4.58-14.57L732.88 331.6l-66.25-117.14a8 8 0 0 1 13.93-7.88l69.84 123.48a8 8 0 0 1-2.4 10.51L444.62 551.86a8 8 0 0 1-4.57 1.44zM323.37 295.44a7.9 7.9 0 0 1-3.13-.64l-116.41-49.6a8 8 0 0 1-.72-14.37l162-89.06a8 8 0 0 1 7-.37L487.42 190a8 8 0 0 1-6.21 14.75l-111.82-47.1-144.16 79.28 101.28 43.15a8 8 0 0 1-3.14 15.36z" class="profitable_svg__cls-1"></path><path d="M238.35 423a7.92 7.92 0 0 1-3.1-.63l-45.56-19.23a8 8 0 0 1-4.85-8.1L199 239.15a8 8 0 0 1 16 1.45l-13.65 150 40.17 17a8 8 0 0 1-3.17 15.4zm464.59 31.35a8 8 0 0 1-2.92-.55l-74.89-29.35a8 8 0 0 1 5.84-14.9l70.68 27.7 123.88-94.93L718.22 300a8 8 0 1 1 5.88-14.88l120.46 47.56a8 8 0 0 1 1.92 13.79L707.8 452.7a8 8 0 0 1-4.86 1.65z" class="profitable_svg__cls-1"></path><path d="M617.93 859.22a8 8 0 0 1-3.29-.7l-501-225.71a8 8 0 0 1-4.68-8l14.16-152.85a8 8 0 0 1 4-6.19L228.8 407a8 8 0 1 1 8 13.86l-98.15 56.63-13.26 143L616.87 842l187-142.38-42.46-121.7-225.76-93.55a8 8 0 1 1 6.13-14.78l229 94.89a8 8 0 0 1 4.5 4.75l45.56 130.57a8 8 0 0 1-2.71 9L622.77 857.59a8 8 0 0 1-4.84 1.63z" class="profitable_svg__cls-1"></path><path d="M618.44 856.69h-.61a8 8 0 0 1-7.38-8.58l12.21-160.75-492.41-206.55a8 8 0 0 1 6.19-14.76l497.73 208.77a8 8 0 0 1 4.88 8L626.41 849.3a8 8 0 0 1-7.97 7.39z" class="profitable_svg__cls-1"></path><path d="M630.07 691.21a8 8 0 0 1-5-14.25l137.16-109.82a8 8 0 0 1 10 12.49L635.07 689.45a8 8 0 0 1-5 1.76zm67.07-140.96h-.49a8 8 0 0 1-7.5-8.48l5.85-94.9a8 8 0 0 1 16 1l-5.81 94.89a8 8 0 0 1-8.05 7.49z" class="profitable_svg__cls-1"></path><path d="M754.31 573.79a8 8 0 0 1-4.85-14.36l124.28-94.74L834 342.81a8 8 0 0 1 15.21-5l41.49 127.28A8 8 0 0 1 888 474l-128.8 98.19a8 8 0 0 1-4.89 1.6z" class="profitable_svg__cls-1"></path></svg>