<svg xmlns="http://www.w3.org/2000/svg" data-name="Layer 1" viewBox="0 0 1000 1000" style="fill: rgb(223, 167, 72);"><path d="M256.65 386.77a8 8 0 0 1-8-7.82 274.81 274.81 0 0 1 1.84-43.15 232.41 232.41 0 0 1 10.59-48 190.28 190.28 0 0 1 17.71-37.68 177.71 177.71 0 0 1 21.4-28.47 200.53 200.53 0 0 1 26.21-23.49 209.24 209.24 0 0 1 33.45-21c11.83-5.92 25.91-11.51 43-17.08a8 8 0 1 1 5 15.21c-16.35 5.32-29.7 10.62-40.82 16.18a193.84 193.84 0 0 0-30.93 19.4 184.14 184.14 0 0 0-24.15 21.64 160.14 160.14 0 0 0-19.47 25.92A174.22 174.22 0 0 0 276.21 293a217.66 217.66 0 0 0-9.83 44.64 258.28 258.28 0 0 0-1.73 41 8 8 0 0 1-7.82 8.18zm108.19-17.49a7.87 7.87 0 0 1-3.71-.92 8 8 0 0 1-3.36-10.8c7.59-14.44 12.32-22.83 14.89-26.43 3.69-5.17 8.17-4.66 9.93-4.2 6.23 1.63 6.8 6.86 7.84 16.36.4 3.68.9 8.26 1.7 13.93a8 8 0 0 1-15.85 2.24c-.1-.72-.19-1.42-.29-2.11-1.21 2.26-2.56 4.8-4.06 7.65a8 8 0 0 1-7.09 4.28zM642.86 442h-.54a8 8 0 0 1-7.45-8.51c1.09-16.37 1-27.91-.41-37.4a83.25 83.25 0 0 0-9.14-27.7c-1.42-2.69-3-5.35-4.51-7.84l-.24 1.75c-.9 6.31-2 14.21-3.26 22.78a8 8 0 1 1-15.83-2.29c1.23-8.55 2.35-16.44 3.24-22.74l.4-2.8c.92-6.55 1.54-10.88 2.08-13.78.59-3.1 1.68-8.87 7.43-10.28s9.18 3.3 10.62 5.32a199.58 199.58 0 0 1 14.23 22.43 100 100 0 0 1 10.81 32.87c1.54 10.64 1.71 23.2.54 40.74a8 8 0 0 1-7.97 7.45z" class="mt4_svg__cls-1"></path><path d="M692.14 568.36a7.9 7.9 0 0 1-3.2-.68 8 8 0 0 1-4.13-10.53l.62-1.42c5.64-12.9 14.17-32.39 22-54 8.33-23.06 15.72-48.11 19.77-67 4-18.7 5-32.51 5.4-48.74a354.35 354.35 0 0 0-1.72-48.32A216.72 216.72 0 0 0 721 293a173.69 173.69 0 0 0-16.25-34.53 159.38 159.38 0 0 0-19.46-25.92 184 184 0 0 0-24.15-21.63 193.3 193.3 0 0 0-30.92-19.41c-11.12-5.56-24.48-10.86-40.83-16.18a8 8 0 1 1 5-15.21c17.11 5.57 31.19 11.16 43 17.08a209 209 0 0 1 33.45 21 201.11 201.11 0 0 1 26.21 23.49 176.79 176.79 0 0 1 21.39 28.47 189.53 189.53 0 0 1 17.72 37.68 233.57 233.57 0 0 1 10.59 48 368.4 368.4 0 0 1 1.83 50.51c-.39 17.16-1.48 31.8-5.75 51.73-4.2 19.56-11.81 45.39-20.37 69.09-8 22.14-16.65 41.92-22.38 55l-.62 1.42a8 8 0 0 1-7.32 4.77zM498.62 306.12c-46.25 0-83.89-46.74-83.89-104.18s37.64-104.17 83.89-104.17 83.89 46.73 83.89 104.17-37.63 104.18-83.89 104.18zm0-192.35c-37.43 0-67.89 39.55-67.89 88.17s30.46 88.18 67.89 88.18 67.89-39.56 67.89-88.18-30.45-88.17-67.89-88.17zM347.1 902.23h-1.64a175.84 175.84 0 0 1-35.41-3.75A202.31 202.31 0 0 1 276.43 888a210.32 210.32 0 0 1-35.18-18c-11.14-7.11-23.16-16.32-36.73-28.15A8 8 0 1 1 215 829.87c13 11.3 24.36 20 34.84 26.72a194.2 194.2 0 0 0 32.56 16.61 187.64 187.64 0 0 0 31 9.62 160.45 160.45 0 0 0 32.23 3.4 173.89 173.89 0 0 0 38-3.79 214.92 214.92 0 0 0 43.3-14.43A257.53 257.53 0 0 0 463 848.44a8 8 0 1 1 8.49 13.56 274.49 274.49 0 0 1-38 20.56 232.16 232.16 0 0 1-46.62 15.54 189.28 189.28 0 0 1-39.77 4.13zM372 780.25c-2.21 0-3.94 0-5.23-.15-6.33-.52-8.19-4.64-8.7-6.38-1.8-6.19 2.4-9.36 10-15.12 2.95-2.23 6.62-5 11.08-8.6a8 8 0 1 1 10.05 12.44l-1.66 1.34q4-.18 8.67-.44a8 8 0 1 1 .86 16c-11.64.66-19.74.91-25.07.91zM250.58 573.93a8.34 8.34 0 0 1-6.2-2.56c-4.2-4.26-1.87-9.58-.87-11.86a194.5 194.5 0 0 1 11.94-23.71 99.94 99.94 0 0 1 22.66-26.15c8.32-6.76 19-13.36 34.68-21.37a8 8 0 0 1 7.29 14.24C305.45 510 295.62 516 288.2 522.07a83.11 83.11 0 0 0-19.09 22.06c-1.59 2.61-3.08 5.3-4.42 7.89l3.7-1.55c5.5-2.32 12.08-5.09 19.16-8a8 8 0 0 1 6.15 14.77c-7.06 2.94-13.62 5.7-19.1 8l-4.7 2c-6.09 2.56-10.11 4.26-12.88 5.28a19 19 0 0 1-6.44 1.41z" class="mt4_svg__cls-1"></path><path d="M114 683.79a8 8 0 0 1-7.8-6.23c-4-17.52-6.41-32.47-7.41-45.69a209.93 209.93 0 0 1 .83-39.48 201.85 201.85 0 0 1 6.73-34.55 175 175 0 0 1 13.46-33 188.33 188.33 0 0 1 23.25-34.56 233.63 233.63 0 0 1 35.74-33.72c11.59-8.87 25.47-17.86 42.42-27.48 15-8.49 28.12-15.07 47.35-21.61 18.93-6.43 45-13.15 69.75-18 23.12-4.5 44.55-7.22 58.73-9l1.5-.19a8 8 0 1 1 2 15.87l-1.5.19c-14 1.78-35.09 4.47-57.7 8.86-24.07 4.7-49.37 11.21-67.65 17.42-18 6.14-30.44 12.35-44.61 20.38-16.3 9.25-29.58 17.84-40.58 26.27a216.36 216.36 0 0 0-33.26 31.35A173.13 173.13 0 0 0 134 532.33a159.39 159.39 0 0 0-12.25 30 185.84 185.84 0 0 0-6.19 31.84 194.22 194.22 0 0 0-.78 36.49c.94 12.43 3.25 26.61 7.06 43.35a8 8 0 0 1-6 9.57 7.86 7.86 0 0 1-1.84.21zM172.65 828a101.91 101.91 0 0 1-13.22-.85c-25.43-3.3-45.86-15.88-57.55-35.42-23.74-39.71-2.94-96 46.36-125.47S257 645.11 280.7 684.81c11.69 19.55 13.1 43.51 4 67.47-8.87 23.3-26.75 43.9-50.33 58-19.46 11.61-40.93 17.72-61.72 17.72zm37.45-163.47c-17.4 0-36.21 5.05-53.65 15.48-41.73 24.94-60 71.38-40.84 103.52 9.12 15.24 25.41 25.11 45.88 27.77 21.17 2.75 44.13-2.49 64.64-14.76s36-30 43.59-49.95c7.35-19.29 6.37-38.31-2.75-53.57-11.18-18.7-32.65-28.49-56.87-28.49zm671.81 6.14a8.24 8.24 0 0 1-1.39-.12 8 8 0 0 1-6.5-9.26c3-16.92 4.57-31.19 4.87-43.63a192.84 192.84 0 0 0-2.61-36.42 184.66 184.66 0 0 0-7.76-31.48 160.2 160.2 0 0 0-13.75-29.36 173.79 173.79 0 0 0-22.88-30.56 217.37 217.37 0 0 0-34.8-29.64 259.81 259.81 0 0 0-35.35-20.76 8 8 0 0 1 7.2-14.29A278.8 278.8 0 0 1 806.17 447a232.86 232.86 0 0 1 37.4 31.89 189.63 189.63 0 0 1 25 33.33 177 177 0 0 1 15.09 32.26 200.19 200.19 0 0 1 8.44 34.17 207.55 207.55 0 0 1 2.81 39.39c-.32 13.23-2 28.29-5.1 46a8 8 0 0 1-7.9 6.63zM745.93 570.64c-3.14 0-6.94-1.52-12.09-3.57-3.43-1.37-7.7-3.07-13.07-5a8 8 0 1 1 5.46-15l2 .74q-2.21-3.3-4.86-7.2a8 8 0 1 1 13.24-9C746 545.33 751 553.21 753 557.09c2.82 5.7.26 9.42-1 10.75a7.77 7.77 0 0 1-6.07 2.8zM601.89 778.72h-.47a100.32 100.32 0 0 1-34.09-5.87c-10.13-3.65-21.3-9.4-36.24-18.65a8 8 0 1 1 8.42-13.6c14 8.64 24.2 13.94 33.23 17.19a83.25 83.25 0 0 0 28.73 4.93c3.07 0 6.15-.11 9-.3l-5.29-3.85c-4.38-3.19-9.41-6.85-14.74-10.76a8 8 0 1 1 9.47-12.9c5.31 3.9 10.32 7.55 14.68 10.72l6.17 4.49c5.33 3.88 8.87 6.45 11.17 8.29 2.47 2 7.06 5.65 5.59 11.39s-7.24 6.55-9.69 6.88a201.35 201.35 0 0 1-25.94 2.04z" class="mt4_svg__cls-1"></path><path d="M650.45 900.79a186.94 186.94 0 0 1-29.9-2.39 232.33 232.33 0 0 1-47.34-13.18c-13.6-5.33-28.46-12.56-45.44-22.08-15-8.41-27.4-16.26-43-29.37-15.24-12.82-34.47-31.67-51.45-50.41-15.72-17.38-29.1-34.25-37.95-45.42l-1.09-1.37a8 8 0 1 1 12.54-9.94l1.09 1.37c8.72 11 21.91 27.63 37.27 44.62 16.52 18.24 35.17 36.52 49.89 48.91s26.34 19.71 40.5 27.66a356 356 0 0 0 43.47 21.14 216.42 216.42 0 0 0 44 12.27 173.27 173.27 0 0 0 38.12 1.87 158.82 158.82 0 0 0 32-5 184.6 184.6 0 0 0 30.47-11.17 194.1 194.1 0 0 0 31.65-18.2c10.18-7.25 21.13-16.55 33.45-28.44a8 8 0 1 1 11.11 11.51c-12.9 12.45-24.45 22.25-35.29 30a209.3 209.3 0 0 1-34.22 19.69 201.37 201.37 0 0 1-33.07 12.11 174.82 174.82 0 0 1-35.16 5.52q-5.86.29-11.65.3zm175.09-83.1a122 122 0 0 1-57-14.65c-50.73-27-74.33-82.13-52.62-123 21.72-40.83 80.65-52.11 131.38-25.16 24.26 12.9 43.15 32.57 53.17 55.39 10.32 23.47 10.11 47.47-.58 67.58-13.75 25.83-42.36 39.84-74.35 39.84zM730 687.57c-17.57 33.06 3.06 78.52 46 101.34s92.14 14.49 109.71-18.56c8.34-15.69 8.37-34.74.06-53.63-8.58-19.54-24.93-36.48-46-47.7-42.94-22.81-92.17-14.5-109.74 18.55zM504.38 666.6v-46.21a2 2 0 0 0-2-2h-88.9a8.81 8.81 0 0 1-8.81-8.81V595.6a9.83 9.83 0 0 1 1.79-5.67l101.24-143.8a6.19 6.19 0 0 1 5.07-2.63h13.63a6.21 6.21 0 0 1 6.21 6.2v140.75a2 2 0 0 0 2 2h22.89a6.14 6.14 0 0 1 6.13 6.13v13.62a6.14 6.14 0 0 1-6.13 6.13h-22.86a2 2 0 0 0-2 2v46.27a6.81 6.81 0 0 1-6.81 6.81h-14.65a6.8 6.8 0 0 1-6.8-6.81zm0-76.15V495.3a2 2 0 0 0-3.7-1.15l-66.07 95.15a2 2 0 0 0 1.67 3.18h66.07a2 2 0 0 0 2.03-2.03z" class="mt4_svg__cls-1"></path><path d="M496.12 736.24c-98 0-177.81-79.77-177.81-177.81s79.77-177.8 177.81-177.8 177.8 79.76 177.8 177.8-79.76 177.81-177.8 177.81zm0-339.61c-89.22 0-161.81 72.58-161.81 161.8s72.59 161.81 161.81 161.81 161.8-72.59 161.8-161.81-72.58-161.8-161.8-161.8z" class="mt4_svg__cls-1"></path></svg>