<svg xmlns="http://www.w3.org/2000/svg" data-name="Layer 1" viewBox="0 0 1000 1000" style="fill:#dfa748"><path d="M417 462.36a64.9 64.9 0 0 1-64.83-64.83V395a64.83 64.83 0 1 1 129.66 0v2.58A64.91 64.91 0 0 1 417 462.36zm0-116.24A48.89 48.89 0 0 0 368.14 395v2.58a48.83 48.83 0 1 0 97.66 0V395a48.89 48.89 0 0 0-48.8-48.88zM606.66 669.5a64.83 64.83 0 1 1 64.83-64.84 64.9 64.9 0 0 1-64.83 64.84zm0-113.66a48.83 48.83 0 1 0 48.83 48.83 48.88 48.88 0 0 0-48.83-48.83zM422 618a8 8 0 0 1-6.35-12.86l204.3-267.39a8 8 0 1 1 12.72 9.72L428.36 614.86A8 8 0 0 1 422 618z"></path><path d="M371.56 678.67 398.6 574.6l63 50.12-90.04 53.95z"></path><path d="M500 864.17a8 8 0 0 1-4.7-1.53l-77.41-56.2-95.14 10a8 8 0 0 1-8.14-4.7l-38.94-87.38-87.38-38.94a8 8 0 0 1-4.7-8.14l10-95.14-56.2-77.41a8 8 0 0 1 0-9.4l56.2-77.41-10-95.14a8 8 0 0 1 4.7-8.14l87.38-38.94 38.94-87.38a8 8 0 0 1 8.14-4.7l95.14 10 77.41-56.2a8 8 0 0 1 9.4 0l77.41 56.2 95.14-10a8 8 0 0 1 8.14 4.7l38.94 87.38 87.38 38.94a8 8 0 0 1 4.7 8.14l-10 95.14 56.2 77.41a8 8 0 0 1 0 9.4l-56.2 77.41 10 95.14a8 8 0 0 1-4.7 8.14l-87.38 38.94-38.94 87.38a8 8 0 0 1-8.14 4.7l-95.14-10-77.41 56.2a8 8 0 0 1-4.7 1.53zm-79.89-74a8 8 0 0 1 4.7 1.53L500 846.28l75.19-54.59a8 8 0 0 1 5.54-1.49l92.41 9.69L711 715a8 8 0 0 1 4-4l84.88-37.82-9.69-92.41a8 8 0 0 1 1.49-5.54l54.6-75.23-54.59-75.19a8 8 0 0 1-1.49-5.54l9.69-92.41L715 289a8 8 0 0 1-4-4.05l-37.82-84.88-92.41 9.69a8 8 0 0 1-5.54-1.49L500 153.72l-75.19 54.59a8 8 0 0 1-5.54 1.49l-92.41-9.69L289 285a8 8 0 0 1-4 4l-84.88 37.82 9.69 92.41a8 8 0 0 1-1.49 5.54L153.72 500l54.59 75.19a8 8 0 0 1 1.49 5.54l-9.69 92.41L285 711a8 8 0 0 1 4.05 4l37.82 84.88 92.41-9.69a7.87 7.87 0 0 1 .83-.03z"></path></svg>