<svg xmlns="http://www.w3.org/2000/svg" data-name="Layer 1" viewBox="0 0 1000 1000" style="fill: rgb(223, 167, 72);"><path d="M367.93 854.57c-78.57 0-152.59-30.75-208.42-86.58S72.93 638.13 72.93 559.57 103.68 407 159.51 351.13s129.85-86.59 208.42-86.59 152.6 30.75 208.43 86.59S662.94 481 662.94 559.57 632.19 712.15 576.36 768s-129.85 86.57-208.43 86.57zm0-574c-153.84 0-279 125.17-279 279s125.16 279 279 279 279-125.16 279-279-125.15-279.03-279-279.03z" class="high-speed_svg__cls-1"></path><path d="M367.94 766.4a207.19 207.19 0 0 1-92.17-21.46 8 8 0 1 1 7.06-14.36 191.32 191.32 0 0 0 85.11 19.82c105.23 0 190.84-85.61 190.84-190.84 0-103.45-84-189.06-187.23-190.85a8 8 0 0 1 .13-16h.15a206.79 206.79 0 0 1 203 206.84C574.78 673.61 482 766.4 367.94 766.4z" class="high-speed_svg__cls-1"></path><path d="M385.92 577.27a25.83 25.83 0 1 1 25.82-25.82 25.85 25.85 0 0 1-25.82 25.82zm0-35.65a9.83 9.83 0 1 0 9.82 9.83 10 10 0 0 0-9.82-9.83zM258.3 690.07a13.13 13.13 0 0 1-9-3.64 12.24 12.24 0 0 1-4.14-8.53 13.11 13.11 0 0 1 3.85-10l.07-.07 94-91.56a7 7 0 0 1 .58-.51 13.64 13.64 0 0 1 17.95 1c4.82 4.83 4.63 13.16-.41 18.2l-.07.08-94 91.55c-.18.18-.38.35-.58.52a13.17 13.17 0 0 1-8.25 2.96zm183.26-453.61H293.83a20.39 20.39 0 0 1-18.25-11.71 19.62 19.62 0 0 1-1.94-8.48v-50.65a20.22 20.22 0 0 1 20.19-20.19h147.73c11.59 0 20.67 8.87 20.67 20.19v50.65a19.6 19.6 0 0 1-2 8.53 20.78 20.78 0 0 1-18.67 11.66zm-147.73-75a4.11 4.11 0 0 0-4.19 4.19v50.65a3.65 3.65 0 0 0 .37 1.57 4.47 4.47 0 0 0 3.82 2.62h147.73a4.75 4.75 0 0 0 4.29-2.6 3.67 3.67 0 0 0 .38-1.59v-50.68c0-2.88-2.42-4.19-4.67-4.19zM673.7 735.08a8 8 0 0 1-7-11.86 340.09 340.09 0 0 0 42-163.65c0-138.7-87-266.18-216.43-317.23a8 8 0 0 1 1.18-15.25 547.35 547.35 0 0 1 53.95-9.31h.16a630.17 630.17 0 0 1 63.16-2.85c17.44 0 29.23.92 35.56 1.41h.25c4.87.38 10.4.81 12 6.79 1.47 5.66-2.73 8.76-5.83 10.83l-.94.82c-3.81 3.3-10.19 8.83-14.22 14.7l-.19.26a44 44 0 0 0-7.86 19.72c-.78 5.9.83 6.92 2 7.67l.29.2c2.77 1.94 9.19 3.51 16.73 2.39l.34-.05A47 47 0 0 0 671 271a54.87 54.87 0 0 0 14.2-18.38 83 83 0 0 0 5.8-17l.13-.54c.76-3 1.6-6.35 5.19-8.32 3.44-1.89 6.71-.88 8.71-.23l.59.18a121.7 121.7 0 0 0 17 3.78 171.36 171.36 0 0 0 33.24 2.26h.28a220.94 220.94 0 0 0 43.91-4.07 259.47 259.47 0 0 0 47.25-14.54 161.72 161.72 0 0 0 35.86-20.62l.13-.09a288.14 288.14 0 0 0 26-21.45c3.27-2.95 7.32-6.61 12.73-4s5.22 7.9 4.86 14.59c-.46 8.7-1.42 26.8-5.83 46.36a205.92 205.92 0 0 1-22.92 58.54c-9.28 16.3-21.39 30.91-38.1 46a259.44 259.44 0 0 1-44.41 33.3c-8.5 5.21-16.82 9.63-23.8 13.16.66.05 1.34.1 2 .13a94.27 94.27 0 0 0 35.26-7.38 250.85 250.85 0 0 0 43-24l.1-.07a169.84 169.84 0 0 0 24.62-20.15c2.9-2.9 6.87-6.86 12.42-4.39s5.36 7.9 5 14.7v.46c-.17 1.44-.34 3.14-.54 5-1 9.31-2.42 23.39-5.22 37a1.6 1.6 0 0 1 0 .21c-4.07 17.33-9.52 32.23-16.67 45.56-7.48 13.95-16.62 25.61-27.17 34.66a89.42 89.42 0 0 1-37.51 19c-12 3-25 4.48-36.34 5.78l-4.39.5c-11.57 1.78-19.28 3.47-24.42 6.77a4.05 4.05 0 0 1-.35.21 15.89 15.89 0 0 0-7.82 10c-.51 3.78.18 8.54 2 14.16 1.64 4.47 3.33 7 6.17 9.36a54.17 54.17 0 0 0 15.04 7.12 37.85 37.85 0 0 0 17.23.85c5.09-1.29 11-3.77 17.94-7.57a28.14 28.14 0 0 0 5.83-4.34 8.54 8.54 0 0 1 1.19-1c5-3.36 8.79-1.23 10.2-.16 2.08 1.59 4.23 4.63 2.62 10.16-.34 1.15-.88 2.78-1.7 5.25a369.26 369.26 0 0 1-14.38 37.36 275.48 275.48 0 0 1-29.44 49.73c-13.85 19.18-29.92 37.53-50.57 57.72-3.65 3.59-7.06 7-10.35 10.34-13.67 13.77-25.47 25.67-47.35 40.74a7.92 7.92 0 0 1-4.52 1.44zM521.78 237.75A357.92 357.92 0 0 1 661.1 356.61a355.54 355.54 0 0 1 35.06 342.61c6.36-5.77 12-11.48 18.06-17.56 3.33-3.36 6.78-6.83 10.52-10.5 20-19.57 35.52-37.27 48.84-55.72a.76.76 0 0 1 .08-.11 260.5 260.5 0 0 0 27.76-46.91c3.6-7.9 6.57-15.44 8.9-21.8a76.46 76.46 0 0 1-12.38 4.38l-.38.09a54.27 54.27 0 0 1-24.72-1.09h-.14a69.83 69.83 0 0 1-20.22-9.59l-.39-.29c-6.69-5.35-9.54-11.41-11.44-16.64l-.07-.21c-2.78-8.36-3.65-15.56-2.67-22 0-.2.07-.39.12-.59a31.78 31.78 0 0 1 15.36-20.51c7.52-4.78 16.93-6.93 30.61-9h.29l4.57-.52c10.9-1.24 23.26-2.64 34.27-5.4a73.84 73.84 0 0 0 31-15.65c9-7.76 16.94-17.88 23.48-30.08s11.43-25.65 15.17-41.55c2-9.62 3.27-19.7 4.18-27.91q-7.35 6.13-15.72 11.84a268.82 268.82 0 0 1-46 25.64 110.2 110.2 0 0 1-41.59 8.46h-.36a85.21 85.21 0 0 1-20.71-3.78c-.94-.27-1.74-.5-2.41-.67a7.25 7.25 0 0 1-.87-.27c-2.42-.9-7.48-2.78-7.71-8.54s4.17-8 10.29-10.85l4.12-2c7.75-3.8 19.45-9.55 31.3-16.81l.1-.06a244.4 244.4 0 0 0 41.77-31.32l.1-.09c15.44-13.91 26.56-27.29 35-42.1l.08-.13a189.92 189.92 0 0 0 21.1-53.94 235 235 0 0 0 4.77-32.85c-5.06 4.34-11.18 9.33-17.6 13.89a177.22 177.22 0 0 1-39.19 22.49 275.49 275.49 0 0 1-50.22 15.44 236.83 236.83 0 0 1-46.92 4.38 186.85 186.85 0 0 1-36.09-2.45 135.21 135.21 0 0 1-14.61-3 89.57 89.57 0 0 1-6 16.5c-5 9.89-11 17.65-18.55 23.75l-.24.18a63.83 63.83 0 0 1-30 11.86c-10.69 1.55-21.12-.32-28-5-7.45-4.82-10.52-12.62-9.13-23.18a59.49 59.49 0 0 1 10.82-27.07 70 70 0 0 1 7.42-8.87c-5.7-.28-12.73-.5-21.1-.5-22.82 0-42.93.91-61.49 2.76-9.05.99-18.32 2.36-27.54 3.98zm253.59 141.33z" class="high-speed_svg__cls-1"></path></svg>