<svg xmlns="http://www.w3.org/2000/svg" viewBox="0 0 1000 1000"><path fill="none" d="M0 0h1000v1000H0z"></path><g fill="#3C828E"><path d="M744.5 891.9c-100.9 0-183-82.1-183-183s82.1-183 183-183 182.9 82.1 182.9 183-82 183-182.9 183zm0-350.6c-92.4 0-167.7 75.2-167.7 167.7S652 876.6 744.5 876.6 912.1 801.4 912.1 709s-75.2-167.7-167.6-167.7z"></path><path d="M744.5 802.2c-4.2 0-7.6-3.4-7.6-7.7V623.4c0-4.2 3.4-7.7 7.6-7.7s7.6 3.4 7.6 7.7v171.1c0 4.3-3.4 7.7-7.6 7.7z"></path><path d="M830 716.6H658.9c-4.2 0-7.6-3.4-7.6-7.7s3.4-7.7 7.6-7.7H830c4.2 0 7.6 3.4 7.6 7.7s-3.3 7.7-7.6 7.7zM80.2 768.5c-.4 0-.9 0-1.3-.1-4.2-.7-6.9-4.7-6.2-8.9 5.5-31.5 11-63.1 14.8-83.7 3.9-21.1 6.4-32.6 14.9-41.9 7.9-8.6 20-14.4 40.9-22.6 5.8-2.3 12.3-4.8 19.2-7.4 15.8-6.1 34.1-13.1 52.7-20.9 27.7-11.7 54.2-24.6 72.6-35.3 17.8-10.4 29.5-19.5 35.7-28.1 4.5-6.1 6.3-12.1 7.7-16.8.4-1.5.8-2.8 1.3-4 1.8-5.2 4.1-8.1 5.7-9.8v-25.4c0-1.7.1-2.7-.1-3.5-.2-.5-.8-1.1-1.5-2.3-3.6-5.3-9.1-13.7-12.9-20.4-4.1-7.3-6.4-13-9-22.6l-.9-3.4c-1.8-6.6-4.4-16.6-7.5-20-.8-.9-2-1.5-4.1-2.5-4.3-2-10.2-4.8-15-13.9-5.7-10.9-9.7-31.3-12.6-46.2l-1.6-8.2c-2.5-12.1-3.7-18.2 2.3-22.7 2.9-2.2 6.8-2.9 10.8-3-.4-5.3-.6-13.2-.2-26.8.9-35.2 5.3-62.1 13.2-82.3 9.9-25.3 28.2-46 52.8-59.8 20.7-11.6 45.2-17.9 70.9-18.2 23.9-.3 47.1 4.7 70.1 15.2 29.2 13.3 48.8 31.4 59.7 55.4 12.1 26.3 14.8 61.7 15.8 89.6.5 14.7.5 23.9.4 29.8 3.3-1.1 6.4-1.5 9.3-.6 10.5 2.9 8.4 15.5 6.2 27.6-1.7 10.1-6.5 35.1-13.1 48-3.8 7.7-8.4 11.2-11.7 13.8-2.1 1.7-3.5 2.8-4.6 4.6-2 3.5-3.7 10.3-5.3 16.8-1.1 4.7-2.3 9.4-3.7 13.4-3 8.9-6.8 14.8-10.2 20l-2.5 3.9c-3.8 6.2-5.7 11.6-6.5 18.5-1.1 8.8-.6 20.8-.3 25.9.1 2.2.3 6.8.6 7.8 1.5 1.8 2.9 3.6 4.9 6.8l2.7 4.5c3 5.1 6.8 11.4 11.1 16.8 5.5 6.9 12 12.6 21.8 19.1 9.8 6.6 22.8 13.8 35.4 20.7 3.7 2.1 5 6.7 3 10.4s-6.7 5-10.4 3c-12.8-7.1-26.1-14.5-36.4-21.4-11.1-7.4-18.9-14.3-25.3-22.4-5-6.3-9.2-13.3-12.3-18.5l-2.5-4.2c-1.6-2.5-2.7-3.9-3.5-4.9-.8-1-1.6-2-2.3-3.4-1.6-3.2-1.8-6.5-2.1-13.7-.3-5.5-.8-18.4.4-28.5 1.1-9 3.8-16.5 8.6-24.6l2.7-4.3c3-4.7 6.2-9.5 8.5-16.5 1.2-3.7 2.2-8 3.3-12.2 1.9-8 3.8-15.5 6.9-20.9 2.6-4.4 5.6-6.8 8.3-8.9 2.9-2.3 5.2-4.1 7.5-8.7 4.6-9.1 9-28.5 11.6-43.8.7-3.9 1.1-6.7 1.3-8.7-1 .4-2.1 1-3.4 1.6-2.2 1.1-6.2 3.1-10.3.4-4.1-2.7-3.9-7-3.7-10.7.3-4.3.8-13.2-.1-36.3-.6-15.5-2.1-56.8-14.4-83.7-9.4-20.4-26.4-36.1-52.2-47.8-20.4-9.3-40.7-13.9-62-13.9h-1.6c-23.1.3-45.1 5.9-63.6 16.2-21.5 12.1-37.4 30.1-46 52-7.3 18.5-11.2 43.7-12.1 77.2-.6 19.7.2 26.5.6 29.8.3 2.8.8 6.2-2 9.2-2.8 3-6.2 2.8-8.6 2.7-1.8-.1-3.4-.1-4.6-.1.3 2 .8 4.6 1.4 7.4l1.6 8.3c2.6 13.2 6.4 33.1 11.1 42 2.3 4.5 4.6 5.5 7.9 7.1 2.6 1.2 5.9 2.8 8.8 5.9 5.7 6.1 8.5 16.9 11.1 26.4l.9 3.3c2.3 8.5 4.1 13 7.6 19.1 3.6 6.4 8.9 14.3 11.8 18.7 4.2 6.3 4.7 7.8 4.7 15v23c0 6.3 0 9.2-3.7 12.4-.6.6-1.7 1.6-2.9 4.9l-1.1 3.4c-1.6 5.3-4 13.2-10 21.5-7.6 10.4-20.4 20.6-40.3 32.2-18.9 11-46 24.2-74.4 36.2-18.7 7.9-37.2 15-53.2 21.1-6.9 2.6-13.3 5.1-19.1 7.3-18.3 7.2-29.4 12.3-35.2 18.7-5.5 5.9-7.4 14.1-11.1 34.3-3.8 20.6-9.3 52.1-14.8 83.6-.2 4.3-3.4 6.9-7.1 6.9z"></path><path d="M458.1 229.7c-1 0-2-.2-3-.6l-75.2-31.9-24.1 15.7c-1.8 1.2-4 1.5-6.1 1l-32.3-8.4c-4.1-1.1-6.5-5.2-5.5-9.3 1.1-4.1 5.1-6.6 9.3-5.5l29 7.5 24.7-16.1c2.1-1.4 4.8-1.6 7.1-.6l69.5 29.5 1.3-11.3c.2-2.3 1.5-4.3 3.4-5.6 2-1.2 4.4-1.5 6.5-.9l53.7 17.1 16.7-6.2c4-1.5 8.4.5 9.9 4.5s-.5 8.4-4.5 9.9l-19.1 7.2c-1.6.6-3.4.6-5 .1L467 210.7l-1.4 12.2c-.3 2.4-1.6 4.5-3.7 5.8-1.1.6-2.4 1-3.8 1zm-23.9 332c-3 0-6.1-1.1-10.9-3.4-7.6-3.6-22.5-10.7-35.7-17.5-14.7-7.6-26.1-14.3-33.6-22.1-8.3-8.5-11.6-18.1-14.5-26.5-1.4-4 .8-8.4 4.8-9.7 4-1.4 8.4.8 9.8 4.8 2.7 7.9 5.1 14.8 11 20.9 6.1 6.3 16.3 12.2 29.6 19.1 13 6.7 27.7 13.8 35.1 17.3 1.6.8 3.8 1.8 4.5 1.9.2-.1 2.5-1.2 4.1-1.9 5.2-2.5 21-9.9 35.2-18.1 13.6-7.9 24.7-16 30.4-22.1 5.1-5.5 5.9-9.6 6.9-14.7l15.2 2.8c-1.2 6.1-2.7 13.5-10.7 22.2-9.1 9.9-25.2 19.9-34 25-14.8 8.6-31 16.2-36.4 18.7-4.7 2.2-7.8 3.3-10.8 3.3z"></path><path d="M481.2 630.8c-.3 0-.6 0-.8-.1-3.8-.5-5.2-2.3-10.2-9.1l-3.2-4.3c-4.4-5.9-11.2-15-17.8-23.6l-13.5-17.9c-.6-.8-1.2-1.6-1.8-2.3-6.1 8.2-18.5 24.9-25.9 35.4-7.3 10.2-9.8 14.3-11.1 16.3-1.2 1.9-4.2 4.3-6.4 4.7-4.5.8-6.7-1-16.9-9.6-10.4-8.7-32.2-27-43-40.1-12.6-15.3-11.4-25.5-8.5-37.4 2.7-11 7.4-25.9 12-40.4 1.3-4 5.9-6.8 9.8-5.5 4 1.3 6.4 5 5.2 9.1l-.4 1.1c-4.5 14.2-9.2 28.8-11.8 39.3-2.3 9.3-2.9 13.9 5.5 24 9.9 12 30.9 29.6 41 38.1 1.5 1.3 2.8 2.4 3.9 3.3 1.8-2.7 4.4-6.5 8.2-11.8 7.5-10.5 19.9-27.3 26.1-35.6 3.7-5 6.7-9 12.2-9 5.6 0 8.7 4.1 13.8 10.9l13.7 18.2c6.6 8.7 13.4 17.8 17.9 23.7l2.8 3.9 3.1-3.1c5.9-5.9 15.7-15.9 24.4-25.4 8-8.6 15.4-17 18-25.3 2.2-6.8 1.6-14.9-1.7-24.8-3-9-7.7-17.6-12.2-25.9-2-3.7-.7-8.4 3.1-10.4 3.7-2 8.4-.7 10.4 3 4.9 8.9 9.9 18 13.3 28.4 4.4 13.1 5 24.4 1.8 34.4-3.6 11.3-12.2 21.1-21.4 31-8.9 9.6-18.9 19.7-24.8 25.7-6.4 6.5-8.5 8.5-9.5 9.3-1.2 1-3.4 1.8-5.3 1.8zm-89.4-15.7h.2-.2z"></path><path d="M402.1 853.7c-3.3 0-6.4-2.2-7.3-5.5-16.5-55.9-33.5-113.8-46.8-164.7-13.1-50.5-22.9-95.7-32.4-139.4-.9-4.1 1.6-8.8 5.7-9.7 4.2-.9 8 1.1 9 5.2l.3 1.2c9.4 43.6 19.1 88.6 32.2 138.8C376 730.3 393 788 409.4 843.8c1.2 4.1-1.1 8.3-5.2 9.5-.7.3-1.4.4-2.1.4zm64.3-.3c-.7 0-1.4-.1-2.1-.3-4.1-1.2-6.4-5.4-5.2-9.5 16.1-55 32.7-111.9 45.6-163.1 12.7-50.6 21.9-96.4 30.8-140.7.8-4.2 4.9-6.8 9-6 4.1.8 6.8 4.9 6 9-8.9 44.5-18.2 90.5-31 141.5-13 51.5-29.6 108.6-45.7 163.7-1 3.2-4.1 5.4-7.4 5.4z"></path><path d="M391.6 814.5c-.4 0-.9 0-1.4-.1-4.2-.8-6.9-4.7-6.2-8.9 11.2-61.2 22.7-124.4 25.7-158.7 2.8-31.7-1.3-37.2-5.7-43-2.6-3.4-1.9-8.2 1.5-10.7s8.2-1.8 10.7 1.5c7.1 9.4 11.9 18.8 8.8 53.6-3.1 35-14.7 98.6-25.9 160.1-.6 3.6-3.8 6.2-7.5 6.2zm83-2.8c-3.6 0-6.9-2.6-7.5-6.3-11.2-61.2-22.7-124.6-25.9-160.1-3.1-34.8 1.7-44.2 8.8-53.6 2.6-3.4 7.4-4 10.7-1.5 3.4 2.5 4.1 7.3 1.5 10.7-4.4 5.8-8.6 11.4-5.7 43 3.1 34.9 15.2 100.7 25.8 158.7.7 4.2-2 8.1-6.2 8.9-.5.1-1 .2-1.5.2z"></path></g></svg>