<svg xmlns="http://www.w3.org/2000/svg" viewBox="0 0 1000 1000"><path fill="none" d="M0 0h1000v1000H0z"></path><g fill="#3C828E"><path d="M500.2 565.7c-4.2 0-7.6-3.4-7.6-7.7V224c0-4.2 3.4-7.7 7.6-7.7s7.6 3.4 7.6 7.7v334c0 4.3-3.4 7.7-7.6 7.7z"></path><path d="M586.4 328.9c-2.2 0-4.5-1-6-2.9l-84.9-106.5c-2.6-3.3-2.1-8.1 1.2-10.8 3.2-2.6 8.1-2.1 10.8 1.2l84.9 106.5c2.6 3.3 2.1 8.1-1.2 10.8-1.5 1.1-3.1 1.7-4.8 1.7z"></path><path d="M413.6 328.9c-1.7 0-3.4-.6-4.8-1.7-3.3-2.6-3.8-7.4-1.2-10.8l85-106.4c2.6-3.3 7.5-3.8 10.8-1.2 3.3 2.6 3.8 7.4 1.2 10.8l-85 106.4c-1.5 1.9-3.7 2.9-6 2.9zm87.8 251.2c-1.7 0-3.4-.6-4.8-1.7-3.3-2.6-3.8-7.4-1.2-10.8l84.9-106.5c2.6-3.3 7.5-3.8 10.8-1.2 3.3 2.6 3.8 7.4 1.2 10.8l-84.9 106.5c-1.5 2-3.7 2.9-6 2.9z"></path><path d="M498.5 580.1c-2.2 0-4.5-1-6-2.9l-84.9-106.5c-2.6-3.3-2.1-8.1 1.2-10.8 3.3-2.6 8.1-2.1 10.8 1.2l84.9 106.5c2.6 3.3 2.1 8.1-1.2 10.8-1.4 1.2-3.1 1.7-4.8 1.7z"></path><path d="M854.8 819.1H145c-8.6 0-16.6-3.5-22.5-9.8-6.4-6.9-9.5-16.5-8.8-26.4L142 424.8c1.4-17.1 16.2-31 33.2-31h272.3c4.2 0 7.6 3.4 7.6 7.7s-3.4 7.7-7.6 7.7H175.3c-9 0-17.2 7.7-17.9 16.8L129 784c-.4 5.7 1.3 11.1 4.7 14.8 3 3.2 6.9 4.9 11.2 4.9h709.8c4.4 0 8.5-1.8 11.5-5 3.5-3.8 5.2-9.1 4.8-14.7l-27.4-358.1c-.7-9.1-9-16.8-18.1-16.8H543.7c-4.2 0-7.6-3.4-7.6-7.7s3.4-7.7 7.6-7.7h281.9c17.1 0 32 13.9 33.3 31l27.4 358.1c.8 9.8-2.5 19.4-8.8 26.3-6 6.4-14 10-22.7 10z"></path><path d="M859.5 614.1H140.6c-4.1 0-7.5-3.4-7.5-7.5s3.4-7.5 7.5-7.5h718.9c4.1 0 7.5 3.4 7.5 7.5s-3.4 7.5-7.5 7.5zM304.6 752.9H183c-4.2 0-7.6-3.4-7.6-7.7s3.4-7.7 7.6-7.7h121.7c4.2 0 7.6 3.4 7.6 7.7s-3.4 7.7-7.7 7.7zm166.5 0H349.4c-4.2 0-7.6-3.4-7.6-7.7s3.4-7.7 7.6-7.7h121.7c4.2 0 7.6 3.4 7.6 7.7s-3.4 7.7-7.6 7.7zM663 778.2c-41.4 0-75.8-35.6-76.6-79.4-.4-21.6 7.4-41.6 21.9-56.4 13.4-13.7 31.2-21.2 50.1-21.2 40.2 0 74.4 34.6 76.4 77.1 1 21.8-6.7 43-21.1 58.1-13.3 14.1-31.4 21.8-50.7 21.8zm-4.5-141.6c-14.8 0-28.7 5.9-39.2 16.6-11.6 11.8-17.8 27.9-17.5 45.4.7 35.5 28.2 64.3 61.3 64.3 15.1 0 29.2-6.1 39.7-17.1 11.5-12.1 17.7-29.1 16.9-46.8-1.7-34.4-29.2-62.4-61.2-62.4z"></path><path d="M753.1 778.2c-41.3 0-76.3-35.6-77.9-79.3-.8-21.6 6.6-41.6 20.9-56.4 13.2-13.7 30.9-21.3 49.8-21.3 40.1 0 75 34.5 77.8 76.9 1.4 21.8-5.9 43-20.1 58.1-13.2 14.3-31.1 22-50.5 22zm-7.2-141.6c-14.7 0-28.5 5.9-38.8 16.6-11.3 11.8-17.2 27.8-16.6 45.2 1.3 35.6 29.4 64.5 62.6 64.5 15.1 0 29-6.1 39.3-17.1 11.3-12 17.1-29 16-46.7-2.2-34.4-30.2-62.5-62.5-62.5z"></path></g></svg>
