<svg xmlns="http://www.w3.org/2000/svg" viewBox="0 0 1000 1000"><path fill="none" d="M0 0h1000v1000H0z"></path><g fill="#3C828E"><path d="M448.8 650.2c-61.6 0-123.3-23.7-169.9-70.9-44.8-45.4-69.2-105.5-68.8-169.3.4-63.8 25.6-123.6 71-168.4 45-44.4 104.5-68.9 167.7-68.9h1.6c63.8.4 123.6 25.6 168.4 71 44.8 45.4 69.2 105.5 68.8 169.3s-25.6 123.6-71 168.4c-46.5 45.9-107.1 68.8-167.8 68.8zm0-462.2c-59.1 0-114.8 22.9-157 64.5-42.5 41.9-66.1 97.9-66.5 157.6-.4 59.7 22.5 116 64.4 158.4 86.6 87.7 228.4 88.6 316 2 42.5-41.9 66.1-97.9 66.5-157.6.4-59.7-22.5-116-64.5-158.4-41.9-42.5-97.9-66.1-157.6-66.5h-1.3zm162.4 388h.2-.2z"></path><path d="M448.9 609.4h-1.3c-52.8-.3-102.4-21.2-139.5-58.9-37.1-37.6-57.4-87.4-57.1-140.3s21.3-102.4 58.9-139.5c37.3-36.8 86.6-57.1 139-57.1h1.3c52.9.3 102.4 21.2 139.6 58.8 76.6 77.7 75.8 203.2-1.8 279.8-37.5 36.9-86.8 57.2-139.1 57.2zm-.1-380.4c-48.3 0-93.8 18.7-128.2 52.7-34.7 34.3-54 80-54.3 128.7-.3 48.8 18.4 94.7 52.7 129.4 34.3 34.7 80 54 128.7 54.3 48.7 0 94.7-18.4 129.4-52.6 71.6-70.7 72.4-186.5 1.7-258.2-34.3-34.7-80-54-128.7-54.3h-1.3zm316.5 600.9c-2.3.7-4-.8-5.5-2.3l-146.2-148c-1.4-1.5-2.2-3.4-2.2-5.4 0-2 .8-4 2.3-5.4l90.2-89c3.1-3 7.9-2.9 10.8.1l146.2 148c1.4 1.5 2.2 3.4 2.2 5.4 0 2-.8 4-2.3 5.4l-90.2 89c-1.4 1.4-3.3 2.2-5.3 2.2zM630 674.3l135.4 137.1 79.3-78.3L709.2 596 630 674.3z"></path><path d="M635.5 666.2c-2 0-4-.8-5.5-2.3l-54.4-55.1c-3-3-2.9-7.9.1-10.8 3-3 7.9-2.9 10.8.1l54.4 55.1c3 3 2.9 7.9-.1 10.8-1.4 1.4-3.3 2.2-5.3 2.2zm55.6-54.9c-2 0-4-.8-5.5-2.3l-54.4-55.1c-3-3-2.9-7.9.1-10.8 3-3 7.9-2.9 10.8.1l54.4 55.1c3 3 2.9 7.9-.1 10.8-1.4 1.4-3.3 2.2-5.3 2.2zM365.7 423.8c-22.3 0-40.4-18.2-40.4-40.5s18.1-40.5 40.4-40.5c22.3 0 40.5 18.2 40.5 40.5s-18.1 40.5-40.5 40.5zm0-65.6c-13.9 0-25.2 11.3-25.2 25.2s11.3 25.2 25.2 25.2 25.2-11.3 25.2-25.2-11.3-25.2-25.2-25.2zm140.5 106c-22.3 0-40.5-18.2-40.5-40.5s18.1-40.4 40.5-40.4c22.3 0 40.4 18.1 40.4 40.4.1 22.4-18.1 40.5-40.4 40.5zm0-65.6c-13.9 0-25.2 11.3-25.2 25.1s11.3 25.2 25.2 25.2 25.2-11.3 25.2-25.2-11.3-25.1-25.2-25.1zM177.3 628.5c-22.3 0-40.4-18.1-40.4-40.4 0-22.3 18.1-40.5 40.4-40.5 22.3 0 40.5 18.2 40.5 40.5s-18.1 40.4-40.5 40.4zm0-65.6c-13.9 0-25.2 11.3-25.2 25.2s11.3 25.1 25.2 25.1 25.2-11.3 25.2-25.1-11.3-25.2-25.2-25.2zm582.1-312c-22.3 0-40.5-18.2-40.5-40.5s18.1-40.5 40.5-40.5c22.3 0 40.4 18.2 40.4 40.5s-18.1 40.5-40.4 40.5zm0-65.6c-13.9 0-25.2 11.3-25.2 25.2s11.3 25.2 25.2 25.2 25.2-11.3 25.2-25.2-11.3-25.2-25.2-25.2z"></path><path d="M200.3 571.8c-1.9 0-3.8-.7-5.2-2.1-3.1-2.9-3.2-7.8-.3-10.8l20.5-21.7c2.9-3.1 7.8-3.2 10.8-.3 3.1 2.9 3.2 7.8.3 10.8l-20.5 21.7c-1.5 1.5-3.6 2.4-5.6 2.4zm101.4-106.2c-1.9 0-3.7-.7-5.2-2-3.1-2.9-3.3-7.7-.4-10.8l43.5-47.1c2.8-3.1 7.7-3.3 10.8-.4 3.1 2.9 3.3 7.7.4 10.8l-43.5 47.1c-1.5 1.5-3.6 2.4-5.6 2.4zm171.9-45.1c-.6 0-1.2-.1-1.9-.2l-74.8-19c-4.1-1-6.6-5.2-5.5-9.3 1-4.1 5-6.6 9.3-5.5l74.8 19c4.1 1 6.6 5.2 5.5 9.3-.9 3.4-4 5.7-7.4 5.7zm59.3-7.9c-2.2 0-4.3-.9-5.8-2.7-2.8-3.2-2.4-8 .8-10.8l56.9-48.8c3.2-2.8 8-2.4 10.8.8 2.8 3.2 2.4 8-.8 10.8l-56.9 48.8c-1.5 1.3-3.3 1.9-5 1.9zm140.2-121c-2.2 0-4.4-.9-5.9-2.7-2.7-3.2-2.3-8.1.9-10.8l55.9-47c3.2-2.8 8.1-2.3 10.8.9s2.3 8.1-.9 10.8l-55.9 47c-1.4 1.2-3.1 1.8-4.9 1.8z"></path></g></svg>