<svg xmlns="http://www.w3.org/2000/svg" viewBox="0 0 1000 1000"><path fill="none" d="M0 0h1000v1000H0z"></path><g fill="#3C828E"><path d="M789.4 473.5H529.1c-4.2 0-7.6-3.4-7.6-7.6s3.4-7.7 7.6-7.7h258.8V175.5H212.1v282.7h261.6c4.2 0 7.6 3.4 7.6 7.7s-3.4 7.6-7.6 7.6H210.6c-7.6 0-13.7-6.2-13.7-13.8V173.9c0-7.6 6.1-13.7 13.7-13.7h578.9c7.6 0 13.7 6.2 13.7 13.7v285.8c0 7.6-6.2 13.8-13.8 13.8zm0 391.6H210.6c-7.6 0-13.7-6.2-13.7-13.8V565.6c0-7.6 6.1-13.8 13.7-13.8h263.2c4.2 0 7.6 3.4 7.6 7.7s-3.4 7.6-7.6 7.6H212.1v282.7h575.7V567.2H529.1c-4.2 0-7.6-3.4-7.6-7.6s3.4-7.7 7.6-7.7h260.3c7.6 0 13.7 6.2 13.7 13.8v285.8c.1 7.5-6.1 13.6-13.7 13.6z"></path><path d="M529.1 442.9c-4.2 0-7.6-3.4-7.6-7.6 0-4.2 3.4-7.7 7.6-7.7l184.4-.3c2.9-18.2 16-32.6 32.6-36V242.4c-16.6-3.4-29.7-17.9-32.6-36H286.6c-2.9 18.2-16 32.6-32.6 36v148.9c16.6 3.4 29.7 17.9 32.6 36h188.2c4.2 0 7.6 3.4 7.6 7.7s-3.4 7.7-7.6 7.7H279.5c-4.2 0-7.6-3.4-7.6-7.7 0-16.1-11.5-29.2-25.5-29.2-4.2 0-7.6-3.4-7.6-7.7V235.5c0-4.2 3.4-7.7 7.6-7.7 14.1 0 25.5-13.1 25.5-29.2 0-4.2 3.4-7.7 7.6-7.7h440.9c4.2 0 7.6 3.4 7.6 7.7 0 16.1 11.4 29.2 25.5 29.2 4.2 0 7.6 3.4 7.6 7.7v162.6c0 4.2-3.4 7.7-7.6 7.7-14.1 0-25.5 13.1-25.5 29.2 0 4.2-3.4 7.6-7.6 7.7l-191.3.2zm191.4 391.4h-441c-4.2 0-7.6-3.4-7.6-7.7 0-16.1-11.5-29.2-25.5-29.2-4.2 0-7.6-3.4-7.6-7.7V627.2c0-4.2 3.4-7.7 7.6-7.7 14.1 0 25.5-13.1 25.5-29.2 0-4.2 3.4-7.7 7.6-7.7h194.2c4.2 0 7.6 3.4 7.6 7.7s-3.4 7.6-7.6 7.6H286.6c-2.9 18.2-16 32.6-32.6 36.1v148.9c16.6 3.4 29.7 17.9 32.6 36h426.9c2.9-18.2 16-32.6 32.6-36V634.1c-16.6-3.4-29.7-17.9-32.6-36.1l-184.4-.3c-4.2 0-7.7-3.4-7.6-7.7 0-4.2 3.4-7.6 7.6-7.6l191.4.3c4.2 0 7.6 3.4 7.6 7.7 0 16.1 11.4 29.2 25.5 29.2 4.2 0 7.6 3.4 7.6 7.7v162.6c0 4.2-3.4 7.7-7.6 7.7-14.1 0-25.5 13.1-25.5 29.2 0 4.1-3.4 7.5-7.6 7.5z"></path><path d="M502.2 777.1c-4.2 0-7.6-3.4-7.6-7.7V254.2c0-4.2 3.4-7.7 7.6-7.7s7.6 3.4 7.6 7.7v515.3c0 4.2-3.4 7.6-7.6 7.6z"></path><path d="M606.4 391.1c-2.2 0-4.5-1-6-2.9L497.8 260.9c-2.7-3.3-2.1-8.1 1.2-10.8 3.2-2.6 8.1-2.1 10.8 1.2l102.7 127.4c2.7 3.3 2.1 8.1-1.2 10.8a8.2 8.2 0 0 1-4.9 1.6zM503.7 786.9c-1.7 0-3.4-.6-4.8-1.7-3.3-2.6-3.8-7.5-1.2-10.8L600.4 647c2.7-3.3 7.5-3.8 10.8-1.2 3.3 2.6 3.8 7.5 1.2 10.8L509.7 784.1c-1.5 1.9-3.7 2.8-6 2.8z"></path><path d="M397.5 391.1c-1.7 0-3.4-.6-4.8-1.7-3.3-2.6-3.8-7.5-1.2-10.8l102.7-127.4c2.6-3.3 7.5-3.8 10.8-1.2 3.3 2.6 3.8 7.5 1.2 10.8L403.5 388.3c-1.5 1.9-3.7 2.8-6 2.8zm102.7 395.8c-2.2 0-4.5-1-6-2.9L391.6 656.7c-2.7-3.3-2.1-8.1 1.2-10.8 3.2-2.6 8.1-2.1 10.8 1.2l102.7 127.4c2.7 3.3 2.1 8.1-1.2 10.8a8.2 8.2 0 0 1-4.9 1.6z"></path></g></svg>