<svg xmlns="http://www.w3.org/2000/svg" viewBox="0 0 1000 1000"><path fill="none" d="M0 0h1000v1000H0z"></path><g fill="#3C828E"><path d="M500 688.3c-104.4 0-189.3-84.9-189.3-189.3S395.6 309.6 500 309.6s189.3 85 189.3 189.4S604.4 688.3 500 688.3zm0-363.3c-96 0-174 78-174 174s78 174 174 174 174-78 174-174-78-174-174-174z"></path><path d="M500 325c-4.2 0-7.6-3.4-7.6-7.7v-84.4c0-4.2 3.4-7.7 7.6-7.7s7.6 3.4 7.6 7.7v84.4c0 4.2-3.4 7.7-7.6 7.7zm0 449.7c-4.2 0-7.6-3.4-7.6-7.7v-84.4c0-4.2 3.4-7.7 7.6-7.7s7.6 3.4 7.6 7.7V767c0 4.3-3.4 7.7-7.6 7.7z"></path><path d="M500 239c-42.4 0-76.9-34.5-76.9-76.9s34.5-76.9 76.9-76.9 76.9 34.5 76.9 76.9S542.4 239 500 239zm0-138.5c-34 0-61.6 27.6-61.6 61.6s27.7 61.6 61.6 61.6 61.6-27.6 61.6-61.6-27.6-61.6-61.6-61.6zm0 814.3c-42.4 0-76.9-34.5-76.9-76.9 0-42.4 34.5-76.9 76.9-76.9s76.9 34.5 76.9 76.9c0 42.4-34.5 76.9-76.9 76.9zm0-138.5c-34 0-61.6 27.6-61.6 61.6s27.7 61.6 61.6 61.6 61.6-27.7 61.6-61.6-27.6-61.6-61.6-61.6zM370.8 378.5c-2 0-3.9-.7-5.4-2.2l-59.7-59.7c-3-3-3-7.8 0-10.8 3-3 7.9-3 10.8 0l59.7 59.7c3 3 3 7.8 0 10.8-1.4 1.4-3.4 2.2-5.4 2.2zm318 318c-2 0-3.9-.7-5.4-2.2l-59.7-59.7c-3-3-3-7.8 0-10.8 3-3 7.9-3 10.8 0l59.7 59.7c3 3 3 7.8 0 10.8-1.4 1.5-3.4 2.2-5.4 2.2z"></path><path d="M261.1 337.9c-19.7 0-39.4-7.5-54.4-22.5-30-30-30-78.8 0-108.8 29.9-30 78.8-30 108.8 0C330 221.1 338 240.4 338 261c0 20.5-8 39.9-22.5 54.4-15 15-34.7 22.5-54.4 22.5zm-.1-138.4c-15.8 0-31.5 6-43.6 18-24 24-24 63.1 0 87.1 24.1 24 63.1 24 87.1 0 11.6-11.6 18-27.1 18-43.5 0-16.5-6.4-31.9-18-43.6-11.9-12-27.7-18-43.5-18zm477.9 616.3c-19.7 0-39.4-7.5-54.4-22.5-30-30-30-78.8 0-108.8s78.8-30 108.8 0 30 78.8 0 108.8c-14.9 15-34.7 22.5-54.4 22.5zm.1-138.4c-15.8 0-31.6 6-43.6 18-24 24-24 63.1 0 87.1 24.1 24 63.1 24 87.1 0 24-24 24-63.1 0-87.1-12-12-27.8-18-43.5-18zM317.3 507.7h-84.4c-4.2 0-7.6-3.4-7.6-7.7s3.4-7.7 7.6-7.7h84.4c4.2 0 7.6 3.4 7.6 7.7s-3.4 7.7-7.6 7.7zm449.8 0h-84.4c-4.2 0-7.6-3.4-7.6-7.7s3.4-7.7 7.6-7.7h84.4c4.2 0 7.6 3.4 7.6 7.7s-3.4 7.7-7.6 7.7z"></path><path d="M162.1 576.9c-42.4 0-76.9-34.5-76.9-76.9s34.5-76.9 76.9-76.9S239 457.6 239 500s-34.5 76.9-76.9 76.9zm0-138.5c-34 0-61.6 27.6-61.6 61.6s27.7 61.6 61.6 61.6 61.6-27.6 61.6-61.6-27.7-61.6-61.6-61.6zm675.8 138.5c-42.4 0-76.9-34.5-76.9-76.9s34.5-76.9 76.9-76.9c42.4 0 76.9 34.5 76.9 76.9s-34.5 76.9-76.9 76.9zm0-138.5c-34 0-61.6 27.6-61.6 61.6s27.6 61.6 61.6 61.6 61.6-27.6 61.6-61.6-27.6-61.6-61.6-61.6zM311.2 696.5c-2 0-3.9-.7-5.4-2.2-3-3-3-7.8 0-10.8l59.7-59.7c3-3 7.9-3 10.8 0 3 3 3 7.8 0 10.8l-59.7 59.7c-1.5 1.5-3.5 2.2-5.4 2.2zm318-318c-2 0-3.9-.8-5.4-2.2-3-3-3-7.8 0-10.8l59.7-59.7c3-3 7.9-3 10.8 0 3 3 3 7.8 0 10.8l-59.7 59.7c-1.5 1.4-3.5 2.2-5.4 2.2z"></path><path d="M261.1 815.8c-19.7 0-39.4-7.5-54.4-22.5-30-30-30-78.8 0-108.8s78.8-30 108.8 0 30 78.8 0 108.8c-15 15-34.7 22.5-54.4 22.5zm-.1-138.4c-15.8 0-31.5 6-43.6 18-24 24-24 63.1 0 87.1 24.1 24 63.1 24 87.1 0 24-24 24-63.1 0-87.1-11.9-12-27.7-18-43.5-18zm477.9-339.5c-19.7 0-39.4-7.5-54.4-22.5C670 300.9 662 281.6 662 261s8-39.9 22.5-54.4c30-30 78.8-30 108.8 0s30 78.8 0 108.8c-14.9 15-34.7 22.5-54.4 22.5zm-43.5-33.3c24 24 63.1 24 87.1 0 24-24 24-63.1 0-87.1-24.1-24-63.1-24-87.1 0-11.6 11.6-18 27.1-18 43.6s6.4 31.9 18 43.5z"></path></g></svg>