<svg xmlns="http://www.w3.org/2000/svg" viewBox="0 0 1000 1000"><path fill="none" d="M0 0h1000v1000H0z"></path><g fill="#3C828E"><path d="M843.8 808.4H156.2c-4.2 0-7.7-3.4-7.7-7.7s3.4-7.7 7.7-7.7h687.6c4.2 0 7.7 3.4 7.7 7.7s-3.4 7.7-7.7 7.7zm0 27.3H156.2c-4.2 0-7.7-3.4-7.7-7.7s3.4-7.7 7.7-7.7h687.6c4.2 0 7.7 3.4 7.7 7.7s-3.4 7.7-7.7 7.7z"></path><path d="M277.5 804.9c-4.2 0-7.7-3.4-7.7-7.7V646c0-2.5-2.1-4.6-4.6-4.6H198c-2.5 0-4.6 2.1-4.6 4.6v151.2c0 4.2-3.4 7.7-7.7 7.7s-7.6-3.4-7.6-7.7V646c0-11 8.9-19.9 19.9-19.9h67.2c11 0 19.9 8.9 19.9 19.9v151.2c.1 4.2-3.3 7.7-7.6 7.7zm178 0c-4.2 0-7.7-3.4-7.7-7.7V513.9c0-2.5-2-4.6-4.6-4.6H376c-2.5 0-4.6 2-4.6 4.6v283.3c0 4.2-3.4 7.7-7.7 7.7s-7.6-3.4-7.6-7.7V513.9c0-11 8.9-19.9 19.9-19.9h67.2c11 0 19.9 8.9 19.9 19.9v283.3c0 4.2-3.4 7.7-7.6 7.7zm178-.1c-4.2 0-7.7-3.4-7.7-7.6V571.6c0-2.5-2.1-4.6-4.6-4.6H554c-2.5 0-4.6 2.1-4.6 4.6v225.6c0 4.2-3.4 7.6-7.7 7.6s-7.7-3.4-7.7-7.6V571.6c0-11 8.9-19.9 19.9-19.9h67.2c11 0 19.9 8.9 19.9 19.9v225.6c.1 4.2-3.3 7.6-7.5 7.6zm177.9.1c-4.2 0-7.7-3.4-7.7-7.7V413c0-2.5-2-4.6-4.6-4.6H732c-2.5 0-4.6 2.1-4.6 4.6v384.2c0 4.2-3.4 7.7-7.7 7.7s-7.6-3.4-7.6-7.7V413c0-11 8.9-19.9 19.9-19.9h67.2c11 0 19.9 8.9 19.9 19.9v384.2c0 4.2-3.4 7.7-7.7 7.7zm-579.7-272c-28 0-50.8-22.8-50.8-50.8 0-28 22.8-50.8 50.8-50.8s50.8 22.8 50.8 50.8c0 28-22.8 50.8-50.8 50.8zm0-86.3c-19.6 0-35.5 15.9-35.5 35.5s15.9 35.5 35.5 35.5 35.5-15.9 35.5-35.5-15.9-35.5-35.5-35.5zm178-59.3c-28 0-50.8-22.8-50.8-50.8s22.8-50.8 50.8-50.8 50.8 22.8 50.8 50.8-22.8 50.8-50.8 50.8zm0-86.3c-19.6 0-35.5 15.9-35.5 35.5s15.9 35.5 35.5 35.5 35.5-15.9 35.5-35.5-16-35.5-35.5-35.5zm177.9 142.9c-28 0-50.8-22.8-50.8-50.8s22.8-50.8 50.8-50.8c28 0 50.8 22.8 50.8 50.8s-22.8 50.8-50.8 50.8zm0-86.3c-19.6 0-35.5 15.9-35.5 35.5s15.9 35.5 35.5 35.5 35.5-15.9 35.5-35.5-15.9-35.5-35.5-35.5zm178-91.7c-28 0-50.8-22.8-50.8-50.8s22.8-50.8 50.8-50.8 50.8 22.8 50.8 50.8-22.8 50.8-50.8 50.8zm0-86.3c-19.6 0-35.5 15.9-35.5 35.5s15.9 35.5 35.5 35.5 35.5-15.9 35.5-35.5-15.9-35.5-35.5-35.5z"></path><path d="M266.4 464.3c-2.2 0-4.4-1-5.9-2.8-2.7-3.3-2.1-8.1 1.1-10.8l110.5-89.4c3.2-2.7 8.1-2.2 10.8 1.1 2.7 3.3 2.1 8.1-1.1 10.8l-110.5 89.4c-1.5 1.1-3.2 1.7-4.9 1.7zm354.9-95.9c-2 0-3.9-.8-5.4-2.2-3-3-3-7.8 0-10.8l113.3-113.9c3-3 7.8-3 10.8 0 3 3 3 7.8 0 10.8L626.8 366.1c-1.5 1.5-3.5 2.3-5.5 2.3zM544.8 385c-.8 0-1.6-.1-2.4-.4l-91.7-29.7c-4-1.3-6.2-5.6-4.9-9.6 1.3-4 5.6-6.2 9.6-4.9l91.7 29.7c4 1.3 6.2 5.6 4.9 9.6-1 3.2-4 5.3-7.2 5.3z"></path></g></svg>