<svg xmlns="http://www.w3.org/2000/svg" viewBox="0 0 1000 1000"><path fill="none" d="M0 0h1000v1000H0z"></path><g fill="#3C828E"><path d="M450.5 795.6h-286c-17.5 0-31.8-14.3-31.8-31.8V236.2c0-17.6 14.3-31.8 31.8-31.8h286.1c17.5 0 31.8 14.3 31.8 31.8v231.2c0 4.2-3.4 7.6-7.6 7.6s-7.6-3.4-7.6-7.6V236.2c0-9.1-7.4-16.5-16.5-16.5H164.5c-9.1 0-16.5 7.4-16.5 16.5v527.6c0 9.1 7.4 16.5 16.5 16.5h286.1c9.1 0 16.5-7.4 16.5-16.5V530.4c0-4.2 3.4-7.6 7.6-7.6s7.6 3.4 7.6 7.6v233.4c0 17.6-14.2 31.8-31.8 31.8zm385 0h-286c-17.5 0-31.8-14.3-31.8-31.8V530.5c0-4.2 3.4-7.6 7.6-7.6s7.6 3.4 7.6 7.6v233.3c0 9.1 7.4 16.5 16.5 16.5h286.1c9.1 0 16.5-7.4 16.5-16.5V236.2c0-9.1-7.4-16.5-16.5-16.5h-286c-9.1 0-16.5 7.4-16.5 16.5v231.3c0 4.2-3.4 7.6-7.6 7.6s-7.6-3.4-7.6-7.6V236.2c0-17.6 14.3-31.8 31.8-31.8h286.1c17.5 0 31.8 14.3 31.8 31.8v527.6c-.2 17.6-14.4 31.8-32 31.8z"></path><path d="M139.2 657.5h335.5v15.3H139.2zm385 0h335.5v15.3H524.2zm-385-353.1h335.5v15.3H139.2zm385 0h335.5v15.3H524.2zm-166.5-33.2H257.3c-4.2 0-7.6-3.4-7.6-7.6s3.4-7.6 7.6-7.6h100.5c4.2 0 7.6 3.4 7.6 7.6s-3.4 7.6-7.7 7.6zm385 0H642.3c-4.2 0-7.6-3.4-7.6-7.6s3.4-7.6 7.6-7.6h100.5c4.2 0 7.6 3.4 7.6 7.6s-3.5 7.6-7.7 7.6zM307.5 757.7c-17.6 0-31.9-14.3-31.9-31.9s14.3-31.9 31.9-31.9 31.9 14.3 31.9 31.9-14.3 31.9-31.9 31.9zm0-48.4c-9.1 0-16.6 7.4-16.6 16.6s7.5 16.6 16.6 16.6 16.6-7.4 16.6-16.6-7.4-16.6-16.6-16.6zm385 48.4c-17.6 0-31.9-14.3-31.9-31.9s14.3-31.9 31.9-31.9 31.9 14.3 31.9 31.9-14.3 31.9-31.9 31.9zm0-48.4c-9.1 0-16.6 7.4-16.6 16.6s7.4 16.6 16.6 16.6 16.6-7.4 16.6-16.6-7.5-16.6-16.6-16.6zm26.1-201.5H313.9c-4.2 0-7.6-3.4-7.6-7.6s3.4-7.6 7.6-7.6h404.7c4.2 0 7.6 3.4 7.6 7.6s-3.4 7.6-7.6 7.6z"></path><path d="M617 594.6c-2.2 0-4.3-.9-5.8-2.7-2.7-3.2-2.3-8 .8-10.8l100-85.5c3.2-2.7 8-2.4 10.8.8 2.7 3.2 2.3 8-.8 10.8l-100 85.5c-1.4 1.3-3.2 1.9-5 1.9z"></path><path d="M717 506.2c-1.8 0-3.5-.6-5-1.8l-100-85.5c-3.2-2.8-3.6-7.6-.8-10.8 2.8-3.2 7.6-3.6 10.8-.8l100 85.5c3.2 2.8 3.6 7.6.8 10.8-1.5 1.7-3.6 2.6-5.8 2.6z"></path></g></svg>