<svg xmlns="http://www.w3.org/2000/svg" viewBox="0 0 1000 1000"><path fill="none" d="M0 0h1000v1000H0z"></path><g fill="#3C828E"><path d="M543 805.6h-81.6c-4.2 0-7.6-3.4-7.6-7.6v-20.3H91.9c-4.2 0-7.6-3.4-7.6-7.6V274c0-4.2 3.4-7.6 7.6-7.6h58c4.2 0 7.6 3.4 7.6 7.6s-3.4 7.6-7.6 7.6H99.6v480.8h361.8c4.2 0 7.6 3.4 7.6 7.6v20.3h66.3v-20.7c0-4.2 3.4-7.6 7.6-7.6h357.5V281.7h-48.2c-4.2 0-7.6-3.4-7.6-7.6s3.4-7.6 7.6-7.6H908c4.2 0 7.6 3.4 7.6 7.6v495.6c0 4.2-3.4 7.6-7.6 7.6H550.6V798c0 4.2-3.4 7.6-7.6 7.6z"></path><path d="M153.2 741.2c-1.8 0-3.6-.6-5-1.8-1.7-1.5-2.6-3.6-2.6-5.8V228.9c0-4 3.1-7.3 7-7.6 25.9-2.1 52.5-7.5 78.2-12.8 34.6-7 70.1-14 106.1-14.1 36.8.2 74.9 8.3 111.7 16.2 18.1 3.8 36.7 7.8 54.9 10.8 3.7.6 6.4 3.8 6.4 7.5v504.7c0 2.2-.9 4.2-2.5 5.6-1.6 1.5-3.7 2.2-5.9 2-24.4-2.2-47.7-7.5-70.2-12.5-29.7-6.7-60.4-13.7-95.7-14.3-41.9-.6-81.7 7.5-120.7 15.5-19.7 4.1-40.2 8.3-60.6 11.3h-1.1zm177-42.2c1.9 0 3.8 0 5.6.1 36.9.7 68.4 7.8 98.9 14.6 20.3 4.6 39.6 8.9 59.8 11.4V235.3c-16.5-2.8-33.1-6.4-49.2-9.8-36-7.7-73.3-15.6-108.6-15.8-33.7 0-69.1 6.9-102.9 13.8-23.9 4.9-48.5 9.9-73 12.4v488.8c17.2-2.8 34.3-6.3 51-9.7 38.1-7.9 77.3-16 118.4-16z"></path><path d="M851.1 741.2c-.4 0-.7 0-1.1-.1-20.5-3-40.9-7.2-60.6-11.3-39-8-79.4-16-120.7-15.5-35.3.6-66 7.6-95.7 14.3-22.5 5.1-45.7 10.3-70.1 12.5-2.1.2-4.2-.5-5.9-2-1.6-1.5-2.5-3.5-2.5-5.6V228.9c0-3.7 2.7-7 6.4-7.5 18.1-3 36.8-6.9 54.9-10.8 36.8-7.8 74.8-15.9 111.7-16.2 36.3.3 71.5 7 106.1 14.1 25.7 5.2 52.3 10.7 78.2 12.8 4 .3 7 3.6 7 7.6v504.7c0 2.2-.9 4.4-2.6 5.8-1.5 1.2-3.2 1.8-5.1 1.8zM509.8 235.3V725c20.3-2.4 39.5-6.8 59.8-11.3 30.5-6.9 62-14 98.9-14.7 43-1.4 84.3 7.6 124.1 15.8 16.7 3.4 33.8 6.9 51 9.7V235.9c-24.5-2.5-49.1-7.5-73-12.4-33.3-6.8-67.7-13.8-101.3-13.8h-1.6c-35.3.2-72.6 8.2-108.6 15.8-16.3 3.4-32.9 7-49.3 9.8zm-95.7 97.8H219.7c-4.2 0-7.6-3.4-7.6-7.6s3.4-7.6 7.6-7.6h194.4c4.2 0 7.6 3.4 7.6 7.6s-3.4 7.6-7.6 7.6z"></path><path d="M762 386.8H567.7c-4.2 0-7.6-3.4-7.6-7.6s3.4-7.6 7.6-7.6H762c4.2 0 7.6 3.4 7.6 7.6s-3.4 7.6-7.6 7.6zm0 53.7H567.7c-4.2 0-7.6-3.4-7.6-7.6s3.4-7.6 7.6-7.6H762c4.2 0 7.6 3.4 7.6 7.6s-3.4 7.6-7.6 7.6zm0 52.6H567.7c-4.2 0-7.6-3.4-7.6-7.6s3.4-7.6 7.6-7.6H762c4.2 0 7.6 3.4 7.6 7.6s-3.4 7.6-7.6 7.6zM682.5 549H567.7c-4.2 0-7.6-3.4-7.6-7.6s3.4-7.6 7.6-7.6h114.9c4.2 0 7.6 3.4 7.6 7.6s-3.4 7.6-7.7 7.6zM414.1 387.9H219.7c-4.2 0-7.6-3.4-7.6-7.6s3.4-7.6 7.6-7.6h194.4c4.2 0 7.6 3.4 7.6 7.6s-3.4 7.6-7.6 7.6zm0 105.2H219.7c-4.2 0-7.6-3.4-7.6-7.6s3.4-7.6 7.6-7.6h194.4c4.2 0 7.6 3.4 7.6 7.6s-3.4 7.6-7.6 7.6zm-97.7-52.6h-96.6c-4.2 0-7.6-3.4-7.6-7.6s3.4-7.6 7.6-7.6h96.6c4.2 0 7.6 3.4 7.6 7.6s-3.4 7.6-7.6 7.6z"></path></g></svg>