<svg xmlns="http://www.w3.org/2000/svg" viewBox="0 0 1000 1000"><path fill="none" d="M0 0h1000v1000H0z"></path><g fill="#3C828E"><path d="M236.3 778.3c-32.7 0-59.2-26.6-59.2-59.3V298.2c0-4.2 3.4-7.6 7.6-7.6s7.6 3.4 7.6 7.6v420.9c0 24.3 19.7 44 44 44s44-19.7 44-44v-487c0-4.2 3.4-7.6 7.6-7.6s7.6 3.4 7.6 7.6v487c.1 32.7-26.5 59.2-59.2 59.2z"></path><path d="M236.8 727.3c-4.2 0-7.6-3.4-7.6-7.6V261.5c0-4.2 3.4-7.6 7.6-7.6s7.6 3.4 7.6 7.6v458.1c.1 4.2-3.3 7.7-7.6 7.7z"></path><path d="M766.6 778.3c-.1 0-.1 0 0 0l-530.6-.2c-4.2 0-7.6-3.4-7.6-7.6s3.4-7.6 7.6-7.6l530.5.2h.1c10.9 0 21.2-4.3 29-12 7.8-7.8 12.1-18.1 12.1-29.1 0-25.8-.8-128.3-1.5-233.6-.8-106-1.6-215.3-1.6-251.3H288.4c-4.2 0-7.6-3.4-7.6-7.6s3.4-7.6 7.6-7.6h523.7c2 0 4 .8 5.4 2.2 1.4 1.5 2.2 3.4 2.2 5.4-.1 24.5.8 143.6 1.7 258.8.8 105.4 1.5 208 1.5 233.7 0 15-5.9 29.2-16.6 39.9-10.6 10.6-24.7 16.4-39.7 16.4z"></path><path d="M748.2 317.7H350.4c-4.2 0-7.6-3.4-7.6-7.6s3.4-7.6 7.6-7.6h397.8c4.2 0 7.6 3.4 7.6 7.6s-3.3 7.6-7.6 7.6zm0 75.1H350.4c-4.2 0-7.6-3.4-7.6-7.6s3.4-7.6 7.6-7.6h397.8c4.2 0 7.6 3.4 7.6 7.6s-3.3 7.6-7.6 7.6zm0 300.2H350.4c-4.2 0-7.6-3.4-7.6-7.6s3.4-7.6 7.6-7.6h397.8c4.2 0 7.6 3.4 7.6 7.6s-3.3 7.6-7.6 7.6zm-249.4-75.1H350.4c-4.2 0-7.6-3.4-7.6-7.6s3.4-7.6 7.6-7.6h148.4c4.2 0 7.6 3.4 7.6 7.6s-3.4 7.6-7.6 7.6zm0-75H350.4c-4.2 0-7.6-3.4-7.6-7.6s3.4-7.6 7.6-7.6h148.4c4.2 0 7.6 3.4 7.6 7.6s-3.4 7.6-7.6 7.6zm0-75.1H350.4c-4.2 0-7.6-3.4-7.6-7.6s3.4-7.6 7.6-7.6h148.4c4.2 0 7.6 3.4 7.6 7.6s-3.4 7.6-7.6 7.6zm249.4 152.1h-187c-4.2 0-7.6-3.4-7.6-7.6v-158c0-4.2 3.4-7.6 7.6-7.6h187.1c4.2 0 7.6 3.4 7.6 7.6v158c0 4.1-3.4 7.6-7.7 7.6zm-179.4-15.3h171.8V461.8H568.8v142.8z"></path></g></svg>