<svg xmlns="http://www.w3.org/2000/svg" xml:space="preserve" viewBox="0 0 1000 1000"><path fill="none" d="M0 0h1000v1000H0z"></path><g fill="#00AEB1"><path d="M706.8 973.4H293.2c-3.9 0-7.1-3.2-7.1-7.1 0-45 94-80.2 213.9-80.2s213.9 35.2 213.9 80.2c0 3.9-3.1 7.1-7.1 7.1zm-405.2-14.2h396.9c-10.8-29.7-87.8-59-198.4-59s-187.8 29.3-198.5 59z"></path><path d="M500 900.2c-3.9 0-7.1-3.2-7.1-7.1V579.3c0-3.9 3.2-7.1 7.1-7.1s7.1 3.2 7.1 7.1v313.9c0 3.9-3.2 7-7.1 7z"></path><path d="M500 586.7c-1.9 0-3.7-.8-5.1-2.1L174.6 259c-2-2-2.6-5.1-1.5-7.7 1.1-2.6 3.7-4.3 6.5-4.3h375c3.9 0 7.1 3.2 7.1 7.1s-3.2 7.1-7.1 7.1h-358L500 569.5l303.4-308.4h-166c-3.9 0-7.1-3.2-7.1-7.1s3.2-7.1 7.1-7.1h183c2.9 0 5.4 1.7 6.5 4.3 1.1 2.6.5 5.7-1.5 7.7L505.1 584.6c-1.4 1.4-3.2 2.1-5.1 2.1zM638.2 217.8c-7.8 0-15.6-1.6-23.1-5.1-13.6-6.2-23.9-17.3-29.1-31.3-5.2-14-4.7-29.1 1.6-42.7 6.2-13.6 17.3-23.9 31.3-29.1 14-5.2 29.2-4.7 42.7 1.5 28 12.8 40.4 46 27.6 74-9.5 20.6-29.8 32.7-51 32.7zM621 199.9c21 9.6 45.7.3 55.2-20.6 9.5-20.9.3-45.7-20.6-55.2-10.1-4.6-21.5-5-31.9-1.2-10.4 3.9-18.7 11.6-23.4 21.7-4.6 10.1-5 21.4-1.2 31.9 4 10.5 11.7 18.8 21.9 23.4z"></path><path d="M552.1 357.6c-1 0-2-.2-2.9-.6-3.6-1.6-5.1-5.8-3.5-9.4L610.9 205c1.6-3.6 5.8-5.1 9.4-3.5 3.6 1.6 5.1 5.8 3.5 9.4l-65.2 142.5c-1.2 2.6-3.8 4.2-6.5 4.2zM659.3 123.2c-1 0-2-.2-2.9-.6-3.6-1.6-5.1-5.8-3.5-9.4l37.7-82.3c1.6-3.6 5.8-5.1 9.4-3.5 3.6 1.6 5.1 5.8 3.5 9.4L665.7 119c-1.1 2.6-3.7 4.2-6.4 4.2zM318.5 360.8c-38.5 0-67.6-14.8-67.6-34.5 0-3.9 3.2-7.1 7.1-7.1 3.9 0 7.1 3.2 7.1 7.1 0 8.3 20.8 20.3 53.4 20.3s53.4-12 53.4-20.3c0-3.9 3.2-7.1 7.1-7.1s7.1 3.2 7.1 7.1c0 19.6-29.1 34.5-67.6 34.5z"></path><path d="M439.5 360.8c-38.5 0-67.6-14.8-67.6-34.5 0-3.9 3.2-7.1 7.1-7.1s7.1 3.2 7.1 7.1c0 8.3 20.8 20.3 53.4 20.3s53.4-12 53.4-20.3c0-3.9 3.2-7.1 7.1-7.1s7.1 3.2 7.1 7.1c0 19.6-29.1 34.5-67.6 34.5z"></path><path d="M560.5 360.8c-38.5 0-67.6-14.8-67.6-34.5 0-3.9 3.2-7.1 7.1-7.1s7.1 3.2 7.1 7.1c0 8.3 20.8 20.3 53.4 20.3s53.4-12 53.4-20.3c0-3.9 3.2-7.1 7.1-7.1s7.1 3.2 7.1 7.1c.1 19.6-29 34.5-67.6 34.5z"></path><path d="M681.6 360.8c-38.5 0-67.6-14.8-67.6-34.5 0-3.9 3.2-7.1 7.1-7.1s7.1 3.2 7.1 7.1c0 8.3 20.8 20.3 53.4 20.3s53.4-12 53.4-20.3c0-3.9 3.2-7.1 7.1-7.1s7.1 3.2 7.1 7.1c0 19.6-29.1 34.5-67.6 34.5z"></path></g></svg>