<svg xmlns="http://www.w3.org/2000/svg" xml:space="preserve" viewBox="0 0 1000 1000"><path fill="none" d="M0 0h1000v1000H0z"></path><g fill="#00AEB1"><path d="M651.5 481.8c-3.9 0-7.1-3.2-7.1-7.1V263.8c0-3.9 3.2-7.1 7.1-7.1s7.1 3.2 7.1 7.1v210.9c0 3.9-3.2 7.1-7.1 7.1zM736.9 652.5c-2.5 0-4.9-1.3-6.2-3.6L659.2 522c-1.9-3.4-.7-7.7 2.7-9.7 3.4-1.9 7.7-.7 9.7 2.7l71.5 126.9c1.9 3.4.7 7.7-2.7 9.7-1.1.6-2.3.9-3.5.9z"></path><path d="M651.5 840.9c-120.1 0-232.6-64.3-293.7-167.7-2-3.4-.9-7.7 2.5-9.7 3.4-2 7.7-.9 9.7 2.5 58.5 99.2 166.3 160.8 281.5 160.8 180.2 0 326.8-146.6 326.8-326.8 0-179.2-145.8-325.8-325.1-326.8-3.9 0-7.1-3.2-7-7.1 0-3.9 3.2-7.1 7.1-7.1 187 1 339.2 153.9 339.2 340.9-.1 188.1-153 341-341 341z"></path><path d="M651.5 789.5C491.9 789.5 362 659.6 362 500s129.9-289.5 289.5-289.5S941 340.4 941 500 811.1 789.5 651.5 789.5zm0-564.9c-151.8 0-275.4 123.5-275.4 275.4s123.5 275.4 275.4 275.4S926.8 651.8 926.8 500 803.3 224.6 651.5 224.6z"></path><path d="M651.5 529.4c-16.2 0-29.4-13.2-29.4-29.4s13.2-29.4 29.4-29.4 29.4 13.2 29.4 29.4-13.2 29.4-29.4 29.4zm0-44.7c-8.4 0-15.2 6.8-15.2 15.2s6.8 15.2 15.2 15.2 15.2-6.8 15.2-15.2-6.8-15.2-15.2-15.2zM654.4 173.2H14.7c-3.9 0-7.1-3.2-7.1-7.1s3.2-7.1 7.1-7.1h639.6c3.9 0 7.1 3.2 7.1 7.1s-3.1 7.1-7 7.1zM351.6 340.1H101.8c-3.9 0-7.1-3.2-7.1-7.1s3.2-7.1 7.1-7.1h249.8c3.9 0 7.1 3.2 7.1 7.1s-3.2 7.1-7.1 7.1zM310.6 506.9H188.8c-3.9 0-7.1-3.2-7.1-7.1s3.2-7.1 7.1-7.1h121.8c3.9 0 7.1 3.2 7.1 7.1s-3.2 7.1-7.1 7.1zM362 673.8h-86.2c-3.9 0-7.1-3.2-7.1-7.1s3.2-7.1 7.1-7.1H362c3.9 0 7.1 3.2 7.1 7.1s-3.2 7.1-7.1 7.1z"></path></g></svg>