<svg xmlns="http://www.w3.org/2000/svg" xml:space="preserve" viewBox="0 0 1000 1000"><path fill="none" d="M0 0h1000v1000H0z"></path><g fill="#00AEB1"><path d="M462.9 796.7H186.7c-20.1 0-36.4-16.3-36.4-36.4V120.1c0-20.1 16.3-36.4 36.4-36.4h347.1c20.1 0 36.4 16.3 36.4 36.4V545c0 3.9-3.2 7.1-7.1 7.1s-7.1-3.2-7.1-7.1V120.1c0-12.3-10-22.2-22.2-22.2H186.7c-12.3 0-22.2 10-22.2 22.2v640.2c0 12.3 10 22.2 22.2 22.2h276.2c3.9 0 7.1 3.2 7.1 7.1s-3.2 7.1-7.1 7.1z"></path><path d="M468.9 647.7H162.1c-3.9 0-7.1-3.2-7.1-7.1s3.2-7.1 7.1-7.1h306.7c3.9 0 7.1 3.2 7.1 7.1s-3.1 7.1-7 7.1zM563.1 219.2h-401c-3.9 0-7.1-3.2-7.1-7.1s3.2-7.1 7.1-7.1h401c3.9 0 7.1 3.2 7.1 7.1s-3.2 7.1-7.1 7.1zM421.2 160.4H299.3c-3.9 0-7.1-3.2-7.1-7.1s3.2-7.1 7.1-7.1h121.9c3.9 0 7.1 3.2 7.1 7.1s-3.2 7.1-7.1 7.1zM360.2 750.7c-20.1 0-36.5-16.4-36.5-36.5s16.4-36.5 36.5-36.5 36.5 16.4 36.5 36.5c.1 20.1-16.3 36.5-36.5 36.5zm0-58.8c-12.3 0-22.3 10-22.3 22.4s10 22.3 22.3 22.3 22.3-10 22.3-22.3-9.9-22.4-22.3-22.4z"></path><path d="M616.2 916.4c-1.6 0-3.2-.3-4.8-.8-7.3-1.5-19.1-5.3-35.5-11.5-22-8.3-27.9-13.1-30.1-17.7-1.4-3.1-1.8-6.8-1.2-11l9.3-39.1c-4.5-3.7-8.6-7.5-12.4-11.4-20.1 6.4-33.9 10.3-42.2 11.8-8 1.4-14.6-2-17.9-9.4l-23.3-50.7c-1.6-3.6-2-7.5-1-11.3 1-4.1 3.5-7.3 7.2-9.4l35-23c-.5-5.8-.8-11.4-.7-16.8l-35.4-19c-3-1.1-6-4-7.8-8-1.7-3.8-1.8-8-.3-12.2 8.7-27.7 15.8-46.3 21.6-56.5 1.9-3.1 4.5-5.4 7.7-6.9 3.2-1.4 6.7-1.8 10.4-1.1 4.3.8 11.3 2.4 20.9 4.7 7 1.7 12.7 3 17.3 4 4.2-5.2 8.6-10 13.2-14.2l-11.8-40.4c-1.1-4-.6-7.8 1.2-11.3 2-3.5 4.6-6 7.9-7.5l50.7-23.3c3.2-1.5 6.8-1.9 10.5-1 3.9.8 7 2.7 9.2 5.7l23.8 36.2c5.6-.5 11.5-.7 17.6-.5 5.4-9.7 11.5-21.3 18-34.7 1.7-3.8 4.3-6.6 7.8-8.2 2.8-1.3 6.3-1.6 10.4-.9 7.9 1.6 19.7 5.4 36.2 11.6 22.2 8.5 28 13.1 30.2 17.8 1.6 3.4 1.9 7.3 1 11.5l-9 38.5c4.4 3.6 8.5 7.4 12.4 11.5 20.2-6.4 34-10.3 42.2-11.8 8-1.5 14.4 2 17.8 9.4l23.3 50.7c1.7 3.7 2 7.6 1 11.3-.9 3.8-3.3 7-6.9 9.2l-35.3 23.1c.5 5.8.8 11.4.7 16.8l35.5 19.1c2.8 1 5.8 3.8 7.6 7.8 1.6 3.6 1.9 7.4.8 11.5-9.3 28.6-16.8 47.8-22.3 57.4-1.2 2.6-3.9 5.2-7.5 6.8-3.2 1.5-6.9 1.9-10.5 1.1-4.1-.8-11.1-2.3-20.7-4.7-7-1.8-12.8-3.1-17.3-4.1-4.2 5.1-8.5 9.9-13 14.1l11.6 40.6c1.1 3.8.7 7.7-1.2 11.4-1.7 3.2-4.4 5.8-7.8 7.4l-50.8 23.3c-3.2 1.5-6.9 1.8-10.5 1-5.1-1-8-4-9.5-6.3L666 871.4c-6.5.4-12.2.6-17.3.5-4.5 8-10.3 19.2-18.1 34.8-1.6 3.6-4.4 6.6-8 8.2-2 1-4.2 1.5-6.4 1.5zm-72.5-106.6c2 0 3.9.8 5.3 2.3 5.1 5.6 10.7 10.8 17.3 16 2.2 1.7 3.2 4.5 2.5 7.2l-10.2 42.9c-.2 1.4.1 2.2.2 2.3.2.1 3.5 3.3 22.2 10.4 15.4 5.8 26.9 9.5 34.1 11l4.8 6.6-2.9-6.4c0-.1 1.1-1.5 1.2-1.6 9.1-18.5 15.7-31 20.7-39.4 1.4-2.3 3.9-3.6 6.6-3.5 6.3.5 14.1.3 23.8-.6 2.7-.4 5.1 1 6.5 3.2l25.8 39.3c.1 0 2.2.1 2.3.1l50.8-23.3c.5-.2.9-.6 1.1-1.1L743 829.4c-.7-2.6.1-5.4 2.1-7.2 5.9-5.3 11.7-11.6 17.2-18.7 1.6-2.1 4.4-3.1 7-2.6 5.2 1 12.6 2.7 22.2 5.1 9.2 2.2 16 3.7 20.1 4.5 0 0 1.8-.1 1.9-.1 4.6-7 11-21.3 22.1-55.2.2-.9 0-1.4-.1-1.7-.3-.1-1.2-1-1.5-1.2l-39.3-21.2c-2.4-1.3-3.8-3.8-3.7-6.5.3-7.4 0-15.1-1-23.4-.3-2.7.9-5.3 3.2-6.7l46.1-31.1-6.4 3-23.3-50.7c-.7-1.6-1-1.6-2.4-1.3-8 1.5-23.1 5.7-44.7 12.7-2.6.8-5.5.1-7.4-2-5.4-5.9-11.1-11.1-17.4-16.1-2.2-1.7-3.2-4.5-2.5-7.2l10-42.8c.2-1 .2-1.9 0-2.4-.2 0-3.5-3.2-22.3-10.4-15.5-5.9-26.9-9.5-33.8-10.9-1.4-.2-2-.1-2-.1-8.3 16.9-15.3 30.2-21.4 40.8-1.4 2.3-3.9 3.7-6.6 3.5-8.3-.6-16.3-.4-23.7.7-2.8.4-5.4-.9-6.9-3.1l-26-39.6-2.2.2-50.8 23.3c-.5.2-.9.5-1.3 1.3l13 45.4c.8 2.7-.1 5.6-2.2 7.4-6.1 5.2-11.9 11.5-17.3 18.6-1.6 2.2-4.3 3.2-7 2.7-5.2-1-12.5-2.6-22.2-5-9.2-2.2-15.9-3.8-20.1-4.6-1.3-.3-1.7 0-1.9 0-.6.3-1.1.7-1.4 1.2-5.1 9-12 27.1-20.4 53.9.3.1 1.2 3.1 1.4 3.2l39.2 21c2.4 1.3 3.8 3.8 3.7 6.5-.3 7.4 0 15.1 1 23.4.3 2.7-.9 5.3-3.2 6.7l-39.2 25.7-.5 2.6 23.3 50.8c.6 1.4.8 1.6 2.5 1.3 8.1-1.5 23.1-5.7 44.6-12.7.7-.5 1.4-.6 2.2-.6zm108.5-19.6c-8.3 0-16.7-1.6-25.2-4.7-18.4-6.8-31.9-19.3-40.1-37.2-8.2-17.8-8.9-36.2-2.1-54.7 6.8-18.4 19.4-31.9 37.2-40.1 17.8-8.2 36.2-8.9 54.7-2.1 18.5 6.9 32 19.4 40.1 37.2 8.2 17.9 8.9 36.3 2 54.7-6.8 18.5-19.3 32-37.2 40.2-9.6 4.5-19.5 6.7-29.4 6.7zm-.5-129.3c-7.9 0-15.8 1.8-23.7 5.4-14.5 6.7-24.3 17.2-29.8 32.2-5.5 15-5 29.3 1.7 43.8 6.7 14.6 17.2 24.3 32.1 29.8 15 5.6 29.3 5.1 43.9-1.6 14.5-6.7 24.2-17.2 29.8-32.2 5.6-15 5-29.3-1.6-43.9-6.6-14.5-17.1-24.2-32.2-29.8-6.9-2.4-13.6-3.7-20.2-3.7z"></path></g></svg>