<svg xmlns="http://www.w3.org/2000/svg" xml:space="preserve" viewBox="0 0 1000 1000"><path fill="none" d="M0 0h1000v1000H0z"></path><g fill="#FFF"><path d="M764 922.1c-108.3 0-196.4-88.1-196.4-196.4S655.7 529.3 764 529.3s196.4 88.1 196.4 196.4S872.3 922.1 764 922.1zm0-378.6c-100.5 0-182.2 81.8-182.2 182.3S663.6 908 764 908s182.2-81.8 182.2-182.3S864.5 543.5 764 543.5z"></path><path d="M764 825.2c-3.9 0-7.1-3.2-7.1-7.1V633.3c0-3.9 3.2-7.1 7.1-7.1s7.1 3.2 7.1 7.1v184.8c0 3.9-3.1 7.1-7.1 7.1z"></path><path d="M856.5 732.8H671.6c-3.9 0-7.1-3.2-7.1-7.1s3.2-7.1 7.1-7.1h184.8c3.9 0 7.1 3.2 7.1 7.1s-3.1 7.1-7 7.1zM46.7 788.8c-.4 0-.8 0-1.2-.1-3.9-.7-6.4-4.3-5.8-8.2 5.9-34.1 11.9-68.1 16-90.4 4.2-22.6 6.8-34.9 15.8-44.7 8.4-9.1 21.3-15.3 43.7-24.1 6.5-2.6 13.8-5.4 21.7-8.4 16.9-6.4 36.3-13.9 56-22.2 30.1-12.7 58.7-26.6 78.6-38.2 19.3-11.2 32.1-21.3 38.9-30.6 5-6.8 6.9-13.3 8.5-18.5.5-1.6.9-3.1 1.4-4.3 2-5.7 4.5-8.8 6.2-10.5V460.7c0-1.8 0-3.6-.1-4.1-.1-.3-1-1.6-1.8-2.9-3.2-4.8-9.6-14.3-13.9-21.9-4.4-7.7-6.8-13.8-9.6-24.2l-1-3.6c-2-7.7-4.8-18.2-8.4-22-1.1-1.1-2.4-1.8-4.7-2.9-4.5-2.1-10.7-5.1-15.6-14.5-6.1-11.6-10.3-33.5-13.4-49.4l-1.8-9.2c-2.6-12.8-3.8-18.7 2.1-23.1 3.2-2.4 7.7-3 12.2-3-.5-5.6-.8-14.3-.4-30 1-37.9 5.7-66.8 14.2-88.5 10.6-27.1 30.1-49.2 56.5-64 22.2-12.5 48.5-19.2 76-19.5 26-.5 50.5 5.1 75.2 16.3 31.3 14.3 52.2 33.6 63.9 59.2 13 28.2 15.9 66.3 16.9 96.3.6 17.3.6 27.5.4 33.8 4-1.5 7.6-2.1 10.9-1.2 10.4 2.9 8.2 15.3 5.9 28.5-1.9 10.9-7 37.7-14 51.6-4.1 8.1-8.6 11.7-12.3 14.6-2.3 1.8-3.9 3.1-5.2 5.3-2.3 3.9-4.1 11.4-5.8 18.6-1.2 5-2.5 10-3.9 14.4-3.1 9.4-7.2 15.6-10.8 21.2l-2.8 4.4c-4.1 6.8-6.3 12.9-7.2 20.5-1.2 9.7-.6 23.1-.4 28.1.1 2.9.4 7.7.7 8.6 1.8 2.3 3.3 4.2 5.5 7.6l2.9 4.8c3.3 5.5 7.4 12.3 12.1 18.3 6 7.5 13.1 13.8 23.8 20.9 10.9 7.3 25.4 15.3 38.2 22.4 3.4 1.9 4.7 6.2 2.8 9.6-1.9 3.4-6.2 4.7-9.6 2.8-13.1-7.3-27.9-15.5-39.2-23-11.8-7.9-20.2-15.2-27-23.9-5.3-6.7-9.9-14.3-13.2-19.9l-2.7-4.5c-1.8-2.8-3-4.3-3.8-5.4-.8-1.1-1.6-2.1-2.3-3.5-1.6-3.1-1.8-6.4-2.2-14.3-.4-9.2-.8-20.9.5-30.6 1.2-9.5 4-17.6 9.2-26.1l3-4.7c3.3-5.1 6.7-10.3 9.2-18 1.3-4 2.5-8.6 3.6-13.2 2.1-8.6 4-16.7 7.4-22.3 2.6-4.5 5.8-7.1 8.7-9.3 3.1-2.4 5.8-4.6 8.4-9.8 5-9.9 9.8-31.1 12.7-47.6 1-5.6 1.4-9.2 1.6-11.5-1.3.5-3.1 1.4-5.6 2.6-2.4 1.2-6.1 3-9.9.4-3.9-2.6-3.6-6.6-3.4-10.5.3-4.6.8-14.3-.1-39.3-1-26.4-3.6-64.6-15.7-90.9-10.6-22.2-29.2-39.3-57.2-52.1C463.2 96.7 440.7 92 416.8 92c-25.1.2-49.1 6.4-69.2 17.7-23.4 13.2-40.8 32.8-50.2 56.8-7.9 20.1-12.2 47.5-13.2 83.7-.6 21.6.3 28.8.7 32.3.4 2.9.7 6.2-1.9 9-2.6 2.8-5.9 2.7-8.3 2.6-3.1-.1-5.1-.1-6.4 0 .3 2.2 1 5.6 1.7 9.1l1.8 9.3c2.8 14.3 7 35.8 12.1 45.6 2.7 5.2 5.4 6.4 9.1 8.2 2.9 1.4 6.1 2.9 9.1 6.1 5.9 6.4 9 17.9 11.7 28l1 3.6c2.5 9.3 4.5 14.2 8.3 20.9 4.1 7.3 10.3 16.5 13.3 21 3.9 5.9 4.3 7.3 4.3 14.8v24.8c0 6.8 0 9.4-3.5 12.5-.7.7-2.1 1.9-3.5 5.8-.4 1.1-.8 2.3-1.2 3.7-1.8 5.9-4.2 14.1-10.6 22.8-8.2 11.1-21.9 22.1-43.2 34.5-20.4 11.8-49.6 26.1-80.2 39-19.8 8.4-39.4 15.9-56.5 22.4-7.8 3-15.1 5.7-21.5 8.3-19.9 7.8-32 13.4-38.5 20.5-6.1 6.6-8.2 15.6-12.3 37.6C65.5 715 59.6 749 53.6 783c-.6 3.4-3.5 5.8-6.9 5.8z"></path><path d="M454.8 206.9c-.9 0-1.9-.2-2.8-.6l-81.8-34.7-26.6 17.3c-1.7 1.1-3.7 1.4-5.7.9l-34.9-9.1c-3.8-1-6.1-4.9-5.1-8.6 1-3.8 4.8-6.1 8.6-5.1l31.9 8.3 27.1-17.7c2-1.3 4.5-1.5 6.6-.6l76.5 32.5 1.5-13.8c.2-2.1 1.4-4 3.2-5.2s4-1.5 6-.8l58.4 18.7 18.4-6.9c3.6-1.3 7.7.5 9.1 4.2 1.4 3.7-.5 7.8-4.2 9.1l-20.7 7.7c-1.5.5-3.1.6-4.6.1l-52.5-16.8-1.6 14.7c-.2 2.2-1.5 4.2-3.5 5.3-.9.8-2.1 1.1-3.3 1.1zM427.8 565.5c-3.1 0-6.2-1.2-11.2-3.5-8.1-3.9-24-11.5-38.1-18.9-15.6-8.2-27.6-15.3-35.6-23.6-8.7-9.1-12.2-19.2-15.2-28.2-1.3-3.7.7-7.7 4.4-9 3.7-1.2 7.7.7 9 4.4 2.8 8.3 5.5 16.2 12 23 6.7 6.9 17.6 13.4 31.9 20.9 13.9 7.3 29.6 14.9 37.6 18.7 2 .9 4.4 2.1 5.1 2.2.6-.1 3.1-1.2 5.1-2.2 9.8-4.7 24.3-11.8 37.7-19.6 14.6-8.6 26.6-17.4 32.7-24.1 5.7-6.2 6.5-10.7 7.7-16.5l13.9 2.6c-1.3 6.7-2.7 14.3-11.1 23.4-7.2 7.8-20 17.3-36 26.7-13.9 8.2-28.8 15.5-38.8 20.2-4.8 2.3-7.9 3.5-11.1 3.5z"></path><path d="M479.8 640.1h-.7c-3.6-.5-4.9-2.2-10.2-9.4l-3.4-4.6c-4.9-6.6-12.7-16.9-20-26.6l-13.8-18.3c-1-1.4-2-2.7-2.9-3.8-.3.4-.6.9-.9 1.2-6.7 8.9-20 26.9-28 38.2-7.9 11.1-10.7 15.5-12 17.7-1.1 1.7-4.1 4.2-6.1 4.5-4.3.7-6.4-.9-17.3-10.1-12.5-10.5-34.9-29.3-46.2-43.1-13.3-16.1-12.1-26.5-9-39.4 3-12.1 8.2-28.6 13.3-44.5 1.2-3.7 5.2-5.8 8.9-4.7 3.7 1.2 5.8 5.1 4.6 8.8l-.1.2c-5 15.7-10.2 31.9-13 43.5-2.5 10.2-3.3 15.6 6.1 27 10.5 12.8 33.1 31.8 44 40.9 2.2 1.8 4.1 3.5 5.7 4.7 2-3 4.9-7.3 9.6-13.8 8.1-11.3 21.5-29.5 28.2-38.5 3.8-5.1 6.9-9.2 12.2-9.2 5.5 0 8.5 4 14 11.3l14.1 18.7c7.3 9.7 15.1 20 20.1 26.6l3.5 4.7c.1.2.3.4.4.6 1.1-1.1 2.5-2.6 4.3-4.3 6.3-6.4 16.9-17.3 26.4-27.5 8.7-9.4 16.8-18.6 19.7-27.8 2.4-7.6 1.8-16.7-1.8-27.6-3.3-9.8-8.4-19.1-13.3-28.1-1.9-3.4-.6-7.7 2.8-9.6s7.7-.6 9.6 2.8c5.2 9.5 10.6 19.4 14.3 30.4 4.6 13.9 5.2 25.8 1.9 36.4-3.8 11.9-13 22.5-22.8 33.1-9.6 10.4-20.3 21.3-26.7 27.8-6.8 6.9-9 9.1-10.1 9.9-1.6 1.1-3.7 1.9-5.4 1.9zm-97.2-14.7h.2-.2z"></path><path d="M394.3 880.8c-3.1 0-5.9-2-6.8-5.1-17.7-60.2-36.1-122.4-50.5-177.9-14.3-55.2-25-104.3-35.2-151.9-.8-3.8 1.6-7.6 5.4-8.4 3.8-.7 7.6 1.6 8.4 5.4 10.2 47.4 20.8 96.4 35.1 151.3 14.4 55.2 32.7 117.4 50.4 177.4 1.1 3.8-1 7.7-4.8 8.8-.7.3-1.4.4-2 .4zM463.7 880.4c-.7 0-1.3-.1-2-.3-3.8-1.1-5.9-5.1-4.8-8.8 17.4-59.6 35.4-121.3 49.3-176.2 13.7-54.3 23.6-103.5 33.1-151.1l7.1.5 6.8 2.3c-9.6 47.8-19.6 97.2-33.3 151.8-13.9 55.2-31.9 117-49.4 176.7-.9 3.1-3.7 5.1-6.8 5.1z"></path><path d="M383 838.5c-.4 0-.9 0-1.3-.1-3.8-.7-6.4-4.4-5.7-8.3 12-66 24.5-134.3 27.8-171.5 3.1-34.6-1.6-40.8-6.4-47.3-2.4-3.1-1.7-7.6 1.4-9.9 3.1-2.3 7.6-1.7 9.9 1.4 7.5 10 12.6 19.9 9.2 57.1-3.4 37.8-15.9 106.4-28 172.8-.6 3.4-3.6 5.8-6.9 5.8zM472.6 835.4c-3.4 0-6.3-2.4-7-5.8-12.1-66.3-24.6-134.9-28-172.8-3.3-37.2 1.7-47.1 9.3-57.1 2.4-3.1 6.8-3.7 9.9-1.4 3.1 2.4 3.7 6.8 1.4 9.9-4.9 6.5-9.5 12.6-6.5 47.3 3.3 37.3 15.8 105.5 27.8 171.6.7 3.9-1.9 7.5-5.7 8.3h-1.2z"></path></g></svg>