<svg xmlns="http://www.w3.org/2000/svg" xml:space="preserve" viewBox="0 0 1000 1000"><path fill="none" d="M0 0h1000v1000H0z"></path><g fill="#FFF"><path d="M775.9 893.9H224.1c-12.6 0-22.9-10.3-22.9-22.9V128.9c0-12.6 10.3-22.9 22.9-22.9h551.8c12.6 0 22.9 10.3 22.9 22.9v742.2c0 12.6-10.3 22.8-22.9 22.8zM224.1 120.2c-4.8 0-8.7 3.9-8.7 8.7v742.2c0 4.8 3.9 8.7 8.7 8.7h551.8c4.8 0 8.7-3.9 8.7-8.7V128.9c0-4.8-3.9-8.7-8.7-8.7H224.1z"></path><path d="M414.8 354.6H291.4c-5.8 0-10.6-4.8-10.6-10.6V220.6c0-5.9 4.8-10.6 10.6-10.6h123.4c5.8 0 10.6 4.8 10.6 10.6v11.1c0 3.9-3.2 7.1-7.1 7.1s-7.1-3.2-7.1-7.1v-7.6H295v116.3h116.3v-42.7c0-3.9 3.2-7.1 7.1-7.1s7.1 3.2 7.1 7.1V344c-.1 5.9-4.8 10.6-10.7 10.6zM703.6 227.7H501.3c-3.9 0-7.1-3.2-7.1-7.1s3.2-7.1 7.1-7.1h202.3c3.9 0 7.1 3.2 7.1 7.1s-3.2 7.1-7.1 7.1zM642.1 285.9H501.3c-3.9 0-7.1-3.2-7.1-7.1s3.2-7.1 7.1-7.1h140.9c3.9 0 7.1 3.2 7.1 7.1s-3.3 7.1-7.2 7.1zM678 344H501.3c-3.9 0-7.1-3.2-7.1-7.1s3.2-7.1 7.1-7.1H678c3.9 0 7.1 3.2 7.1 7.1s-3.2 7.1-7.1 7.1zM414.8 573.8H291.4c-5.9 0-10.6-4.8-10.6-10.6V439.7c0-5.8 4.8-10.6 10.6-10.6h123.4c5.8 0 10.6 4.8 10.6 10.6v123.4c0 5.9-4.8 10.7-10.6 10.7zM295 559.6h116.3V443.3H295v116.3zm119.8-116.3h.2-.2zM703.6 450.4H501.3c-3.9 0-7.1-3.2-7.1-7.1s3.2-7.1 7.1-7.1h202.3c3.9 0 7.1 3.2 7.1 7.1s-3.2 7.1-7.1 7.1zM642.1 508.5H501.3c-3.9 0-7.1-3.2-7.1-7.1s3.2-7.1 7.1-7.1h140.9c3.9 0 7.1 3.2 7.1 7.1s-3.3 7.1-7.2 7.1zM678 566.7H501.3c-3.9 0-7.1-3.2-7.1-7.1s3.2-7.1 7.1-7.1H678c3.9 0 7.1 3.2 7.1 7.1s-3.2 7.1-7.1 7.1zM414.8 792.8H291.4c-5.9 0-10.6-4.8-10.6-10.6V658.8c0-5.9 4.8-10.6 10.6-10.6h123.4c5.8 0 10.6 4.8 10.6 10.6v123.4c0 5.9-4.8 10.6-10.6 10.6zM295 778.7h116.3V662.4H295v116.3zm119.8-116.3h.2-.2zM703.6 673H501.3c-3.9 0-7.1-3.2-7.1-7.1s3.2-7.1 7.1-7.1h202.3c3.9 0 7.1 3.2 7.1 7.1s-3.2 7.1-7.1 7.1zM642.1 731.1H501.3c-3.9 0-7.1-3.2-7.1-7.1s3.2-7.1 7.1-7.1h140.9c3.9 0 7.1 3.2 7.1 7.1s-3.3 7.1-7.2 7.1zM678 789.3H501.3c-3.9 0-7.1-3.2-7.1-7.1s3.2-7.1 7.1-7.1H678c3.9 0 7.1 3.2 7.1 7.1s-3.2 7.1-7.1 7.1z"></path><path d="M356.9 326.4c-1.9 0-3.8-.8-5.2-2.3l-36.3-39.6c-2.6-2.9-2.5-7.4.4-10 2.9-2.6 7.4-2.5 10 .4l31.6 34.5 75.8-67.3c2.9-2.6 7.4-2.3 10 .6 2.6 2.9 2.3 7.4-.6 10l-81.1 71.9c-1.2 1.3-2.9 1.8-4.6 1.8z"></path></g></svg>