<svg xmlns="http://www.w3.org/2000/svg" xml:space="preserve" viewBox="0 0 1000 1000"><path fill="none" d="M0 0h1000v1000H0z"></path><g fill="#FFF"><path d="M447.6 812H144.8c-18 0-32.7-14.7-32.7-32.7V220.7c0-18 14.7-32.7 32.7-32.7h302.9c18 0 32.7 14.7 32.7 32.7v244.9c0 3.9-3.2 7.1-7.1 7.1s-7.1-3.2-7.1-7.1V220.7c0-10.2-8.3-18.5-18.5-18.5H144.8c-10.2 0-18.5 8.3-18.5 18.5v558.6c0 10.2 8.3 18.5 18.5 18.5h302.9c10.2 0 18.5-8.3 18.5-18.5V532.2c0-3.9 3.2-7.1 7.1-7.1s7.1 3.2 7.1 7.1v247.1c-.1 18-14.7 32.7-32.8 32.7zM855.3 812H552.4c-18 0-32.7-14.7-32.7-32.7v-247c0-3.9 3.2-7.1 7.1-7.1s7.1 3.2 7.1 7.1v247.1c0 10.2 8.3 18.5 18.5 18.5h302.9c10.2 0 18.5-8.3 18.5-18.5V220.7c0-10.2-8.3-18.5-18.5-18.5H552.4c-10.2 0-18.5 8.3-18.5 18.5v244.9c0 3.9-3.2 7.1-7.1 7.1s-7.1-3.2-7.1-7.1V220.7c0-18 14.7-32.7 32.7-32.7h302.9c18 0 32.7 14.7 32.7 32.7v558.6c-.1 18-14.7 32.7-32.7 32.7z"></path><path d="M118 667.8h355.2V682H118zM525.6 667.8h355.2V682H525.6zM118 293.9h355.2v14.2H118zM525.6 293.9h355.2v14.2H525.6zM349.4 256.7H243c-3.9 0-7.1-3.2-7.1-7.1s3.2-7.1 7.1-7.1h106.4c3.9 0 7.1 3.2 7.1 7.1s-3.2 7.1-7.1 7.1zM757 256.7H650.6c-3.9 0-7.1-3.2-7.1-7.1s3.2-7.1 7.1-7.1H757c3.9 0 7.1 3.2 7.1 7.1s-3.2 7.1-7.1 7.1zM296.2 771.9c-18.1 0-32.8-14.7-32.8-32.8 0-18.1 14.7-32.8 32.8-32.8 18.1 0 32.8 14.7 32.8 32.8 0 18.1-14.7 32.8-32.8 32.8zm0-51.4c-10.2 0-18.6 8.3-18.6 18.6 0 10.2 8.3 18.6 18.6 18.6s18.6-8.3 18.6-18.6c0-10.2-8.3-18.6-18.6-18.6zM703.8 771.9c-18.1 0-32.8-14.7-32.8-32.8 0-18.1 14.7-32.8 32.8-32.8s32.8 14.7 32.8 32.8c0 18.1-14.7 32.8-32.8 32.8zm0-51.4c-10.3 0-18.6 8.3-18.6 18.6 0 10.2 8.3 18.6 18.6 18.6s18.6-8.3 18.6-18.6c0-10.2-8.3-18.6-18.6-18.6zM731.4 507.3H303c-3.9 0-7.1-3.2-7.1-7.1s3.2-7.1 7.1-7.1h428.5c3.9 0 7.1 3.2 7.1 7.1s-3.3 7.1-7.2 7.1z"></path><path d="M623.9 599.2c-2 0-4-.8-5.4-2.5-2.6-3-2.2-7.4.8-10l105.9-90.5c2.9-2.6 7.4-2.2 10 .8 2.6 3 2.2 7.4-.8 10l-105.9 90.5c-1.3 1.1-3 1.7-4.6 1.7z"></path><path d="M729.8 505.5c-1.6 0-3.3-.6-4.6-1.7l-105.9-90.5c-3-2.5-3.3-7-.8-10 2.6-3 7-3.3 10-.8L734.4 493c3 2.5 3.3 7 .8 10-1.4 1.7-3.4 2.5-5.4 2.5z"></path></g></svg>