<svg width="100" height="80" fill="none" xmlns="http://www.w3.org/2000/svg"><path d="M.62 40.29c0 12.173 2.457 21.817 7.37 28.93 4.913 7.113 12.76 10.67 23.54 10.67 10.707 0 18.517-3.557 23.43-10.67 4.987-7.113 7.48-16.757 7.48-28.93 0-12.1-2.493-21.67-7.48-28.71C50.047 4.467 42.237.91 31.53.91 20.75.91 12.903 4.467 7.99 11.58 3.077 18.62.62 28.19.62 40.29zm43.12 0c0 6.967-.843 12.357-2.53 16.17-1.613 3.74-4.84 5.61-9.68 5.61-4.913 0-8.213-1.87-9.9-5.61-1.687-3.813-2.53-9.203-2.53-16.17 0-6.893.843-12.21 2.53-15.95 1.687-3.74 4.987-5.61 9.9-5.61 4.84 0 8.067 1.87 9.68 5.61 1.687 3.667 2.53 8.983 2.53 15.95zM68.001 19.83V2.23h31.46V80h-19.8V19.83h-11.66z" fill="#420F94"></path></svg>