<svg width="126" height="80" fill="none" xmlns="http://www.w3.org/2000/svg"><path d="M.62 40.29c0 12.173 2.457 21.817 7.37 28.93 4.913 7.113 12.76 10.67 23.54 10.67 10.707 0 18.517-3.557 23.43-10.67 4.987-7.113 7.48-16.757 7.48-28.93 0-12.1-2.493-21.67-7.48-28.71C50.047 4.467 42.237.91 31.53.91 20.75.91 12.903 4.467 7.99 11.58 3.077 18.62.62 28.19.62 40.29zm43.12 0c0 6.967-.843 12.357-2.53 16.17-1.613 3.74-4.84 5.61-9.68 5.61-4.913 0-8.213-1.87-9.9-5.61-1.687-3.813-2.53-9.203-2.53-16.17 0-6.893.843-12.21 2.53-15.95 1.687-3.74 4.987-5.61 9.9-5.61 4.84 0 8.067 1.87 9.68 5.61 1.687 3.667 2.53 8.983 2.53 15.95zM70.531 65.04c23.32-16.647 34.98-29.883 34.98-39.71 0-6.013-2.603-9.02-7.81-9.02-2.933 0-5.097 1.027-6.49 3.08-1.32 2.053-2.053 5.243-2.2 9.57h-18.37c.44-9.46 3.3-16.573 8.58-21.34C84.501 2.853 91.174.47 99.241.47c8.433 0 14.777 2.127 19.03 6.38 4.327 4.253 6.49 9.79 6.49 16.61 0 7.553-2.897 14.96-8.69 22.22-5.793 7.187-12.723 13.273-20.79 18.26h30.69v15.18h-55.44V65.04z" fill="#5B21BB"></path></svg>