<svg width="128" height="83" fill="none" xmlns="http://www.w3.org/2000/svg"><path d="M.62 42.29c0 12.173 2.457 21.817 7.37 28.93 4.913 7.113 12.76 10.67 23.54 10.67 10.707 0 18.517-3.557 23.43-10.67 4.987-7.113 7.48-16.757 7.48-28.93 0-12.1-2.493-21.67-7.48-28.71C50.047 6.467 42.237 2.91 31.53 2.91c-10.78 0-18.627 3.557-23.54 10.67C3.077 20.62.62 30.19.62 42.29zm43.12 0c0 6.967-.843 12.357-2.53 16.17-1.613 3.74-4.84 5.61-9.68 5.61-4.913 0-8.213-1.87-9.9-5.61-1.687-3.813-2.53-9.203-2.53-16.17 0-6.893.843-12.21 2.53-15.95 1.687-3.74 4.987-5.61 9.9-5.61 4.84 0 8.067 1.87 9.68 5.61 1.687 3.667 2.53 8.983 2.53 15.95zM100.011.82c5.427 0 10.083.953 13.97 2.86 3.887 1.833 6.82 4.4 8.8 7.7 2.053 3.227 3.08 6.893 3.08 11 0 5.06-1.32 9.13-3.96 12.21-2.567 3.08-5.793 5.023-9.68 5.83v.55c10.047 3.227 15.07 9.497 15.07 18.81 0 4.473-1.027 8.47-3.08 11.99-2.053 3.447-5.06 6.16-9.02 8.14-3.887 1.907-8.58 2.86-14.08 2.86-8.947 0-16.06-2.2-21.34-6.6-5.207-4.4-8.03-11.11-8.47-20.13h18.37c.147 3.447 1.1 6.16 2.86 8.14 1.76 1.98 4.327 2.97 7.7 2.97 2.713 0 4.84-.807 6.38-2.42 1.613-1.613 2.42-3.703 2.42-6.27 0-6.38-4.62-9.57-13.86-9.57h-3.52V33.6h3.41c8.287.147 12.43-2.823 12.43-8.91 0-2.64-.733-4.657-2.2-6.05-1.393-1.467-3.3-2.2-5.72-2.2-2.64 0-4.73.917-6.27 2.75-1.54 1.76-2.42 4.143-2.64 7.15h-18.37c.367-8.213 2.933-14.52 7.7-18.92 4.767-4.4 11.44-6.6 20.02-6.6z" fill="#7119FF"></path></svg>