<svg width="173" height="53" fill="#6820fd" xmlns="http://www.w3.org/2000/svg" viewBox="0 0 173 53"><path d="M106.912 40.95c-9.995 7.407-24.541 11.334-37.125 11.334-17.58 0-33.376-6.515-45.424-17.313-.892-.892-.09-1.963 1.071-1.339 12.94 7.586 28.914 12.048 45.424 12.048 11.066 0 23.382-2.32 34.626-7.14 1.696-.624 3.124 1.16 1.428 2.41z"></path><path d="M111.106 36.132c-1.249-1.607-8.478-.804-11.69-.357-.982.089-1.16-.714-.268-1.339 5.801-4.105 15.171-2.856 16.242-1.517 1.071 1.339-.268 10.798-5.711 15.26-.893.625-1.607.268-1.25-.624 1.25-2.945 4.016-9.728 2.677-11.423zM118.781 22.924c-3.034-1.696-6.604-2.142-9.995-2.142l9.103-13.03c.892-1.25 1.338-1.963 1.606-2.498V1.952c-.268-.536-1.249-1.071-1.249-1.071h-17.492c-.624 0-1.07.357-1.07.981v4.016c0 .536.535.982 1.16.982h9.995L99.326 22.21c-.713.981-.713 2.141-.713 2.677v3.659c0 .624.713 1.25 1.249.892 5.979-3.213 13.297-2.945 18.741-.09.714.358 1.249-.267 1.249-.892v-4.194c0 .179-.357-.982-1.071-1.338zM63.808 3.736C62.291 1.595 59.881.702 57.65.702c-3.123 0-6.068 1.607-7.317 5.087-1.428-3.48-3.57-5.087-6.872-5.087-3.213 0-5.712 1.607-6.961 5.087h-.09V1.862c-.088-.446-.445-.892-.98-.892h-5.177a.99.99 0 0 0-.982.982V29.26c.09.446.536.803.982.892h5.265v.268c.625 0 1.071-.446.893-.893V14.981c.178-3.213.089-7.586 3.926-7.586 3.749 0 3.302 4.552 3.213 7.586v14.546c.09.447 1.071 1.071 1.071 1.071h5.444a.99.99 0 0 0 .982-.981V15.07c0-1.606-.09-3.927.535-5.265.535-1.428 1.963-2.231 3.302-2.231 1.606 0 2.766.535 3.213 2.41.267 1.07.089 4.015.089 5.175v14.547c0 .446.446.892.981.982h5.177a.99.99 0 0 0 .981-.982V12.482c-.178-3.123.179-6.425-1.517-8.746zM134.4.434c-7.764 0-12.048 6.694-12.048 15.26 0 8.479 4.284 15.261 12.048 15.261 7.496 0 12.226-6.693 12.226-15.082 0-8.567-4.284-15.439-12.226-15.439zm-.09 24.899c-4.194 0-4.105-7.14-4.105-10.53 0-3.303.268-8.746 4.195-8.746 1.695 0 2.945.714 3.48 2.677.714 2.142.803 4.998.803 7.318 0 3.57-.267 9.281-4.373 9.281zm36.857-21.418c-1.517-2.32-3.837-3.213-6.247-3.213-3.659 0-5.711 1.785-7.228 5.533h-.089V1.773c-.09-.446-.536-.803-.982-.803h-5.087c-.535 0-.982.446-1.071.892V29.17c0 .447.446.893.982.982h5.444c.535 0 .981-.446 1.071-.982V14.356c0-1.874.089-3.48.803-5.176.624-1.338 1.785-2.142 3.034-2.142 3.659 0 3.302 4.373 3.302 7.407V29.35c.089.446.446.803.982.892l5.533.357c.535 0 .981-.357.981-.803V12.571c0-2.855 0-6.514-1.428-8.656zM95.221 25.244c-.981-1.339-1.963-2.499-1.963-4.909v-8.21c0-3.48.268-6.693-2.32-9.103C88.885 1.06 85.583.345 82.995.345c-4.997 0-10.62 1.874-11.78 8.121-.089.625.357.982.803 1.071l5.087.536c.446 0 .803-.447.893-.982.446-2.142 2.23-3.213 4.283-3.213 1.071 0 2.32.446 2.945 1.339.803 1.07.625 2.588.625 3.837v.625c-3.034.357-7.05.625-9.906 1.874-3.302 1.428-5.622 4.284-5.622 8.656 0 5.444 3.48 8.21 7.942 8.21 3.748 0 5.801-.892 8.657-3.837.981 1.339 1.338 2.053 3.034 3.57.446.268.892.179 1.25-.09 1.07-.892 3.034-2.587 4.105-3.48.356-.267.267-.803-.09-1.338zM84.78 23.013c-.892 1.517-2.142 2.41-3.659 2.41-2.052 0-3.302-1.607-3.302-3.927 0-4.552 4.105-5.444 7.943-5.444v1.16c0 2.142.089 3.927-.982 5.8zm-59.882 2.23c-.981-1.338-1.963-2.498-1.963-4.908v-8.21c0-3.48.268-6.693-2.32-9.103C18.562 1.06 15.26.345 12.672.345 7.675.345 2.052 2.22.892 8.466c-.089.625.357.982.804 1.071l5.086.536c.447 0 .804-.447.893-.982.446-2.142 2.23-3.213 4.283-3.213 1.071 0 2.32.446 2.945 1.339.804 1.07.625 2.588.625 3.837v.625c-3.034.357-7.05.625-9.906 1.874C2.32 14.981 0 17.837 0 22.209c0 5.444 3.48 8.21 7.943 8.21 3.748 0 5.8-.892 8.656-3.837.982 1.339 1.339 2.053 3.034 3.57.447.268.893.179 1.25-.09 1.07-.892 3.034-2.587 4.105-3.48.268-.267.268-.803-.09-1.338zm-10.44-2.23c-.893 1.517-2.143 2.41-3.66 2.41-2.052 0-3.302-1.607-3.302-3.927 0-4.552 4.105-5.444 7.943-5.444v1.16c-.09 2.142 0 3.927-.982 5.8z"></path></svg>