<svg width="167" height="58" fill="#6820fd" xmlns="http://www.w3.org/2000/svg" viewBox="0 0 167 58"><path d="M38.868 30.853c-.089-7.23 5.89-10.62 6.158-10.799-3.302-4.908-8.567-5.533-10.352-5.622-4.462-.446-8.657 2.588-10.888 2.588-2.23 0-5.711-2.499-9.37-2.499-4.82.09-9.281 2.767-11.78 7.14-4.998 8.656-1.25 21.596 3.57 28.646 2.41 3.48 5.265 7.318 9.013 7.229 3.57-.178 4.998-2.32 9.281-2.32 4.373 0 5.533 2.32 9.37 2.23 3.838-.088 6.337-3.48 8.657-6.96 2.767-4.016 3.838-7.853 3.927-8.121-.09 0-7.586-2.856-7.586-11.512zM31.64 9.792c1.963-2.41 3.302-5.712 2.945-9.103-2.856.09-6.337 1.874-8.389 4.284-1.874 2.141-3.48 5.533-3.034 8.745 3.302.357 6.514-1.517 8.478-3.926zm32.127 27.843L60.376 47.81h-3.927l10.71-31.592h4.907L82.865 47.81H78.76l-3.48-10.174H63.766zm10.53-2.856l-3.123-9.192c-.714-2.052-1.16-4.015-1.696-5.8h-.089a81.48 81.48 0 0 1-1.606 5.8l-3.124 9.282 9.638-.09zm11.87-2.32c0-2.945-.09-5.265-.179-7.407h3.66l.178 3.927c1.695-2.856 4.462-4.462 8.21-4.462 5.622 0 9.816 4.73 9.816 11.69 0 8.3-5.086 12.405-10.53 12.405-3.034 0-5.712-1.339-7.14-3.659h-.089V57.09h-3.926V32.46zm4.373 6.247c-.357.625-.268 1.16-.179 1.696.714 2.855 3.213 4.819 6.247 4.819 4.373 0 6.872-3.57 6.872-8.835 0-4.552-2.41-8.478-6.783-8.478-2.856 0-5.444 2.052-6.247 5.087-.178.535-.267 1.16-.357 1.695l.447 4.016zm21.328-6.247c0-2.945-.089-5.265-.178-7.407h3.659l.178 3.927h-.089c1.696-2.856 4.462-4.462 8.21-4.462 5.623 0 9.817 4.73 9.817 11.69 0 8.3-5.087 12.405-10.531 12.405-3.034 0-5.711-1.339-7.139-3.659h-.089V57.09h-3.927V32.46h.089zm4.373 6.247c-.267.625-.178 1.16-.089 1.696.714 2.855 3.213 4.819 6.247 4.819 4.373 0 6.872-3.57 6.872-8.835 0-4.552-2.41-8.478-6.783-8.478-2.856 0-5.444 2.052-6.247 5.087-.178.535-.267 1.16-.446 1.695l.446 4.016zm21.418-24.363h4.373v33.466h-4.373V14.343zm12.494 22.846c.089 5.622 3.659 7.943 7.764 7.943 2.945 0 4.73-.536 6.336-1.16l.714 2.944c-1.427.625-3.926 1.428-7.585 1.428-6.961 0-11.155-4.64-11.155-11.512 0-6.872 4.015-12.315 10.709-12.315 7.407 0 9.37 6.514 9.37 10.709 0 .892-.089 1.517-.178 1.963h-15.975zm12.137-2.945c.089-2.588-1.071-6.693-5.711-6.693-4.195 0-5.98 3.837-6.337 6.693h12.048z"></path></svg>