<svg width="68" height="68" viewBox="0 0 68 68" fill="none" xmlns="http://www.w3.org/2000/svg"><path fill-rule="evenodd" clip-rule="evenodd" d="M33.9999 57C32.343 57 30.9999 55.6569 30.9999 54L30.9999 51.2871C27.1927 50.7326 23.8341 49.0952 21.6572 46.3741C20.6222 45.0803 20.832 43.1924 22.1257 42.1574C23.4195 41.1224 25.3074 41.3321 26.3424 42.6259C27.2404 43.7483 28.8104 44.7245 30.9999 45.1972L30.9999 35.998C28.1201 35.3123 25.7954 34.1631 24.1286 32.4963C21.8836 30.2513 21.1751 27.4118 21.5231 24.6279C21.8797 21.7751 23.3454 19.3908 25.6673 17.7834C27.1914 16.7283 29.0057 16.0576 30.9999 15.7329L30.9999 13C30.9999 11.3431 32.343 10 33.9999 10C35.6567 10 36.9999 11.3431 36.9999 13L36.9999 15.7129C40.8071 16.2674 44.1657 17.9049 46.3425 20.6259C47.3775 21.9197 47.1678 23.8076 45.874 24.8426C44.5802 25.8776 42.6923 25.6679 41.6573 24.3741C40.7594 23.2517 39.1894 22.2755 36.9999 21.8028L36.9999 31.002C39.8797 31.6877 42.2044 32.8369 43.8712 34.5037C46.1162 36.7487 46.8246 39.5882 46.4767 42.3721C46.1201 45.2249 44.6543 47.6092 42.3325 49.2166C40.8083 50.2717 38.9941 50.9423 36.9999 51.2671L36.9999 54C36.9999 55.6569 35.6567 57 33.9999 57ZM36.9999 45.1377C37.7956 44.9201 38.4303 44.6205 38.9172 44.2834C39.8454 43.6408 40.3796 42.7751 40.523 41.6279C40.675 40.4118 40.3835 39.5013 39.6285 38.7463C39.1215 38.2393 38.295 37.6951 36.9999 37.2414L36.9999 45.1377ZM30.9999 29.7586L30.9999 21.8623C30.2042 22.0799 29.5694 22.3795 29.0825 22.7166C28.1544 23.3592 27.6201 24.2249 27.4767 25.3721C27.3247 26.5882 27.6162 27.4987 28.3712 28.2537C28.8783 28.7607 29.7048 29.3049 30.9999 29.7586Z" fill="white"></path></svg>