<svg width="68" height="68" viewBox="0 0 68 68" fill="none" xmlns="http://www.w3.org/2000/svg"><path d="M33.8445 40.1002C37.0528 40.1002 39.6537 37.4994 39.6537 34.2911C39.6537 31.0828 37.0528 28.4819 33.8445 28.4819C30.6362 28.4819 28.0354 31.0828 28.0354 34.2911C28.0354 37.4994 30.6362 40.1002 33.8445 40.1002Z" fill="white"></path><path d="M49.1634 32.8926C47.5897 32.8926 46.3269 31.6297 46.3269 30.056V24.344C46.3269 23.4309 45.5886 22.6731 44.656 22.6731H37.8366C36.2629 22.6731 35 21.4103 35 19.8366C35 18.2629 36.2629 17 37.8366 17H44.6754C48.7166 17 52 20.2834 52 24.3246V30.0366C52 31.6297 50.7372 32.8926 49.1634 32.8926Z" fill="white"></path><path d="M18.8366 32.8731C17.2629 32.8731 16 31.6103 16 30.0366V24.3246C16 20.2834 19.2834 17 23.3246 17H30.1634C31.7371 17 33 18.2629 33 19.8366C33 21.4103 31.7371 22.6731 30.1634 22.6731H23.3246C22.4114 22.6731 21.6537 23.4114 21.6537 24.344V30.056C21.6731 31.6103 20.3908 32.8731 18.8366 32.8731Z" fill="white"></path><path d="M44.6754 50.8926H37.8366C36.2629 50.8926 35 49.6297 35 48.056C35 46.4823 36.2629 45.2194 37.8366 45.2194H44.6754C45.5886 45.2194 46.3463 44.4811 46.3463 43.5486V37.8366C46.3463 36.2629 47.6092 35 49.1829 35C50.7566 35 52.0194 36.2629 52.0194 37.8366V43.5486C52 47.6091 48.7166 50.8926 44.6754 50.8926Z" fill="white"></path><path d="M30.1634 50.8731H23.3246C19.2834 50.8731 16 47.5897 16 43.5486V37.8366C16 36.2629 17.2629 35 18.8366 35C20.4103 35 21.6732 36.2629 21.6732 37.8366V43.5486C21.6732 44.4617 22.4114 45.2194 23.344 45.2194H30.1829C31.7566 45.2194 33.0194 46.4823 33.0194 48.056C33.0194 49.6297 31.7371 50.8731 30.1634 50.8731Z" fill="white"></path></svg>