<svg width="144" height="58" fill="#8f8db4" xmlns="http://www.w3.org/2000/svg" viewBox="0 0 144 58"><path d="M0 0v3.834h28.064V0H0zm31.898 0v3.834h38.645S66.556 0 61.342 0H31.898zM79.59 0v3.834h23.463L101.674 0H79.591zm42.479 0l-1.38 3.834h23.157V0H122.07zM0 7.668v3.834h28.064V7.668H0zm31.898 0v3.834h43.246s-.46-2.914-1.38-3.834H31.898zm47.693 0v3.834h26.07l-1.226-3.834H79.591zm39.719 0l-1.227 3.834H144V7.668h-24.69zM7.668 15.335v3.834h12.115v-3.834H7.668zm32.51 0v3.834h12.116v-3.834H40.179zm23.464 0v3.834h11.809s.766-1.993.766-3.834H63.642zm24.23 0v3.834h20.856l-1.38-3.834H87.872zm28.217 0l-1.38 3.834h21.01v-3.834h-19.63zM7.668 23.003v3.834h12.115v-3.834H7.668zm32.51 0v3.834h30.058s2.454-1.994 3.374-3.834H40.18zm47.694 0v3.834h12.115v-2.3l.767 2.147h21.93l.766-2.147v2.147h12.729v-3.68h-23.003l-1.227 3.22-1.074-3.22H87.872zM7.668 30.518v3.833h12.115v-3.833H7.668zm32.51 0v3.833H73.61c-.766-1.84-3.374-3.833-3.374-3.833H40.18zm47.694 0v3.833h12.115v-3.833H87.872zm14.569 0l1.38 3.833h16.102l1.381-3.833h-18.863zm21.163 0v3.833h12.115v-3.833h-12.115zM7.668 38.185v3.834h12.115v-3.834H7.668zm32.51 0v3.834h12.116v-3.834H40.179zm23.464 0v3.834h12.575c0-1.84-.766-3.834-.766-3.834H63.642zm24.23 0v3.834h12.115v-3.834H87.872zm17.329 0l1.38 3.834h10.889l1.38-3.834h-13.649zm18.403 0v3.834h12.115v-3.834h-12.115zM0 46.467V50.3h28.064v-3.833H0zm31.898 0V50.3H73.61c.92-.92 1.38-3.833 1.38-3.833H31.898zm48.306 0V50.3h19.783v-3.833H80.205zm27.604 0l1.38 3.833h5.521l1.38-3.833h-8.281zm15.796 0V50.3H144v-3.833h-20.396zM0 54.134v3.834h28.064v-3.834H0zm31.898 0v3.834h29.597c5.214 0 9.202-3.834 9.202-3.834h-38.8zm48.306 0v3.834h19.783v-3.834H80.205zm30.211-.613l1.381 3.987h.306l1.38-3.987h-3.067zm13.189.613v3.834H144v-3.834h-20.396z"></path></svg>