<svg width="135" height="89" fill="#8f8db4" xmlns="http://www.w3.org/2000/svg" viewBox="0 0 135 89"><path d="M63.977 78.694c-26.505 2.41-54.08-1.428-57.918-22.043-1.874-10.174 2.766-20.972 8.924-27.754v-3.57C3.917 35.054-2.15 47.37 1.33 61.917c4.462 18.65 28.111 29.27 64.254 25.701 14.28-1.428 33.02-5.98 46.049-13.119V64.326c-11.869 7.05-31.413 12.85-47.655 14.368zm69.609-53.635C127.339-5.55 67.904-7.514 29.53 15.867v2.588c38.284-19.722 92.544-19.544 97.541 8.657 1.696 9.37-3.569 19.008-13.029 24.63v7.319c11.334-4.195 22.935-17.67 19.544-34.002z"></path><path d="M109.401 20.419h-6.961v30.878c0 3.658 1.785 6.782 6.961 7.317V20.42zM26.674 31.753h-6.961V51.92c0 3.66 1.785 6.783 6.96 7.318V31.753zM19.713 21.49h6.96v6.604h-6.96V21.49zM68.35 58.97c-5.622 0-8.032-3.926-8.032-7.764V24.435h6.96v7.318h5.088v5.532h-5.087V50.85c0 1.607.714 2.499 2.32 2.499h2.767v5.89H68.35v-.268zM80.933 47.46c0 3.48 2.231 6.069 6.068 6.069 3.035 0 4.552-.804 6.337-2.588l4.283 4.015c-2.766 2.678-5.622 4.373-10.62 4.373-6.604 0-12.85-3.57-12.85-14.1 0-8.924 5.533-14.011 12.761-14.011 7.318 0 11.602 5.89 11.602 13.743v2.5h-17.67.089zm5.622-10.53c-2.32 0-4.194 1.249-4.908 2.855-.446.982-.625 1.785-.625 2.945h10.53c-.088-2.945-1.427-5.8-4.997-5.8zm-41.14.356c1.963 0 2.855.982 2.855 2.589v19.008h6.961V39.874c0-3.838-2.052-8.122-8.12-8.122H32.92v27.13h6.96V37.286h5.534zm71.483-11.244a2.78 2.78 0 0 1-2.767-2.767 2.78 2.78 0 0 1 2.767-2.766 2.78 2.78 0 0 1 2.766 2.766c0 1.607-1.249 2.767-2.766 2.767zm0-4.998c-1.25 0-2.231 1.071-2.231 2.32 0 1.25.981 2.321 2.231 2.321 1.249 0 2.32-.982 2.32-2.32-.089-1.339-1.071-2.32-2.32-2.32zm1.249 4.105h-.535l-.09-.267-.714-1.16s-.089-.09-.089 0h-.357v1.16c0 .09-.089.357-.089.357h-.536c-.089 0-.089-.09-.089-.09v-2.945c0-.178.089-.267.179-.267h.892c.893 0 1.428.267 1.428 1.07v.09c0 .535-.268.803-.625.892l.803 1.25v.089c-.089-.179-.089-.179-.178-.179zm-.714-2.498c0-.357-.178-.447-.625-.447h-.446v.982h.446c.357 0 .625-.089.625-.535z"></path></svg>