<svg width="172" height="37" fill="#6820fd" xmlns="http://www.w3.org/2000/svg" viewBox="0 0 172 37"><path d="M171.975 17.226V14.37h-3.837V9.73h-.09l-3.658 1.07h-.09v3.57l-5.265-.446v-1.963c0-.893.179-1.607.625-2.142.446-.446 1.071-.714 1.785-.714.535 0 1.16.09 1.695.357l.179.09V6.427h-.09c-.535-.179-1.249-.268-2.141-.268a6.62 6.62 0 0 0-3.035.714c-.892.446-1.606 1.16-2.141 2.052-.536.893-.714 1.874-.714 3.035v2.32h-2.41v2.856h2.41V29.54h3.837V17.137h5.265v8.12c0 3.303 1.607 4.998 4.819 4.998.536 0 1.071-.089 1.607-.178.535-.09.981-.268 1.16-.357h.089v-3.48l-.178.089c-.179.089-.447.267-.804.357-.267.089-.535.089-.713.089-.714 0-1.25-.179-1.607-.536-.357-.357-.535-.981-.535-1.963v-7.05h3.837zm-27.754 9.906c-1.339 0-2.41-.446-3.213-1.339-.803-.892-1.16-2.142-1.16-3.748 0-1.696.357-2.945 1.16-3.837.714-.893 1.785-1.34 3.124-1.34 1.338 0 2.32.447 3.034 1.34.714.892 1.16 2.141 1.16 3.837 0 1.696-.357 3.034-1.071 3.927-.625.714-1.606 1.16-3.034 1.16zm.178-13.387c-2.588 0-4.64.804-6.157 2.232-1.428 1.517-2.231 3.57-2.231 6.157 0 2.499.713 4.462 2.141 5.89s3.392 2.142 5.801 2.142c2.499 0 4.551-.803 5.979-2.32s2.231-3.57 2.231-6.069c0-2.498-.714-4.462-2.052-5.89-1.339-1.428-3.213-2.142-5.712-2.142zm-14.278 0c-1.785 0-3.213.447-4.284 1.34-1.16.891-1.696 2.052-1.696 3.48 0 .713.09 1.427.357 1.963.268.535.625 1.07 1.071 1.428.536.446 1.25.803 2.231 1.25.893.356 1.517.624 1.874.892.357.267.714.446.804.713.178.179.267.536.267.893 0 1.07-.803 1.606-2.409 1.606-.714 0-1.607-.178-2.499-.535-.536-.179-1.16-.536-1.606-.893l-.179-.089v3.57h.089c.536.268 1.16.446 1.964.625.803.178 1.517.267 2.141.267 1.875 0 3.481-.446 4.552-1.338 1.16-.893 1.695-2.053 1.695-3.57 0-1.071-.267-1.963-.892-2.677s-1.606-1.428-3.123-1.964c-1.161-.446-1.875-.892-2.232-1.16-.267-.267-.446-.714-.446-1.25 0-.445.179-.802.536-1.16.357-.267.892-.445 1.606-.445.625 0 1.249.089 1.874.267.625.179 1.16.446 1.607.803l.178.09v-3.392h-.089a6.595 6.595 0 0 0-1.696-.446 5.6 5.6 0 0 0-1.695-.268zm-15.886 13.387c-1.338 0-2.409-.446-3.212-1.339-.803-.892-1.16-2.142-1.16-3.748 0-1.696.357-2.945 1.16-3.837.714-.893 1.785-1.34 3.123-1.34 1.339 0 2.321.447 3.034 1.34.714.892 1.161 2.141 1.161 3.837 0 1.696-.357 3.034-1.071 3.927-.625.714-1.607 1.16-3.035 1.16zm.179-13.387c-2.588 0-4.641.804-6.158 2.232-1.428 1.517-2.231 3.57-2.231 6.157 0 2.499.714 4.462 2.142 5.89s3.391 2.142 5.801 2.142c2.499 0 4.551-.803 5.979-2.32s2.231-3.57 2.231-6.069c0-2.498-.714-4.462-2.053-5.89-1.338-1.428-3.301-2.142-5.711-2.142zm-13.743 3.035v-2.856h-3.838V29.72h3.838v-8.032c0-1.339.267-2.499.892-3.302.625-.803 1.339-1.25 2.32-1.25.357 0 .714.09 1.071.18.357.088.625.267.803.356l.179.09v-3.749h-.089c-.357-.178-.803-.178-1.428-.178-.893 0-1.696.267-2.41.892-.535.446-.981 1.16-1.338 2.053zm-10.53-3.035c-1.697 0-3.214.357-4.463 1.071-1.25.714-2.32 1.785-2.945 3.035-.714 1.338-.982 2.855-.982 4.551 0 1.517.357 2.856.982 4.016a6.88 6.88 0 0 0 2.766 2.766c1.16.625 2.5.982 4.016.982 1.785 0 3.302-.357 4.463-1.07h.089v-3.392l-.179.09a11.43 11.43 0 0 1-1.785.98 4.539 4.539 0 0 1-1.784.358c-1.428 0-2.588-.446-3.48-1.339-.893-.892-1.25-2.142-1.25-3.748 0-1.606.446-2.856 1.338-3.837.893-.982 2.053-1.428 3.48-1.428 1.25 0 2.41.446 3.481 1.25l.179.088v-3.57h-.09c-.446-.267-.981-.446-1.695-.535-.803-.178-1.517-.268-2.142-.268zm-10.978.179h-3.837V29.72h3.837V13.924zM77.2 7.409c-.625 0-1.16.179-1.606.625-.447.446-.625.892-.625 1.517 0 .625.178 1.071.625 1.517.446.357.981.625 1.606.625.625 0 1.16-.179 1.606-.625.447-.446.625-.892.625-1.517 0-.625-.178-1.07-.625-1.517-.357-.446-.981-.625-1.606-.625zm-9.103 5.533V29.72h3.838V7.677h-5.266l-6.693 16.331-6.514-16.331h-5.444V29.72h3.391V12.942h.09l6.425 16.778h3.48l6.604-16.778h.09zM17.854 17.761H.63V.538h17.224V17.76zM37.04 17.761H19.818V.538h17.224V17.76zM17.854 36.86H.63V19.635h17.224v17.223zM37.04 36.86H19.818V19.635h17.224v17.223z"></path></svg>