<svg width="144" height="75" fill="#8f8db4" xmlns="http://www.w3.org/2000/svg" viewBox="0 0 144 75"><path d="M122.933 62.603v11.731h2.872v-7.78h13.646v7.78h3.95v-11.73h-20.468zm2.872-3.83h14.245c2.035-.359 3.471-2.155 3.95-3.95h-22.384c.359 1.676 1.915 3.471 3.95 3.95h.239zm-13.406 15.561c1.915-.838 2.993-2.274 3.352-3.95H98.514V55.781h-3.95v18.553h17.835zm-44.05-15.56h12.33l3.95-2.874h-20.23v10.773h16.638v3.95H66.793c-2.274.599-4.07 2.035-5.027 3.95h23.221v-11.73H68.35v-4.07zm-32.2 0h14.125c2.035-.36 3.472-2.156 3.95-3.951H31.721c.359 1.676 1.915 3.471 3.95 3.95h.479zm0 7.78h14.125c2.035-.36 3.472-2.155 3.95-3.95H31.721c.359 1.675 1.915 3.47 3.95 3.95h.479zm0 7.78h14.125c2.035-.359 3.472-2.154 3.95-3.95H31.721c.359 1.676 1.915 3.471 3.95 3.95h.479zM0 54.823c.36 1.676 1.796 3.471 3.71 3.83h5.746l.36.12v14.484h3.95V58.773l.359-.12h5.626c1.915-.478 3.351-2.154 3.71-3.83H0zM71.82 45.127l6.345-35.67c5.985 0 7.9.718 8.259 3.351 0 0 4.07-1.556 6.105-4.549-8.02-3.71-16.04-3.83-16.04-3.83l-4.669 5.746-4.668-5.746s-8.02.12-16.04 3.83c2.035 3.113 6.105 4.549 6.105 4.549.24-2.753 2.155-3.352 8.14-3.352l6.463 35.671z" fill="var(--logo-color)"></path><path d="M71.82 2.753c6.464 0 13.766.958 21.427 4.31.957-1.796 1.317-2.634 1.317-2.634C86.184 1.197 78.524 0 71.82 0c-6.703 0-14.364 1.197-22.623 4.429 0 0 .36.958 1.317 2.633 7.421-3.351 14.843-4.309 21.306-4.309z"></path></svg>