<svg xmlns="http://www.w3.org/2000/svg" width="30" height="30" fill-rule="evenodd" image-rendering="optimizeQuality" shape-rendering="geometricPrecision" viewBox="0 0 1.62 1.62"><path fill="#24d67e" fill-rule="nonzero" d="M.35.28h.29C.66.28.68.29.7.31c.02.01.03.03.03.06v.29C.73.68.72.7.7.72S.66.75.64.75H.35C.33.75.3.74.29.72.27.7.26.68.26.66V.37C.26.34.27.32.29.31.3.29.33.28.35.28zm.29.08h-.3v.3l.3.01.01-.01v-.3H.64zM.35.88h.29C.66.88.68.89.7.9c.02.02.03.04.03.07v.28c0 .03-.01.05-.03.07-.02.01-.04.02-.06.02H.35c-.02 0-.05-.01-.06-.02l-.01-.01C.27 1.3.26 1.28.26 1.25V.97C.26.94.27.92.29.9.3.89.33.88.35.88zm.29.07H.35l-.01.31.01.01h.29l.01-.3V.96L.64.95zM.98.28h.29c.03 0 .05.01.06.03.02.01.03.03.03.06v.29c0 .02-.01.04-.03.06-.01.02-.03.03-.06.03H.98C.96.75.94.74.92.72S.89.68.89.66V.37C.89.34.9.32.92.31.94.29.96.28.98.28zm.29.08H.98l-.01.3h.01v.01h.29l.01-.3V.36h-.01zM.98.88h.29c.03 0 .05.01.06.02.02.02.03.04.03.07v.28c0 .03-.01.05-.03.07-.01.01-.03.02-.06.02H.98c-.02 0-.04-.01-.06-.02a.09.09 0 0 1-.03-.07V.97C.89.94.9.92.92.9.94.89.96.88.98.88zm.29.07H.98v.01l-.01.29.01.02h.29l.01-.01v-.3z"></path></svg>