<svg xmlns="http://www.w3.org/2000/svg" width="81" height="81" fill="none" viewBox="0 0 81 81">
<circle cx="40.5" cy="40.5" r="40" stroke="#E0E3EB"></circle>
<path fill="#3ECF8E" fill-rule="evenodd" d="M47.263 28.982c0 2.14-.595 4.042-1.783 5.706-1.784 2.734-4.874 4.399-8.322 4.399-3.447 0-6.538-1.784-8.321-4.399-1.07-1.664-1.783-3.566-1.783-5.706 0-.594 0-1.189.119-1.783.832-4.755 4.992-8.321 9.985-8.321 4.993 0 9.154 3.566 9.986 8.321.119.594.119 1.189.119 1.783ZM44.9 63.145a11.054 11.054 0 0 1-1.448-5.487c0-5.605 4.152-10.24 9.548-10.997a9.772 9.772 0 0 0-4.152-3.13c-1.08-.357-2.158-.595-3.357-.595H29.908c-1.2 0-2.278.238-3.357.594-3.716 1.427-6.233 4.874-6.233 8.916v6.063c0 .356 0 .713.12 1.07.479 2.02 2.397 3.566 4.555 3.566H44.9Z" clip-rule="evenodd"></path><g clip-path="url(#icon-step2_svg__a)"><path fill="#9FE7C7" fill-rule="evenodd" d="M63.399 63.778A9.5 9.5 0 1 0 47.6 53.222 9.5 9.5 0 0 0 63.4 63.778ZM53.092 52c-.901 0-1.539.655-1.684 1.394-.154.788.232 1.617 1.133 2.069.476.239 1.077.283 1.554.298h2.81c.477-.015 1.078-.06 1.554-.298.901-.452 1.287-1.281 1.133-2.07-.145-.738-.783-1.393-1.684-1.393-.866 0-1.561.417-2.047.973a3.693 3.693 0 0 0-.361.483 3.693 3.693 0 0 0-.36-.483c-.487-.556-1.182-.973-2.048-.973Zm1.981 2.893c0-.578-.307-1.042-.571-1.343-.359-.41-.836-.682-1.41-.682a.852.852 0 0 0-.847.695c-.07.36.08.823.673 1.121.291.146.717.194 1.197.21l.958-.001Zm1.425-1.343c-.264.301-.571.765-.571 1.343h.958c.48-.015.906-.063 1.197-.209.594-.297.743-.76.673-1.12a.852.852 0 0 0-.847-.696c-.574 0-1.051.272-1.41.682Zm-5.45 2.57c-.579 0-1.048.427-1.048.955v.477c0 .528.469.956 1.048.956h3.666v-2.389h-3.666ZM54.714 64v-5.015h-4.19v3.761c0 .693.615 1.254 1.375 1.254H59.1c.76 0 1.375-.561 1.375-1.254v-3.76h-4.19V64h-1.572Zm1.572-5.492h3.666c.577 0 1.044-.425 1.048-.95v-.483c0-.528-.469-.956-1.048-.956h-3.666v2.389Z" clip-rule="evenodd"></path></g><path fill="#9FE7C7" fill-rule="evenodd" d="M59.5 27c.898 0 1.625.672 1.625 1.5V32h3.25c.897 0 1.625.672 1.625 1.5s-.728 1.5-1.625 1.5h-3.25v3.5c0 .828-.727 1.5-1.625 1.5s-1.625-.672-1.625-1.5V35h-3.25C53.727 35 53 34.328 53 33.5s.727-1.5 1.625-1.5h3.25v-3.5c0-.828.727-1.5 1.625-1.5Z" clip-rule="evenodd"></path><defs><clipPath id="icon-step2_svg__a"><path fill="#fff" d="M46 49h19v19H46z"></path></clipPath></defs></svg>