<svg xmlns="http://www.w3.org/2000/svg" xml:space="preserve" viewBox="0 0 1000 1000"><path fill="none" d="M0 0h1000v1000H0z"></path><g fill="#00AFB2"><path d="M455.7 916c-110.3 0-220.8-76.8-274.4-198.3-69.3-157.3-17.5-333 115.6-391.6 57.1-25.2 122.9-25.6 185.6-1.2 53.6-30 111.7-39.3 168-26.9 142 31.3 227.4 193.3 190.5 361.1-36.7 167-181.2 278-322.5 248.2-20.7 5.9-41.8 8.7-62.8 8.7zm-66.6-594.9c-30 0-59.3 6-86.5 18C176.8 394.6 128.2 561.8 194.3 712c61.2 138.9 199.5 216.8 321.9 181.2 1.1-.3 2.4-.4 3.5-.1 134.4 29.5 272.1-77 307.3-237 35.3-160.2-45.3-314.6-179.7-344.2-53.9-11.8-109.6-2.5-160.9 27.1-1.9 1.1-4.2 1.3-6.2.4-30-12.2-60.9-18.3-91.1-18.3z"></path><path d="M485.7 334.8c-3.2 0-6.1-2.1-6.9-5.3-9.9-38.4-20.1-78.2-37.5-100.9-16.8-22.1-41.2-29.5-66.9-37.3-3.7-1.1-5.9-5.1-4.7-8.9 1.1-3.7 5.1-6 8.9-4.7 26.8 8.1 54.5 16.6 74.1 42.3 19.1 25 29.7 66.2 39.9 106 1 3.8-1.3 7.7-5.1 8.7-.6 0-1.2.1-1.8.1zM510.6 291c-1.2 0-2.4-.2-3.6-.6-6.4-1.9-8.5-8.4-9.1-10.5-4.4-13.7-4.1-46.1 10.2-75.1 13.5-27.4 40.7-52.9 74.4-69.9 27.3-13.8 58.4-21.7 83.3-28l12.8-3.3c26.9-7.1 45.5-13.6 55.5-17.1 7.2-2.5 12.4-4.3 15.7 1.1 3.4 5.6.7 8.1-12 19.9-13.3 12.3-40.9 37.9-78.2 69.3-36.5 30.8-82.5 67.5-110 89.4-21.6 17.2-31.1 24.8-39 24.8zm1.6-13.5h.2-.2zm204.9-170.3c-9.5 3-21.2 6.5-34.9 10.1l-12.9 3.3c-25.5 6.5-54.5 13.9-80.4 26.9-31.1 15.7-55.9 38.9-68.1 63.5-12.9 26.1-12.5 54.9-9.4 64.5.1.3.2.6.3.8 4.5-1.8 15.3-10.4 27.7-20.2 28.7-22.9 74.7-59.5 111.1-90.3 28.6-24.1 51.5-44.8 66.6-58.6zM410.8 590.8c-35.3 0-64-28.7-64-64v-35.7c0-35.3 28.7-64 64-64s64 28.7 64 64v35.7c.1 35.3-28.7 64-64 64zm0-149.5c-27.5 0-49.8 22.3-49.8 49.8v35.7c0 27.5 22.3 49.8 49.8 49.8 27.5 0 49.8-22.3 49.8-49.8v-35.7c0-27.4-22.3-49.8-49.8-49.8zM589.1 781.5c-35.3 0-64-28.7-64-64v-35.7c0-35.3 28.7-64 64-64s64 28.7 64 64v35.7c.1 35.3-28.7 64-64 64zm0-149.5c-27.5 0-49.8 22.3-49.8 49.8v35.7c0 27.5 22.3 49.8 49.8 49.8s49.8-22.3 49.8-49.8v-35.7c.1-27.5-22.3-49.8-49.8-49.8zM414.3 751.3c-1.3 0-2.6-.3-3.7-1.1-3.4-2.1-4.4-6.4-2.3-9.8l166-268.8c2.1-3.3 6.5-4.4 9.8-2.3 3.4 2.1 4.4 6.4 2.3 9.8l-166 268.8c-1.4 2.2-3.8 3.4-6.1 3.4z"></path></g></svg>