<svg xmlns="http://www.w3.org/2000/svg" width="30" height="30" fill-rule="evenodd" image-rendering="optimizeQuality" shape-rendering="geometricPrecision" viewBox="0 0 5.45 5.45"><g fill="#ff5630" fill-rule="nonzero"><path d="M2.73 4.56a1.83 1.83 0 0 0 1.29-.54 1.83 1.83 0 0 0 .54-1.29c0-.5-.2-.97-.54-1.3A1.82 1.82 0 0 0 2.73.9c-.5 0-.97.2-1.3.53s-.53.8-.53 1.3a1.82 1.82 0 0 0 .53 1.29c.33.33.8.54 1.3.54zM4.2 4.2a2.063 2.063 0 0 1-2.95 0c-.38-.37-.6-.9-.6-1.47 0-.58.23-1.1.6-1.48s.9-.6 1.48-.6c.57 0 1.1.23 1.47.6a2.063 2.063 0 0 1 0 2.95z"></path><path d="M4 1.26a.14.14 0 0 1 .19 0c.05.05.05.13 0 .18L1.44 4.2c-.05.05-.13.05-.18 0a.14.14 0 0 1 0-.19L4 1.26z"></path><path d="M1.26 1.44a.127.127 0 0 1 0-.18c.05-.05.13-.05.18 0L4.2 4a.14.14 0 0 1 0 .19.14.14 0 0 1-.19 0L1.26 1.44z"></path></g><circle cx="2.73" cy="2.73" r="0.99" fill="#fff"></circle><path fill="#ff5630" fill-rule="nonzero" d="M2.73 3.58c.23 0 .45-.1.6-.25a.846.846 0 0 0 0-1.2.822.822 0 0 0-.6-.25c-.24 0-.45.1-.6.25s-.25.37-.25.6c0 .23.1.45.25.6.16.16.37.25.6.25zm.8-.06c-.2.2-.48.32-.8.32a1.11 1.11 0 0 1-.79-1.9 1.08 1.08 0 0 1 .79-.33 1.11 1.11 0 0 1 1.11 1.12c0 .3-.12.58-.32.8z"></path></svg>