<?xml version="1.0" encoding="utf-8"?>
<!-- Generator: Adobe Illustrator 19.2.1, SVG Export Plug-In . SVG Version: 6.00 Build 0)  -->
<svg version="1.1" id="Слой_1" xmlns="http://www.w3.org/2000/svg" xmlns:xlink="http://www.w3.org/1999/xlink" x="0px" y="0px"
	 viewBox="0 0 1980 130" enable-background="new 0 0 1980 130" xml:space="preserve">
<g>
	<defs>
		<rect id="SVGID_1_" x="1.2" y="1" width="1980" height="130"/>
	</defs>
	<clipPath id="SVGID_2_">
		<use xlink:href="#SVGID_1_"  overflow="visible"/>
	</clipPath>
	<linearGradient id="SVGID_3_" gradientUnits="userSpaceOnUse" x1="29.7965" y1="343.179" x2="1948.5193" y2="-355.179">
		<stop  offset="0" style="stop-color:#054B9C"/>
		<stop  offset="0.5074" style="stop-color:#3F8B6A"/>
		<stop  offset="1" style="stop-color:#68A4C7"/>
	</linearGradient>
	<linearGradient id="SVGID_4_" gradientUnits="userSpaceOnUse" x1="-1.3421" y1="-6" x2="1979.6578" y2="-6">
		<stop  offset="0" style="stop-color:#FFFFFF"/>
		<stop  offset="1" style="stop-color:#000000"/>
	</linearGradient>

		<rect x="-0.8" y="-271" clip-path="url(#SVGID_2_)" fill="url(#SVGID_3_)" stroke="url(#SVGID_4_)" stroke-miterlimit="10" width="1980" height="530"/>
	<path opacity="7.000000e-002" clip-path="url(#SVGID_2_)" fill="#FFFFFF" d="M902.4-28.2L-94,157c-2.7,0.5-5.3-1.3-5.8-4
		L-174-245.8c-0.5-2.7,1.3-5.3,4-5.8l996.4-185.3c2.7-0.5,5.3,1.3,5.8,4l74.2,398.8C906.9-31.4,905.2-28.7,902.4-28.2z"/>
	<path opacity="7.000000e-002" clip-path="url(#SVGID_2_)" fill="#FFFFFF" d="M1656.4,89.8L660,275c-2.7,0.5-5.3-1.3-5.8-4
		L580-127.8c-0.5-2.7,1.3-5.3,4-5.8l996.4-185.3c2.7-0.5,5.3,1.3,5.8,4l74.2,398.8C1660.9,86.6,1659.2,89.3,1656.4,89.8z"/>
	<path opacity="7.000000e-002" clip-path="url(#SVGID_2_)" fill="#FFFFFF" d="M2826.4,89.8L1830,275c-2.7,0.5-5.3-1.3-5.8-4
		L1750-127.8c-0.5-2.7,1.3-5.3,4-5.8l996.4-185.3c2.7-0.5,5.3,1.3,5.8,4l74.2,398.8C2830.9,86.6,2829.2,89.3,2826.4,89.8z"/>
	<path opacity="7.000000e-002" clip-path="url(#SVGID_2_)" fill="#FFFFFF" d="M1412.4,431.8L416,617c-2.7,0.5-5.3-1.3-5.8-4
		L336,214.2c-0.5-2.7,1.3-5.3,4-5.8l996.4-185.3c2.7-0.5,5.3,1.3,5.8,4l74.2,398.8C1416.9,428.6,1415.2,431.3,1412.4,431.8z"/>
</g>
</svg>
