<svg xmlns="http://www.w3.org/2000/svg" width="30" height="30" fill="#6485f9" image-rendering="optimizeQuality" shape-rendering="geometricPrecision" viewBox="0 0 2.85 2.85"><path d="M.84 1.38c.03-.02.08-.01.09.03.02.03.01.07-.02.09l-.37.23.88.55.89-.55-.38-.24c-.04-.02-.04-.06-.02-.1.02-.03.06-.04.09-.02l.47.3c.01.01.02.02.03.02.01.04.01.08-.03.1l-1.01.63c-.02.01-.05.01-.07 0L.37 1.79l-.02-.02c-.02-.04-.01-.08.02-.1l.47-.29z"></path><path d="m1.42 1.66.89-.54-.89-.55-.88.55.88.54zm1.05-.49-1.01.63c-.02.01-.05.01-.07 0L.37 1.17c-.01 0-.01-.01-.02-.02a.065.065 0 0 1 .02-.09L1.39.43c.02-.01.05-.01.07 0l1.01.63c.01 0 .02.01.03.02.01.03 0 .07-.03.09z"></path></svg>