<svg xmlns="http://www.w3.org/2000/svg" width="1000" height="753" xmlns:xlink="http://www.w3.org/1999/xlink" shape-rendering="geometricPrecision" text-rendering="geometricPrecision" image-rendering="optimizeQuality" fill-rule="evenodd" clip-rule="evenodd"><defs><clipPath id="b"><path d="M2 0h996c1 0 2 1 2 2v749c0 1-1 2-1 2H1s-1-1-1-2V2c0-1 1-2 2-2z"/></clipPath><linearGradient id="a" gradientUnits="userSpaceOnUse" x1="1154.58" y1="-1039.4" x2="201.148" y2="1151.83"><stop offset="0" stop-color="#fcfcfc"/><stop offset="1" stop-color="#d4d4d4"/></linearGradient><linearGradient id="c" gradientUnits="userSpaceOnUse" xlink:href="#a" x1="2089.44" y1="-668.798" x2="-305.492" y2="771.982"/><linearGradient id="d" gradientUnits="userSpaceOnUse" xlink:href="#a" x1="2120.6" y1="-570.35" x2="-96.576" y2="703.158"/><linearGradient id="e" gradientUnits="userSpaceOnUse" xlink:href="#a" x1="2258.07" y1="-331.33" x2="529.79" y2="438.571"/></defs><path d="M2 0h996c1 0 2 1 2 2v749c0 1-1 2-1 2H1s-1-1-1-2V2c0-1 1-2 2-2z" fill="#fff"/><g clip-path="url(#b)"><path d="M-638 141c29 39 75 43 112 47s64 9 95 38c30 29 64 81 95 123 31 41 59 72 84 91s46 26 103 29 150 2 220 0c70-1 119-2 158 7 39 8 68 26 105 55 37 30 82 72 115 96 33 25 54 32 135 34 82 2 223-1 303 2 79 3 97 12 125 39s66 72 99 108c34 36 63 62 95 77s66 17 125 17c59 1 142 0 210-1s122-1 159 4c37 6 58 16 81 52 22 37 46 100 74 142 29 42 61 62 97 76 37 15 78 22 102 24 24 1 30-3 36-358 7-355 14-1059-16-1447s-97-458-375-490c-278-31-767-23-1216-12s-859 25-1078 66c-220 41-249 109-232 278 16 169 77 439 113 613 37 173 47 250 76 290z" fill="url(#a)" fill-opacity=".251"/><path d="M-619-358c25 12 68 10 103 16 34 5 60 18 90 52s63 90 98 148c36 58 73 119 105 159 31 40 58 58 100 67 42 8 100 6 173 5 73-2 162-3 221 2 59 4 89 15 116 32 26 17 48 39 82 80 34 40 80 99 112 133 31 34 47 42 99 45 52 4 140 3 216 2 77-1 144-1 190 6 47 7 74 21 98 55 23 34 43 88 71 138s66 96 95 125c30 30 52 44 94 51 42 6 104 5 200 5 95 0 225 1 305 9 81 8 112 24 156 70 43 47 99 125 143 174s76 69 113 81 78 15 100 6 24-30 1-379c-23-348-71-1025-119-1374-47-348-94-368-414-378-321-9-915-7-1390 13-476 20-832 59-1021 89s-211 52-213 135c-2 84 15 228 28 313 13 84 22 109 48 120z" fill="url(#c)" fill-opacity=".302"/><path d="M-423-759c24 63 69 161 104 233 34 71 57 116 84 146 26 30 56 45 110 51 55 7 136 6 205 7 70 0 129 2 172 7 43 4 71 11 111 51s92 112 128 167c37 55 57 94 80 126 23 31 50 57 86 70 37 14 83 16 164 15 80 0 194-4 264 1 70 6 96 19 130 68 33 48 74 131 114 204 39 73 77 137 112 174 35 38 68 48 145 53 78 5 201 3 279 3s113 3 142 16c28 12 52 36 88 92 35 55 83 144 121 205 37 61 64 94 99 115 34 20 76 27 101 30 26 3 35 2 16-315-18-316-64-947-95-1292s-48-404-392-425c-344-22-1017-6-1471 12-454 19-691 42-808 67-117 26-114 55-89 119z" fill="url(#d)" fill-opacity=".4"/><path d="M361-769c15 37 42 92 69 152 27 61 53 125 80 175 26 49 51 83 74 103 22 21 41 28 112 30 70 2 193-2 269-2 77 1 107 5 133 13 25 7 46 18 74 67s63 136 99 223c35 88 71 176 101 244 31 67 56 114 90 141 35 27 78 34 158 35 80 2 198-3 268 1 71 4 96 16 123 44 27 29 56 75 94 153 39 78 86 188 121 257 34 69 57 98 90 116 32 19 75 29 98 35 22 6 25 8-1-321-26-328-80-987-107-1316-28-330-28-330-351-312s-969 54-1291 81c-321 26-319 44-303 81z" fill="url(#e)" fill-opacity=".502"/></g><path d="M2 0h996c1 0 2 1 2 2v749c0 1-1 2-1 2H1s-1-1-1-2V2c0-1 1-2 2-2z" fill="none"/></svg>
