<svg xmlns="http://www.w3.org/2000/svg" xml:space="preserve" viewBox="0 0 1000 1000"><path fill="none" d="M0 0h1000v1000H0z"></path><g fill="#00AFB2"><path d="M757.8 869.3H242.3c-12.5 0-22.7-10.2-22.7-22.7V153.4c0-12.5 10.2-22.7 22.7-22.7h515.5c12.5 0 22.7 10.2 22.7 22.7v693.3c-.1 12.5-10.2 22.6-22.7 22.6zM242.3 146.6c-3.7 0-6.8 3-6.8 6.8v693.3c0 3.7 3.1 6.8 6.8 6.8h515.5c3.7 0 6.8-3 6.8-6.8V153.4c0-3.8-3.1-6.8-6.8-6.8H242.3z"></path><path d="M420.4 365.5H305.2c-6.2 0-11.2-5-11.2-11.2V239c0-6.2 5-11.2 11.2-11.2h115.3c6.2 0 11.2 5 11.2 11.2v10.4c0 4.4-3.6 7.9-7.9 7.9s-7.9-3.6-7.9-7.9v-5.7h-106v106h106v-38.6c0-4.4 3.6-7.9 7.9-7.9s7.9 3.5 7.9 7.9v43.2c0 6.2-5.1 11.2-11.3 11.2zM690.2 247h-189c-4.4 0-7.9-3.6-7.9-7.9s3.6-7.9 7.9-7.9h189c4.4 0 7.9 3.6 7.9 7.9s-3.5 7.9-7.9 7.9zM632.8 301.3H501.2c-4.4 0-7.9-3.6-7.9-7.9s3.6-7.9 7.9-7.9h131.6c4.4 0 7.9 3.6 7.9 7.9s-3.6 7.9-7.9 7.9zM666.3 355.7H501.2c-4.4 0-7.9-3.6-7.9-7.9s3.6-7.9 7.9-7.9h165.1c4.4 0 7.9 3.6 7.9 7.9s-3.6 7.9-7.9 7.9zM420.4 570.2H305.2c-6.2 0-11.2-5-11.2-11.2V443.7c0-6.2 5-11.2 11.2-11.2h115.3c6.2 0 11.2 5 11.2 11.2V559c0 6.2-5.1 11.2-11.3 11.2zm-110.6-15.9h106v-106h-106v106zm110.6-105.9h.2-.2zM690.2 455h-189c-4.4 0-7.9-3.6-7.9-7.9s3.6-7.9 7.9-7.9h189c4.4 0 7.9 3.6 7.9 7.9s-3.5 7.9-7.9 7.9zM632.8 509.3H501.2c-4.4 0-7.9-3.6-7.9-7.9s3.6-7.9 7.9-7.9h131.6c4.4 0 7.9 3.6 7.9 7.9s-3.6 7.9-7.9 7.9zM666.3 563.6H501.2c-4.4 0-7.9-3.6-7.9-7.9s3.6-7.9 7.9-7.9h165.1c4.4 0 7.9 3.6 7.9 7.9s-3.6 7.9-7.9 7.9zM420.4 774.9H305.2c-6.2 0-11.2-5-11.2-11.2V648.4c0-6.2 5-11.2 11.2-11.2h115.3c6.2 0 11.2 5 11.2 11.2v115.3c0 6.1-5.1 11.2-11.3 11.2zM309.8 759h106V653h-106v106zm110.6-106h.2-.2zM690.2 662.9h-189c-4.4 0-7.9-3.6-7.9-7.9s3.6-7.9 7.9-7.9h189c4.4 0 7.9 3.6 7.9 7.9s-3.5 7.9-7.9 7.9zM632.8 717.2H501.2c-4.4 0-7.9-3.6-7.9-7.9s3.6-7.9 7.9-7.9h131.6c4.4 0 7.9 3.6 7.9 7.9s-3.6 7.9-7.9 7.9zM666.3 771.6H501.2c-4.4 0-7.9-3.6-7.9-7.9s3.6-7.9 7.9-7.9h165.1c4.4 0 7.9 3.6 7.9 7.9s-3.6 7.9-7.9 7.9z"></path><path d="M366.4 339.2c-2.2 0-4.3-.9-5.9-2.6l-33.9-37c-3-3.2-2.7-8.2.5-11.2 3.3-2.9 8.3-2.7 11.2.5l28.7 31.3 69.9-62c3.3-2.9 8.3-2.6 11.2.7 2.9 3.3 2.6 8.3-.7 11.2l-75.7 67.2c-1.6 1.2-3.4 1.9-5.3 1.9z"></path></g></svg>