<svg width="92" height="92" viewBox="0 0 92 92" fill="none" xmlns="http://www.w3.org/2000/svg">
<g clip-path="url(#clip0)">
<path fill-rule="evenodd" clip-rule="evenodd" d="M28.2603 21.4876C28.9115 18.224 31.7743 15.3333 35.821 15.3333C39.7109 15.3333 42.8354 17.1756 45.0189 19.6288C45.5472 20.2224 46.1156 20.9359 46.6389 21.7649C47.1621 20.9359 47.7305 20.2224 48.2589 19.6288C50.4423 17.1756 53.5668 15.3333 57.4567 15.3333C61.5035 15.3333 64.3662 18.224 65.0174 21.4876C65.7119 24.9678 63.9765 28.6312 59.9312 30.6264C57.7917 31.6816 55.0938 31.8758 52.9492 31.9434H40.3285C38.1839 31.8758 35.4861 31.6816 33.3466 30.6264C29.3012 28.6312 27.5659 24.9678 28.2603 21.4876ZM42.1554 22.1774C43.341 23.5095 44.7222 25.5555 44.7222 28.1076L40.4194 28.111C38.261 28.0416 36.3488 27.8329 35.0422 27.1885C32.3741 25.8726 31.7024 23.8272 32.0195 22.2377C32.3477 20.593 33.7737 19.1666 35.821 19.1666C38.403 19.1666 40.5439 20.3668 42.1554 22.1774ZM48.5555 28.1076C48.5555 25.5555 49.9367 23.5095 51.1223 22.1774C52.7338 20.3668 54.8748 19.1666 57.4567 19.1666C59.504 19.1666 60.93 20.593 61.2582 22.2377C61.5754 23.8272 60.9036 25.8726 58.2356 27.1885C56.9289 27.8329 55.0167 28.0416 52.8583 28.111L48.5555 28.1076Z" fill="#3ECF8E" fill-opacity="0.5"/>
<path fill-rule="evenodd" clip-rule="evenodd" d="M24.2778 34.5C21.455 34.5 19.1667 36.7883 19.1667 39.6111V42.1667C19.1667 44.9895 21.455 47.2778 24.2778 47.2778H42.1667V34.5H24.2778ZM49.8334 34.5V47.2778H67.7222C70.545 47.2778 72.8334 44.9895 72.8334 42.1667V39.6111C72.8334 36.7883 70.545 34.5 67.7222 34.5H49.8334Z" fill="#3ECF8E"/>
<path fill-rule="evenodd" clip-rule="evenodd" d="M42.1667 49.8333H21.7222V71.5556C21.7222 74.3783 24.0106 76.6667 26.8334 76.6667H42.1667V49.8333ZM49.8334 49.8333V76.6667H65.1667C67.9895 76.6667 70.2778 74.3783 70.2778 71.5556V49.8333H49.8334Z" fill="#3ECF8E"/>
</g>
<defs>
<clipPath id="clip0">
<path d="M0 0H92V92H0V0Z" fill="white"/>
</clipPath>
</defs>
</svg>
