<svg width="100%" height="100%" viewBox="0 0 271 616" fill="none" xmlns="http://www.w3.org/2000/svg"><path d="M90.719 491L90.719 452.5M90.719 328L90.719 348M90.719 416L90.719 403" stroke="#DADCE0" stroke-width="2" stroke-linecap="round"></path><rect x="66" y="350.471" width="49.5868" height="49.5868" rx="8" fill="#F5F4F9"></rect><path d="M100.66 381.664V384.89C100.66 385.08 100.66 385.27 100.593 385.46C100.325 386.535 99.2506 387.358 98.0421 387.358H83.876C82.6675 387.358 81.5933 386.535 81.3247 385.46C81.2576 385.27 81.2576 385.08 81.2576 384.89V381.664C81.2576 379.513 82.6675 377.678 84.7487 376.919C85.353 376.729 85.9572 376.603 86.6286 376.603H95.3566C96.0279 376.603 96.6322 376.729 97.2364 376.919C99.2506 377.678 100.66 379.513 100.66 381.664Z" fill="#3ECF8E"></path><path d="M96.632 369.327C96.632 370.466 96.2963 371.478 95.6249 372.364C94.6178 373.819 92.8722 374.705 90.9252 374.705C88.9782 374.705 87.2326 373.756 86.2256 372.364C85.6213 371.478 85.2185 370.466 85.2185 369.327C85.2185 369.011 85.2185 368.695 85.2856 368.378C85.7556 365.848 88.1054 363.95 90.9252 363.95C93.745 363.95 96.0949 365.848 96.5648 368.378C96.632 368.695 96.632 369.011 96.632 369.327Z" fill="#3ECF8E"></path><circle cx="91.2148" cy="434.149" r="15.4959" transform="rotate(180 91.2148 434.149)" fill="#F5F4F9"></circle><path fill-rule="evenodd" clip-rule="evenodd" d="M96.9593 434.086C97.5645 434.691 97.5645 435.672 96.9593 436.277L92.3106 440.926C92.02 441.217 91.6258 441.38 91.2149 441.38C90.8039 441.38 90.4097 441.217 90.1191 440.926L85.4704 436.277C84.8652 435.672 84.8652 434.691 85.4704 434.086C86.0755 433.481 87.0567 433.481 87.6618 434.086L89.6653 436.089L89.6653 428.467C89.6653 427.611 90.359 426.917 91.2149 426.917C92.0707 426.917 92.7644 427.611 92.7644 428.467L92.7644 436.089L94.7679 434.086C95.3731 433.481 96.3542 433.481 96.9593 434.086Z" fill="#3ECF8E"></path><path d="M164 493.992L164 458.5M164 326L164 357M164 393.525L164 402.5" stroke="#3ECF8E" stroke-width="2" stroke-linecap="round"></path><circle cx="164.215" cy="375.19" r="15.4959" fill="#3ECF8E"></circle><path fill-rule="evenodd" clip-rule="evenodd" d="M158.47 375.253C157.865 374.648 157.865 373.667 158.47 373.061L163.119 368.413C163.41 368.122 163.804 367.959 164.215 367.959C164.626 367.959 165.02 368.122 165.311 368.413L169.959 373.061C170.564 373.667 170.564 374.648 169.959 375.253C169.354 375.858 168.373 375.858 167.768 375.253L165.764 373.249L165.764 380.872C165.764 381.728 165.071 382.422 164.215 382.422C163.359 382.422 162.665 381.728 162.665 380.872L162.665 373.249L160.662 375.253C160.057 375.858 159.075 375.858 158.47 375.253Z" fill="white"></path><rect x="139.719" y="405.149" width="49.5868" height="49.5868" rx="8" fill="#3ECF8E"></rect><path fill-rule="evenodd" clip-rule="evenodd" d="M164.512 442.339C171.359 442.339 176.909 436.789 176.909 429.942C176.909 423.096 171.359 417.545 164.512 417.545C157.666 417.545 152.116 423.096 152.116 429.942C152.116 436.789 157.666 442.339 164.512 442.339ZM165.266 436.907C166.294 436.687 167.101 436.319 167.762 435.731C168.853 434.628 169.449 432.643 167.688 430.879C167.063 430.253 166.22 429.776 165.12 429.335V424.924C165.633 424.998 166 425.218 166.294 425.512C166.441 425.659 166.587 425.806 166.661 425.953C166.881 426.247 167.248 426.394 167.615 426.247C168.055 426.1 168.275 425.512 167.982 425.145C167.835 424.924 167.615 424.63 167.321 424.41C166.734 423.895 166.074 423.601 165.193 423.454V422.498C165.193 422.131 164.9 421.837 164.533 421.837C164.166 421.837 163.872 422.131 163.872 422.498V423.454C163.138 423.527 162.551 423.748 162.037 424.042C161.524 424.41 161.157 424.777 160.863 425.292C160.57 425.733 160.423 426.321 160.423 426.836C160.423 427.718 160.717 428.453 161.304 429.041C161.891 429.629 162.771 430.144 163.872 430.585H163.946V435.29C163.358 435.216 162.845 434.922 162.404 434.481C162.111 434.261 161.891 433.967 161.744 433.599C161.524 433.231 161.083 433.084 160.716 433.231C160.276 433.378 160.129 433.893 160.276 434.261C160.57 434.922 161.01 435.437 161.524 435.878C162.258 436.466 163.065 436.834 163.946 436.907V437.863C163.946 438.23 164.239 438.524 164.606 438.524C164.973 438.524 165.266 438.23 165.266 437.863V436.907ZM162.551 428.085C162.845 428.379 163.358 428.747 163.946 428.968V425.071C163.358 425.145 162.845 425.365 162.551 425.806C162.258 426.1 162.111 426.542 162.111 426.983C162.111 427.424 162.258 427.791 162.551 428.085ZM166.661 434.628C167.028 434.261 167.248 433.893 167.248 433.378C167.248 432.937 167.028 432.423 166.734 432.129C166.441 431.835 165.927 431.541 165.34 431.246V435.363C165.854 435.216 166.294 434.996 166.661 434.628Z" fill="white"></path><path d="M127.998 149.783L127.998 133.5" stroke="#DADCE0" stroke-width="2" stroke-linecap="round"></path><path d="M110 116H9C4.58172 116 1 112.418 1 108L1 31C1 26.5817 4.58173 23 9.00001 23H116.986H247C251.418 23 255 26.5817 255 31V108C255 112.418 251.418 116 247 116H146" stroke="#DADCE0" stroke-width="2" stroke-linecap="round" stroke-dasharray="4 4"></path><path d="M39.211 0.286153H41.9831L46.7941 13.0915H44.1293L43.0562 10.0332H38.1558L37.0828 13.0915H34.418L39.211 0.286153ZM42.2693 7.81555L41.1426 4.59633L40.6776 3.05826H40.5345L40.0695 4.59633L38.9249 7.81555H42.2693Z" fill="#DADCE0"></path><path d="M49.9462 2.57538H46.3693V0.286153H55.9376V2.57538H52.3606V13.0915H49.9462V2.57538Z" fill="#DADCE0"></path><path d="M60.4604 2.57538H56.8835V0.286153H66.4517V2.57538H62.8748V13.0915H60.4604V2.57538Z" fill="#DADCE0"></path><path d="M68.3813 0.286153H73.0491C73.8838 0.286153 74.623 0.459037 75.2668 0.804805C75.9226 1.15057 76.4293 1.63346 76.787 2.25345C77.1447 2.86153 77.3236 3.55306 77.3236 4.32806C77.3236 5.15075 77.0613 5.88402 76.5366 6.52786C76.0239 7.15978 75.3741 7.61882 74.5872 7.90497L74.5693 8.03016L78.0032 12.9484V13.0915H75.2311L71.9224 8.28055H70.7957V13.0915H68.3813V0.286153ZM73.0313 6.06286C73.5797 6.06286 74.0268 5.89594 74.3726 5.56209C74.7184 5.22825 74.8913 4.80498 74.8913 4.29229C74.8913 3.80345 74.7243 3.38614 74.3905 3.04037C74.0686 2.69461 73.6274 2.52172 73.067 2.52172H70.7957V6.06286H73.0313Z" fill="#DADCE0"></path><path d="M83.3111 0.286153H86.0832L90.8942 13.0915H88.2294L87.1563 10.0332H82.2559L81.1828 13.0915H78.5181L83.3111 0.286153ZM86.3694 7.81555L85.2426 4.59633L84.7776 3.05826H84.6346L84.1696 4.59633L83.025 7.81555H86.3694Z" fill="#DADCE0"></path><path d="M98.3368 13.3776C97.0968 13.3776 95.9641 13.0855 94.9387 12.5013C93.9133 11.9051 93.1026 11.1003 92.5064 10.0869C91.9222 9.0615 91.6301 7.92882 91.6301 6.68882C91.6301 5.44883 91.9222 4.3221 92.5064 3.30864C93.1026 2.28326 93.9133 1.47846 94.9387 0.894228C95.9641 0.298076 97.0968 0 98.3368 0C100.268 0 101.866 0.697498 103.13 2.09249L101.431 3.73787C100.608 2.77211 99.5827 2.28922 98.3547 2.28922C97.5558 2.28922 96.8285 2.47403 96.1728 2.84364C95.517 3.20133 94.9983 3.71402 94.6168 4.38171C94.2472 5.0494 94.0624 5.81844 94.0624 6.68882C94.0624 7.5592 94.2472 8.32824 94.6168 8.99593C94.9983 9.66362 95.517 10.1823 96.1728 10.5519C96.8285 10.9096 97.5558 11.0884 98.3547 11.0884C99.702 11.0884 100.829 10.528 101.735 9.40727L103.452 11.0348C102.82 11.7978 102.069 12.3821 101.198 12.7875C100.34 13.1809 99.386 13.3776 98.3368 13.3776Z" fill="#DADCE0"></path><path d="M108.281 2.57538H104.704V0.286153H114.272V2.57538H110.695V13.0915H108.281V2.57538Z" fill="#DADCE0"></path><path d="M116.201 0.286153H124.321V2.57538H118.616V5.54421H123.749V7.83343H118.616V10.8023H124.321V13.0915H116.201V0.286153Z" fill="#DADCE0"></path><path d="M126.803 0.286153H131.131C132.466 0.286153 133.629 0.554422 134.619 1.09096C135.608 1.62749 136.371 2.37864 136.908 3.34441C137.444 4.31018 137.713 5.42498 137.713 6.68882C137.713 7.95266 137.444 9.06747 136.908 10.0332C136.371 10.999 135.608 11.7501 134.619 12.2867C133.629 12.8232 132.466 13.0915 131.131 13.0915H126.803V0.286153ZM131.024 10.8023C132.407 10.8023 133.462 10.4386 134.189 9.71131C134.917 8.97208 135.28 7.96458 135.28 6.68882C135.28 5.41306 134.917 4.41152 134.189 3.68422C133.462 2.94499 132.407 2.57538 131.024 2.57538H129.217V10.8023H131.024Z" fill="#DADCE0"></path><path d="M149.912 13.3776C148.672 13.3776 147.539 13.0855 146.514 12.5013C145.489 11.9051 144.678 11.1003 144.082 10.0869C143.497 9.0615 143.205 7.92882 143.205 6.68882C143.205 5.44883 143.497 4.3221 144.082 3.30864C144.678 2.28326 145.489 1.47846 146.514 0.894228C147.539 0.298076 148.672 0 149.912 0C151.844 0 153.441 0.697498 154.705 2.09249L153.006 3.73787C152.183 2.77211 151.158 2.28922 149.93 2.28922C149.131 2.28922 148.404 2.47403 147.748 2.84364C147.092 3.20133 146.574 3.71402 146.192 4.38171C145.822 5.0494 145.638 5.81844 145.638 6.68882C145.638 7.5592 145.822 8.32824 146.192 8.99593C146.574 9.66362 147.092 10.1823 147.748 10.5519C148.404 10.9096 149.131 11.0884 149.93 11.0884C151.277 11.0884 152.404 10.528 153.31 9.40727L155.027 11.0348C154.395 11.7978 153.644 12.3821 152.774 12.7875C151.915 13.1809 150.961 13.3776 149.912 13.3776Z" fill="#DADCE0"></path><path d="M157.263 0.286153H159.677V10.8023H165.096V13.0915H157.263V0.286153Z" fill="#DADCE0"></path><path d="M167.113 0.286153H169.527V13.0915H167.113V0.286153Z" fill="#DADCE0"></path><path d="M172.44 0.286153H180.56V2.57538H174.854V5.54421H179.987V7.83343H174.854V10.8023H180.56V13.0915H172.44V0.286153Z" fill="#DADCE0"></path><path d="M183.041 0.286153H185.849L191 8.87074H191.143L191 6.40267V0.286153H193.397V13.0915H190.857L185.42 4.02402H185.277L185.42 6.49209V13.0915H183.041V0.286153Z" fill="#DADCE0"></path><path d="M198.908 2.57538H195.332V0.286153H204.9V2.57538H201.323V13.0915H198.908V2.57538Z" fill="#DADCE0"></path><path d="M210.518 13.3776C209.397 13.3776 208.407 13.0617 207.549 12.4298C206.69 11.7978 206.088 10.9036 205.743 9.74708L208.014 8.85285C208.193 9.53246 208.497 10.075 208.926 10.4803C209.355 10.8857 209.892 11.0884 210.536 11.0884C211.072 11.0884 211.531 10.9573 211.913 10.695C212.294 10.4207 212.485 10.0452 212.485 9.56823C212.485 9.09131 212.3 8.70381 211.931 8.40574C211.573 8.09574 210.929 7.76785 209.999 7.42209L209.212 7.13593C208.389 6.84978 207.686 6.41459 207.102 5.83036C206.518 5.23421 206.225 4.48902 206.225 3.59479C206.225 2.9271 206.398 2.31903 206.744 1.77057C207.09 1.22211 207.579 0.792882 208.211 0.482883C208.843 0.160961 209.558 0 210.357 0C211.513 0 212.425 0.27423 213.093 0.822689C213.761 1.35923 214.22 1.99115 214.47 2.71845L212.342 3.61268C212.211 3.21922 211.978 2.89134 211.644 2.62903C211.323 2.3548 210.905 2.21768 210.393 2.21768C209.868 2.21768 209.433 2.34288 209.087 2.59326C208.753 2.83172 208.586 3.14768 208.586 3.54114C208.586 3.92268 208.747 4.25056 209.069 4.52479C209.391 4.7871 209.922 5.04344 210.661 5.29383L211.466 5.56209C212.574 5.94363 213.421 6.45036 214.005 7.08228C214.601 7.70228 214.899 8.51901 214.899 9.53246C214.899 10.3671 214.685 11.0765 214.256 11.6607C213.826 12.233 213.272 12.6623 212.592 12.9484C211.925 13.2346 211.233 13.3776 210.518 13.3776Z" fill="#DADCE0"></path><rect x="26.3254" y="40.7996" width="53.3243" height="53.3243" rx="8" fill="#F5F4F9"></rect><path d="M69.6517 72.7279V74.7942C69.6517 76.2606 68.4519 77.4604 66.9855 77.4604H63.9193C63.986 77.2604 63.986 77.0605 63.986 76.8605V73.4611C63.986 71.4614 63.1195 69.7284 61.7197 68.4619H65.3858C67.7854 68.4619 69.6517 70.3949 69.6517 72.7279Z" fill="#9FE7C7"></path><path d="M66.4524 62.3961C66.4524 64.8623 64.4527 66.862 61.9865 66.862C60.4534 66.862 59.1203 66.1288 58.3204 64.9957C59.3869 63.7959 59.9868 62.1961 59.9868 60.4631C59.9868 59.7965 59.8535 59.13 59.7202 58.5301C60.3868 58.1301 61.12 57.9302 61.9865 57.9302C64.4527 57.9302 66.4524 59.9298 66.4524 62.3961Z" fill="#9FE7C7"></path><path d="M41.9899 76.8605C41.9899 77.0605 41.9899 77.2604 42.0566 77.4604H38.9904C37.524 77.4604 36.3242 76.2606 36.3242 74.7942V72.7278C36.3242 70.3949 38.1906 68.5286 40.5235 68.5286H44.1896C42.7898 69.7284 41.9233 71.5281 41.9233 73.5277V76.8605H41.9899Z" fill="#9FE7C7"></path><path d="M45.9226 60.4631C45.9226 62.1961 46.5225 63.7959 47.589 64.9957C46.7891 66.1288 45.456 66.862 43.9229 66.862C41.4567 66.862 39.457 64.8623 39.457 62.3961C39.457 59.9298 41.4567 57.9302 43.9229 57.9302C44.7228 57.9302 45.5227 58.1301 46.1892 58.5301C46.0559 59.13 45.9226 59.7965 45.9226 60.4631Z" fill="#9FE7C7"></path><path d="M62.6532 73.4609V76.8603C62.6532 77.0603 62.6532 77.2602 62.5865 77.4602C62.3199 78.5933 61.2534 79.4598 60.0536 79.4598H45.9893C44.7895 79.4598 43.723 78.5933 43.4564 77.4602C43.3898 77.2602 43.3898 77.0603 43.3898 76.8603V73.4609C43.3898 71.1946 44.7895 69.2616 46.8559 68.4617C47.4558 68.2617 48.0557 68.1284 48.7222 68.1284H57.3874C58.054 68.1284 58.6539 68.2617 59.2538 68.4617C61.2534 69.2616 62.6532 71.1946 62.6532 73.4609Z" fill="#3ECF8E"></path><path d="M58.6539 60.4631C58.6539 61.6629 58.3207 62.7294 57.6541 63.6625C56.6543 65.1956 54.9212 66.1288 52.9882 66.1288C51.0552 66.1288 49.3222 65.129 48.3223 63.6625C47.7224 62.7294 47.3225 61.6629 47.3225 60.4631C47.3225 60.1298 47.3225 59.7965 47.3892 59.4632C47.8558 56.797 50.1887 54.7974 52.9882 54.7974C55.7877 54.7974 58.1207 56.797 58.5873 59.4632C58.6539 59.7965 58.6539 60.1298 58.6539 60.4631Z" fill="#3ECF8E"></path><path d="M76.4651 48.2062C76.4651 48.6135 76.1393 49.0209 75.6505 49.0209H73.2064V51.4649C73.2064 51.8722 72.8806 52.2796 72.3917 52.2796C71.9029 52.2796 71.5771 51.8722 71.5771 51.4649V49.0209H69.133C68.6442 49.0209 68.3184 48.6135 68.3184 48.2062C68.3184 47.7989 68.6442 47.3915 69.133 47.3915H71.5771V44.9475C71.5771 44.5402 71.9029 44.1328 72.3917 44.1328C72.8806 44.1328 73.2064 44.5402 73.2064 44.9475V47.3915H75.6505C76.1393 47.3915 76.4651 47.7989 76.4651 48.2062Z" fill="#3ECF8E"></path><rect x="102.313" y="40.7996" width="53.3243" height="53.3243" rx="8" fill="#F5F4F9"></rect><path d="M145.639 72.7279V74.7942C145.639 76.2606 144.439 77.4604 142.972 77.4604H139.906C139.973 77.2604 139.973 77.0605 139.973 76.8605V73.4611C139.973 71.4614 139.106 69.7284 137.707 68.4619H141.373C143.772 68.4619 145.639 70.3949 145.639 72.7279Z" fill="#9FE7C7"></path><path d="M142.439 62.3961C142.439 64.8623 140.44 66.862 137.973 66.862C136.44 66.862 135.107 66.1288 134.307 64.9957C135.374 63.7959 135.974 62.1961 135.974 60.4631C135.974 59.7965 135.84 59.13 135.707 58.5301C136.374 58.1301 137.107 57.9302 137.973 57.9302C140.44 57.9302 142.439 59.9298 142.439 62.3961Z" fill="#9FE7C7"></path><path d="M117.977 76.8605C117.977 77.0605 117.977 77.2604 118.043 77.4604H114.977C113.511 77.4604 112.311 76.2606 112.311 74.7942V72.7278C112.311 70.3949 114.177 68.5286 116.51 68.5286H120.176C118.777 69.7284 117.91 71.5281 117.91 73.5277V76.8605H117.977Z" fill="#9FE7C7"></path><path d="M121.909 60.4631C121.909 62.1961 122.509 63.7959 123.576 64.9957C122.776 66.1288 121.443 66.862 119.91 66.862C117.444 66.862 115.444 64.8623 115.444 62.3961C115.444 59.9298 117.444 57.9302 119.91 57.9302C120.71 57.9302 121.509 58.1301 122.176 58.5301C122.043 59.13 121.909 59.7965 121.909 60.4631Z" fill="#9FE7C7"></path><path d="M138.64 73.4609V76.8603C138.64 77.0603 138.64 77.2602 138.573 77.4602C138.307 78.5933 137.24 79.4598 136.041 79.4598H121.976C120.776 79.4598 119.71 78.5933 119.443 77.4602C119.377 77.2602 119.377 77.0603 119.377 76.8603V73.4609C119.377 71.1946 120.776 69.2616 122.843 68.4617C123.443 68.2617 124.043 68.1284 124.709 68.1284H133.374C134.041 68.1284 134.641 68.2617 135.241 68.4617C137.24 69.2616 138.64 71.1946 138.64 73.4609Z" fill="#3ECF8E"></path><path d="M134.641 60.4631C134.641 61.6629 134.307 62.7294 133.641 63.6625C132.641 65.1956 130.908 66.1288 128.975 66.1288C127.042 66.1288 125.309 65.129 124.309 63.6625C123.709 62.7294 123.309 61.6629 123.309 60.4631C123.309 60.1298 123.309 59.7965 123.376 59.4632C123.843 56.797 126.176 54.7974 128.975 54.7974C131.775 54.7974 134.108 56.797 134.574 59.4632C134.641 59.7965 134.641 60.1298 134.641 60.4631Z" fill="#3ECF8E"></path><path d="M152.452 48.2062C152.452 48.6135 152.126 49.0209 151.638 49.0209H149.193V51.4649C149.193 51.8722 148.868 52.2796 148.379 52.2796C147.89 52.2796 147.564 51.8722 147.564 51.4649V49.0209H145.12C144.631 49.0209 144.305 48.6135 144.305 48.2062C144.305 47.7989 144.631 47.3915 145.12 47.3915H147.564V44.9475C147.564 44.5402 147.89 44.1328 148.379 44.1328C148.868 44.1328 149.193 44.5402 149.193 44.9475V47.3915H151.638C152.126 47.3915 152.452 47.7989 152.452 48.2062Z" fill="#3ECF8E"></path><rect x="178.3" y="40.7996" width="53.3243" height="53.3243" rx="8" fill="#F5F4F9"></rect><path d="M221.626 72.7279V74.7942C221.626 76.2606 220.426 77.4604 218.96 77.4604H215.894C215.96 77.2604 215.96 77.0605 215.96 76.8605V73.4611C215.96 71.4614 215.094 69.7284 213.694 68.4619H217.36C219.76 68.4619 221.626 70.3949 221.626 72.7279Z" fill="#9FE7C7"></path><path d="M218.426 62.3961C218.426 64.8623 216.427 66.862 213.96 66.862C212.427 66.862 211.094 66.1288 210.294 64.9957C211.361 63.7959 211.961 62.1961 211.961 60.4631C211.961 59.7965 211.828 59.13 211.694 58.5301C212.361 58.1301 213.094 57.9302 213.96 57.9302C216.427 57.9302 218.426 59.9298 218.426 62.3961Z" fill="#9FE7C7"></path><path d="M193.964 76.8605C193.964 77.0605 193.964 77.2604 194.03 77.4604H190.964C189.498 77.4604 188.298 76.2606 188.298 74.7942V72.7278C188.298 70.3949 190.164 68.5286 192.497 68.5286H196.163C194.764 69.7284 193.897 71.5281 193.897 73.5277V76.8605H193.964Z" fill="#9FE7C7"></path><path d="M197.896 60.4631C197.896 62.1961 198.496 63.7959 199.563 64.9957C198.763 66.1288 197.43 66.862 195.897 66.862C193.431 66.862 191.431 64.8623 191.431 62.3961C191.431 59.9298 193.431 57.9302 195.897 57.9302C196.697 57.9302 197.497 58.1301 198.163 58.5301C198.03 59.13 197.896 59.7965 197.896 60.4631Z" fill="#9FE7C7"></path><path d="M214.627 73.4609V76.8603C214.627 77.0603 214.627 77.2602 214.56 77.4602C214.294 78.5933 213.227 79.4598 212.028 79.4598H197.963C196.763 79.4598 195.697 78.5933 195.43 77.4602C195.364 77.2602 195.364 77.0603 195.364 76.8603V73.4609C195.364 71.1946 196.763 69.2616 198.83 68.4617C199.43 68.2617 200.03 68.1284 200.696 68.1284H209.361C210.028 68.1284 210.628 68.2617 211.228 68.4617C213.227 69.2616 214.627 71.1946 214.627 73.4609Z" fill="#3ECF8E"></path><path d="M210.628 60.4631C210.628 61.6629 210.294 62.7294 209.628 63.6625C208.628 65.1956 206.895 66.1288 204.962 66.1288C203.029 66.1288 201.296 65.129 200.296 63.6625C199.696 62.7294 199.296 61.6629 199.296 60.4631C199.296 60.1298 199.296 59.7965 199.363 59.4632C199.83 56.797 202.162 54.7974 204.962 54.7974C207.762 54.7974 210.094 56.797 210.561 59.4632C210.628 59.7965 210.628 60.1298 210.628 60.4631Z" fill="#3ECF8E"></path><path d="M228.44 48.2062C228.44 48.6135 228.114 49.0209 227.625 49.0209H225.181V51.4649C225.181 51.8722 224.855 52.2796 224.366 52.2796C223.877 52.2796 223.552 51.8722 223.552 51.4649V49.0209H221.108C220.619 49.0209 220.293 48.6135 220.293 48.2062C220.293 47.7989 220.619 47.3915 221.108 47.3915H223.552V44.9475C223.552 44.5402 223.877 44.1328 224.366 44.1328C224.855 44.1328 225.181 44.5402 225.181 44.9475V47.3915H227.625C228.114 47.3915 228.44 47.7989 228.44 48.2062Z" fill="#3ECF8E"></path><circle cx="128.496" cy="115.496" r="15.4959" transform="rotate(180 128.496 115.496)" fill="#F5F4F9"></circle><path fill-rule="evenodd" clip-rule="evenodd" d="M134.24 115.433C134.846 116.038 134.846 117.019 134.24 117.625L129.592 122.273C129.301 122.564 128.907 122.727 128.496 122.727C128.085 122.727 127.691 122.564 127.4 122.273L122.751 117.625C122.146 117.019 122.146 116.038 122.751 115.433C123.357 114.828 124.338 114.828 124.943 115.433L126.946 117.437L126.946 109.814C126.946 108.958 127.64 108.264 128.496 108.264C129.352 108.264 130.045 108.958 130.045 109.814L130.045 117.437L132.049 115.433C132.654 114.828 133.635 114.828 134.24 115.433Z" fill="#3ECF8E"></path><ellipse rx="80" ry="80" transform="matrix(-1 -8.74228e-08 -8.74228e-08 1 191 214)" fill="#F8F7FC"></ellipse><ellipse rx="39.5" ry="39.5" transform="matrix(-1 -8.74228e-08 -8.74228e-08 1 77.5 576.5)" fill="#F8F7FC"></ellipse><rect x="41" y="146.107" width="173.554" height="190.083" rx="8" fill="white" stroke="#DADCE0" stroke-width="2" stroke-linecap="round" stroke-dasharray="4 4"></rect><path d="M127.081 218.867C139.185 218.867 148.998 209.054 148.998 196.95C148.998 184.845 139.185 175.033 127.081 175.033C114.976 175.033 105.164 184.845 105.164 196.95C105.164 209.054 114.976 218.867 127.081 218.867Z" fill="#3ECF8E"></path><path fill-rule="evenodd" clip-rule="evenodd" d="M131.619 237.96L131.609 237.911C131.576 237.758 131.559 237.603 131.559 237.447V237.394C131.559 237.585 131.579 237.775 131.619 237.96ZM122.542 237.96C122.582 237.775 122.602 237.585 122.602 237.394V237.447C122.602 237.603 122.586 237.758 122.553 237.911L122.542 237.96Z" fill="#3ECF8E"></path><path fill-rule="evenodd" clip-rule="evenodd" d="M166.531 258.815V241.282C166.531 231.598 158.681 223.748 148.998 223.748H136.649L134.157 227.064C133.652 227.736 132.86 228.131 132.019 228.131H122.142C121.301 228.131 120.51 227.736 120.004 227.064L117.513 223.748H105.164C95.4804 223.748 87.6304 231.598 87.6304 241.282V258.815C87.6304 263.657 91.5554 267.582 96.3971 267.582H157.765C162.606 267.582 166.531 263.657 166.531 258.815ZM124.794 232.515H129.368C130.578 232.515 131.559 233.496 131.559 234.707V237.394C131.559 237.585 131.579 237.775 131.619 237.96L133.596 247.079C133.725 247.677 133.644 248.312 133.37 248.839L128.754 257.714C127.99 259.182 126.171 259.182 125.408 257.714L120.792 248.839C120.518 248.312 120.436 247.677 120.566 247.079L122.542 237.96C122.582 237.775 122.602 237.585 122.602 237.394V234.707C122.602 233.496 123.584 232.515 124.794 232.515Z" fill="#3ECF8E"></path><path fill-rule="evenodd" clip-rule="evenodd" d="M131.559 237.394V237.447C131.559 237.603 131.576 237.758 131.609 237.911L131.619 237.96C131.579 237.775 131.559 237.585 131.559 237.394ZM122.542 237.96L122.553 237.911C122.586 237.758 122.602 237.603 122.602 237.447V237.394C122.602 237.585 122.582 237.775 122.542 237.96Z" fill="#3ECF8E"></path><rect x="70" y="278.339" width="116.736" height="37.1901" rx="18.595" fill="#F5F4F9"></rect><path d="M91.8988 290.147H95.9308C96.6561 290.147 97.3175 290.302 97.9148 290.611C98.5121 290.91 98.9815 291.337 99.3228 291.891C99.6641 292.435 99.8348 293.059 99.8348 293.763C99.8348 294.467 99.6641 295.097 99.3228 295.651C98.9815 296.206 98.5121 296.638 97.9148 296.947C97.3175 297.246 96.6561 297.395 95.9308 297.395H94.0588V301.603H91.8988V290.147ZM95.9948 295.347C96.5281 295.347 96.9441 295.193 97.2428 294.883C97.5521 294.574 97.7068 294.201 97.7068 293.763C97.7068 293.326 97.5521 292.958 97.2428 292.659C96.9441 292.35 96.5281 292.195 95.9948 292.195H94.0588V295.347H95.9948Z" fill="#3ECF8E"></path><path d="M103.755 290.147H106.235L110.539 301.603H108.155L107.195 298.867H102.811L101.851 301.603H99.4674L103.755 290.147ZM106.491 296.883L105.483 294.003L105.067 292.627H104.939L104.523 294.003L103.499 296.883H106.491Z" fill="#3ECF8E"></path><path d="M112.086 290.147H116.262C117.009 290.147 117.67 290.302 118.246 290.611C118.833 290.921 119.286 291.353 119.606 291.907C119.926 292.451 120.086 293.07 120.086 293.763C120.086 294.499 119.852 295.155 119.382 295.731C118.924 296.297 118.342 296.707 117.638 296.963L117.622 297.075L120.694 301.475V301.603H118.214L115.254 297.299H114.246V301.603H112.086V290.147ZM116.246 295.315C116.737 295.315 117.137 295.166 117.446 294.867C117.756 294.569 117.91 294.19 117.91 293.731C117.91 293.294 117.761 292.921 117.462 292.611C117.174 292.302 116.78 292.147 116.278 292.147H114.246V295.315H116.246Z" fill="#3ECF8E"></path><path d="M124.547 292.195H121.347V290.147H129.907V292.195H126.707V301.603H124.547V292.195Z" fill="#3ECF8E"></path><path d="M131.633 290.147H134.145L138.753 297.827H138.881L138.753 295.619V290.147H140.897V301.603H138.625L133.761 293.491H133.633L133.761 295.699V301.603H131.633V290.147Z" fill="#3ECF8E"></path><path d="M143.508 290.147H150.772V292.195H145.668V294.851H150.26V296.899H145.668V299.555H150.772V301.603H143.508V290.147Z" fill="#3ECF8E"></path><path d="M152.993 290.147H157.169C157.915 290.147 158.577 290.302 159.153 290.611C159.739 290.921 160.193 291.353 160.513 291.907C160.833 292.451 160.993 293.07 160.993 293.763C160.993 294.499 160.758 295.155 160.289 295.731C159.83 296.297 159.249 296.707 158.545 296.963L158.529 297.075L161.601 301.475V301.603H159.121L156.161 297.299H155.153V301.603H152.993V290.147ZM157.153 295.315C157.643 295.315 158.043 295.166 158.353 294.867C158.662 294.569 158.817 294.19 158.817 293.731C158.817 293.294 158.667 292.921 158.369 292.611C158.081 292.302 157.686 292.147 157.185 292.147H155.153V295.315H157.153Z" fill="#3ECF8E"></path><rect x="66" y="474.438" width="123.967" height="116.736" rx="8" fill="white" stroke="#DADCE0" stroke-width="2" stroke-linecap="round" stroke-dasharray="4 4"></rect><rect x="86.1632" y="549.117" width="83.6403" height="26.8844" rx="13.4422" fill="#F5F4F9"></rect><path d="M105.066 557.738H108.412C108.889 557.738 109.328 557.837 109.726 558.037C110.132 558.236 110.451 558.507 110.682 558.849C110.913 559.192 111.028 559.566 111.028 559.972C111.028 560.402 110.921 560.777 110.706 561.095C110.499 561.406 110.224 561.645 109.881 561.812V561.908C110.327 562.067 110.682 562.322 110.945 562.673C111.208 563.015 111.339 563.429 111.339 563.915C111.339 564.385 111.211 564.803 110.957 565.17C110.71 565.528 110.371 565.807 109.941 566.006C109.519 566.197 109.049 566.293 108.531 566.293H105.066V557.738ZM108.292 561.227C108.643 561.227 108.921 561.131 109.128 560.94C109.344 560.741 109.451 560.494 109.451 560.199C109.451 559.912 109.348 559.673 109.14 559.482C108.941 559.283 108.674 559.184 108.34 559.184H106.679V561.227H108.292ZM108.471 564.823C108.862 564.823 109.164 564.724 109.379 564.525C109.602 564.318 109.714 564.051 109.714 563.724C109.714 563.397 109.602 563.131 109.379 562.924C109.156 562.716 108.838 562.613 108.423 562.613H106.679V564.823H108.471Z" fill="#3ECF8E"></path><path d="M112.802 557.738H115.921C116.478 557.738 116.972 557.853 117.402 558.084C117.841 558.315 118.179 558.638 118.418 559.052C118.657 559.458 118.776 559.92 118.776 560.438C118.776 560.988 118.601 561.478 118.251 561.908C117.908 562.33 117.474 562.637 116.948 562.828L116.936 562.912L119.231 566.197V566.293H117.379L115.168 563.079H114.415V566.293H112.802V557.738ZM115.909 561.597C116.275 561.597 116.574 561.486 116.805 561.263C117.036 561.04 117.151 560.757 117.151 560.414C117.151 560.088 117.04 559.809 116.817 559.578C116.602 559.347 116.307 559.231 115.933 559.231H114.415V561.597H115.909Z" fill="#3ECF8E"></path><path d="M124.414 566.484C123.577 566.484 122.817 566.289 122.132 565.899C121.454 565.5 120.921 564.959 120.53 564.274C120.14 563.589 119.945 562.836 119.945 562.015C119.945 561.195 120.14 560.442 120.53 559.757C120.921 559.072 121.454 558.534 122.132 558.144C122.817 557.746 123.577 557.547 124.414 557.547C125.25 557.547 126.007 557.746 126.684 558.144C127.369 558.534 127.907 559.072 128.297 559.757C128.687 560.442 128.883 561.195 128.883 562.015C128.883 562.836 128.687 563.589 128.297 564.274C127.907 564.959 127.369 565.5 126.684 565.899C126.007 566.289 125.25 566.484 124.414 566.484ZM124.414 564.955C124.939 564.955 125.421 564.831 125.86 564.584C126.298 564.337 126.64 563.991 126.887 563.545C127.142 563.099 127.269 562.589 127.269 562.015C127.269 561.442 127.142 560.932 126.887 560.486C126.64 560.04 126.298 559.693 125.86 559.446C125.421 559.2 124.939 559.076 124.414 559.076C123.888 559.076 123.406 559.2 122.968 559.446C122.538 559.693 122.195 560.04 121.94 560.486C121.693 560.932 121.57 561.442 121.57 562.015C121.57 562.589 121.693 563.099 121.94 563.545C122.195 563.991 122.538 564.337 122.968 564.584C123.406 564.831 123.888 564.955 124.414 564.955Z" fill="#3ECF8E"></path><path d="M130.41 557.738H132.023V561.406H132.119L135.249 557.738H137.197V557.833L134.102 561.37L137.519 566.197V566.293H135.548L132.991 562.649L132.023 563.784V566.293H130.41V557.738Z" fill="#3ECF8E"></path><path d="M138.566 557.738H143.991V559.267H140.179V561.251H143.609V562.78H140.179V564.764H143.991V566.293H138.566V557.738Z" fill="#3ECF8E"></path><path d="M145.649 557.738H148.768C149.325 557.738 149.819 557.853 150.249 558.084C150.688 558.315 151.026 558.638 151.265 559.052C151.504 559.458 151.624 559.92 151.624 560.438C151.624 560.988 151.448 561.478 151.098 561.908C150.755 562.33 150.321 562.637 149.795 562.828L149.783 562.912L152.078 566.197V566.293H150.226L148.015 563.079H147.262V566.293H145.649V557.738ZM148.756 561.597C149.122 561.597 149.421 561.486 149.652 561.263C149.883 561.04 149.999 560.757 149.999 560.414C149.999 560.088 149.887 559.809 149.664 559.578C149.449 559.347 149.154 559.231 148.78 559.231H147.262V561.597H148.756Z" fill="#3ECF8E"></path><rect x="124.235" y="512.581" width="7.32698" height="20.1492" rx="2" fill="#3ECF8E"></rect><rect x="113.245" y="512.581" width="7.32698" height="20.1492" rx="2" fill="#3ECF8E"></rect><rect x="135.226" y="512.581" width="7.32698" height="20.1492" rx="2" fill="#3ECF8E"></rect><rect x="146.216" y="534.562" width="2.74762" height="36.6349" rx="1" transform="rotate(90 146.216 534.562)" fill="#3ECF8E"></rect><rect x="146.216" y="508.917" width="1.83175" height="36.6349" rx="0.915874" transform="rotate(90 146.216 508.917)" fill="#3ECF8E"></rect><rect x="148.048" y="538.225" width="3.66349" height="40.2984" rx="1" transform="rotate(90 148.048 538.225)" fill="#3ECF8E"></rect><path d="M128.737 496.305C129.017 496.173 129.343 496.177 129.619 496.317L148.902 506.11C149.84 506.586 149.501 508.001 148.45 508.001H108.527C107.46 508.001 107.135 506.555 108.098 506.098L128.737 496.305Z" fill="#3ECF8E"></path></svg>