<svg width="100%" height="100%" viewBox="0 0 719 444" fill="none" xmlns="http://www.w3.org/2000/svg"><circle r="107" transform="matrix(-1 0 0 1 142 107)" fill="#F8F7FC"></circle><circle r="73.5" transform="matrix(-1 0 0 1 645.5 246.5)" fill="#F8F7FC"></circle><path d="M187 270V211" stroke="#DADCE0" stroke-width="2" stroke-linecap="round"></path><path d="M603.5 157.5V100.75M325 103H363C367.418 103 371 99.4183 371 95V52C371 47.5817 374.582 44 379 44H423.5M541 44L595.5 44C599.918 44 603.5 47.5817 603.5 52V66" stroke="#3ECF8E" stroke-width="2" stroke-linecap="round"></path><path d="M532 205L489 205M243 205L331 205M451.5 205L430 205" stroke="#DADCE0" stroke-width="2" stroke-linecap="round"></path><path d="M169.5 288.5H9C4.58172 288.5 1 292.082 1 296.5L1 410.5C1 414.918 4.58173 418.5 9 418.5H362C366.418 418.5 370 414.918 370 410.5V296.5C370 292.082 366.418 288.5 362 288.5H204.5" stroke="#DADCE0" stroke-width="2" stroke-linecap="round" stroke-dasharray="4 4"></path><rect x="94" y="48" width="178" height="196" rx="8" fill="white" stroke="#DADCE0" stroke-width="2" stroke-linecap="round" stroke-dasharray="4 4"></rect><path d="M186.188 128.431C197.905 128.431 207.404 118.933 207.404 107.216C207.404 95.4985 197.905 86 186.188 86C174.471 86 164.972 95.4985 164.972 107.216C164.972 118.933 174.471 128.431 186.188 128.431Z" fill="#3ECF8E"></path><path fill-rule="evenodd" clip-rule="evenodd" d="M190.581 146.913L190.571 146.866C190.539 146.718 190.523 146.568 190.523 146.417V146.366C190.523 146.55 190.543 146.734 190.581 146.913ZM181.795 146.913C181.833 146.734 181.853 146.55 181.853 146.366V146.417C181.853 146.568 181.837 146.718 181.805 146.866L181.795 146.913Z" fill="#3ECF8E"></path><path fill-rule="evenodd" clip-rule="evenodd" d="M224.376 167.101V150.129C224.376 140.755 216.777 133.156 207.404 133.156H195.45L193.038 136.366C192.549 137.017 191.783 137.399 190.969 137.399H181.407C180.594 137.399 179.827 137.017 179.338 136.366L176.926 133.156H164.972C155.599 133.156 148 140.755 148 150.129V167.101C148 171.788 151.799 175.587 156.486 175.587H215.89C220.577 175.587 224.376 171.788 224.376 167.101ZM183.975 141.643H188.402C189.573 141.643 190.523 142.592 190.523 143.764V146.366C190.523 146.55 190.543 146.734 190.581 146.913L192.494 155.74C192.62 156.32 192.541 156.934 192.276 157.444L187.808 166.035C187.068 167.457 185.308 167.457 184.569 166.035L180.1 157.444C179.835 156.934 179.756 156.32 179.882 155.74L181.795 146.913C181.833 146.734 181.853 146.55 181.853 146.366V143.764C181.853 142.592 182.803 141.643 183.975 141.643Z" fill="#3ECF8E"></path><path fill-rule="evenodd" clip-rule="evenodd" d="M190.523 146.366V146.417C190.523 146.568 190.539 146.718 190.571 146.866L190.581 146.913C190.543 146.734 190.523 146.55 190.523 146.366ZM181.795 146.913L181.805 146.866C181.837 146.718 181.853 146.568 181.853 146.417V146.366C181.853 146.55 181.833 146.734 181.795 146.913Z" fill="#3ECF8E"></path><rect x="129" y="187" width="113" height="36" rx="18" fill="#F5F4F9"></rect><path d="M111.528 432.256H114.008L118.312 443.712H115.928L114.968 440.976H110.584L109.624 443.712H107.24L111.528 432.256ZM114.264 438.992L113.256 436.112L112.84 434.736H112.712L112.296 436.112L111.272 438.992H114.264Z" fill="#DADCE0"></path><path d="M121.132 434.304H117.932V432.256H126.492V434.304H123.292V443.712H121.132V434.304Z" fill="#DADCE0"></path><path d="M130.538 434.304H127.338V432.256H135.898V434.304H132.698V443.712H130.538V434.304Z" fill="#DADCE0"></path><path d="M137.624 432.256H141.8C142.547 432.256 143.208 432.411 143.784 432.72C144.371 433.029 144.824 433.461 145.144 434.016C145.464 434.56 145.624 435.179 145.624 435.872C145.624 436.608 145.39 437.264 144.92 437.84C144.462 438.405 143.88 438.816 143.176 439.072L143.16 439.184L146.232 443.584V443.712H143.752L140.792 439.408H139.784V443.712H137.624V432.256ZM141.784 437.424C142.275 437.424 142.675 437.275 142.984 436.976C143.294 436.677 143.448 436.299 143.448 435.84C143.448 435.403 143.299 435.029 143 434.72C142.712 434.411 142.318 434.256 141.816 434.256H139.784V437.424H141.784Z" fill="#DADCE0"></path><path d="M150.981 432.256H153.461L157.765 443.712H155.381L154.421 440.976H150.037L149.077 443.712H146.693L150.981 432.256ZM153.717 438.992L152.709 436.112L152.293 434.736H152.165L151.749 436.112L150.725 438.992H153.717Z" fill="#DADCE0"></path><path d="M164.423 443.968C163.314 443.968 162.301 443.707 161.383 443.184C160.466 442.651 159.741 441.931 159.207 441.024C158.685 440.107 158.423 439.093 158.423 437.984C158.423 436.875 158.685 435.867 159.207 434.96C159.741 434.043 160.466 433.323 161.383 432.8C162.301 432.267 163.314 432 164.423 432C166.151 432 167.581 432.624 168.711 433.872L167.191 435.344C166.455 434.48 165.538 434.048 164.439 434.048C163.725 434.048 163.074 434.213 162.487 434.544C161.901 434.864 161.437 435.323 161.095 435.92C160.765 436.517 160.599 437.205 160.599 437.984C160.599 438.763 160.765 439.451 161.095 440.048C161.437 440.645 161.901 441.109 162.487 441.44C163.074 441.76 163.725 441.92 164.439 441.92C165.645 441.92 166.653 441.419 167.463 440.416L168.999 441.872C168.434 442.555 167.762 443.077 166.983 443.44C166.215 443.792 165.362 443.968 164.423 443.968Z" fill="#DADCE0"></path><path d="M173.319 434.304H170.119V432.256H178.679V434.304H175.479V443.712H173.319V434.304Z" fill="#DADCE0"></path><path d="M180.406 432.256H187.67V434.304H182.566V436.96H187.158V439.008H182.566V441.664H187.67V443.712H180.406V432.256Z" fill="#DADCE0"></path><path d="M189.89 432.256H193.762C194.957 432.256 195.997 432.496 196.882 432.976C197.767 433.456 198.45 434.128 198.93 434.992C199.41 435.856 199.65 436.853 199.65 437.984C199.65 439.115 199.41 440.112 198.93 440.976C198.45 441.84 197.767 442.512 196.882 442.992C195.997 443.472 194.957 443.712 193.762 443.712H189.89V432.256ZM193.666 441.664C194.903 441.664 195.847 441.339 196.498 440.688C197.149 440.027 197.474 439.125 197.474 437.984C197.474 436.843 197.149 435.947 196.498 435.296C195.847 434.635 194.903 434.304 193.666 434.304H192.05V441.664H193.666Z" fill="#DADCE0"></path><path d="M210.564 443.968C209.455 443.968 208.441 443.707 207.524 443.184C206.607 442.651 205.881 441.931 205.348 441.024C204.825 440.107 204.564 439.093 204.564 437.984C204.564 436.875 204.825 435.867 205.348 434.96C205.881 434.043 206.607 433.323 207.524 432.8C208.441 432.267 209.455 432 210.564 432C212.292 432 213.721 432.624 214.852 433.872L213.332 435.344C212.596 434.48 211.679 434.048 210.58 434.048C209.865 434.048 209.215 434.213 208.628 434.544C208.041 434.864 207.577 435.323 207.236 435.92C206.905 436.517 206.74 437.205 206.74 437.984C206.74 438.763 206.905 439.451 207.236 440.048C207.577 440.645 208.041 441.109 208.628 441.44C209.215 441.76 209.865 441.92 210.58 441.92C211.785 441.92 212.793 441.419 213.604 440.416L215.14 441.872C214.575 442.555 213.903 443.077 213.124 443.44C212.356 443.792 211.503 443.968 210.564 443.968Z" fill="#DADCE0"></path><path d="M217.14 432.256H219.3V441.664H224.148V443.712H217.14V432.256Z" fill="#DADCE0"></path><path d="M225.953 432.256H228.113V443.712H225.953V432.256Z" fill="#DADCE0"></path><path d="M230.718 432.256H237.982V434.304H232.878V436.96H237.47V439.008H232.878V441.664H237.982V443.712H230.718V432.256Z" fill="#DADCE0"></path><path d="M240.203 432.256H242.715L247.323 439.936H247.451L247.323 437.728V432.256H249.467V443.712H247.195L242.331 435.6H242.203L242.331 437.808V443.712H240.203V432.256Z" fill="#DADCE0"></path><path d="M254.398 434.304H251.198V432.256H259.758V434.304H256.558V443.712H254.398V434.304Z" fill="#DADCE0"></path><path d="M264.784 443.968C263.781 443.968 262.896 443.685 262.128 443.12C261.36 442.555 260.821 441.755 260.512 440.72L262.544 439.92C262.704 440.528 262.976 441.013 263.36 441.376C263.744 441.739 264.224 441.92 264.8 441.92C265.28 441.92 265.69 441.803 266.032 441.568C266.373 441.323 266.544 440.987 266.544 440.56C266.544 440.133 266.378 439.787 266.048 439.52C265.728 439.243 265.152 438.949 264.32 438.64L263.616 438.384C262.88 438.128 262.25 437.739 261.728 437.216C261.205 436.683 260.944 436.016 260.944 435.216C260.944 434.619 261.098 434.075 261.408 433.584C261.717 433.093 262.154 432.709 262.72 432.432C263.285 432.144 263.925 432 264.64 432C265.674 432 266.49 432.245 267.088 432.736C267.685 433.216 268.096 433.781 268.32 434.432L266.416 435.232C266.298 434.88 266.09 434.587 265.792 434.352C265.504 434.107 265.13 433.984 264.672 433.984C264.202 433.984 263.813 434.096 263.504 434.32C263.205 434.533 263.056 434.816 263.056 435.168C263.056 435.509 263.2 435.803 263.488 436.048C263.776 436.283 264.25 436.512 264.912 436.736L265.632 436.976C266.624 437.317 267.381 437.771 267.904 438.336C268.437 438.891 268.704 439.621 268.704 440.528C268.704 441.275 268.512 441.909 268.128 442.432C267.744 442.944 267.248 443.328 266.64 443.584C266.042 443.84 265.424 443.968 264.784 443.968Z" fill="#DADCE0"></path><path d="M151 198.544H155.032C155.757 198.544 156.419 198.699 157.016 199.008C157.613 199.307 158.083 199.733 158.424 200.288C158.765 200.832 158.936 201.456 158.936 202.16C158.936 202.864 158.765 203.493 158.424 204.048C158.083 204.603 157.613 205.035 157.016 205.344C156.419 205.643 155.757 205.792 155.032 205.792H153.16V210H151V198.544ZM155.096 203.744C155.629 203.744 156.045 203.589 156.344 203.28C156.653 202.971 156.808 202.597 156.808 202.16C156.808 201.723 156.653 201.355 156.344 201.056C156.045 200.747 155.629 200.592 155.096 200.592H153.16V203.744H155.096Z" fill="#3ECF8E"></path><path d="M162.857 198.544H165.337L169.641 210H167.257L166.297 207.264H161.913L160.953 210H158.569L162.857 198.544ZM165.593 205.28L164.585 202.4L164.169 201.024H164.041L163.625 202.4L162.601 205.28H165.593Z" fill="#3ECF8E"></path><path d="M171.188 198.544H175.364C176.11 198.544 176.771 198.699 177.347 199.008C177.934 199.317 178.388 199.749 178.708 200.304C179.028 200.848 179.188 201.467 179.188 202.16C179.188 202.896 178.953 203.552 178.484 204.128C178.025 204.693 177.444 205.104 176.74 205.36L176.723 205.472L179.795 209.872V210H177.316L174.355 205.696H173.347V210H171.188V198.544ZM175.347 203.712C175.838 203.712 176.238 203.563 176.548 203.264C176.857 202.965 177.011 202.587 177.011 202.128C177.011 201.691 176.862 201.317 176.563 201.008C176.275 200.699 175.881 200.544 175.379 200.544H173.347V203.712H175.347Z" fill="#3ECF8E"></path><path d="M183.648 200.592H180.448V198.544H189.008V200.592H185.808V210H183.648V200.592Z" fill="#3ECF8E"></path><path d="M190.734 198.544H193.246L197.854 206.224H197.982L197.854 204.016V198.544H199.998V210H197.726L192.862 201.888H192.734L192.862 204.096V210H190.734V198.544Z" fill="#3ECF8E"></path><path d="M202.609 198.544H209.873V200.592H204.769V203.248H209.361V205.296H204.769V207.952H209.873V210H202.609V198.544Z" fill="#3ECF8E"></path><path d="M212.094 198.544H216.27C217.016 198.544 217.678 198.699 218.254 199.008C218.84 199.317 219.294 199.749 219.614 200.304C219.934 200.848 220.094 201.467 220.094 202.16C220.094 202.896 219.859 203.552 219.39 204.128C218.931 204.693 218.35 205.104 217.646 205.36L217.63 205.472L220.702 209.872V210H218.222L215.262 205.696H214.254V210H212.094V198.544ZM216.254 203.712C216.744 203.712 217.144 203.563 217.454 203.264C217.763 202.965 217.918 202.587 217.918 202.128C217.918 201.691 217.768 201.317 217.47 201.008C217.182 200.699 216.787 200.544 216.286 200.544H214.254V203.712H216.254Z" fill="#3ECF8E"></path><rect x="31" y="314.5" width="80" height="80" rx="8" fill="#F5F4F9"></rect><path d="M96 362.4V365.5C96 367.7 94.2 369.5 92 369.5H87.4C87.5 369.2 87.5 368.9 87.5 368.6V363.5C87.5 360.5 86.2 357.9 84.1 356H89.6C93.2 356 96 358.9 96 362.4Z" fill="#9FE7C7"></path><path d="M91.2 346.9C91.2 350.6 88.2 353.6 84.5 353.6C82.2 353.6 80.2 352.5 79 350.8C80.6 349 81.5 346.6 81.5 344C81.5 343 81.3 342 81.1 341.1C82.1 340.5 83.2 340.2 84.5 340.2C88.2 340.2 91.2 343.2 91.2 346.9Z" fill="#9FE7C7"></path><path d="M54.5 368.6C54.5 368.9 54.5 369.2 54.6 369.5H50C47.8 369.5 46 367.7 46 365.5V362.4C46 358.9 48.8 356.1 52.3 356.1H57.8C55.7 357.9 54.4 360.6 54.4 363.6V368.6H54.5Z" fill="#9FE7C7"></path><path d="M60.4 344C60.4 346.6 61.3 349 62.9 350.8C61.7 352.5 59.7 353.6 57.4 353.6C53.7 353.6 50.7 350.6 50.7 346.9C50.7 343.2 53.7 340.2 57.4 340.2C58.6 340.2 59.8 340.5 60.8 341.1C60.6 342 60.4 343 60.4 344Z" fill="#9FE7C7"></path><path d="M85.5 363.5V368.6C85.5 368.9 85.5 369.2 85.4 369.5C85 371.2 83.4 372.5 81.6 372.5H60.5C58.7 372.5 57.1 371.2 56.7 369.5C56.6 369.2 56.6 368.9 56.6 368.6V363.5C56.6 360.1 58.7 357.2 61.8 356C62.7 355.7 63.6 355.5 64.6 355.5H77.6C78.6 355.5 79.5 355.7 80.4 356C83.4 357.2 85.5 360.1 85.5 363.5Z" fill="#3ECF8E"></path><path d="M79.5 344C79.5 345.8 79 347.4 78 348.8C76.5 351.1 73.9 352.5 71 352.5C68.1 352.5 65.5 351 64 348.8C63.1 347.4 62.5 345.8 62.5 344C62.5 343.5 62.5 343 62.6 342.5C63.3 338.5 66.8 335.5 71 335.5C75.2 335.5 78.7 338.5 79.4 342.5C79.5 343 79.5 343.5 79.5 344Z" fill="#3ECF8E"></path><path d="M106.222 325.612C106.222 326.223 105.733 326.834 105 326.834H101.333V330.501C101.333 331.112 100.844 331.723 100.111 331.723C99.3778 331.723 98.8889 331.112 98.8889 330.501V326.834H95.2222C94.4889 326.834 94 326.223 94 325.612C94 325.001 94.4889 324.39 95.2222 324.39H98.8889V320.723C98.8889 320.112 99.3778 319.501 100.111 319.501C100.844 319.501 101.333 320.112 101.333 320.723V324.39H105C105.733 324.39 106.222 325.001 106.222 325.612Z" fill="#3ECF8E"></path><rect x="145" y="314.5" width="80" height="80" rx="8" fill="#F5F4F9"></rect><path d="M210 362.4V365.5C210 367.7 208.2 369.5 206 369.5H201.4C201.5 369.2 201.5 368.9 201.5 368.6V363.5C201.5 360.5 200.2 357.9 198.1 356H203.6C207.2 356 210 358.9 210 362.4Z" fill="#9FE7C7"></path><path d="M205.2 346.9C205.2 350.6 202.2 353.6 198.5 353.6C196.2 353.6 194.2 352.5 193 350.8C194.6 349 195.5 346.6 195.5 344C195.5 343 195.3 342 195.1 341.1C196.1 340.5 197.2 340.2 198.5 340.2C202.2 340.2 205.2 343.2 205.2 346.9Z" fill="#9FE7C7"></path><path d="M168.5 368.6C168.5 368.9 168.5 369.2 168.6 369.5H164C161.8 369.5 160 367.7 160 365.5V362.4C160 358.9 162.8 356.1 166.3 356.1H171.8C169.7 357.9 168.4 360.6 168.4 363.6V368.6H168.5Z" fill="#9FE7C7"></path><path d="M174.4 344C174.4 346.6 175.3 349 176.9 350.8C175.7 352.5 173.7 353.6 171.4 353.6C167.7 353.6 164.7 350.6 164.7 346.9C164.7 343.2 167.7 340.2 171.4 340.2C172.6 340.2 173.8 340.5 174.8 341.1C174.6 342 174.4 343 174.4 344Z" fill="#9FE7C7"></path><path d="M199.5 363.5V368.6C199.5 368.9 199.5 369.2 199.4 369.5C199 371.2 197.4 372.5 195.6 372.5H174.5C172.7 372.5 171.1 371.2 170.7 369.5C170.6 369.2 170.6 368.9 170.6 368.6V363.5C170.6 360.1 172.7 357.2 175.8 356C176.7 355.7 177.6 355.5 178.6 355.5H191.6C192.6 355.5 193.5 355.7 194.4 356C197.4 357.2 199.5 360.1 199.5 363.5Z" fill="#3ECF8E"></path><path d="M193.5 344C193.5 345.8 193 347.4 192 348.8C190.5 351.1 187.9 352.5 185 352.5C182.1 352.5 179.5 351 178 348.8C177.1 347.4 176.5 345.8 176.5 344C176.5 343.5 176.5 343 176.6 342.5C177.3 338.5 180.8 335.5 185 335.5C189.2 335.5 192.7 338.5 193.4 342.5C193.5 343 193.5 343.5 193.5 344Z" fill="#3ECF8E"></path><path d="M220.222 325.612C220.222 326.223 219.733 326.834 219 326.834H215.333V330.501C215.333 331.112 214.844 331.723 214.111 331.723C213.378 331.723 212.889 331.112 212.889 330.501V326.834H209.222C208.489 326.834 208 326.223 208 325.612C208 325.001 208.489 324.39 209.222 324.39H212.889V320.723C212.889 320.112 213.378 319.501 214.111 319.501C214.844 319.501 215.333 320.112 215.333 320.723V324.39H219C219.733 324.39 220.222 325.001 220.222 325.612Z" fill="#3ECF8E"></path><rect x="259" y="314.5" width="80" height="80" rx="8" fill="#F5F4F9"></rect><path d="M324 362.4V365.5C324 367.7 322.2 369.5 320 369.5H315.4C315.5 369.2 315.5 368.9 315.5 368.6V363.5C315.5 360.5 314.2 357.9 312.1 356H317.6C321.2 356 324 358.9 324 362.4Z" fill="#9FE7C7"></path><path d="M319.2 346.9C319.2 350.6 316.2 353.6 312.5 353.6C310.2 353.6 308.2 352.5 307 350.8C308.6 349 309.5 346.6 309.5 344C309.5 343 309.3 342 309.1 341.1C310.1 340.5 311.2 340.2 312.5 340.2C316.2 340.2 319.2 343.2 319.2 346.9Z" fill="#9FE7C7"></path><path d="M282.5 368.6C282.5 368.9 282.5 369.2 282.6 369.5H278C275.8 369.5 274 367.7 274 365.5V362.4C274 358.9 276.8 356.1 280.3 356.1H285.8C283.7 357.9 282.4 360.6 282.4 363.6V368.6H282.5Z" fill="#9FE7C7"></path><path d="M288.4 344C288.4 346.6 289.3 349 290.9 350.8C289.7 352.5 287.7 353.6 285.4 353.6C281.7 353.6 278.7 350.6 278.7 346.9C278.7 343.2 281.7 340.2 285.4 340.2C286.6 340.2 287.8 340.5 288.8 341.1C288.6 342 288.4 343 288.4 344Z" fill="#9FE7C7"></path><path d="M313.5 363.5V368.6C313.5 368.9 313.5 369.2 313.4 369.5C313 371.2 311.4 372.5 309.6 372.5H288.5C286.7 372.5 285.1 371.2 284.7 369.5C284.6 369.2 284.6 368.9 284.6 368.6V363.5C284.6 360.1 286.7 357.2 289.8 356C290.7 355.7 291.6 355.5 292.6 355.5H305.6C306.6 355.5 307.5 355.7 308.4 356C311.4 357.2 313.5 360.1 313.5 363.5Z" fill="#3ECF8E"></path><path d="M307 344.5C307 346.3 306.5 347.9 305.5 349.3C304 351.6 301.4 353 298.5 353C295.6 353 293 351.5 291.5 349.3C290.6 347.9 290 346.3 290 344.5C290 344 290 343.5 290.1 343C290.8 339 294.3 336 298.5 336C302.7 336 306.2 339 306.9 343C307 343.5 307 344 307 344.5Z" fill="#3ECF8E"></path><path d="M334.222 325.612C334.222 326.223 333.733 326.834 333 326.834H329.333V330.501C329.333 331.112 328.844 331.723 328.111 331.723C327.378 331.723 326.889 331.112 326.889 330.501V326.834H323.222C322.489 326.834 322 326.223 322 325.612C322 325.001 322.489 324.39 323.222 324.39H326.889V320.723C326.889 320.112 327.378 319.501 328.111 319.501C328.844 319.501 329.333 320.112 329.333 320.723V324.39H333C333.733 324.39 334.222 325.001 334.222 325.612Z" fill="#3ECF8E"></path><rect x="333" y="178" width="94" height="52" rx="8" fill="#F5F4F9"></rect><path d="M367.347 209.713V213.304C367.347 213.515 367.347 213.727 367.277 213.938C366.995 215.135 365.869 216.05 364.601 216.05H349.746C348.479 216.05 347.352 215.135 347.07 213.938C347 213.727 347 213.515 347 213.304V209.713C347 207.32 348.479 205.278 350.661 204.433C351.295 204.222 351.928 204.081 352.632 204.081H361.785C362.489 204.081 363.123 204.222 363.756 204.433C365.869 205.278 367.347 207.32 367.347 209.713Z" fill="#3ECF8E"></path><path d="M363.123 195.984C363.123 197.252 362.771 198.378 362.067 199.364C361.011 200.983 359.18 201.969 357.138 201.969C355.097 201.969 353.266 200.913 352.21 199.364C351.576 198.378 351.154 197.252 351.154 195.984C351.154 195.632 351.154 195.28 351.224 194.928C351.717 192.112 354.181 190 357.138 190C360.095 190 362.56 192.112 363.052 194.928C363.123 195.28 363.123 195.632 363.123 195.984Z" fill="#3ECF8E"></path><path d="M391.694 209.713V213.304C391.694 213.515 391.694 213.727 391.624 213.938C391.342 215.135 390.216 216.05 388.949 216.05H374.093C372.826 216.05 371.699 215.135 371.418 213.938C371.347 213.727 371.347 213.515 371.347 213.304V209.713C371.347 207.32 372.826 205.278 375.008 204.433C375.642 204.222 376.276 204.081 376.98 204.081H386.132C386.836 204.081 387.47 204.222 388.104 204.433C390.216 205.278 391.694 207.32 391.694 209.713Z" fill="#3ECF8E"></path><path d="M387.47 195.984C387.47 197.252 387.118 198.378 386.414 199.364C385.358 200.983 383.527 201.969 381.486 201.969C379.444 201.969 377.613 200.913 376.557 199.364C375.924 198.378 375.501 197.252 375.501 195.984C375.501 195.632 375.501 195.28 375.572 194.928C376.064 192.112 378.529 190 381.486 190C384.443 190 386.907 192.112 387.4 194.928C387.47 195.28 387.47 195.632 387.47 195.984Z" fill="#3ECF8E"></path><path d="M416.042 209.713V213.304C416.042 213.515 416.041 213.727 415.971 213.938C415.689 215.135 414.563 216.05 413.296 216.05H398.44C397.173 216.05 396.046 215.135 395.765 213.938C395.694 213.727 395.694 213.515 395.694 213.304V209.713C395.694 207.32 397.173 205.278 399.355 204.433C399.989 204.222 400.623 204.081 401.327 204.081H410.479C411.184 204.081 411.817 204.222 412.451 204.433C414.563 205.278 416.042 207.32 416.042 209.713Z" fill="#3ECF8E"></path><path d="M411.817 195.984C411.817 197.252 411.465 198.378 410.761 199.364C409.705 200.983 407.874 201.969 405.833 201.969C403.791 201.969 401.96 200.913 400.904 199.364C400.271 198.378 399.848 197.252 399.848 195.984C399.848 195.632 399.848 195.28 399.919 194.928C400.412 192.112 402.876 190 405.833 190C408.79 190 411.254 192.112 411.747 194.928C411.817 195.28 411.817 195.632 411.817 195.984Z" fill="#3ECF8E"></path><rect x="426" y="18" width="112" height="52" rx="8" fill="#3ECF8E"></rect><path fill-rule="evenodd" clip-rule="evenodd" d="M482 55.5C488.627 55.5 494 50.1274 494 43.5C494 36.8726 488.627 31.5 482 31.5C475.373 31.5 470 36.8726 470 43.5C470 50.1274 475.373 55.5 482 55.5ZM482.73 50.2421C483.725 50.0286 484.506 49.6728 485.145 49.1035C486.202 48.0361 486.779 46.1147 485.074 44.4068C484.469 43.8009 483.654 43.3394 482.588 42.9124V38.6427C483.085 38.7138 483.44 38.9273 483.725 39.212C483.867 39.3543 484.009 39.4966 484.08 39.6389C484.293 39.9236 484.648 40.0659 485.003 39.9236C485.43 39.7813 485.643 39.212 485.358 38.8562C485.216 38.6427 485.003 38.358 484.719 38.1445C484.151 37.6464 483.511 37.3617 482.659 37.2194V36.2943C482.659 35.9385 482.375 35.6538 482.02 35.6538C481.664 35.6538 481.38 35.9385 481.38 36.2943V37.2194C480.67 37.2906 480.102 37.5041 479.604 37.7887C479.107 38.1445 478.752 38.5003 478.468 38.9985C478.184 39.4254 478.042 39.9947 478.042 40.4929C478.042 41.3468 478.326 42.0585 478.894 42.6278C479.462 43.1971 480.315 43.6952 481.38 44.1222H481.451V48.6765C480.883 48.6054 480.386 48.3207 479.96 47.8938C479.675 47.6803 479.462 47.3956 479.32 47.0398C479.107 46.684 478.681 46.5417 478.326 46.684C477.899 46.8263 477.757 47.3245 477.899 47.6803C478.184 48.3207 478.61 48.8189 479.107 49.2458C479.817 49.8151 480.599 50.171 481.451 50.2421V51.1672C481.451 51.523 481.736 51.8077 482.091 51.8077C482.446 51.8077 482.73 51.523 482.73 51.1672V50.2421ZM480.102 41.7026C480.386 41.9873 480.883 42.3431 481.451 42.5566V38.785C480.883 38.8562 480.386 39.0696 480.102 39.4966C479.817 39.7813 479.675 40.2082 479.675 40.6352C479.675 41.0622 479.817 41.418 480.102 41.7026ZM484.08 48.0361C484.435 47.6803 484.648 47.3245 484.648 46.8263C484.648 46.3994 484.435 45.9012 484.151 45.6166C483.867 45.3319 483.369 45.0473 482.801 44.7626V48.7477C483.298 48.6054 483.725 48.3919 484.08 48.0361Z" fill="white"></path><path fill-rule="evenodd" clip-rule="evenodd" d="M454 55.5C460.627 55.5 466 50.1274 466 43.5C466 36.8726 460.627 31.5 454 31.5C447.373 31.5 442 36.8726 442 43.5C442 50.1274 447.373 55.5 454 55.5ZM454.73 50.2421C455.725 50.0286 456.506 49.6728 457.145 49.1035C458.202 48.0361 458.779 46.1147 457.074 44.4068C456.469 43.8009 455.654 43.3394 454.588 42.9124V38.6427C455.085 38.7138 455.44 38.9273 455.725 39.212C455.867 39.3543 456.009 39.4966 456.08 39.6389C456.293 39.9236 456.648 40.0659 457.003 39.9236C457.43 39.7813 457.643 39.212 457.358 38.8562C457.216 38.6427 457.003 38.358 456.719 38.1445C456.151 37.6464 455.511 37.3617 454.659 37.2194V36.2943C454.659 35.9385 454.375 35.6538 454.02 35.6538C453.664 35.6538 453.38 35.9385 453.38 36.2943V37.2194C452.67 37.2906 452.102 37.5041 451.604 37.7887C451.107 38.1445 450.752 38.5003 450.468 38.9985C450.184 39.4254 450.042 39.9947 450.042 40.4929C450.042 41.3468 450.326 42.0585 450.894 42.6278C451.462 43.1971 452.315 43.6952 453.38 44.1222H453.451V48.6765C452.883 48.6054 452.386 48.3207 451.96 47.8938C451.675 47.6803 451.462 47.3956 451.32 47.0398C451.107 46.684 450.681 46.5417 450.326 46.684C449.899 46.8263 449.757 47.3245 449.899 47.6803C450.184 48.3207 450.61 48.8189 451.107 49.2458C451.817 49.8151 452.599 50.171 453.451 50.2421V51.1672C453.451 51.523 453.736 51.8077 454.091 51.8077C454.446 51.8077 454.73 51.523 454.73 51.1672V50.2421ZM452.102 41.7026C452.386 41.9873 452.883 42.3431 453.451 42.5566V38.785C452.883 38.8562 452.386 39.0696 452.102 39.4966C451.817 39.7813 451.675 40.2082 451.675 40.6352C451.675 41.0622 451.817 41.418 452.102 41.7026ZM456.08 48.0361C456.435 47.6803 456.648 47.3245 456.648 46.8263C456.648 46.3994 456.435 45.9012 456.151 45.6166C455.867 45.3319 455.369 45.0473 454.801 44.7626V48.7477C455.298 48.6054 455.725 48.3919 456.08 48.0361Z" fill="white"></path><path fill-rule="evenodd" clip-rule="evenodd" d="M510 55.5C516.627 55.5 522 50.1274 522 43.5C522 36.8726 516.627 31.5 510 31.5C503.373 31.5 498 36.8726 498 43.5C498 50.1274 503.373 55.5 510 55.5ZM510.73 50.2421C511.725 50.0286 512.506 49.6728 513.145 49.1035C514.202 48.0361 514.779 46.1147 513.074 44.4068C512.469 43.8009 511.654 43.3394 510.588 42.9124V38.6427C511.085 38.7138 511.44 38.9273 511.725 39.212C511.867 39.3543 512.009 39.4966 512.08 39.6389C512.293 39.9236 512.648 40.0659 513.003 39.9236C513.43 39.7813 513.643 39.212 513.358 38.8562C513.216 38.6427 513.003 38.358 512.719 38.1445C512.151 37.6464 511.511 37.3617 510.659 37.2194V36.2943C510.659 35.9385 510.375 35.6538 510.02 35.6538C509.664 35.6538 509.38 35.9385 509.38 36.2943V37.2194C508.67 37.2906 508.102 37.5041 507.604 37.7887C507.107 38.1445 506.752 38.5003 506.468 38.9985C506.184 39.4254 506.042 39.9947 506.042 40.4929C506.042 41.3468 506.326 42.0585 506.894 42.6278C507.462 43.1971 508.315 43.6952 509.38 44.1222H509.451V48.6765C508.883 48.6054 508.386 48.3207 507.96 47.8938C507.675 47.6803 507.462 47.3956 507.32 47.0398C507.107 46.684 506.681 46.5417 506.326 46.684C505.899 46.8263 505.757 47.3245 505.899 47.6803C506.184 48.3207 506.61 48.8189 507.107 49.2458C507.817 49.8151 508.599 50.171 509.451 50.2421V51.1672C509.451 51.523 509.736 51.8077 510.091 51.8077C510.446 51.8077 510.73 51.523 510.73 51.1672V50.2421ZM508.102 41.7026C508.386 41.9873 508.883 42.3431 509.451 42.5566V38.785C508.883 38.8562 508.386 39.0696 508.102 39.4966C507.817 39.7813 507.675 40.2082 507.675 40.6352C507.675 41.0622 507.817 41.418 508.102 41.7026ZM512.08 48.0361C512.435 47.6803 512.648 47.3245 512.648 46.8263C512.648 46.3994 512.435 45.9012 512.151 45.6166C511.867 45.3319 511.369 45.0473 510.801 44.7626V48.7477C511.298 48.6054 511.725 48.3919 512.08 48.0361Z" fill="white"></path><rect x="519" y="126" width="166" height="156" rx="8" fill="white" stroke="#DADCE0" stroke-width="2" stroke-linecap="round" stroke-dasharray="4 4"></rect><rect x="546" y="226" width="112" height="36" rx="18" fill="#F5F4F9"></rect><path d="M571.312 237.544H575.792C576.432 237.544 577.019 237.677 577.552 237.944C578.096 238.211 578.523 238.573 578.832 239.032C579.141 239.491 579.296 239.992 579.296 240.536C579.296 241.112 579.152 241.613 578.864 242.04C578.587 242.456 578.219 242.776 577.76 243V243.128C578.357 243.341 578.832 243.683 579.184 244.152C579.536 244.611 579.712 245.165 579.712 245.816C579.712 246.445 579.541 247.005 579.2 247.496C578.869 247.976 578.416 248.349 577.84 248.616C577.275 248.872 576.645 249 575.952 249H571.312V237.544ZM575.632 242.216C576.101 242.216 576.475 242.088 576.752 241.832C577.04 241.565 577.184 241.235 577.184 240.84C577.184 240.456 577.045 240.136 576.768 239.88C576.501 239.613 576.144 239.48 575.696 239.48H573.472V242.216H575.632ZM575.872 247.032C576.395 247.032 576.8 246.899 577.088 246.632C577.387 246.355 577.536 245.997 577.536 245.56C577.536 245.123 577.387 244.765 577.088 244.488C576.789 244.211 576.363 244.072 575.808 244.072H573.472V247.032H575.872Z" fill="#3ECF8E"></path><path d="M581.671 237.544H585.847C586.594 237.544 587.255 237.699 587.831 238.008C588.418 238.317 588.871 238.749 589.191 239.304C589.511 239.848 589.671 240.467 589.671 241.16C589.671 241.896 589.437 242.552 588.967 243.128C588.509 243.693 587.927 244.104 587.223 244.36L587.207 244.472L590.279 248.872V249H587.799L584.839 244.696H583.831V249H581.671V237.544ZM585.831 242.712C586.322 242.712 586.722 242.563 587.031 242.264C587.341 241.965 587.495 241.587 587.495 241.128C587.495 240.691 587.346 240.317 587.047 240.008C586.759 239.699 586.365 239.544 585.863 239.544H583.831V242.712H585.831Z" fill="#3ECF8E"></path><path d="M597.22 249.256C596.1 249.256 595.081 248.995 594.164 248.472C593.257 247.939 592.543 247.213 592.02 246.296C591.497 245.379 591.236 244.371 591.236 243.272C591.236 242.173 591.497 241.165 592.02 240.248C592.543 239.331 593.257 238.611 594.164 238.088C595.081 237.555 596.1 237.288 597.22 237.288C598.34 237.288 599.353 237.555 600.26 238.088C601.177 238.611 601.897 239.331 602.42 240.248C602.943 241.165 603.204 242.173 603.204 243.272C603.204 244.371 602.943 245.379 602.42 246.296C601.897 247.213 601.177 247.939 600.26 248.472C599.353 248.995 598.34 249.256 597.22 249.256ZM597.22 247.208C597.924 247.208 598.569 247.043 599.156 246.712C599.743 246.381 600.201 245.917 600.532 245.32C600.873 244.723 601.044 244.04 601.044 243.272C601.044 242.504 600.873 241.821 600.532 241.224C600.201 240.627 599.743 240.163 599.156 239.832C598.569 239.501 597.924 239.336 597.22 239.336C596.516 239.336 595.871 239.501 595.284 239.832C594.708 240.163 594.249 240.627 593.908 241.224C593.577 241.821 593.412 242.504 593.412 243.272C593.412 244.04 593.577 244.723 593.908 245.32C594.249 245.917 594.708 246.381 595.284 246.712C595.871 247.043 596.516 247.208 597.22 247.208Z" fill="#3ECF8E"></path><path d="M605.25 237.544H607.41V242.456H607.537L611.729 237.544H614.338V237.672L610.194 242.408L614.77 248.872V249H612.13L608.706 244.12L607.41 245.64V249H605.25V237.544Z" fill="#3ECF8E"></path><path d="M616.171 237.544H623.435V239.592H618.331V242.248H622.923V244.296H618.331V246.952H623.435V249H616.171V237.544Z" fill="#3ECF8E"></path><path d="M625.656 237.544H629.832C630.578 237.544 631.24 237.699 631.816 238.008C632.402 238.317 632.856 238.749 633.176 239.304C633.496 239.848 633.656 240.467 633.656 241.16C633.656 241.896 633.421 242.552 632.952 243.128C632.493 243.693 631.912 244.104 631.208 244.36L631.192 244.472L634.264 248.872V249H631.784L628.824 244.696H627.816V249H625.656V237.544ZM629.816 242.712C630.306 242.712 630.706 242.563 631.016 242.264C631.325 241.965 631.48 241.587 631.48 241.128C631.48 240.691 631.33 240.317 631.032 240.008C630.744 239.699 630.349 239.544 629.848 239.544H627.816V242.712H629.816Z" fill="#3ECF8E"></path><path d="M596.981 179.076C596.981 177.971 597.877 177.076 598.981 177.076H604.792C605.897 177.076 606.792 177.971 606.792 179.076V202.057C606.792 203.161 605.897 204.057 604.792 204.057H598.981C597.877 204.057 596.981 203.161 596.981 202.057V179.076Z" fill="#3ECF8E"></path><path d="M582.264 179.076C582.264 177.971 583.16 177.076 584.264 177.076H590.075C591.18 177.076 592.075 177.971 592.075 179.076V202.057C592.075 203.161 591.18 204.057 590.075 204.057H584.264C583.16 204.057 582.264 203.161 582.264 202.057V179.076Z" fill="#3ECF8E"></path><path d="M611.698 179.076C611.698 177.971 612.594 177.076 613.698 177.076H619.509C620.614 177.076 621.509 177.971 621.509 179.076V202.057C621.509 203.161 620.614 204.057 619.509 204.057H613.698C612.594 204.057 611.698 203.161 611.698 202.057V179.076Z" fill="#3ECF8E"></path><path d="M625.415 206.509C625.967 206.509 626.415 206.957 626.415 207.509V209.189C626.415 209.741 625.967 210.189 625.415 210.189L578.358 210.189C577.806 210.189 577.358 209.741 577.358 209.189V207.509C577.358 206.957 577.806 206.509 578.358 206.509H625.415Z" fill="#3ECF8E"></path><path d="M625.415 172.17C625.967 172.17 626.415 172.618 626.415 173.17V173.623C626.415 174.175 625.967 174.623 625.415 174.623L578.358 174.623C577.806 174.623 577.358 174.175 577.358 173.623V173.17C577.358 172.618 577.806 172.17 578.358 172.17L625.415 172.17Z" fill="#3ECF8E"></path><path d="M627.868 211.415C628.42 211.415 628.868 211.863 628.868 212.415V215.321C628.868 215.873 628.42 216.321 627.868 216.321H575.906C575.353 216.321 574.906 215.873 574.906 215.321L574.906 212.415C574.906 211.863 575.353 211.415 575.906 211.415H627.868Z" fill="#3ECF8E"></path><path d="M603.16 155.211C603.44 155.078 603.765 155.082 604.042 155.222L631.275 169.052C632.213 169.528 631.874 170.943 630.822 170.943H574.441C573.374 170.943 573.048 169.497 574.012 169.04L603.16 155.211Z" fill="#3ECF8E"></path><circle cx="187" cy="287" r="15" fill="#F5F4F9"></circle><path fill-rule="evenodd" clip-rule="evenodd" d="M181.439 287.061C180.854 286.475 180.854 285.525 181.439 284.939L185.939 280.439C186.221 280.158 186.602 280 187 280C187.398 280 187.779 280.158 188.061 280.439L192.561 284.939C193.146 285.525 193.146 286.475 192.561 287.061C191.975 287.646 191.025 287.646 190.439 287.061L188.5 285.121L188.5 292.5C188.5 293.328 187.828 294 187 294C186.172 294 185.5 293.328 185.5 292.5L185.5 285.121L183.561 287.061C182.975 287.646 182.025 287.646 181.439 287.061Z" fill="#3ECF8E"></path><circle cx="470" cy="204" r="15" transform="rotate(90 470 204)" fill="#F5F4F9"></circle><path fill-rule="evenodd" clip-rule="evenodd" d="M469.939 198.439C470.525 197.854 471.475 197.854 472.061 198.439L476.561 202.939C476.842 203.221 477 203.602 477 204C477 204.398 476.842 204.779 476.561 205.061L472.061 209.561C471.475 210.146 470.525 210.146 469.939 209.561C469.354 208.975 469.354 208.025 469.939 207.439L471.879 205.5L464.5 205.5C463.672 205.5 463 204.828 463 204C463 203.172 463.672 202.5 464.5 202.5H471.879L469.939 200.561C469.354 199.975 469.354 199.025 469.939 198.439Z" fill="#3ECF8E"></path><circle cx="308" cy="103" r="15" transform="rotate(-90 308 103)" fill="#3ECF8E"></circle><path fill-rule="evenodd" clip-rule="evenodd" d="M308.061 108.561C307.475 109.146 306.525 109.146 305.939 108.561L301.439 104.061C301.158 103.779 301 103.398 301 103C301 102.602 301.158 102.221 301.439 101.939L305.939 97.4393C306.525 96.8536 307.475 96.8536 308.061 97.4393C308.646 98.0251 308.646 98.9749 308.061 99.5607L306.121 101.5L313.5 101.5C314.328 101.5 315 102.172 315 103C315 103.828 314.328 104.5 313.5 104.5L306.121 104.5L308.061 106.439C308.646 107.025 308.646 107.975 308.061 108.561Z" fill="white"></path><circle cx="602" cy="83" r="15" fill="#3ECF8E"></circle><path fill-rule="evenodd" clip-rule="evenodd" d="M596.439 83.0607C595.854 82.4749 595.854 81.5251 596.439 80.9393L600.939 76.4393C601.221 76.158 601.602 76 602 76C602.398 76 602.779 76.158 603.061 76.4393L607.561 80.9393C608.146 81.5251 608.146 82.4749 607.561 83.0607C606.975 83.6464 606.025 83.6464 605.439 83.0607L603.5 81.1213L603.5 88.5C603.5 89.3284 602.828 90 602 90C601.172 90 600.5 89.3284 600.5 88.5L600.5 81.1213L598.561 83.0607C597.975 83.6464 597.025 83.6464 596.439 83.0607Z" fill="white"></path></svg>