<svg width="53" height="58" viewBox="0 0 53 58" fill="none" xmlns="http://www.w3.org/2000/svg">
<path d="M47.1111 5.80004H44.1667V2C44.1667 0.895432 43.2713 0 42.1667 0H40.2778C39.1732 0 38.2778 0.895431 38.2778 2V5.80004H14.7222V2C14.7222 0.895432 13.8268 0 12.7222 0H10.8333C9.72874 0 8.83331 0.895431 8.83331 2V5.80004H5.88892C2.63536 5.80004 0.0295365 8.39549 0.0295365 11.6001L0 52.2C0 55.4044 2.63522 58 5.88892 58H47.1111C50.3646 58 53 55.4045 53 52.2V11.5999C52.9999 8.39549 50.3646 5.80004 47.1111 5.80004ZM47.1111 52.2H5.88892V20.2999H47.1111V52.2Z" fill="#35465B" fill-opacity="0.5"/>
<path d="M38.3374 29.0191C39.2058 28.1577 39.2058 26.7537 38.3374 25.8922C37.4789 25.0406 36.0941 25.0406 35.2356 25.8922L22.3905 38.6346L17.6875 33.9691C16.829 33.1174 15.4442 33.1174 14.5856 33.9691C13.7172 34.8305 13.7172 36.2345 14.5856 37.096L20.982 43.4412C21.7617 44.2147 23.0193 44.2147 23.799 43.4412L38.3374 29.0191Z" fill="#35465B" fill-opacity="0.5"/>
</svg>
