<svg xmlns="http://www.w3.org/2000/svg" xml:space="preserve" viewBox="0 0 1000 1000"><path fill="none" d="M0 0h1000v1000H0z"></path><g fill="#00AFB2"><path d="M851 887.7H149c-4.4 0-7.9-3.6-7.9-7.9v-582c0-4.4 3.6-7.9 7.9-7.9h702c4.4 0 7.9 3.6 7.9 7.9v582c0 4.3-3.5 7.9-7.9 7.9zm-694-15.9h686.1V305.7H157v566.1z"></path><path d="M149 305.7c-4.4 0-7.9-3.6-7.9-7.9V173.3c0-4.4 3.6-7.9 7.9-7.9h93.1c4.4 0 7.9 3.6 7.9 7.9s-3.6 7.9-7.9 7.9H157v116.5c0 4.4-3.6 8-8 8zM851 305.7c-4.4 0-7.9-3.6-7.9-7.9V181.2H758c-4.4 0-7.9-3.6-7.9-7.9s3.6-7.9 7.9-7.9h93c4.4 0 7.9 3.6 7.9 7.9v124.4c0 4.4-3.5 8-7.9 8zM632.4 181.2H364.7c-4.4 0-7.9-3.6-7.9-7.9s3.6-7.9 7.9-7.9h267.7c4.4 0 7.9 3.6 7.9 7.9s-3.5 7.9-7.9 7.9zM415.8 521.6H252.7c-4.4 0-7.9-3.6-7.9-7.9V377.5c0-4.4 3.6-7.9 7.9-7.9h163.1c4.4 0 7.9 3.6 7.9 7.9v136.1c.1 4.4-3.5 8-7.9 8zm-155.1-15.9h147.2V385.4H260.7v120.3z"></path><path d="M415.8 657.7H252.7c-4.4 0-7.9-3.6-7.9-7.9V513.7c0-4.4 3.6-7.9 7.9-7.9h163.1c4.4 0 7.9 3.6 7.9 7.9v136.1c.1 4.4-3.5 7.9-7.9 7.9zm-155.1-15.8h147.2V521.6H260.7v120.3z"></path><path d="M415.8 793.9H252.7c-4.4 0-7.9-3.6-7.9-7.9V649.8c0-4.4 3.6-7.9 7.9-7.9h163.1c4.4 0 7.9 3.6 7.9 7.9V786c.1 4.3-3.5 7.9-7.9 7.9zM260.7 778h147.2V657.7H260.7V778zM578.9 521.6H415.8c-4.4 0-7.9-3.6-7.9-7.9V377.5c0-4.4 3.6-7.9 7.9-7.9h163.1c4.4 0 7.9 3.6 7.9 7.9v136.1c.1 4.4-3.5 8-7.9 8zm-155.1-15.9H571V385.4H423.8v120.3z"></path><path d="M578.9 657.7H415.8c-4.4 0-7.9-3.6-7.9-7.9V513.7c0-4.4 3.6-7.9 7.9-7.9h163.1c4.4 0 7.9 3.6 7.9 7.9v136.1c.1 4.4-3.5 7.9-7.9 7.9zm-155.1-15.8H571V521.6H423.8v120.3z"></path><path d="M578.9 793.9H415.8c-4.4 0-7.9-3.6-7.9-7.9V649.8c0-4.4 3.6-7.9 7.9-7.9h163.1c4.4 0 7.9 3.6 7.9 7.9V786c.1 4.3-3.5 7.9-7.9 7.9zM423.8 778H571V657.7H423.8V778zM742.1 521.6H578.9c-4.4 0-7.9-3.6-7.9-7.9V377.5c0-4.4 3.6-7.9 7.9-7.9H742c4.4 0 7.9 3.6 7.9 7.9v136.1c.1 4.4-3.4 8-7.8 8zm-155.2-15.9h147.3V385.4H586.9v120.3z"></path><path d="M742.1 657.7H578.9c-4.4 0-7.9-3.6-7.9-7.9V513.7c0-4.4 3.6-7.9 7.9-7.9H742c4.4 0 7.9 3.6 7.9 7.9v136.1c.1 4.4-3.4 7.9-7.8 7.9zm-155.2-15.8h147.3V521.6H586.9v120.3z"></path><path d="M742.1 793.9H578.9c-4.4 0-7.9-3.6-7.9-7.9V649.8c0-4.4 3.6-7.9 7.9-7.9H742c4.4 0 7.9 3.6 7.9 7.9V786c.1 4.3-3.4 7.9-7.8 7.9zM586.9 778h147.3V657.7H586.9V778zM354.9 231.1H252c-4.4 0-7.9-3.6-7.9-7.9v-103c0-4.4 3.6-7.9 7.9-7.9h102.9c4.4 0 7.9 3.6 7.9 7.9v102.9c0 4.4-3.5 8-7.9 8zm-95-15.9h87v-87h-87v87zM748 231.1H645.2c-4.4 0-7.9-3.6-7.9-7.9v-103c0-4.4 3.6-7.9 7.9-7.9H748c4.4 0 7.9 3.6 7.9 7.9v102.9c.1 4.4-3.5 8-7.9 8zm-94.9-15.9h87v-87h-87v87z"></path></g></svg>