<svg xmlns="http://www.w3.org/2000/svg" xml:space="preserve" viewBox="0 0 1000 1000"><path fill="none" d="M0 0h1000v1000H0z"></path><g fill="#00AFB2"><path d="M677.8 588H337.2c-4.4 0-7.9-3.6-7.9-7.9s3.6-7.9 7.9-7.9h340.5c25 0 45.3-20.3 45.3-45.3V215.2c0-25-20.3-45.3-45.3-45.3H162.5c-25 0-45.3 20.3-45.3 45.3v311.6c0 25 20.3 45.3 45.3 45.3h50.6c4.4 0 7.9 3.6 7.9 7.9s-3.6 7.9-7.9 7.9h-50.6c-33.7 0-61.2-27.5-61.2-61.2V215.2c0-33.7 27.5-61.2 61.2-61.2h515.3c33.7 0 61.2 27.5 61.2 61.2v311.6c0 33.7-27.5 61.2-61.2 61.2zM671.1 718.5H352.6c-4.4 0-7.9-3.6-7.9-7.9s3.6-7.9 7.9-7.9h318.6c4.4 0 7.9 3.6 7.9 7.9s-3.6 7.9-8 7.9zM837.6 718.5H798c-4.4 0-7.9-3.6-7.9-7.9s3.6-7.9 7.9-7.9h39.6c25 0 45.3-20.3 45.3-45.3V345.7c0-25-20.3-45.3-45.3-45.3h-21c-4.4 0-7.9-3.6-7.9-7.9s3.6-7.9 7.9-7.9h21c33.7 0 61.2 27.5 61.2 61.2v311.6c-.1 33.6-27.5 61.1-61.2 61.1z"></path><path d="M213.4 714.8c-1 0-2-.2-3-.6-3-1.2-4.9-4.1-4.9-7.4v-124c0-4.4 3.6-7.9 7.9-7.9s7.9 3.6 7.9 7.9v104.6l110-112.4c3.1-3.1 8.1-3.2 11.2-.1 3.1 3.1 3.2 8.1.1 11.2L219.1 712.4c-1.5 1.6-3.6 2.4-5.7 2.4zM796.6 846c-2.1 0-4.1-.8-5.7-2.4L665.8 716.4c-3.1-3.1-3-8.1.1-11.2 3.2-3 8.2-3 11.2.1l111.6 113.4V711.5c0-4.4 3.6-7.9 7.9-7.9s7.9 3.6 7.9 7.9V838c0 3.2-1.9 6.1-4.9 7.3-1 .5-2 .7-3 .7zM340.3 410.9c-14.7 0-26.6-11.9-26.6-26.6s11.9-26.6 26.6-26.6 26.6 11.9 26.6 26.6-12 26.6-26.6 26.6zm0-37.3c-5.9 0-10.7 4.8-10.7 10.7 0 5.9 4.8 10.7 10.7 10.7s10.7-4.8 10.7-10.7c0-5.9-4.8-10.7-10.7-10.7zM420.8 410.9c-14.7 0-26.6-11.9-26.6-26.6s11.9-26.6 26.6-26.6 26.6 11.9 26.6 26.6-11.9 26.6-26.6 26.6zm0-37.3c-5.9 0-10.7 4.8-10.7 10.7 0 5.9 4.8 10.7 10.7 10.7s10.7-4.8 10.7-10.7c0-5.9-4.8-10.7-10.7-10.7zM504.7 410.9c-14.7 0-26.6-11.9-26.6-26.6s11.9-26.6 26.6-26.6c14.7 0 26.6 11.9 26.6 26.6s-11.9 26.6-26.6 26.6zm0-37.3c-5.9 0-10.7 4.8-10.7 10.7 0 5.9 4.8 10.7 10.7 10.7 5.9 0 10.7-4.8 10.7-10.7 0-5.9-4.8-10.7-10.7-10.7z"></path></g></svg>