<svg xmlns="http://www.w3.org/2000/svg" xml:space="preserve" viewBox="0 0 1000 1000"><path fill="none" d="M0 0h1000v1000H0z"></path><g fill="#00AFB2"><path d="M348.7 912.9c-146.4 0-265.4-119.1-265.4-265.4 0-146.4 119.1-265.4 265.4-265.4s265.4 119.1 265.4 265.4c0 146.3-119.1 265.4-265.4 265.4zm0-515c-137.7 0-249.6 112-249.6 249.6S211 897 348.7 897s249.6-111.9 249.6-249.5c-.1-137.6-112-249.6-249.6-249.6z"></path><path d="M651.4 617.9c-16.1 0-32.2-1.4-48-4.4-4.3-.8-7.2-4.9-6.4-9.2.8-4.3 5-7.4 9.2-6.4 14.9 2.7 30.1 4.1 45.2 4.1 137.6 0 249.5-111.9 249.5-249.6C900.9 214.9 789 103 651.4 103S401.8 214.9 401.8 352.5c0 13.7 1.1 27.4 3.4 40.8.7 4.3-2.2 8.4-6.5 9.1-4.2.8-8.4-2.2-9.1-6.5-2.4-14.2-3.6-28.8-3.6-43.4 0-146.3 119-265.4 265.4-265.4 146.3 0 265.4 119.1 265.4 265.4 0 146.4-119 265.4-265.4 265.4zM136.8 397c-4.4 0-7.9-3.6-7.9-7.9V247.4c0-30.4 24.7-55.1 55.1-55.1h172.8c4.4 0 7.9 3.6 7.9 7.9s-3.6 7.9-7.9 7.9H184c-21.7 0-39.3 17.6-39.3 39.3V389c0 4.5-3.5 8-7.9 8z"></path><path d="M359.2 209c-1.6 0-3.2-.5-4.6-1.4l-81.2-57.4c-3.6-2.5-4.4-7.5-1.9-11.1 2.5-3.6 7.5-4.4 11.1-1.9l81.2 57.4c3.6 2.5 4.4 7.5 1.9 11.1-1.6 2.1-4 3.3-6.5 3.3z"></path><path d="M278 265.5c-2.5 0-4.9-1.1-6.5-3.3-2.5-3.6-1.7-8.5 1.9-11.1l81.2-57.4c3.6-2.6 8.5-1.7 11.1 1.9s1.7 8.5-1.9 11.1l-81.2 57.4c-1.4 1-3 1.4-4.6 1.4zM816.1 807.7H643.2c-4.4 0-7.9-3.6-7.9-7.9s3.6-7.9 7.9-7.9H816c21.6 0 39.2-17.6 39.2-39.2V610.9c0-4.4 3.6-7.9 7.9-7.9s7.9 3.6 7.9 7.9v141.7c.2 30.4-24.5 55.1-54.9 55.1z"></path><path d="M722 864.3c-1.6 0-3.2-.5-4.6-1.4l-81.2-57.4c-3.6-2.5-4.4-7.5-1.9-11.1s7.5-4.4 11.1-1.9l81.2 57.4c3.6 2.5 4.4 7.5 1.9 11.1-1.5 2.1-4 3.3-6.5 3.3z"></path><path d="M640.9 807.7c-2.5 0-4.9-1.1-6.5-3.4-2.5-3.6-1.7-8.5 1.9-11l81.2-57.3c3.5-2.5 8.5-1.7 11 1.9 2.5 3.6 1.7 8.5-1.9 11l-81.2 57.3c-1.3 1-2.9 1.5-4.5 1.5z"></path></g></svg>