<svg xmlns="http://www.w3.org/2000/svg" width="30" height="30" fill="#00b8d9" image-rendering="optimizeQuality" shape-rendering="geometricPrecision" viewBox="0 0 6.31 6.31"><path d="M1.9 5.04h2.53c.17 0 .32-.07.44-.18.1-.12.18-.27.18-.44V1.9c0-.17-.07-.32-.18-.43a.647.647 0 0 0-.44-.18H1.9c-.17 0-.32.07-.43.18s-.18.26-.18.43v2.53c0 .17.07.32.18.44a.63.63 0 0 0 .43.18zm2.53.3H1.9c-.25 0-.48-.1-.64-.27a.915.915 0 0 1-.27-.65V1.9c0-.25.1-.48.27-.64.16-.17.4-.27.64-.27h2.53c.25 0 .48.1.65.27.16.16.27.4.27.64v2.53a.96.96 0 0 1-.27.65.96.96 0 0 1-.65.27zm-.28-2.12a.656.656 0 0 0-.23-.15c-.01 0-.02-.01-.02-.02s.01-.02.02-.03c.12-.08.17-.2.16-.4a.478.478 0 0 0-.06-.18.348.348 0 0 0-.14-.13l-.18-.08-.2-.03c-.01 0-.02-.01-.02-.03V1.8c0-.01-.02-.03-.03-.03h-.2c-.01 0-.03.02-.03.03v.35c0 .01-.01.03-.02.03h-.15s-.01 0-.02-.01c0-.01-.01-.01-.01-.02V1.8H2.8c-.02 0-.03.02-.03.03v.36c0 .01-.01.03-.03.03H2.3s-.01 0-.02.01v.23c0 .01.01.03.02.03h.16c.08 0 .13.03.14.1v1.14a.09.09 0 0 1-.1.08h-.16c-.01 0-.02.01-.03.02l-.04.25c0 .01 0 .01.01.02 0 .01.01.01.02.01h.44c.02 0 .03.01.03.03v.36c0 .02.01.03.03.03H3V4.12h.17c.01 0 .02.01.02.03v.35c0 .02.02.03.03.03h.2c.01 0 .03-.01.03-.03v-.36c0-.02.01-.03.02-.03h.2c.07-.02.14-.03.2-.06.07-.03.12-.06.16-.1.04-.03.08-.08.1-.14a1.17 1.17 0 0 0 .05-.2c.01-.15-.01-.26-.07-.35zm-1.1-.73h.12c.03 0 .06 0 .1.01.04 0 .07 0 .1.01.03 0 .06.01.1.03.03.01.06.02.08.04s.03.04.05.07c.01.03.02.06.02.1 0 .03-.01.05-.02.08-.01.02-.02.05-.04.06-.02.02-.04.03-.06.05a.69.69 0 0 1-.08.03c-.03 0-.06.01-.1.01-.02.01-.05.01-.1.01C3.2 3 3.17 3 3.15 3h-.1c-.02 0-.03-.02-.03-.03v-.45c0-.01.01-.03.03-.03zm.65 1.1a.31.31 0 0 1-.04.06.18.18 0 0 1-.07.05c-.02.02-.05.03-.07.04-.03.01-.06.01-.1.02-.03.01-.06.01-.1.01-.03.01-.06.01-.1.01h-.2C3 3.8 3 3.78 3 3.76v-.5c0-.02.01-.03.03-.03h.05c.04 0 .08-.01.1-.01.03 0 .07.01.12.01.04 0 .08.01.12.01l.1.03c.04.02.07.04.1.05.02.02.04.05.06.08s.02.07.02.1c0 .04 0 .06-.01.1z"></path></svg>