<svg xmlns="http://www.w3.org/2000/svg" width="30" height="30" fill="#ff5630" image-rendering="optimizeQuality" shape-rendering="geometricPrecision" viewBox="0 0 2.9 2.9"><path d="M1.45 2.37c.26 0 .49-.1.65-.27.17-.16.27-.39.27-.65a.921.921 0 0 0-.92-.92C1.2.53.97.64.8.8c-.16.17-.27.4-.27.65a.921.921 0 0 0 .92.92zm.75-.17c-.19.19-.46.31-.75.31S.9 2.39.7 2.2c-.19-.19-.31-.46-.31-.75S.51.9.7.7c.2-.19.46-.31.75-.31s.56.12.75.31c.19.2.31.46.31.75s-.12.56-.31.75z"></path><path d="M1.91 1.49c-.02-.03-.06-.05-.1-.07-.01-.01-.01-.02 0-.02.05-.04.08-.1.07-.18 0-.03-.01-.06-.03-.08a.09.09 0 0 0-.06-.06.114.114 0 0 0-.08-.03c-.03-.01-.06-.02-.1-.02l-.01-.01V.85L1.5.84l-.01.17-.08.01H1.4V.85L1.39.84H1.3c-.01 0-.02.01-.02.01v.17l-.22.01-.01.01v.1s.01.01.02.01h.07c.03 0 .06.02.06.05v.51c0 .03-.02.04-.04.04h-.07l-.03.12v.01l.01.01h.2l.01.17c0 .01.01.02.02.02h.09s.01-.01.01-.02v-.17h.08l.01.01v.16c0 .01 0 .02.01.02h.09c.01 0 .01-.01.01-.02V1.9c0-.01.01-.01.02-.01.03-.01.06-.01.09-.01l.09-.03c.03-.01.05-.03.07-.04a.18.18 0 0 0 .05-.07l.03-.09c0-.07-.01-.12-.04-.16zm-.5-.33h.1c.02 0 .04 0 .05.01.01 0 .02 0 .04.01.01 0 .03.01.03.02l.03.03c0 .01.01.03.01.04 0 .02-.01.03-.01.04s-.01.02-.02.03-.02.01-.03.02c-.01 0-.02.01-.03.01-.02.01-.03.01-.04.01s-.03 0-.04.01h-.09s-.01-.01-.01-.02v-.2zm.3.5c0 .02-.01.03-.02.03 0 .01-.01.02-.02.03-.02 0-.03.01-.04.01-.01.01-.03.01-.04.01-.02 0-.03.01-.04.01h-.14l-.01-.24.01-.01h.12c.03 0 .04.01.06.01.01 0 .03.01.05.01.02.01.03.02.04.02.01.01.02.02.03.04.01.01.01.03.01.05 0 .01 0 .02-.01.03z"></path></svg>