<svg width="58" height="58" viewBox="0 0 58 58" fill="none" xmlns="http://www.w3.org/2000/svg">
<path d="M56.3005 4.18608H48.8576C48.8846 3.36169 48.8996 2.53244 48.8996 1.69921C48.8996 0.760662 48.1385 0 47.2004 0H10.7997C9.86117 0 9.10051 0.760662 9.10051 1.69921C9.10051 2.53244 9.11511 3.36169 9.14211 4.18608H1.69921C0.760662 4.18608 0 4.94674 0 5.88529C0 13.499 1.98993 20.6821 5.60297 26.1121C9.17441 31.4801 13.9318 34.559 19.0705 34.8586C20.2356 36.1264 21.4676 37.16 22.7504 37.9486V45.5008H19.8998C16.4536 45.5008 13.6503 48.3045 13.6503 51.7502V54.6008H13.5295C12.591 54.6008 11.8303 55.3619 11.8303 56.3001C11.8303 57.2386 12.591 57.9993 13.5295 57.9993H44.4702C45.4087 57.9993 46.1694 57.2386 46.1694 56.3001C46.1694 55.3619 45.4087 54.6008 44.4702 54.6008H44.3494V51.7502C44.3494 48.3045 41.5457 45.5008 38.0999 45.5008H35.2493V37.9486C36.5321 37.16 37.7636 36.1264 38.9287 34.8586C44.068 34.559 48.8249 31.4801 52.3967 26.1121C56.0098 20.6821 57.9997 13.499 57.9997 5.88529C57.9997 4.94674 57.2386 4.18608 56.3005 4.18608ZM8.43233 24.2297C5.45208 19.7507 3.70109 13.8933 3.43426 7.5845H9.33194C9.94481 15.3398 11.7653 22.5079 14.6106 28.1985C15.0637 29.1047 15.5376 29.9605 16.0292 30.7672C13.203 29.6999 10.5873 27.4688 8.43233 24.2297ZM49.5674 24.2297C47.4124 27.4688 44.7968 29.6999 41.9705 30.7672C42.4626 29.9605 42.936 29.1047 43.3892 28.1985C46.2344 22.5079 48.0545 15.3398 48.6678 7.5845H54.5654C54.2986 13.8933 52.5476 19.7507 49.5674 24.2297Z" fill="#35465B" fill-opacity="0.5"/>
</svg>
