<svg xmlns="http://www.w3.org/2000/svg" width="30" height="30" fill="#9748d6" image-rendering="optimizeQuality" shape-rendering="geometricPrecision" viewBox="0 0 2.99 2.99"><path d="M1.42.93c0-.04.04-.07.07-.07.04 0 .08.03.08.07v1.01c0 .04-.04.08-.08.08-.03 0-.07-.04-.07-.08V.93z"></path><path d="M1.49 2.18c.1-.05.25-.1.42-.14.14-.03.29-.06.44-.07V.81c-.14.01-.28.03-.41.06-.17.03-.32.07-.42.11-.02.01-.04.01-.05 0C1.36.94 1.22.9 1.05.87.92.84.78.82.64.81v1.16c.15.01.3.04.44.07.17.04.32.09.41.14zm.45 0c-.18.04-.33.1-.41.14-.02.01-.05.01-.07 0-.08-.04-.23-.1-.41-.14-.16-.03-.32-.06-.48-.07-.04 0-.07-.03-.07-.07V.73C.5.69.53.66.57.66c.17.01.35.04.5.07.17.03.31.07.42.11a4.013 4.013 0 0 1 .92-.18h.01c.04 0 .07.04.07.07v1.31c0 .03-.03.07-.06.07-.16.01-.33.04-.49.07z"></path></svg>