<svg xmlns="http://www.w3.org/2000/svg" width="30" height="30" fill="#ff5630" image-rendering="optimizeQuality" shape-rendering="geometricPrecision" viewBox="0 0 5.78 5.78"><path d="M.67 3.4a.143.143 0 0 1 .02-.2.14.14 0 0 1 .19.02L1.8 4.3l.92-1.07c.05-.06.14-.06.2-.02.06.05.06.14.01.2L1.9 4.62c-.06.05-.15.04-.2-.02L.67 3.4z"></path><path d="M1.95 4.4c0 .07-.07.14-.14.14-.08 0-.14-.07-.14-.14V1.26c0-.07.06-.14.14-.14.07 0 .14.07.14.14V4.4zm1.1-1.86c-.05.05-.14.06-.2.01a.143.143 0 0 1-.02-.2l1.03-1.2c.05-.06.14-.06.2-.01.34.34.72.83 1.04 1.2a.13.13 0 0 1-.01.19c-.06.05-.15.04-.2-.01l-.93-1.08-.93 1.08z"></path><path d="M3.83 1.37c0-.08.06-.14.14-.14.07 0 .14.06.14.14V4.5c0 .08-.07.14-.14.14-.08 0-.14-.06-.14-.14V1.37z"></path></svg>