<svg xmlns="http://www.w3.org/2000/svg" width="30" height="30" fill="#00b8d9" image-rendering="optimizeQuality" shape-rendering="geometricPrecision" viewBox="0 0 2.75 2.75"><path d="M2.19.7c.04 1.13-.11 1.23-.63 1.54-.04.03-.09.06-.15.1-.02.01-.05.01-.07 0-.07-.04-.11-.07-.15-.1C.67 1.93.52 1.83.56.7.56.67.58.64.6.64L1.36.4h.03l.76.24c.02.01.04.03.04.06zm-.7 1.43c.46-.28.6-.37.57-1.38L1.37.53.69.75c-.03 1.01.11 1.1.57 1.38l.11.07.12-.07z"></path><path d="M1.04 1.32c-.03-.02-.03-.06-.01-.09s.07-.03.09-.01l.21.17.31-.33c.03-.03.07-.03.1 0 .02.02.02.06 0 .09l-.36.37c-.02.03-.06.03-.09.01l-.25-.21z"></path></svg>