<svg xmlns="http://www.w3.org/2000/svg" width="81" height="81" fill="none" viewBox="0 0 81 81"><circle cx="40.5" cy="40.5" r="40" stroke="#E0E3EB"></circle><path fill="#3ECF8E" d="M46.75 58.914H33.046a1.59 1.59 0 1 0 0 3.182h15.367a4.216 4.216 0 0 1-1.124-1.691l-.54-1.49Z"></path><path fill="#3ECF8E" fill-rule="evenodd" d="M13.425 25.734a5 5 0 0 1 5-5h45.15a5 5 0 0 1 5 5v24.999a5.001 5.001 0 0 1-2.97 4.57 4.248 4.248 0 0 0-.64-.82l-1.612-1.613c1.92-2.218 1.048-5.736-1.773-6.756L47.698 41.09c-3.381-1.223-6.656 2.051-5.432 5.433l3.333 9.21H18.426a5 5 0 0 1-5-5V25.734ZM58.5 27.098a1.59 1.59 0 1 0 0-3.182 1.59 1.59 0 0 0 0 3.182Zm-4.242 0a1.59 1.59 0 1 0 0-3.182 1.59 1.59 0 0 0 0 3.182Zm10.075-1.591a1.59 1.59 0 1 1-3.182 0 1.59 1.59 0 0 1 3.182 0Zm-15.97 3.344a1.59 1.59 0 0 1 1.124 1.948l-1.646 6.147a1.59 1.59 0 1 1-3.074-.823l1.647-6.147a1.59 1.59 0 0 1 1.949-1.125Zm-12.6 3.485a1.591 1.591 0 0 0-2.25 2.25l4.242 4.242a1.59 1.59 0 1 0 2.25-2.25l-4.243-4.242Zm-5.844 14.85a1.59 1.59 0 0 1 1.125-1.949l6.147-1.647a1.59 1.59 0 1 1 .823 3.074l-6.146 1.647a1.59 1.59 0 0 1-1.949-1.125Z" clip-rule="evenodd"></path><path fill="#3ECF8E" d="M61.716 55.733H48.982L45.258 45.44a1.06 1.06 0 0 1 1.358-1.358l13.882 5.023a1.06 1.06 0 0 1 .389 1.748l-2.026 2.025 2.855 2.855Z"></path><path fill="#9FE7C7" d="M50.281 59.322 45.258 45.44a1.06 1.06 0 0 1 1.358-1.358l13.882 5.023a1.06 1.06 0 0 1 .389 1.748l-2.026 2.025 3.854 3.854a1.06 1.06 0 0 1 0 1.5l-3.307 3.307a1.06 1.06 0 0 1-1.5 0l-3.854-3.853-2.026 2.025a1.06 1.06 0 0 1-1.747-.389Z"></path></svg>