<svg xmlns="http://www.w3.org/2000/svg" width="30" height="30" fill="#00b8d9" image-rendering="optimizeQuality" shape-rendering="geometricPrecision" viewBox="0 0 4.13 4.13"><path d="M1.44 3.25h1.75v-1.9L2.65.87H1.44v2.38zm1.84.2H1.34c-.06 0-.1-.04-.1-.1V.78c0-.06.04-.1.1-.1h1.34c.03 0 .05.01.07.02l.59.53c.03.02.04.05.04.08v2.04c0 .06-.04.1-.1.1zM1.82 1.73c-.05 0-.1-.04-.1-.09a.1.1 0 0 1 .1-.1h.98c.06 0 .1.04.1.1 0 .05-.04.09-.1.09h-.98zm0 .51c-.05 0-.1-.05-.1-.1s.05-.1.1-.1h.98a.1.1 0 0 1 0 .2h-.98zm0 .5c-.05 0-.1-.04-.1-.09a.1.1 0 0 1 .1-.1h.98c.06 0 .1.04.1.1 0 .05-.04.09-.1.09h-.98zm-.88.61c0 .06-.04.1-.1.1-.05 0-.09-.04-.09-.1V1.21c0-.05.04-.1.09-.1a.1.1 0 0 1 .1.1v2.14z"></path></svg>