<svg xmlns="http://www.w3.org/2000/svg" viewBox="0 0 1000 1000"><path fill="none" d="M0 0h1000v1000H0z"></path><g fill="#00AFB2"><path d="M489.6 514.3c-3.9 0-7.1-3.2-7.1-7.1v-30.6c0-3.9 3.2-7.1 7.1-7.1s7.1 3.2 7.1 7.1v30.6c0 3.9-3.2 7.1-7.1 7.1zm0 232.9c-3.9 0-7.1-3.2-7.1-7.1v-30.6c0-3.9 3.2-7.1 7.1-7.1s7.1 3.2 7.1 7.1v30.6c0 4-3.2 7.1-7.1 7.1z"></path><path d="M494.8 610.2h-14.9c-29.4 0-53.2-23.9-53.2-53.2s23.9-53.2 53.2-53.2h25.5c15.6 0 30.3 6.8 40.5 18.7 2.5 3 2.2 7.4-.8 10-3 2.5-7.5 2.2-10-.8-7.5-8.7-18.3-13.7-29.7-13.7h-25.5c-21.5 0-39.1 17.5-39.1 39.1s17.5 39.1 39.1 39.1h14.9c3.9 0 7.1 3.2 7.1 7.1s-3.2 6.9-7.1 6.9z"></path><path d="M500.5 713.3H472c-17.1 0-33.3-7.5-44.6-20.6-2.6-3-2.2-7.4.8-10 2.9-2.5 7.4-2.2 10 .8 8.5 9.9 20.8 15.6 33.8 15.6h28.5c24.5 0 44.5-19.9 44.5-44.5 0-24.5-19.9-44.5-44.5-44.5h-16.7c-3.9 0-7.1-3.2-7.1-7.1s3.2-7.1 7.1-7.1h16.7c32.3 0 58.7 26.3 58.7 58.7 0 32.4-26.3 58.7-58.7 58.7zm-95.6 130.4c-3.1 0-5.8-1.8-6.4-5-2.7-12.9-5.2-24.3-7.8-35-2.9-12-5.5-21.5-7.5-26.9-1.5-4.2-1.7-4.8-7.6-7.5-7.6-3.6-21.7-9-33.2-13.3l-7.4-2.7c-11.3-4.2-22.5-8.3-31.2-12-10.5-4.4-18.2-8.6-24.2-13-3.7-2.7-6.6-5.5-9-7.8-1.1-1-2-1.9-2.9-2.6-.8-.7-1.5-1.1-2.1-1.6-1.7-1.1-3.7-2.6-5.4-5.3-1.2-1.9-1.9-4.1-2.6-6.1-.4-1-.7-2.1-1.1-2.9-5.3-3.4-5.1-7.3-5-10.5l.5-11c.2-3.2.3-5.8 3.2-8.3.5-.4 1.2-1 1.9-2.1.6-1 1.6-2.9 2.6-6.6l1.2-4.8c.6-2.6 1.3-5.1 1.9-6.9 1.1-3.4 2.5-5.1 3.6-6.6 2-2.7 3.8-5.5 5.2-8.3 1.5-2.9 2.4-5.5 3.3-9.1.8-3.4 1.6-7.7 2.3-11.8l1-5.4c.3-1.5.5-2.9.8-4.2-1.2-.2-2.3-.6-3.1-1.2-3.6-2.8-2.9-6.6-2.4-9.5.5-2.6 1.4-8 1.3-20.2-.1-18.9-2.6-34.1-7.1-43.9-4.7-10.3-13.4-18.2-26.5-24.1-10.8-4.9-21.8-7.1-32.8-7.2-11.9.1-23.1 3-32.6 8.3-10.9 6.1-19 15.2-23.3 26.3-3.9 9.9-5.9 23.9-6.1 41.5-.1 11.8.7 18 1 20.9.4 3.5.8 6.3-1.8 9-.5.5-1.2 1-1.9 1.3 1.4 5.6 3.8 12.5 5.3 17 2.1 6.2 4.3 12.7 6.6 16.9 2 3.7 4.2 6 5.3 7.2 2.5 2.6 3 4 3.6 7.5.3 1.9 1 6.1 2.2 8.9 1.1 2.4 2.9 4.1 3.9 5 3 2.9 3.5 5 3.5 8.8v9.7c0 2.9 0 5.6-2.9 8.2-1 2.3-1.3 3.3-1.6 4.4-.7 2.6-1.5 5.6-2.9 8.1-2 3.7-4.9 5.6-6.8 6.8-2.1 1.4-3 2.3-4.2 3.3L152 723c-3.5 2.9-9.3 7.4-18.5 12.5-8.2 4.6-19.8 9.9-33.5 15.5-7.7 3.1-15.8 6.2-23.4 9.1-5 1.9-9.7 3.7-13.8 5.3-9.2 3.6-15 6.3-17.8 9.3-2.4 2.6-3.4 6.9-5.2 16.9-2.1 11-5 27.9-7.9 44.7-.7 3.9-4.4 6.5-8.2 5.8-3.9-.7-6.4-4.3-5.8-8.2 2.9-16.9 5.9-33.8 7.9-44.9 2.2-11.9 3.6-18.3 8.7-23.9 4.7-5 11.4-8.3 23-12.8 4.1-1.6 8.9-3.4 13.9-5.3 7.4-2.8 15.5-5.9 23.1-8.9 13.2-5.3 24.2-10.4 31.9-14.7 8.2-4.5 13.3-8.5 16.3-11l3.6-3.1c1.7-1.5 3-2.7 4.4-3.6.1 0 1.5-1 1.5-1 1.3-.9 1.7-1.1 2-1.6.6-1 1.2-3.2 1.6-5 .4-1.5.8-2.9 1.2-4 .9-2.4 1.9-4.1 2.9-5.4V680c-1.8-1.8-4.3-4.6-6.1-8.5-2.1-4.5-3-9.9-3.4-12.5-1.4-1.6-4.6-4.9-7.4-10.3-2.6-4.8-4.7-10.9-7.5-19s-5.3-15.7-6.3-20.4c-1.5-7.3.8-11 3.6-12.8-.4-3.9-.9-10.1-.8-19.7.2-19.4 2.6-35.1 7.1-46.5 5.5-14.2 15.8-25.8 29.6-33.5 11.5-6.5 25.2-10 39.4-10.1 13.8-.2 26.1 2.6 38.8 8.4 16.3 7.4 27.3 17.6 33.5 31.1 5.4 11.8 8.2 28.6 8.3 49.7.1 7.3-.3 12.6-.6 16.3 1.2.5 2.3 1.1 3 1.9 2.5 2.7 2.6 6.1 2.5 8.5-.1 2.5-.8 6.5-1.6 11l-.9 5.3c-.8 4.4-1.6 9-2.5 12.7-1.1 4.7-2.5 8.3-4.5 12.2-1.8 3.6-4.1 7.1-5.8 9.3-1.7 2.3-1.9 2.5-2.3 3.6-.5 1.5-1 3.6-1.5 5.7l-1.4 5.3c-1.2 4.3-2.6 7.7-4.3 10.3-1 1.6-2.1 2.8-2.9 3.7l-.5 9.7c1.1 1 2.4 2.5 3.4 4.5.7 1.3 1.3 3 1.9 4.7.4 1.1.9 2.7 1.3 3.3.1.2.7.6 1.4 1.1.9.6 2 1.4 3.1 2.3 1 .9 2.2 2 3.5 3.2 2.1 2 4.6 4.4 7.8 6.7 5.1 3.8 11.8 7.4 21.2 11.4 8.5 3.6 19.5 7.7 30.6 11.8l7.4 2.7c11.7 4.4 26.2 9.9 34.3 13.7 8.8 4.2 11.8 7.3 14.8 15.5 2.7 7.5 5.8 19.6 8 28.4 2.6 10.8 5.1 22.4 7.6 34 .8 3.8-1.5 8.3-5.3 9.1-.3-.2-.9-.1-1.5-.1zm570 0c-3.1 0-5.8-1.8-6.4-5-2.7-12.9-5.2-24.3-7.8-35-2.9-12-5.5-21.5-7.5-26.9-1.5-4.2-1.7-4.8-7.6-7.5-7.8-3.7-22.7-9.3-33.2-13.3l-7.3-2.7c-11.3-4.2-22.5-8.3-31.3-12-10.5-4.4-18.2-8.6-24.2-13-3.7-2.8-6.7-5.5-9.1-7.8-1.1-1-2-1.9-2.8-2.6-.8-.6-1.5-1.1-2.1-1.6-1.6-1.2-3.7-2.6-5.4-5.3-1.2-1.9-2-4.1-2.6-6.1-.4-1-.7-2.1-1.1-2.9-5.3-3.4-5.1-7.3-5-10.5l.5-11c.1-3.2.3-5.7 3.2-8.3.5-.4 1.2-1 1.9-2.1.6-1 1.6-3 2.6-6.6.5-1.6.9-3.3 1.3-5 .6-2.5 1.2-5 1.8-6.7 1.1-3.4 2.5-5.1 3.6-6.6 2-2.7 3.8-5.5 5.2-8.3 1.5-2.9 2.4-5.5 3.3-9.1.8-3.4 1.6-7.7 2.3-11.8l1-5.4c.3-1.5.5-2.9.8-4.2-1.2-.2-2.3-.5-3.1-1.2-3.6-2.8-2.9-6.6-2.5-9.5.5-2.6 1.4-8 1.3-20.2-.1-18.9-2.5-34.1-7.1-43.9-4.7-10.3-13.4-18.2-26.5-24.1-10.8-4.9-21.6-7.1-32.8-7.2-11.9.1-23.1 3-32.6 8.3-10.9 6.1-19 15.2-23.3 26.3-3.9 9.9-5.9 23.9-6.1 41.5-.1 12.1.7 18.2 1 20.9.4 3.6.8 6.4-1.8 9-.5.5-1.1 1-1.9 1.3 1.4 5.6 3.8 12.5 5.3 17 2.1 6.2 4.3 12.7 6.6 16.9 1.9 3.6 4 5.8 5.3 7.1 2.5 2.7 3.1 4.1 3.7 7.6.3 1.9 1 6.1 2.2 8.9 1.1 2.4 2.9 4.1 3.9 5.1 3 2.9 3.5 4.9 3.5 8.8v9.7c0 2.9 0 5.6-2.9 8.2-1.1 2.3-1.3 3.3-1.6 4.4-.7 2.6-1.5 5.6-2.9 8.1-2.1 3.7-4.9 5.6-6.8 6.8-2.1 1.4-3 2.2-4.2 3.3l-4 3.4c-3.5 2.9-9.3 7.4-18.5 12.5-8.2 4.6-19.8 9.9-33.5 15.5-7.7 3.1-15.8 6.2-23.4 9.1-5 1.9-9.7 3.7-13.8 5.3-9.2 3.6-15 6.3-17.8 9.3-2.4 2.6-3.3 6.7-5.2 16.9-2 11-5 27.9-7.9 44.7-.7 3.9-4.3 6.5-8.2 5.8-3.8-.7-6.4-4.3-5.8-8.2 2.9-16.9 5.9-33.8 7.9-44.9 2.2-11.9 3.6-18.3 8.7-23.9 4.7-5 11.4-8.3 23-12.8 4.1-1.6 8.9-3.4 13.9-5.3 7.4-2.8 15.5-5.9 23.1-8.9 13.2-5.3 24.2-10.4 31.9-14.7 8.2-4.5 13.3-8.5 16.3-11l3.6-3.1c1.7-1.5 3-2.6 4.4-3.6.1 0 1.5-1 1.5-1 1.3-.9 1.7-1.1 2-1.6.5-1 1.1-3.2 1.6-5 .4-1.5.8-2.9 1.2-4.1.9-2.4 1.9-4.1 2.9-5.4v-8.7c-1.8-1.8-4.3-4.6-6.1-8.5-2.1-4.5-3-9.9-3.4-12.5-1.5-1.7-4.6-5-7.4-10.3-2.6-4.8-4.7-10.9-7.5-19s-5.3-15.7-6.3-20.4c-1.5-7.3.8-11 3.6-12.8-.4-3.8-.9-10-.8-19.7.2-19.4 2.6-35.1 7.1-46.6 5.6-14.2 15.8-25.8 29.6-33.5 11.5-6.5 25.2-10 39.4-10.1h.9c13 0 25.5 2.8 37.9 8.4 16.3 7.4 27.3 17.6 33.5 31.1 5.4 11.8 8.2 28.6 8.3 49.7.1 7.3-.3 12.6-.6 16.3 1.2.5 2.3 1.2 3 1.9 2.5 2.7 2.6 6.2 2.5 8.5-.1 2.5-.8 6.5-1.6 11l-.9 5.3c-.8 4.4-1.6 9-2.5 12.7-1.1 4.7-2.5 8.3-4.5 12.2-1.8 3.6-4.1 7.1-5.8 9.3-1.7 2.3-1.9 2.5-2.3 3.6-.5 1.4-1 3.5-1.5 5.6-.5 1.8-.9 3.7-1.4 5.4-1.2 4.3-2.6 7.6-4.2 10.3-1 1.6-2 2.8-2.9 3.7l-.5 9.7c1.1 1 2.4 2.5 3.4 4.5.7 1.3 1.3 3 1.9 4.7.4 1.1.9 2.7 1.3 3.3.1.2.6.5 1.4 1.1.9.6 1.9 1.4 3.1 2.3 1.1.9 2.2 2 3.5 3.2 2.1 2 4.6 4.4 7.8 6.8 5.1 3.8 11.8 7.4 21.2 11.4 8.6 3.6 19.6 7.7 30.7 11.8l7.3 2.7c17.3 6.5 27.9 10.7 34.3 13.7 8.8 4.2 11.8 7.3 14.8 15.5 2.7 7.5 5.8 19.6 8 28.4 2.6 10.8 5.1 22.4 7.6 34 .8 3.8-1.5 8.3-5.3 9.1-.1 0-.7.1-1.3.1zM686.1 520.9c-3.3 0-6.2-2.3-6.9-5.6-2.6-12.2-5.2-24.4-7.9-35.7-2.9-12.1-5.6-21.9-7.6-27.4-1.6-4.3-1.8-4.9-7.8-7.7-6.2-2.9-16.9-7.2-33.8-13.5l-7.8-2.9c-11.4-4.2-22.7-8.4-31.5-12.1-10.6-4.5-18.4-8.7-24.6-13.3-3.7-2.8-6.7-5.6-9.2-7.9-1.1-1-2.1-2-3-2.7-.8-.7-1.5-1.2-2.2-1.6-1.7-1.2-3.7-2.6-5.4-5.3-1.2-2-2-4.2-2.6-6.1-.4-1.1-.7-2.1-1.1-3-5.4-3.5-5.2-7.4-5.1-10.6l.5-11.2c.2-3.3.3-5.7 3.1-8.3.6-.5 1.3-1.2 2-2.3.9-1.5 1.8-3.7 2.7-6.8.4-1.6.9-3.3 1.3-5 .6-2.6 1.3-5.1 1.9-6.8 1.2-3.4 2.5-5.2 3.7-6.7 2-2.7 3.9-5.6 5.4-8.5 1.5-2.9 2.5-5.6 3.4-9.3.8-3.5 1.6-7.8 2.3-12.1l.9-5.2c.3-1.6.6-3.2.8-4.6-1.2-.2-2.4-.6-3.3-1.3-3.6-2.8-2.9-6.7-2.4-9.5.5-2.6 1.4-8.1 1.4-20.6-.1-19.3-2.6-34.8-7.2-44.8-4.8-10.5-13.7-18.6-27-24.7-11-5-21.8-7.6-33.5-7.3-12.1.1-23.6 3.1-33.3 8.5-11.1 6.3-19.4 15.6-23.8 26.9-4 10.1-6.1 24.4-6.3 42.3-.1 12.1.7 18.3 1 21.3.4 3.6.8 6.4-1.8 9-.5.5-1.2 1-1.9 1.4 1.4 5.6 3.7 12.5 5.4 17.4 2.6 7.5 4.6 13.2 6.7 17.2 2 3.8 4.2 6.1 5.4 7.4 2.5 2.7 3.1 4 3.6 7.6.3 2 1 6.3 2.3 9 1.1 2.4 2.9 4.2 4 5.2 3 2.9 3.5 5 3.5 8.9v9.9c0 2.9 0 5.7-3 8.3-1 2.3-1.3 3.4-1.6 4.6-.7 2.7-1.5 5.7-2.9 8.2-2.1 3.8-5 5.7-6.9 6.9-2 1.4-3 2.2-4.2 3.3l-4.1 3.5c-3.6 3-9.4 7.5-18.9 12.8-8.5 4.7-20.3 10.1-34.1 15.7-8 3.2-16.5 6.5-24.3 9.4l-13.5 5.2c-9.4 3.7-15.3 6.4-18.2 9.5-2.4 2.7-3.5 7.1-5.3 17.2-1.9 10.4-4.6 25.9-7.4 41.8l-.7 3.8c-.7 3.9-4.4 6.4-8.2 5.8-3.9-.7-6.4-4.3-5.8-8.2l.7-3.8c2.8-15.9 5.5-31.4 7.4-41.9 2.2-12 3.6-18.6 8.8-24.3 4.7-5.1 11.6-8.4 23.4-13.1l13.7-5.2c7.7-2.9 16.1-6.1 24-9.3 13.3-5.4 24.5-10.6 32.6-15 8.4-4.7 13.5-8.7 16.7-11.2l3.7-3.2c1.7-1.5 3-2.6 4.3-3.6.1-.1 1.5-1 1.6-1 1.4-.9 1.8-1.2 2.1-1.7.5-1 1.2-3.3 1.7-5.1.4-1.5.8-3 1.2-4.2.9-2.5 1.9-4.2 2.9-5.4v-8.9c-1.9-1.9-4.4-4.7-6.2-8.7-2.1-4.5-3-10-3.4-12.7-1.3-1.6-4.6-5.1-7.6-10.6-2.6-4.9-4.8-11.1-7.6-19.3-2.9-8.6-5.4-16-6.4-20.8-1.5-7.4.9-11.1 3.7-13-.4-3.9-.9-10.2-.8-20.1.2-19.7 2.6-35.6 7.2-47.4 5.6-14.4 16-26.2 30.1-34.1 11.7-6.6 25.6-10.1 40.1-10.3 13.7-.6 26.5 2.6 39.5 8.6 16.6 7.6 27.7 17.9 34 31.7 5.5 12 8.4 29 8.5 50.6 0 7.6-.3 12.9-.7 16.7 1.2.5 2.4 1.2 3.1 1.9 2.6 2.7 2.7 6.2 2.6 8.6-.1 2.6-.9 6.8-1.7 11.5l-.9 5.1c-.8 4.6-1.6 9.2-2.5 13-1.2 4.8-2.5 8.5-4.6 12.5-1.8 3.6-4.2 7.2-5.8 9.5-1.8 2.3-2 2.6-2.4 3.7-.5 1.4-1 3.5-1.5 5.7-.5 1.9-.9 3.8-1.4 5.5-1.3 4.4-2.7 7.9-4.3 10.5-1 1.6-2.1 2.9-3 3.8l-.5 10c1.2 1 2.4 2.5 3.5 4.6.7 1.3 1.3 3 1.9 4.8.4 1.2 1 2.8 1.3 3.4.1.1.5.5 1.5 1.1.9.7 2 1.4 3.2 2.4 1.1.9 2.3 2 3.6 3.3 2.1 2 4.7 4.4 7.9 6.8 5.2 3.9 12.1 7.5 21.7 11.6 8.6 3.6 19.7 7.7 30.8 11.9l7.9 2.9c17.3 6.5 28.4 10.9 34.9 14 8.9 4.2 12 7.4 15 15.7 2.8 7.7 6 20 8.1 29 2.7 11.5 5.4 23.8 8 36.1.8 3.8-1.6 7.6-5.5 8.4-.3-.5-.8-.4-1.3-.4z"></path></g></svg>