<svg xmlns="http://www.w3.org/2000/svg" viewBox="0 0 1000 1000">
                  <path fill="none" d="M0 0h1000v1000H0z"></path>
                  <g fill="#00afb2" color="#00afb2">
                    <path d="M500.2 534.5c-3.9 0-7.1-3.2-7.1-7.1V194.7c0-3.9 3.2-7.1 7.1-7.1s7.1 3.2 7.1 7.1v332.7c0 3.9-3.2 7.1-7.1 7.1z"></path>
                    <path d="M582.6 291.9c-2.1 0-4.2-.9-5.5-2.7l-81.2-101.8c-2.4-3.1-1.9-7.5 1.1-10 3-2.4 7.5-2 10 1.1l81.2 101.8c2.4 3.1 1.9 7.5-1.1 10-1.4 1.1-2.9 1.6-4.5 1.6z"></path>
                    <path d="M417.5 291.9c-1.6 0-3.1-.5-4.4-1.6-3.1-2.4-3.6-6.9-1.1-10l81.2-101.8c2.4-3.1 6.9-3.5 10-1.1 3.1 2.4 3.6 6.9 1.1 10L423 289.2c-1.4 1.8-3.5 2.7-5.5 2.7zm83.9 251.9c-1.6 0-3.1-.5-4.4-1.6-3.1-2.4-3.6-6.9-1.1-10l81.2-101.8c2.4-3.1 7-3.5 10-1.1 3.1 2.4 3.6 6.9 1.1 10L507 541.2c-1.4 1.7-3.5 2.6-5.6 2.6z"></path>
                    <path d="M498.6 543.8c-2.1 0-4.2-.9-5.5-2.7l-81.2-101.8c-2.4-3.1-1.9-7.5 1.1-10 3-2.4 7.5-2 10 1.1l81.2 101.8c2.4 3.1 1.9 7.5-1.1 10-1.3 1.1-2.9 1.6-4.5 1.6z"></path>
                    <path d="M887.8 824.1H112c-9.1 0-17.5-3.7-23.6-10.4-6.7-7.3-10.1-17.4-9.2-27.9l31-391.4c1.4-18 17.1-32.7 35-32.7h297.6c3.9 0 7.1 3.2 7.1 7.1s-3.2 7.1-7.1 7.1H145.1c-10.5 0-20 9-20.9 19.6l-31 391.4c-.5 6.6 1.5 12.8 5.5 17.2 3.5 3.7 8.2 5.8 13.2 5.8h775.8c5.2 0 9.9-2.1 13.5-5.9 4.1-4.4 6.1-10.6 5.6-17.1l-29.9-391.4c-.8-10.6-10.4-19.6-21-19.6H547.8c-3.9 0-7.1-3.2-7.1-7.1s3.2-7.1 7.1-7.1H856c18 0 33.8 14.7 35.1 32.7L921 785.8c.8 10.4-2.6 20.5-9.3 27.8-6.3 6.7-14.8 10.5-23.9 10.5z"></path>
                    <path d="M889.4 591H111c-3.9 0-7.1-3.2-7.1-7.1s3.2-7.1 7.1-7.1h778.3c3.9 0 7.1 3.2 7.1 7.1s-3.1 7.1-7 7.1zM286.5 751.7h-133c-3.9 0-7.1-3.2-7.1-7.1s3.2-7.1 7.1-7.1h133c3.9 0 7.1 3.2 7.1 7.1s-3.2 7.1-7.1 7.1zm182 0h-133c-3.9 0-7.1-3.2-7.1-7.1s3.2-7.1 7.1-7.1h133c3.9 0 7.1 3.2 7.1 7.1s-3.2 7.1-7.1 7.1zm209.7 27.7c-44.6 0-81.5-38.4-82.4-85.5-.4-23.3 7.9-44.8 23.5-60.7 14.4-14.7 33.6-22.8 53.9-22.8 43.2 0 80.1 37.2 82.3 83 1.1 23.5-7.2 46.3-22.7 62.5-14.5 15.2-33.8 23.5-54.6 23.5zm-5-154.8c-16.5 0-32 6.6-43.8 18.5-12.9 13.1-19.8 31.1-19.5 50.5.7 39.5 31.3 71.6 68.2 71.6 16.8 0 32.6-6.8 44.3-19.1 12.8-13.4 19.7-32.4 18.8-52.1-1.6-38.2-32.2-69.4-68-69.4z"></path>
                    <path d="M776.7 779.4c-44.5 0-82.1-38.3-83.8-85.4-.9-23.2 7.1-44.8 22.4-60.7 14.2-14.7 33.2-22.8 53.6-22.8 43.2 0 80.8 37.2 83.7 82.9 1.5 23.5-6.4 46.3-21.6 62.6-14.2 15.1-33.5 23.4-54.3 23.4zm-7.8-154.8c-16.5 0-31.9 6.6-43.4 18.5-12.6 13.1-19.2 31-18.5 50.4 1.5 39.6 32.7 71.7 69.7 71.7 16.8 0 32.4-6.8 43.9-19 12.6-13.4 19.1-32.4 17.8-52-2.5-38.4-33.7-69.6-69.5-69.6z"></path>
                  </g>
                </svg>