<svg xmlns="http://www.w3.org/2000/svg" width="30" height="30" fill="#9748d6" image-rendering="optimizeQuality" shape-rendering="geometricPrecision" viewBox="0 0 3.74 3.74"><path d="M.83 2.89h2.08c.03 0 .06-.01.07-.03.02-.02.04-.05.04-.08V1.49c0-.03-.02-.05-.04-.07a.084.084 0 0 0-.07-.04H.83c-.03 0-.05.02-.07.04s-.04.04-.04.07v1.29c0 .03.02.06.04.08s.04.03.07.03zm2.08.18H.83a.28.28 0 0 1-.2-.08.323.323 0 0 1-.08-.21V1.49a.28.28 0 0 1 .08-.2.28.28 0 0 1 .2-.08h2.08a.28.28 0 0 1 .2.08.28.28 0 0 1 .08.2v1.29c0 .08-.03.15-.08.21a.28.28 0 0 1-.2.08z"></path><path d="M2.47 2.3c.03 0 .07-.02.09-.04.02-.03.04-.06.04-.09 0-.04-.02-.07-.04-.1a.149.149 0 0 0-.09-.04c-.04 0-.07.02-.09.04-.03.03-.04.06-.04.1 0 .03.01.06.04.09.02.02.05.04.09.04zm.22.08a.31.31 0 0 1-.22.09c-.09 0-.16-.03-.22-.09a.272.272 0 0 1-.09-.21c0-.09.03-.17.09-.22.06-.06.13-.09.22-.09.08 0 .16.03.22.09.05.05.09.13.09.22 0 .08-.04.16-.09.21zM1.27 1.36c-.04.02-.1.01-.12-.04a.095.095 0 0 1 .03-.12l.93-.52c.04-.02.09-.01.11.02l.48.52c.03.04.03.09-.01.12-.04.04-.09.04-.13 0L2.14.87l-.87.49z"></path></svg>