<svg xmlns="http://www.w3.org/2000/svg" width="30" height="30" fill-rule="evenodd" image-rendering="optimizeQuality" shape-rendering="geometricPrecision" viewBox="0 0 4.19 4.19"><g fill="#69f" fill-rule="nonzero"><path d="M2.16 2.95c.06 0 .1.05.1.1 0 .06-.04.1-.1.1H.91a.4.4 0 0 1-.26-.1v-.01a.355.355 0 0 1-.1-.25V1.4c0-.1.04-.19.1-.25l.01-.01c.07-.06.15-.1.25-.1h2.37c.1 0 .19.04.25.11.07.06.11.15.11.25v1.03c0 .06-.04.1-.1.1-.06 0-.1-.04-.1-.1V1.4a.16.16 0 0 0-.05-.11.16.16 0 0 0-.11-.05H.91a.21.21 0 0 0-.11.04v.01a.16.16 0 0 0-.05.11v1.39c0 .05.02.08.04.11l.01.01c.02.02.06.04.11.04h1.25z"></path><path d="M.73 2.13a.1.1 0 0 1-.1-.1c0-.05.05-.1.1-.1h2.74a.1.1 0 0 1 .1.1c0 .06-.04.1-.1.1H.73zm.39.54c-.05 0-.1-.05-.1-.1a.1.1 0 0 1 .1-.1h.82a.1.1 0 0 1 .1.1c0 .05-.05.1-.1.1h-.82z"></path></g><path fill="#6485f9" d="m2.86 2.45.03.02c.05.04.11.04.16 0l.04-.02c.04-.03.09-.04.13-.02.05.02.08.06.09.11v.04c.01.06.06.1.12.11l.04.01c.05.01.09.04.11.08.02.05.01.1-.02.14l-.02.03c-.04.05-.04.12 0 .16l.02.04c.03.04.04.09.02.13-.02.05-.06.08-.11.09h-.04c-.06.01-.11.06-.12.12v.04c-.01.05-.04.09-.09.11-.04.02-.09.01-.13-.02l-.04-.02c-.04-.04-.11-.04-.16 0l-.03.02a.14.14 0 0 1-.14.02.155.155 0 0 1-.08-.11l-.01-.04c-.01-.06-.05-.11-.11-.11l-.05-.01a.147.147 0 0 1-.1-.09c-.02-.04-.01-.09.01-.13l.03-.03c.04-.05.04-.12 0-.17l-.03-.03a.17.17 0 0 1-.01-.14c.02-.04.06-.07.1-.08l.05-.01c.06-.01.1-.05.11-.11l.01-.04c.01-.05.04-.09.08-.11.05-.02.1-.01.14.02zm.23.88c.16-.07.24-.26.17-.42-.06-.16-.25-.23-.41-.17-.16.07-.24.25-.17.41.07.17.25.24.41.18z"></path></svg>