<svg xmlns="http://www.w3.org/2000/svg" viewBox="0 0 1000 1000"><path fill="none" d="M0 0h1000v1000H0z"></path><g fill="#FFF"><path d="M323.7 679.3c-1.8 0-3.7-.7-5-2.1-2-2-2.6-4.9-1.6-7.5l58-151.6c1.4-3.7 5.6-5.5 9.2-4.1 3.6 1.4 5.5 5.5 4.1 9.1L336 659.8l138.4-53.2c3.6-1.4 7.8.4 9.2 4.1 1.4 3.6-.4 7.8-4.1 9.2l-153.2 58.9c-.9.3-1.8.5-2.6.5z"></path><path d="M478.5 618.8c-1.8 0-3.6-.7-5-2.1l-93.9-93.9c-1.3-1.3-2.1-3.1-2.1-5s.7-3.7 2.1-5L738.2 154c2.7-2.8 7.3-2.8 10 0l93.9 93.9c1.3 1.3 2.1 3.1 2.1 5s-.7 3.7-2.1 5L483.5 616.7c-1.4 1.4-3.2 2.1-5 2.1zm-84-101 83.9 83.9L827.2 253l-83.9-83.9-348.8 348.7zM392 647.4c-1.8 0-3.6-.7-5-2.1l-39.6-39.7c-2.8-2.8-2.8-7.3 0-10 2.7-2.8 7.3-2.8 10 0l39.6 39.7c2.8 2.8 2.8 7.3 0 10-1.4 1.4-3.2 2.1-5 2.1z"></path><path d="M798.5 297.2c-1.8 0-3.6-.7-5-2.1l-87.6-87.7c-2.8-2.8-2.8-7.3 0-10 2.7-2.8 7.3-2.8 10 0l87.6 87.7c2.8 2.8 2.8 7.3 0 10-1.4 1.4-3.2 2.1-5 2.1zM676.1 848H239.9c-46.4 0-84.1-37.7-84.1-84V327.8c0-46.4 37.7-84.1 84.1-84.1H592c3.9 0 7.1 3.2 7.1 7.1s-3.2 7.1-7.1 7.1H239.9c-38.5 0-69.9 31.3-69.9 69.9V764c0 38.5 31.3 69.9 69.9 69.9h436.2c38.5 0 69.9-31.3 69.9-69.9V396.8c0-3.9 3.2-7.1 7.1-7.1s7.1 3.2 7.1 7.1V764c-.1 46.4-37.8 84-84.1 84z"></path><path d="M674.3 804.1H241.6c-23.1 0-41.8-18.8-41.8-41.9V329.5c0-23.1 18.8-41.9 41.8-41.9h306.2c3.9 0 7.1 3.2 7.1 7.1s-3.2 7.1-7.1 7.1H241.6c-15.3 0-27.7 12.4-27.7 27.7v432.7c0 15.3 12.4 27.7 27.7 27.7h432.7c15.3 0 27.7-12.4 27.7-27.7V439.5c0-3.9 3.2-7.1 7.1-7.1s7.1 3.2 7.1 7.1v322.8c0 23-18.8 41.8-41.9 41.8z"></path></g></svg>