<svg xmlns="http://www.w3.org/2000/svg" width="30" height="30" fill="#24d67e" image-rendering="optimizeQuality" shape-rendering="geometricPrecision" viewBox="0 0 5.47 5.47"><path d="m2.73 2.8 1.78-.7-1.78-.7-1.77.7 1.77.7zm1.97-.5-1.9.75c-.02.01-.05.02-.08.02a.31.31 0 0 1-.08-.02L.77 2.3a.272.272 0 0 1-.1-.08.201.201 0 0 1-.04-.13c0-.04.01-.08.04-.12.02-.03.05-.06.1-.08l1.9-.76c.03-.01.06-.01.08-.01.03 0 .06 0 .08.01l1.9.76c.04.02.08.05.1.08.02.04.04.08.04.12 0 .05-.02.1-.04.13s-.05.05-.1.07v.01z"></path><path d="M.9 2.3c0-.07.06-.13.13-.13s.13.06.13.13v1c0 .07-.06.13-.13.13S.9 3.38.9 3.3v-1zm2.82.7c0-.08.06-.13.13-.13s.13.05.13.13v.6c0 .23-.15.43-.4.57-.22.13-.53.2-.86.2s-.63-.08-.85-.2c-.24-.14-.4-.34-.4-.57V3c0-.07.05-.13.13-.13.07 0 .13.06.13.13v.57c0 .13.1.25.26.35a1.53 1.53 0 0 0 .72.17c.3 0 .54-.07.73-.17.16-.1.26-.22.26-.35V3z"></path></svg>