<svg xmlns="http://www.w3.org/2000/svg" width="30" height="30" fill="#ff5630" image-rendering="optimizeQuality" shape-rendering="geometricPrecision" viewBox="0 0 2.28 2.28"><path d="M1.37 1.14 1.01.93v.42l.36-.21zM1.04.81l.42.25.03.03c.01.02.01.03.01.05 0 .01 0 .02-.01.04-.01.01-.02.03-.03.03l-.42.25c-.02.01-.03.01-.05.01-.01 0-.03 0-.04-.01-.02 0-.03-.02-.03-.03a.076.076 0 0 1-.02-.04v-.5C.9.88.91.86.91.85h.01C.92.83.93.82.95.81.96.81.98.8.99.8c.02 0 .03.01.05.01z"></path><path d="M.75 1.64h.78c.06 0 .13-.03.17-.07.05-.05.07-.11.07-.18V.88c0-.06-.02-.13-.07-.17a.26.26 0 0 0-.17-.07H.75C.68.64.62.67.58.71H.57C.53.76.5.82.5.88v.51c0 .07.03.13.08.18.04.04.1.07.17.07zm.78.11H.75c-.1 0-.19-.04-.25-.11a.325.325 0 0 1-.11-.25V.88C.39.79.43.7.5.64V.63C.56.57.65.53.75.53h.78c.09 0 .18.04.25.1.06.07.1.16.1.25v.51a.358.358 0 0 1-.35.36z"></path></svg>