<svg xmlns="http://www.w3.org/2000/svg" viewBox="0 0 1000 1000"><path fill="none" d="M0 0h1000v1000H0z"></path><g fill="#FFF"><path d="M500 711.1c-117 0-212.2-95.2-212.2-212.2 0-117 95.2-212.2 212.2-212.2s212.2 95.2 212.2 212.2c0 116.9-95.2 212.2-212.2 212.2zm0-410.3c-109.2 0-198.1 88.8-198.1 198C302 608 390.8 696.9 500 696.9S698.1 608 698.1 498.8c0-109.2-88.9-198-198.1-198z"></path><path d="M500 300.8c-3.9 0-7.1-3.2-7.1-7.1v-95.3c0-3.9 3.2-7.1 7.1-7.1s7.1 3.2 7.1 7.1v95.3c0 3.9-3.2 7.1-7.1 7.1zm0 507.9c-3.9 0-7.1-3.2-7.1-7.1v-95.3c0-3.9 3.2-7.1 7.1-7.1s7.1 3.2 7.1 7.1v95.3c0 3.9-3.2 7.1-7.1 7.1z"></path><path d="M500 203.7c-47 0-85.3-38.3-85.3-85.3S453 33.1 500 33.1s85.3 38.3 85.3 85.3-38.3 85.3-85.3 85.3zm0-156.4c-39.2 0-71.1 31.9-71.1 71.1 0 39.2 31.9 71.1 71.1 71.1s71.1-31.9 71.1-71.1c0-39.2-31.9-71.1-71.1-71.1zm0 919.6c-47 0-85.3-38.3-85.3-85.3s38.3-85.3 85.3-85.3 85.3 38.3 85.3 85.3-38.3 85.3-85.3 85.3zm0-156.4c-39.2 0-71.1 31.9-71.1 71.1s31.9 71.1 71.1 71.1 71.1-31.9 71.1-71.1-31.9-71.1-71.1-71.1zM354.1 361.2c-1.8 0-3.6-.7-5-2.1l-67.4-67.4c-2.8-2.8-2.8-7.3 0-10 2.8-2.8 7.2-2.8 10 0l67.4 67.4c2.8 2.8 2.8 7.3 0 10-1.3 1.4-3.1 2.1-5 2.1zm359.2 359.2c-1.8 0-3.6-.7-5-2.1l-67.4-67.4c-2.8-2.8-2.8-7.3 0-10 2.8-2.8 7.3-2.8 10 0l67.4 67.4c2.8 2.8 2.8 7.3 0 10-1.4 1.4-3.2 2.1-5 2.1z"></path><path d="M230.2 315.5c-22.8 0-44.2-8.9-60.3-25-33.2-33.3-33.2-87.4 0-120.6 33.2-33.3 87.4-33.2 120.6 0 33.3 33.3 33.3 87.4 0 120.6-16.1 16.1-37.5 25-60.3 25zm0-156.4c-18.2 0-36.4 6.9-50.3 20.8-27.7 27.7-27.7 72.9 0 100.6 13.4 13.4 31.3 20.8 50.3 20.8s36.9-7.4 50.3-20.8c27.7-27.7 27.7-72.9 0-100.6-13.9-13.9-32.1-20.8-50.3-20.8zm55.3 126.4h.2-.2zm484.4 569.6c-21.8 0-43.7-8.3-60.3-25-33.3-33.3-33.3-87.4 0-120.6 16.1-16.1 37.5-25 60.3-25 22.8 0 44.2 8.9 60.3 25 33.2 33.2 33.2 87.4 0 120.6-16.7 16.7-38.5 25-60.3 25zm0-156.4c-19 0-36.9 7.4-50.3 20.8-27.7 27.7-27.7 72.9 0 100.6s72.9 27.7 100.6 0c27.7-27.7 27.7-72.9 0-100.6-13.5-13.4-31.3-20.8-50.3-20.8zm-55.3 15.8h.2-.2zM293.7 507.1h-95.3c-3.9 0-7.1-3.2-7.1-7.1s3.2-7.1 7.1-7.1h95.3c3.9 0 7.1 3.2 7.1 7.1s-3.2 7.1-7.1 7.1zm507.9 0h-95.3c-3.9 0-7.1-3.2-7.1-7.1s3.2-7.1 7.1-7.1h95.3c3.9 0 7.1 3.2 7.1 7.1s-3.2 7.1-7.1 7.1z"></path><path d="M118.4 585.3c-47 0-85.3-38.3-85.3-85.3s38.3-85.3 85.3-85.3 85.3 38.3 85.3 85.3-38.3 85.3-85.3 85.3zm0-156.4c-39.2 0-71.1 31.9-71.1 71.1s31.9 71.1 71.1 71.1 71.1-31.9 71.1-71.1-31.9-71.1-71.1-71.1zm763.2 156.4c-47 0-85.3-38.3-85.3-85.3s38.3-85.3 85.3-85.3 85.3 38.3 85.3 85.3-38.2 85.3-85.3 85.3zm0-156.4c-39.2 0-71.1 31.9-71.1 71.1s31.9 71.1 71.1 71.1 71.1-31.9 71.1-71.1-31.8-71.1-71.1-71.1zM286.8 720.3c-1.8 0-3.6-.7-5-2.1-2.8-2.8-2.8-7.3 0-10l67.4-67.4c2.8-2.8 7.3-2.8 10 0 2.8 2.8 2.8 7.3 0 10l-67.4 67.4c-1.4 1.5-3.2 2.1-5 2.1zm359.1-359.1c-1.8 0-3.6-.7-5-2.1-2.8-2.8-2.8-7.3 0-10l67.4-67.4c2.8-2.8 7.3-2.8 10 0 2.8 2.8 2.8 7.3 0 10l-67.4 67.4c-1.4 1.4-3.2 2.1-5 2.1z"></path><path d="M230.2 855.1c-21.8 0-43.7-8.3-60.3-24.9-33.3-33.3-33.3-87.4 0-120.6 33.2-33.3 87.4-33.2 120.6 0 33.3 33.3 33.3 87.4 0 120.6-16.6 16.6-38.5 24.9-60.3 24.9zm0-156.4c-18.2 0-36.4 6.9-50.3 20.8-27.7 27.7-27.7 72.9 0 100.6 27.7 27.7 72.8 27.7 100.6 0 27.7-27.7 27.7-72.9 0-100.6-13.9-13.8-32.1-20.8-50.3-20.8zm539.7-383.3c-21.8 0-43.7-8.3-60.3-25-33.2-33.3-33.2-87.4 0-120.6 33.2-33.3 87.3-33.3 120.6 0 33.3 33.2 33.3 87.4 0 120.6-16.7 16.7-38.5 25-60.3 25zm-50.3-34.9c27.7 27.7 72.9 27.7 100.6 0 27.7-27.7 27.7-72.9 0-100.6-27.7-27.7-72.9-27.7-100.6 0-27.8 27.7-27.8 72.8 0 100.6z"></path></g></svg>