<svg xmlns="http://www.w3.org/2000/svg" width="30" height="30" fill-rule="evenodd" image-rendering="optimizeQuality" shape-rendering="geometricPrecision" viewBox="0 0 1.86 1.86"><path fill="#ffab00" fill-rule="nonzero" d="M.83.39.56.95H.9c.02 0 .04.02.04.04v.02l-.09.31.44-.54H.97C.94.78.92.76.92.74c0-.01 0-.02.01-.03l.21-.32H.83zM.44.97.76.33C.77.31.78.3.8.3h.42c.01 0 .02.01.03.01.02.02.02.04.01.06l-.21.32h.33c.01 0 .02 0 .03.01.02.01.02.04.01.06l-.64.78c-.01.02-.03.02-.04.02C.71 1.55.7 1.53.71 1.5l.13-.46H.48s-.01 0-.02-.01A.048.048 0 0 1 .44.97z"></path></svg>