<svg xmlns="http://www.w3.org/2000/svg" width="30" height="30" fill="#6485f9" image-rendering="optimizeQuality" shape-rendering="geometricPrecision" viewBox="0 0 3 3"><path d="M.78 2.56h.78c.01 0 .02 0 .02-.01.01-.01.01-.01.01-.02V.93c0-.01 0-.02-.01-.03 0-.01-.01-.01-.02-.01H.78C.77.89.76.89.75.9.75.91.74.92.74.93v1.6c0 .01.01.01.01.02.01.01.02.01.03.01zm.78.14H.78a.21.21 0 0 1-.13-.05.185.185 0 0 1-.05-.12V.93A.19.19 0 0 1 .65.8.21.21 0 0 1 .78.75h.78c.05 0 .09.02.12.05.04.03.06.08.06.13v1.6c0 .04-.02.09-.06.12-.03.03-.07.05-.12.05zm.34-.45c-.03 0-.07-.03-.07-.07s.04-.07.07-.07h.32c.01 0 .02 0 .03-.01 0 0 .01-.01.01-.02V.47c0-.01 0-.02-.01-.02-.01-.01-.02-.01-.03-.01h-.78c-.01 0-.02 0-.02.01-.01 0-.01.01-.01.02v.11c0 .04-.03.07-.07.07S1.26.62 1.26.58V.47c0-.05.03-.09.06-.13.03-.02.08-.04.12-.04h.78c.05 0 .09.02.13.04.03.04.05.08.05.13v1.61a.19.19 0 0 1-.05.13c-.04.03-.08.04-.13.04H1.9z"></path></svg>