<svg width="92" height="92" viewBox="0 0 92 92" fill="none" xmlns="http://www.w3.org/2000/svg">
<path d="M68.4888 29.0056V38.3334H48.2999C44.7221 38.3334 41.911 41.2723 41.911 44.7223V45.7445C39.611 46.2556 37.8221 48.3001 37.8221 50.7279V58.3945H21.211C18.3999 58.3945 16.0999 56.0945 16.0999 53.2834V29.0056C16.0999 26.1945 18.3999 23.8945 21.211 23.8945H63.3777C66.1888 23.8945 68.4888 26.1945 68.4888 29.0056Z" fill="#3ECF8E"/>
<path d="M23.1277 31.5611C24.1862 31.5611 25.0443 30.703 25.0443 29.6444C25.0443 28.5859 24.1862 27.7278 23.1277 27.7278C22.0691 27.7278 21.211 28.5859 21.211 29.6444C21.211 30.703 22.0691 31.5611 23.1277 31.5611Z" fill="white"/>
<path d="M28.2388 31.5611C29.2973 31.5611 30.1555 30.703 30.1555 29.6444C30.1555 28.5859 29.2973 27.7278 28.2388 27.7278C27.1802 27.7278 26.3221 28.5859 26.3221 29.6444C26.3221 30.703 27.1802 31.5611 28.2388 31.5611Z" fill="white"/>
<path d="M33.3499 31.5611C34.4084 31.5611 35.2666 30.703 35.2666 29.6444C35.2666 28.5859 34.4084 27.7278 33.3499 27.7278C32.2914 27.7278 31.4332 28.5859 31.4332 29.6444C31.4332 30.703 32.2914 31.5611 33.3499 31.5611Z" fill="white"/>
<path d="M74.8777 44.7222V59.8C74.8777 61.9722 73.2166 63.6334 71.0444 63.6334H54.6889V50.7278C54.6889 47.9167 52.3889 45.6167 49.5777 45.6167H44.4666V44.7222C44.4666 42.55 46.1277 40.8889 48.3 40.8889H71.0444C73.2166 40.8889 74.8777 42.6778 74.8777 44.7222Z" fill="#3ECF8E" fill-opacity="0.5"/>
<path d="M52.1333 50.7279V64.7835V64.9112C52.1333 65.4224 52.0055 65.8057 51.7499 66.189C51.2388 66.8279 50.4721 67.339 49.7054 67.339H42.9332C41.5277 67.339 40.3777 66.189 40.3777 64.7835V50.7279C40.3777 49.7057 41.0166 48.8113 41.911 48.4279C42.2944 48.3001 42.5499 48.1724 42.9332 48.1724H49.5777C50.9833 48.1724 52.1333 49.3224 52.1333 50.7279Z" fill="#3ECF8E"/>
</svg>
