 <svg xmlns="http://www.w3.org/2000/svg" viewBox="0 0 1000 1000">
                <path fill="none" d="M0 0h1000v1000H0z"></path>
                <g fill="#00afb2" color="#00afb2">
                  <path d="M849.4 747.7H150.6c-20.9 0-37.9-17-37.9-37.8V290.2c0-20.9 17-37.9 37.9-37.9h698.8c20.9 0 37.8 17 37.8 37.9v419.7c.1 20.8-16.9 37.8-37.8 37.8zM150.6 266.5c-13 0-23.7 10.6-23.7 23.7v419.7c0 13 10.6 23.7 23.7 23.7h698.8c13 0 23.7-10.6 23.7-23.7V290.2c0-13-10.6-23.7-23.7-23.7H150.6z"></path>
                  <path d="M166 381.8c-3.9 0-7.1-3.2-7.1-7.1v-68.1c0-3.9 3.2-7.1 7.1-7.1h68.1c3.9 0 7.1 3.2 7.1 7.1s-3.2 7.1-7.1 7.1h-61v61c0 4-3.2 7.1-7.1 7.1zm665.8 0c-3.9 0-7.1-3.2-7.1-7.1v-61h-61c-3.9 0-7.1-3.2-7.1-7.1s3.2-7.1 7.1-7.1h68.1c3.9 0 7.1 3.2 7.1 7.1v68.1c0 4-3.1 7.1-7.1 7.1zM166 746.6c-3.9 0-7.1-3.2-7.1-7.1V689c0-3.9 3.2-7.1 7.1-7.1s7.1 3.2 7.1 7.1v50.5c0 3.9-3.1 7.1-7.1 7.1zm665.8-121.9H667c-3.9 0-7.1-3.2-7.1-7.1s3.2-7.1 7.1-7.1h164.8c3.9 0 7.1 3.2 7.1 7.1s-3.1 7.1-7.1 7.1zm0 53.8H635.2c-3.9 0-7.1-3.2-7.1-7.1s3.2-7.1 7.1-7.1h196.7c3.9 0 7.1 3.2 7.1 7.1s-3.2 7.1-7.2 7.1zM878 470.8H531.2c-3.9 0-7.1-3.2-7.1-7.1s3.2-7.1 7.1-7.1H878c3.9 0 7.1 3.2 7.1 7.1s-3.2 7.1-7.1 7.1zm-586.7 0H121c-3.9 0-7.1-3.2-7.1-7.1s3.2-7.1 7.1-7.1h170.3c3.9 0 7.1 3.2 7.1 7.1s-3.2 7.1-7.1 7.1zM878 551H370.4c-3.9 0-7.1-3.2-7.1-7.1s3.2-7.1 7.1-7.1H878c3.9 0 7.1 3.2 7.1 7.1s-3.2 7.1-7.1 7.1z"></path>
                  <path d="M292.4 473c-3.9 0-7.1-3.2-7.1-7.1V260.5c0-3.9 3.2-7.1 7.1-7.1s7.1 3.2 7.1 7.1V466c0 3.9-3.2 7-7.1 7zm0 269.2c-3.9 0-7.1-3.2-7.1-7.1V547.2c0-3.9 3.2-7.1 7.1-7.1s7.1 3.2 7.1 7.1v187.9c0 3.9-3.2 7.1-7.1 7.1zm75.8-304.3c-3.9 0-7.6-3.2-7.6-7.1 0-1.1.2-2.1.5-3V260.5c0-3.9 3.2-7.1 7.1-7.1s7.1 3.2 7.1 7.1v170.3c0 3.9-3.2 7.1-7.1 7.1zm0 304.3c-3.9 0-7.1-3.2-7.1-7.1V531.8c0-3.9 3.2-7.1 7.1-7.1s7.1 3.2 7.1 7.1v203.3c0 3.9-3.2 7.1-7.1 7.1z"></path>
                  <path d="M308.5 570.5c-1.6 0-3.1-.2-4.6-.6-4.4-1.2-8-4.1-10.2-8l-35.2-62.6c-4.6-8.1-1.7-18.5 6.5-23.1l82.2-46.2c8.1-4.6 18.5-1.7 23.1 6.5l35.2 62.6c4.6 8.2 1.7 18.5-6.5 23.1l-82.2 46.2c-2.6 1.4-5.4 2.1-8.3 2.1zm-36.6-82c-1.3.7-1.8 2.5-1.1 3.8l35.2 62.6c.5.9 1.3 1.2 1.7 1.3.4.1 1.3.2 2.1-.2l82.2-46.2c1.3-.7 1.8-2.5 1.1-3.8l-35.2-62.6c-.7-1.3-2.4-1.8-3.8-1.1l-82.2 46.2z"></path>
                  <path d="M383.1 478c-2.5 0-4.8-1.3-6.2-3.6-2-3.4-.8-7.7 2.6-9.7l57.4-33.1c3.4-2 7.7-.8 9.7 2.6 2 3.4.8 7.7-2.6 9.7L386.7 477c-1.2.7-2.4 1-3.6 1zm-159.7 89.7c-2.5 0-4.8-1.3-6.2-3.6-2-3.4-.8-7.7 2.6-9.7l57.4-33.1c3.4-1.9 7.7-.8 9.7 2.6 2 3.4.8 7.7-2.6 9.7L227 566.8c-1.1.6-2.4.9-3.6.9z"></path>
                  <path d="M491.9 513c-2.7 0-5.9 0-9.8-.1-15.5-.3-42.7-1-71-1.6l-8.3-.2c-3.9-.1-7-3.3-6.9-7.3.1-3.9 3.6-7 7.3-6.9l8.3.2c28.3.7 55.5 1.4 70.9 1.7 16.7.2 18.4.1 22.5-1.5 7.1-2.7 12.2-6.3 14.8-10.4 2.7-4.3 4.3-12-4.4-36-8.7-24.2-27-62.9-40.3-81.9-11.5-16.5-17.1-15.6-22-14.7-5 .9-9.4 1.6-22.5 16.4-13.7 15.4-36 45.2-57.6 74-2.4 3.1-6.8 3.8-9.9 1.4-3.1-2.3-3.8-6.8-1.4-9.9 21.8-29.1 44.3-59.1 58.4-75 14-15.7 21-19.3 30.7-20.9 11.6-2 22.2.8 36 20.6 14 20 33 60.2 42.1 85.2 8.8 24.3 9.7 37.9 3.1 48.4-4.3 6.8-11.6 12.2-21.7 16.1-5.5 1.9-8.9 2.4-18.3 2.4zM209.8 657.6c-1 0-2.1 0-3.1-.1-12.3-1.3-22.5-10.3-36.2-32.2-14.1-22.6-34.1-62.4-41.2-85.7-7.1-23.1-2.7-33.1 6-41.1 7.2-6.6 14.2-10 34.6-11.7 20.4-1.7 56.3-1.7 91-1.7 3.9 0 7.5 3.2 7.5 7.1 0 3.9-2.8 7.1-6.7 7.1h-.8c-34.3 0-70.1 0-89.8 1.6-19.2 1.6-22.5 4.5-26.2 8-3.7 3.4-7.9 7.2-2 26.4 6.8 22.2 26 60.5 39.7 82.3 13.6 21.7 20.6 25.1 25.7 25.7 4.8.5 10.8-1.3 17.3-5.2 3.8-2.3 5-3.4 16.1-17.2 11.1-13.8 31.5-39.3 51.8-64.9 2.5-3.1 6.9-3.5 10-1.1 3.1 2.4 3.6 6.9 1.1 10-20.4 25.6-40.8 51.1-51.9 65-11 13.7-13.6 16.7-19.8 20.5-8.3 4.7-16 7.2-23.1 7.2z"></path>
                </g>
              </svg>