<svg xmlns="http://www.w3.org/2000/svg" width="30" height="30" fill-rule="evenodd" image-rendering="optimizeQuality" shape-rendering="geometricPrecision" viewBox="0 0 1.91 1.91"><path fill="#00b8d9" fill-rule="nonzero" d="M.4 1.44h.27L.88.93C.88.91.89.9.91.89.92.88.94.87.96.87c.01 0 .03.01.05.02.01.01.02.02.03.04l.21.51h.26L1.19.65C1.17.6 1.13.57 1.1.54A.25.25 0 0 0 .96.5C.9.5.85.51.82.54.78.56.75.6.73.65l-.33.79zm.28.1H.37c-.01 0-.02-.01-.03-.01L.31 1.5c0-.01-.01-.02-.01-.03s0-.02.01-.04L.64.61C.67.54.71.49.77.46a.356.356 0 0 1 .5.15l.34.82v.04c0 .01 0 .02-.01.03l-.03.03c-.01 0-.02.01-.03.01h-.31c-.01 0-.02-.01-.03-.01l-.01-.01c-.01 0-.02-.02-.02-.03L.96.97l-.21.52c-.01.01-.02.03-.03.03-.01.01-.03.02-.04.02z"></path></svg>