<svg xmlns="http://www.w3.org/2000/svg" width="30" height="30" fill-rule="evenodd" image-rendering="optimizeQuality" shape-rendering="geometricPrecision" viewBox="0 0 4.16 4.16"><path fill="#ffab00" fill-rule="nonzero" d="M.66 3.09h1.33l-.16-.68H.82l-.16.68zm1.46.2H.51a.109.109 0 0 1-.07-.12l.21-.87c.01-.05.05-.09.1-.09h1.16c.04 0 .08.04.09.08l.21.87c.01.01.01.02.01.03 0 .05-.05.1-.1.1zm.46 0c-.05 0-.1-.05-.1-.1s.05-.1.1-.1h.92l-.16-.68h-.98a.1.1 0 0 1-.1-.1c0-.05.05-.1.1-.1h1.06c.04 0 .08.04.09.08l.21.87c.01.01.01.02.01.03 0 .05-.05.1-.1.1H2.58zM1.36 1.75h1.33l-.16-.68h-1l-.17.68zm1.46.2h-1.6c-.06-.02-.09-.07-.08-.12l.21-.87c.01-.05.05-.08.1-.08h1.16c.04 0 .08.03.1.07l.2.87c.01.01.01.02.01.03 0 .06-.04.1-.1.1z"></path></svg>