<svg xmlns="http://www.w3.org/2000/svg" width="30" height="30" fill-rule="evenodd" image-rendering="optimizeQuality" shape-rendering="geometricPrecision" viewBox="0 0 3.86 3.86"><path fill="#ffab00" fill-rule="nonzero" d="M.51 3.13h1.23l-.15-.63H.66l-.15.63zm1.35.18H.37A.092.092 0 0 1 .3 3.2l.2-.8c0-.05.04-.08.09-.08h1.07c.04 0 .08.03.09.07l.19.8c.01.01.01.02.01.03a.09.09 0 0 1-.09.09zm.43 0c-.05 0-.1-.04-.1-.09s.05-.09.1-.09h.85l-.15-.63h-.91a.09.09 0 0 1 0-.18h.98c.04 0 .08.03.09.07l.19.8c.01.01.01.02.01.03a.09.09 0 0 1-.09.09h-.97zM1.16 1.89h1.23l-.15-.63h-.93l-.15.63zm1.35.18H1.02a.092.092 0 0 1-.07-.11l.2-.8c0-.05.04-.08.09-.08h1.07c.04 0 .08.03.09.07l.19.8c.01.01.01.02.01.03a.09.09 0 0 1-.09.09zm.8-1.05.03.09.41.14-.41.15-.15.41-.15-.41-.41-.14.41-.15.15-.41zM.95.59l.33.12-.33.11-.12.33L.72.82.4.71.72.59.84.27z"></path></svg>