  <svg xmlns="http://www.w3.org/2000/svg" viewBox="0 0 1000 1000">
                  <path fill="none" d="M0 0h1000v1000H0z"></path>
                  <g fill="#00afb2" color="#00afb2">
                    <path d="M507.6 645.8c-3.2 0-6.4-.8-9.3-2.4L105.7 432.2c-6.5-3.5-10.4-10-10.4-17.3 0-7.3 3.9-13.8 10.3-17.3L491 189.3c6-3.2 12.8-3.2 18.7 0l384.5 208.5c6.4 3.4 10.2 9.9 10.3 17.1 0 7.3-3.7 13.8-10.1 17.3l-377.3 211c-2.9 1.8-6.2 2.6-9.5 2.6zm-7.1-444.7c-.9 0-1.7.2-2.6.7L112.4 410.1c-1.9 1-2.9 2.7-2.9 4.8 0 2.1 1 3.8 2.9 4.8L505 630.9c1.8 1 3.6 1 5.3 0l377.3-211c1.9-1 2.8-2.7 2.8-4.8 0-2.1-1-3.8-2.9-4.8L503.1 201.8c-.8-.5-1.7-.7-2.6-.7z"></path>
                    <path d="M783.9 576.7c-3.9 0-7.1-3.2-7.1-7.1v-76.7l-175.5-93.4c-3.5-1.8-4.8-6.1-2.9-9.6 1.8-3.5 6.2-4.8 9.6-2.9l179.2 95.4c2.3 1.2 3.8 3.6 3.8 6.3v81c-.1 3.8-3.2 7-7.1 7z"></path>
                    <path d="M507.2 813.1c-3.5 0-7-1-10.2-2.9L280.3 679.1c-6-3.6-9.5-9.8-9.5-16.8V520.5c0-3.9 3.2-7.1 7.1-7.1s7.1 3.2 7.1 7.1v141.8c0 2.1.9 3.6 2.6 4.7l216.8 131c1.9 1.1 4 1.1 5.8-.1l203.3-129.1c1.7-1.1 2.6-2.6 2.6-4.6V521.9c0-3.9 3.2-7.1 7.1-7.1s7.1 3.2 7.1 7.1v142.4c0 6.9-3.3 12.9-9.1 16.6l-203.4 129c-3.3 2.1-6.9 3.2-10.6 3.2zm276.3-192c-15.6 0-28.4-12.7-28.4-28.4s12.7-28.4 28.4-28.4 28.4 12.8 28.4 28.4-12.7 28.4-28.4 28.4zm0-42.7c-7.8 0-14.2 6.4-14.2 14.2s6.4 14.2 14.2 14.2c7.9 0 14.3-6.4 14.3-14.2s-6.4-14.2-14.3-14.2z"></path>
                    <path d="M797 742.3h-32.3c-11.2 0-20.2-9.1-20.2-20.2v-78c0-20 16.3-36.4 36.4-36.4 20.1 0 36.4 16.3 36.4 36.4v78c-.1 11.1-9.2 20.2-20.3 20.2zm-16.2-120.4c-12.3 0-22.2 10-22.2 22.2v78c0 3.3 2.7 6 6.1 6H797c3.3 0 6-2.7 6-6v-78c0-12.2-10-22.2-22.2-22.2z"></path>
                  </g>
                </svg>