<svg width="114" height="105" viewBox="0 0 114 105" fill="none" xmlns="http://www.w3.org/2000/svg">
<circle cx="58.5" cy="52.5" r="52.5" fill="#F5F4F9"/>
<path d="M82.1028 57.1914C92.3195 57.2984 100.691 49.1028 100.8 38.8861C100.909 28.6694 92.7157 20.3005 82.499 20.1936C72.2823 20.0867 63.9113 28.2823 63.8019 38.4989C63.6925 48.7156 71.8861 57.0845 82.1028 57.1914Z" fill="#3ECF8E"/>
<path fill-rule="evenodd" clip-rule="evenodd" d="M84.87 73.3774C84.8443 73.2518 84.8793 72.5056 84.8807 72.3774C84.879 72.5339 84.8388 73.2253 84.87 73.3774ZM77.881 72.3039C77.8794 72.4604 77.9048 73.1525 77.8704 73.3038C77.8988 73.1789 77.8797 72.4321 77.881 72.3039Z" fill="#3ECF8E"/>
<path fill-rule="evenodd" clip-rule="evenodd" d="M113.687 90.6809L113.847 75.6818C113.932 67.7293 107.927 61.6188 99.9972 61.5356L88.9978 61.42L86.9659 64.3989C86.5464 64.9466 86.6438 65.3955 85.9553 65.3883L76.9558 65.2938C76.2672 65.2866 76.3742 64.8397 75.9665 64.2834L73.9986 61.2625L62.9992 61.147C55.0698 61.0637 48.9355 67.0468 48.8506 74.9992L48.6906 89.9983C48.6482 93.9746 51.6508 97.0298 55.6155 97.0715L106.613 97.607C110.577 97.6486 113.645 94.6571 113.687 90.6809ZM79.9236 68.3251L82.9234 68.3566C83.9146 68.367 84.9126 69.3835 84.902 70.3775L84.8807 72.3774C84.879 72.5339 84.8388 73.2253 84.87 73.3774L86.7952 80.398C86.8962 80.8906 87.003 81.9672 86.7739 82.3978L82.6994 89.3554C82.0613 90.5546 80.312 90.5362 79.6996 89.3239L75.7745 82.2823C75.5545 81.8469 75.6844 80.7729 75.7958 80.2824L77.8704 73.3038C77.9048 73.1525 77.8794 72.4604 77.881 72.3039L77.9024 70.304C77.913 69.31 78.9324 68.3147 79.9236 68.3251Z" fill="#3ECF8E"/>
<path fill-rule="evenodd" clip-rule="evenodd" d="M84.87 73.3774C84.8443 73.2518 84.8793 72.5056 84.8807 72.3774C84.879 72.5339 84.8388 73.2253 84.87 73.3774ZM77.881 72.3039C77.8797 72.4321 77.8988 73.1789 77.8704 73.3038C77.9048 73.1525 77.8794 72.4604 77.881 72.3039Z" fill="#3ECF8E"/>
<path d="M34 78V60C34 58.3431 32.6569 57 31 57H28V46C28 45.4477 27.5523 45 27 45C26.4477 45 26 45.4477 26 46V57H23C21.3431 57 20 58.3431 20 60V78C20 79.6569 21.3431 81 23 81H26V87C26 87.5523 26.4477 88 27 88C27.5523 88 28 87.5523 28 87V81H31C32.6569 81 34 79.6569 34 78Z" fill="#DADCE0"/>
<path d="M51 56V43C51 41.3431 49.6569 40 48 40H45V26C45 25.4477 44.5523 25 44 25C43.4477 25 43 25.4477 43 26V40H40C38.3431 40 37 41.3431 37 43V56C37 57.6569 38.3431 59 40 59H43V63C43 63.5523 43.4477 64 44 64C44.5523 64 45 63.5523 45 63V59H48C49.6569 59 51 57.6569 51 56Z" fill="#DADCE0"/>
<path d="M15 52V26C15 24.3431 13.6569 23 12 23H9V18.5C9 17.6716 8.32843 17 7.5 17C6.67157 17 6 17.6716 6 18.5V23H3C1.34315 23 0 24.3431 0 26V52C0 53.6569 1.34315 55 3 55H6V58.5C6 59.3284 6.67157 60 7.5 60C8.32843 60 9 59.3284 9 58.5V55H12C13.6569 55 15 53.6569 15 52Z" fill="#DADCE0"/>
</svg>
