<svg xmlns="http://www.w3.org/2000/svg" width="30" height="30" fill="#ff5630" image-rendering="optimizeQuality" shape-rendering="geometricPrecision" viewBox="0 0 1.61 1.61"><path d="M.4.64h.72c.02 0 .04.02.04.04V.9c0 .1-.05.2-.12.28-.07.07-.17.11-.28.11s-.21-.04-.28-.11A.442.442 0 0 1 .36.9V.68C.36.66.38.64.4.64zm.68.08H.44V.9c0 .08.04.16.1.22.05.06.13.09.22.09s.17-.03.23-.09A.36.36 0 0 0 1.08.9V.72z"></path><path d="M1.13.79c-.02 0-.04-.02-.04-.04s.02-.04.04-.04h.18c.03 0 .04.02.04.04v.12c0 .08-.02.14-.07.19-.04.05-.1.08-.17.08h-.04c-.02 0-.04-.02-.04-.04s.02-.04.04-.04h.04c.05 0 .09-.02.12-.05.03-.04.05-.08.05-.14V.79h-.15zm-.66.64c-.03 0-.04-.02-.04-.04s.01-.04.04-.04h.58c.03 0 .04.02.04.04s-.01.04-.04.04H.47zM.65.52c.02.02.02.04 0 .06C.64.59.62.59.6.58S.57.55.56.54A.09.09 0 0 1 .53.47C.52.45.53.43.54.4.55.39.55.38.55.37.56.36.54.34.53.32V.31C.52.3.52.28.54.27a.03.03 0 0 1 .04 0C.61.3.64.33.63.38.63.4.62.41.61.43.61.45.6.46.6.47s.01.01.01.02C.62.5.64.51.65.52zm.19 0c.01.02.01.04 0 .06C.82.59.8.59.78.58.74.54.7.51.69.45.69.42.7.39.72.36.72.35.73.33.73.32S.73.3.72.29C.72.28.71.26.7.25.68.23.69.21.7.19.72.18.74.18.76.2c.01.02.02.03.03.05C.8.28.81.3.81.33.8.35.79.37.79.39.78.41.77.43.77.45S.8.5.83.52h.01zm.16 0c.02.02.02.04 0 .06C.99.59.96.59.95.58.91.55.88.52.88.47.88.45.88.43.89.4.9.39.9.38.91.37.91.36.89.34.88.32V.31C.87.3.87.28.89.27a.03.03 0 0 1 .04 0C.96.3.99.33.98.38.98.4.97.41.97.43.96.45.95.46.95.47S.98.5 1 .52z"></path></svg>