<?xml version="1.0" encoding="utf-8"?>
<!-- Generator: Adobe Illustrator 19.2.1, SVG Export Plug-In . SVG Version: 6.00 Build 0)  -->
<svg version="1.1" id="Layer_1" xmlns="http://www.w3.org/2000/svg" xmlns:xlink="http://www.w3.org/1999/xlink" x="0px" y="0px"
	 viewBox="0 0 1000 1000" enable-background="new 0 0 1000 1000" xml:space="preserve">
<rect x="0" fill="none" width="1000" height="1000"/>
<g>
	<path d="M438,557.2c-0.6,0-1.2-0.1-1.8-0.2l-275.8-64.4c-17.8-4.2-28.3-15.4-28.3-30V321.8c0-16.6,13.5-30.2,30.1-30.2h675.6
		c16.6,0,30.2,13.5,30.2,30.2v140.7c0,14.6-10.6,25.8-28.4,30l-274.1,64c-4.4,1-8.5-1.7-9.5-5.9c-1-4.3,1.7-8.5,5.9-9.5l274.1-64
		c4.8-1.1,16.1-4.8,16.1-14.5V321.8c0-7.9-6.4-14.3-14.3-14.3H162.2c-7.9,0-14.3,6.4-14.3,14.3v140.7c0,9.7,11.3,13.4,16.1,14.5
		l275.8,64.4c4.3,1,6.9,5.3,5.9,9.5C444.9,554.7,441.6,557.2,438,557.2z"/>
	<path d="M380.5,284.8c-4.4,0-7.9-3.6-7.9-7.9v-51.7c0-16.6,13.5-30.2,30.1-30.2h197.4c16.6,0,30.2,13.5,30.2,30.2v50.3
		c0,4.4-3.6,7.9-7.9,7.9s-7.9-3.6-7.9-7.9v-50.3c0-7.9-6.4-14.3-14.3-14.3H402.7c-7.9,0-14.3,6.4-14.3,14.3v51.7
		C388.4,281.2,384.9,284.8,380.5,284.8z"/>
	<path d="M548,634.2h-93.1c-12.5,0-22.6-10.2-22.6-22.7v-93.1c0-12.5,10.2-22.6,22.6-22.6H548c12.5,0,22.7,10.2,22.7,22.6v93.1
		C570.6,624,560.5,634.2,548,634.2z M454.8,511.6c-3.7,0-6.8,3-6.8,6.8v93.1c0,3.7,3,6.8,6.8,6.8H548c3.7,0,6.8-3,6.8-6.8v-93.1
		c0-3.7-3-6.8-6.8-6.8H454.8z"/>
	<path d="M538,609.6h-73.3c-4.4,0-7.9-3.6-7.9-7.9v-73.3c0-4.4,3.6-7.9,7.9-7.9H538c4.4,0,7.9,3.6,7.9,7.9v73.3
		C546,606,542.4,609.6,538,609.6z M472.7,593.7h57.4v-57.4h-57.4V593.7z"/>
	<path d="M821.2,805H178.8c-16.6,0-30.2-13.5-30.2-30.2V502.5c0-4.4,3.6-7.9,7.9-7.9s7.9,3.5,7.9,7.9v272.4
		c0,7.9,6.4,14.3,14.3,14.3h642.4c7.9,0,14.3-6.4,14.3-14.3V502c0-4.4,3.5-7.9,7.9-7.9s7.9,3.6,7.9,7.9v272.9
		C851.4,791.5,837.8,805,821.2,805z"/>
</g>
</svg>
