<svg xmlns="http://www.w3.org/2000/svg" width="30" height="30" fill="#ffab00" image-rendering="optimizeQuality" shape-rendering="geometricPrecision" viewBox="0 0 5.39 5.39"><path d="m2.7 3.56.28-.32c.03-.03.07-.05.1-.04l.47.05.01-.43c0-.04.03-.08.06-.1l.4-.26-.27-.33c-.02-.04-.03-.08-.02-.12l.13-.45-.4-.1c-.05 0-.1-.04-.1-.08l-.2-.4-.38.2c-.04.03-.1.02-.13 0l-.4-.2-.16.4c-.01.04-.05.07-.1.08l-.45.1.13.4c.02.04.01.1-.02.12l-.28.37.37.23a.11.11 0 0 1 .06.1l.03.47.42-.07c.05 0 .1.01.12.04l.32.34zm.43-.1-.34.4c-.05.04-.13.04-.18-.01l-.37-.4-.5.07c-.07.01-.13-.05-.14-.12l-.03-.54-.44-.27c-.06-.04-.07-.12-.03-.18l.33-.43-.17-.5c-.01-.07.03-.14.1-.16l.53-.12.2-.48c.03-.06.1-.1.17-.06l.48.25.44-.25h.02c.06-.03.14 0 .16.07l.22.5.5.1c.07.02.1.1.1.16L4.02 2l.33.4c.04.06.02.14-.04.18l-.46.3v.5c0 .07-.07.12-.14.1l-.54-.06zm-1.2.4c0-.07.06-.13.13-.13s.12.06.12.13v.56l.48-.2c.03-.02.07-.01.1 0l.46.2v-.55c0-.07.06-.13.13-.13s.13.06.13.13v.75c0 .02 0 .03-.01.05-.03.07-.1.1-.17.07l-.6-.26-.6.25c-.02.01-.04.02-.06.02-.07 0-.13-.06-.13-.13v-.75z"></path></svg>