<svg width="534" height="504" viewBox="0 0 534 504" fill="none" xmlns="http://www.w3.org/2000/svg">
<path d="M525.108 354.4H525.225C530.071 354.4 534 350.471 534 345.624C534 340.778 530.071 336.849 525.225 336.849H525.108C486.501 336.713 452.867 361.183 440.923 396.353C438.557 403.318 431.354 407.857 424.021 407.275C422.154 407.127 420.281 407.052 418.405 407.052C401.878 407.096 386.026 412.79 373.435 422.946C367.868 427.437 359.67 427.808 353.59 424.041C343.223 417.618 331.154 414.396 318.963 414.756C310.791 414.997 302.809 409.145 302.809 400.969V397.665C302.809 392.754 298.828 388.773 293.917 388.773C289.006 388.773 285.025 392.754 285.025 397.665V450.085C285.025 454.996 289.006 458.977 293.917 458.977C298.828 458.977 302.809 454.996 302.809 450.085V444.141C302.809 439.205 305.711 434.581 310.518 433.463C328.092 429.378 346.814 436.255 357.281 451.43C357.4 451.597 357.56 451.717 357.682 451.873C357.689 451.882 357.683 451.895 357.671 451.895C357.66 451.895 357.654 451.907 357.66 451.916C360.895 456.989 363.113 462.597 364.225 468.436C365.141 473.248 369.027 477.256 373.925 477.256C378.839 477.256 382.877 473.239 382.176 468.376C381.459 463.405 380.166 458.531 378.321 453.849C376.582 449.437 376.726 444.287 380.028 440.883C389.976 430.624 403.797 424.67 418.405 424.603C426.36 424.604 434.211 426.38 441.373 429.798C441.461 429.842 441.559 429.851 441.648 429.886C448.196 433.068 453.986 437.523 458.689 442.952C462.094 446.882 461.578 452.596 458.771 456.973C451.463 468.37 446.934 481.286 445.541 494.7C445.033 499.588 449.064 503.582 453.978 503.582C458.887 503.582 462.809 499.585 463.436 494.715C467.522 462.977 493.053 437.846 525.245 433.914C530.056 433.327 534 429.453 534 424.607C534 419.758 530.06 415.782 525.234 416.255C511.742 417.578 498.756 421.942 487.274 428.983C481.148 432.74 472.954 431.727 467.707 426.817C465.672 424.913 463.525 423.129 461.276 421.473C457.331 418.569 454.761 413.905 455.827 409.124C462.898 377.44 491.511 354.297 525.108 354.4Z" fill="url(#paint0_radial)"/>
<path d="M8.89197 354.4H8.77545C3.92891 354.4 0 350.471 0 345.624C0 340.778 3.92891 336.849 8.77545 336.849H8.89197C47.4986 336.713 81.1333 361.183 93.0771 396.353C95.4428 403.318 102.646 407.857 109.979 407.275C111.846 407.127 113.719 407.052 115.595 407.052C132.122 407.095 147.974 412.79 160.565 422.946C166.132 427.437 174.33 427.808 180.41 424.041C190.777 417.618 202.846 414.396 215.037 414.756C223.209 414.997 231.191 409.145 231.191 400.969V397.665C231.191 392.754 235.172 388.773 240.083 388.773C244.994 388.773 248.975 392.754 248.975 397.665V450.085C248.975 454.996 244.994 458.977 240.083 458.977C235.172 458.977 231.191 454.996 231.191 450.085V444.14C231.191 439.205 228.289 434.581 223.482 433.463C205.908 429.378 187.186 436.255 176.719 451.43C176.6 451.597 176.44 451.717 176.318 451.873C176.311 451.882 176.317 451.895 176.329 451.895C176.34 451.895 176.346 451.907 176.34 451.916C173.105 456.989 170.887 462.597 169.775 468.436C168.859 473.248 164.973 477.256 160.075 477.256C155.161 477.256 151.123 473.239 151.824 468.376C152.541 463.405 153.834 458.531 155.679 453.849C157.418 449.437 157.274 444.287 153.972 440.883C144.024 430.624 130.203 424.67 115.595 424.603C107.64 424.604 99.7888 426.38 92.6275 429.798C92.5386 429.842 92.4408 429.851 92.3518 429.886C85.8045 433.068 80.014 437.523 75.3108 442.952C71.9063 446.882 72.4225 452.596 75.2293 456.973C82.537 468.37 87.0658 481.286 88.459 494.7C88.9667 499.588 84.9358 503.582 80.022 503.582C75.1125 503.582 71.1909 499.585 70.564 494.715C66.4782 462.977 40.9466 437.846 8.75468 433.914C3.94449 433.327 0 429.453 0 424.607C0 419.758 3.94013 415.782 8.76604 416.255C22.2577 417.578 35.2439 421.942 46.7258 428.983C52.8519 432.74 61.0464 431.727 66.2934 426.817C68.3275 424.913 70.4748 423.129 72.7243 421.473C76.6692 418.569 79.2395 413.905 78.1726 409.124C71.102 377.44 42.4891 354.297 8.89197 354.4Z" fill="url(#paint1_radial)"/>
<path d="M85.6201 310.04C85.6201 314.522 89.2535 318.155 93.7356 318.155C98.2176 318.155 101.851 314.522 101.851 310.04C101.851 305.557 98.2176 301.924 93.7356 301.924C89.2535 301.924 85.6201 305.557 85.6201 310.04Z" fill="#F5F4F9"/>
<path d="M144.202 378.761C144.202 383.243 147.836 386.877 152.318 386.877C156.8 386.877 160.433 383.243 160.433 378.761C160.433 374.279 156.8 370.646 152.318 370.646C147.836 370.646 144.202 374.279 144.202 378.761Z" fill="#F5F4F9"/>
<path d="M405.569 350.596C405.569 355.079 409.203 358.712 413.685 358.712C418.167 358.712 421.8 355.079 421.8 350.596C421.8 346.114 418.167 342.481 413.685 342.481C409.203 342.481 405.569 346.114 405.569 350.596Z" fill="#F5F4F9"/>
<path d="M448.38 299.9C448.38 304.382 452.013 308.016 456.495 308.016C460.977 308.016 464.611 304.382 464.611 299.9C464.611 295.418 460.977 291.785 456.495 291.785C452.013 291.785 448.38 295.418 448.38 299.9Z" fill="#F5F4F9"/>
<path fill-rule="evenodd" clip-rule="evenodd" d="M346.549 224.92C349.506 227.294 352.33 229.828 355.009 232.511C395.444 273.007 395.396 338.615 354.899 379.049C353.378 380.57 351.314 381.427 349.162 381.427C348.29 381.426 347.425 381.286 346.597 381.013C343.681 380.042 341.564 377.507 341.128 374.464L335 331.59C334.431 327.593 331.011 324.623 326.974 324.619H302.255L308.422 355.457C308.532 355.992 308.587 356.537 308.587 357.082C308.586 361.564 304.951 365.197 300.469 365.196H235.546C235 365.196 234.455 365.141 233.921 365.031C229.529 364.136 226.696 359.849 227.593 355.457L233.76 324.619H209.041C205.006 324.622 201.588 327.588 201.014 331.582L194.887 374.464C194.451 377.507 192.334 380.042 189.417 381.013C188.59 381.286 187.724 381.426 186.853 381.427C184.7 381.427 182.637 380.57 181.115 379.049C178.432 376.37 175.898 373.546 173.524 370.588C137.702 325.962 144.839 260.744 189.466 224.92L189.385 224.685C162.634 142.136 192.558 51.7763 263.292 1.51023C266.113 -0.503411 269.901 -0.503411 272.722 1.51023C343.457 51.7763 373.38 142.136 346.63 224.685L346.549 224.92ZM315.986 73.0408C303.828 51.7327 287.512 33.0844 268.007 18.2047C248.503 33.0844 232.187 51.7327 220.029 73.0408H315.986ZM250.316 324.62L245.446 348.966H290.568L285.699 324.62H250.316ZM219.314 162.311C219.314 135.418 241.114 113.618 268.007 113.618C294.899 113.618 316.699 135.418 316.699 162.311C316.699 189.203 294.899 211.003 268.007 211.003C241.125 210.977 219.34 189.192 219.314 162.311ZM235.545 162.311C235.545 180.239 250.079 194.772 268.007 194.772C285.936 194.772 300.468 180.239 300.468 162.311C300.468 144.383 285.935 129.849 268.007 129.849C250.079 129.849 235.545 144.383 235.545 162.311ZM227.429 243.465C227.429 247.947 231.063 251.581 235.545 251.581C240.027 251.581 243.66 247.947 243.66 243.465C243.66 238.983 240.027 235.35 235.545 235.35C231.063 235.35 227.429 238.983 227.429 243.465ZM268.008 251.581C263.526 251.581 259.892 247.947 259.892 243.465C259.892 238.983 263.526 235.35 268.008 235.35C272.49 235.35 276.123 238.983 276.123 243.465C276.123 247.947 272.49 251.581 268.008 251.581ZM292.353 243.465C292.353 247.947 295.986 251.581 300.468 251.581C304.95 251.581 308.584 247.947 308.584 243.465C308.584 238.983 304.95 235.35 300.468 235.35C295.986 235.35 292.353 238.983 292.353 243.465ZM229.349 286.152C227.339 286.152 225.898 288.089 226.475 290.014L231.435 306.546C231.816 307.815 232.984 308.684 234.308 308.684H298.669C299.944 308.684 301.08 307.878 301.501 306.675L307.287 290.143C307.97 288.192 306.522 286.152 304.456 286.152H229.349Z" fill="#F5F4F9"/>
<defs>
<radialGradient id="paint0_radial" cx="0" cy="0" r="1" gradientUnits="userSpaceOnUse" gradientTransform="translate(267 377.968) rotate(143.433) scale(277.03 242.278)">
<stop stop-color="#F5F4F9"/>
<stop offset="1" stop-color="#F5F4F9" stop-opacity="0"/>
</radialGradient>
<radialGradient id="paint1_radial" cx="0" cy="0" r="1" gradientUnits="userSpaceOnUse" gradientTransform="translate(267 377.968) rotate(143.433) scale(277.03 242.278)">
<stop stop-color="#F5F4F9"/>
<stop offset="1" stop-color="#F5F4F9" stop-opacity="0"/>
</radialGradient>
</defs>
</svg>
