<svg xmlns="http://www.w3.org/2000/svg" width="30" height="30" fill-rule="evenodd" image-rendering="optimizeQuality" shape-rendering="geometricPrecision" viewBox="0 0 1.7 1.7"><path fill="#00b8d9" fill-rule="nonzero" d="M.37 1.1h.16V.86H.37v.24zm.2.08H.33c-.02 0-.04-.02-.04-.04V.82C.29.8.31.78.33.78h.24C.59.78.61.8.61.82v.32c0 .02-.02.04-.04.04zm.21-.08h.15V.64H.78v.46zm.19.08H.74c-.03 0-.04-.02-.04-.04V.6C.7.58.71.56.74.56h.23c.02 0 .04.02.04.04v.54c0 .02-.02.04-.04.04zm.21-.08h.16V.43h-.16v.67zm.2.08h-.24c-.02 0-.04-.02-.04-.04V.39c0-.02.02-.04.04-.04h.24c.02 0 .04.02.04.04v.75c0 .02-.02.04-.04.04zm-1.11.17c-.02 0-.04-.02-.04-.04s.02-.04.04-.04h1.16c.02 0 .04.02.04.04s-.02.04-.04.04H.27z"></path></svg>