<svg xmlns="http://www.w3.org/2000/svg" viewBox="0 0 1000 1000"><path fill="none" d="M0 0h1000v1000H0z"></path><g fill="#00AFB2"><path d="M353.2 581.3h-82.8c-3.9 0-7.1-3.2-7.1-7.1v-190c0-3.9 3.2-7.1 7.1-7.1h82.8c3.9 0 7.1 3.2 7.1 7.1v190c0 3.9-3.2 7.1-7.1 7.1zm-75.8-14.2h68.7V391.3h-68.7v175.8zm201.3 140.2h-82.8c-3.9 0-7.1-3.2-7.1-7.1v-120c0-3.9 3.2-7.1 7.1-7.1h82.8c3.9 0 7.1 3.2 7.1 7.1v120c0 3.9-3.2 7.1-7.1 7.1zm-75.8-14.2h68.7V587.2h-68.7v105.9zm326.8-237.8h-82.8c-3.9 0-7.1-3.2-7.1-7.1V280.6c0-3.9 3.2-7.1 7.1-7.1h82.8c3.9 0 7.1 3.2 7.1 7.1v167.6c0 4-3.2 7.1-7.1 7.1zm-75.8-14.2h68.7V287.7h-68.7v153.4zm-49.7 268.1h-82.8c-3.9 0-7.1-3.2-7.1-7.1V448.2c0-3.9 3.2-7.1 7.1-7.1h82.8c3.9 0 7.1 3.2 7.1 7.1v253.9c0 4-3.2 7.1-7.1 7.1zm-75.7-14.1h68.7V455.3h-68.7v239.8z"></path><path d="M311.8 389.4c-3.9 0-7.1-3.2-7.1-7.1v-95.7c0-3.9 3.2-7.1 7.1-7.1s7.1 3.2 7.1 7.1v95.7c0 3.9-3.2 7.1-7.1 7.1zm125.5 196.3c-3.9 0-7.1-3.2-7.1-7.1v-52.1c0-3.9 3.2-7.1 7.1-7.1s7.1 3.2 7.1 7.1v52.1c0 4-3.2 7.1-7.1 7.1zm125.5-134.3c-3.9 0-7.1-3.2-7.1-7.1v-76.9c0-3.9 3.2-7.1 7.1-7.1s7.1 3.2 7.1 7.1v76.9c0 3.9-3.2 7.1-7.1 7.1zm125.5-164.2c-3.9 0-7.1-3.2-7.1-7.1V232c0-3.9 3.2-7.1 7.1-7.1s7.1 3.2 7.1 7.1v48.1c-.1 3.9-3.2 7.1-7.1 7.1zm0 303c-3.9 0-7.1-3.2-7.1-7.1V451.2c0-3.9 3.2-7.1 7.1-7.1s7.1 3.2 7.1 7.1v131.9c-.1 4-3.2 7.1-7.1 7.1zM562.8 789.1c-3.9 0-7.1-3.2-7.1-7.1v-76.9c0-3.9 3.2-7.1 7.1-7.1s7.1 3.2 7.1 7.1V782c0 3.9-3.2 7.1-7.1 7.1zm-125.5-33.2c-3.9 0-7.1-3.2-7.1-7.1v-45.6c0-3.9 3.2-7.1 7.1-7.1s7.1 3.2 7.1 7.1v45.6c0 3.9-3.2 7.1-7.1 7.1zm-125.5-97.2c-3.9 0-7.1-3.2-7.1-7.1v-76.4c0-3.9 3.2-7.1 7.1-7.1s7.1 3.2 7.1 7.1v76.4c0 3.9-3.2 7.1-7.1 7.1z"></path><path d="M794.2 822H205.8c-21.4 0-38.7-17.4-38.7-38.7V216.7c0-21.4 17.4-38.7 38.7-38.7h588.4c21.4 0 38.7 17.4 38.7 38.7v566.6c.1 21.3-17.3 38.7-38.7 38.7zM205.8 192.2c-13.5 0-24.6 11-24.6 24.6v566.6c0 13.5 11 24.6 24.6 24.6h588.4c13.5 0 24.6-11 24.6-24.6V216.7c0-13.5-11-24.6-24.6-24.6H205.8z"></path></g></svg>