<svg xmlns="http://www.w3.org/2000/svg" width="30" height="30" fill="#6485f9" image-rendering="optimizeQuality" shape-rendering="geometricPrecision" viewBox="0 0 2.23 2.23"><path d="M.66 1.81h.91c.02 0 .04-.01.05-.02.02-.02.02-.03.02-.05v-.67c0-.03.03-.05.06-.05h.09L1.17.44C1.15.43 1.13.42 1.11.42c-.01 0-.03.01-.05.02l-.62.58h.09c.03 0 .06.02.06.05v.67c0 .02 0 .03.02.05.01.01.03.02.05.02zm.91.11H.66c-.05 0-.09-.02-.12-.05l-.01-.01a.166.166 0 0 1-.05-.12v-.62H.36c-.02 0-.03 0-.04-.01l-.03-.03c-.01-.02-.01-.03 0-.05 0-.01.01-.02.02-.03L.99.36c.03-.03.08-.05.12-.05.05 0 .09.02.13.05l.68.64c.01 0 .02.02.02.03.01.02.01.03 0 .04v.01l-.03.03c-.01.01-.02.01-.04.01h-.12v.62c0 .05-.02.09-.05.12-.04.04-.08.06-.13.06z"></path><path d="m1.04 1.58-.1-.03c-.02 0-.04-.01-.06-.02-.01 0-.01-.01-.01-.02l.03-.08.01-.01h.02c.02.01.04.01.07.02s.06.02.1.02.07-.01.08-.02c.02-.01.03-.03.03-.05 0-.01-.01-.02-.01-.03-.01-.01-.02-.02-.03-.02a.138.138 0 0 0-.04-.03c-.02 0-.04-.01-.06-.02s-.05-.02-.07-.03l-.06-.03C.93 1.21.91 1.2.9 1.18S.89 1.13.89 1.1c0-.02 0-.04.01-.06 0-.02.01-.04.03-.06C.94.96.96.95.98.94s.04-.02.06-.02c.01-.01.02-.01.02-.02V.82c0-.01 0-.02.01-.02h.1c.01 0 .01.01.01.02v.07c0 .01.01.02.02.02.03 0 .05.01.07.01.02.01.04.01.05.02.01 0 .01.01.01.02l-.02.09-.03.01c-.01-.01-.03-.01-.05-.02-.03-.01-.06-.01-.1-.01-.03 0-.05.01-.07.02-.01.01-.02.02-.02.04 0 .01 0 .02.01.03 0 .01.01.01.02.02.01 0 .02.01.03.02.02 0 .03.01.05.01.03.02.06.03.09.04.02.01.04.03.06.04.02.02.04.04.05.06s.01.05.01.08c0 .02 0 .04-.01.06 0 .02-.01.04-.03.05a.12.12 0 0 1-.05.05c-.02.01-.05.02-.07.02-.01 0-.02.01-.02.02v.09c0 .01 0 .02-.01.02h-.1c-.01 0-.01-.01-.01-.02v-.09c0-.01-.01-.01-.02-.01z"></path></svg>