<svg width="115" height="105" viewBox="0 0 115 105" fill="none" xmlns="http://www.w3.org/2000/svg">
<circle cx="62.5" cy="52.5" r="52.5" fill="#F5F4F9"/>
<circle cx="32" cy="18" r="14" fill="#DADCE0"/>
<path d="M25.5702 26.3912C27.5796 26.1502 29.2781 25.2583 30.5938 23.6915C29.8044 23.812 29.0628 23.7397 28.3452 23.4022C27.6275 23.0648 27.0773 22.5586 26.6467 21.8595C27.2208 21.8354 27.7471 21.7149 28.2495 21.4498C27.2208 21.4257 26.3357 21.0641 25.618 20.3409C25.0917 19.8106 24.7568 19.1598 24.5894 18.4126C24.8764 18.4849 25.1635 18.5572 25.4506 18.5572C25.7376 18.5813 26.0247 18.5572 26.3357 18.509C25.4267 18.1233 24.7568 17.4966 24.3502 16.6047C23.9435 15.7128 23.8956 14.7968 24.1827 13.8568C25.3549 14.7968 26.6706 15.4718 28.1299 15.8575C29.5891 16.2431 31.0484 16.3154 32.5315 16.0744C32.5315 16.0262 32.5076 15.978 32.4837 15.9539C32.3402 15.6405 32.2684 15.303 32.2206 14.9656C32.1488 14.4594 32.1966 13.9532 32.3162 13.4711C32.6512 12.3623 33.321 11.5427 34.3736 11.0606C34.6606 10.9401 34.9477 10.8437 35.2587 10.7714C36.096 10.6267 36.8854 10.7472 37.6509 11.1329C37.7705 11.2052 37.8901 11.2776 38.0097 11.3499C38.0576 11.374 38.0815 11.374 38.1293 11.3499C38.5839 11.157 38.9905 10.916 39.3972 10.6267C39.6604 10.458 39.8996 10.241 40.1388 10.0482C40.1627 10.0241 40.1627 10 40.2106 10C40.1149 10.916 39.7321 11.6873 39.0862 12.3141C39.2058 12.3141 39.6125 12.1453 40.067 11.9043C40.378 11.7355 40.689 11.5427 41 11.3258C40.9761 11.4222 40.9282 11.5186 40.9043 11.5909C40.5933 12.3141 40.1867 12.9408 39.6604 13.5434C39.6125 13.5916 39.6125 13.6398 39.6125 13.688C39.6843 13.9291 39.7321 14.1942 39.78 14.4353C39.8517 14.9174 39.8996 15.3754 39.9235 15.8575C39.9474 16.436 39.9235 17.0145 39.8517 17.593C39.7082 18.8223 39.3733 20.0035 38.8231 21.1123C38.5599 21.6426 38.2729 22.1247 37.938 22.6068C37.4356 23.3299 36.8375 23.9808 36.1677 24.5352C35.4261 25.1619 34.5889 25.6681 33.7037 26.0538C33.321 26.2225 32.9382 26.3671 32.5555 26.4877C32.0292 26.6564 31.479 26.7769 30.9288 26.8733C30.3546 26.9698 29.7566 27.018 29.1585 26.9939C28.2734 26.9698 27.4122 26.8492 26.551 26.6082C26.2639 26.5359 25.9769 26.4394 25.6898 26.343C25.5941 26.3912 25.5702 26.3912 25.5702 26.3912Z" fill="#F5F4F9"/>
<circle cx="17.5" cy="74.5" r="17.5" fill="#DADCE0"/>
<path d="M25.1677 65.8793L24.4044 68.4828C24.287 68.8633 23.9151 69.0636 23.5628 68.9635L21.5664 68.3627C21.1358 68.2225 20.6661 68.4828 20.5487 68.9234L19.8245 71.4268L22.5255 72.2279C22.9169 72.348 23.1126 72.7886 22.9561 73.1692L21.9383 75.6325C21.8013 75.9729 21.449 76.1332 21.1163 76.033L18.6893 75.292L15.5969 85.9064C15.499 86.2669 15.1076 86.4872 14.7553 86.367L11.6824 85.4257C11.3301 85.3056 11.1148 84.925 11.2322 84.5646L14.2659 74.0103L12.4653 73.4696C12.0934 73.3494 11.8977 72.9689 11.9956 72.6084L12.7589 70.0049C12.8763 69.6244 13.2482 69.4241 13.6005 69.5242L15.1076 69.9848L15.773 67.7218C16.5755 64.9781 19.4135 63.3959 22.0949 64.2171L24.7176 65.0181C25.0699 65.1183 25.2852 65.4988 25.1677 65.8793Z" fill="#F5F4F9"/>
<circle cx="87.5" cy="77.5" r="13.5" fill="#DADCE0"/>
<path d="M85.6087 85.3832L82.6215 86.4951C82.2249 86.6429 81.7835 86.4373 81.6364 86.0388L78.3677 77.2082C78.2205 76.8097 78.4252 76.3662 78.8218 76.2184L81.8091 75.1065C82.2057 74.9587 82.6471 75.1644 82.7942 75.5629L86.0629 84.3935C86.21 84.792 86.0053 85.2354 85.6087 85.3832Z" fill="#F5F4F9"/>
<path d="M94.754 73.9047C95.8735 73.834 96.7562 76.122 95.7967 76.7775C96.5259 77.4524 96.6411 78.2043 96.1165 79.0527C96.3852 79.2969 96.5771 79.5861 96.6475 79.9396C96.8074 80.743 96.366 81.5206 95.5792 81.8163C93.6794 82.5297 91.7732 83.2302 89.8733 83.95C89.1889 84.2071 88.4981 84.3421 87.788 84.3356C87.5577 84.3356 87.3339 84.3164 87.0972 84.2842C86.9948 84.2714 86.8989 84.2649 86.8029 84.2585L83.4191 75.1001C83.4702 74.9459 83.4958 74.7852 83.5662 74.6374C83.9052 73.8533 84.9607 72.298 84.6728 70.447C84.6792 69.9136 84.5513 69.213 84.3658 68.7181C84.1547 68.1397 84.2123 67.6191 84.7688 67.3685C86.3296 66.6615 87.4426 69.0395 87.8968 70.537C88.0631 71.0961 88.3062 71.7067 88.3317 72.298C88.3381 72.3944 88.3381 72.4908 88.3445 72.5872C88.3509 72.7157 88.3765 73.0692 88.5045 73.0242C89.7646 72.555 91.012 72.0216 92.2913 71.6103C94.1144 71.019 95.2658 72.69 94.754 73.9047Z" fill="#F5F4F9"/>
<path d="M84.2591 83.8407C84.4126 84.2584 84.1823 84.734 83.7409 84.8883C83.3123 85.0425 82.839 84.8369 82.6855 84.432C82.5319 84.0271 82.7494 83.5708 83.1652 83.3972C83.178 83.3908 83.1908 83.3844 83.2036 83.378C83.6322 83.2301 84.1055 83.4358 84.2591 83.8407Z" fill="#F5F4F9"/>
<path d="M91.8983 8.56084C91.7219 7.90221 90.9524 7.60948 90.3828 7.98423L49.9486 34.5846C48.8683 35.2953 48.365 36.6182 48.6997 37.8673L52.058 50.4007C52.3927 51.6498 53.4901 52.5438 54.781 52.6192L103.098 55.4386C103.779 55.4784 104.299 54.8401 104.122 54.1815L91.8983 8.56084Z" fill="#3ECF8E"/>
<path d="M44.8159 36.6655L37.0619 38.7431L36.2416 39.4059C30.1725 44.3093 32.792 54.0853 40.4997 55.2973L41.5415 55.4611L49.2955 53.3834L44.8159 36.6655Z" fill="#3ECF8E"/>
<path d="M96.9324 5.77811C98.0751 5.47192 99.2497 6.15007 99.5559 7.2928L111.388 51.4509C111.694 52.5936 111.016 53.7682 109.873 54.0744C108.731 54.3806 107.556 53.7024 107.25 52.5597L95.4177 8.40163C95.1115 7.2589 95.7897 6.08431 96.9324 5.77811Z" fill="#3ECF8E"/>
<path d="M42.0722 60.1183C41.6007 59.5665 41.8568 58.7134 42.5546 58.5113L52.4045 55.6584C53.1625 55.4389 53.9792 55.6841 54.49 56.2847L62.4544 65.6484C63.1668 66.4859 63.068 67.7398 62.2334 68.4556L56.2332 73.6008C55.3922 74.3219 54.1235 74.2235 53.4039 73.3812L42.0722 60.1183Z" fill="#3ECF8E"/>
</svg>
