<svg xmlns="http://www.w3.org/2000/svg" width="30" height="30" fill-rule="evenodd" image-rendering="optimizeQuality" shape-rendering="geometricPrecision" viewBox="0 0 6.21 6.21"><path fill="#24d67e" fill-rule="nonzero" d="M3.87 4.85a.47.47 0 0 1-.18.36.63.63 0 0 1-.4.14h-.37c-.15 0-.3-.05-.4-.14a.47.47 0 0 1-.18-.36h.3c0 .05.03.1.08.13.05.05.12.07.2.07h.37c.08 0 .16-.02.2-.07a.17.17 0 0 0 .07-.13h.3zm0-1.1a1.38 1.38 0 0 0 .47-.49c.1-.2.18-.44.18-.7a1.44 1.44 0 0 0-.41-1 1.422 1.422 0 0 0-2 0c-.26.26-.42.6-.42 1 0 .26.07.5.2.7v.01c.1.2.27.36.46.48h1.53zm.72-.35c-.14.26-.35.47-.6.62-.03.02-.06.03-.1.03H2.3c-.02 0-.05-.01-.07-.02-.25-.15-.46-.36-.6-.62V3.4a1.696 1.696 0 0 1 .28-2.04 1.71 1.71 0 0 1 1.21-.5c.47 0 .9.2 1.2.5h.01c.3.3.5.73.5 1.2 0 .3-.08.6-.23.84zM2.42 4.6c-.08 0-.15-.07-.15-.15s.07-.15.15-.15H3.8c.08 0 .15.07.15.15s-.07.15-.15.15H2.42z"></path></svg>