<svg xmlns="http://www.w3.org/2000/svg" width="30" height="30" fill="#24d67e" image-rendering="optimizeQuality" shape-rendering="geometricPrecision" viewBox="0 0 3.71 3.71"><path d="M2.23 1.1c.04-.03.1-.01.12.03.03.04.01.09-.03.12l-.85.52c-.04.03-.1.02-.12-.03-.03-.04-.01-.09.03-.12l.85-.52z"></path><path d="M1.09 2.12c.08 0 .14-.03.19-.08.05-.05.08-.11.08-.19a.25.25 0 0 0-.08-.18.256.256 0 0 0-.19-.08.25.25 0 0 0-.18.08.25.25 0 0 0-.08.18c0 .08.03.14.08.19.05.05.11.08.18.08zm.31.04c-.08.08-.18.13-.31.13-.12 0-.23-.05-.31-.13a.457.457 0 0 1-.12-.31.423.423 0 0 1 .43-.43c.13 0 .23.05.31.13a.4.4 0 0 1 .13.3c0 .13-.05.23-.13.31zm1.21-.94a.256.256 0 0 0 .27-.26.25.25 0 0 0-.08-.18.256.256 0 0 0-.19-.08.25.25 0 0 0-.18.08.25.25 0 0 0-.08.18.256.256 0 0 0 .26.26zm.31.05c-.08.08-.18.13-.31.13a.4.4 0 0 1-.3-.13.439.439 0 0 1-.13-.31c0-.11.04-.22.12-.3l.01-.01c.07-.08.18-.12.3-.12.13 0 .23.04.31.12.08.08.13.19.13.31s-.05.23-.13.31zm-.31 1.74c.08 0 .14-.03.19-.08a.25.25 0 0 0 .08-.18c0-.08-.03-.14-.08-.19a.256.256 0 0 0-.19-.08.25.25 0 0 0-.18.08c-.05.05-.08.12-.08.19s.03.13.08.18c.05.05.11.08.18.08zm.31.05c-.08.07-.18.12-.31.12-.12 0-.23-.05-.3-.12a.439.439 0 0 1-.13-.31c0-.12.04-.23.12-.31h.01a.4.4 0 0 1 .3-.13c.13 0 .23.05.31.13.08.08.13.18.13.31 0 .12-.05.23-.13.31z"></path><path d="M1.41 2.13c-.04-.03-.06-.08-.03-.12.02-.05.07-.06.12-.04l.84.48c.04.03.06.08.03.12-.02.04-.08.06-.12.03l-.84-.47z"></path></svg>