<svg xmlns="http://www.w3.org/2000/svg" width="81" height="81" fill="none" viewBox="0 0 81 81">
<path fill="#9FE7C7" fill-rule="evenodd" d="M65.383 71.179A39.336 39.336 0 0 1 40.5 80C18.685 80 1 62.315 1 40.5S18.685 1 40.5 1 80 18.685 80 40.5c0 4.155-.642 8.16-1.831 11.923.323.088.64.19.953.304A40.481 40.481 0 0 0 81 40.5C81 18.133 62.867 0 40.5 0S0 18.133 0 40.5 18.133 81 40.5 81c9.671 0 18.55-3.39 25.515-9.046-.221-.25-.432-.508-.632-.775Z" clip-rule="evenodd"></path>
<path fill="#3ECF8E" fill-rule="evenodd" d="M72 71a9 9 0 1 0 0-18 9 9 0 0 0 0 18Zm4.942-10.41a1 1 0 0 0-1.414-1.415l-4.057 4.058-2.47-2.47a1 1 0 1 0-1.414 1.415l3.176 3.176a1 1 0 0 0 1.415 0l4.764-4.765Z" clip-rule="evenodd"></path>
<path fill="#9FE7C7" fill-rule="evenodd" d="M34.923 48.112c-5.94-5.94-5.94-15.572 0-21.512l7.792-7.792c5.252-5.252 13.767-5.252 19.019 0 5.251 5.252 5.251 13.767 0 19.019l-4.52 4.519a3 3 0 1 1-4.242-4.243l4.519-4.519a7.448 7.448 0 1 0-10.533-10.533l-7.792 7.792a9.21 9.21 0 0 0 0 13.026 3 3 0 0 1-4.243 4.243Z" clip-rule="evenodd"></path>
<path fill="#3ECF8E" fill-rule="evenodd" d="M45.567 32.85c5.94 5.94 5.94 15.571 0 21.512l-7.792 7.791c-5.252 5.252-13.766 5.252-19.018 0-5.252-5.252-5.252-13.766 0-19.018l4.519-4.52a3 3 0 0 1 4.242 4.243L23 47.378A7.448 7.448 0 1 0 33.533 57.91l7.791-7.792a9.211 9.211 0 0 0 0-13.026 3 3 0 0 1 4.243-4.243Z" clip-rule="evenodd"></path>
</svg>