<svg xmlns="http://www.w3.org/2000/svg" width="30" height="30" fill="#ffab00" image-rendering="optimizeQuality" shape-rendering="geometricPrecision" viewBox="0 0 3.91 3.91"><path d="M1.95.79a.79.79 0 0 0-.55.23.779.779 0 0 0-.12.98l.69 1.1.66-1.12c.04-.06.07-.12.08-.19a.76.76 0 0 0 .03-.21.81.81 0 0 0-.23-.56.794.794 0 0 0-.56-.23zm-.69.1a1 1 0 0 1 .69-.28c.27 0 .52.11.69.28.18.18.29.42.29.69 0 .09-.01.18-.04.26-.02.08-.06.17-.1.24l-.68 1.14-.06.06c-.02.01-.05.02-.07.02h-.01c-.03 0-.06-.01-.09-.02a.17.17 0 0 1-.06-.06l-.7-1.13c-.04-.07-.08-.16-.1-.24a.842.842 0 0 1-.04-.27 1 1 0 0 1 .28-.69z"></path><path d="M1.95 1.88c.08 0 .14-.03.19-.08.05-.05.08-.11.08-.19 0-.07-.03-.14-.08-.19a.256.256 0 0 0-.19-.08c-.07 0-.14.03-.19.08v.01c-.05.04-.07.11-.07.18 0 .08.03.14.07.19.05.05.12.08.19.08zm.32.05c-.08.08-.19.14-.32.14-.12 0-.24-.06-.32-.14a.445.445 0 0 1 0-.63v-.01a.463.463 0 0 1 .64 0c.09.08.14.2.14.32 0 .13-.05.24-.14.32z"></path></svg>