<svg xmlns="http://www.w3.org/2000/svg" viewBox="0 0 1000 1000"><path fill="none" d="M0 0h1000v1000H0z"></path><g fill="#00AFB2"><path d="M433.4 743.4c-162.3 0-294.4-132-294.4-294.3s132.1-294.4 294.4-294.4 294.3 132.1 294.3 294.4-132 294.3-294.3 294.3zm0-574.5c-154.5 0-280.2 125.7-280.2 280.2s125.7 280.2 280.2 280.2 280.2-125.7 280.2-280.2-125.8-280.2-280.2-280.2z"></path><path d="M502.9 743.4c-8.6 0-17.1-.4-25.7-1.1-3.9-.3-6.8-3.8-6.4-7.7.3-3.9 4-6.7 7.7-6.4 8.1.7 16.3 1.1 24.4 1.1 154.5 0 280.2-125.7 280.2-280.2S657.4 168.9 502.9 168.9c-8.2 0-16.3.4-24.4 1-3.9.5-7.3-2.6-7.7-6.4-.3-3.9 2.6-7.3 6.4-7.7 8.5-.7 17.1-1.1 25.6-1.1 162.3 0 294.3 132.1 294.3 294.4S665.2 743.4 502.9 743.4z"></path><path d="M566.7 743.4c-8.6 0-17.1-.4-25.7-1.1-3.9-.3-6.8-3.8-6.4-7.7s3.8-6.7 7.7-6.4c8.1.7 16.3 1.1 24.4 1.1 154.5 0 280.2-125.7 280.2-280.2S721.2 168.9 566.7 168.9c-8.2 0-16.3.4-24.4 1-3.9.5-7.3-2.6-7.7-6.4s2.6-7.3 6.4-7.7c8.5-.7 17.1-1.1 25.6-1.1C729 154.7 861 286.8 861 449.1S729 743.4 566.7 743.4zm-133.3-268c-14.5 0-26.3-11.8-26.3-26.3s11.8-26.3 26.3-26.3 26.3 11.8 26.3 26.3-11.8 26.3-26.3 26.3zm0-38.5c-6.7 0-12.2 5.5-12.2 12.2s5.5 12.1 12.2 12.1 12.2-5.4 12.2-12.1-5.5-12.2-12.2-12.2z"></path><path d="M432.6 436.2c-3.9 0-7.1-3.2-7.1-7.1V207c0-3.9 3.2-7.1 7.1-7.1s7.1 3.2 7.1 7.1v222.1c0 3.9-3.2 7.1-7.1 7.1zm303 374.6H263.1c-3.9 0-7.1-3.2-7.1-7.1s3.2-7.1 7.1-7.1h472.6c3.9 0 7.1 3.2 7.1 7.1s-3.2 7.1-7.2 7.1zM539.2 584.3c-2 0-4-.9-5.4-2.5L442 472.1c-2.5-3-2.1-7.5.9-10s7.4-2.1 10 .9l91.8 109.6c2.5 3 2.1 7.5-.9 10-1.3 1.1-3 1.7-4.6 1.7z"></path><path d="M680.4 845.3c-2.6 0-5-1.4-6.3-3.8-1.8-3.5-.5-7.8 2.9-9.6l53.2-28.2-53.2-28.2c-3.5-1.8-4.8-6.1-2.9-9.6 1.8-3.4 6.1-4.8 9.6-2.9l65.1 34.5c2.3 1.2 3.8 3.6 3.8 6.3s-1.5 5-3.8 6.3l-65.1 34.5c-1.1.4-2.2.7-3.3.7z"></path></g></svg>