<svg xmlns="http://www.w3.org/2000/svg" xml:space="preserve" viewBox="0 0 1000 1000"><path fill="none" d="M0 0h1000v1000H0z"></path><g fill="#00AFB2"><path d="M440 972.5c-48.2 0-96.1-10.5-141-31.4-81-37.8-142.5-105.1-173.3-189.6C95 667.1 98.8 576 136.6 495l149-319.6c.9-1.9 2.5-3.4 4.5-4.1 2-.7 4.2-.6 6.1.3l85.6 39.9c4 1.8 5.7 6.6 3.8 10.5l-149 319.6c-25.3 54.3-27.9 115.4-7.2 172.2 20.6 56.7 61.9 101.9 116.2 127.3 54.3 25.3 115.4 27.8 172.2 7.2 56.8-20.6 101.9-61.9 127.2-116.2l149-319.5c1.8-4 6.6-5.7 10.6-3.8l85.6 39.9c1.9.9 3.4 2.5 4.1 4.5.7 2 .6 4.2-.3 6.1L745 778.9C707.3 859.7 640 921.2 555.5 952c-37.6 13.7-76.6 20.5-115.5 20.5zM296.6 189.3 151 501.7c-36 77.2-39.6 164-10.3 244.4 29.3 80.5 87.9 144.6 165 180.6 77.2 36 163.9 39.6 244.4 10.3s144.6-87.9 180.6-165l145.7-312.4-71.3-33.2-145.7 312.4c-27.1 58.1-75.4 102.3-136.2 124.4-60.7 22.1-126.1 19.4-184.3-7.8-58.1-27.1-102.3-75.5-124.4-136.2-22.1-60.7-19.4-126.2 7.7-184.3l145.6-312.4-71.2-33.2z"></path><path d="M341 304.8c-1.1 0-2.2-.2-3.3-.7L253.9 265c-3.8-1.8-5.5-6.4-3.7-10.2 1.8-3.9 6.4-5.5 10.2-3.7l83.9 39.1c3.8 1.8 5.5 6.4 3.7 10.2-1.3 2.7-4.1 4.4-7 4.4zM849.7 541.9c-1.1 0-2.1-.2-3.2-.7l-81.3-37.9c-3.7-1.7-5.4-6.2-3.6-9.9 1.7-3.8 6.2-5.3 9.9-3.6l81.3 37.9c3.7 1.7 5.4 6.2 3.6 9.9-1.2 2.7-3.9 4.3-6.7 4.3zM757.2 332.5h-.3c-4.4-.2-7.8-3.8-7.7-8.2 1.9-57.1-36.8-114.1-96.5-141.9-59.7-27.8-128.3-20.9-170.7 17.3-3.2 2.9-8.3 2.7-11.2-.6-2.9-3.3-2.7-8.3.6-11.2 47.1-42.4 122.6-50.4 188.1-19.9 65.3 30.5 107.8 93.5 105.6 156.9-.1 4.2-3.6 7.6-7.9 7.6z"></path><path d="M808.9 301.2c-4.4 0-8-3.6-7.9-8 .2-65.4-48.9-132.2-122.3-166.4-73.3-34.2-156.1-28.9-206.1 13.3-3.3 2.8-8.3 2.4-11.2-.9-2.8-3.3-2.4-8.4 1-11.2 54.6-46.1 144.2-52.3 223-15.6 78.8 36.7 131.6 109.4 131.4 180.9 0 4.4-3.5 7.9-7.9 7.9z"></path><path d="M855.3 254.9c-4.2 0-7.8-3.3-7.9-7.6-2.8-67-60.1-137.8-142.6-176.3S531.1 34.1 478 75.1c-3.5 2.6-8.5 2-11.1-1.4-2.7-3.5-2-8.4 1.4-11.1 57.7-44.6 155.3-46.9 243.2-6 87.7 40.9 148.7 117.3 151.7 190 .2 4.4-3.2 8.1-7.6 8.3h-.3z"></path></g></svg>