<svg xmlns="http://www.w3.org/2000/svg" width="30" height="30" fill-rule="evenodd" image-rendering="optimizeQuality" shape-rendering="geometricPrecision" viewBox="0 0 1.88 1.88"><path fill="#ffab00" fill-rule="nonzero" d="m.98.3.18.42.44.03c.02 0 .04.02.04.04s0 .03-.01.03l-.36.31.12.42c.01.03-.01.05-.03.06-.02 0-.03 0-.04-.01l-.4-.24-.36.24c-.03.02-.05.01-.07-.01 0-.01-.01-.02 0-.04l.1-.45L.25.82C.23.81.23.78.24.76.25.75.26.75.27.75L.74.7.9.29C.91.27.93.26.95.27.97.27.98.28.98.3zm.11.48L.94.43.81.76C.81.78.79.79.78.79L.39.83l.28.22c.01.01.02.03.02.04l-.09.38.3-.2a.03.03 0 0 1 .04 0l.33.2-.09-.34c0-.02 0-.04.01-.05l.3-.25-.36-.02C1.11.81 1.1.8 1.09.78z"></path></svg>