<svg xmlns="http://www.w3.org/2000/svg" width="30" height="30" fill-rule="evenodd" image-rendering="optimizeQuality" shape-rendering="geometricPrecision" viewBox="0 0 2.28 2.28"><path fill="#00b8d9" fill-rule="nonzero" d="M.63 1.84h1.02L1.56.88H.72l-.09.96zm1.08.11H.57c-.03-.01-.06-.03-.05-.06L.61.83C.61.8.64.78.67.78h.94c.03 0 .05.02.06.04l.09 1.07c0 .03-.02.06-.05.06zM.93.64C.93.67.91.7.88.7S.82.67.82.64c0-.08.04-.16.1-.22.05-.05.13-.09.22-.09s.17.04.22.09c.06.06.1.14.1.22 0 .03-.03.06-.06.06S1.35.67 1.35.64c0-.05-.03-.1-.06-.14a.204.204 0 0 0-.15-.06c-.06 0-.11.02-.15.06C.96.54.93.59.93.64z"></path></svg>