<svg xmlns="http://www.w3.org/2000/svg" width="30" height="30" fill="#ff5630" image-rendering="optimizeQuality" shape-rendering="geometricPrecision" viewBox="0 0 3.06 3.06"><path d="M.71 2.16h1.25a.4.4 0 0 0 .28-.12c.06-.05.1-.13.11-.21H.71v.33zm1.25.15H.63c-.04 0-.07-.04-.07-.08v-.47c0-.04.03-.07.07-.07h1.8c.04 0 .07.03.07.07a.55.55 0 0 1-.16.39c-.09.09-.23.16-.38.16zm-1.33.34c-.04 0-.07-.03-.07-.07s.03-.08.07-.08h1.36c.04 0 .07.04.07.08s-.03.07-.07.07H.63zm1.24-1.31h.26V.56h-.26v.78zm.34.15h-.42c-.04 0-.07-.03-.07-.07V.49c0-.04.03-.08.07-.08h.42c.04 0 .07.04.07.08v.93c0 .04-.03.07-.07.07z"></path><path d="M1.73.9c.04 0 .07.03.07.07s-.03.08-.07.08H.63c-.04 0-.07-.04-.07-.08S.59.9.63.9h1.1z"></path></svg>