<svg xmlns="http://www.w3.org/2000/svg" width="30" height="30" fill="#24d67e" image-rendering="optimizeQuality" shape-rendering="geometricPrecision" viewBox="0 0 5.7 5.7"><path d="M2.83 3.9v-.3c0-.02-.02-.04-.04-.04h-.74c-.03 0-.04-.02-.04-.04v-.27l.85-1.1c.01-.01.02-.02.04-.02h.26c.02 0 .04.02.04.04v1.06c0 .02.02.04.04.04h.17c.02 0 .04.02.04.04v.22c0 .02-.02.04-.04.04h-.17c-.02 0-.04.02-.04.04v.28c0 .02-.02.04-.04.04h-.3c-.02 0-.04-.02-.04-.04zm0-.66V2.8c0-.02-.01-.03-.03-.04-.02 0-.04 0-.05.02l-.34.45c-.01.02-.01.03 0 .04 0 .01.02.02.03.02h.35c.02 0 .04-.02.04-.04zm.02 1.44c.18 0 .36-.04.52-.1a1.51 1.51 0 0 0 .46-.27c.05-.04.12-.04.17 0l.04.02a.44.44 0 0 0 .35.05.477.477 0 0 0 .33-.57.498.498 0 0 0-.22-.28c-.01 0-.03-.01-.04-.02-.06-.02-.1-.1-.08-.15 0-.03.01-.07.01-.12.01-.04.01-.08.01-.12a1.52 1.52 0 0 0-.28-.89C3.94 2 3.7 1.8 3.4 1.67a.15.15 0 0 1-.1-.14v-.05a.43.43 0 0 0-.14-.32.472.472 0 0 0-.32-.14.463.463 0 0 0-.46.46v.06a.15.15 0 0 1-.1.14 1.59 1.59 0 0 0-.72.56c-.17.25-.27.56-.27.9v.25a.14.14 0 0 1-.08.15l-.05.02c-.1.07-.18.17-.2.28a.54.54 0 0 0 .05.35.48.48 0 0 0 .63.17l.04-.03c.05-.04.12-.03.16.01a1.66 1.66 0 0 0 .47.26c.16.05.33.1.52.1zm.6.16a1.781 1.781 0 0 1-1.69-.25c-.17.1-.36.1-.53.06a.692.692 0 0 1-.44-.33V4.3a.674.674 0 0 1-.08-.55.76.76 0 0 1 .32-.43l-.01-.05v-.15a1.78 1.78 0 0 1 .32-1.04c.2-.27.46-.5.77-.63a.67.67 0 0 1 .21-.49.71.71 0 0 1 .52-.22.65.65 0 0 1 .5.22c.13.12.2.3.22.5.3.13.57.36.77.63.2.3.32.65.32 1.04 0 .04 0 .1-.01.14v.05a.76.76 0 0 1 .32.43c.05.18.03.38-.08.56-.1.17-.26.3-.44.34-.17.05-.36.03-.53-.06-.14.1-.3.2-.47.25z"></path></svg>