<?xml version="1.0" encoding="utf-8"?>
<!-- Generator: Adobe Illustrator 19.2.1, SVG Export Plug-In . SVG Version: 6.00 Build 0)  -->
<svg version="1.1" id="Layer_1" xmlns="http://www.w3.org/2000/svg" xmlns:xlink="http://www.w3.org/1999/xlink" x="0px" y="0px"
	 viewBox="0 0 1000 1000" enable-background="new 0 0 1000 1000" xml:space="preserve">
<rect x="0" fill="none" width="1000" height="1000"/>
<g>
	<path d="M875,801.7H125c-7.2,0-13.4-3.2-17.2-8.9c-4-6-4-13.5,0-19.5l375-566.4c7.5-11.3,26.9-11.3,34.4,0l0,0l375,566.4
		c4,6,4,13.5,0,19.5C888.5,798.4,882.2,801.7,875,801.7z M500,214.6c-0.9,0-2.5,0.2-3.3,1.4l-375,566.4c0.8,2.4,2.4,2.6,3.3,2.6h750
		c0.9,0,2.5-0.2,3.3-1.4L503.3,216C502.5,214.9,501.1,214.6,500,214.6z"/>
	<path d="M813.8,693.6H183.6c-4.6,0-8.3-3.7-8.3-8.3s3.7-8.3,8.3-8.3h630.2c4.6,0,8.3,3.7,8.3,8.3S818.5,693.6,813.8,693.6z"/>
	<path d="M741.3,581.4H256.1c-4.6,0-8.3-3.7-8.3-8.3s3.7-8.3,8.3-8.3h485.2c4.6,0,8.3,3.7,8.3,8.3S745.9,581.4,741.3,581.4z"/>
	<path d="M498.3,527.8c-4.6,0-8.3-3.7-8.3-8.3V345.2c0-4.6,3.7-8.3,8.3-8.3s8.3,3.7,8.3,8.3v174.3
		C506.7,524.1,502.9,527.8,498.3,527.8z"/>
	<path d="M446.9,421.6c-1.6,0-3.3-0.5-4.7-1.5c-3.8-2.6-4.8-7.8-2.1-11.6l50.8-73.9c2.6-3.8,7.8-4.8,11.6-2.2
		c3.8,2.6,4.8,7.8,2.1,11.6L453.8,418C452.2,420.3,449.6,421.6,446.9,421.6z"/>
	<path d="M550.3,421.6c-2.7,0-5.3-1.3-6.9-3.6L492.6,344c-2.6-3.8-1.7-9,2.1-11.6c3.8-2.6,9-1.6,11.6,2.2l50.8,73.9
		c2.6,3.8,1.7,9-2.1,11.6C553.5,421.1,551.9,421.6,550.3,421.6z"/>
</g>
</svg>
