<svg xmlns="http://www.w3.org/2000/svg" width="30" height="30" fill="#00b8d9" image-rendering="optimizeQuality" shape-rendering="geometricPrecision" viewBox="0 0 3.92 3.92"><path d="M2.64 1.85c0 .05-.04.1-.09.1s-.09-.05-.09-.1V.82c0-.01-.01-.02-.02-.03 0-.01-.01-.01-.02-.01H1.27c-.02 0-.03 0-.03.01-.01.01-.02.02-.02.03V3.1c0 .02.01.03.02.03 0 .01.01.02.03.02h1.15c.01 0 .02-.01.02-.02.01 0 .02-.01.02-.03v-.28a.09.09 0 0 1 .18 0v.28c0 .07-.02.12-.06.17-.04.04-.1.06-.16.06H1.27c-.07 0-.12-.02-.17-.06a.252.252 0 0 1-.06-.17V.82c0-.06.02-.12.06-.16.05-.04.1-.07.17-.07h1.15c.06 0 .12.03.16.07s.06.1.06.16v1.03zm-1.03.23c-.03-.05-.02-.1.02-.13.04-.04.1-.03.13.01l.43.58 1-.98c.03-.03.09-.03.13 0 .03.04.03.1 0 .13L2.23 2.75c-.04.04-.1.03-.13-.01l-.49-.66z"></path></svg>