<svg xmlns="http://www.w3.org/2000/svg" viewBox="0 0 1000 1000"><path fill="none" d="M0 0h1000v1000H0z"></path><g fill="#FFF"><path d="M459.1 454.3H196.9c-25.9 0-47-21.1-47-47s21.1-47 47-47h262.2c25.9 0 47 21.1 47 47s-21 47-47 47zm-262.2-79.8c-18.1 0-32.8 14.7-32.8 32.8s14.7 32.8 32.8 32.8h262.2c18.1 0 32.8-14.7 32.8-32.8s-14.7-32.8-32.8-32.8H196.9z"></path><path d="M581.5 534.1H319.3c-25.9 0-47-21.1-47-47s21.1-47 47-47h262.2c25.9 0 47 21.1 47 47 0 26-21.1 47-47 47zm-262.2-79.8c-18.1 0-32.8 14.7-32.8 32.8s14.7 32.8 32.8 32.8h262.2c18.1 0 32.8-14.7 32.8-32.8s-14.7-32.8-32.8-32.8H319.3z"></path><path d="M382 613.9h-62.7c-25.9 0-47-21.1-47-47s21.1-47 47-47h262.2c25.9 0 47 21.1 47 47 0 4.9-.8 9.8-2.2 14.4-1.2 3.7-5.2 5.8-8.9 4.6s-5.8-5.2-4.5-8.9c1-3.2 1.6-6.6 1.6-10 0-18.1-14.7-32.8-32.8-32.8H319.3c-18.1 0-32.8 14.7-32.8 32.8s14.7 32.8 32.8 32.8H382c3.9 0 7.1 3.2 7.1 7.1s-3.2 7-7.1 7zm-42.1 159.7h-92.6c-25.9 0-47-21.1-47-47s21.1-47 47-47h93.2c3.9 0 7.1 3.2 7.1 7.1s-3.2 7.1-7.1 7.1h-93.2c-18.1 0-32.8 14.7-32.8 32.8s14.7 32.8 32.8 32.8h92.6c3.9 0 7.1 3.2 7.1 7.1s-3.2 7.1-7.1 7.1z"></path><path d="M382.9 853.3H247.3c-25.9 0-47-21.1-47-47s21.1-47 47-47h93.2c3.9 0 7.1 3.2 7.1 7.1s-3.2 7.1-7.1 7.1h-93.2c-18.1 0-32.8 14.7-32.8 32.8s14.7 32.8 32.8 32.8h135.6c3.9 0 7.1 3.2 7.1 7.1s-3.2 7.1-7.1 7.1zm-43-159.6h-92.6c-25.9 0-47-21.1-47-47s21.1-47 47-47h133.9c3.9 0 7.1 3.2 7.1 7.1s-3.2 7.1-7.1 7.1H247.3c-18.1 0-32.8 14.7-32.8 32.8s14.7 32.8 32.8 32.8h92.6c3.9 0 7.1 3.2 7.1 7.1s-3.2 7.1-7.1 7.1z"></path><path d="M514.4 909.2c-101.7 0-184.4-82.7-184.4-184.4s82.7-184.4 184.4-184.4 184.4 82.7 184.4 184.4S616 909.2 514.4 909.2zm0-354.7c-93.9 0-170.2 76.4-170.2 170.2S420.5 895 514.4 895c93.8 0 170.2-76.4 170.2-170.2s-76.4-170.3-170.2-170.3z"></path><path d="M627.9 795.3c-1.2 0-2.4-.3-3.5-.9-3.4-1.9-4.6-6.2-2.7-9.6 10.2-18.3 15.6-39 15.6-60 0-47.5-27.8-91.3-70.9-111.4-3.5-1.7-5.1-5.9-3.4-9.4 1.6-3.5 5.9-5.1 9.4-3.4 48 22.4 79.1 71.2 79.1 124.2 0 23.4-6 46.5-17.4 66.9-1.3 2.3-3.8 3.6-6.2 3.6zm-169.8 57.6c-1 0-2-.2-3-.7C407.1 829.8 376 781 376 728c0-23.4 6-46.5 17.4-66.9 1.9-3.4 6.3-4.7 9.6-2.7 3.4 1.9 4.6 6.2 2.7 9.6-10.2 18.3-15.6 39-15.6 60 0 47.5 27.8 91.3 70.9 111.4 3.5 1.7 5.1 5.9 3.4 9.4-1.1 2.6-3.6 4.1-6.3 4.1zm54.1-196.4c-3.9 0-7.1-3.2-7.1-7.1v-22.8c0-3.9 3.2-7.1 7.1-7.1 3.9 0 7.1 3.2 7.1 7.1v22.8c0 3.9-3.2 7.1-7.1 7.1zm0 173.5c-3.9 0-7.1-3.2-7.1-7.1v-22.8c0-3.9 3.2-7.1 7.1-7.1 3.9 0 7.1 3.2 7.1 7.1v22.8c0 3.9-3.2 7.1-7.1 7.1z"></path><path d="M516.1 727.9H505c-22.9 0-41.5-18.6-41.5-41.5S482.1 645 505 645h19c12.1 0 23.6 5.3 31.5 14.6 2.5 3 2.2 7.4-.8 10-3 2.5-7.4 2.2-10-.8-5.2-6.1-12.8-9.6-20.7-9.6h-19c-15.1 0-27.3 12.2-27.3 27.3s12.3 27.3 27.3 27.3h11.1c3.9 0 7.1 3.2 7.1 7.1s-3.2 7-7.1 7z"></path><path d="M520.3 804.7h-21.2c-13.3 0-25.9-5.8-34.6-16-2.5-3-2.2-7.4.8-10 3-2.6 7.4-2.2 10 .8 6 7 14.7 11 23.8 11h21.2c17.3 0 31.3-14.1 31.3-31.3s-14.1-31.3-31.3-31.3h-12.4c-3.9 0-7.1-3.2-7.1-7.1s3.2-7.1 7.1-7.1h12.4c25.1 0 45.5 20.4 45.5 45.5s-20.4 45.5-45.5 45.5zM843 695.6c-3.9 0-7.1-3.2-7.1-7.1V321.6c0-63.5-51.6-115.1-115.1-115.1H435.5c-3.9 0-7.1-3.2-7.1-7.1s3.2-7.1 7.1-7.1h285.3c71.3 0 129.3 58 129.3 129.3v366.9c0 3.9-3.2 7.1-7.1 7.1z"></path><path d="M428.9 208.2c-2.2 0-4.4-1-5.8-3-2.3-3.2-1.5-7.6 1.7-9.9l146-103.2c3.2-2.3 7.6-1.5 9.9 1.7 2.3 3.2 1.5 7.6-1.7 9.9L433 206.9c-1.3.9-2.7 1.3-4.1 1.3z"></path><path d="M574.9 310c-1.4 0-2.9-.4-4.1-1.3l-146-103.2c-3.2-2.3-4-6.7-1.7-9.9s6.7-4 9.9-1.7l146 103.2c3.2 2.3 4 6.7 1.7 9.9-1.4 2-3.6 3-5.8 3z"></path></g></svg>