<svg xmlns="http://www.w3.org/2000/svg" viewBox="0 0 1000 1000"><path fill="none" d="M0 0h1000v1000H0z"></path><g fill="#00AFB2"><path d="M733.7 430.2c-3.9 0-7.1-3.2-7.1-7.1v-31.5c0-3.9 3.2-7.1 7.1-7.1s7.1 3.2 7.1 7.1v31.5c0 3.9-3.2 7.1-7.1 7.1zm0 240.1c-3.9 0-7.1-3.2-7.1-7.1v-31.6c0-3.9 3.2-7.1 7.1-7.1s7.1 3.2 7.1 7.1v31.6c0 4-3.2 7.1-7.1 7.1z"></path><path d="M739.1 529.1h-15.4c-30.1 0-54.6-24.5-54.6-54.7s24.5-54.7 54.6-54.7H750c16 0 31.1 7 41.6 19.2 2.5 3 2.2 7.4-.8 10-3 2.5-7.4 2.2-10-.8-7.7-9.1-18.9-14.2-30.8-14.2h-26.3c-22.3 0-40.5 18.2-40.5 40.5s18.2 40.5 40.5 40.5h15.4c3.9 0 7.1 3.2 7.1 7.1s-3.2 7.1-7.1 7.1z"></path><path d="M745 635.4h-29.3c-17.6 0-34.3-7.7-45.8-21.2-2.5-3-2.2-7.4.8-10 3-2.6 7.4-2.2 10 .8 8.8 10.3 21.6 16.2 35 16.2H745c25.4 0 46.1-20.7 46.1-46.1S770.3 529 745 529h-17.2c-3.9 0-7.1-3.2-7.1-7.1s3.2-7.1 7.1-7.1H745c33.2 0 60.2 27 60.2 60.2s-27 60.4-60.2 60.4zM457.8 392.7h-.5L305 382.2c-3.9-.3-6.9-3.6-6.6-7.6.3-3.9 3.3-6.8 7.6-6.6l141.5 9.8-48.4-133.4c-1.3-3.7.6-7.7 4.2-9.1 3.7-1.3 7.7.6 9.1 4.2l52.1 143.6c.8 2.3.4 4.8-1 6.7-1.3 1.9-3.4 2.9-5.7 2.9z"></path><path d="M263.3 764.9c-91 0-178.2-52.1-218.5-140.1-26.6-58.3-29-123.4-6.6-183.4S105 333.7 163.2 307c99.6-45.5 217.1-17.9 286 67.2 2.5 3 2 7.5-1 10-3.1 2.4-7.5 2-10-1-64.8-80-175.4-106-269.1-63.2-54.8 25-96.6 69.9-117.7 126.4-21 56.5-18.8 117.8 6.2 172.6 51.7 113.2 185.9 163.1 299 111.4 66.9-30.6 114.8-92 128.1-164.3.7-3.8 4.3-6.3 8.3-5.7 3.8.7 6.4 4.4 5.7 8.3-14.2 76.9-65.1 142.2-136.2 174.6-32.1 14.7-65.9 21.6-99.2 21.6zm473.8.2c-70.7 0-139.7-31.3-186.4-88.9-2.5-3-2-7.5 1-10 3.1-2.5 7.5-2 10 1 64.8 79.9 175.4 106 269.1 63.2 54.8-25 96.6-69.9 117.7-126.4s18.8-117.8-6.2-172.6-69.9-96.6-126.4-117.6c-56.5-21.1-117.8-18.9-172.6 6.2-66.9 30.6-114.8 92-128.1 164.3-.7 3.8-4.2 6.4-8.3 5.7-3.8-.7-6.4-4.4-5.7-8.3 14.1-76.9 65-142.2 136.1-174.6 120.3-55 262.9-1.8 317.8 118.4 26.6 58.3 29 123.4 6.6 183.4s-66.8 107.7-125 134.4c-32 14.7-66 21.8-99.6 21.8z"></path><path d="M491.9 575.6c-.4 0-.9 0-1.3-.1-3.8-.7-6.4-4.4-5.6-8.3l16.9-89.4c.7-3.9 4.5-6.4 8.3-5.6 3.8.7 6.4 4.4 5.6 8.3l-16.9 89.4c-.7 3.3-3.7 5.7-7 5.7zm244.8 141.9c-104.8 0-190-85.3-190-190.1s85.3-190.1 190-190.1 190 85.3 190 190.1-85.2 190.1-190 190.1zm0-366c-97 0-175.9 78.9-175.9 175.9s78.9 175.9 175.9 175.9 175.9-78.9 175.9-175.9-78.9-175.9-175.9-175.9z"></path></g></svg>