<svg xmlns="http://www.w3.org/2000/svg" width="30" height="30" fill-rule="evenodd" image-rendering="optimizeQuality" shape-rendering="geometricPrecision" viewBox="0 0 3.71 3.71"><path fill="#9748d6" fill-rule="nonzero" d="M1.41 1.48h.01a.363.363 0 0 0-.01-.51.347.347 0 0 0-.25-.1.37.37 0 0 0-.26.1.37.37 0 0 0-.1.26c0 .09.03.18.1.25s.17.11.26.11.18-.04.25-.11zm.13.13c-.11.1-.24.16-.38.16a.546.546 0 0 1-.54-.54c0-.14.05-.28.16-.38.1-.11.24-.16.38-.16.13 0 .27.05.37.15l.01.01c.1.1.16.24.16.38a.5.5 0 0 1-.16.37v.01zm1.13 1.13c.07-.07.1-.17.1-.26s-.03-.18-.1-.25a.363.363 0 0 0-.26-.11c-.09 0-.18.04-.25.11h-.01c-.06.07-.1.16-.1.25s.04.19.11.26.16.1.25.1c.1 0 .19-.03.26-.1zm.12.12c-.1.11-.24.16-.38.16a.53.53 0 0 1-.37-.15l-.01-.01c-.1-.1-.15-.24-.15-.38 0-.13.05-.27.15-.37V2.1c.11-.1.25-.16.38-.16a.546.546 0 0 1 .54.54c0 .14-.05.28-.16.38zm-1.91.02c-.03.04-.09.04-.12 0a.075.075 0 0 1 0-.12L2.69.83c.03-.04.09-.04.13 0 .03.03.03.09 0 .12L.88 2.88z"></path></svg>