<svg xmlns="http://www.w3.org/2000/svg" width="30" height="30" fill="#6485f9" image-rendering="optimizeQuality" shape-rendering="geometricPrecision" viewBox="0 0 1.98 1.98"><path d="M.56.56C.54.56.51.54.51.51.51.49.54.47.56.47h.86c.03 0 .05.02.05.04 0 .03-.02.05-.05.05H.56zm0 .56c-.02 0-.05-.02-.05-.05 0-.02.03-.05.05-.05h.86c.03 0 .05.03.05.05 0 .03-.02.05-.05.05H.56zm0 .56c-.02 0-.05-.02-.05-.05s.03-.05.05-.05h.86c.03 0 .05.02.05.05s-.02.05-.05.05H.56zM.71.4C.69.4.67.38.67.35.67.33.69.31.71.31h.2c.03 0 .05.02.05.04C.96.38.94.4.91.4h-.2z"></path><path d="M.58.51C.58.49.61.47.63.47c.03 0 .05.02.05.04v1.12c0 .02-.02.04-.05.04-.02 0-.05-.02-.05-.04V.51zm.72 0c0-.02.02-.04.05-.04s.05.02.05.04v1.12c0 .02-.02.04-.05.04s-.05-.02-.05-.04V.51z"></path></svg>