<svg xmlns="http://www.w3.org/2000/svg" width="30" height="30" fill-rule="evenodd" image-rendering="optimizeQuality" shape-rendering="geometricPrecision" viewBox="0 0 5.42 5.42"><path fill="#00b8d9" fill-rule="nonzero" d="M2.7 2.67a.77.77 0 0 0 .55-.23l.01-.01a.77.77 0 0 0-.01-1.09.731.731 0 0 0-.55-.23.73.73 0 0 0-.55.23.77.77 0 0 0 0 1.1.77.77 0 0 0 .55.23zm.73-.05c-.18.2-.44.3-.73.3s-.55-.1-.73-.3c-.2-.2-.3-.45-.3-.73A1.043 1.043 0 0 1 2.71.85a1.043 1.043 0 0 1 1.04 1.04 1.03 1.03 0 0 1-.3.72l-.01.01zM1.3 4.44c0 .07-.06.13-.13.13s-.13-.06-.13-.13c0-.37.2-.7.5-.94.3-.23.7-.38 1.17-.38s.87.15 1.17.38c.3.24.5.57.5.94 0 .07-.06.13-.13.13s-.13-.06-.13-.13c0-.28-.16-.55-.4-.74-.26-.2-.62-.32-1.02-.32s-.76.13-1.02.32c-.24.2-.4.46-.4.74z"></path></svg>