<svg xmlns="http://www.w3.org/2000/svg" width="30" height="30" fill="#ffab00" image-rendering="optimizeQuality" shape-rendering="geometricPrecision" viewBox="0 0 3.69 3.69"><path d="m1.07.7.02.05.28.1-.28.11-.1.28L.88.95.6.85l.28-.1.1-.28zm-.3 1.41.67.8c.02.02.05.04.08.04s.06-.01.08-.02l1.41-1.19c.02-.02.03-.05.04-.08 0-.03-.01-.06-.03-.08l-.67-.8C2.33.76 2.3.75 2.27.74c-.03 0-.06.01-.08.03L.78 1.95c-.02.02-.03.05-.04.08 0 .03.01.06.03.08zm.54.91-.68-.79a.274.274 0 0 1-.06-.21c0-.08.04-.15.1-.2L2.07.64c.07-.06.14-.08.22-.07.07 0 .14.04.19.1l.67.8c.05.06.08.13.07.21-.01.07-.04.14-.1.19L1.71 3.06c-.06.05-.13.07-.21.07a.311.311 0 0 1-.19-.11z"></path><path d="m1.18 2.07.38.44 1.05-.88-.38-.45-1.05.89zm.28.6-.45-.54a.114.114 0 0 1-.03-.08c0-.03.02-.06.04-.08l1.14-.96c.03-.02.06-.03.09-.03s.06.02.08.04l.45.54c.02.02.03.06.03.08-.01.03-.02.06-.04.08l-1.15.97c-.02.02-.05.02-.08.02a.09.09 0 0 1-.07-.03l-.01-.01z"></path></svg>