<?xml version="1.0" encoding="utf-8"?>
<!-- Generator: Adobe Illustrator 22.0.0, SVG Export Plug-In . SVG Version: 6.00 Build 0)  -->
<svg version="1.1" id="Layer_1" xmlns="http://www.w3.org/2000/svg" xmlns:xlink="http://www.w3.org/1999/xlink" x="0px" y="0px"
	 viewBox="0 0 370 220" style="enable-background:new 0 0 370 220;" xml:space="preserve">
<style type="text/css">
	.st0{display:none;}
	.st1{fill:#FFFFFF;}
</style>
<g id="Layer_2_1_" class="st0">
</g>
<g>
	<g>
		<path class="st1" d="M131,197.8h-7c-0.6,0-1-0.4-1-1l0,0c0-0.6,0.4-1,1-1h7c0.6,0,1,0.4,1,1l0,0C132,197.4,131.6,197.8,131,197.8z
			"/>
	</g>
	<g>
		<path class="st1" d="M127.5,192.3L127.5,192.3c0.6,0,1,0.4,1,1v7c0,0.6-0.4,1-1,1l0,0c-0.6,0-1-0.4-1-1v-7
			C126.5,192.7,126.9,192.3,127.5,192.3z"/>
	</g>
</g>
<g>
	<g>
		<path class="st1" d="M124.3,32.3h-5.5c-0.5,0-0.8-0.3-0.8-0.8l0,0c0-0.5,0.3-0.8,0.8-0.8h5.5c0.5,0,0.8,0.3,0.8,0.8l0,0
			C125.1,32,124.8,32.3,124.3,32.3z"/>
	</g>
	<g>
		<path class="st1" d="M121.6,27.9L121.6,27.9c0.5,0,0.8,0.3,0.8,0.8v5.5c0,0.5-0.3,0.8-0.8,0.8l0,0c-0.5,0-0.8-0.3-0.8-0.8v-5.5
			C120.8,28.3,121.1,27.9,121.6,27.9z"/>
	</g>
</g>
<path class="st1" d="M250.4,23.4L250.4,23.4c0.4,0.4,0.4,1,0,1.4l-4.9,4.9c-0.4,0.4-1,0.4-1.4,0l0,0c-0.4-0.4-0.4-1,0-1.4l4.9-4.9
	C249.5,23,250,23,250.4,23.4z"/>
<g>
	<g>
		<path class="st1" d="M292.9,87.8L292.9,87.8c0.4,0.4,0.4,1,0,1.4l-4.9,4.9c-0.4,0.4-1,0.4-1.4,0l0,0c-0.4-0.4-0.4-1,0-1.4l4.9-4.9
			C291.9,87.4,292.5,87.4,292.9,87.8z"/>
	</g>
	<g>
		<path class="st1" d="M291.2,94L291.2,94c0.4,0.4,0.4,1,0,1.4l-4.9,4.9c-0.4,0.4-1,0.4-1.4,0l0,0c-0.4-0.4-0.4-1,0-1.4l4.9-4.9
			C290.2,93.6,290.7,93.6,291.2,94z"/>
	</g>
</g>
<g>
	<g>
		<path class="st1" d="M53,55.4L53,55.4c0.5,0.5,0.5,1.1,0,1.6l-5.6,5.6c-0.5,0.5-1.1,0.5-1.6,0l0,0c-0.5-0.5-0.5-1.1,0-1.6l5.6-5.6
			C51.9,54.9,52.6,54.9,53,55.4z"/>
	</g>
	<g>
		<path class="st1" d="M52.3,61.7L52.3,61.7c0.5,0.5,0.5,1.1,0,1.6l-5.6,5.6c-0.5,0.5-1.1,0.5-1.6,0l0,0c-0.5-0.5-0.5-1.1,0-1.6
			l5.6-5.6C51.2,61.2,51.8,61.2,52.3,61.7z"/>
	</g>
</g>
<g>
	<g>
		<path class="st1" d="M334.8,171.5h-7c-0.6,0-1-0.4-1-1l0,0c0-0.6,0.4-1,1-1h7c0.6,0,1,0.4,1,1l0,0
			C335.8,171.1,335.4,171.5,334.8,171.5z"/>
	</g>
	<g>
		<path class="st1" d="M331.3,166L331.3,166c0.6,0,1,0.4,1,1v7c0,0.6-0.4,1-1,1l0,0c-0.6,0-1-0.4-1-1v-7
			C330.3,166.4,330.7,166,331.3,166z"/>
	</g>
</g>
<g>
	<path class="st1" d="M43.9,174.3c-0.3,0-0.6,0-0.9-0.1c-2.6-0.5-4.3-3-3.8-5.6l0,0c0.2-1.3,0.9-2.4,2-3.1c1.1-0.7,2.3-1,3.6-0.8
		c2.6,0.5,4.3,3,3.8,5.6c-0.2,1.3-0.9,2.4-2,3.1C45.8,174,44.9,174.3,43.9,174.3z M43.9,166.7c-0.6,0-1.1,0.2-1.6,0.5
		c-0.6,0.4-1,1.1-1.2,1.8l0,0c-0.3,1.5,0.7,3,2.2,3.3c0.7,0.1,1.5,0,2.1-0.4s1-1.1,1.2-1.8c0.3-1.5-0.7-3-2.2-3.3
		C44.2,166.7,44.1,166.7,43.9,166.7z"/>
</g>
<g>
	<path class="st1" d="M255,182.2c-0.3,0-0.5,0-0.8-0.1c-1.1-0.2-2-0.8-2.7-1.7c-0.6-0.9-0.9-2-0.7-3.1l0,0c0.2-1.1,0.8-2,1.7-2.7
		s2-0.9,3.1-0.7s2,0.8,2.7,1.7c0.6,0.9,0.9,2,0.7,3.1c-0.2,1.1-0.8,2-1.7,2.7C256.6,182,255.8,182.2,255,182.2z M252.9,177.7
		c-0.1,0.6,0,1.1,0.3,1.6s0.8,0.8,1.4,0.9c0.6,0.1,1.1,0,1.6-0.3c0.5-0.3,0.8-0.8,0.9-1.4c0.1-0.6,0-1.1-0.3-1.6s-0.8-0.8-1.4-0.9
		C254.2,175.7,253.1,176.5,252.9,177.7L252.9,177.7z"/>
</g>
<g>
	<path class="st1" d="M93.4,117.4c-0.2,0-0.3,0-0.5-0.1c-0.7-0.1-1.3-0.5-1.7-1.1c-0.4-0.6-0.6-1.3-0.5-2l0,0
		c0.1-0.7,0.5-1.3,1.1-1.7c0.6-0.5,1.3-0.6,2-0.5s1.3,0.5,1.7,1.1c0.4,0.6,0.6,1.3,0.5,2s-0.5,1.3-1.1,1.7
		C94.5,117.3,93.9,117.4,93.4,117.4z M92.1,114.5c-0.1,0.4,0,0.7,0.2,1s0.5,0.5,0.9,0.6s0.7,0,1-0.2s0.5-0.5,0.6-0.9s0-0.7-0.2-1
		s-0.5-0.5-0.9-0.6C92.9,113.2,92.2,113.7,92.1,114.5L92.1,114.5z"/>
</g>
<g>
	<path class="st1" d="M332.8,50.4c-0.2,0-0.3,0-0.5-0.1c-0.7-0.1-1.3-0.5-1.7-1.1c-0.4-0.6-0.6-1.3-0.5-2l0,0
		c0.1-0.7,0.5-1.3,1.1-1.7c0.6-0.5,1.3-0.6,2-0.5s1.3,0.5,1.7,1.1c0.4,0.6,0.6,1.3,0.5,2s-0.5,1.3-1.1,1.7
		C333.8,50.2,333.3,50.4,332.8,50.4z M331.4,47.5c-0.1,0.4,0,0.7,0.2,1s0.5,0.5,0.9,0.6s0.7,0,1-0.2s0.5-0.5,0.6-0.9s0-0.7-0.2-1
		s-0.5-0.5-0.9-0.6C332.2,46.2,331.5,46.7,331.4,47.5L331.4,47.5z"/>
</g>
</svg>
