<?xml version="1.0" encoding="utf-8"?>
<!-- Generator: Adobe Illustrator 22.0.0, SVG Export Plug-In . SVG Version: 6.00 Build 0)  -->
<svg version="1.1" id="Layer_1" xmlns="http://www.w3.org/2000/svg" xmlns:xlink="http://www.w3.org/1999/xlink" x="0px" y="0px"
	 viewBox="0 0 370 220" style="enable-background:new 0 0 370 220;" xml:space="preserve">
<style type="text/css">
	.st0{display:none;}
	.st1{fill:#FFFFFF;}
</style>
<g id="Layer_2_1_" class="st0">
</g>
<g>
	<g>
		<path class="st1" d="M261.6,27.8h-7c-0.6,0-1-0.4-1-1l0,0c0-0.6,0.4-1,1-1h7c0.6,0,1,0.4,1,1l0,0
			C262.6,27.4,262.2,27.8,261.6,27.8z"/>
	</g>
	<g>
		<path class="st1" d="M258.1,22.3L258.1,22.3c0.6,0,1,0.4,1,1v7c0,0.6-0.4,1-1,1l0,0c-0.6,0-1-0.4-1-1v-7
			C257.1,22.7,257.5,22.3,258.1,22.3z"/>
	</g>
</g>
<g>
	<path class="st1" d="M123.7,35.8L123.7,35.8c0.4,0.4,0.4,1,0,1.4l-4.9,4.9c-0.4,0.4-1,0.4-1.4,0l0,0c-0.4-0.4-0.4-1,0-1.4l4.9-4.9
		C122.7,35.4,123.2,35.4,123.7,35.8z"/>
</g>
<g>
	<path class="st1" d="M60.5,188.8L60.5,188.8c0.4,0.4,0.4,1,0,1.4l-4.9,4.9c-0.4,0.4-1,0.4-1.4,0l0,0c-0.4-0.4-0.4-1,0-1.4l4.9-4.9
		C59.6,188.4,60.1,188.4,60.5,188.8z"/>
</g>
<g>
	<path class="st1" d="M269.8,96.4L269.8,96.4c0.4,0.4,0.4,1,0,1.4l-4.9,4.9c-0.4,0.4-1,0.4-1.4,0l0,0c-0.4-0.4-0.4-1,0-1.4l4.9-4.9
		C268.8,96,269.4,96,269.8,96.4z"/>
</g>
<g>
	<path class="st1" d="M122,42.6L122,42.6c0.4,0.4,0.4,1,0,1.4l-4.9,4.9c-0.4,0.4-1,0.4-1.4,0l0,0c-0.4-0.4-0.4-1,0-1.4l4.9-4.9
		C121,42.1,121.6,42.1,122,42.6z"/>
</g>
<g>
	<g>
		<path class="st1" d="M309.2,166.5L309.2,166.5c0.5,0.5,0.5,1.1,0,1.6l-5.6,5.6c-0.5,0.5-1.1,0.5-1.6,0l0,0c-0.5-0.5-0.5-1.1,0-1.6
			l5.6-5.6C308.1,166,308.7,166,309.2,166.5z"/>
	</g>
	<g>
		<path class="st1" d="M307,174.5L307,174.5c0.5,0.5,0.5,1.1,0,1.6l-5.6,5.6c-0.5,0.5-1.1,0.5-1.6,0l0,0c-0.5-0.5-0.5-1.1,0-1.6
			l5.6-5.6C305.9,174,306.5,174,307,174.5z"/>
	</g>
</g>
<g>
	<g>
		<path class="st1" d="M49.7,115.7h-7c-0.6,0-1-0.4-1-1l0,0c0-0.6,0.4-1,1-1h7c0.6,0,1,0.4,1,1l0,0
			C50.7,115.3,50.3,115.7,49.7,115.7z"/>
	</g>
	<g>
		<path class="st1" d="M46.2,110.2L46.2,110.2c0.6,0,1,0.4,1,1v7c0,0.6-0.4,1-1,1l0,0c-0.6,0-1-0.4-1-1v-7
			C45.2,110.6,45.6,110.2,46.2,110.2z"/>
	</g>
</g>
<g>
	<path class="st1" d="M149.1,192c-0.2,0-0.5,0-0.7-0.1c-2-0.4-3.4-2.4-3-4.4l0,0c0.2-1,0.7-1.9,1.6-2.4c0.9-0.6,1.8-0.8,2.8-0.6
		c2,0.4,3.4,2.4,3,4.4c-0.2,1-0.7,1.9-1.6,2.4C150.5,191.7,149.8,192,149.1,192z M149.1,186c-0.5,0-0.9,0.2-1.3,0.4
		c-0.5,0.3-0.8,0.9-0.9,1.4l0,0c-0.2,1.2,0.6,2.4,1.7,2.6c0.6,0.1,1.2,0,1.7-0.3s0.8-0.9,0.9-1.4c0.2-1.2-0.6-2.4-1.7-2.6
		C149.3,186,149.2,186,149.1,186z"/>
</g>
<g>
	<path class="st1" d="M334.1,105.9c-0.3,0-0.5,0-0.8-0.1c-1.1-0.2-2-0.8-2.7-1.7c-0.6-0.9-0.9-2-0.7-3.1l0,0c0.2-1.1,0.8-2,1.7-2.7
		s2-0.9,3.1-0.7c1.1,0.2,2,0.8,2.7,1.7c0.6,0.9,0.9,2,0.7,3.1s-0.8,2-1.7,2.7C335.7,105.7,334.9,105.9,334.1,105.9z M332,101.4
		c-0.1,0.6,0,1.1,0.3,1.6s0.8,0.8,1.4,0.9s1.1,0,1.6-0.3s0.8-0.8,0.9-1.4s0-1.1-0.3-1.6s-0.8-0.8-1.4-0.9
		C333.3,99.4,332.2,100.2,332,101.4L332,101.4z"/>
</g>
<g>
	<path class="st1" d="M320,44.4c-0.2,0-0.3,0-0.5-0.1c-0.7-0.1-1.3-0.5-1.7-1.1c-0.4-0.6-0.6-1.3-0.5-2l0,0c0.1-0.7,0.5-1.3,1.1-1.7
		c0.6-0.5,1.3-0.6,2-0.5s1.3,0.5,1.7,1.1c0.4,0.6,0.6,1.3,0.5,2s-0.5,1.3-1.1,1.7C321,44.3,320.5,44.4,320,44.4z M318.6,41.5
		c-0.1,0.4,0,0.7,0.2,1s0.5,0.5,0.9,0.6s0.7,0,1-0.2s0.5-0.5,0.6-0.9s0-0.7-0.2-1s-0.5-0.5-0.9-0.6
		C319.5,40.2,318.8,40.8,318.6,41.5L318.6,41.5z"/>
</g>
<g>
	<path class="st1" d="M33.2,36.6c-0.2,0-0.3,0-0.5-0.1C32,36.4,31.4,36,31,35.4c-0.4-0.6-0.6-1.3-0.5-2l0,0c0.1-0.7,0.5-1.3,1.1-1.7
		c0.6-0.5,1.3-0.6,2-0.5c0.7,0.1,1.3,0.5,1.7,1.1c0.4,0.6,0.6,1.3,0.5,2s-0.5,1.3-1.1,1.7C34.2,36.5,33.7,36.6,33.2,36.6z
		 M31.8,33.7c-0.1,0.4,0,0.7,0.2,1s0.5,0.5,0.9,0.6s0.7,0,1-0.2s0.5-0.5,0.6-0.9s0-0.7-0.2-1s-0.5-0.5-0.9-0.6
		C32.7,32.5,32,33,31.8,33.7L31.8,33.7z"/>
</g>
<g id="Layer_2_2_" class="st0">
</g>
</svg>
