<svg xmlns="http://www.w3.org/2000/svg" width="30" height="30" fill="#9748d6" image-rendering="optimizeQuality" shape-rendering="geometricPrecision" viewBox="0 0 5.17 5.17"><path d="M2.6 4.02a1.43 1.43 0 0 0 1-.42 1.43 1.43 0 0 0 .42-1.01c0-.4-.16-.76-.42-1.02a1.435 1.435 0 1 0-1.01 2.45zm1.18-.25a1.64 1.64 0 0 1-1.18.5c-.47 0-.9-.2-1.2-.5a1.64 1.64 0 0 1-.5-1.18A1.709 1.709 0 0 1 2.6.89c.46 0 .87.2 1.18.5.3.3.5.72.5 1.2a1.64 1.64 0 0 1-.5 1.18zm-1.3-1.74c0-.07.05-.13.12-.13s.13.06.13.13v1.25c0 .07-.05.12-.12.12s-.12-.05-.12-.12l-.01-1.25z"></path><path d="M2.02 2.7c-.05.05-.13.05-.18 0-.05-.04-.05-.12 0-.17l.66-.7c.04-.05.12-.05.17-.01l.67.72c.04.05.04.13-.01.17-.05.05-.13.05-.17 0l-.57-.62-.57.62z"></path></svg>