<?xml version="1.0" encoding="utf-8"?>
<!-- Generator: Adobe Illustrator 22.0.0, SVG Export Plug-In . SVG Version: 6.00 Build 0)  -->
<svg version="1.1" id="Layer_1" xmlns="http://www.w3.org/2000/svg" xmlns:xlink="http://www.w3.org/1999/xlink" x="0px" y="0px"
	 viewBox="0 0 370 220" style="enable-background:new 0 0 370 220;" xml:space="preserve">
<style type="text/css">
	.st0{display:none;}
	.st1{fill:#FFFFFF;}
</style>
<g id="Layer_2_1_" class="st0">
</g>
<g id="Layer_2_2_" class="st0">
</g>
<g>
	<g>
		<path class="st1" d="M333.3,37h-7c-0.6,0-1-0.4-1-1l0,0c0-0.6,0.4-1,1-1h7c0.6,0,1,0.4,1,1l0,0C334.3,36.6,333.9,37,333.3,37z"/>
	</g>
	<g>
		<path class="st1" d="M329.8,31.5L329.8,31.5c0.6,0,1,0.4,1,1v7c0,0.6-0.4,1-1,1l0,0c-0.6,0-1-0.4-1-1v-7
			C328.8,31.9,329.2,31.5,329.8,31.5z"/>
	</g>
</g>
<g>
	<g>
		<path class="st1" d="M49.2,178.5h-5.5c-0.5,0-0.8-0.3-0.8-0.8l0,0c0-0.5,0.3-0.8,0.8-0.8h5.5c0.5,0,0.8,0.3,0.8,0.8l0,0
			C50,178.2,49.7,178.5,49.2,178.5z"/>
	</g>
	<g>
		<path class="st1" d="M46.4,174.2L46.4,174.2c0.5,0,0.8,0.3,0.8,0.8v5.5c0,0.5-0.3,0.8-0.8,0.8l0,0c-0.5,0-0.8-0.3-0.8-0.8V175
			C45.6,174.5,45.9,174.2,46.4,174.2z"/>
	</g>
</g>
<g>
	<g>
		<path class="st1" d="M139.3,196.6L139.3,196.6c0.4,0.4,0.4,1,0,1.4l-4.9,4.9c-0.4,0.4-1,0.4-1.4,0l0,0c-0.4-0.4-0.4-1,0-1.4
			l4.9-4.9C138.3,196.2,138.9,196.2,139.3,196.6z"/>
	</g>
	<g>
		<path class="st1" d="M246.1,26.6L246.1,26.6c0.4,0.4,0.4,1,0,1.4l-4.9,4.9c-0.4,0.4-1,0.4-1.4,0l0,0c-0.4-0.4-0.4-1,0-1.4l4.9-4.9
			C245.2,26.2,245.7,26.2,246.1,26.6z"/>
	</g>
	<g>
		<path class="st1" d="M138.3,202.7L138.3,202.7c0.4,0.4,0.4,1,0,1.4l-4.9,4.9c-0.4,0.4-1,0.4-1.4,0l0,0c-0.4-0.4-0.4-1,0-1.4
			l4.9-4.9C137.3,202.3,137.9,202.3,138.3,202.7z"/>
	</g>
</g>
<g>
	<g>
		<path class="st1" d="M334.9,104.6L334.9,104.6c0.5,0.5,0.5,1.1,0,1.6l-5.6,5.6c-0.5,0.5-1.1,0.5-1.6,0l0,0c-0.5-0.5-0.5-1.1,0-1.6
			l5.6-5.6C333.8,104.1,334.4,104.1,334.9,104.6z"/>
	</g>
	<g>
		<path class="st1" d="M332.6,112.6L332.6,112.6c0.5,0.5,0.5,1.1,0,1.6l-5.6,5.6c-0.5,0.5-1.1,0.5-1.6,0l0,0c-0.5-0.5-0.5-1.1,0-1.6
			l5.6-5.6C331.5,112.1,332.2,112.1,332.6,112.6z"/>
	</g>
</g>
<g>
	<g>
		<path class="st1" d="M47.5,50.1h-7c-0.6,0-1-0.4-1-1l0,0c0-0.6,0.4-1,1-1h7c0.6,0,1,0.4,1,1l0,0C48.5,49.7,48.1,50.1,47.5,50.1z"
			/>
	</g>
	<g>
		<path class="st1" d="M44,44.6L44,44.6c0.6,0,1,0.4,1,1v7c0,0.6-0.4,1-1,1l0,0c-0.6,0-1-0.4-1-1v-7C43,45,43.4,44.6,44,44.6z"/>
	</g>
</g>
<g>
	<path class="st1" d="M114.2,36.3c-0.3,0-0.6,0-0.9-0.1c-2.6-0.5-4.3-3-3.8-5.6l0,0c0.2-1.3,0.9-2.4,2-3.1s2.3-1,3.6-0.8
		c2.6,0.5,4.3,3,3.8,5.6c-0.2,1.3-0.9,2.4-2,3.1C116.1,36,115.2,36.3,114.2,36.3z M114.2,28.7c-0.6,0-1.1,0.2-1.6,0.5
		c-0.6,0.4-1,1.1-1.2,1.8l0,0c-0.3,1.5,0.7,3,2.2,3.3c0.7,0.1,1.5,0,2.1-0.4s1-1.1,1.2-1.8c0.3-1.5-0.7-3-2.2-3.3
		C114.5,28.7,114.4,28.7,114.2,28.7z"/>
</g>
<g>
	<path class="st1" d="M292,195.5c-0.3,0-0.5,0-0.8-0.1c-1.1-0.2-2-0.8-2.7-1.7c-0.6-0.9-0.9-2-0.7-3.1l0,0c0.2-1.1,0.8-2,1.7-2.7
		s2-0.9,3.1-0.7s2,0.8,2.7,1.7c0.6,0.9,0.9,2,0.7,3.1c-0.2,1.1-0.8,2-1.7,2.7C293.6,195.3,292.8,195.5,292,195.5z M289.9,191
		c-0.1,0.6,0,1.1,0.3,1.6s0.8,0.8,1.4,0.9c0.6,0.1,1.1,0,1.6-0.3s0.8-0.8,0.9-1.4c0.1-0.6,0-1.1-0.3-1.6s-0.8-0.8-1.4-0.9
		C291.2,189,290.1,189.8,289.9,191L289.9,191z"/>
</g>
<g>
	<path class="st1" d="M67.2,118.9c-0.2,0-0.3,0-0.5-0.1c-0.7-0.1-1.3-0.5-1.7-1.1c-0.4-0.6-0.6-1.3-0.5-2l0,0
		c0.1-0.7,0.5-1.3,1.1-1.7c0.6-0.5,1.3-0.6,2-0.5s1.3,0.5,1.7,1.1c0.4,0.6,0.6,1.3,0.5,2s-0.5,1.3-1.1,1.7
		C68.3,118.7,67.7,118.9,67.2,118.9z M65.9,116c-0.1,0.4,0,0.7,0.2,1s0.5,0.5,0.9,0.6s0.7,0,1-0.2s0.5-0.5,0.6-0.9s0-0.7-0.2-1
		s-0.5-0.5-0.9-0.6C66.7,114.7,66,115.2,65.9,116L65.9,116z"/>
</g>
<g>
	<path class="st1" d="M273.7,85.9c-0.2,0-0.3,0-0.5-0.1c-0.7-0.1-1.3-0.5-1.7-1.1c-0.4-0.6-0.6-1.3-0.5-2l0,0
		c0.1-0.7,0.5-1.3,1.1-1.7c0.6-0.5,1.3-0.6,2-0.5s1.3,0.5,1.7,1.1c0.4,0.6,0.6,1.3,0.5,2s-0.5,1.3-1.1,1.7
		C274.7,85.7,274.2,85.9,273.7,85.9z M272.3,83c-0.1,0.4,0,0.7,0.2,1s0.5,0.5,0.9,0.6s0.7,0,1-0.2s0.5-0.5,0.6-0.9s0-0.7-0.2-1
		s-0.5-0.5-0.9-0.6C273.2,81.7,272.5,82.2,272.3,83L272.3,83z"/>
</g>
</svg>
