<svg xmlns="http://www.w3.org/2000/svg" viewBox="0 0 1000 1000" >
                  <path fill="none" d="M0 0h1000v1000H0z"></path>
                  <g fill="#00afb2" color="#00afb2">
                    <path d="M738.8 882.5c-98.3 0-178.3-80-178.3-178.4s80-178.4 178.3-178.4c98.4 0 178.4 80 178.4 178.4s-80 178.4-178.4 178.4zm0-342.5c-90.5 0-164.2 73.7-164.2 164.2s73.6 164.2 164.2 164.2c90.5 0 164.2-73.7 164.2-164.2S829.4 540 738.8 540z" ></path>
                    <path d="M738.8 794.9c-3.9 0-7.1-3.2-7.1-7.1V620.6c0-3.9 3.2-7.1 7.1-7.1s7.1 3.2 7.1 7.1v167.2c0 3.9-3.1 7.1-7.1 7.1z"></path>
                    <path d="M822.4 711.2H655.3c-3.9 0-7.1-3.2-7.1-7.1s3.2-7.1 7.1-7.1h167.2c3.9 0 7.1 3.2 7.1 7.1s-3.2 7.1-7.2 7.1zM89.9 762c-.4 0-.8 0-1.2-.1-3.9-.7-6.4-4.3-5.8-8.2l.8-4.7c5.1-29.2 10.1-57.9 13.6-77.1 3.8-20.5 6.2-31.7 14.5-40.7 7.7-8.4 19.5-14 39.8-22 5.9-2.3 12.6-4.9 19.7-7.6 15.2-5.8 32.8-12.5 50.5-20 27.1-11.5 53-24.1 71-34.5 17.4-10.1 28.9-19.1 35-27.5 4.4-6.1 6.2-11.9 7.6-16.6.4-1.4.8-2.7 1.2-3.9 1.8-5.1 4-7.9 5.6-9.6v-24.9c0-1.5 0-3.1-.1-3.5-.2-.6-.8-1.2-1.6-2.4-3.4-5-8.9-13.3-12.6-19.9-4-7.1-6.2-12.6-8.8-22l-.9-3.2c-1.7-6.5-4.3-16.4-7.4-19.7-.9-.9-2.1-1.5-4.1-2.5-4.2-2-9.9-4.7-14.4-13.4-5.5-10.6-9.4-30.4-12.2-44.8l-1.7-8.4c-2.3-11.5-3.5-17.3 2.2-21.6 2.9-2.1 6.7-2.8 10.7-2.9-.4-5.1-.6-12.9-.3-26.5 1-34.4 5.2-60.6 12.9-80.3 9.6-24.6 27.4-44.8 51.4-58.2 20.2-11.3 44.1-17.5 69.1-17.7h1.7c22.9 0 44.7 4.9 66.6 14.9 28.4 13 47.5 30.6 58.2 53.9 11.8 25.6 14.4 60.2 15.4 87.3.5 14.8.5 23.9.4 29.7 3.4-1.1 6.5-1.6 9.3-.8 10 2.8 7.9 14.9 5.9 26.5-1.7 9.9-6.4 34.3-12.7 46.8-3.7 7.4-7.9 10.7-11.3 13.4-2.1 1.6-3.5 2.7-4.6 4.6-2 3.5-3.6 10.1-5.2 16.6-1.1 4.5-2.2 9.1-3.5 13-2.9 8.6-6.6 14.3-9.9 19.4l-2.5 3.9c-3.7 6.1-5.6 11.4-6.4 18.3-1.1 8.7-.5 20.8-.3 25.3.1 2.2.3 6.8.6 7.7 1.5 1.9 2.9 3.6 4.9 6.8l2.7 4.4c2.9 4.9 6.6 11.1 10.8 16.4 5.4 6.8 11.8 12.4 21.4 18.8 9.7 6.4 22.3 13.5 34.6 20.3 3.4 1.9 4.7 6.2 2.8 9.6-1.9 3.4-6.2 4.6-9.6 2.8-12.5-6.9-25.4-14.1-35.5-20.9-10.8-7.2-18.4-13.9-24.6-21.8-4.8-6.1-8.9-12.9-11.9-17.9l-2.5-4.2c-1.6-2.5-2.7-3.9-3.4-4.9-1-1.3-1.6-2.2-2.2-3.2-1.5-3.1-1.7-6.3-2-13.2-.4-8.3-.7-19 .4-27.8 1.1-8.7 3.7-16.1 8.4-23.8l2.7-4.2c3-4.6 6-9.3 8.3-16.2 1.2-3.6 2.2-7.8 3.2-11.9 1.9-7.8 3.7-15.1 6.7-20.4 2.5-4.2 5.4-6.6 8-8.6 2.7-2.2 5.1-4 7.4-8.7 4.5-8.9 8.8-28 11.4-42.9.7-4.2 1.1-7.2 1.3-9.2-1 .5-2.4 1.1-4 1.9-2.2 1.1-5.8 2.9-9.6.4s-3.6-6.6-3.4-10.1c.2-4.2.7-12.9-.1-35.5-.5-15.2-2-55.6-14.1-81.9-9.2-20.1-26-35.4-51.2-46.9-20.5-9.4-41.2-13.5-62.3-13.6-22.6.2-44.2 5.7-62.3 15.9-21.1 11.8-36.7 29.5-45.1 51-7.1 18.1-11 42.8-11.9 75.5-.5 19.4.3 26 .6 29.1.3 2.6.7 5.9-1.9 8.7-2.6 2.8-5.9 2.6-8.1 2.5-2.1-.1-3.7-.1-4.9-.1.3 1.9.9 4.7 1.4 7.5l1.7 8.5c2.5 12.8 6.3 32.2 10.8 41 2.3 4.5 4.6 5.5 7.9 7.1 2.5 1.2 5.7 2.7 8.4 5.7 5.5 5.9 8.3 16.5 10.7 25.7l.8 3.1c2.3 8.3 4 12.7 7.4 18.8 3.6 6.3 8.8 14.2 11.7 18.4 4 6 4.4 7.4 4.4 14.3v22.4c0 6.2 0 8.7-3.4 11.8-.7.6-1.8 1.6-3 5l-1 3.3c-1.5 5.1-3.9 12.9-9.7 20.9-7.5 10.1-19.9 20.1-39.3 31.4-18.5 10.7-44.9 23.6-72.6 35.3-17.9 7.6-35.6 14.3-51 20.2-7.1 2.7-13.7 5.2-19.6 7.6-18 7.1-28.8 12.1-34.6 18.4-5.4 5.9-7.3 13.9-10.9 33.7-3.5 19.1-8.5 47.8-13.6 76.9l-.8 4.7c-.5 3.5-3.5 6-6.9 6z"></path>
                    <path d="M459.1 235.5c-.9 0-1.9-.2-2.8-.6l-73.7-31.3-23.7 15.5c-1.7 1.1-3.7 1.4-5.7.9l-31.6-8.2c-3.8-1-6.1-4.8-5.1-8.6s4.8-6.1 8.6-5.1l28.5 7.4 24.3-15.8c2-1.3 4.5-1.5 6.6-.6l68.4 29 1.3-11.6c.2-2.1 1.4-4 3.2-5.2 1.8-1.1 4-1.4 6-.8l52.6 16.8 16.4-6.2c3.7-1.3 7.7.5 9.1 4.2 1.4 3.7-.5 7.8-4.2 9.1l-18.7 7c-1.5.5-3.1.6-4.6.1l-46.7-14.9-1.4 12.5c-.2 2.2-1.5 4.2-3.5 5.3-.8.8-2.1 1.1-3.3 1.1zm-24.4 324.4c-2.9 0-5.8-1.1-10.4-3.3-7.3-3.5-21.7-10.4-34.5-17.1-14.2-7.4-25.1-13.9-32.4-21.5-8-8.3-11.1-17.6-13.9-25.7-1.3-3.7.7-7.7 4.4-9 3.7-1.3 7.7.7 9 4.4 2.5 7.4 4.9 14.5 10.7 20.5 5.9 6.2 15.8 12 28.7 18.8 12.6 6.6 26.8 13.5 34 16.9 1.7.8 3.8 1.8 4.4 1.9.4-.1 2.5-1.1 4.2-1.9 5.1-2.4 20.5-9.7 34-17.7 13.2-7.8 24-15.7 29.4-21.7 5-5.5 5.8-9.5 6.8-14.6.7-3.8 4.4-6.4 8.3-5.6 3.8.7 6.4 4.5 5.6 8.3-1.1 5.8-2.5 13.1-10.2 21.5-8.7 9.6-24.2 19.3-32.7 24.3-14.1 8.3-29.9 15.8-35.1 18.3-4.5 2.1-7.4 3.2-10.3 3.2z"></path>
                    <path d="M481.7 627.4h-.8c-3.5-.5-4.8-2.2-9.6-8.7l-3.2-4.3c-4.3-5.8-11.1-14.8-17.5-23.3l-13.1-17.3c-.7-1-1.4-1.9-2-2.7-.1.1-.2.3-.3.4-6 8-18.1 24.4-25.3 34.5-7.1 10-9.6 14-10.9 16-1.1 1.7-4 4.1-6 4.4-4.2.7-6.3-1-16.2-9.3-11-9.2-31.5-26.4-41.9-39.1-12.2-14.8-11-24.7-8.2-36.2 2.7-11.1 7.5-26.1 12.1-40.5 1.2-3.7 5.2-5.7 8.9-4.6 3.7 1.2 5.8 5.2 4.6 8.9-4.6 14.2-9.3 28.9-11.9 39.6-2.2 9.2-2.9 13.8 5.4 23.8 9.6 11.7 30.2 29 40.1 37.3 1.6 1.4 3 2.5 4.1 3.5 1.8-2.7 4.3-6.4 8.3-11.9 7.3-10.3 19.4-26.7 25.5-34.8 3.6-4.8 6.4-8.6 11.6-8.6 5.3 0 8.1 3.7 13.2 10.5l13.3 17.7c6.5 8.6 13.2 17.5 17.6 23.4l3.1 4.1c.9-.9 2-2 3.3-3.4 5.7-5.8 15.3-15.6 23.9-24.8 7.8-8.4 15.1-16.7 17.7-24.8 2.2-6.8 1.6-14.8-1.6-24.5-2.9-8.8-7.3-16.8-12-25.3-1.9-3.4-.6-7.7 2.8-9.6 3.4-1.9 7.7-.6 9.6 2.8 4.7 8.7 9.6 17.7 13 27.6 4.2 12.7 4.8 23.6 1.7 33.3-3.5 10.9-11.8 20.5-20.8 30.2-8.7 9.4-18.4 19.3-24.2 25.1-6.2 6.3-8.2 8.2-9.2 9-1.3.9-3.3 1.6-5.1 1.6zm-87.6-14.6h.2-.2z"></path>
                    <path d="M397.5 840c-16.2-55.1-32.8-111.4-45.5-161.9-12.7-50.8-21.9-97.2-30.7-142.1-.7-3.8 1.7-7.6 5.6-8.3 3.8-.7 7.6 1.8 8.3 5.6 8.8 44.7 17.9 91 30.5 141.4 12.6 50.2 29.1 106.4 45.1 160.7l-13.3 4.6zm69.7 4.8c-.7 0-1.3-.1-2-.3-3.7-1.1-5.9-5-4.8-8.8 15.7-53.9 32-109.7 44.5-160.4 12.4-50.7 21.3-97.4 29.9-142.6.7-3.9 4.5-6.3 8.3-5.6 3.8.7 6.4 4.4 5.6 8.3-8.6 45.4-17.5 92.3-30 143.3-12.5 51-28.8 106.9-44.6 161-1 3.1-3.8 5.1-6.9 5.1z"></path>
                    <path d="M394.1 806.9c-.4 0-.9 0-1.3-.1-3.8-.7-6.4-4.4-5.7-8.2 10.9-59.7 22.1-121.5 25.1-155.1 2.8-31.1-1.4-36.5-5.7-42.3-2.4-3.1-1.7-7.6 1.4-9.9 3.1-2.3 7.6-1.7 9.9 1.4 6.9 9.1 11.5 18.2 8.5 52.1-2.9 34.1-14.3 96.2-25.2 156.2-.6 3.4-3.6 5.9-7 5.9zm81.1-2.8c-3.4 0-6.3-2.4-7-5.8-10.9-60-22.3-122.1-25.3-156.4-3-33.9 1.6-43 8.5-52.1 2.4-3.1 6.8-3.7 9.9-1.4 3.1 2.4 3.7 6.8 1.4 9.9-4.4 5.8-8.5 11.2-5.7 42.3 3 33.6 14.3 95.4 25.1 155.1.7 3.8-1.9 7.5-5.7 8.2-.3.1-.8.2-1.2.2z"></path>
                  </g>
                </svg>