 <svg
                  xmlns="http://www.w3.org/2000/svg"
                  width="24"
                  height="24"
                  fill="none"
                  viewBox="0 0 24 24"
                >
                  <g clip-path="url(#whatsapp-icon_svg__a)">
                    <path
                      fill="#3ECF8E"
                      d="M12.503 1h-.006C6.157 1 1 6.158 1 12.5c0 2.516.81 4.847 2.19 6.74l-1.435 4.273 4.42-1.413a11.4 11.4 0 0 0 6.327 1.9C18.843 24 24 18.84 24 12.5S18.844 1 12.503 1Zm6.691 16.24c-.277.783-1.378 1.433-2.256 1.622-.601.128-1.386.23-4.028-.865-3.38-1.4-5.556-4.834-5.726-5.057-.162-.223-1.365-1.819-1.365-3.469s.838-2.454 1.175-2.799c.278-.283.736-.412 1.176-.412.143 0 .27.007.386.013.337.014.507.034.73.568.277.668.953 2.318 1.033 2.488.082.17.164.4.05.622-.109.23-.204.332-.373.528-.17.195-.33.345-.5.555-.156.182-.331.378-.136.716.196.33.872 1.433 1.866 2.318 1.284 1.143 2.325 1.508 2.697 1.664.278.115.608.087.81-.128.258-.278.576-.738.9-1.19.23-.326.52-.366.824-.25.31.107 1.954.92 2.292 1.087.338.17.56.25.642.393.08.142.08.811-.197 1.596Z"
                    ></path>
                  </g>
                  <defs>
                    <clipPath id="whatsapp-icon_svg__a">
                      <path fill="#fff" d="M0 0h24v24H0z"></path>
                    </clipPath>
                  </defs>
                </svg>