<svg xmlns="http://www.w3.org/2000/svg" width="30" height="30" fill-rule="evenodd" image-rendering="optimizeQuality" shape-rendering="geometricPrecision" viewBox="0 0 3.06 3.06"><path fill="#6485f9" fill-rule="nonzero" d="m2.29 1.96-.24-.05c-.02 0-.04 0-.06.01l-.06.03-.17.16c-.02.02-.05.03-.08.01-.16-.08-.3-.18-.43-.31a1.69 1.69 0 0 1-.31-.43c-.02-.03-.01-.06.02-.08l.16-.16c.01-.01.02-.03.02-.04.01-.02.01-.04.01-.06L1.11.77c0-.04-.02-.07-.05-.09V.67A.161.161 0 0 0 .97.64h-.2C.74.64.7.66.68.68.65.71.64.74.64.78c.03.45.22.84.51 1.13.29.3.69.49 1.13.52h.01c.03 0 .07-.02.09-.04a.19.19 0 0 0 .05-.1c0-.06-.01-.13 0-.2-.01-.03-.02-.06-.04-.09a.127.127 0 0 0-.09-.04h-.01zm-.21-.19.24.04c.07.01.13.05.18.1.04.05.07.11.07.18v.21c0 .08-.04.14-.09.19s-.12.08-.19.08h-.02c-.48-.03-.91-.23-1.22-.55C.73 1.7.52 1.27.49.79V.78a.28.28 0 0 1 .08-.2C.62.53.69.5.76.49h.21c.07 0 .13.03.18.07l.01.01c.05.04.09.11.09.18l.04.27c.01.04 0 .08-.01.12s-.03.07-.06.1l-.12.13c.07.12.15.24.25.34.11.1.22.19.35.26l.13-.12c.03-.03.07-.05.11-.07.04-.01.09-.02.13-.01h.01z"></path></svg>