<svg xmlns="http://www.w3.org/2000/svg" width="81" height="81" fill="none" viewBox="0 0 81 81">
<circle cx="40.5" cy="40.5" r="40" stroke="#E0E3EB"></circle>
<path fill="#3ECF8E" fill-rule="evenodd" d="M46.147 34.43C47.382 32.7 48 30.723 48 28.5c0-.618 0-1.235-.123-1.853C47.011 21.706 42.688 18 37.5 18c-5.188 0-9.512 3.706-10.376 8.647C27 27.265 27 27.882 27 28.5c0 2.224.741 4.2 1.853 5.93C30.706 37.146 33.918 39 37.5 39s6.794-1.73 8.647-4.57ZM56 59.181v-6.3c0-4.2-2.616-7.782-6.353-9.264-1.12-.37-2.242-.618-3.488-.618H29.966c-1.246 0-2.367.247-3.488.618C22.616 45.1 20 48.682 20 52.882v6.3c0 .37 0 .741.125 1.112.498 2.1 2.491 3.706 4.733 3.706h26.284c2.242 0 4.235-1.606 4.734-3.706.124-.37.124-.741.124-1.112Z" clip-rule="evenodd"></path>
<path fill="#9FE7C7" fill-rule="evenodd" d="M58 28a1.5 1.5 0 0 1 1.5 1.5V33h3a1.5 1.5 0 0 1 0 3h-3v3.5a1.5 1.5 0 0 1-3 0V36h-3a1.5 1.5 0 0 1 0-3h3v-3.5A1.5 1.5 0 0 1 58 28Z" clip-rule="evenodd"></path>
</svg>