<svg xmlns="http://www.w3.org/2000/svg" xml:space="preserve" viewBox="0 0 1000 1000"><path fill="none" d="M0 0h1000v1000H0z"></path><g fill="#00AFB2"><path d="M951.2 219.5H48.8c-4.4 0-7.9-3.6-7.9-7.9v-89.4c0-4.4 3.6-7.9 7.9-7.9h902.4c4.4 0 7.9 3.6 7.9 7.9v89.4c0 4.4-3.5 7.9-7.9 7.9zM56.8 203.7h886.5v-73.5H56.8v73.5z"></path><path d="M862.6 699.3H137.5c-26.9 0-48.8-21.9-48.8-48.8V215.8c0-4.4 3.6-7.9 7.9-7.9s7.9 3.6 7.9 7.9v434.7c0 18.1 14.8 32.9 32.9 32.9h725.2c18.2 0 32.9-14.8 32.9-32.9V215.8c0-4.4 3.6-7.9 7.9-7.9s7.9 3.6 7.9 7.9v434.7c.1 26.9-21.8 48.8-48.7 48.8z"></path><path d="M814 384.3H608.8c-4.4 0-7.9-3.6-7.9-7.9s3.6-7.9 7.9-7.9H814c4.4 0 7.9 3.6 7.9 7.9s-3.5 7.9-7.9 7.9zM814 459.5H608.8c-4.4 0-7.9-3.6-7.9-7.9s3.6-7.9 7.9-7.9H814c4.4 0 7.9 3.6 7.9 7.9s-3.5 7.9-7.9 7.9zM814 534.7H608.8c-4.4 0-7.9-3.6-7.9-7.9s3.6-7.9 7.9-7.9H814c4.4 0 7.9 3.6 7.9 7.9s-3.5 7.9-7.9 7.9zM500 791.4c-4.4 0-7.9-3.6-7.9-7.9V693c0-4.4 3.6-7.9 7.9-7.9s7.9 3.6 7.9 7.9v90.5c.1 4.3-3.5 7.9-7.9 7.9z"></path><path d="M500 885.8c-29.6 0-53.6-24.1-53.6-53.7s24.1-53.7 53.6-53.7c29.6 0 53.6 24.1 53.6 53.7.1 29.6-24 53.7-53.6 53.7zm0-91.5c-20.8 0-37.8 16.9-37.8 37.8s17 37.8 37.8 37.8c20.8 0 37.8-17 37.8-37.8s-16.9-37.8-37.8-37.8zM328.8 578.9h-.1c-3.7-.1-6.9-2.7-7.6-6.3l-44-206.2-18.7 89.3c-.7 3.4-3.5 5.9-7 6.3-3.5.4-6.7-1.6-8.1-4.8l-15.8-36.7-18.7 35.1c-1.4 2.6-4.1 4.2-7 4.2h-36.6c-4.4 0-7.9-3.6-7.9-7.9s3.6-7.9 7.9-7.9H197l24.2-45.5c1.4-2.7 4.2-4.5 7.3-4.2 3 .1 5.7 2 6.9 4.8l12.5 28.8 21.3-101.5c.8-3.7 4-6.3 7.7-6.3s7 2.6 7.8 6.3l44.7 209.3L378 341.4c.9-3.6 4.5-5.9 8-6 3.7.1 6.9 2.8 7.5 6.5l16.2 90.5 17.7-34.8c1.3-2.6 4-4.3 6.9-4.3 3.1-.2 5.6 1.5 7.1 4l45 79.7 12.5-28.6c1.3-2.9 4.1-4.7 7.3-4.7h34.6c4.4 0 7.9 3.5 7.9 7.9s-3.6 7.9-7.9 7.9h-29.4l-16.8 38.3c-1.2 2.7-3.9 4.6-6.9 4.7-3-.1-5.8-1.4-7.3-4L434.8 418l-21.7 42.7c-1.6 3-4.8 4.7-8.3 4.3-3.4-.5-6-3.1-6.6-6.5l-13.8-77.3-47.9 191.6c-.9 3.6-4.1 6.1-7.7 6.1z"></path></g></svg>