<svg xmlns="http://www.w3.org/2000/svg" width="30" height="30" fill="#ff5630" image-rendering="optimizeQuality" shape-rendering="geometricPrecision" viewBox="0 0 1.91 1.91"><path d="M.42.53h1.07c.03 0 .05.02.05.05v.68c0 .02-.02.04-.05.04H.42c-.03 0-.05-.02-.05-.04V.58C.37.55.39.53.42.53zm1.03.1H.46v.58h.99V.63zM.26.42C.24.42.22.4.22.38.22.35.24.33.26.33h1.39c.02 0 .04.02.04.05 0 .02-.02.04-.04.04H.26zm.65 1c0-.03.02-.05.05-.05.02 0 .04.02.04.05v.12c0 .02-.02.04-.04.04-.03 0-.05-.02-.05-.04v-.12z"></path><path d="M.64 1.11c-.02.01-.05.01-.06-.01-.02-.02-.02-.05 0-.06l.23-.2C.82.82.85.82.87.84l.18.15.22-.23c.02-.02.05-.02.06-.01.02.02.02.05.01.07l-.26.26c-.01.02-.04.02-.06 0L.84.93l-.2.18z"></path></svg>