<svg xmlns="http://www.w3.org/2000/svg" width="56" height="56" fill="none" viewBox="0 0 56 56"><circle cx="28" cy="28" r="28" fill="#3ECF8E"></circle><path fill="#fff" d="M19.392 17.044h8.352c1.493 0 2.816.31 3.968.928 1.173.619 2.08 1.483 2.72 2.592.64 1.088.96 2.325.96 3.712 0 1.472-.47 2.784-1.408 3.936-.917 1.13-2.08 1.952-3.488 2.464l-.032.224 6.144 8.8v.256h-4.96l-5.92-8.608h-2.016v8.608h-4.32V17.044Zm8.32 10.336c.981 0 1.781-.299 2.4-.896s.928-1.355.928-2.272c0-.875-.299-1.621-.896-2.24-.576-.619-1.365-.928-2.368-.928h-4.064v6.336h4Z"></path></svg>