<svg width="92" height="92" viewBox="0 0 92 92" fill="none" xmlns="http://www.w3.org/2000/svg">
<g clip-path="url(#clip0)">
<path d="M45.3794 69C58.4449 69 69.0365 58.7026 69.0365 46C69.0365 40.7868 67.2525 35.9786 64.2457 32.1212L62.6285 33.7384C60.5419 35.825 56.9789 34.8703 56.2152 32.0199L54.2457 24.6699C51.5075 23.593 48.5147 23 45.3794 23C32.3139 23 21.7222 33.2975 21.7222 46C21.7222 50.7635 23.2117 55.1887 25.7625 58.8595C26.0915 59.333 26.4382 59.794 26.8017 60.2415L28.0936 58.9496C30.1802 56.863 33.7431 57.8177 34.5069 60.668L36.2654 67.2312C39.0704 68.3706 42.1493 69 45.3794 69Z" fill="#3ECF8E"/>
<path d="M51.4625 56.0943C50.3125 57.1166 48.9069 57.7554 47.1181 58.1388V59.7999C47.1181 60.4388 46.607 60.9499 45.9681 60.9499C45.3292 60.9499 44.8181 60.4388 44.8181 59.7999V58.1388C43.2847 58.011 41.8792 57.3721 40.6014 56.3499C39.707 55.5832 38.9403 54.6888 38.4292 53.5388C38.1736 52.8999 38.4292 52.0054 39.1958 51.7499C39.8347 51.4943 40.6014 51.7499 40.9847 52.3888C41.2403 53.0277 41.6237 53.5388 42.1348 53.9221C42.9014 54.6888 43.7958 55.1999 44.8181 55.3277V47.1499H44.6903C42.7737 46.3832 41.2403 45.4888 40.2181 44.4666C39.1959 43.4443 38.6848 42.1666 38.6848 40.6332C38.6848 39.7388 38.9403 38.7166 39.4514 37.9499C39.9625 37.0554 40.6014 36.4166 41.4959 35.7777C42.3903 35.2666 43.4125 34.8832 44.6903 34.7554V33.0943C44.6903 32.4554 45.2014 31.9443 45.8403 31.9443C46.4792 31.9443 46.9903 32.4554 46.9903 33.0943V34.7554C48.5236 35.011 49.6736 35.5221 50.6958 36.4166C51.2069 36.7999 51.5903 37.311 51.8459 37.6943C52.357 38.3332 51.9736 39.3554 51.207 39.611C50.5681 39.8666 49.9292 39.611 49.5459 39.0999C49.4181 38.8443 49.1625 38.5888 48.907 38.3332C48.3959 37.8221 47.7569 37.4388 46.8625 37.311V44.9777C48.7792 45.7443 50.2467 46.573 51.3347 47.661C54.4013 50.7277 53.3625 54.1777 51.4625 56.0943ZM42.3903 42.8054C42.9014 43.3166 43.7958 43.9554 44.8181 44.3388V37.5666C43.7958 37.6943 42.9014 38.0777 42.3903 38.8443C41.8792 39.3554 41.6236 40.1221 41.6236 40.8888C41.6236 41.6554 41.8792 42.2943 42.3903 42.8054ZM49.5459 54.1777C50.1848 53.5388 50.568 52.8999 50.568 52.0055C50.568 51.2388 50.1847 50.3443 49.6736 49.8332C49.1625 49.3221 48.2681 48.811 47.2459 48.2999V55.4555C48.1403 55.1999 48.907 54.8166 49.5459 54.1777Z" fill="white"/>
<path d="M33.9929 76.0293L20.8581 72.5098C19.9079 72.2552 19.5897 71.0676 20.2852 70.372L23.6948 66.9624C22.7181 65.9527 21.8122 64.8729 20.9851 63.7312C17.4313 58.8257 15.3333 52.7773 15.3333 46.2343C15.3333 30.4281 27.5761 17.5088 43.0104 16.6138C43.9542 16.5591 44.7222 17.3307 44.7222 18.2761C44.7222 19.2214 43.9535 19.9819 43.0102 20.0438C29.45 20.9338 18.7244 32.3195 18.7244 46.2343C18.7244 52.2458 20.7263 57.7853 24.0938 62.2104C24.7183 63.031 25.3897 63.8133 26.1041 64.5532L29.9006 60.7567C30.5962 60.0611 31.7838 60.3793 32.0384 61.3295L35.5579 74.4643C35.8124 75.4144 34.943 76.2839 33.9929 76.0293Z" fill="#3ECF8E" fill-opacity="0.5"/>
<path d="M69.864 20.1755L56.7291 16.656C55.779 16.4014 54.9096 17.2708 55.1642 18.2209L58.6836 31.3558C58.9382 32.3059 60.1259 32.6241 60.8214 31.9286L64.618 28.132C65.3324 28.8719 66.0039 29.6542 66.6285 30.4749C69.996 34.9 71.9979 40.4395 71.9979 46.451C71.9979 60.3658 61.2722 71.7515 47.712 72.6415C46.7687 72.7034 46 73.4638 46 74.4092C46 75.3546 46.7681 76.1262 47.7118 76.0714C63.1462 75.1765 75.3889 62.2571 75.3889 46.451C75.3889 39.9079 73.291 33.8596 69.7372 28.954C68.91 27.8123 68.004 26.7325 67.0273 25.7227L70.4368 22.3132C71.1323 21.6177 70.8141 20.43 69.864 20.1755Z" fill="#3ECF8E"/>
</g>
<defs>
<clipPath id="clip0">
<path d="M0 0H92V92H0V0Z" fill="white"/>
</clipPath>
</defs>
</svg>
