<svg xmlns="http://www.w3.org/2000/svg" width="30" height="30" fill="#9748d6" image-rendering="optimizeQuality" shape-rendering="geometricPrecision" viewBox="0 0 1.66 1.66"><path d="M.43.4h.8c.03 0 .06.01.08.03s.04.05.04.08v.53c0 .02-.02.04-.04.04H.35c-.02 0-.04-.02-.04-.04V.51C.31.48.32.45.34.43S.39.4.43.4zm.8.08h-.8C.42.48.41.48.4.49.39.49.39.5.39.51V1h.88V.51c0-.01-.01-.02-.01-.02-.01-.01-.02-.01-.03-.01z"></path><path d="M1.46 1.1c0-.02.02-.04.04-.04s.04.02.04.04c0 .04-.02.08-.05.11a.16.16 0 0 1-.11.05H.28a.16.16 0 0 1-.11-.05.16.16 0 0 1-.05-.11c0-.02.02-.04.04-.04s.04.02.04.04.01.04.02.06c.02.01.04.02.06.02h1.1c.02 0 .04-.01.05-.02.02-.02.03-.04.03-.06z"></path></svg>