<svg xmlns="http://www.w3.org/2000/svg" width="30" height="30" fill="#00b8d9" image-rendering="optimizeQuality" shape-rendering="geometricPrecision" viewBox="0 0 2.84 2.84"><path d="M1.65 2.43c-.03.03-.07.03-.1 0-.02-.03-.02-.07.01-.09l.45-.43-.45-.42c-.03-.02-.03-.07-.01-.09.03-.03.07-.03.1-.01l.51.48c.03.02.03.07 0 .09l-.51.47z"></path><path d="M2.07 1.85c.04 0 .07.03.07.06 0 .04-.03.07-.07.07H.73c-.04 0-.07-.03-.07-.07 0-.03.03-.06.07-.06h1.34zm-.79-.5c.03.02.03.06 0 .09-.02.03-.06.03-.09.01L.68.97C.65.95.65.91.68.88L1.19.4c.03-.02.07-.02.09.01.03.02.03.07 0 .09L.82.92l.46.43z"></path><path d="M.77.99C.73.99.7.96.7.92.7.89.73.86.77.86h1.34c.04 0 .07.03.07.06 0 .04-.03.07-.07.07H.77z"></path></svg>