<svg xmlns="http://www.w3.org/2000/svg" width="30" height="30" fill="none" viewBox="0 0 30 30"><g fill="#6485F9" fill-rule="evenodd" clip-path="url(#refer-a-friend_svg__a)" clip-rule="evenodd"><path d="M15.5 14.5a3 3 0 1 0 0-6 3 3 0 0 0 0 6zm0 1.5a4.5 4.5 0 1 0 0-9 4.5 4.5 0 0 0 0 9zm-3.514 3.94c-.78.724-1.236 1.766-1.236 3.06a.75.75 0 0 1-1.5 0c0-1.665.597-3.123 1.717-4.16 1.116-1.033 2.686-1.59 4.533-1.59 1.847 0 3.417.557 4.533 1.59 1.12 1.037 1.717 2.495 1.717 4.16a.75.75 0 0 1-1.5 0c0-1.294-.456-2.336-1.236-3.06-.786-.727-1.966-1.19-3.514-1.19-1.548 0-2.728.463-3.514 1.19zm-6.071-1.153c-.748.4-1.165 1.048-1.165 1.713a.75.75 0 0 1-1.5 0c0-1.335.833-2.436 1.96-3.037 1.134-.605 2.615-.74 4.069-.16a.75.75 0 0 1-.558 1.393c-1.046-.418-2.065-.304-2.806.09zM7 14.5a1.5 1.5 0 1 0 0-3 1.5 1.5 0 0 0 0 3zM7 16a3 3 0 1 0 0-6 3 3 0 0 0 0 6zm18.085 2.787c.748.4 1.165 1.048 1.165 1.713a.75.75 0 0 0 1.5 0c0-1.335-.834-2.436-1.96-3.037-1.134-.605-2.615-.74-4.069-.16a.75.75 0 0 0 .558 1.393c1.046-.418 2.065-.304 2.806.09zM24 14.5a1.5 1.5 0 1 1 0-3 1.5 1.5 0 0 1 0 3zm0 1.5a3 3 0 1 1 0-6 3 3 0 0 1 0 6z"></path></g><defs><clipPath id="refer-a-friend_svg__a"><path fill="#fff" d="M0 0h30v30H0z"></path></clipPath></defs></svg>