<svg xmlns="http://www.w3.org/2000/svg" width="56" height="56" fill="none" viewBox="0 0 56 56"><circle cx="28" cy="28" r="28" fill="#3ECF8E"></circle><path fill="#fff" d="M28.352 40.468c-2.005 0-3.776-.565-5.312-1.696-1.536-1.13-2.613-2.73-3.232-4.8l4.064-1.6c.32 1.216.864 2.187 1.632 2.912.768.725 1.728 1.088 2.88 1.088.96 0 1.781-.235 2.464-.704.683-.49 1.024-1.163 1.024-2.016s-.33-1.547-.992-2.08c-.64-.555-1.792-1.141-3.456-1.76l-1.408-.512c-1.472-.512-2.73-1.29-3.776-2.336-1.045-1.067-1.568-2.4-1.568-4 0-1.195.31-2.283.928-3.264.619-.981 1.493-1.75 2.624-2.304 1.13-.576 2.41-.864 3.84-.864 2.07 0 3.701.49 4.896 1.472 1.195.96 2.016 2.09 2.464 3.392l-3.808 1.6a3.676 3.676 0 0 0-1.248-1.76c-.576-.49-1.323-.736-2.24-.736-.939 0-1.717.224-2.336.672-.597.427-.896.992-.896 1.696 0 .683.288 1.27.864 1.76.576.47 1.525.928 2.848 1.376l1.44.48c1.984.683 3.499 1.59 4.544 2.72 1.067 1.11 1.6 2.57 1.6 4.384 0 1.493-.384 2.763-1.152 3.808a7.08 7.08 0 0 1-2.976 2.304 9.332 9.332 0 0 1-3.712.768Z"></path></svg>