<svg xmlns="http://www.w3.org/2000/svg" viewBox="0 0 1200 600"><path fill="#BAC3D4" d="M442.6 205c-7.8 12.1-13.7 25.2-17.7 38.8-4 13.6-6.1 27.9-6.1 42.3v2.4h-2.2v-2.4c0-14.6 2.1-29 6.2-42.9 4.1-13.9 10.1-27.2 17.9-39.4l1.9 1.2zM687.7 378.8c10.4-13.2 18.4-28 23.8-43.7 5.4-15.7 8.2-32.2 8.2-49.1 0-41.5-16.8-79.1-44.1-106.4-27.2-27.2-64.8-44.1-106.4-44.1-23.8 0-46.9 5.6-67.6 16-20.7 10.4-39 25.6-53.2 44.7l-1.8-1.3c14.4-19.4 33-34.8 54-45.3 21-10.6 44.4-16.3 68.6-16.3 42.1 0 80.3 17.1 107.9 44.7 27.6 27.6 44.7 65.8 44.7 107.9 0 17.1-2.9 33.9-8.3 49.8-5.5 15.9-13.6 30.9-24.1 44.3l-1.7-1.2z"/><path fill="#4775CA" d="M635.1 141.5c-10.3-4.7-21.1-8.3-32.2-10.7-11-2.4-22.3-3.6-33.7-3.6-24.4 0-48.1 5.6-69.4 16-21.4 10.4-40.4 25.5-55.4 44.7l-3.5-2.7c15.5-19.7 35-35.3 57-45.9 22-10.7 46.3-16.4 71.3-16.4 11.7 0 23.3 1.3 34.6 3.7 11.3 2.5 22.4 6.1 33.1 11l-1.8 3.9zM722.9 326.4c1.7-6.6 3-13.3 3.9-20 .9-6.7 1.3-13.5 1.3-20.3 0-16.8-2.7-33.4-7.8-49.1-5.1-15.8-12.7-30.8-22.6-44.3l3.6-2.6c10.2 14 18 29.4 23.3 45.6 5.3 16.2 8 33.3 8 50.5 0 6.9-.5 13.9-1.4 20.9-.9 6.9-2.2 13.8-4 20.5l-4.3-1.2zM487.2 422.1c12.4 7.5 25.7 13.2 39.5 17 13.8 3.8 28.1 5.8 42.6 5.8 29.6 0 58-8.2 82.4-23 24.4-14.8 44.8-36.1 58.5-62.4l3.9 2.1c-14.1 27-35 48.9-60.1 64.2-25.1 15.2-54.3 23.7-84.7 23.7-14.8 0-29.6-2-43.8-6-14.2-4-27.9-9.8-40.6-17.5l2.3-3.9zM435.4 200.5c-8.2 12.8-14.4 26.6-18.6 41-4.2 14.4-6.4 29.4-6.4 44.6 0 16.5 2.6 32.9 7.6 48.4 5 15.6 12.4 30.4 22 43.8l-3.6 2.6c-9.9-13.8-17.5-29-22.6-45-5.1-16-7.8-32.8-7.8-49.8 0-15.6 2.2-31 6.6-45.8 4.3-14.8 10.8-29 19.2-42.1l3.6 2.3z"/><path fill="#BAC3D4" d="M590.3 435c13.6-1.9 26.7-5.7 39.2-11.1 12.4-5.4 24.2-12.6 34.8-21.2l1.4 1.7c-10.8 8.8-22.7 16-35.3 21.5-12.6 5.5-26 9.3-39.8 11.3l-.3-2.2z"/><path fill="#D1EFF9" d="M634 212.9c-1.6-1.4-3.2-2.7-4.8-3.9-1.7-1.3-3.4-2.5-5.1-3.6l4.1-6.1c1.9 1.3 3.7 2.6 5.4 3.9 1.8 1.4 3.6 2.8 5.2 4.2l-4.8 5.5zM480.2 328.6c1.5 3.2 3.1 6.2 4.9 9.1 1.8 2.9 3.8 5.8 5.9 8.5l-5.9 4.5c-2.3-2.9-4.4-6-6.3-9.2-2-3.2-3.7-6.5-5.3-9.8l6.7-3.1z"/><path fill="#D1EFF9" d="M642.2 223.3c-9.2-10.6-20.4-19-32.9-24.7-12.5-5.7-26.1-8.8-40.2-8.8-7.9 0-15.7 1-23.3 2.9-7.6 1.9-14.9 4.7-21.9 8.4l-1.4-2.6c7.2-3.8 14.8-6.7 22.6-8.7 7.8-2 15.9-3 24-3 14.5 0 28.6 3.2 41.4 9 12.9 5.9 24.4 14.5 33.9 25.5l-2.2 2z"/><path fill="#6B9ED7" d="M622.7 180.6c-8.3-4.2-17-7.4-26-9.6-8.9-2.1-18.2-3.2-27.5-3.2-32.7 0-62.2 13.2-83.7 34.6-21.4 21.4-34.7 51-34.7 83.7 0 6.5.5 12.9 1.5 19.1 1 6.3 2.6 12.5 4.6 18.6l-7 2.3c-2.2-6.5-3.8-13.1-4.9-19.8-1.1-6.7-1.7-13.5-1.7-20.3 0-34.7 14.1-66.1 36.8-88.9 22.8-22.8 54.2-36.8 88.9-36.8 9.8 0 19.7 1.2 29.2 3.5 9.6 2.3 18.8 5.7 27.6 10.1l-3.1 6.7z"/><path fill="#7083D2" d="M434.6 306.5c4.7 31.1 19.8 58.6 41.6 79 21.7 20.4 50.2 33.6 81.6 36.3l-.2 3c-32.1-2.7-61.1-16.3-83.3-37.1-22.2-20.8-37.6-48.9-42.5-80.7l2.8-.5zM670.6 377c11.2-12.5 19.9-26.8 25.8-42.2 5.9-15.4 9-31.9 9-48.6 0-37.6-15.2-71.6-39.9-96.3-24.6-24.6-58.7-39.9-96.3-39.9-9.4 0-18.8 1-28 2.9s-18.2 4.8-26.8 8.6l-1.2-2.7c8.8-3.9 18-6.8 27.4-8.8 9.4-2 19-3 28.6-3 38.4 0 73.2 15.6 98.4 40.7 25.2 25.2 40.7 60 40.7 98.4 0 17.1-3.2 34-9.2 49.7-6 15.7-14.9 30.4-26.3 43.1l-2.2-1.9zM482.1 181.5c-13.5 11.3-24.6 24.9-32.8 40.2-8.2 15.2-13.5 32-15.4 49.6l-2.9-.3c2-17.9 7.4-35.1 15.8-50.6 8.4-15.6 19.7-29.5 33.6-41.1l1.7 2.2z"/><path fill="#6B9ED7" d="M491.3 375.2c10.8 9.4 23.1 16.7 36.3 21.7 13.2 4.9 27.2 7.5 41.6 7.5 15.6 0 30.9-3.1 45.1-8.9 14.2-5.8 27.2-14.4 38.3-25.4l5.2 5.2c-11.8 11.7-25.6 20.8-40.7 27-15.1 6.2-31.3 9.5-47.9 9.5-15.2 0-30.1-2.8-44.2-8-14-5.3-27.1-13-38.6-23l4.9-5.6z"/><path fill="#D1EFF9" d="M487.1 235.7c-4.7 7.6-8.2 15.8-10.6 24.2-2.4 8.5-3.6 17.3-3.6 26.2 0 26.6 10.8 50.7 28.2 68.2 17.4 17.4 41.5 28.2 68.2 28.2 24.9 0 47.7-9.5 64.9-25.1 17.2-15.7 28.7-37.5 31.1-62.3l2.9.3c-2.4 25.5-14.3 48.1-32 64.2s-41.3 25.9-66.9 25.9c-27.4 0-52.3-11.1-70.3-29.1s-29.1-42.8-29.1-70.3c0-9.2 1.3-18.3 3.7-27 2.5-8.8 6.2-17.2 11-25l2.5 1.6z"/><path fill="#09467F" d="M495.5 333.9h-.2c-.6-.1-1-.7-.9-1.3 1.1-6.5 2.3-13 3-17.2.8-4.4 1.3-6.6 3-8.4 1.6-1.7 4-2.9 8.2-4.5 1.2-.5 2.6-1 4.1-1.6 3.3-1.3 7-2.7 10.8-4.3 5.7-2.4 11.2-5.1 15-7.3 3.7-2.2 6.2-4.1 7.5-5.9 1-1.3 1.4-2.6 1.7-3.6.1-.3.2-.6.3-.8.4-1.1.9-1.7 1.2-2v-5.4c0-.8 0-.8-.4-1.5-.6-.9-1.8-2.7-2.6-4.2s-1.3-2.6-1.8-4.6l-.2-.7c-.4-1.5-.9-3.5-1.6-4.3-.2-.3-.6-.4-1-.6-.8-.4-2-.9-2.9-2.7-1.1-2.2-1.9-6.3-2.5-9.3l-.3-1.8c-.5-2.4-.7-3.4.3-4.2.6-.5 1.6-.5 2.4-.5-.1-.9-.2-2.6-.1-5.9.2-7.2 1.1-12.7 2.7-16.8 2-5.1 5.7-9.3 10.7-12.1 4.2-2.4 9.2-3.6 14.4-3.7 4.9 0 9.5 1 14.2 3.1 5.9 2.7 9.8 6.3 12.1 11.2 2.4 5.3 3 12.5 3.2 18.2.1 3.6.1 5.6.1 6.8.8-.3 1.6-.5 2.3-.3 1.8.5 1.4 2.8 1 5.2-.4 2.1-1.3 7.1-2.6 9.8-.7 1.5-1.6 2.2-2.3 2.7-.5.4-.8.6-1.1 1.1-.5.8-.8 2.2-1.1 3.6-.2.9-.5 1.9-.7 2.7-.6 1.8-1.4 2.9-2 4-.2.3-.4.6-.5.8-.8 1.3-1.2 2.5-1.4 4-.2 1.9-.1 4.3-.1 5.4 0 .6.1 1.6.2 1.7l.2.2c.2.2.5.6.9 1.2l.6.9c.6 1.1 1.4 2.4 2.3 3.5 1.2 1.5 2.5 2.7 4.6 4 1.6 1.1 4.1 2.6 9.2 4.7 4.1 1.7 10.3 4 16.9 6.3l1.6.6c5.1 1.7 9.5 3.2 12.2 5.4 3.3 2.6 4.1 5.9 5.1 10.2 1 4.3 2.3 10.1 3.6 15.8.1.6-.2 1.3-.8 1.4-.6.1-1.2-.1-1.3-.7-1.3-5.9-2.6-11.7-3.7-16-1-4.4-1.8-6.9-4.3-8.9-2.4-1.9-6.7-3.3-11.6-5l-1.6-.6c-6.6-2.3-12.8-4.6-17-6.3-4.1-1.7-7-3.2-9.5-4.9-2.2-1.5-3.8-2.9-5.1-4.5-1-1.3-1.9-2.7-2.5-3.7l-.5-.9c-.3-.5-.6-.8-.7-1.1-.2-.2-.3-.4-.4-.6-.3-.6-.3-1.2-.4-2.6-.1-1.7-.1-4 .1-5.8.2-1.8.8-3.3 1.7-4.9l.6-.9c.6-1 1.3-2 1.8-3.5.3-.8.5-1.7.7-2.5.4-1.6.8-3.1 1.4-4.2.5-.8 1.1-1.3 1.6-1.7.6-.5 1.1-.9 1.7-1.9 1-1.9 1.9-6 2.4-9.1.2-1.4.3-2.1.3-2.6-.3.1-.7.3-1.4.6-.4.2-1 .5-1.7.1-.6-.4-.6-1.1-.6-1.8.1-.9.2-2.8 0-7.5-.2-5.5-.7-12.4-3-17.4-2-4.3-5.6-7.6-11-10.1-4.4-2-8.7-2.9-13.3-2.9-4.8.1-9.4 1.2-13.3 3.4-4.5 2.5-7.9 6.3-9.7 10.9-1.5 3.9-2.3 9.1-2.5 16-.1 4.1.1 5.5.1 6.2.1.5.1 1.1-.3 1.5-.4.5-1 .4-1.4.4h-1.5c0 .4.2 1.2.4 2l.3 1.8c.5 2.7 1.3 6.8 2.3 8.7.6 1.1 1.1 1.3 1.8 1.7.5.2 1.1.5 1.7 1.1 1.1 1.2 1.7 3.3 2.2 5.2l.2.7c.5 1.8.9 2.7 1.6 4 .8 1.4 2 3.2 2.6 4 .7 1.1.8 1.3.8 2.7v4.7c0 1.3 0 1.7-.6 2.2-.2.1-.4.4-.7 1.2-.1.2-.1.4-.2.7-.3 1.1-.8 2.6-2 4.3-1.5 2.1-4.1 4.2-8.2 6.5-3.9 2.2-9.4 5-15.2 7.4-3.8 1.6-7.5 3-10.8 4.3-1.5.6-2.8 1.1-4 1.6-3.8 1.5-6.2 2.6-7.4 4-1.2 1.3-1.6 3-2.4 7.3-.8 4.2-1.9 10.7-3 17.2-1 .8-1.5 1.2-2 1.2z"/><path fill="#09467F" d="M573.2 223.1c-.1 0-.3 0-.4-.1l-15.7-6.7-5.2 3.4c-.3.2-.6.2-.9.1l-6.6-1.7c-.6-.2-1-.8-.8-1.4.2-.6.8-1 1.4-.8l6.2 1.6 5.3-3.4c.3-.2.7-.2 1-.1l14.9 6.3.3-2.9c0-.3.2-.6.5-.8.3-.2.6-.2.9-.1l11.2 3.6 3.6-1.3c.6-.2 1.2.1 1.4.7.2.6-.1 1.2-.7 1.4l-3.9 1.5c-.2.1-.5.1-.7 0l-10.3-3.3-.3 3.1c0 .4-.2.7-.5.8-.3 0-.5.1-.7.1zM568.1 291.4c-.6 0-1.1-.2-2-.7-1.5-.7-4.6-2.2-7.2-3.6-2.5-1.3-5.1-2.8-6.7-4.3-1.6-1.6-2.3-3.1-2.9-4.7-.2-.6 0-1.2.6-1.5.6-.2 1.2 0 1.5.6.6 1.4 1.1 2.7 2.4 3.9 1.4 1.4 3.8 2.7 6.2 3.9 2.7 1.4 5.6 2.8 7.2 3.6 1.1.5 1.1.5 2.1 0 1.1-.5 4.3-2.1 7.2-3.7 2.8-1.6 5.1-3.3 6.4-4.7 1.2-1.3 1.5-2.3 1.8-3.5.2-.6.8-.9 1.4-.8.6.2.9.8.8 1.4-.4 1.3-.8 2.7-2.3 4.4-1.4 1.5-3.8 3.3-6.9 5.1-3 1.7-6.3 3.3-7.4 3.8-1.1.5-1.7.8-2.2.8z"/><path fill="#09467F" d="M578 305.6h-.1c-.6-.1-.8-.3-1.8-1.7l-.7-.9c-1-1.3-2.6-3.4-4-5.3l-2.4-3.2c-.3-.4-.5-.7-.7-1-.1.2-.2.3-.4.5-1.3 1.7-3.8 5.1-5.3 7.3-1.5 2.1-2 3-2.3 3.4-.1.2-.4.7-1 .8-.7.1-1.1-.1-3.1-1.9-2.3-1.9-6.6-5.5-8.8-8.2-2.5-3-2.2-4.9-1.7-7.3.6-2.3 1.5-5.4 2.5-8.4.2-.6.8-1 1.4-.8.6.2.9.8.7 1.3v.1c-.9 3-1.9 6-2.5 8.2-.5 2-.6 3.1 1.2 5.3 2 2.5 6.4 6.1 8.5 7.9.5.4.9.7 1.2 1 .4-.6 1-1.4 2-2.8 1.5-2.2 4.1-5.6 5.4-7.3.7-1 1.2-1.7 2.1-1.7.9 0 1.4.7 2.5 2.1l2.5 3.3c1.5 1.9 3 4 4 5.4l.7.9c.1.1.2.2.2.3l1-1c1.2-1.2 3.2-3.3 5-5.2 1.7-1.8 3.2-3.6 3.8-5.4.5-1.5.4-3.3-.3-5.4-.6-1.9-1.6-3.7-2.5-5.4-.3-.5-.1-1.2.4-1.5.5-.3 1.2-.1 1.5.4 1 1.8 2 3.7 2.7 5.8.9 2.6 1 4.8.4 6.8-.7 2.2-2.4 4.2-4.3 6.2-1.8 2-3.9 4-5.1 5.3l-1.9 1.9c-.2.1-.5.2-.8.2zm-18.6-2.4z"/><path fill="#09467F" d="M561.7 351.4c-.5 0-.9-.3-1.1-.8-3.4-11.5-6.9-23.4-9.6-34.1-2.7-10.7-4.6-20.5-6.5-29.9-.1-.6.3-1.2.9-1.3.6-.1 1.2.3 1.3.9 1.8 9.4 3.8 19.1 6.4 29.8 2.7 10.6 6.2 22.5 9.5 34 .2.6-.2 1.2-.8 1.4h-.1zM574.9 351.4h-.3c-.6-.2-.9-.8-.8-1.4 3.3-11.4 6.8-23.1 9.4-33.8 2.6-10.6 4.5-20.5 6.3-30l2.2.4c-1.8 9.6-3.7 19.5-6.3 30.2-2.6 10.7-6.1 22.5-9.4 33.9-.2.4-.6.7-1.1.7z"/><path fill="#09467F" d="M559.5 343.4h-.2c-.6-.1-1-.7-.9-1.3 2.3-12.6 4.7-25.6 5.3-32.7.6-6.7-.3-7.9-1.3-9.2-.4-.5-.3-1.2.2-1.6.5-.4 1.2-.3 1.6.2 1.4 1.9 2.3 3.7 1.7 10.7-.6 7.2-3 20.3-5.3 32.9-.1.6-.5 1-1.1 1zM575.5 341.9c-2.3-12.7-4.7-25.7-5.3-32.9-.6-7 .3-8.9 1.7-10.7.4-.5 1.1-.6 1.6-.2.5.4.6 1.1.2 1.6-1 1.3-1.9 2.5-1.3 9.2.6 7.1 3 20.1 5.3 32.7l-2.2.3z"/><path fill="#7083D2" d="M967.2 188.6c-38.4 0-69.7-31.3-69.7-69.7 0-38.4 31.3-69.7 69.7-69.7 38.4 0 69.7 31.3 69.7 69.7 0 38.4-31.2 69.7-69.7 69.7zm0-136.5c-36.8 0-66.7 29.9-66.7 66.7 0 36.8 29.9 66.7 66.7 66.7 36.8 0 66.7-29.9 66.7-66.7.1-36.7-29.9-66.7-66.7-66.7z"/><path fill="#BAC3D4" d="M967.2 183c-35.4 0-64.2-28.8-64.2-64.2s28.8-64.2 64.2-64.2v1.5c-34.6 0-62.7 28.1-62.7 62.7s28.1 62.7 62.7 62.7h1.2v1.5h-1.2z"/><path fill="#BAC3D4" d="M1034.4 82.8a76.188 76.188 0 0 0-67.2-40.2c-18.7 0-36.6 6.8-50.6 19.2l-1-1.1c14.2-12.6 32.6-19.6 51.6-19.6 28.7 0 55 15.7 68.5 41l-1.3.7zM901.4 160.2c-7.8-12.4-11.9-26.7-11.9-41.4 0-7.8 1.2-15.5 3.5-23l1.4.4c-2.3 7.3-3.4 14.9-3.4 22.5 0 14.4 4 28.4 11.7 40.6l-1.3.9zM967.2 196.6c-15.2 0-29.9-4.4-42.6-12.7l.8-1.2c12.5 8.2 26.9 12.5 41.8 12.5 41.6 0 75.1-32.6 76.2-74.2h1.5c-1.1 42.4-35.3 75.6-77.7 75.6z"/><path fill="#BAC3D4" d="M995.1 176.7l-.6-1.3C1016 165 1030 142.9 1030 119c0-21.7-11.5-42.2-30-53.5l.8-1.3c18.9 11.6 30.7 32.5 30.7 54.7-.1 24.4-14.4 47.1-36.4 57.8z"/><path fill-rule="evenodd" clip-rule="evenodd" fill="#7D84DE" d="M1032.96 97.228l4.239-1.182 2.149 7.706-4.239 1.182zM901.709 84.727l4.34-6.72 3.697 2.387-4.341 6.72zM911.156 166.337l3.017-3.203 5.824 5.484-3.017 3.204z"/><path fill="#7083D2" d="M1110.8 381.9c-38.4 0-69.7-31.3-69.7-69.7 0-38.4 31.3-69.7 69.7-69.7s69.7 31.3 69.7 69.7c0 38.4-31.3 69.7-69.7 69.7zm0-136.5c-36.8 0-66.7 29.9-66.7 66.7 0 36.8 29.9 66.7 66.7 66.7s66.7-29.9 66.7-66.7c0-36.8-29.9-66.7-66.7-66.7z"/><path fill="#BAC3D4" d="M1110.8 376.3c-35.4 0-64.2-28.8-64.2-64.2 0-35.4 28.8-64.2 64.2-64.2v1.5c-34.6 0-62.7 28.1-62.7 62.7 0 35 28.7 63.4 63.9 62.6v1.5c-.4.1-.8.1-1.2.1z"/><path fill="#BAC3D4" d="M1178 276.1a76.188 76.188 0 0 0-67.2-40.2c-18.7 0-36.6 6.8-50.6 19.2l-1-1.1c14.2-12.6 32.6-19.6 51.6-19.6 28.7 0 55 15.7 68.5 41l-1.3.7zM1044.9 353.5c-7.8-12.4-11.9-26.7-11.9-41.4 0-7.8 1.2-15.5 3.5-23l1.4.4c-2.3 7.3-3.4 14.9-3.4 22.5 0 14.4 4 28.4 11.7 40.6l-1.3.9zM1110.8 389.9c-15.2 0-29.9-4.4-42.6-12.7l.8-1.2c12.5 8.2 26.9 12.5 41.8 12.5 41.6 0 75.1-32.6 76.2-74.2h1.5c-1.1 42.4-35.3 75.6-77.7 75.6z"/><path fill="#BAC3D4" d="M1138.6 369.9l-.6-1.3c21.5-10.4 35.5-32.5 35.5-56.4 0-21.7-11.5-42.2-30-53.5l.8-1.3c18.9 11.6 30.7 32.5 30.7 54.7-.1 24.5-14.3 47.2-36.4 57.8z"/><path fill-rule="evenodd" clip-rule="evenodd" fill="#7D84DE" d="M1176.453 290.46l4.239-1.182 2.149 7.706-4.239 1.182zM1045.32 277.994l4.342-6.72 3.696 2.388-4.341 6.72zM1054.702 359.667l3.017-3.204 5.824 5.485-3.017 3.203z"/><path fill="#7083D2" d="M953.8 586.2c-38.4 0-69.7-31.3-69.7-69.7s31.3-69.7 69.7-69.7 69.7 31.3 69.7 69.7-31.3 69.7-69.7 69.7zm0-136.5c-36.8 0-66.7 29.9-66.7 66.7s29.9 66.7 66.7 66.7 66.7-29.9 66.7-66.7-29.9-66.7-66.7-66.7z"/><path fill="#BAC3D4" d="M953.8 580.6c-35.4 0-64.2-28.8-64.2-64.2s28.8-64.2 64.2-64.2v1.5c-34.6 0-62.7 28.1-62.7 62.7 0 35 28.7 63.3 63.9 62.6v1.5c-.4.1-.8.1-1.2.1z"/><path fill="#BAC3D4" d="M1021 480.4a76.188 76.188 0 0 0-67.2-40.2c-18.7 0-36.6 6.8-50.6 19.2l-1-1.1c14.2-12.6 32.6-19.6 51.6-19.6 28.7 0 55 15.7 68.5 41l-1.3.7zM887.9 557.8c-7.8-12.4-11.9-26.7-11.9-41.4 0-7.8 1.2-15.5 3.5-23l1.4.4c-2.3 7.3-3.4 14.9-3.4 22.5 0 14.4 4 28.4 11.7 40.6l-1.3.9zM953.8 594.2c-15.2 0-29.9-4.4-42.6-12.7l.8-1.2c12.5 8.2 26.9 12.5 41.8 12.5 41.6 0 75.1-32.6 76.2-74.2h1.5c-1.1 42.4-35.3 75.6-77.7 75.6z"/><path fill="#BAC3D4" d="M981.7 574.2l-.6-1.3c21.5-10.4 35.5-32.5 35.5-56.4 0-21.7-11.5-42.2-30-53.5l.8-1.3c18.9 11.6 30.7 32.5 30.7 54.7-.1 24.5-14.4 47.2-36.4 57.8z"/><path fill-rule="evenodd" clip-rule="evenodd" fill="#7D84DE" d="M1019.568 494.845l4.239-1.182 2.149 7.707-4.239 1.182zM888.31 482.322l4.34-6.72 3.697 2.387-4.341 6.72zM897.776 563.914l3.016-3.203 5.824 5.485-3.016 3.203z"/><path fill="#7083D2" d="M158.6 505.7c-38.4 0-69.7-31.3-69.7-69.7 0-38.4 31.3-69.7 69.7-69.7 38.4 0 69.7 31.3 69.7 69.7.1 38.4-31.2 69.7-69.7 69.7zm0-136.5c-36.8 0-66.7 29.9-66.7 66.7s29.9 66.7 66.7 66.7c36.8 0 66.7-29.9 66.7-66.7s-29.9-66.7-66.7-66.7z"/><path fill="#BAC3D4" d="M158.6 500.1c-35.4 0-64.2-28.8-64.2-64.2 0-35.4 28.8-64.2 64.2-64.2v1.5c-34.6 0-62.7 28.1-62.7 62.7 0 35 28.8 63.4 63.9 62.6v1.5c-.3.1-.7.1-1.2.1z"/><path fill="#BAC3D4" d="M225.8 399.9a76.188 76.188 0 0 0-67.2-40.2c-18.7 0-36.6 6.8-50.6 19.2l-1-1.1c14.2-12.6 32.6-19.6 51.6-19.6 28.7 0 55 15.7 68.5 41l-1.3.7zM92.8 477.3A77.5 77.5 0 0 1 80.9 436c0-7.8 1.2-15.5 3.5-23l1.4.4c-2.3 7.3-3.4 14.9-3.4 22.5 0 14.4 4 28.4 11.7 40.6l-1.3.8zM158.6 513.7c-15.2 0-29.9-4.4-42.6-12.7l.8-1.2c12.5 8.2 26.9 12.5 41.8 12.5 41.6 0 75.1-32.6 76.2-74.2h1.5c-1.1 42.4-35.2 75.6-77.7 75.6z"/><path fill="#BAC3D4" d="M186.5 493.8l-.6-1.3c21.5-10.4 35.5-32.5 35.5-56.4 0-21.7-11.5-42.2-30-53.5l.8-1.3c18.9 11.6 30.7 32.6 30.7 54.7-.1 24.5-14.4 47.1-36.4 57.8z"/><path fill-rule="evenodd" clip-rule="evenodd" fill="#7D84DE" d="M224.322 414.36l4.239-1.182 2.149 7.706-4.239 1.182zM93.12 401.775l4.34-6.72 3.696 2.387-4.34 6.72zM102.637 483.552l3.017-3.203 5.824 5.484-3.017 3.204z"/><path fill="#7083D2" d="M89.2 155.5c-38.4 0-69.7-31.3-69.7-69.7C19.5 47.3 50.8 16 89.2 16s69.7 31.3 69.7 69.7c0 38.5-31.2 69.8-69.7 69.8zm0-136.5c-36.8 0-66.7 29.9-66.7 66.7 0 36.8 29.9 66.7 66.7 66.7S156 122.5 156 85.7C156 48.9 126 19 89.2 19z"/><path fill="#BAC3D4" d="M89.2 149.9c-35.4 0-64.2-28.8-64.2-64.2s28.8-64.2 64.2-64.2V23c-34.6 0-62.7 28.1-62.7 62.7s28.1 62.7 62.7 62.7h1.2v1.5h-1.2z"/><path fill="#BAC3D4" d="M156.4 49.7c-13.3-24.8-39-40.2-67.2-40.2-18.7 0-36.6 6.8-50.6 19.2l-1-1.1C51.9 14.9 70.2 8 89.2 8c28.7 0 55 15.7 68.5 41l-1.3.7zM23.4 127.1c-7.8-12.4-11.9-26.7-11.9-41.4 0-7.8 1.2-15.5 3.5-23l1.4.4c-2.3 7.4-3.4 15-3.4 22.6 0 14.4 4 28.4 11.7 40.6l-1.3.8zM89.2 163.5c-15.2 0-29.9-4.4-42.6-12.7l.8-1.2c12.5 8.2 26.9 12.5 41.8 12.5 41.6 0 75.1-32.6 76.2-74.2h1.5c-1.1 42.4-35.3 75.6-77.7 75.6z"/><path fill="#BAC3D4" d="M117.1 143.5l-.6-1.3C138 131.8 152 109.7 152 85.8c0-21.7-11.5-42.2-30-53.5l.8-1.3c18.9 11.6 30.7 32.5 30.7 54.7-.1 24.5-14.4 47.2-36.4 57.8z"/><path fill-rule="evenodd" clip-rule="evenodd" fill="#7D84DE" d="M154.929 64.137l4.238-1.182 2.15 7.707-4.24 1.181zM23.702 51.603l4.34-6.72 3.697 2.387-4.341 6.72zM33.185 133.258l3.017-3.203 5.824 5.484-3.017 3.204z"/><path fill="#09467F" d="M984 155.5h-33.7c-1.2 0-2.2-1-2.2-2.2V84.5c0-1.2 1-2.2 2.2-2.2H984c1.2 0 2.2 1 2.2 2.2v68.8c.1 1.2-.9 2.2-2.2 2.2zm-33.7-71.8c-.4 0-.7.3-.7.7v68.8c0 .4.3.7.7.7H984c.4 0 .7-.3.7-.7V84.5c0-.4-.3-.7-.7-.7h-33.7z"/><path fill="#09467F" d="M985.3 89.4H949c-.4 0-.7-.3-.7-.7s.3-.7.7-.7h36.3c.4 0 .7.3.7.7s-.3.7-.7.7zM985.4 145.1H949c-.4 0-.7-.3-.7-.7 0-.4.3-.7.7-.7h36.5c.4 0 .7.3.7.7 0 .3-.4.7-.8.7zM967.2 152.2c-1.8 0-3.2-1.4-3.2-3.2 0-1.8 1.4-3.2 3.2-3.2 1.8 0 3.2 1.4 3.2 3.2 0 1.7-1.4 3.2-3.2 3.2zm0-5c-.9 0-1.7.8-1.7 1.7 0 .9.8 1.7 1.7 1.7.9 0 1.7-.8 1.7-1.7 0-.9-.8-1.7-1.7-1.7zM978.2 553.1h-48.9c-1.6 0-2.9-1.3-2.9-2.9v-67.5c0-1.6 1.3-2.9 2.9-2.9h48.9c1.6 0 2.9 1.3 2.9 2.9v67.5c.1 1.6-1.2 2.9-2.9 2.9zm-48.9-71.8c-.8 0-1.4.6-1.4 1.4v67.5c0 .8.6 1.4 1.4 1.4h48.9c.8 0 1.4-.6 1.4-1.4v-67.5c0-.8-.6-1.4-1.4-1.4h-48.9z"/><path fill="#09467F" d="M980.4 487h-53.2c-.4 0-.7-.3-.7-.7s.3-.7.7-.7h53.2c.4 0 .7.3.7.7s-.3.7-.7.7zM980.2 542.6h-52.8c-.4 0-.7-.3-.7-.7 0-.4.3-.7.7-.7h52.8c.4 0 .7.3.7.7 0 .4-.3.7-.7.7zM953.8 550.1c-1.8 0-3.2-1.4-3.2-3.2 0-1.8 1.4-3.2 3.2-3.2 1.8 0 3.2 1.4 3.2 3.2 0 1.8-1.4 3.2-3.2 3.2zm0-4.9c-.9 0-1.7.8-1.7 1.7 0 .9.8 1.7 1.7 1.7.9 0 1.7-.8 1.7-1.7 0-1-.8-1.7-1.7-1.7zM1147 328.2h-72.4c-.4 0-.7-.3-.7-.7v-43.7c0-1.2 1-2.2 2.2-2.2h69.4c1.2 0 2.2 1 2.2 2.2v43.7c0 .4-.3.7-.7.7zm-71.7-1.5h70.9v-42.9c0-.4-.3-.7-.7-.7h-69.4c-.4 0-.7.3-.7.7v42.9zM1150.3 340h-77.9c-5.2 0-9.4-4.2-9.4-9.4 0-.4.3-.7.7-.7h95.3c.4 0 .7.3.7.7 0 5.2-4.2 9.4-9.4 9.4zm-85.8-8.7c.4 4 3.8 7.2 7.9 7.2h77.9c4.1 0 7.5-3.2 7.9-7.2h-93.7z"/><path fill="#09467F" d="M1119 334.6h-15.3c-2.2 0-3.9-1.7-3.9-3.9 0-.4.3-.7.7-.7s.7.3.7.7c0 1.3 1.1 2.4 2.4 2.4h15.3c1.3 0 2.4-1.1 2.4-2.4 0-.4.3-.7.7-.7s.7.3.7.7c.2 2.1-1.5 3.9-3.7 3.9zM124.8 103.2H52.4c-.4 0-.7-.3-.7-.7V58.8c0-1.2 1-2.2 2.2-2.2h69.4c1.2 0 2.2 1 2.2 2.2v43.7c0 .3-.3.7-.7.7zm-71.6-1.5H124V58.8c0-.4-.3-.7-.7-.7H53.9c-.4 0-.7.3-.7.7v42.9zM128.2 114.9H50.3c-5.2 0-9.4-4.2-9.4-9.4 0-.4.3-.7.7-.7h95.3c.4 0 .7.3.7.7 0 5.2-4.2 9.4-9.4 9.4zm-85.8-8.6c.4 4 3.8 7.2 7.9 7.2h77.9c4.1 0 7.5-3.2 7.9-7.2H42.4z"/><path fill="#09467F" d="M96.9 109.5H81.5c-2.2 0-3.9-1.8-3.9-3.9 0-.4.3-.7.7-.7.4 0 .7.3.7.7 0 1.3 1.1 2.4 2.4 2.4h15.3c1.3 0 2.4-1.1 2.4-2.4 0-.4.3-.7.7-.7.4 0 .7.3.7.7.3 2.2-1.5 3.9-3.6 3.9zM194.8 459.3h-72.4c-1.6 0-3-1.3-3-3v-50c0-1.6 1.3-3 3-3h72.4c1.6 0 3 1.3 3 3v50c0 1.7-1.3 3-3 3zm-72.4-54.4c-.8 0-1.5.7-1.5 1.5v50c0 .8.7 1.5 1.5 1.5h72.4c.8 0 1.5-.7 1.5-1.5v-50c0-.8-.7-1.5-1.5-1.5h-72.4z"/><path fill="#09467F" d="M196.7 450.3h-76.3c-.4 0-.7-.3-.7-.7s.3-.7.7-.7h76.3c.4 0 .7.3.7.7s-.3.7-.7.7zM179.3 472.5H138c-.4 0-.7-.3-.7-.7 0-3.2 2.6-5.9 5.9-5.9h31.1c3.2 0 5.9 2.6 5.9 5.9-.2.4-.5.7-.9.7zm-40.5-1.5h39.7c-.4-2.1-2.2-3.6-4.3-3.6h-31.1c-2.2 0-4 1.5-4.3 3.6z"/><path fill="#09467F" d="M146.7 467.4c-.1 0-.2 0-.3-.1-.4-.2-.6-.6-.4-1l3.2-8c.2-.4.6-.6 1-.4.4.2.6.6.4 1l-3.2 8c-.1.3-.4.5-.7.5zM170.5 467.4c-.3 0-.6-.2-.7-.5l-3.2-8c-.2-.4 0-.8.4-1 .4-.2.8 0 1 .4l3.2 8c.2.4 0 .8-.4 1-.1.1-.2.1-.3.1z"/><path fill="gray" d="M414.8 206.2c-.1 0-.2 0-.3-.1l-2.1-.7c-.6-.2-.9-.8-.7-1.4.2-.6.8-.9 1.4-.7l2.1.7c.6.2.9.8.7 1.4-.2.5-.7.8-1.1.8zm-8.5-2.7c-.1 0-.2 0-.3-.1l-2.1-.7c-.6-.2-.9-.8-.7-1.4.2-.6.8-.9 1.4-.7l2.1.7c.6.2.9.8.7 1.4-.2.5-.7.8-1.1.8zm-8.6-2.7c-.1 0-.2 0-.3-.1l-2.1-.7c-.6-.2-.9-.8-.7-1.4.2-.6.8-.9 1.4-.7l2.1.7c.6.2.9.8.7 1.4-.1.5-.6.8-1.1.8zm-8.5-2.8c-.1 0-.2 0-.3-.1l-2.1-.7c-.6-.2-.9-.8-.7-1.4.2-.6.8-.9 1.4-.7l2.1.7c.6.2.9.8.7 1.4-.2.5-.6.8-1.1.8zm-8.5-2.7c-.1 0-.2 0-.3-.1l-2.1-.7c-.6-.2-.9-.8-.7-1.4.2-.6.8-.9 1.4-.7l2.1.7c.6.2.9.8.7 1.4-.2.5-.6.8-1.1.8zm-8.5-2.7c-.1 0-.2 0-.3-.1l-2.1-.7c-.6-.2-.9-.8-.7-1.4.2-.6.8-.9 1.4-.7l2.1.7c.6.2.9.8.7 1.4-.2.5-.6.8-1.1.8zm-8.5-2.7c-.1 0-.2 0-.3-.1l-2.1-.7c-.6-.2-.9-.8-.7-1.4.2-.6.8-.9 1.4-.7l2.1.7c.6.2.9.8.7 1.4-.2.5-.7.8-1.1.8zm-8.5-2.7c-.1 0-.2 0-.3-.1l-2.1-.7c-.6-.2-.9-.8-.7-1.4.2-.6.8-.9 1.4-.7l2.1.7c.6.2.9.8.7 1.4-.2.5-.7.8-1.1.8zm-8.6-2.8c-.1 0-.2 0-.3-.1l-2.1-.7c-.6-.2-.9-.8-.7-1.4.2-.6.8-.9 1.4-.7l2.1.7c.6.2.9.8.7 1.4-.2.5-.6.8-1.1.8zm-8.5-2.7c-.1 0-.2 0-.3-.1l-2.1-.7c-.6-.2-.9-.8-.7-1.4.2-.6.8-.9 1.4-.7l2.1.7c.6.2.9.8.7 1.4-.2.5-.6.8-1.1.8zm-8.5-2.7c-.1 0-.2 0-.3-.1l-2.1-.7c-.6-.2-.9-.8-.7-1.4.2-.6.8-.9 1.4-.7l2.1.7c.6.2.9.8.7 1.4-.2.5-.6.8-1.1.8zm-8.5-2.7c-.1 0-.2 0-.3-.1l-2.1-.7c-.6-.2-.9-.8-.7-1.4.2-.6.8-.9 1.4-.7l2.1.7c.6.2.9.8.7 1.4-.2.5-.6.8-1.1.8zm-8.5-2.7c-.1 0-.2 0-.3-.1l-2.1-.7c-.6-.2-.9-.8-.7-1.4.2-.6.8-.9 1.4-.7l2.1.7c.6.2.9.8.7 1.4-.2.5-.7.8-1.1.8zm-8.6-2.7c-.1 0-.2 0-.3-.1l-2.1-.7c-.6-.2-.9-.8-.7-1.4.2-.6.8-.9 1.4-.7l2.1.7c.6.2.9.8.7 1.4-.1.5-.6.8-1.1.8zm-8.5-2.8c-.1 0-.2 0-.3-.1l-2.1-.7c-.6-.2-.9-.8-.7-1.4.2-.6.8-.9 1.4-.7l2.1.7c.6.2.9.8.7 1.4-.2.5-.6.8-1.1.8zm-8.5-2.7c-.1 0-.2 0-.3-.1l-2.1-.7c-.6-.2-.9-.8-.7-1.4.2-.6.8-.9 1.4-.7l2.1.7c.6.2.9.8.7 1.4-.2.5-.6.8-1.1.8zm-8.5-2.7c-.1 0-.2 0-.3-.1l-2.2-.6c-.6-.2-.9-.8-.7-1.4.2-.6.8-.9 1.4-.7l2.1.7c.6.2.9.8.7 1.4-.1.4-.5.7-1 .7zM270 160c-.1 0-.2 0-.3-.1l-2.1-.7c-.6-.2-.9-.8-.7-1.4.2-.6.8-.9 1.4-.7l2.1.7c.6.2.9.8.7 1.4-.2.5-.6.8-1.1.8zm-8.5-2.7c-.1 0-.2 0-.3-.1l-2.1-.7c-.6-.2-.9-.8-.7-1.4.2-.6.8-.9 1.4-.7l2.1.7c.6.2.9.8.7 1.4-.2.5-.7.8-1.1.8zm-8.6-2.7c-.1 0-.2 0-.3-.1l-2.1-.7c-.6-.2-.9-.8-.7-1.4.2-.6.8-.9 1.4-.7l2.1.7c.6.2.9.8.7 1.4-.1.4-.6.8-1.1.8zm-8.5-2.8c-.1 0-.2 0-.3-.1l-2.1-.7c-.6-.2-.9-.8-.7-1.4.2-.6.8-.9 1.4-.7l2.1.7c.6.2.9.8.7 1.4-.2.5-.6.8-1.1.8zm-8.5-2.7c-.1 0-.2 0-.3-.1l-2.1-.7c-.6-.2-.9-.8-.7-1.4.2-.6.8-.9 1.4-.7l2.1.7c.6.2.9.8.7 1.4-.2.5-.6.8-1.1.8zm-8.5-2.7c-.1 0-.2 0-.3-.1l-2.1-.7c-.6-.2-.9-.8-.7-1.4s.8-.9 1.4-.7l2.1.7c.6.2.9.8.7 1.4-.2.5-.6.8-1.1.8zm-8.5-2.7c-.1 0-.2 0-.3-.1l-2.1-.7c-.6-.2-.9-.8-.7-1.4.2-.6.8-.9 1.4-.7l2.1.7c.6.2.9.8.7 1.4-.2.5-.6.8-1.1.8zm-8.5-2.7c-.1 0-.2 0-.3-.1l-2.1-.7c-.6-.2-.9-.8-.7-1.4.2-.6.8-.9 1.4-.7l2.1.7c.6.2.9.8.7 1.4-.2.5-.7.8-1.1.8zm-8.6-2.8c-.1 0-.2 0-.3-.1l-2.1-.7c-.6-.2-.9-.8-.7-1.4.2-.6.8-.9 1.4-.7l2.1.7c.6.2.9.8.7 1.4-.1.5-.6.8-1.1.8zm-8.5-2.7c-.1 0-.2 0-.3-.1l-2.1-.7c-.6-.2-.9-.8-.7-1.4.2-.6.8-.9 1.4-.7l2.1.7c.6.2.9.8.7 1.4-.2.5-.6.8-1.1.8zm-8.5-2.7c-.1 0-.2 0-.3-.1l-2.1-.7c-.6-.2-.9-.8-.7-1.4.2-.6.8-.9 1.4-.7l2.1.7c.6.2.9.8.7 1.4-.2.5-.6.8-1.1.8zm-8.5-2.7c-.1 0-.2 0-.3-.1l-2.1-.7c-.6-.2-.9-.8-.7-1.4.2-.6.8-.9 1.4-.7l2.1.7c.6.2.9.8.7 1.4-.2.5-.6.8-1.1.8zm-8.5-2.7c-.1 0-.2 0-.3-.1l-2.1-.7c-.6-.2-.9-.8-.7-1.4.2-.6.8-.9 1.4-.7l2.1.7c.6.2.9.8.7 1.4-.2.5-.7.8-1.1.8zM237 397.7c-.4 0-.9-.3-1-.7-.2-.6 0-1.2.6-1.5l2.1-.8c.6-.2 1.2 0 1.5.6.2.6 0 1.2-.6 1.5l-2.1.8c-.2 0-.3.1-.5.1zm8.3-3.4c-.4 0-.9-.3-1-.7-.2-.6 0-1.2.6-1.5l2.1-.8c.6-.2 1.2 0 1.5.6.2.6 0 1.2-.6 1.5l-2.1.8c-.2.1-.3.1-.5.1zm8.3-3.3c-.4 0-.9-.3-1-.7-.2-.6 0-1.2.6-1.5l2.1-.8c.6-.2 1.2 0 1.5.6.2.6 0 1.2-.6 1.5l-2.1.8c-.2.1-.3.1-.5.1zm8.3-3.4c-.4 0-.9-.3-1-.7-.2-.6 0-1.2.6-1.5l2.1-.8c.6-.2 1.2 0 1.5.6.2.6 0 1.2-.6 1.5l-2.1.8c-.2.1-.3.1-.5.1zm8.3-3.3c-.4 0-.9-.3-1-.7-.2-.6 0-1.2.6-1.5l2.1-.8c.6-.2 1.2 0 1.5.6.2.6 0 1.2-.6 1.5l-2.1.8c-.2.1-.3.1-.5.1zm8.3-3.3c-.4 0-.9-.3-1-.7-.2-.6 0-1.2.6-1.5l2.1-.8c.6-.2 1.2 0 1.5.6.2.6 0 1.2-.6 1.5l-2.1.8c-.2 0-.4.1-.5.1zm8.3-3.4c-.4 0-.9-.3-1-.7-.2-.6 0-1.2.6-1.5l2.1-.8c.6-.2 1.2 0 1.5.6.2.6 0 1.2-.6 1.5l-2.1.8c-.2.1-.4.1-.5.1zm8.3-3.3c-.4 0-.9-.3-1-.7-.2-.6 0-1.2.6-1.5l2.1-.8c.6-.2 1.2 0 1.5.6.2.6 0 1.2-.6 1.5l-2.1.8c-.2.1-.4.1-.5.1zm8.3-3.4c-.4 0-.9-.3-1-.7-.2-.6 0-1.2.6-1.5l2.1-.8c.6-.2 1.2 0 1.5.6.2.6 0 1.2-.6 1.5l-2.1.8c-.2.1-.4.1-.5.1zm8.3-3.3c-.4 0-.9-.3-1-.7-.2-.6 0-1.2.6-1.5l2.1-.8c.6-.2 1.2 0 1.5.6.2.6 0 1.2-.6 1.5l-2.1.8c-.2.1-.4.1-.5.1zm8.3-3.3c-.4 0-.9-.3-1-.7-.2-.6 0-1.2.6-1.5l2.1-.8c.6-.2 1.2 0 1.5.6.2.6 0 1.2-.6 1.5l-2.1.8c-.3 0-.4.1-.5.1zm8.3-3.4c-.4 0-.9-.3-1-.7-.2-.6 0-1.2.6-1.5l2.1-.8c.6-.2 1.2 0 1.5.6.2.6 0 1.2-.6 1.5l-2.1.8c-.3.1-.4.1-.5.1zm8.3-3.3c-.4 0-.9-.3-1-.7-.2-.6 0-1.2.6-1.5l2.1-.8c.6-.2 1.2 0 1.5.6.2.6 0 1.2-.6 1.5l-2.1.8c-.3.1-.4.1-.5.1zm8.2-3.4c-.4 0-.9-.3-1-.7-.2-.6 0-1.2.6-1.5l2.1-.8c.6-.2 1.2 0 1.5.6.2.6 0 1.2-.6 1.5l-2.1.8c-.2.1-.3.1-.5.1zm8.3-3.3c-.4 0-.9-.3-1-.7-.2-.6 0-1.2.6-1.5l2.1-.8c.6-.2 1.2 0 1.5.6.2.6 0 1.2-.6 1.5l-2.1.8c-.2.1-.3.1-.5.1zm8.3-3.3c-.4 0-.9-.3-1-.7-.2-.6 0-1.2.6-1.5l2.1-.8c.6-.2 1.2 0 1.5.6.2.6 0 1.2-.6 1.5l-2.1.8c-.2 0-.3.1-.5.1zm8.3-3.4c-.4 0-.9-.3-1-.7-.2-.6 0-1.2.6-1.5l2.1-.8c.6-.2 1.2 0 1.5.6.2.6 0 1.2-.6 1.5l-2.1.8c-.2.1-.3.1-.5.1zm8.3-3.3c-.4 0-.9-.3-1-.7-.2-.6 0-1.2.6-1.5l2.1-.8c.6-.2 1.2 0 1.5.6.2.6 0 1.2-.6 1.5l-2.1.8c-.2 0-.3.1-.5.1zm8.3-3.4c-.4 0-.9-.3-1-.7-.2-.6 0-1.2.6-1.5l2.1-.8c.6-.2 1.2 0 1.5.6.2.6 0 1.2-.6 1.5l-2.1.8c-.2.1-.4.1-.5.1zm8.3-3.3c-.4 0-.9-.3-1-.7-.2-.6 0-1.2.6-1.5l2.1-.8c.6-.2 1.2 0 1.5.6.2.6 0 1.2-.6 1.5l-2.1.8c-.2.1-.4.1-.5.1zm8.3-3.3c-.4 0-.9-.3-1-.7-.2-.6 0-1.2.6-1.5l.6-.2c.6-.2 1.2 0 1.5.6.2.6 0 1.2-.6 1.5l-.6.2c-.2 0-.4.1-.5.1zM723 210.7c-.4 0-.9-.3-1-.7-.2-.6 0-1.2.6-1.5l2.1-.8c.6-.2 1.2 0 1.5.6.2.6 0 1.2-.6 1.5l-2.1.8c-.2.1-.4.1-.5.1zm8.3-3.3c-.4 0-.9-.3-1-.7-.2-.6 0-1.2.6-1.5l2.1-.8c.6-.2 1.2 0 1.5.6.2.6 0 1.2-.6 1.5l-2.1.8c-.3.1-.4.1-.5.1zm8.3-3.4c-.4 0-.9-.3-1-.7-.2-.6 0-1.2.6-1.5l2.1-.8c.6-.2 1.2 0 1.5.6.2.6 0 1.2-.6 1.5l-2.2.9h-.4zm8.3-3.3c-.4 0-.9-.3-1-.7-.2-.6 0-1.2.6-1.5l2.1-.8c.6-.2 1.2 0 1.5.6.2.6 0 1.2-.6 1.5l-2.1.8c-.3.1-.4.1-.5.1zm8.3-3.3c-.4 0-.9-.3-1-.7-.2-.6 0-1.2.6-1.5l2.1-.8c.6-.2 1.2.1 1.5.6.2.6 0 1.2-.6 1.5l-2.1.8c-.3.1-.4.1-.5.1zm8.3-3.3c-.4 0-.9-.3-1-.7-.2-.6 0-1.2.6-1.5l2.1-.8c.6-.2 1.2 0 1.5.6.2.6 0 1.2-.6 1.5l-2.1.8c-.3 0-.4.1-.5.1zm8.3-3.4c-.4 0-.9-.3-1-.7-.2-.6 0-1.2.6-1.5l2.1-.8c.6-.2 1.2 0 1.5.6.2.6 0 1.2-.6 1.5l-2.1.8c-.3.1-.4.1-.5.1zm8.2-3.3c-.4 0-.9-.3-1-.7-.2-.6 0-1.2.6-1.5l2.1-.8c.6-.2 1.2 0 1.5.6.2.6 0 1.2-.6 1.5l-2.1.8c-.2.1-.3.1-.5.1zm8.3-3.3c-.4 0-.9-.3-1-.7-.2-.6 0-1.2.6-1.5l2.1-.8c.6-.2 1.2 0 1.5.6.2.6 0 1.2-.6 1.5l-2.1.8c-.2 0-.3.1-.5.1zm8.3-3.4c-.4 0-.9-.3-1-.7-.2-.6 0-1.2.6-1.5l2.1-.8c.6-.2 1.2 0 1.5.6.2.6 0 1.2-.6 1.5l-2.1.8c-.2.1-.3.1-.5.1zm8.3-3.3c-.4 0-.9-.3-1-.7-.2-.6 0-1.2.6-1.5l2.1-.8c.6-.2 1.2 0 1.5.6.2.6 0 1.2-.6 1.5l-2.1.8c-.2.1-.3.1-.5.1zm8.3-3.3c-.4 0-.9-.3-1-.7-.2-.6 0-1.2.6-1.5l2.1-.8c.6-.2 1.2 0 1.5.6.2.6 0 1.2-.6 1.5l-2.1.8c-.2 0-.3.1-.5.1zm8.3-3.4c-.4 0-.9-.3-1-.7-.2-.6 0-1.2.6-1.5l2.1-.8c.6-.2 1.2 0 1.5.6.2.6 0 1.2-.6 1.5l-2.1.8c-.2.1-.3.1-.5.1zm8.3-3.3c-.4 0-.9-.3-1-.7-.2-.6 0-1.2.6-1.5l2.1-.8c.6-.2 1.2.1 1.5.6.2.6 0 1.2-.6 1.5l-2.1.8c-.2.1-.3.1-.5.1zm8.3-3.3c-.4 0-.9-.3-1-.7-.2-.6 0-1.2.6-1.5l2.1-.8c.6-.2 1.2 0 1.5.6.2.6 0 1.2-.6 1.5l-2.1.8c-.2.1-.3.1-.5.1zm8.3-3.4c-.4 0-.9-.3-1-.7-.2-.6 0-1.2.6-1.5l2.1-.8c.6-.2 1.2 0 1.5.6.2.6 0 1.2-.6 1.5l-2.1.8c-.2.1-.3.1-.5.1zm8.3-3.3c-.4 0-.9-.3-1-.7-.2-.6 0-1.2.6-1.5l2.1-.8c.6-.2 1.2 0 1.5.6.2.6 0 1.2-.6 1.5l-2.1.8c-.2.1-.3.1-.5.1zm8.3-3.3c-.4 0-.9-.3-1-.7-.2-.6 0-1.2.6-1.5l2.1-.8c.6-.2 1.2 0 1.5.6.2.6 0 1.2-.6 1.5l-2.1.8c-.2.1-.3.1-.5.1zm8.3-3.3c-.4 0-.9-.3-1-.7-.2-.6 0-1.2.6-1.5l2.1-.8c.6-.2 1.2 0 1.5.6.2.6 0 1.2-.6 1.5l-2.1.8c-.2 0-.3.1-.5.1zm8.3-3.4c-.4 0-.9-.3-1-.7-.2-.6 0-1.2.6-1.5l2.1-.8c.6-.2 1.2 0 1.5.6.2.6 0 1.2-.6 1.5l-2.1.8c-.2.1-.4.1-.5.1zM1028.7 310.9c-.1 0-.1 0 0 0h-.4c-.6 0-1.1-.6-1.1-1.2s.5-1 1.2-1.1h.3c.6 0 1.1.6 1.1 1.2-.1.6-.6 1.1-1.1 1.1zm-7.1-.4l-2.3-.1c-.6 0-1.1-.6-1.1-1.2s.5-1.1 1.2-1.1l2.2.1c.6 0 1.1.6 1.1 1.2s-.5 1.1-1.1 1.1zm-8.9-.5s-.1 0 0 0l-2.3-.1c-.6 0-1.1-.6-1.1-1.2s.5-1 1.2-1.1l2.2.1c.6 0 1.1.6 1.1 1.2s-.5 1.1-1.1 1.1zm-8.9-.6c-.1 0-.1 0 0 0l-2.3-.1c-.6 0-1.1-.6-1.1-1.2s.6-1.1 1.2-1.1l2.2.1c.6 0 1.1.6 1.1 1.2-.1.7-.6 1.1-1.1 1.1zm-9-.5l-2.3-.1c-.6 0-1.1-.6-1.1-1.2s.5-1 1.2-1.1l2.2.1c.6 0 1.1.6 1.1 1.2 0 .7-.5 1.1-1.1 1.1zm-8.9-.5l-2.3-.1c-.6 0-1.1-.6-1.1-1.2s.5-1 1.2-1.1l2.2.1c.6 0 1.1.6 1.1 1.2 0 .7-.5 1.1-1.1 1.1zm-8.9-.5s-.1 0 0 0l-2.3-.1c-.6 0-1.1-.6-1.1-1.2s.6-1 1.2-1.1l2.2.1c.6 0 1.1.6 1.1 1.2s-.5 1.1-1.1 1.1zm-8.9-.5c-.1 0-.1 0 0 0l-2.3-.1c-.6 0-1.1-.6-1.1-1.2s.6-1 1.2-1.1l2.2.1c.6 0 1.1.6 1.1 1.2-.1.6-.6 1.1-1.1 1.1zm-9-.5l-2.3-.1c-.6 0-1.1-.6-1.1-1.2s.5-1 1.2-1.1l2.2.1c.6 0 1.1.6 1.1 1.2s-.5 1.1-1.1 1.1zm-8.9-.6l-2.3-.1c-.6 0-1.1-.6-1.1-1.2s.5-1 1.2-1.1l2.2.1c.6 0 1.1.6 1.1 1.2 0 .7-.5 1.1-1.1 1.1zm-8.9-.5s-.1 0 0 0l-2.3-.1c-.6 0-1.1-.6-1.1-1.2s.6-1.1 1.2-1.1l2.2.1c.6 0 1.1.6 1.1 1.2 0 .7-.5 1.1-1.1 1.1zm-8.9-.5c-.1 0-.1 0 0 0l-2.3-.1c-.6 0-1.1-.6-1.1-1.2s.5-1.1 1.2-1l2.2.1c.6 0 1.1.6 1.1 1.2-.1.6-.6 1-1.1 1zm-9-.5l-2.3-.1c-.6 0-1.1-.6-1.1-1.2s.5-1.1 1.2-1.1l2.2.1c.6 0 1.1.6 1.1 1.2s-.5 1.1-1.1 1.1zm-8.9-.5l-2.3-.1c-.6 0-1.1-.6-1.1-1.2s.6-1.1 1.2-1.1l2.2.1c.6 0 1.1.6 1.1 1.2s-.5 1.1-1.1 1.1zm-8.9-.5s-.1 0 0 0l-2.3-.1c-.6 0-1.1-.6-1.1-1.2s.5-1.1 1.2-1.1l2.2.1c.6 0 1.1.6 1.1 1.2s-.5 1.1-1.1 1.1zm-8.9-.6c-.1 0-.1 0 0 0l-2.3-.1c-.6 0-1.1-.6-1.1-1.2s.6-1.1 1.2-1.1l2.2.1c.6 0 1.1.6 1.1 1.2-.1.7-.6 1.1-1.1 1.1zm-9-.5l-2.3-.1c-.6 0-1.1-.6-1.1-1.2s.6-1.1 1.2-1.1l2.2.1c.6 0 1.1.6 1.1 1.2 0 .7-.5 1.1-1.1 1.1zm-8.9-.5l-2.3-.1c-.6 0-1.1-.6-1.1-1.2s.6-1.1 1.2-1.1l2.2.1c.6 0 1.1.6 1.1 1.2 0 .7-.5 1.1-1.1 1.1zm-8.9-.5s-.1 0 0 0l-2.3-.1c-.6 0-1.1-.6-1.1-1.2s.5-1.1 1.2-1.1l2.2.1c.6 0 1.1.6 1.1 1.2s-.5 1.1-1.1 1.1zm-8.9-.5c-.1 0-.1 0 0 0l-2.3-.1c-.6 0-1.1-.6-1.1-1.2s.6-1.1 1.2-1.1l2.2.1c.6 0 1.1.6 1.1 1.2-.1.6-.6 1.1-1.1 1.1zm-9-.5l-2.3-.1c-.6 0-1.1-.6-1.1-1.2s.6-1.1 1.2-1.1l2.2.1c.6 0 1.1.6 1.1 1.2s-.5 1.1-1.1 1.1zm-8.9-.6l-2.3-.1c-.6 0-1.1-.6-1.1-1.2s.6-1.1 1.2-1.1l2.2.1c.6 0 1.1.6 1.1 1.2 0 .7-.5 1.1-1.1 1.1zm-8.9-.5s-.1 0 0 0l-2.3-.1c-.6 0-1.1-.6-1.1-1.2s.6-1.1 1.2-1.1l2.2.1c.6 0 1.1.6 1.1 1.2 0 .7-.5 1.1-1.1 1.1zm-8.9-.5c-.1 0-.1 0 0 0l-2.3-.1c-.6 0-1.1-.6-1.1-1.2s.6-1.1 1.2-1.1l2.2.1c.6 0 1.1.6 1.1 1.2-.1.6-.6 1.1-1.1 1.1zm-9-.5l-2.3-.1c-.6 0-1.1-.6-1.1-1.2s.5-1.1 1.2-1.1l2.2.1c.6 0 1.1.6 1.1 1.2s-.5 1.1-1.1 1.1zm-8.9-.5l-2.3-.1c-.6 0-1.1-.6-1.1-1.2s.6-1.1 1.2-1.1l2.2.1c.6 0 1.1.6 1.1 1.2s-.5 1.1-1.1 1.1zm-8.9-.5s-.1 0 0 0l-2.3-.1c-.6 0-1.1-.6-1.1-1.2s.6-1.1 1.2-1.1l2.2.1c.6 0 1.1.6 1.1 1.2s-.5 1.1-1.1 1.1zm-8.9-.6c-.1 0-.1 0 0 0l-2.3-.1c-.6 0-1.1-.6-1.1-1.2s.6-1.1 1.2-1.1l2.2.1c.6 0 1.1.6 1.1 1.2-.1.7-.6 1.1-1.1 1.1zm-9-.5l-2.3-.1c-.6 0-1.1-.6-1.1-1.2s.5-1.1 1.2-1.1l2.2.1c.6 0 1.1.6 1.1 1.2 0 .7-.5 1.1-1.1 1.1zm-8.9-.5l-2.3-.1c-.6 0-1.1-.6-1.1-1.2s.6-1.1 1.2-1.1l2.2.1c.6 0 1.1.6 1.1 1.2s-.5 1.1-1.1 1.1zm-8.9-.5s-.1 0 0 0l-2.3-.1c-.6 0-1.1-.6-1.1-1.2s.6-1.1 1.2-1.1l2.2.1c.6 0 1.1.6 1.1 1.2s-.5 1.1-1.1 1.1zm-8.9-.5c-.1 0-.1 0 0 0l-2.3-.1c-.6 0-1.1-.6-1.1-1.2s.5-1.1 1.2-1.1l2.2.1c.6 0 1.1.6 1.1 1.2-.1.6-.6 1.1-1.1 1.1zm-9-.5l-2.3-.1c-.6 0-1.1-.6-1.1-1.2s.6-1.1 1.2-1.1l2.2.1c.6 0 1.1.6 1.1 1.2s-.5 1.1-1.1 1.1zM879.1 476.9c-.2 0-.3 0-.5-.1l-2-1c-.6-.3-.8-.9-.5-1.5.3-.6.9-.8 1.5-.5l2 1c.6.3.8.9.5 1.5-.2.4-.6.6-1 .6zm-8.1-3.8c-.2 0-.3 0-.5-.1l-2-1c-.6-.3-.8-.9-.5-1.5.3-.6.9-.8 1.5-.5l2 1c.6.3.8.9.5 1.5-.2.4-.6.6-1 .6zm-8.1-3.8c-.2 0-.3 0-.5-.1l-2-1c-.6-.3-.8-.9-.5-1.5.3-.6.9-.8 1.5-.5l2 1c.6.3.8.9.5 1.5-.1.4-.6.6-1 .6zm-8.1-3.8c-.2 0-.3 0-.5-.1l-2-1c-.6-.3-.8-.9-.5-1.5.3-.6.9-.8 1.5-.5l2 1c.6.3.8.9.5 1.5-.1.4-.5.6-1 .6zm-8-3.8c-.2 0-.3 0-.5-.1l-2-1c-.6-.3-.8-.9-.5-1.5.3-.6.9-.8 1.5-.5l2 1c.6.3.8.9.5 1.5-.2.4-.6.6-1 .6zm-8.1-3.8c-.2 0-.3 0-.5-.1l-2-1c-.6-.3-.8-.9-.5-1.5.3-.6.9-.8 1.5-.5l2 1c.6.3.8.9.5 1.5-.2.4-.6.6-1 .6zm-8.1-3.8c-.2 0-.3 0-.5-.1l-2-1c-.6-.3-.8-.9-.5-1.5.3-.6.9-.8 1.5-.5l2 1c.6.3.8.9.5 1.5-.2.4-.6.6-1 .6zm-8.1-3.8c-.2 0-.3 0-.5-.1l-2-1c-.6-.3-.8-.9-.5-1.5.3-.6.9-.8 1.5-.5l2 1c.6.3.8.9.5 1.5-.2.4-.6.6-1 .6zm-8.1-3.8c-.2 0-.3 0-.5-.1l-2-1c-.6-.3-.8-.9-.5-1.5.3-.6.9-.8 1.5-.5l2 1c.6.3.8.9.5 1.5-.2.4-.6.6-1 .6zm-8.1-3.8c-.2 0-.3 0-.5-.1l-2-1c-.6-.3-.8-.9-.5-1.5.3-.6.9-.8 1.5-.5l2 1c.6.3.8.9.5 1.5-.2.4-.6.6-1 .6zm-8.1-3.8c-.2 0-.3 0-.5-.1l-2-1c-.6-.3-.8-.9-.5-1.5.3-.6.9-.8 1.5-.5l2 1c.6.3.8.9.5 1.5-.2.4-.6.6-1 .6zm-8.1-3.8c-.2 0-.3 0-.5-.1l-2-1c-.6-.3-.8-.9-.5-1.5.3-.6.9-.8 1.5-.5l2 1c.6.3.8.9.5 1.5-.2.4-.6.6-1 .6zm-8.1-3.8c-.2 0-.3 0-.5-.1l-2-1c-.6-.3-.8-.9-.5-1.5.3-.6.9-.8 1.5-.5l2 1c.6.3.8.9.5 1.5-.2.3-.6.6-1 .6zm-8.1-3.8c-.2 0-.3 0-.5-.1l-2-1c-.6-.3-.8-.9-.5-1.5.3-.6.9-.8 1.5-.5l2 1c.6.3.8.9.5 1.5-.1.3-.5.6-1 .6zm-8.1-3.8c-.2 0-.3 0-.5-.1l-2-1c-.6-.3-.8-.9-.5-1.5.3-.6.9-.8 1.5-.5l2 1c.6.3.8.9.5 1.5-.1.3-.5.6-1 .6zm-8-3.8c-.2 0-.3 0-.5-.1l-2-1c-.6-.3-.8-.9-.5-1.5.3-.6.9-.8 1.5-.5l2 1c.6.3.8.9.5 1.5-.2.3-.6.6-1 .6zm-8.1-3.8c-.2 0-.3 0-.5-.1l-2-1c-.6-.3-.8-.9-.5-1.5.3-.6.9-.8 1.5-.5l2 1c.6.3.8.9.5 1.5-.2.3-.6.6-1 .6zm-8.1-3.8c-.2 0-.3 0-.5-.1l-2-1c-.6-.3-.8-.9-.5-1.5.3-.6.9-.8 1.5-.5l2 1c.6.3.8.9.5 1.5-.2.3-.6.6-1 .6zm-8.1-3.8c-.2 0-.3 0-.5-.1l-2-1c-.6-.3-.8-.9-.5-1.5.3-.6.9-.8 1.5-.5l2 1c.6.3.8.9.5 1.5-.2.3-.6.6-1 .6zm-8.1-3.8c-.2 0-.3 0-.5-.1l-2-1c-.6-.3-.8-.9-.5-1.5.3-.6.9-.8 1.5-.5l2 1c.6.3.8.9.5 1.5-.2.3-.6.6-1 .6zm-8.1-3.9c-.2 0-.3 0-.5-.1l-2-1c-.6-.3-.8-.9-.5-1.5.3-.6.9-.8 1.5-.5l2 1c.6.3.8.9.5 1.5-.2.4-.6.6-1 .6zm-8.1-3.8c-.2 0-.3 0-.5-.1l-2-1c-.6-.3-.8-.9-.5-1.5.3-.6.9-.8 1.5-.5l2 1c.6.3.8.9.5 1.5-.2.4-.6.6-1 .6z"/><path fill="#666" d="M922.6 271.9l-1.3 21.2 3.7.2c2.8.2 4.9-.6 6.6-2.2 1.6-1.6 2.5-4 2.7-7.2l.1-1.6c.2-3.1-.4-5.5-1.7-7.3-1.3-1.8-3.3-2.8-6-3l-4.1-.1zm-5 23.9l1.6-27.1 7.6.5c2.4.1 4.4.8 6.2 1.9 1.7 1.1 3.1 2.7 3.9 4.7.9 2 1.2 4.2 1.1 6.7l-.1 1.7c-.2 2.5-.8 4.8-1.9 6.6-1.1 1.9-2.6 3.2-4.5 4.2-1.9.9-4 1.3-6.5 1.2l-7.4-.4zm-4.3-8.9c-.5 2.8-1.7 5-3.6 6.4-1.9 1.4-4.3 2.1-7.2 1.9-3.2-.2-5.7-1.5-7.5-3.9-1.8-2.4-2.6-5.5-2.3-9.4l.2-2.6c.2-2.5.7-4.7 1.7-6.6 1-1.9 2.4-3.2 4.1-4.2 1.7-.9 3.7-1.3 5.8-1.2 2.9.2 5.1 1.1 6.8 2.8 1.6 1.7 2.5 4 2.6 6.8l-3.6-.2c-.2-2.2-.8-3.8-1.7-4.8-1-1-2.4-1.6-4.3-1.7-2.3-.1-4.1.6-5.5 2.2-1.4 1.6-2.2 4-2.4 7.1l-.2 2.6c-.2 2.9.3 5.3 1.4 7.1 1.1 1.8 2.8 2.8 5 2.9 2 .1 3.5-.2 4.6-1.1 1.1-.8 1.9-2.3 2.4-4.6l3.7.5zm-39.6-9.3l5.4.3c1.6.1 2.8-.2 3.8-.9s1.5-1.7 1.6-3.1c.1-1.5-.3-2.6-1.1-3.3-.8-.7-2.1-1.1-3.9-1.3l-5.3-.3-.5 8.6zm-.2 2.9l-.6 9.7 5.9.4c1.7.1 3-.2 4-1s1.6-2 1.7-3.4c.2-3.2-1.5-5-5-5.2l-6-.5zm-4.3 12.4l1.6-27.1 8.8.5c2.9.2 5.1.9 6.5 2.2 1.4 1.3 2 3.1 1.9 5.5-.1 1.3-.5 2.4-1.3 3.3-.8.9-1.8 1.6-3.1 2.1 1.4.5 2.5 1.3 3.3 2.5.8 1.2 1.1 2.6 1 4.2-.1 2.4-1 4.3-2.7 5.6-1.7 1.3-3.9 1.9-6.8 1.7l-9.2-.5zm-19.6-11.2l9.2.6-3.9-12.9-5.3 12.3zm10.1 3.5l-11.3-.7-3 6.9-3.7-.2 12-26.4 3.1.2 8.7 27.7-3.7-.2-2.1-7.3zM822.8 135.5l7.9 19.7 3.5-1.4c2.6-1 4.2-2.6 5-4.8.8-2.2.6-4.7-.6-7.6l-.6-1.5c-1.1-2.9-2.7-4.8-4.7-5.9-2-1.1-4.2-1.1-6.7-.1l-3.8 1.6zm5.6 23.7l-10-25.2 7.1-2.8c2.2-.9 4.3-1.2 6.4-.9 2.1.3 3.9 1.2 5.5 2.6 1.6 1.4 2.9 3.3 3.8 5.6l.6 1.6c.9 2.4 1.3 4.6 1.1 6.8-.2 2.1-1 4-2.3 5.7-1.3 1.6-3.1 2.9-5.4 3.8l-6.8 2.8zm-7.7-6.1c.7 2.8.6 5.2-.5 7.3-1.1 2.1-3 3.7-5.7 4.8-3 1.2-5.8 1.1-8.4-.4-2.6-1.4-4.7-3.9-6.1-7.5l-1-2.4c-.9-2.3-1.3-4.6-1.2-6.7.1-2.1.8-3.9 1.9-5.5 1.2-1.6 2.7-2.7 4.8-3.5 2.7-1.1 5.1-1.2 7.3-.3 2.2.9 4 2.5 5.3 5.1l-3.3 1.3c-1.1-1.9-2.3-3.1-3.6-3.6-1.3-.5-2.9-.4-4.6.3-2.1.8-3.5 2.3-4.1 4.3-.6 2-.3 4.5.9 7.4l1 2.4c1.1 2.7 2.5 4.7 4.3 5.8 1.8 1.2 3.7 1.3 5.8.5 1.8-.7 3.1-1.7 3.7-2.9.7-1.2.7-2.9.2-5.1l3.3-1.3zm-39.8 8.3l5-2c1.5-.6 2.5-1.4 3.1-2.5.6-1.1.6-2.2.1-3.5-.6-1.4-1.4-2.2-2.4-2.5-1.1-.3-2.4-.1-4.1.5l-4.9 2 3.2 8zm1.1 2.7l3.6 9 5.5-2.2c1.5-.6 2.6-1.5 3.2-2.6.6-1.2.6-2.4 0-3.8-1.2-3-3.4-3.9-6.7-2.5l-5.6 2.1zm1.3 13.1l-10-25.2 8.2-3.3c2.7-1.1 5-1.3 6.8-.8 1.8.6 3.2 2 4.1 4.2.5 1.2.6 2.4.2 3.5-.3 1.2-.9 2.2-1.9 3.2 1.5-.2 2.9.1 4.1.9 1.2.8 2.1 1.9 2.7 3.3.9 2.3.9 4.3-.1 6.2-.9 1.9-2.8 3.3-5.4 4.4l-8.7 3.6zm-22.4-1.9l8.6-3.4-9-10.1.4 13.5zm10.6-1l-10.6 4.2.3 7.5-3.4 1.4-.4-29 2.9-1.2 19.7 21.4-3.4 1.4-5.1-5.7zM848.6 425.8l-9.1 19.2 3.4 1.6c2.5 1.2 4.8 1.3 6.9.4 2.1-.9 3.9-2.8 5.2-5.6l.7-1.4c1.3-2.8 1.7-5.3 1.1-7.4-.6-2.2-2.1-3.8-4.4-5l-3.8-1.8zM835 446.1l11.6-24.5 6.9 3.3c2.1 1 3.8 2.4 5 4.1 1.2 1.7 1.8 3.7 1.9 5.8.1 2.2-.4 4.4-1.5 6.6l-.7 1.6c-1.1 2.3-2.5 4.1-4.2 5.4-1.7 1.3-3.6 2-5.7 2.2-2.1.1-4.2-.3-6.5-1.3l-6.8-3.2zm-.7-9.8c-1.5 2.4-3.4 4-5.7 4.6-2.3.6-4.7.3-7.4-.9-2.9-1.4-4.7-3.5-5.5-6.4-.8-2.9-.3-6.1 1.3-9.6l1.1-2.4c1.1-2.3 2.4-4.1 4.1-5.4 1.6-1.3 3.4-2.1 5.3-2.3 1.9-.2 3.9.1 5.8 1.1 2.6 1.2 4.3 2.9 5.2 5.1.9 2.2.8 4.6-.1 7.3l-3.2-1.5c.7-2.1.7-3.8.2-5.1-.5-1.3-1.6-2.4-3.3-3.2-2.1-1-4-1-5.9 0-1.9 1-3.5 2.9-4.8 5.7l-1.1 2.4c-1.3 2.7-1.7 5-1.3 7.1.4 2.1 1.5 3.6 3.5 4.6 1.8.8 3.4 1.1 4.7.7 1.3-.4 2.6-1.5 3.9-3.3l3.2 1.5zM801 412.8l4.9 2.3c1.4.7 2.7.8 3.9.5 1.2-.3 2.1-1.1 2.6-2.3.6-1.3.7-2.5.2-3.5-.5-1-1.5-1.9-3.1-2.6l-4.8-2.3-3.7 7.9zm-1.2 2.7l-4.1 8.8 5.3 2.5c1.5.7 2.9.9 4.1.5 1.2-.4 2.2-1.2 2.8-2.6 1.4-2.9.5-5.2-2.7-6.7l-5.4-2.5zm-8.7 9.8l11.6-24.5 8 3.8c2.7 1.3 4.4 2.8 5.2 4.5.8 1.7.7 3.7-.3 5.8-.5 1.1-1.3 2-2.4 2.6-1.1.6-2.3.8-3.6.8 1.2 1 1.9 2.2 2.1 3.6.3 1.4.1 2.8-.6 4.2-1 2.2-2.6 3.6-4.6 4.2-2 .6-4.3.3-6.9-1l-8.5-4zm-13.9-17.7l8.3 4 1.3-13.4-9.6 9.4zm8 7.1l-10.3-4.9-5.3 5.3-3.3-1.6 21-20.1 2.8 1.3-2.2 28.9-3.3-1.6.6-7.3zM330.4 324.3l8 19.7 3.5-1.4c2.6-1 4.2-2.6 5-4.8.8-2.2.6-4.7-.6-7.6l-.6-1.5c-1.2-2.9-2.7-4.8-4.7-5.8s-4.2-1.1-6.7-.1l-3.9 1.5zm5.8 23.7L326 322.9l7.1-2.9c2.2-.9 4.3-1.2 6.4-.9 2.1.3 3.9 1.1 5.6 2.6 1.6 1.4 2.9 3.3 3.9 5.6l.7 1.6c1 2.4 1.3 4.6 1.2 6.8-.2 2.1-.9 4.1-2.3 5.7-1.3 1.6-3.1 2.9-5.3 3.9l-7.1 2.7zm-7.8-6.1c.8 2.8.6 5.2-.5 7.3-1.1 2.1-3 3.7-5.7 4.8-3 1.2-5.8 1.1-8.4-.3-2.6-1.4-4.7-3.9-6.1-7.5l-1-2.4c-.9-2.3-1.4-4.6-1.2-6.7.1-2.1.7-3.9 1.9-5.5 1.1-1.6 2.7-2.8 4.7-3.6 2.7-1.1 5.1-1.2 7.3-.4 2.2.8 4 2.5 5.3 5.1l-3.3 1.3c-1.1-1.9-2.3-3.1-3.6-3.6-1.3-.5-2.9-.4-4.6.3-2.1.9-3.5 2.3-4 4.4-.6 2-.3 4.5.9 7.4l1 2.4c1.1 2.7 2.6 4.7 4.3 5.8 1.8 1.1 3.7 1.3 5.8.5 1.8-.7 3.1-1.7 3.7-3 .6-1.2.7-2.9.2-5.1l3.3-1.2zm-39.7 8.6l5-2c1.4-.6 2.5-1.4 3-2.5.6-1.1.6-2.2.1-3.5-.6-1.4-1.4-2.2-2.4-2.5-1.1-.3-2.4-.1-4.1.5l-4.9 2 3.3 8zm1.1 2.7l3.6 9 5.5-2.2c1.5-.6 2.6-1.5 3.2-2.7.6-1.2.6-2.4 0-3.8-1.2-3-3.5-3.8-6.8-2.5l-5.5 2.2zm1.4 13.1L281 341.1l8.2-3.3c2.7-1.1 5-1.4 6.8-.8 1.8.6 3.2 2 4.1 4.2.5 1.2.6 2.3.3 3.5-.3 1.2-.9 2.2-1.9 3.2 1.5-.2 2.9.1 4.1.9 1.2.7 2.1 1.9 2.7 3.3.9 2.3.9 4.3 0 6.2-.9 1.9-2.7 3.4-5.4 4.4l-8.7 3.6zm-22.5-1.8l8.5-3.5-9-10 .5 13.5zm10.6-1.1l-10.5 4.3.3 7.5-3.4 1.4-.6-29 2.9-1.2 19.8 21.2-3.4 1.4-5.1-5.6zM325.4 142.4l-6.2 20.3 3.6 1.1c2.6.8 4.9.6 6.9-.6s3.4-3.3 4.3-6.3l.5-1.5c.9-2.9.9-5.4 0-7.5-.9-2.1-2.6-3.5-5.1-4.3l-4-1.2zM315 164.5l7.9-25.9 7.3 2.2c2.3.7 4.1 1.8 5.5 3.3 1.4 1.5 2.3 3.4 2.7 5.5.4 2.1.2 4.4-.5 6.8l-.5 1.7c-.7 2.4-1.9 4.4-3.4 6-1.5 1.5-3.3 2.6-5.3 3-2 .5-4.2.3-6.6-.3l-7.1-2.3zm-2.2-9.6c-1.2 2.6-2.8 4.5-5 5.4-2.2 1-4.6 1-7.5.2-3.1-.9-5.2-2.8-6.4-5.5-1.2-2.8-1.2-6-.1-9.7l.8-2.5c.7-2.4 1.8-4.4 3.2-6 1.4-1.6 3.1-2.6 4.9-3.1 1.9-.5 3.9-.4 5.9.2 2.8.8 4.7 2.3 5.9 4.3 1.2 2 1.5 4.5 1 7.3l-3.4-1c.3-2.2.1-3.9-.6-5.1-.7-1.2-2-2.1-3.7-2.7-2.2-.7-4.1-.4-5.9.9-1.7 1.2-3.1 3.3-4 6.3l-.8 2.5c-.9 2.8-.9 5.2-.3 7.3.7 2 2.1 3.4 4.2 4 1.9.6 3.5.6 4.8 0 1.3-.5 2.4-1.8 3.4-3.9l3.6 1.1zm-36.3-18.4l5.2 1.6c1.5.5 2.8.4 3.9 0 1.1-.5 1.9-1.3 2.3-2.6.4-1.4.3-2.6-.3-3.5-.6-.9-1.8-1.6-3.5-2.1l-5.1-1.5-2.5 8.1zm-.9 2.9l-2.8 9.3 5.6 1.7c1.6.5 3 .5 4.1-.1 1.2-.5 2-1.5 2.4-3 .9-3.1-.3-5.2-3.7-6.2l-5.6-1.7zm-7.1 11l7.9-25.9 8.5 2.6c2.8.9 4.8 2.1 5.8 3.7 1.1 1.6 1.2 3.5.6 5.8-.4 1.2-1 2.2-2 2.9-1 .7-2.1 1.2-3.5 1.3 1.3.8 2.2 1.9 2.6 3.2.5 1.3.5 2.8 0 4.3-.7 2.3-2 3.9-3.9 4.8-1.9.9-4.2.9-7 .1l-9-2.8zm-16.4-15.5l8.8 2.7-.7-13.5-8.1 10.8zm9 5.8l-10.9-3.3-4.5 6-3.5-1.1 17.8-22.9 3 .9 2 29-3.5-1.1-.4-7.5z"/></svg>
