<svg xmlns="http://www.w3.org/2000/svg" width="30" height="30" fill="#6485f9" image-rendering="optimizeQuality" shape-rendering="geometricPrecision" viewBox="0 0 2.83 2.83"><path d="M1.42 1.7c.08 0 .16-.04.22-.09V1.6a.28.28 0 0 0 .09-.22v-.5a.31.31 0 0 0-.09-.22.31.31 0 0 0-.22-.09c-.09 0-.17.03-.23.09a.36.36 0 0 0-.09.22v.5c0 .09.04.17.09.23.06.05.14.09.23.09zm0 .13a.445.445 0 0 1-.45-.45v-.5c0-.12.05-.23.13-.31.08-.09.19-.14.32-.14.12 0 .23.05.32.14.08.08.13.19.13.31v.5c0 .12-.05.24-.13.32-.09.08-.2.13-.32.13z"></path><path d="M.69 1.34c0-.04.03-.07.07-.07.03 0 .06.03.06.07v.16c0 .13.07.26.17.35a.678.678 0 0 0 .85 0c.11-.09.17-.22.17-.35v-.16c0-.04.03-.07.07-.07.04 0 .07.03.07.07v.16c0 .17-.09.34-.22.45a.79.79 0 0 1-.51.18.79.79 0 0 1-.51-.18.578.578 0 0 1-.22-.45v-.16zm.3 1.06c-.03 0-.06-.03-.06-.07 0-.03.03-.06.06-.06h.85c.04 0 .07.03.07.06 0 .04-.03.07-.07.07H.99z"></path></svg>