<svg xmlns="http://www.w3.org/2000/svg" width="81" height="81" fill="none" viewBox="0 0 81 81"><circle cx="40.5" cy="40.5" r="40" stroke="#E0E3EB"></circle><path fill="#3ECF8E" d="M13 37.152c0-4.685 4.01-8.368 8.678-7.97l12.95 1.101 15.11-6.973a2 2 0 0 1 2.838 1.816v25.961a2 2 0 0 1-2.839 1.816L34.63 45.929l-12.95 1.103C17.008 47.429 13 43.746 13 39.06v-1.909Z"></path><path fill="#9FE7C7" d="M21.472 51.799a2 2 0 0 1 1.698-2.623l4.102-.41a2 2 0 0 1 2.096 1.358l2.795 8.382a2 2 0 0 1-1.699 2.623l-4.101.41a2 2 0 0 1-2.097-1.358L21.472 51.8Z"></path><path fill="#9FE7C7" fill-rule="evenodd" d="M54.657 27.333a1.5 1.5 0 0 1 2.01-.676c1.902.945 3.641 2.215 4.893 4.092 1.258 1.885 1.94 4.255 1.94 7.251 0 2.996-.682 5.366-1.94 7.252-1.252 1.876-2.991 3.147-4.892 4.091a1.5 1.5 0 0 1-1.335-2.686c1.598-.795 2.859-1.763 3.732-3.07.867-1.3 1.435-3.06 1.435-5.587 0-2.526-.568-4.287-1.435-5.586-.873-1.308-2.134-2.276-3.732-3.07a1.5 1.5 0 0 1-.676-2.011Z" clip-rule="evenodd"></path><path fill="#9FE7C7" fill-rule="evenodd" d="M59.756 22.162a1.5 1.5 0 0 1 2.082-.406c2.059 1.388 4.12 3.22 5.659 5.86C69.039 30.265 70 33.63 70 38s-.961 7.736-2.503 10.383c-1.538 2.64-3.6 4.473-5.659 5.86a1.5 1.5 0 1 1-1.677-2.487c1.811-1.22 3.5-2.746 4.744-4.883C66.145 44.743 67 41.913 67 38c0-3.913-.855-6.743-2.095-8.873-1.245-2.137-2.933-3.662-4.744-4.883a1.5 1.5 0 0 1-.405-2.082Z" clip-rule="evenodd"></path></svg>