<svg xmlns="http://www.w3.org/2000/svg" width="30" height="30" fill="#9748d6" image-rendering="optimizeQuality" shape-rendering="geometricPrecision" viewBox="0 0 2.42 2.42"><path d="M.39 1.73h1.64V.7H.39v1.03zm1.7.11H.33c-.03 0-.05-.02-.05-.06V.64C.28.61.3.58.33.58h1.76c.03 0 .06.03.06.06v1.14c0 .04-.03.06-.06.06zm-.47-.38c.04 0 .07-.02.09-.04.03-.02.04-.05.04-.09 0-.03-.01-.07-.03-.09-.03-.02-.06-.04-.1-.04-.03 0-.06.02-.09.04-.02.03-.03.06-.03.09 0 .04.01.07.03.09.03.02.06.04.09.04zm.18.04c-.05.05-.11.07-.18.07-.06 0-.12-.02-.17-.07a.241.241 0 0 1-.07-.17c0-.06.03-.12.07-.17.05-.05.11-.07.17-.07.07 0 .13.02.18.07a.241.241 0 0 1 0 .34zM.6.96C.57.96.54.94.54.91.54.87.57.85.6.85h.82c.04 0 .06.02.06.06 0 .03-.02.05-.06.05H.6zm0 .27c-.03 0-.06-.02-.06-.06 0-.03.03-.05.06-.05h.47c.03 0 .05.02.05.05 0 .04-.02.06-.05.06H.6z"></path></svg>