<svg xmlns="http://www.w3.org/2000/svg" width="30" height="30" fill="#00b8d9" image-rendering="optimizeQuality" shape-rendering="geometricPrecision" viewBox="0 0 6.43 6.43"><path d="M1.4 1.6h3.63a.56.56 0 0 1 .39.17c.1.1.16.23.16.4V4.3a.55.55 0 0 1-.55.55H1.4c-.16 0-.3-.06-.4-.16a.56.56 0 0 1-.17-.39V2.15c0-.16.07-.3.17-.4l.01-.01c.1-.1.23-.16.38-.16zm3.63.3H1.4c-.07 0-.13.03-.17.07h-.01c-.04.05-.07.1-.07.18v2.13a.241.241 0 0 0 .25.24h3.63c.07 0 .13-.02.17-.07.05-.04.07-.1.07-.17V2.15a.241.241 0 0 0-.24-.25z"></path><path d="M1.13 3.27c-.1 0-.15-.07-.15-.15 0-.1.06-.16.15-.16h4.2c.1 0 .16.07.16.16 0 .08-.07.15-.16.15h-4.2zm.6.82c-.1 0-.16-.07-.16-.15 0-.1.07-.16.16-.16h1.24c.08 0 .15.07.15.16 0 .08-.07.15-.15.15H1.73z"></path></svg>