<?xml version="1.0" encoding="utf-8"?>
<!-- Generator: Adobe Illustrator 19.2.1, SVG Export Plug-In . SVG Version: 6.00 Build 0)  -->
<svg version="1.1" id="Layer_1" xmlns="http://www.w3.org/2000/svg" xmlns:xlink="http://www.w3.org/1999/xlink" x="0px" y="0px"
	 viewBox="0 0 1000 1000" enable-background="new 0 0 1000 1000" xml:space="preserve">
<rect x="0" fill="none" width="1000" height="1000"/>
<g>
	<path d="M489.5,514.8c-4.4,0-7.9-3.6-7.9-7.9v-30.6c0-4.4,3.6-7.9,7.9-7.9s7.9,3.6,7.9,7.9v30.6
		C497.4,511.3,493.8,514.8,489.5,514.8z"/>
	<path d="M489.5,747.6c-4.4,0-7.9-3.6-7.9-7.9v-30.6c0-4.4,3.6-7.9,7.9-7.9s7.9,3.5,7.9,7.9v30.6
		C497.4,744.1,493.8,747.6,489.5,747.6z"/>
	<path d="M494.7,610.6h-14.9c-29.8,0-54.1-24.3-54.1-54.1s24.3-54.1,54.1-54.1h25.4c15.8,0,30.8,6.9,41.1,19
		c2.9,3.3,2.5,8.3-0.9,11.2c-3.3,2.8-8.3,2.5-11.2-0.9c-7.3-8.5-17.9-13.4-29-13.4h-25.4c-21.1,0-38.2,17.1-38.2,38.2
		c0,21.1,17.1,38.2,38.2,38.2h14.9c4.4,0,7.9,3.6,7.9,7.9S499,610.6,494.7,610.6z"/>
	<path d="M500.4,713.7h-28.4c-17.4,0-33.8-7.6-45.2-20.9c-2.9-3.3-2.5-8.3,0.9-11.2c3.3-2.9,8.3-2.5,11.2,0.9
		c8.3,9.7,20.4,15.3,33.1,15.3h28.4c24,0,43.6-19.6,43.6-43.6s-19.6-43.6-43.6-43.6h-16.7c-4.4,0-7.9-3.6-7.9-7.9s3.6-7.9,7.9-7.9
		h16.7c32.8,0,59.5,26.7,59.5,59.5S533.2,713.7,500.4,713.7z"/>
	<path d="M405.3,844.7c-3.7,0-7-2.6-7.8-6.3c-2.5-11.9-5.1-23.9-7.8-35c-2.9-12-5.5-21.5-7.5-26.8c-1.5-4-1.6-4.4-7.1-7
		c-7.8-3.7-22.6-9.3-33.1-13.2l-7.7-2.9c-11.2-4.1-22.2-8.2-30.9-11.9c-10.7-4.5-18.2-8.6-24.3-13.1c-3.7-2.7-6.6-5.5-9.1-7.8
		c-1.1-1-2-1.9-2.9-2.6c-0.8-0.7-1.5-1.1-2.1-1.5c-1.7-1.2-3.8-2.7-5.6-5.5c-1.2-2-2-4.3-2.7-6.2c-0.4-1-0.7-2-1.1-2.8
		c-5.5-3.2-5.2-7.9-5.1-10.9l0.5-10.9c0.2-3.3,0.3-6.2,3.6-9c0.4-0.4,1-0.9,1.6-1.9c0.6-1,1.5-2.8,2.6-6.4l1.2-4.8
		c0.6-2.6,1.3-5.2,1.9-6.9c1.2-3.5,2.6-5.3,3.8-6.8c1.9-2.6,3.7-5.4,5.1-8.1c1.5-2.8,2.4-5.4,3.2-8.9c0.8-3.4,1.5-7.6,2.3-11.7
		l1-5.4c0.2-1.2,0.4-2.4,0.6-3.5c-1-0.2-2-0.5-2.7-1.1c-4-3.1-3.2-7.4-2.7-10.3c0.5-2.6,1.4-7.9,1.3-20c-0.1-18.8-2.5-33.8-7-43.5
		c-4.6-10.1-13.1-17.8-26-23.7c-10.7-4.9-21.4-7.2-32.4-7.1c-11.7,0.1-22.8,3-32.2,8.2c-10.7,6-18.7,15-22.9,25.9
		c-3.8,9.8-5.9,23.6-6.1,41.2c-0.1,11.6,0.6,17.5,1,20.7c0.5,3.7,0.8,6.8-2,9.7c-0.5,0.5-1,0.9-1.5,1.2c1.3,5,3.4,11.1,5.1,16.2
		c2.1,6.2,4.3,12.6,6.5,16.7c1.9,3.6,4.1,5.8,5.2,7c2.6,2.7,3.2,4.3,3.8,8c0.3,2,1,6,2.2,8.6c1,2.2,2.7,3.8,3.7,4.8
		c3.2,3.1,3.8,5.4,3.8,9.4v9.7c0,3,0,6-3.3,8.9c-0.8,1.9-1,2.9-1.3,4c-0.7,2.7-1.5,5.7-2.9,8.3c-2.1,3.9-5.1,5.8-7,7.1
		c-2,1.4-2.9,2.2-4,3.2l-4,3.5c-3.5,2.9-9.3,7.4-18.6,12.6c-8.4,4.6-20,10-33.6,15.5c-7.7,3.1-15.9,6.2-23.4,9.1l-13.7,5.3
		c-9.1,3.6-14.8,6.2-17.5,9.1c-2.1,2.3-3.1,5.9-5,16.4c-1.7,9.1-3.9,22-6.3,35.7l-1.6,9c-0.8,4.3-4.9,7.2-9.2,6.5
		c-4.3-0.8-7.2-4.9-6.5-9.2l1.6-9c2.4-13.7,4.7-26.7,6.3-35.8c2.2-11.7,3.7-18.6,8.9-24.3c4.8-5.2,11.6-8.5,23.3-13.1l13.9-5.3
		c7.4-2.8,15.5-5.9,23.1-8.9c13-5.3,24.1-10.4,31.9-14.7c8.2-4.5,13.2-8.4,16.2-10.9l3.6-3.1c1.7-1.5,3-2.6,4.4-3.6
		c2.9-1.9,3.1-2.1,3.3-2.4c0.5-0.9,1.1-3.2,1.6-4.8c0.4-1.5,0.8-3,1.2-4.1c0.8-2.4,1.8-4.1,2.8-5.4v-8c-1.9-1.9-4.3-4.7-6-8.5
		c-2.1-4.5-3-10-3.4-12.7c-2-2.1-4.8-5.3-7.4-10.1c-2.8-5.3-5.2-12.3-7.5-19.1c-2.5-7.3-5.3-15.5-6.3-20.6
		c-1.4-7.4,0.7-11.3,3.6-13.4c-0.4-4-0.8-10.1-0.7-19.3c0.2-19.5,2.6-35.3,7.1-46.8c5.6-14.4,16-26.1,30-33.9
		c11.7-6.5,25.4-10.1,39.8-10.2c13.5-1,26.3,2.6,39.2,8.5c16.5,7.5,27.6,17.8,33.9,31.5c5.5,11.9,8.3,28.7,8.4,50
		c0.1,7-0.2,12.1-0.6,15.7c1.1,0.5,2,1.1,2.7,1.8c2.8,2.9,2.9,6.6,2.8,9.1c-0.1,2.6-0.8,6.6-1.7,11.1l-0.9,5.3
		c-0.8,4.5-1.6,9-2.5,12.7c-1.1,4.7-2.5,8.4-4.5,12.4c-1.9,3.6-4.2,7.2-5.8,9.4c-1.8,2.3-1.8,2.4-2.2,3.4c-0.5,1.4-1,3.5-1.5,5.6
		l-1.4,5.3c-1.3,4.4-2.7,7.9-4.4,10.5c-0.9,1.5-1.9,2.7-2.8,3.6l-0.4,9c1.1,1.1,2.3,2.5,3.3,4.4c0.7,1.4,1.3,3.1,1.9,4.8
		c0.4,1,0.9,2.6,1.2,3.1c2.1,1.5,3.1,2.2,4.3,3.2c1.1,0.9,2.3,2,3.6,3.3c2,1.9,4.5,4.3,7.6,6.6c5,3.7,11.7,7.3,21.1,11.3
		c8.4,3.6,19.3,7.6,30.2,11.6l7.8,2.9c17,6.4,27.9,10.7,34.3,13.7c8.9,4.2,12.2,7.7,15.2,16c2.7,7.5,5.9,19.6,8,28.5
		c2.7,11.3,5.3,23.3,7.8,35.4c0.9,4.3-1.8,8.5-6.1,9.4C406.4,844.6,405.8,844.7,405.3,844.7z M263,687.6c0,0,0.1,0,0.1,0.1
		C263.1,687.6,263.1,687.6,263,687.6z"/>
	<path d="M975,844.7c-3.7,0-7-2.6-7.8-6.3c-2.5-11.9-5.1-23.9-7.8-35c-2.8-11.8-5.5-21.4-7.5-26.8c-1.5-4-1.6-4.4-7.1-7
		c-6-2.8-16.8-7.2-33.1-13.2l-7.7-2.9c-11.2-4.1-22.2-8.2-30.9-11.9c-10.7-4.5-18.2-8.6-24.3-13.1c-3.7-2.8-6.7-5.6-9.1-7.9
		c-1.1-1-2-1.9-2.8-2.6c-0.8-0.6-1.5-1.1-2.1-1.5c-1.7-1.2-3.8-2.7-5.6-5.5c-1.2-2-2-4.3-2.7-6.2c-0.3-1-0.7-2-1.1-2.7
		c-5.4-3.3-5.2-7.7-5.1-10.9l0.5-10.3c0.2-4,0.3-6.8,3.5-9.6c0.4-0.4,1.1-0.9,1.7-1.9c0.6-0.9,1.5-2.8,2.5-6.4l1.3-4.9
		c0.6-2.6,1.3-5,1.8-6.8c1.2-3.5,2.5-5.2,3.7-6.8c2-2.7,3.8-5.5,5.2-8.2c1.4-2.8,2.4-5.4,3.2-8.9c0.8-3.4,1.5-7.6,2.3-11.7l0.9-5.1
		c0.2-1.3,0.5-2.6,0.7-3.8c-1-0.2-2-0.5-2.7-1.1c-4-3.1-3.2-7.4-2.7-10.3c0.5-2.5,1.4-7.8,1.3-20c-0.1-18.7-2.5-33.8-7-43.5
		c-4.6-10.1-13.1-17.8-26-23.7c-10.7-4.9-21.2-7.2-32.4-7.1c-11.7,0.1-22.8,3-32.2,8.2c-10.7,6-18.7,15-22.9,25.9
		c-3.9,9.8-5.9,23.7-6.1,41.2c-0.1,11.7,0.6,17.8,1,20.8c0.5,3.6,0.8,6.7-2,9.6c-0.4,0.5-1,0.9-1.5,1.2c1.3,5.1,3.4,11.4,5.1,16.2
		c2.1,6.2,4.3,12.6,6.5,16.7c1.9,3.6,4,5.7,5.2,7c2.6,2.7,3.3,4.3,3.8,8c0.3,2,1,6,2.2,8.6c1,2.2,2.7,3.8,3.7,4.8
		c3.2,3.1,3.8,5.4,3.8,9.4v9.7c0,3,0,6.1-3.3,9c-0.7,1.8-0.9,2.8-1.2,3.8c-0.7,2.7-1.6,5.8-3,8.4c-2.1,4-5.1,5.9-7.1,7.1
		c-1.9,1.3-2.8,2.1-4,3.2l-4,3.5c-3.5,2.9-9.2,7.4-18.6,12.6c-8.4,4.6-20,10-33.6,15.5c-7.8,3.1-16,6.2-23.5,9.1l-13.6,5.2
		c-9,3.6-14.8,6.2-17.4,9.1c-2.2,2.4-3.2,6.6-5,16.4c-2,11-5,27.9-7.9,44.7c-0.8,4.3-4.8,7.3-9.2,6.5c-4.3-0.8-7.2-4.9-6.5-9.2
		c2.9-16.9,5.9-33.8,7.9-44.8c2.1-11,3.4-18.3,8.9-24.3c4.8-5.2,11.6-8.5,23.3-13.1l13.8-5.3c7.5-2.8,15.6-5.9,23.2-9
		c13-5.3,24-10.3,31.9-14.7c8.2-4.6,13.2-8.4,16.1-10.9l3.7-3.2c1.7-1.5,3-2.6,4.3-3.6c2.9-1.9,3.1-2.1,3.3-2.4
		c0.5-0.9,1.1-3.2,1.6-4.9c0.4-1.5,0.8-2.9,1.2-4c0.9-2.4,1.9-4.1,2.8-5.4v-8c-1.9-1.9-4.3-4.7-6-8.5c-2.1-4.5-3-10-3.4-12.7
		c-2-2.2-4.8-5.3-7.4-10.1c-2.8-5.2-5.2-12.3-7.5-19.1c-2.9-8.4-5.4-15.8-6.3-20.6c-1.5-7.4,0.7-11.3,3.6-13.4
		c-0.4-4.6-0.8-10.5-0.7-19.2c0.2-19.5,2.6-35.2,7.1-46.8c5.6-14.4,16-26.1,30-33.9c11.7-6.5,25.4-10.1,39.8-10.2
		c13.5-1,26.3,2.6,39.2,8.5c16.5,7.5,27.6,17.8,33.9,31.5c5.5,11.9,8.3,28.8,8.4,50c0,7-0.2,12.1-0.6,15.7c1.1,0.5,2.1,1.1,2.7,1.8
		c2.8,2.9,2.9,6.6,2.7,9.2c-0.2,2.6-0.9,6.7-1.7,11.4l-0.9,5c-0.8,4.5-1.6,9-2.5,12.7c-1.2,4.8-2.5,8.5-4.5,12.4
		c-1.9,3.6-4.2,7.2-5.9,9.4c-1.8,2.3-1.8,2.4-2.2,3.3c-0.5,1.4-1,3.4-1.5,5.5c-0.5,1.9-0.9,3.8-1.4,5.5c-1.3,4.4-2.7,7.9-4.4,10.5
		c-1,1.6-2.1,2.8-2.9,3.8l0.2,0l-0.4,8.8c1.1,1.1,2.3,2.5,3.3,4.4c0.7,1.4,1.3,3.1,1.9,4.8c0.4,1,0.9,2.6,1.2,3.1
		c2.1,1.5,3.2,2.2,4.3,3.2c1.1,0.9,2.3,2,3.6,3.3c2.1,1.9,4.5,4.3,7.7,6.6c5,3.7,11.7,7.3,21.1,11.3c8.4,3.6,19.3,7.6,30.2,11.6
		l7.8,2.9c17,6.3,27.9,10.7,34.3,13.7c9,4.2,12.2,7.7,15.2,16c2.2,6,5,16.1,8,28.5c2.7,11.2,5.3,23.3,7.8,35.4
		c0.9,4.3-1.8,8.5-6.1,9.4C976.1,844.6,975.5,844.7,975,844.7z M832.8,687.6C832.8,687.6,832.8,687.7,832.8,687.6
		C832.8,687.7,832.8,687.6,832.8,687.6z M832,680l-3.2,0.5l4.1,0.5L832,680z"/>
	<path d="M685.8,521.4c-3.7,0-7-2.6-7.8-6.3c-2.6-12.2-5.2-24.3-7.9-35.6c-2.9-12.2-5.6-21.9-7.6-27.3c-1.5-4.2-1.7-4.6-7.3-7.3
		c-7.9-3.8-23.1-9.5-33.7-13.5l-7.8-2.9c-11.4-4.2-22.7-8.4-31.5-12.2c-10.7-4.6-18.6-8.8-24.8-13.4c-3.7-2.8-6.7-5.6-9.2-7.9
		c-1.1-1-2.1-2-3-2.7c-0.8-0.7-1.5-1.2-2.2-1.6c-1.7-1.2-3.9-2.7-5.6-5.6c-1.2-2-2-4.3-2.7-6.3c-0.4-1-0.7-2.1-1.1-2.8
		c-5.5-3.3-5.3-7.7-5.2-11l0.5-11.2c0.2-3.3,0.3-6.2,3.5-9c0.5-0.4,1.1-1,1.8-2c0.6-1,1.6-2.9,2.6-6.6l1.3-5
		c0.6-2.6,1.3-5.2,1.9-6.9c1.2-3.6,2.6-5.4,3.9-6.9c2-2.6,3.8-5.5,5.2-8.3c1.5-2.9,2.4-5.5,3.3-9.1c0.8-3.3,1.5-7.5,2.3-11.6l1-5.8
		c0.2-1.3,0.5-2.6,0.7-3.7c-1.1-0.2-2.1-0.5-2.8-1.1c-4-3.1-3.2-7.5-2.7-10.3c0.5-2.6,1.4-8.1,1.4-20.4c-0.1-19.1-2.6-34.5-7.2-44.4
		c-4.7-10.3-13.4-18.2-26.6-24.2c-10.9-5-21.4-7.7-33.1-7.2c-12,0.1-23.3,3-32.8,8.4c-11,6.1-19.1,15.3-23.4,26.4
		c-3.9,10-6,24.2-6.2,42c-0.1,11.9,0.6,17.9,1,21.2c0.5,3.6,0.8,6.8-2,9.7c-0.5,0.5-1,0.9-1.6,1.3c1.3,5.3,3.5,11.7,5.2,16.7
		c2.2,6.3,4.4,12.9,6.7,17.1c2,3.7,4.1,6,5.3,7.2c2.7,2.8,3.2,4.3,3.9,8c0.3,2.1,1,6.2,2.2,8.8c1.1,2.3,2.8,4,3.9,4.9
		c3.2,3,3.8,5.4,3.8,9.5v9.9c0,3,0,6.1-3.3,8.9c-0.8,2-1.1,3-1.4,4.1c-0.7,2.7-1.6,5.9-3,8.5c-2.2,4-5.2,5.9-7.1,7.2
		c-2,1.4-2.9,2.2-4,3.2l-4.2,3.6c-3.6,3-9.4,7.5-19,12.8c-8.4,4.7-20.3,10.1-34.2,15.8c-7.9,3.2-16.4,6.4-24.1,9.3l-13.7,5.3
		c-9.2,3.7-15.1,6.4-17.8,9.3c-2.3,2.5-3.2,6.6-5.1,16.8c-2.1,11.2-5.1,28.4-8.1,45.5c-0.7,4.3-4.8,7.2-9.2,6.5
		c-4.3-0.8-7.2-4.9-6.5-9.2c3-17.2,6-34.4,8.1-45.7c2.1-11.2,3.5-18.6,9.1-24.7c4.8-5.2,11.7-8.6,23.7-13.3l13.9-5.3
		c7.6-2.9,15.9-6,23.8-9.2c13.3-5.4,24.6-10.6,32.5-15c8.3-4.6,13.4-8.6,16.5-11.1l3.8-3.3c1.7-1.5,3-2.6,4.3-3.6
		c3-1.9,3.2-2.1,3.4-2.5c0.5-1,1.2-3.3,1.6-5c0.4-1.5,0.8-3,1.2-4.1c0.8-2.4,1.9-4.2,2.9-5.5v-8.3c-1.9-2-4.4-4.8-6.2-8.6
		c-2.1-4.6-3-10-3.5-12.8c0,0,0-0.1,0-0.1c-2-2.1-4.9-5.4-7.5-10.3c-2.8-5.3-5.3-12.5-7.7-19.4c-3-8.9-5.5-16.1-6.4-20.9
		c-1.5-7.5,0.8-11.5,3.6-13.5c-0.4-4-0.8-10.3-0.7-19.7c0.2-19.8,2.6-35.8,7.3-47.6c5.7-14.6,16.2-26.6,30.4-34.5
		c11.8-6.6,25.8-10.2,40.4-10.4c13.9-0.5,26.8,2.7,39.8,8.6c16.8,7.6,28,18.1,34.4,32c5.6,12.1,8.4,29.3,8.6,50.9
		c0,7.2-0.3,12.4-0.6,16.1c1.1,0.5,2.1,1.2,2.8,1.9c2.8,2.9,2.9,6.6,2.8,9.2c-0.1,2.6-0.8,6.7-1.7,11.3l-1,5.7
		c-0.8,4.4-1.6,8.9-2.4,12.6c-1.2,4.9-2.6,8.6-4.6,12.6c-1.9,3.6-4.2,7.3-5.9,9.6c-1.8,2.3-1.9,2.5-2.3,3.5c-0.5,1.4-1,3.5-1.5,5.6
		c-0.5,1.9-0.9,3.8-1.4,5.5c-1.2,4.4-2.7,7.9-4.4,10.7c-1,1.5-2,2.8-2.9,3.7l-0.4,9.3c1.1,1.1,2.3,2.5,3.4,4.5
		c0.7,1.4,1.4,3.1,2,4.9c0.4,1.1,0.9,2.7,1.2,3.2c2.2,1.6,3.3,2.3,4.5,3.3c1.1,0.9,2.3,2,3.7,3.3c2.1,2,4.6,4.4,7.8,6.7
		c5.1,3.8,11.9,7.5,21.5,11.5c8.6,3.7,19.7,7.7,30.8,11.9l7.8,2.9c17.6,6.6,28.4,10.9,35,14c9.1,4.3,12.4,7.8,15.4,16.2
		c2.8,7.7,6,20,8.1,29c2.8,11.4,5.4,23.8,8,36.1c0.9,4.3-1.8,8.5-6.1,9.4C686.9,521.3,686.4,521.4,685.8,521.4z M540.9,361.7
		c0.1,0,0.2,0.1,0.2,0.1C541,361.8,540.9,361.7,540.9,361.7z"/>
</g>
</svg>
