<svg xmlns="http://www.w3.org/2000/svg" width="30" height="30" fill="#24d67e" image-rendering="optimizeQuality" shape-rendering="geometricPrecision" viewBox="0 0 5.5 5.5"><path d="M2.75 4.44a1.676 1.676 0 0 0 1.69-1.69c0-.46-.2-.9-.5-1.2a1.71 1.71 0 0 0-1.2-.5 1.66 1.66 0 0 0-1.19.5 1.66 1.66 0 0 0-.5 1.19 1.71 1.71 0 0 0 1.7 1.7zm1.38-.3c-.35.36-.84.58-1.38.58s-1.03-.22-1.38-.58A1.95 1.95 0 0 1 .8 2.75a1.95 1.95 0 0 1 3.33-1.38c.36.35.58.84.58 1.38s-.22 1.03-.58 1.38zM2.6 3.48c-.1-.01-.2-.03-.25-.05a.535.535 0 0 1-.13-.06.055.055 0 0 1-.03-.05l.08-.2c0-.01.01-.02.02-.02.02-.01.03-.01.04 0l.16.06a1.22 1.22 0 0 0 .26.03c.1 0 .17-.01.2-.04S3 3.08 3 3.03c0-.03 0-.05-.02-.08a.17.17 0 0 0-.06-.06c-.03-.02-.07-.03-.1-.05s-.1-.04-.15-.06l-.16-.06-.14-.1a.449.449 0 0 1-.11-.13.484.484 0 0 1-.03-.18c0-.06 0-.1.02-.16a.61.61 0 0 1 .07-.14.69.69 0 0 1 .13-.11.75.75 0 0 1 .16-.05c.02-.01.03-.03.03-.05v-.2c0-.02.02-.04.05-.04h.22c.03 0 .05.02.05.04v.18c0 .02.01.04.04.04.07.01.13.02.18.04l.1.03c.02.01.03.03.03.05l-.06.22c0 .01-.01.02-.02.03H3.2c-.05-.02-.1-.03-.15-.04a.852.852 0 0 0-.23-.03c-.08 0-.13.02-.17.04-.03.03-.05.06-.05.1a.17.17 0 0 0 .01.07c.02.01.03.03.06.05.02.01.05.03.08.04a.61.61 0 0 1 .12.05h.01a1.19 1.19 0 0 1 .2.08l.16.1a.36.36 0 0 1 .1.15.49.49 0 0 1 .04.19.4.4 0 0 1-.03.15.33.33 0 0 1-.07.13c-.04.04-.08.08-.14.1a1.07 1.07 0 0 1-.17.06c-.02 0-.03.02-.03.04v.22c0 .03-.02.05-.05.05h-.2c-.03 0-.05-.02-.05-.05v-.2c0-.02-.01-.04-.04-.04z"></path></svg>