<svg width="92" height="92" viewBox="0 0 92 92" fill="none" xmlns="http://www.w3.org/2000/svg">
<path d="M25.2999 30.1558H25.4277L25.2999 30.2835V30.1558Z" fill="#D5E8F2"/>
<path d="M60.1834 30.1558V30.4113L59.9279 30.1558H60.1834Z" fill="#D5E8F2"/>
<path d="M75.5167 36.6723L68.7445 42.8057C67.9778 43.5723 66.8278 43.5723 66.0612 42.8057L63.3778 40.3779C63.1223 40.1223 62.6112 40.3779 62.6112 40.7612V53.6668H48.1723C45.7445 53.6668 43.7001 55.7112 43.7001 58.139C43.7001 59.8001 44.5945 61.2057 45.8723 61.9723C44.5945 62.739 43.7001 64.1446 43.7001 65.8057C43.7001 67.4668 44.5945 68.8723 45.8723 69.639C44.7223 70.2779 43.9556 71.4279 43.7001 72.8334H30.6667C29.2612 72.8334 28.1112 71.6834 28.1112 70.2779V40.6334C28.1112 40.2501 27.6001 39.9946 27.3445 40.2501L24.6612 42.6779C23.8945 43.4446 22.7445 43.4446 21.9778 42.6779L15.2056 36.5446C14.4389 35.7779 14.4389 34.5001 15.2056 33.7334L24.0223 24.1501C26.5778 21.339 30.1556 19.8057 33.7334 19.8057H36.9278C37.4389 19.8057 37.9501 20.189 38.3334 20.7001C39.8667 23.1279 42.4223 24.789 45.3612 24.789C48.3001 24.789 50.8556 23.1279 52.3889 20.7001C52.6445 20.189 53.1556 19.8057 53.7945 19.8057H57.1167C60.8223 19.8057 64.2723 21.339 66.8278 24.1501L75.6445 33.7334C76.2834 34.6279 76.2834 35.9057 75.5167 36.6723Z" fill="#3ECF8E"/>
<path d="M73.4723 73.4723C73.4723 74.4945 72.5778 75.389 71.5556 75.389H48.1723C47.15 75.389 46.2556 74.4945 46.2556 73.4723C46.2556 73.2168 46.2556 73.089 46.3834 72.8334C46.6389 72.0668 47.4056 71.5557 48.1723 71.5557H71.5556C72.7056 71.5557 73.4723 72.4501 73.4723 73.4723Z" fill="#3ECF8E" fill-opacity="0.5"/>
<path d="M73.4723 65.8056C73.4723 66.8278 72.5778 67.7223 71.5556 67.7223H48.1723C47.15 67.7223 46.2556 66.8278 46.2556 65.8056C46.2556 64.7834 47.15 63.8889 48.1723 63.8889H71.5556C72.7056 63.8889 73.4723 64.7834 73.4723 65.8056Z" fill="#3ECF8E" fill-opacity="0.5"/>
<path d="M74.1112 58.1391C74.1112 59.1613 73.2167 60.0557 72.1945 60.0557H48.1723C47.15 60.0557 46.2556 59.1613 46.2556 58.1391C46.2556 57.1169 47.15 56.2224 48.1723 56.2224H72.1945C73.2167 56.2224 74.1112 57.1169 74.1112 58.1391Z" fill="#3ECF8E" fill-opacity="0.5"/>
</svg>
