<svg width="114" height="114" viewBox="0 0 114 114" fill="none" xmlns="http://www.w3.org/2000/svg">
<circle cx="55.5" cy="54.5" r="52.5" fill="#F5F4F9"/>
<path d="M90.0955 50.4616L90.0382 59.8162C90.0348 60.3665 90.0314 60.9168 89.8378 61.466C89.0575 64.58 85.9982 66.9476 82.573 66.9287L42.4214 66.7065C38.9961 66.6875 35.966 64.2862 35.224 61.1638C35.037 60.6124 35.0404 60.0622 35.0438 59.5119L35.1011 50.1573C35.1393 43.9209 39.168 38.6237 45.0805 36.4553C46.7965 35.9145 48.5114 35.5571 50.4143 35.5676L75.1523 35.7045C77.0552 35.7151 78.7655 36.0914 80.4748 36.6511C86.1701 38.8838 90.1336 44.2252 90.0955 50.4616Z" fill="#3ECF8E"/>
<path d="M78.7298 15.7672C78.7095 19.0688 77.7551 21.9984 75.8665 24.556C73.0314 28.7592 68.1462 31.3002 62.7149 31.2701C57.2835 31.2401 52.4309 28.4618 49.6463 24.4109C47.9764 21.8336 46.8707 18.8926 46.8909 15.591C46.8965 14.6739 46.9022 13.7568 47.0951 12.8407C48.451 5.511 55.0398 0.0445657 62.9058 0.088095C70.7719 0.131624 77.2932 5.67061 78.5593 13.0148C78.741 13.933 78.7354 14.8501 78.7298 15.7672Z" fill="#3ECF8E"/>
<path d="M31.2828 87.7186V93.0445C31.2828 93.3578 31.2828 93.6711 31.1746 93.9844C30.7416 95.7597 29.0097 97.1172 27.0613 97.1172H4.22156C2.27315 97.1172 0.541224 95.7597 0.108243 93.9844C-1.6533e-06 93.6711 0 93.3578 0 93.0445V87.7186C0 84.168 2.27315 81.1396 5.62875 79.8864C6.60295 79.5731 7.57716 79.3643 8.65961 79.3643H22.7315C23.8139 79.3643 24.7881 79.5731 25.7623 79.8864C29.0097 81.1396 31.2828 84.168 31.2828 87.7186Z" fill="#DADCE0"/>
<path d="M24.697 67.8765C24.697 69.7562 24.1643 71.4271 23.0989 72.8891C21.5009 75.291 18.731 76.753 15.6414 76.753C12.5519 76.753 9.78194 75.1866 8.1839 72.8891C7.22508 71.4271 6.58586 69.7562 6.58586 67.8765C6.58586 67.3543 6.58586 66.8322 6.6924 66.3101C7.43815 62.1329 11.1669 59 15.6414 59C20.1159 59 23.8447 62.1329 24.5904 66.3101C24.697 66.8322 24.697 67.3543 24.697 67.8765Z" fill="#DADCE0"/>
<path d="M76 104.705V109.472C76 109.752 76 110.033 75.9031 110.313C75.5155 111.902 73.9654 113.117 72.2214 113.117H51.7785C50.0346 113.117 48.4844 111.902 48.0969 110.313C48 110.033 48 109.752 48 109.472V104.705C48 101.527 50.0346 98.816 53.0381 97.6944C53.91 97.414 54.782 97.2271 55.7509 97.2271H68.346C69.3149 97.2271 70.1868 97.414 71.0588 97.6944C73.9654 98.816 76 101.527 76 104.705Z" fill="#DADCE0"/>
<path d="M70.1052 86.945C70.1052 88.6275 69.6285 90.123 68.6749 91.4316C67.2446 93.5814 64.7653 94.89 62 94.89C59.2347 94.89 56.7554 93.4879 55.3251 91.4316C54.4669 90.123 53.8947 88.6275 53.8947 86.945C53.8947 86.4776 53.8947 86.0103 53.9901 85.5429C54.6576 81.8041 57.995 79 62 79C66.0049 79 69.3424 81.8041 70.0099 85.5429C70.1052 86.0103 70.1052 86.4776 70.1052 86.945Z" fill="#DADCE0"/>
<path d="M114 88.0325V92.1185C114 92.3588 114 92.5992 113.917 92.8395C113.585 94.2015 112.256 95.243 110.761 95.243H93.2388C91.7439 95.243 90.4152 94.2015 90.083 92.8395C90 92.5992 90 92.3588 90 92.1185V88.0325C90 85.3085 91.7439 82.985 94.3183 82.0236C95.0657 81.7833 95.8132 81.623 96.6436 81.623H107.439C108.27 81.623 109.017 81.7833 109.765 82.0236C112.256 82.985 114 85.3085 114 88.0325Z" fill="#DADCE0"/>
<path d="M108.947 72.81C108.947 74.2521 108.539 75.534 107.721 76.6556C106.495 78.4983 104.37 79.62 102 79.62C99.6297 79.62 97.5047 78.4182 96.2786 76.6556C95.543 75.534 95.0526 74.2521 95.0526 72.81C95.0526 72.4094 95.0526 72.0088 95.1344 71.6082C95.7065 68.4035 98.5672 66 102 66C105.433 66 108.294 68.4035 108.866 71.6082C108.947 72.0088 108.947 72.4094 108.947 72.81Z" fill="#DADCE0"/>
<path d="M61.7057 41.5353C62.0196 40.6349 63.2954 40.642 63.5982 41.5457L65.352 46.78C65.4878 47.1854 65.8665 47.4594 66.2941 47.4618L71.9609 47.4932C72.9418 47.4986 73.3285 48.7661 72.518 49.3191L68.0031 52.3992C67.6332 52.6516 67.4759 53.1189 67.6181 53.5434L69.3246 58.6364C69.6309 59.5505 68.5932 60.3266 67.8031 59.7742L63.1286 56.5063C62.788 56.2682 62.3355 56.2656 61.9921 56.5L57.2779 59.716C56.4811 60.2596 55.4529 59.4721 55.7704 58.5614L57.5391 53.4876C57.6865 53.0648 57.535 52.5957 57.1682 52.3392L52.6914 49.2094C51.8876 48.6475 52.2898 47.3843 53.2708 47.3897L58.9376 47.4211C59.3652 47.4235 59.7472 47.1537 59.8879 46.7498L61.7057 41.5353Z" fill="#F5F4F9"/>
</svg>
