<svg xmlns="http://www.w3.org/2000/svg" width="30" height="30" fill="#ffab00" image-rendering="optimizeQuality" shape-rendering="geometricPrecision" viewBox="0 0 3.75 3.75"><path d="M1.26 2.88h1.19a.337.337 0 0 1-.05-.17c0-.06.02-.11.05-.16H1.26a.16.16 0 0 0-.11.05.16.16 0 0 0-.05.11c0 .05.02.09.05.12s.07.05.11.05zm1.47.17H1.26a.31.31 0 0 1-.24-.1.331.331 0 0 1-.1-.24.35.35 0 0 1 .1-.24.35.35 0 0 1 .24-.1h1.48c.04 0 .08.04.08.09.01.04-.03.09-.08.09a.16.16 0 0 0-.11.05.16.16 0 0 0-.05.11c0 .05.02.09.05.11.03.03.07.05.11.06.05 0 .08.04.08.08.01.05-.03.09-.08.09h-.01z"></path><path d="M2.83 2.15a.09.09 0 0 1-.18 0V.87H1.29c-.05 0-.09.02-.13.06a.19.19 0 0 0-.05.13v1.58a.09.09 0 0 1-.18 0V1.06a.4.4 0 0 1 .1-.26h.01c.06-.07.15-.11.25-.11h1.45a.09.09 0 0 1 .09.09v1.37z"></path></svg>