<svg xmlns="http://www.w3.org/2000/svg" viewBox="0 0 1000 1000"><path fill="none" d="M0 0h1000v1000H0z"></path><g fill="#00AFB2"><path d="M500.2 529.3c-3.9 0-7.1-3.2-7.1-7.1V179.6c0-3.9 3.2-7.1 7.1-7.1s7.1 3.2 7.1 7.1v342.6c0 3.9-3.1 7.1-7.1 7.1z"></path><path d="M501.5 538.9c-1.6 0-3.1-.5-4.4-1.6-3.1-2.4-3.6-6.9-1.1-10l83.6-104.8c2.5-3.1 6.9-3.5 10-1.1 3.1 2.4 3.6 6.9 1.1 10L507 536.2c-1.4 1.8-3.5 2.7-5.5 2.7z"></path><path d="M498.6 538.9c-2.1 0-4.1-.9-5.5-2.7l-83.6-104.8c-2.4-3.1-1.9-7.5 1.1-10 3-2.4 7.5-1.9 10 1.1l83.6 104.8c2.4 3.1 1.9 7.5-1.1 10-1.4 1.1-3 1.6-4.5 1.6z"></path><path d="M899.3 827.5H100.4c-9.3 0-17.9-3.8-24.2-10.6-6.9-7.4-10.3-17.9-9.5-28.6l31.9-403.1c1.5-18.4 17.5-33.4 35.8-33.4h306.4c3.9 0 7.1 3.2 7.1 7.1s-3.2 7.1-7.1 7.1H134.5c-10.9 0-20.8 9.3-21.7 20.4l-31.9 403c-.5 6.8 1.6 13.4 5.7 17.9 3.6 3.9 8.5 6 13.8 6h798.9c5.4 0 10.3-2.2 14-6.2 4.2-4.5 6.3-11 5.8-17.8l-30.8-403.1c-.8-11-10.8-20.3-21.9-20.3H549.2c-3.9 0-7.1-3.2-7.1-7.1s3.2-7.1 7.1-7.1h317.3c18.4 0 34.6 15 36 33.5l30.8 403.1c.8 10.7-2.7 21-9.5 28.5-6.5 6.9-15.1 10.7-24.5 10.7z"></path><path d="M901 587.5H99.5c-3.9 0-7.1-3.2-7.1-7.1s3.2-7.1 7.1-7.1H901c3.9 0 7.1 3.2 7.1 7.1s-3.2 7.1-7.1 7.1zM280.1 753H143.2c-3.9 0-7.1-3.2-7.1-7.1s3.2-7.1 7.1-7.1h136.9c3.9 0 7.1 3.2 7.1 7.1s-3.1 7.1-7.1 7.1zm187.4 0h-137c-3.9 0-7.1-3.2-7.1-7.1s3.2-7.1 7.1-7.1h137c3.9 0 7.1 3.2 7.1 7.1s-3.2 7.1-7.1 7.1zm216 28.5c-45.8 0-83.8-39.4-84.6-87.9-.5-23.9 8.1-46 24.1-62.3 14.8-15.1 34.5-23.4 55.4-23.4 44.4 0 82.3 38.3 84.5 85.3 1.1 24.1-7.4 47.5-23.3 64.2-14.9 15.5-34.8 24.1-56.1 24.1zm-5.1-159.4c-17 0-33.1 6.8-45.2 19.2-13.3 13.6-20.5 32.1-20.1 52.1.7 40.8 32.4 73.9 70.5 73.9 17.4 0 33.7-7 45.8-19.7 13.3-13.9 20.3-33.5 19.4-53.8-1.9-39.5-33.5-71.7-70.4-71.7z"></path><path d="M784.9 781.5c-45.7 0-84.4-39.4-86.2-87.7-.9-23.9 7.3-46.1 23.1-62.4 14.6-15.1 34.1-23.4 55-23.4 44.4 0 83 38.2 86 85.1 1.6 24.1-6.5 47.6-22.2 64.3-14.5 15.5-34.3 24.1-55.7 24.1zm-8.1-159.4c-17 0-32.9 6.8-44.8 19.1-13.1 13.5-19.8 32-19.1 52.1 1.5 40.8 33.8 74.1 72 74.1 17.4 0 33.5-7 45.4-19.7 13-13.9 19.7-33.4 18.4-53.7-2.6-39.6-34.8-71.9-71.9-71.9z"></path></g></svg>