<svg xmlns="http://www.w3.org/2000/svg" xml:space="preserve" viewBox="0 0 1000 1000"><path fill="none" d="M0 0h1000v1000H0z"></path><g fill="#00AFB2"><path d="M891.3 814H108.8c-7.2 0-13.6-3.3-17.3-8.9-4-6.1-4-13.4 0-19.5l391.3-590.9c7.5-11.4 27.1-11.4 34.6 0l391.3 590.9c4 6.2 4 13.5 0 19.6-3.8 5.5-10.1 8.8-17.4 8.8zM500 201.5c-1.3 0-3.1.3-4.1 1.8L104.7 794.2c-.5.8-.5 1.3 0 2 1 1.5 2.8 1.9 4.1 1.9h782.5c1.1 0 3-.2 4-1.8.5-.8.5-1.3 0-2.1L504.1 203.3c-1-1.5-2.8-1.8-4.1-1.8z"></path><path d="M827.4 701.2H169.9c-4.4 0-7.9-3.6-7.9-7.9s3.6-7.9 7.9-7.9h657.6c4.4 0 7.9 3.6 7.9 7.9s-3.6 7.9-8 7.9zM751.7 584.2H245.6c-4.4 0-7.9-3.6-7.9-7.9s3.6-7.9 7.9-7.9h506.2c4.4 0 7.9 3.6 7.9 7.9s-3.6 7.9-8 7.9zM498.2 528.2c-4.4 0-7.9-3.6-7.9-7.9V338.5c0-4.4 3.6-7.9 7.9-7.9s7.9 3.6 7.9 7.9v181.9c.1 4.3-3.5 7.8-7.9 7.8z"></path><path d="M444.6 417.4c-1.6 0-3.1-.4-4.5-1.4-3.6-2.5-4.5-7.4-2.1-11l53-77.1c2.5-3.6 7.5-4.5 11-2.1 3.6 2.5 4.5 7.4 2.1 11l-53 77.1c-1.4 2.3-3.9 3.5-6.5 3.5z"></path><path d="M552.4 417.4c-2.5 0-5-1.2-6.5-3.4l-53-77.1c-2.5-3.6-1.6-8.5 2.1-11 3.6-2.5 8.5-1.6 11 2.1l53 77.1c2.5 3.6 1.6 8.5-2.1 11-1.3.9-2.9 1.3-4.5 1.3z"></path></g></svg>