<svg xmlns="http://www.w3.org/2000/svg" viewBox="0 0 1000 1000"><path fill="none" d="M0 0h1000v1000H0z"></path><g fill="#00AFB2"><path d="M218.8 772.2c-22.9 0-44.2-15-51-38.1l-99-334.7c-4-13.6-2.5-27.9 4.3-40.4s18-21.6 31.6-25.6L644 173.9c28.1-8.3 57.7 7.8 66 35.9L760.4 380l-13.6 4-50.4-170.2c-6.1-20.6-27.8-32.4-48.4-26.3L108.7 347c-9.9 2.9-18.1 9.6-23.1 18.8-5 9.2-6.1 19.7-3.2 29.6l99 334.7c6.1 20.6 27.8 32.4 48.4 26.3l38.8-11.4 4 13.6-38.8 11.4c-5 1.5-10.1 2.2-15 2.2z"></path><path d="m377.3 386.4-4-13.6 345-102.1 4 13.6zM99.1 468.6l-4-13.6 178.1-52.6 4 13.6zm25.986 87.53 142.964-42.686 4.062 13.606-142.963 42.686z"></path><path d="M880.4 828.3H318c-29.3 0-53.1-23.8-53.1-53.1v-349c0-29.3 23.8-53.1 53.1-53.1h562.4c29.3 0 53.1 23.8 53.1 53.1v349c0 29.2-23.8 53.1-53.1 53.1zM318 387.1c-21.5 0-39 17.5-39 39v349c0 21.5 17.5 39 39 39h562.4c21.5 0 39-17.5 39-39v-349c0-21.5-17.5-39-39-39H318z"></path><path d="M274.4 486.9h649.9v14.2H274.4zm0 105.4h650.7v14.2H274.4zm167.2 95.4h-80c-3.9 0-7.1-3.2-7.1-7.1s3.2-7.1 7.1-7.1h80c3.9 0 7.1 3.2 7.1 7.1s-3.2 7.1-7.1 7.1zm73.9 47.2H361.6c-3.9 0-7.1-3.2-7.1-7.1s3.2-7.1 7.1-7.1h153.9c3.9 0 7.1 3.2 7.1 7.1s-3.2 7.1-7.1 7.1zM694.7 664h19.8l-12.4 72.7h-19.8l12.4-72.7zm-8.1 0-31.2 72.6h-21L616.7 676c12.8 8.2 23.6 21.1 27.5 30.2l2.1 7.5 19.4-49.6 20.9-.1zm-89.6.8.3-1.5H628c4.1.2 7.5 1.5 8.6 5.9l6.7 32.2c-6.6-16.8-22.4-30.8-46.3-36.6zm174.1 48.1c-.1 15.1-13.7 24.8-34.5 24.8-8.9-.1-17.4-1.8-22.1-3.9l2.8-16.3 2.6 1.2c6.5 2.7 10.7 3.8 18.7 3.8 5.7 0 11.8-2.2 11.9-7.1 0-3.2-2.6-5.5-10.3-9-7.5-3.5-17.5-9.3-17.3-19.8.1-14.1 13.9-24 33.5-24 7.7 0 13.8 1.6 17.8 3.1l-2.7 15.8-1.8-.8c-3.7-1.5-8.3-2.9-14.8-2.8-7.8 0-11.3 3.2-11.3 6.2-.1 3.4 4.2 5.7 11.1 9 11.2 5.2 16.5 11.6 16.4 19.8zm29.3-2c1.6-4.2 7.9-20.3 7.9-20.3-.1.2 1.6-4.2 2.6-6.9l1.3 6.3s3.8 17.4 4.6 21h-16.4zm24.5-46.9h-15.3c-4.8 0-8.3 1.3-10.4 6l-29.5 66.7h20.8s3.4-9 4.2-10.9h25.4c.6 2.5 2.4 10.9 2.4 10.9h18.4l-16-72.7z"></path></g></svg>