<svg xmlns="http://www.w3.org/2000/svg" width="30" height="30" fill-rule="evenodd" image-rendering="optimizeQuality" shape-rendering="geometricPrecision" viewBox="0 0 2.22 2.22"><path fill="none" stroke="#24d67e" stroke-linecap="round" stroke-linejoin="round" stroke-miterlimit="22.926" stroke-width="0.11" d="m1.03.79.34.32-.34.32m.31-.32H.43"></path><path fill="#24d67e" fill-rule="nonzero" d="M.43 1.32c0-.03.03-.05.06-.05s.05.02.05.05v.35h1.13V.54H.54v.34C.54.91.52.93.49.93S.43.91.43.88V.49C.43.46.46.44.49.44h1.23c.03 0 .05.02.05.05v1.24c0 .02-.02.05-.05.05H.49c-.03 0-.06-.03-.06-.05v-.41z"></path></svg>