<svg xmlns="http://www.w3.org/2000/svg" id="free-margin_svg__Layer_1" viewBox="0 0 1000 1000"><style>.free-margin_svg__st0{fill:#5dd2d2}</style><path d="M500 483.8c-4.3 0-7.8-3.5-7.8-7.8v-34.4c0-4.3 3.5-7.8 7.8-7.8s7.8 3.5 7.8 7.8V476c0 4.3-3.5 7.8-7.8 7.8zm0 267.8c-4.4 0-8-3.6-8-8v-35.2c0-4.4 3.6-8 8-8s8 3.6 8 8v35.2c0 4.4-3.6 8-8 8z" class="free-margin_svg__st0"></path><path d="M508.7 591.7h-16.8c-32.9 0-59.7-26.8-59.7-59.7 0-32.9 26.8-59.7 59.7-59.7h28.6c17.4 0 34 7.6 45.5 21 2.8 3.3 2.4 8.2-.9 11-3.3 2.8-8.2 2.4-11-.9-8.4-9.9-20.6-15.5-33.5-15.5H492c-24.3 0-44.1 19.7-44.1 44.1s19.7 44.1 44.1 44.1h16.8c4.3 0 7.8 3.5 7.8 7.8s-3.5 7.8-7.9 7.8z" class="free-margin_svg__st0"></path><path d="M509 707.7h-32c-19.3 0-37.4-8.4-50.1-23.2-2.8-3.3-2.4-8.2.9-11 3.3-2.8 8.2-2.4 11 .9 9.6 11.2 23.5 17.7 38.1 17.7h32c27.7 0 50.2-22.5 50.2-50.2s-22.5-50.2-50.2-50.2h-18.8c-4.3 0-7.8-3.5-7.8-7.8s3.5-7.8 7.8-7.8H509c36.3 0 65.9 29.5 65.9 65.9 0 36.2-29.5 65.7-65.9 65.7z" class="free-margin_svg__st0"></path><path d="M502.2 838.3c-45.3 0-90.3-9.7-128-28.4-31.7-15.8-60-38.8-81.9-66.6-21.8-27.6-35.8-57.8-40.3-87.4-10.1-65.9 28.5-127.6 58.4-168.2 24.6-33.4 52.7-64.7 75.3-89.9 11.6-12.9 21.6-24 29.1-33.2 22.2-27.2 18.9-32.5 14.7-39.3-6.3-10-19.4-22.7-37.7-36.6-8.3-6.4-17.7-12.8-25.9-18.5-9.8-6.7-18.2-12.6-23.8-17.3-5.5-4.6-10.4-9.7-9.4-16.4 1.1-7.1 7.9-10.6 15-13.6 12.7-5.4 46.6-15.8 69.6-23 4.1-1.3 8.5 1 9.8 5.2 1.3 4.1-1 8.5-5.2 9.8-22.6 7-56.1 17.4-68.1 22.5-1.6.7-2.8 1.3-3.7 1.7.6.5 1.3 1.1 2.1 1.9 5 4.2 13.6 10.2 22.7 16.4 8.3 5.8 17.8 12.3 26.4 18.9 20.1 15.3 34.1 28.9 41.5 40.8 10.3 16.4 6.5 30.4-15.7 57.5-7.7 9.4-17.9 20.7-29.6 33.7-22.6 24.7-50.4 55.7-74.5 88.5-28.3 38.4-64.7 96.5-55.5 156.6 8.4 55.3 54.2 112.5 113.7 142.3 58 28.9 134.9 35 201 15.6C641.4 794 690.1 756.2 716 707.7c25.6-48.2 24.3-99.6-3.8-152.9-28.4-53.5-86-112.1-120.5-147.1-2.5-2.5-4.9-5-7.2-7.3-34.8-35.5-41.6-44.4-45.7-54.9-4.1-10.7-5.6-24 14.7-42 11.7-10.5 31.4-23.3 48.7-34.6 8.3-5.4 16.1-10.6 22.1-14.8 8-5.7 11-8.6 12.2-10.2-.6-.5-1.7-1.3-3.4-2.2-11.9-6.6-33.3-13.3-60-21.7-4.1-1.3-6.4-5.7-5.1-9.8 1.3-4.1 5.7-6.4 9.8-5.1 28.6 9.1 49.5 15.6 62.9 23 5.4 3 11.5 7.3 11.9 14.8.4 8.3-6.5 14.9-19.4 24-6.2 4.4-14.2 9.6-22.6 15.1-16.8 10.9-35.9 23.5-46.8 33.1-14.9 13.3-12.6 19.4-10.6 24.7 2.8 7.3 7.9 14.7 42.2 49.7 2.2 2.3 4.7 4.8 7.1 7.3 35.1 35.6 93.9 95.2 123.2 150.8 15.5 29.4 23.6 59 23.9 87.7.3 27.4-6.6 54.3-20.1 79.8-27.8 52.3-80 92.9-143.2 111.4-26.7 8-55.5 11.8-84.1 11.8zm135.1-593.4z" class="free-margin_svg__st0"></path><path d="M550.8 282.1c-1 0-2.1-.2-3-.6-4-1.7-5.9-6.3-4.2-10.3 13.2-31.3 26.9-63.5 30.8-80.1 1.5-6.4.9-7.7.8-7.9-2-2.3-18-3.4-23.3-3.7-25.8-1.7-77.3-3.2-105.9-1.4-16.1 1.1-19.9 3.1-20.8 4.3-.3.4-1.1 2.3 1.2 10.4 4.8 17.3 19 48.2 32.6 78.2 1.8 3.9.1 8.6-3.9 10.4-3.9 1.8-8.6.1-10.4-3.9-14.6-31.9-28.3-62-33.4-80.5-2.2-8.2-3.7-16.7 1.2-23.7 5.5-7.6 16.5-9.9 32.6-10.9 29.2-2 81.6-.3 107.9 1.4 17.9 1.2 29.2 2.3 34.9 10.1 4.5 6.1 3.4 14 1.9 20.8-4.2 17.8-17.5 49.3-31.6 82.6-1.5 3.1-4.4 4.8-7.4 4.8zm6.2 59.7H427.4c-4.3 0-7.8-3.5-7.8-7.8s3.5-7.8 7.8-7.8H557c4.3 0 7.8 3.5 7.8 7.8s-3.5 7.8-7.8 7.8z" class="free-margin_svg__st0"></path><path fill="none" d="M0 0h1000v1000H0z"></path></svg>