<svg xmlns="http://www.w3.org/2000/svg" id="passive-service_svg__Layer_1" viewBox="0 0 1000 1000"><style>.passive-service_svg__st0{fill:#5dd2d2}</style><path d="M500 556.6c-2.1 0-4.2-.9-5.7-2.4l-225-228.9c-2.3-2.3-2.9-5.7-1.7-8.7 1.2-3 4.2-4.9 7.4-4.9h263.8c4.4 0 8 3.6 8 8s-3.6 8-8 8H294.1L500 537.2l205.9-209.5H597c-4.4 0-8-3.6-8-8s3.6-8 8-8h128c3.2 0 6.1 1.9 7.4 4.9 1.2 3 .6 6.4-1.7 8.7l-225 228.9c-1.5 1.5-3.6 2.4-5.7 2.4z" class="passive-service_svg__st0"></path><path d="M500 779c-4.4 0-8-3.6-8-8V548.6c0-4.4 3.6-8 8-8s8 3.6 8 8V771c0 4.4-3.6 8-8 8z" class="passive-service_svg__st0"></path><path d="M648.1 832h-295c-2.4 0-4.7-1.1-6.2-3s-2.1-4.4-1.6-6.8c7.7-34.3 73-59.3 155.3-59.3 82.3 0 147.6 24.9 155.3 59.3.5 2.4 0 4.9-1.6 6.7-1.4 2-3.7 3.1-6.2 3.1zm-281.9-16h268.9c-16.1-19.2-66.2-37-134.5-37s-118.3 17.8-134.4 37zm176.5-417.2c-28.6 0-49.4-12.1-49.4-28.7 0-4.4 3.6-8 8-8s8 3.6 8 8c0 5.3 12.7 12.7 33.4 12.7 20.2 0 33.8-7.5 34.6-12.9.7-4.4 4.8-7.3 9.2-6.6 4.4.7 7.3 4.8 6.6 9.2-2.4 15.3-23.6 26.3-50.4 26.3z" class="passive-service_svg__st0"></path><path d="M458 399.5c-28.9 0-50.7-12.6-50.7-29.3 0-.7 0-1.4.1-2 .5-4.4 4.4-7.6 8.8-7.1s7.6 4.4 7.1 8.8v.3c0 5.3 13.8 13.3 34.7 13.3s34.7-8 34.7-13.3c0-4.4 3.6-8 8-8s8 3.6 8 8c-.1 16.7-21.8 29.3-50.7 29.3z" class="passive-service_svg__st0"></path><path d="M423.3 370.2h-16v-.4l15.9-2c.1.8.1 1.6.1 2.4z" class="passive-service_svg__st0"></path><path d="M372.6 399.5c-18.2 0-31.1-3.4-39.4-10.3-3.4-2.8-3.9-7.9-1-11.3 2.8-3.4 7.9-3.9 11.3-1 3.6 3 11.6 6.6 29.1 6.6 20.8 0 34.7-8 34.7-13.3 0-4.4 3.6-8 8-8s8 3.6 8 8c0 16.7-21.8 29.3-50.7 29.3zm254.8 0c-28.5 0-50-12.6-50-29.3 0-4.4 3.6-8 8-8s8 3.6 8 8c0 5.3 13.6 13.3 34 13.3 21.4 0 29.5-5.7 33.8-9.9 3.1-3.1 8.2-3.1 11.3 0 3.1 3.1 3.1 8.2 0 11.3-10 9.9-24.3 14.6-45.1 14.6zm-16-175.6 28.3-61.9m-28.3 69.9c-1.1 0-2.2-.2-3.3-.7-4-1.8-5.8-6.6-4-10.6l28.2-62c1.8-4 6.6-5.8 10.6-4 4 1.8 5.8 6.6 4 10.6l-28.2 62c-1.3 3-4.2 4.7-7.3 4.7zm-74.8 156.3 45.7-100.3m-45.7 108.3c-1.1 0-2.2-.2-3.3-.7-4-1.8-5.8-6.6-4-10.6L575 284.6c1.8-4 6.6-5.8 10.6-4 4 1.8 5.8 6.6 4 10.6l-45.7 100.3c-1.4 3-4.3 4.7-7.3 4.7z" class="passive-service_svg__st0"></path><path d="M597 298c-22.9 0-41.6-18.7-41.6-41.6s18.7-41.6 41.6-41.6c5.6 0 11.1 1.1 16.2 3.3 15.4 6.5 25.4 21.6 25.4 38.3 0 22.9-18.7 41.6-41.6 41.6zm0-67.3c-14.1 0-25.6 11.5-25.6 25.6S582.9 282 597 282c14.1 0 25.6-11.5 25.6-25.6 0-10.3-6.1-19.6-15.7-23.6-3.1-1.4-6.5-2.1-9.9-2.1z" class="passive-service_svg__st0"></path><path fill="none" d="M0 0h1000v1000H0z"></path></svg>