<svg xmlns="http://www.w3.org/2000/svg" id="proportional-profit_svg__Layer_1" viewBox="0 0 1000 1000"><style>.proportional-profit_svg__st0{fill:#5dd2d2}</style><path d="M799.6 774H200.2c-4.4 0-8-3.6-8-8s3.6-8 8-8h599.3c4.4 0 8 3.6 8 8s-3.5 8-7.9 8z" class="proportional-profit_svg__st0"></path><path d="M305.9 774h-80c-4.4 0-8-3.6-8-8V634.7c0-10.3 8.4-18.7 18.7-18.7h58.5c10.3 0 18.7 8.4 18.7 18.7V766c.1 4.4-3.5 8-7.9 8zm-72-16h64V634.7c0-1.5-1.2-2.7-2.7-2.7h-58.5c-1.5 0-2.7 1.2-2.7 2.7V758zm227.2 16h-80c-4.4 0-8-3.6-8-8V518.9c0-10 8.4-18.1 18.7-18.1h58.5c10.3 0 18.7 8.1 18.7 18.1V766c.1 4.4-3.5 8-7.9 8zm-72-16h64V518.9c0-.9-1.1-2.1-2.7-2.1h-58.5c-1.7 0-2.7 1.3-2.7 2.1V758zm227.2 16h-80c-4.4 0-8-3.6-8-8V569.6c0-10.3 8.4-18.7 18.7-18.7h58.5c10.3 0 18.7 8.4 18.7 18.7V766c.1 4.4-3.5 8-7.9 8zm-72-16h64V569.6c0-1.5-1.2-2.7-2.7-2.7h-58.5c-1.5 0-2.7 1.2-2.7 2.7V758zm227.2 16h-80c-4.4 0-8-3.6-8-8V431.1c0-10.3 8.4-18.7 18.7-18.7h58.5c10.3 0 18.7 8.4 18.7 18.7V766c.1 4.4-3.5 8-7.9 8zm-72-16h64V431.1c0-1.5-1.2-2.7-2.7-2.7h-58.5c-1.5 0-2.7 1.2-2.7 2.7V758zM265.9 537c-25.1 0-45.6-20.5-45.6-45.6s20.5-45.6 45.6-45.6 45.6 20.5 45.6 45.6-20.4 45.6-45.6 45.6zm0-75.2c-16 0-29.6 13.6-29.6 29.6s13.6 29.6 29.6 29.6c16.6 0 29.6-13 29.6-29.6s-13-29.6-29.6-29.6zm155.2-51.9c-25.1 0-45.6-20.5-45.6-45.6 0-24.7 20.9-45.6 45.6-45.6 25.1 0 45.6 20.5 45.6 45.6s-20.4 45.6-45.6 45.6zm0-75.2c-15.8 0-29.6 13.8-29.6 29.6 0 16 13.6 29.6 29.6 29.6 16.6 0 29.6-13 29.6-29.6 0-16.1-13.5-29.6-29.6-29.6zm155.2 124.7c-25.1 0-45.6-20.5-45.6-45.6s20.5-45.6 45.6-45.6 45.6 20.5 45.6 45.6c0 25.2-20.4 45.6-45.6 45.6zm0-75.2c-16 0-29.6 13.6-29.6 29.6s13.6 29.6 29.6 29.6c16.6 0 29.6-13 29.6-29.6s-13-29.6-29.6-29.6zm155.2-80c-25.1 0-45.6-20.5-45.6-45.6s20.5-45.6 45.6-45.6 45.6 20.5 45.6 45.6c0 25.2-20.4 45.6-45.6 45.6zm0-75.2c-16 0-29.6 13.6-29.6 29.6s13.6 29.6 29.6 29.6c16.6 0 29.6-13 29.6-29.6s-13-29.6-29.6-29.6z" class="proportional-profit_svg__st0"></path><path d="M297 475.5c-2.3 0-4.6-1-6.2-3-2.8-3.4-2.2-8.5 1.2-11.3l96.5-78c3.4-2.8 8.5-2.2 11.3 1.2 2.8 3.4 2.2 8.5-1.2 11.3l-96.5 78c-1.6 1.3-3.4 1.8-5.1 1.8zm309.2-81.7c-2 0-4.1-.8-5.6-2.3-3.1-3.1-3.2-8.2-.1-11.3l98.5-99.7c3.1-3.1 8.2-3.2 11.3-.1 3.1 3.1 3.2 8.2.1 11.3l-98.5 99.7c-1.6 1.6-3.7 2.4-5.7 2.4zm-64.8 15.1c-.8 0-1.6-.1-2.5-.4l-82-26.5c-4.2-1.4-6.5-5.9-5.2-10.1 1.4-4.2 5.9-6.5 10.1-5.2l82.1 26.5c4.2 1.4 6.5 5.9 5.2 10.1-1.2 3.5-4.4 5.6-7.7 5.6z" class="proportional-profit_svg__st0"></path><path fill="none" d="M0 0h1000v1000H0z"></path></svg>