<svg xmlns="http://www.w3.org/2000/svg" width="72" height="72" fill="none" viewBox="0 0 72 72"><g clip-path="url(#icon-membership-club_svg__a)"><path fill="#F0D751" d="m27.78 35.198 7.355-12.727a1 1 0 0 1 1.731 0l7.355 12.727a1 1 0 0 0 1.358.37l9.487-5.373a1 1 0 0 1 1.477 1.046l-3.395 18.935a1 1 0 0 1-.985.824H19.837a1 1 0 0 1-.985-.824l-3.395-18.935a1 1 0 0 1 1.477-1.046l9.488 5.373a1 1 0 0 0 1.358-.37Z"></path><rect width="34" height="3" x="19" y="54" fill="#F3E393" rx="1.5"></rect><circle cx="15.081" cy="25.622" r="3.486" fill="#F0D751"></circle><circle cx="36" cy="17.486" r="3.486" fill="#F0D751"></circle><circle cx="56.919" cy="25.622" r="3.486" fill="#F0D751"></circle></g><defs><clipPath id="icon-membership-club_svg__a"><path fill="#fff" d="M0 0h72v72H0z"></path></clipPath></defs></svg>