<svg width="160" height="80"><g class="visx-group" transform="translate(0, 0)"><defs><linearGradient id="TrendChart--linearGradient-:r4t:" x1="0" y1="0" x2="0" y2="1"><stop offset="0%" stop-color="#3ECF8E" stop-opacity="1"></stop><stop offset="100%" stop-color="#baeed6" stop-opacity="1"></stop></linearGradient></defs><path class="visx-linepath" d="M4,14L4.684684684684685,13.666666666666666C5.36936936936937,13.333333333333334,6.738738738738739,12.666666666666666,8.108108108108109,12.166666666666666C9.477477477477478,11.666666666666666,10.84684684684685,11.333333333333334,12.216216216216218,10.833333333333334C13.585585585585585,10.333333333333334,14.954954954954955,9.666666666666666,16.324324324324326,13.5C17.693693693693692,17.333333333333332,19.063063063063066,25.666666666666668,20.432432432432435,29C21.801801801801805,32.333333333333336,23.17117117117117,30.666666666666668,32.75675675675676,30C42.34234234234234,29.333333333333332,60.14414414414415,29.666666666666668,69.72972972972973,30.666666666666668C79.31531531531532,31.666666666666668,80.68468468468468,33.333333333333336,82.05405405405405,36.666666666666664C83.42342342342342,40,84.7927927927928,45,86.16216216216215,48.333333333333336C87.53153153153153,51.666666666666664,88.90090090090091,53.333333333333336,90.27027027027027,53.166666666666664C91.63963963963964,53,93.009009009009,51,94.37837837837839,51.333333333333336C95.74774774774774,51.666666666666664,97.11711711711712,54.333333333333336,98.4864864864865,56C99.85585585585585,57.666666666666664,101.22522522522523,58.333333333333336,102.5945945945946,57.833333333333336C103.96396396396396,57.333333333333336,105.33333333333333,55.666666666666664,106.70270270270271,55C108.07207207207206,54.333333333333336,109.44144144144144,54.666666666666664,110.81081081081082,55.666666666666664C112.18018018018019,56.666666666666664,113.54954954954955,58.333333333333336,114.91891891891892,59.5C116.2882882882883,60.666666666666664,117.65765765765765,61.333333333333336,119.02702702702703,62.333333333333336C120.39639639639641,63.333333333333336,121.76576576576576,64.66666666666667,123.13513513513514,65.33333333333333C124.50450450450451,66,125.87387387387389,66,127.24324324324324,63.5C128.61261261261262,61,129.981981981982,56,131.35135135135135,53.666666666666664C132.72072072072072,51.333333333333336,134.09009009009011,51.666666666666664,135.45945945945948,54.333333333333336C136.82882882882885,57,138.19819819819818,62,139.56756756756758,64.66666666666667C140.93693693693692,67.33333333333333,142.3063063063063,67.66666666666667,143.67567567567565,68.16666666666667C145.04504504504504,68.66666666666667,146.41441441441444,69.33333333333333,147.78378378378378,70.16666666666667C149.15315315315317,71,150.52252252252254,72,151.8918918918919,71.5C153.26126126126127,71,154.63063063063063,69,155.3153153153153,68L156,67" fill="transparent" stroke-linecap="round" id="TrendChart--linePath-:r4t:" stroke="url(#TrendChart--linearGradient-:r4t:)" stroke-width="2" stroke-linejoin="round" shape-rendering="geometricPrecision" stroke-dasharray="1" stroke-dashoffset="1" pathLength="1" style="stroke-dashoffset: 0; visibility: visible;"></path></g></svg>