<svg xmlns="http://www.w3.org/2000/svg" width="72" height="72" fill="none" viewBox="0 0 72 72"><path fill="#93E5F3" fill-rule="evenodd" d="M19 21h-1a4 4 0 0 0-4 4v35.024a4 4 0 0 0 4 4h26.658a4 4 0 0 0 4-4V59H26a7 7 0 0 1-7-7V21Z" clip-rule="evenodd"></path><path fill="#93E5F3" d="m55.116 21.866-6.982-6.982A3.018 3.018 0 0 0 46 14v8a2 2 0 0 0 2 2h8c0-.8-.318-1.568-.884-2.134Z"></path><path fill="#26CAE7" fill-rule="evenodd" d="M26 14h18v8a4 4 0 0 0 4 4h8v26a4 4 0 0 1-4 4H26a4 4 0 0 1-4-4V18a4 4 0 0 1 4-4Zm4 12a1 1 0 1 1 2 0v4.625a2 2 0 0 1 2 2v5a2 2 0 0 1-2 2V42a1 1 0 1 1-2 0v-2.375a2 2 0 0 1-2-2v-5a2 2 0 0 1 2-2V26Zm8 6a1 1 0 1 1 2 0v5a2 2 0 0 1 2 2v6a2 2 0 0 1-2 2v2a1 1 0 1 1-2 0v-2a2 2 0 0 1-2-2v-6a2 2 0 0 1 2-2v-5Zm9-4a1 1 0 0 0-1 1v3a2 2 0 0 0-2 2v6a2 2 0 0 0 2 2v2a1 1 0 1 0 2 0v-2a2 2 0 0 0 2-2v-6a2 2 0 0 0-2-2v-3a1 1 0 0 0-1-1Z" clip-rule="evenodd"></path></svg>