<svg width="160" height="80"><g class="visx-group" transform="translate(0, 0)"><defs><linearGradient id="TrendChart--linearGradient-:r4q:" x1="0" y1="0" x2="0" y2="1"><stop offset="0%" stop-color="#3ECF8E" stop-opacity="1"></stop><stop offset="100%" stop-color="#baeed6" stop-opacity="1"></stop></linearGradient></defs><path class="visx-linepath" d="M4,19L4.684684684684685,19C5.36936936936937,19,6.738738738738739,19,8.108108108108109,19.666666666666668C9.477477477477478,20.333333333333332,10.84684684684685,21.666666666666668,12.216216216216218,19.666666666666668C13.585585585585585,17.666666666666668,14.954954954954955,12.333333333333334,16.324324324324326,15.166666666666666C17.693693693693692,18,19.063063063063066,29,20.432432432432435,33.833333333333336C21.801801801801805,38.666666666666664,23.17117117117117,37.333333333333336,32.75675675675676,36.666666666666664C42.34234234234234,36,60.14414414414415,36,69.72972972972973,36.666666666666664C79.31531531531532,37.333333333333336,80.68468468468468,38.666666666666664,82.05405405405405,41.166666666666664C83.42342342342342,43.666666666666664,84.7927927927928,47.333333333333336,86.16216216216215,49.5C87.53153153153153,51.666666666666664,88.90090090090091,52.333333333333336,90.27027027027027,51.833333333333336C91.63963963963964,51.333333333333336,93.009009009009,49.666666666666664,94.37837837837839,50.333333333333336C95.74774774774774,51,97.11711711711712,54,98.4864864864865,56C99.85585585585585,58,101.22522522522523,59,102.5945945945946,58.666666666666664C103.96396396396396,58.333333333333336,105.33333333333333,56.666666666666664,106.70270270270271,55.333333333333336C108.07207207207206,54,109.44144144144144,53,110.81081081081082,53.5C112.18018018018019,54,113.54954954954955,56,114.91891891891892,57.166666666666664C116.2882882882883,58.333333333333336,117.65765765765765,58.666666666666664,119.02702702702703,58C120.39639639639641,57.333333333333336,121.76576576576576,55.666666666666664,123.13513513513514,55.333333333333336C124.50450450450451,55,125.87387387387389,56,127.24324324324324,54.666666666666664C128.61261261261262,53.333333333333336,129.981981981982,49.666666666666664,131.35135135135135,49C132.72072072072072,48.333333333333336,134.09009009009011,50.666666666666664,135.45945945945948,53.166666666666664C136.82882882882885,55.666666666666664,138.19819819819818,58.333333333333336,139.56756756756758,61.166666666666664C140.93693693693692,64,142.3063063063063,67,143.67567567567565,68.16666666666667C145.04504504504504,69.33333333333333,146.41441441441444,68.66666666666667,147.78378378378378,68.83333333333333C149.15315315315317,69,150.52252252252254,70,151.8918918918919,69.66666666666667C153.26126126126127,69.33333333333333,154.63063063063063,67.66666666666667,155.3153153153153,66.83333333333333L156,66" fill="transparent" stroke-linecap="round" id="TrendChart--linePath-:r4q:" stroke="url(#TrendChart--linearGradient-:r4q:)" stroke-width="2" stroke-linejoin="round" shape-rendering="geometricPrecision" stroke-dasharray="1" stroke-dashoffset="1" pathLength="1" style="stroke-dashoffset: 0; visibility: visible;"></path></g></svg>