<svg xmlns="http://www.w3.org/2000/svg" width="72" height="72" fill="none" viewBox="0 0 72 72"><g clip-path="url(#icon-global_svg__a)"><path fill="#6D6AFD" fill-rule="evenodd" d="M24.018 25.392c-.897 2.76-1.475 5.839-1.612 9.108H34.5v-9.108H24.018Zm-3.14 0a37.44 37.44 0 0 0-1.474 9.108h-7.126a23.63 23.63 0 0 1 2.446-9.108h6.154Zm-4.368-3h5.404c.69-1.726 1.5-3.324 2.406-4.762a22.692 22.692 0 0 1 2.9-3.725 23.847 23.847 0 0 0-10.71 8.487Zm28.442-8.418a22.31 22.31 0 0 1 2.82 3.662 29.135 29.135 0 0 1 2.37 4.756h5.349a23.85 23.85 0 0 0-10.54-8.418Zm12.324 11.418H51.16a38.123 38.123 0 0 1 1.438 9.108h7.124a23.63 23.63 0 0 0-2.446-9.108ZM59.722 37.5h-7.124a38.123 38.123 0 0 1-1.438 9.108h6.116a23.63 23.63 0 0 0 2.446-9.108Zm-4.231 12.108h-5.348a29.14 29.14 0 0 1-2.37 4.756 22.304 22.304 0 0 1-2.821 3.662 23.85 23.85 0 0 0 10.539-8.418ZM36 59.768v-.018.019Zm-8.78-1.673a22.692 22.692 0 0 1-2.9-3.725 29.467 29.467 0 0 1-2.407-4.762H16.51a23.847 23.847 0 0 0 10.71 8.487ZM14.724 46.608h6.154a37.44 37.44 0 0 1-1.474-9.108h-7.126a23.629 23.629 0 0 0 2.446 9.108Zm12.135 6.164a25.703 25.703 0 0 1-1.687-3.164H34.5v9.564c-2.626-.611-5.37-2.795-7.641-6.4Zm-2.841-6.164H34.5V37.5H22.406c.137 3.27.715 6.349 1.612 9.108ZM37.5 59.183v-9.575h9.394a25.357 25.357 0 0 1-1.667 3.17c-2.253 3.615-5.011 5.808-7.727 6.405Zm0-12.575h10.525c.877-2.758 1.438-5.837 1.57-9.108H37.5v9.108ZM25.172 22.392H34.5v-9.564c-2.626.611-5.37 2.795-7.641 6.4a25.71 25.71 0 0 0-1.687 3.164Zm12.328 3V34.5h12.096c-.133-3.27-.694-6.35-1.57-9.108H37.5Zm9.394-3H37.5v-9.575c2.716.597 5.474 2.79 7.727 6.405a25.356 25.356 0 0 1 1.667 3.17Z" clip-rule="evenodd"></path></g><defs><clipPath id="icon-global_svg__a"><path fill="#fff" d="M0 0h72v72H0z"></path></clipPath></defs></svg>