<svg xmlns="http://www.w3.org/2000/svg" width="72" height="72" fill="none" viewBox="0 0 72 72"><path fill="#32DBB1" fill-rule="evenodd" d="M26.041 15.688c3.433-.313 6.306-1.613 8.06-2.693a2.71 2.71 0 0 1 2.798 0c1.754 1.08 4.627 2.38 8.06 2.693 3.317.303 6.473-.28 8.573-.894 1.081-.316 2.295.17 2.646 1.24 1.955 5.949 2.982 15.175-.308 24.21A11.55 11.55 0 0 0 53.5 40C47.149 40 42 45.149 42 51.5c0 1.824.425 3.549 1.18 5.08-2.018 1.443-4.288 2.792-6.834 4.02a1.971 1.971 0 0 1-1.692 0C10.769 49.073 11.22 26.995 14.822 16.034c.351-1.07 1.565-1.555 2.646-1.24 2.1.614 5.256 1.198 8.573.895Zm15.26 29.625c-1.078.987-2.395 1.603-4.07 1.973v1.604c0 .617-.48 1.11-1.078 1.11-.599 0-1.078-.493-1.078-1.11v-1.604c-1.436-.123-2.753-.74-3.95-1.727-.838-.74-1.556-1.603-2.035-2.713-.24-.617 0-1.48.718-1.727.599-.247 1.317 0 1.676.617.24.616.599 1.11 1.078 1.48.718.74 1.556 1.233 2.513 1.357v-7.895h-.12c-1.795-.74-3.231-1.603-4.19-2.59-.957-.987-1.436-2.22-1.436-3.7 0-.864.24-1.85.718-2.59.48-.864 1.078-1.48 1.916-2.097a7.202 7.202 0 0 1 2.993-.987V23.11c0-.617.479-1.11 1.077-1.11.599 0 1.078.493 1.078 1.11v1.604c1.436.246 2.514.74 3.471 1.603.48.37.838.864 1.078 1.234.479.616.12 1.603-.599 1.85-.599.247-1.197 0-1.556-.494-.12-.246-.36-.493-.599-.74a3.221 3.221 0 0 0-1.915-.986v7.4c1.795.74 3.17 1.54 4.19 2.59 2.873 2.961 1.9 6.292.12 8.142Zm-8.5-12.828c.479.493 1.317 1.11 2.274 1.48v-6.538c-.957.124-1.795.494-2.274 1.234-.479.493-.718 1.233-.718 1.973s.239 1.357.718 1.85Zm6.704 10.978c.598-.617.957-1.234.957-2.097 0-.74-.359-1.604-.838-2.097-.478-.494-1.316-.987-2.274-1.48v6.907c.838-.247 1.556-.617 2.155-1.233Z" clip-rule="evenodd"></path><path fill="#93F3DB" fill-rule="evenodd" d="M53.5 60a8.5 8.5 0 1 0 0-17 8.5 8.5 0 0 0 0 17Zm4.707-9.793a1 1 0 0 0-1.414-1.414L53 52.586l-2.293-2.293a1 1 0 0 0-1.414 1.414l3 3a1 1 0 0 0 1.414 0l4.5-4.5Z" clip-rule="evenodd"></path></svg>