<svg width="160" height="80"><g class="visx-group" transform="translate(0, 0)"><defs><linearGradient id="TrendChart--linearGradient-:r4p:" x1="0" y1="0" x2="0" y2="1"><stop offset="0%" stop-color="#3ECF8E" stop-opacity="1"></stop><stop offset="100%" stop-color="#baeed6" stop-opacity="1"></stop></linearGradient></defs><path class="visx-linepath" d="M4,45L4.684684684684685,45C5.36936936936937,45,6.738738738738739,45,8.108108108108109,46.333333333333336C9.477477477477478,47.666666666666664,10.84684684684685,50.333333333333336,12.216216216216218,51.833333333333336C13.585585585585585,53.333333333333336,14.954954954954955,53.666666666666664,16.324324324324326,57.166666666666664C17.693693693693692,60.666666666666664,19.063063063063066,67.33333333333333,20.432432432432435,70.83333333333333C21.801801801801805,74.33333333333333,23.17117117117117,74.66666666666667,32.75675675675676,74C42.34234234234234,73.33333333333333,60.14414414414415,71.66666666666667,69.72972972972973,70.33333333333333C79.31531531531532,69,80.68468468468468,68,82.05405405405405,66.5C83.42342342342342,65,84.7927927927928,63,86.16216216216215,61.333333333333336C87.53153153153153,59.666666666666664,88.90090090090091,58.333333333333336,90.27027027027027,58.833333333333336C91.63963963963964,59.333333333333336,93.009009009009,61.666666666666664,94.37837837837839,61.666666666666664C95.74774774774774,61.666666666666664,97.11711711711712,59.333333333333336,98.50075075075074,58.666666666666664C99.88438438438438,58,101.28228228228227,59,102.6659159159159,59.833333333333336C104.04954954954955,60.666666666666664,105.41891891891892,61.333333333333336,106.78828828828829,61.666666666666664C108.15765765765765,62,109.52702702702702,62,110.89639639639638,60.666666666666664C112.26576576576576,59.333333333333336,113.63513513513514,56.666666666666664,115.0045045045045,54.166666666666664C116.37387387387388,51.666666666666664,117.74324324324324,49.333333333333336,119.11261261261261,48C120.48198198198197,46.666666666666664,121.85135135135135,46.333333333333336,123.20645645645645,47C124.56156156156158,47.666666666666664,125.90240240240242,49.333333333333336,127.25750750750751,50.333333333333336C128.61261261261262,51.333333333333336,129.981981981982,51.666666666666664,131.35135135135135,51.166666666666664C132.72072072072072,50.666666666666664,134.09009009009011,49.333333333333336,135.45945945945948,49.833333333333336C136.82882882882885,50.333333333333336,138.19819819819818,52.666666666666664,139.56756756756758,49.833333333333336C140.93693693693692,47,142.3063063063063,39,143.67567567567565,32.666666666666664C145.04504504504504,26.333333333333332,146.41441441441444,21.666666666666668,147.78378378378378,19C149.15315315315317,16.333333333333332,150.52252252252254,15.666666666666666,151.8918918918919,14.5C153.26126126126127,13.333333333333334,154.63063063063063,11.666666666666666,155.3153153153153,10.833333333333334L156,10" fill="transparent" stroke-linecap="round" id="TrendChart--linePath-:r4p:" stroke="url(#TrendChart--linearGradient-:r4p:)" stroke-width="2" stroke-linejoin="round" shape-rendering="geometricPrecision" stroke-dasharray="1" stroke-dashoffset="1" pathLength="1" style="stroke-dashoffset: 0; visibility: visible;"></path></g></svg>