<svg xmlns="http://www.w3.org/2000/svg" width="72" height="72" fill="none" viewBox="0 0 72 72"><g fill-rule="evenodd" clip-path="url(#icon-bonus_svg__a)" clip-rule="evenodd"><path fill="#FD5775" d="M53 40H39v21h12a4 4 0 0 0 4-4V40h-2ZM33 61V40H17v17a4 4 0 0 0 4 4h12ZM15.081 31.194A4.001 4.001 0 0 1 19 28h14v10H19a4.001 4.001 0 0 1-4-4v-2c0-.276.028-.546.081-.806ZM39 38h14a4 4 0 0 0 4-4v-2a4 4 0 0 0-4-4H39v10Z"></path><path fill="#FD899E" d="M22.117 17.817c.51-2.555 2.75-4.817 5.917-4.817 3.044 0 5.49 1.442 7.198 3.362.414.464.858 1.023 1.268 1.672.41-.65.854-1.208 1.268-1.672C39.477 14.442 41.922 13 44.966 13c3.167 0 5.408 2.262 5.917 4.817.544 2.723-.814 5.59-3.98 7.151-1.675.826-3.786.978-5.465 1.031h-9.877c-1.678-.053-3.79-.205-5.464-1.03-3.166-1.562-4.524-4.429-3.98-7.152Zm10.874.54C33.92 19.398 35 21 35 22.996L31.633 23c-1.69-.054-3.186-.218-4.209-.722-2.088-1.03-2.613-2.63-2.365-3.874A2.982 2.982 0 0 1 28.034 16c2.02 0 3.696.94 4.957 2.356ZM38 22.996c0-1.997 1.08-3.598 2.009-4.64C41.27 16.938 42.946 16 44.966 16a2.982 2.982 0 0 1 2.975 2.404c.248 1.243-.277 2.844-2.365 3.874-1.023.504-2.52.668-4.209.722L38 22.997Z"></path></g><defs><clipPath id="icon-bonus_svg__a"><path fill="#fff" d="M0 0h72v72H0z"></path></clipPath></defs></svg>