<svg xmlns="http://www.w3.org/2000/svg" width="72" height="72" fill="none" viewBox="0 0 72 72"><rect width="48" height="48" x="12" y="12" fill="#32DB8F" rx="12"></rect><path fill="#fff" fill-rule="evenodd" d="M53 35.5C53 44.613 45.613 52 36.5 52S20 44.613 20 35.5 27.387 19 36.5 19 53 26.387 53 35.5Zm-22.666-3.148c-.333.617-.055 1.137.044 1.324l.004.007c.096.164.225.312.37.444.144.131.32.246.529.345.138.065.276.137.419.212l.223.117c.385.213.77.427 1.124.657.369.23.674.493.963.805.273.296.497.64.658 1.019.16.378.24.838.24 1.364 0 .722-.128 1.363-.4 1.906-.258.542-.627 1.084-1.108 1.446-.466.361-1.044.624-1.702.788-.642.181-1.364.214-2.15.214-.53 0-1.75-.05-3.548-.46l.465-2.728c1.654.46 2.922.625 3.773.51 1.364-.181 1.669-1.02 1.669-1.48 0-.262-.064-.476-.209-.657a2.05 2.05 0 0 0-.53-.525 5.827 5.827 0 0 0-.833-.492h-.001v-.001a7.467 7.467 0 0 1-.658-.362 10.858 10.858 0 0 1-.947-.657 3.871 3.871 0 0 1-.77-.772 4.285 4.285 0 0 1-.514-.97 3.669 3.669 0 0 1-.193-1.232c0-.592.112-1.134.321-1.643.225-.51.546-.953.98-1.331.433-.378.978-.658 1.636-.871.659-.214 1.413-.329 2.296-.329 1.236 0 2.167.148 3.515.542l-.385 2.3c-1.638-.426-2.89-.525-3.612-.443-.562.115-1.316.329-1.67.953ZM40.224 29c-1.048 0-1.948.778-2.128 1.837L36 43h3.061l.999-5.742.426-2.45.573-3.359h6.515L48 29h-7.776Zm3.929 5.809c-1.474 0-2.75.992-3.176 2.449h4.731l.426-2.45h-1.981Z" clip-rule="evenodd"></path></svg>