<svg width="160" height="80"><g class="visx-group" transform="translate(0, 0)"><defs><linearGradient id="TrendChart--linearGradient-:r4n:" x1="0" y1="0" x2="0" y2="1"><stop offset="0%" stop-color="#3ECF8E" stop-opacity="1"></stop><stop offset="100%" stop-color="#baeed6" stop-opacity="1"></stop></linearGradient></defs><path class="visx-linepath" d="M4,11L7.089430894308943,18.666666666666668C10.178861788617885,26.333333333333332,16.35772357723577,41.666666666666664,20.0650406504065,52.333333333333336C23.772357723577233,63,25.00813008130081,69,36.130081300813,68C47.2520325203252,67,68.26016260162602,59,79.3821138211382,55.833333333333336C90.5040650406504,52.666666666666664,91.73983739837398,54.333333333333336,95.4471544715447,52.5C99.15447154471543,50.666666666666664,105.33333333333333,45.333333333333336,109.04065040650407,40C112.7479674796748,34.666666666666664,113.98373983739837,29.333333333333332,117.6910569105691,28.333333333333332C121.39837398373983,27.333333333333332,127.57723577235772,30.666666666666668,131.28455284552845,29.5C134.9918699186992,28.333333333333332,136.22764227642276,22.666666666666668,139.9349593495935,18.833333333333332C143.64227642276424,15,149.82113821138213,13,152.91056910569105,12L156,11" fill="transparent" stroke-linecap="round" id="TrendChart--linePath-:r4n:" stroke="url(#TrendChart--linearGradient-:r4n:)" stroke-width="2" stroke-linejoin="round" shape-rendering="geometricPrecision" stroke-dasharray="1" stroke-dashoffset="1" pathLength="1" style="stroke-dashoffset: 0; visibility: visible;"></path></g></svg>