<svg width="160" height="80"><g class="visx-group" transform="translate(0, 0)"><defs><linearGradient id="TrendChart--linearGradient-:r4s:" x1="0" y1="0" x2="0" y2="1"><stop offset="0%" stop-color="#3ECF8E" stop-opacity="1"></stop><stop offset="100%" stop-color="#baeed6" stop-opacity="1"></stop></linearGradient></defs><path class="visx-linepath" d="M4,31L4.689342403628118,28.833333333333332C5.378684807256236,26.666666666666668,6.757369614512473,22.333333333333332,8.136054421768709,20.5C9.514739229024945,18.666666666666668,10.89342403628118,19.333333333333332,12.272108843537415,22.833333333333332C13.65079365079365,26.333333333333332,15.029478458049887,32.666666666666664,16.408163265306122,40.666666666666664C17.78684807256236,48.666666666666664,19.165532879818596,58.333333333333336,20.54421768707483,62.666666666666664C21.922902494331066,67,23.301587301587304,66,32.78004535147392,65.83333333333333C42.25850340136054,65.66666666666667,59.83673469387755,66.33333333333333,69.31519274376417,66C78.79365079365078,65.66666666666667,80.17233560090703,64.33333333333333,81.55102040816327,65.66666666666667C82.9297052154195,67,84.30839002267574,71,85.68707482993199,70.16666666666667C87.06575963718821,69.33333333333333,88.44444444444446,63.666666666666664,89.82312925170068,59.5C91.20181405895691,55.333333333333336,92.58049886621315,52.666666666666664,93.95918367346938,50.666666666666664C95.33786848072562,48.666666666666664,96.71655328798185,47.333333333333336,98.09523809523809,47C99.47392290249434,46.666666666666664,100.85260770975059,47.333333333333336,102.2312925170068,49C103.60997732426306,50.666666666666664,104.98866213151928,53.333333333333336,106.36734693877553,54.333333333333336C107.74603174603175,55.333333333333336,109.124716553288,54.666666666666664,110.50340136054422,50.5C111.88208616780044,46.333333333333336,113.26077097505669,38.666666666666664,114.63945578231294,34.5C116.01814058956916,30.333333333333332,117.39682539682538,29.666666666666668,118.77551020408163,28.666666666666668C120.15419501133788,27.666666666666668,121.5328798185941,26.333333333333332,123.08390022675735,25C124.63492063492065,23.666666666666668,126.35827664399092,22.333333333333332,127.90929705215422,20.666666666666668C129.46031746031747,19,130.8390022675737,17,132.21768707482994,15.333333333333334C133.59637188208617,13.666666666666666,134.9750566893424,12.333333333333334,136.35374149659864,16.333333333333332C137.73242630385488,20.333333333333332,139.11111111111111,29.666666666666668,140.48979591836735,32.666666666666664C141.86848072562358,35.666666666666664,143.24716553287982,32.333333333333336,144.62585034013605,31.666666666666668C146.0045351473923,31,147.38321995464852,33,148.58956916099774,33.833333333333336C149.79591836734696,34.666666666666664,150.82993197278913,34.333333333333336,152.0362811791383,32.5C153.24263038548753,30.666666666666668,154.62131519274377,27.333333333333332,155.3106575963719,25.666666666666668L156,24" fill="transparent" stroke-linecap="round" id="TrendChart--linePath-:r4s:" stroke="url(#TrendChart--linearGradient-:r4s:)" stroke-width="2" stroke-linejoin="round" shape-rendering="geometricPrecision" stroke-dasharray="1" stroke-dashoffset="1" pathLength="1" style="stroke-dashoffset: 0; visibility: visible;"></path></g></svg>