<svg width="160" height="80"><g class="visx-group" transform="translate(0, 0)"><defs><linearGradient id="TrendChart--linearGradient-:r4o:" x1="0" y1="0" x2="0" y2="1"><stop offset="0%" stop-color="#3ECF8E" stop-opacity="1"></stop><stop offset="100%" stop-color="#baeed6" stop-opacity="1"></stop></linearGradient></defs><path class="visx-linepath" d="M4,57L4.684684684684685,57C5.36936936936937,57,6.738738738738739,57,8.108108108108109,57.166666666666664C9.477477477477478,57.333333333333336,10.84684684684685,57.666666666666664,12.216216216216218,55.666666666666664C13.585585585585585,53.666666666666664,14.954954954954955,49.333333333333336,16.324324324324326,52.166666666666664C17.693693693693692,55,19.063063063063066,65,20.432432432432435,69.5C21.801801801801805,74,23.17117117117117,73,32.75675675675676,72.16666666666667C42.34234234234234,71.33333333333333,60.14414414414415,70.66666666666667,69.72972972972973,70.16666666666667C79.31531531531532,69.66666666666667,80.68468468468468,69.33333333333333,82.05405405405405,68.66666666666667C83.42342342342342,68,84.7927927927928,67,86.16216216216215,65.33333333333333C87.53153153153153,63.666666666666664,88.90090090090091,61.333333333333336,90.27027027027027,59C91.63963963963964,56.666666666666664,93.009009009009,54.333333333333336,94.37837837837839,53.333333333333336C95.74774774774774,52.333333333333336,97.11711711711712,52.666666666666664,98.4864864864865,52.5C99.85585585585585,52.333333333333336,101.22522522522523,51.666666666666664,102.5945945945946,51.166666666666664C103.96396396396396,50.666666666666664,105.33333333333333,50.333333333333336,106.70270270270271,49.5C108.07207207207206,48.666666666666664,109.44144144144144,47.333333333333336,110.81081081081082,46C112.18018018018019,44.666666666666664,113.54954954954955,43.333333333333336,114.91891891891892,42.833333333333336C116.2882882882883,42.333333333333336,117.65765765765765,42.666666666666664,119.02702702702703,41.833333333333336C120.39639639639641,41,121.76576576576576,39,123.13513513513514,37.666666666666664C124.50450450450451,36.333333333333336,125.87387387387389,35.666666666666664,127.24324324324324,35.333333333333336C128.61261261261262,35,129.981981981982,35,131.35135135135135,35.166666666666664C132.72072072072072,35.333333333333336,134.09009009009011,35.666666666666664,135.45945945945948,34.666666666666664C136.82882882882885,33.666666666666664,138.19819819819818,31.333333333333332,139.56756756756758,27.833333333333332C140.93693693693692,24.333333333333332,142.3063063063063,19.666666666666668,143.67567567567565,16.5C145.04504504504504,13.333333333333334,146.41441441441444,11.666666666666666,147.78378378378378,10C149.15315315315317,8.333333333333334,150.52252252252254,6.666666666666667,151.8918918918919,6.333333333333333C153.26126126126127,6,154.63063063063063,7,155.3153153153153,7.5L156,8" fill="transparent" stroke-linecap="round" id="TrendChart--linePath-:r4o:" stroke="url(#TrendChart--linearGradient-:r4o:)" stroke-width="2" stroke-linejoin="round" shape-rendering="geometricPrecision" stroke-dasharray="1" stroke-dashoffset="1" pathLength="1" style="stroke-dashoffset: 0; visibility: visible;"></path></g></svg>