<svg xmlns="http://www.w3.org/2000/svg" xml:space="preserve" viewBox="0 0 1000 1000"><path fill="none" d="M0 0h1000v1000H0z"></path><g fill="#00AEB1"><path d="M891.9 832.1H102.8c-27.7 0-50.2-22.5-50.2-50.2v-42.7c0-3.9 3.2-7.1 7.1-7.1H935c3.9 0 7.1 3.2 7.1 7.1v42.7c0 27.7-22.5 50.2-50.2 50.2zM66.8 746.3v35.6c0 19.9 16.1 36 36 36h789.1c19.9 0 36-16.2 36-36v-35.6H66.8z"></path><path d="M891.9 832.1H102.8c-27.7 0-50.2-22.5-50.2-50.2v-42.7c0-3.9 3.2-7.1 7.1-7.1H935c3.9 0 7.1 3.2 7.1 7.1v42.7c0 27.7-22.5 50.2-50.2 50.2zM66.8 746.3v35.6c0 19.9 16.1 36 36 36h789.1c19.9 0 36-16.2 36-36v-35.6H66.8z"></path><path d="M833.1 746.3H161.6c-3.9 0-7.1-3.2-7.1-7.1V342.6c0-15.8 12.8-28.6 28.6-28.6h628.4c15.8 0 28.6 12.8 28.6 28.6v396.7c.1 3.9-3.1 7-7 7zm-664.4-14.1H826V342.6c0-8-6.5-14.5-14.5-14.5H183.1c-8 0-14.5 6.5-14.5 14.5v389.6z"></path><path d="M282.2 671.3c-23.1 0-41.9-18.8-41.9-41.9s18.8-41.9 41.9-41.9 41.9 18.8 41.9 41.9-18.8 41.9-41.9 41.9zm0-69.7c-15.3 0-27.7 12.5-27.7 27.8s12.4 27.8 27.7 27.8 27.8-12.5 27.8-27.8-12.5-27.8-27.8-27.8zM413.6 541.3c-23.1 0-41.9-18.8-41.9-41.9s18.8-41.9 41.9-41.9c23.1 0 41.9 18.8 41.9 41.9s-18.8 41.9-41.9 41.9zm0-69.7c-15.3 0-27.8 12.5-27.8 27.8s12.5 27.8 27.8 27.8 27.8-12.5 27.8-27.8-12.5-27.8-27.8-27.8zM586.5 628.4c-23.1 0-41.9-18.8-41.9-41.9s18.8-41.9 41.9-41.9 41.9 18.8 41.9 41.9-18.8 41.9-41.9 41.9zm0-69.7c-15.3 0-27.8 12.5-27.8 27.8s12.5 27.8 27.8 27.8 27.7-12.5 27.7-27.8-12.4-27.8-27.7-27.8zM905.5 251.7c-23.1 0-41.9-18.8-41.9-41.9s18.8-41.9 41.9-41.9 41.9 18.8 41.9 41.9-18.8 41.9-41.9 41.9zm0-69.7c-15.3 0-27.8 12.5-27.8 27.8s12.5 27.8 27.8 27.8 27.8-12.5 27.8-27.8-12.5-27.8-27.8-27.8z"></path><path d="M307.7 610.3c-1.8 0-3.7-.7-5.1-2.1-2.7-2.8-2.7-7.3.1-10l80.4-78.4c2.8-2.7 7.3-2.7 10 .1 2.7 2.8 2.7 7.3-.1 10l-80.4 78.4c-1.3 1.3-3.1 2-4.9 2zM555.7 577.4c-1.1 0-2.2-.2-3.2-.8l-109.9-56.3c-3.5-1.8-4.9-6.1-3.1-9.5 1.8-3.5 6.1-4.9 9.5-3.1L558.9 564c3.5 1.8 4.9 6.1 3.1 9.5-1.3 2.5-3.8 3.9-6.3 3.9zM610.6 566.7c-1.6 0-3.2-.5-4.6-1.7-3-2.5-3.4-7-.9-10l270.8-323c2.5-3 7-3.4 10-.9s3.4 7 .9 10L616 564.2c-1.4 1.7-3.4 2.5-5.4 2.5z"></path></g></svg>