<svg xmlns="http://www.w3.org/2000/svg" xml:space="preserve" viewBox="0 0 1000 1000"><path fill="none" d="M0 0h1000v1000H0z"></path><g fill="#00AEB1"><path d="M176.4 721.3H66.2c-7.7 0-13.9-6.2-13.9-13.9V300.7c0-7.6 6.2-13.9 13.9-13.9h110.2c7.7 0 13.9 6.2 13.9 13.9v406.7c-.1 7.6-6.3 13.9-13.9 13.9zM66.5 301v406.4l109.9-.3-.3-406.4-109.6.3zM933.9 647.5H823.7c-7.7 0-13.9-6.2-13.9-13.9V226.9c0-7.6 6.2-13.9 13.9-13.9h110.2c7.6 0 13.9 6.2 13.9 13.9v406.6c-.1 7.7-6.3 14-13.9 14zM824 227.2v406.3l109.9-.3-.3-406.4-109.6.4z"></path><path d="M121.3 661.4c-13.7 0-24.8-11.1-24.8-24.8s11.1-24.8 24.8-24.8S146 623 146 636.7s-11.1 24.7-24.7 24.7zm0-35.3c-5.8 0-10.6 4.8-10.6 10.6s4.7 10.6 10.6 10.6c5.8 0 10.6-4.8 10.6-10.6s-4.8-10.6-10.6-10.6zM878.8 587.6c-13.6 0-24.8-11.1-24.8-24.8s11.1-24.8 24.8-24.8 24.8 11.1 24.8 24.8-11.2 24.8-24.8 24.8zm0-35.3c-5.8 0-10.6 4.8-10.6 10.6s4.8 10.6 10.6 10.6 10.6-4.8 10.6-10.6-4.8-10.6-10.6-10.6zM184.5 345.9c-1.7 0-3.5-.6-4.8-1.9-2.9-2.7-3-7.2-.3-10l104.3-111.1c21.7-23.1 22.8-24.6 34.1-24.2l39.7 1.1c3.9.1 7 3.4 6.9 7.3-.1 3.9-3.3 6.9-7.1 6.9h-.2l-39.7-1.1c-4.8 0-4.8-.1-23.4 19.8l-104.3 111c-1.4 1.5-3.3 2.2-5.2 2.2zM483.5 844.5c-10.8 0-24.7-1.7-52.6-14.2-32.4-14.5-72-37.9-106-62.6-39.5-28.7-78.6-64.2-97.4-81.2-10.2-9.3-16.4-14.8-18-15.5l-24.4 1.2c-4.2 0-7.2-2.8-7.4-6.7-.2-3.9 2.8-7.2 6.7-7.4L208 657c7.7-.3 8.5.4 29.1 19.1 18.6 16.9 57.3 52 96.2 80.2 33.2 24.2 71.9 47 103.4 61.1 25.4 11.4 37.5 13 46.8 13 8.5 0 14.4-1.4 18-4.3 3.6-2.9 5.8-8.1 7.2-11.3 3.6-8.1 8.3-8.9 18.1-8.9l7.1.1c10.2.1 24.1.4 37-1.1 16.4-2 29.6-6.8 37.2-13.5 7.8-6.9 11-16.7 12.6-22 3.3-10.2 7.5-10.7 17.1-9.6 7.2.9 22.3 2.7 33.6 1.1 10.6-1.4 17.7-5.4 23.3-13.2 6.1-8.5 10.5-22 12.6-28.5 3-9.3 5-11.7 14.6-12.7 5.7-.6 17.7-1.9 25.6-6 6.9-3.6 11.2-10 13.1-19.4 2.3-11.6.4-24-5.3-34.1-5.3-9.3-15.3-18.9-39.3-42-7.4-7.2-16.2-15.6-26.7-25.9C644.2 535.2 566.8 457.8 492 383l-2.4-2.4c-2.8-2.8-2.8-7.3 0-10 2.8-2.8 7.3-2.8 10 0l2.4 2.4c74.8 74.8 152.2 152.2 197.2 196.1 10.4 10.2 19.2 18.7 26.6 25.8 25.8 24.8 35.4 34.1 41.7 45.1 7.4 13 9.9 29 6.9 43.9-2.7 13.6-9.6 23.5-20.4 29.2-10.3 5.4-24 6.8-30.7 7.6-.7.1-1.3.1-1.8.2-.2.7-.5 1.6-.8 2.7-2.6 7.9-7.2 22.2-14.6 32.5-7.8 10.9-18.6 17.1-33 19-13.1 1.7-29.3-.2-37.1-1.1-.7-.1-1.4-.2-1.9-.2v.1c-2 6.1-6 18.8-16.8 28.3-12.5 11-31.3 15.3-44.8 16.9-13.8 1.7-28.3 1.4-38.9 1.3l-6.8-.1c-2.6 0-4.2.1-5 .2-2.3 5.2-5.5 12-11.4 16.8-6.2 4.9-14.8 7.2-26.9 7.2z"></path><path d="m814.1 556.6 2.5-6.6-2.5 6.6c-12.9-4.8-26.2-9.7-52.7-29.1C732 506 691.8 470.9 654 433.6 611.8 392.1 566.3 342 544.4 318c-18.8-20.7-18.8-20.7-42.8-8.8-28.1 14-86.7 43-121.7 55-34.3 11.7-48.8 8.4-62.2-1.4-13.3-9.7-21.3-20.7-23.7-32.7-2.4-12.3 1-27.4 9.1-40.5 7.1-11.5 16.3-18.8 51.9-41 35.2-22.1 95.8-58.7 127.5-77.6 34.1-20.3 39.6-21.7 91.6 2.6C625 197.3 722.8 246 817.4 293c3.5 1.8 4.9 6 3.2 9.5-1.8 3.5-6 5-9.5 3.2C721 260.9 618.9 210 568.3 186.3c-47-22-48.2-21.3-78.4-3.3-31.7 18.9-92.1 55.4-127.2 77.4-35.2 22-42 27.9-47.4 36.5-6.2 9.9-8.9 21.5-7.2 30.2 2.1 10.4 11 18.8 18.1 24 6.8 4.9 15.3 11.1 49.3-.5s92.1-40.4 120-54.2c31.7-15.8 35-15.1 59.6 12 21.8 24 67.1 73.9 109 115.1 37.4 36.8 77 71.4 105.9 92.6 24.9 18.2 36.7 22.6 49.1 27.2l-5 13.3z"></path></g></svg>