<svg xmlns="http://www.w3.org/2000/svg" xml:space="preserve" viewBox="0 0 1000 1000"><path fill="none" d="M0 0h1000v1000H0z"></path><g fill="#00AEB1"><path d="M327.4 855.1H179.3c-15.1 0-27.4-12.3-27.4-27.4V523.4c0-15.1 12.3-27.4 27.4-27.4h148.1c15.1 0 27.4 12.3 27.4 27.4v304.4c0 15-12.3 27.3-27.4 27.3zM179.3 510.2c-7.3 0-13.2 5.9-13.2 13.2v304.4c0 7.3 5.9 13.2 13.2 13.2h148.1c7.3 0 13.2-5.9 13.2-13.2V523.4c0-7.3-5.9-13.2-13.2-13.2H179.3z"></path><path d="M603.7 860.5c-20.7 0-41-.6-58.2-1.3-43.9-1.9-91.7-5.7-127.8-10.3-32.8-4.1-51.7-8.4-70-12.5-3.8-.9-6.3-4.7-5.4-8.5.9-3.8 4.5-6.3 8.4-5.4 18.1 4.1 36.7 8.3 68.8 12.3 35.8 4.5 83.1 8.3 126.6 10.2 38.5 1.6 92.5 2.5 131.7-2.3 38-4.7 58.5-14.7 70.7-21.7 16-9.3 24.9-18.5 29.1-29.8 4.6-12.5 3.9-29.3 3.6-37.4-.4-9.4-.5-13.2 5.6-16.7 2-1.1 6-3.4 13.4-12 5.3-6.2 18-22.5 20.7-38.5 1.8-10.5-.5-23-6.6-36.9l-1.6-3.4c-2.9-6.3-4.3-10.1-.1-17.3.9-1.5 2.2-3.4 3.7-5.6 3.5-5.1 8.2-12.1 11.9-20.1 4.1-8.9 8.1-22 4.2-33.3-2.2-6.2-6.9-12.3-11.5-18.2-3.6-4.7-7-9.1-9.2-13.5-4.8-9.9-2.6-18.3-.2-27.3l1.4-5.5c1.9-8.2 4.7-24 1.7-37.8-2.2-9.9-7.3-21.1-29-29-21.9-8-57.5-11.7-92.9-9.7-16.8.9-33.9 3.1-48.9 5.1-18.2 2.4-33.9 4.4-44.6 3.6-8.8-.6-15-3.3-18.8-8.2-6.4-8.1-4.9-20.5-2.2-35.9 1.4-8.1 3.3-17.8 5.3-28.2 3.9-20.2 8.4-43.1 11.2-64.5 4.3-32.4 4.9-60.9 1.7-82.5-3.1-20.6-9.6-35.8-20.1-46.5-9.1-9.4-22.3-16.2-34.4-17.9-10.9-1.5-16.5 1.8-19.7 11.7-2.8 8.7-3.6 22.9-4.3 36.6-.5 8.2-.9 16.4-1.8 23.9-2.5 21.6-8.2 37.3-23.2 70.7-13.2 29.4-38.7 83.8-61.1 118.3-16.1 24.9-30.6 39.3-42.2 50.9-3.9 3.9-7.6 7.5-10.8 11.1-12.1 13.5-18.9 26.8-26.1 40.9-1.8 3.5-6 4.9-9.5 3.1-3.5-1.8-4.9-6.1-3.1-9.5 7.3-14.3 14.9-29.1 28.2-43.9 3.4-3.8 7.2-7.6 11.3-11.7 11.1-11.1 25-25 40.3-48.6 21.9-33.7 47-87.4 60-116.4 14.6-32.5 19.8-46.6 22.1-66.5.8-7.2 1.3-15.2 1.7-23.1.9-15.3 1.7-29.7 5-40.1 3.6-11.5 12.6-24.5 35.1-21.4 15.4 2.1 31.3 10.3 42.7 22 12.6 12.9 20.4 30.7 23.9 54.3 3.4 22.9 2.8 52.8-1.7 86.5-2.9 21.8-7.4 44.9-11.4 65.3-2 10.4-3.9 19.9-5.2 27.9-1.7 10.1-3.3 21.2-.6 24.8 1.2 1.5 4.1 2.5 8.6 2.8 9.3.7 24.3-1.3 41.8-3.6 15.3-2 32.7-4.3 50-5.2 37.2-2.1 75 2 98.5 10.6 21.8 7.9 33.8 20.4 38 39.3 3.4 15.7 1 32.6-1.7 44.1l-1.5 5.9c-2.2 8.5-3.1 12.5-.7 17.5 1.5 3.1 4.5 6.9 7.6 11 5 6.5 10.7 13.8 13.7 22.2 5.5 15.8.5 32.5-4.6 43.8-4.1 9.1-9.3 16.7-13 22.2-1.3 1.9-2.4 3.6-3.2 4.9-.6 1.1.1 2.7.8 4l1.7 3.7c7.3 16.5 9.8 31.6 7.6 44.9-3.1 18.8-16.3 36.5-23.9 45.4-7.6 8.9-12.7 12.5-15.7 14.3 0 1.1.1 2.5.2 4.5.3 9.1 1 27.8-4.5 43-5.3 14.6-16.2 26.1-35.2 37.2-13.2 7.7-35.5 18.6-76.1 23.6-22.8 2.6-49.9 3.6-76.2 3.6zM281.1 814.1c-19 0-34.5-15.5-34.5-34.5s15.5-34.5 34.5-34.5 34.5 15.5 34.5 34.5-15.5 34.5-34.5 34.5zm0-54.8c-11.2 0-20.3 9.1-20.3 20.3s9.1 20.3 20.3 20.3 20.3-9.1 20.3-20.3-9.2-20.3-20.3-20.3z"></path><path d="M509.3 250.4c-1.8 0-3.6-.7-5-2.1-2.8-2.8-2.8-7.3 0-10 7.2-7.2 13.4-13.4 16.3-26 3.1-13.8 2.3-35.5 1.6-56.6-.1-3.9 2.9-7.2 6.8-7.3 4 .2 7.2 2.9 7.3 6.8.8 22 1.6 44.7-1.9 60.2-3.8 16.7-12.4 25.3-20.1 32.9-1.4 1.4-3.2 2.1-5 2.1zM194.7 814.7c-3.9 0-7.1-3.2-7.1-7.1V531c0-3.9 3.2-7.1 7.1-7.1s7.1 3.2 7.1 7.1v276.6c0 3.9-3.2 7.1-7.1 7.1z"></path></g></svg>