<svg xmlns="http://www.w3.org/2000/svg" xml:space="preserve" viewBox="0 0 1000 1000"><path fill="none" d="M0 0h1000v1000H0z"></path><g fill="#00AEB1"><path d="M500 706.2c-114.3 0-207.4-93-207.4-207.4s93-207.4 207.4-207.4 207.4 93 207.4 207.4-93 207.4-207.4 207.4zm0-400.5c-106.5 0-193.2 86.7-193.2 193.2S393.5 692 500 692s193.2-86.7 193.2-193.2S606.5 305.7 500 305.7z"></path><path d="M500 305.7c-3.9 0-7.1-3.2-7.1-7.1v-93c0-3.9 3.2-7.1 7.1-7.1s7.1 3.2 7.1 7.1v93c0 3.9-3.2 7.1-7.1 7.1zM500 801.6c-3.9 0-7.1-3.2-7.1-7.1v-93c0-3.9 3.2-7.1 7.1-7.1s7.1 3.2 7.1 7.1v93c0 3.9-3.2 7.1-7.1 7.1z"></path><path d="M500 210.9c-46 0-83.4-37.4-83.4-83.4S454 44 500 44c46 0 83.5 37.4 83.5 83.4S546 210.9 500 210.9zm0-152.7c-38.2 0-69.3 31.1-69.3 69.3s31.1 69.3 69.3 69.3 69.3-31.1 69.3-69.3-31.1-69.3-69.3-69.3zM500 956c-46 0-83.4-37.4-83.4-83.4 0-46 37.4-83.5 83.4-83.5 46 0 83.5 37.4 83.5 83.5 0 46-37.5 83.4-83.5 83.4zm0-152.7c-38.2 0-69.3 31.1-69.3 69.3s31.1 69.3 69.3 69.3 69.3-31.1 69.3-69.3-31.1-69.3-69.3-69.3zM357.6 364.7c-1.8 0-3.6-.7-5-2.1l-65.8-65.8c-2.8-2.8-2.8-7.3 0-10 2.8-2.8 7.3-2.8 10 0l65.8 65.8c2.8 2.8 2.8 7.3 0 10-1.4 1.4-3.2 2.1-5 2.1zM708.2 715.3c-1.8 0-3.6-.7-5-2.1l-65.8-65.8c-2.8-2.8-2.8-7.3 0-10 2.8-2.8 7.3-2.8 10 0l65.8 65.8c2.8 2.8 2.8 7.3 0 10-1.3 1.4-3.2 2.1-5 2.1z"></path><path d="M236.6 320c-22.3 0-43.2-8.7-59-24.5-32.5-32.5-32.5-85.5 0-118s85.5-32.5 118 0 32.5 85.5 0 118c-15.8 15.8-36.7 24.5-59 24.5zm0-152.7c-17.7 0-35.5 6.8-49 20.3-27 27-27 71 0 98 26.2 26.2 71.8 26.2 98 0 27-27 27-71 0-98-13.6-13.5-31.3-20.3-49-20.3zM763.5 846.9c-22.3 0-43.2-8.7-59-24.5-32.5-32.5-32.5-85.5 0-118 15.7-15.8 36.7-24.5 59-24.5s43.2 8.7 59 24.5c32.5 32.5 32.5 85.5 0 118-15.8 15.8-36.7 24.5-59 24.5zm0-152.7c-18.5 0-35.9 7.2-49 20.3-27 27-27 71 0 98 26.2 26.1 71.8 26.1 98 0 27-27 27-71 0-98-13.1-13.1-30.5-20.3-49-20.3zm-54 15.2h.2-.2zM298.6 507.1h-93c-3.9 0-7.1-3.2-7.1-7.1s3.2-7.1 7.1-7.1h93c3.9 0 7.1 3.2 7.1 7.1s-3.2 7.1-7.1 7.1zM794.5 507.1h-93c-3.9 0-7.1-3.2-7.1-7.1s3.2-7.1 7.1-7.1h93c3.9 0 7.1 3.2 7.1 7.1s-3.2 7.1-7.1 7.1z"></path><path d="M127.5 583.4C81.4 583.4 44 546 44 500c0-46 37.4-83.5 83.5-83.5 46 0 83.4 37.4 83.4 83.5 0 46-37.4 83.4-83.4 83.4zm0-152.7c-38.2 0-69.3 31.1-69.3 69.3s31.1 69.3 69.3 69.3 69.3-31.1 69.3-69.3-31.1-69.3-69.3-69.3zM872.6 583.4c-46 0-83.4-37.4-83.4-83.4 0-46 37.4-83.5 83.4-83.5 46 0 83.5 37.4 83.5 83.5-.1 46-37.5 83.4-83.5 83.4zm0-152.7c-38.2 0-69.3 31.1-69.3 69.3s31.1 69.3 69.3 69.3 69.3-31.1 69.3-69.3-31.1-69.3-69.3-69.3zM291.8 715.3c-1.8 0-3.6-.7-5-2.1-2.8-2.8-2.8-7.3 0-10l65.8-65.8c2.8-2.8 7.3-2.8 10 0 2.8 2.8 2.8 7.3 0 10l-65.8 65.8c-1.4 1.4-3.2 2.1-5 2.1zM642.4 364.7c-1.8 0-3.6-.7-5-2.1-2.8-2.8-2.8-7.3 0-10l65.8-65.8c2.8-2.8 7.3-2.8 10 0 2.8 2.8 2.8 7.3 0 10l-65.8 65.8c-1.3 1.4-3.1 2.1-5 2.1z"></path><path d="M236.6 846.8c-21.4 0-42.7-8.1-59-24.4-32.5-32.5-32.5-85.5 0-118s85.5-32.5 118 0 32.5 85.5 0 118c-16.3 16.3-37.7 24.4-59 24.4zm0-152.6c-17.7 0-35.5 6.8-49 20.3-27 27-27 71 0 98s70.9 27 98 0c27-27 27-71 0-98-13.6-13.5-31.3-20.3-49-20.3zM763.5 320c-22.3 0-43.2-8.7-59-24.5-32.5-32.5-32.5-85.5 0-118 15.7-15.8 36.7-24.5 59-24.5s43.2 8.7 59 24.5c32.5 32.5 32.5 85.5 0 118-15.8 15.8-36.7 24.5-59 24.5zm0-152.7c-18.5 0-35.9 7.2-49 20.3-27 27-27 71 0 98 26.1 26.1 71.8 26.1 98 0 27-27 27-71 0-98-13.1-13.1-30.5-20.3-49-20.3z"></path></g></svg>