<svg xmlns="http://www.w3.org/2000/svg" xml:space="preserve" viewBox="0 0 1000 1000"><path fill="none" d="M0 0h1000v1000H0z"></path><g fill="#00AEB1"><path d="M543.8 271.1h-330c-31.6 0-57.3-25.7-57.3-57.3s25.7-57.3 57.3-57.3h330c31.6 0 57.3 25.7 57.3 57.3 0 31.6-25.7 57.3-57.3 57.3zm-330-100.4c-23.8 0-43.1 19.3-43.1 43.1s19.3 43.1 43.1 43.1h330c23.8 0 43.1-19.3 43.1-43.1s-19.4-43.1-43.1-43.1h-330z"></path><path d="M697.9 371.5h-330c-31.6 0-57.3-25.7-57.3-57.3 0-31.6 25.7-57.3 57.3-57.3h330c31.6 0 57.3 25.7 57.3 57.3 0 31.6-25.7 57.3-57.3 57.3zm-330-100.4c-23.8 0-43.1 19.3-43.1 43.1s19.4 43.1 43.1 43.1h330c23.8 0 43.1-19.3 43.1-43.1s-19.3-43.1-43.1-43.1h-330z"></path><path d="M446.8 472h-78.9c-31.6 0-57.3-25.7-57.3-57.3 0-31.6 25.7-57.3 57.3-57.3h330c31.6 0 57.3 25.7 57.3 57.3 0 6-.9 11.9-2.8 17.5-1.2 3.7-5.2 5.8-8.9 4.6-3.7-1.2-5.8-5.2-4.6-8.9 1.4-4.3 2.1-8.7 2.1-13.2 0-23.8-19.3-43.1-43.1-43.1h-330c-23.8 0-43.1 19.3-43.1 43.1s19.3 43.1 43.1 43.1h78.9c3.9 0 7.1 3.2 7.1 7.1s-3.2 7.1-7.1 7.1zM393.8 672.9H277.2c-31.6 0-57.3-25.7-57.3-57.3s25.7-57.3 57.3-57.3h117.3c3.9 0 7.1 3.2 7.1 7.1s-3.2 7.1-7.1 7.1H277.2c-23.8 0-43.1 19.3-43.1 43.1s19.3 43.1 43.1 43.1h116.6c3.9 0 7.1 3.2 7.1 7.1s-3.2 7.1-7.1 7.1z"></path><path d="M447.8 773.3H277.2c-31.6 0-57.3-25.7-57.3-57.3 0-31.6 25.7-57.3 57.3-57.3h117.3c3.9 0 7.1 3.2 7.1 7.1s-3.2 7.1-7.1 7.1H277.2c-23.8 0-43.1 19.3-43.1 43.1s19.3 43.1 43.1 43.1h170.6c3.9 0 7.1 3.2 7.1 7.1s-3.1 7.1-7.1 7.1zM393.8 572.4H277.2c-31.6 0-57.3-25.7-57.3-57.3 0-31.6 25.7-57.3 57.3-57.3h168.5c3.9 0 7.1 3.2 7.1 7.1s-3.2 7.1-7.1 7.1H277.2c-23.8 0-43.1 19.3-43.1 43.1s19.3 43.1 43.1 43.1h116.6c3.9 0 7.1 3.2 7.1 7.1s-3.2 7.1-7.1 7.1z"></path><path d="M613.3 843.5c-127 0-230.2-103.3-230.2-230.2S486.3 383 613.3 383s230.2 103.3 230.2 230.2-103.3 230.3-230.2 230.3zm0-446.3c-119.1 0-216.1 96.9-216.1 216.1s96.9 216.1 216.1 216.1 216.1-96.9 216.1-216.1-97-216.1-216.1-216.1z"></path><path d="M756.2 700.2c-1.2 0-2.4-.3-3.4-.9-3.4-1.9-4.6-6.2-2.7-9.6 13-23.3 19.9-49.7 19.9-76.4 0-60.5-35.4-116.2-90.2-141.8-3.5-1.7-5.1-5.9-3.4-9.4 1.6-3.6 5.9-5.1 9.4-3.4 59.8 28 98.4 88.7 98.4 154.7 0 29.1-7.5 57.9-21.7 83.3-1.4 2.2-3.8 3.5-6.3 3.5zM542.5 772.7c-1 0-2-.2-3-.7-59.8-28-98.4-88.7-98.4-154.7 0-29.1 7.5-57.9 21.7-83.3 1.9-3.4 6.2-4.6 9.6-2.7 3.4 1.9 4.6 6.2 2.7 9.6-13 23.3-19.9 49.7-19.9 76.4 0 60.5 35.4 116.2 90.3 141.8 3.5 1.7 5.1 5.9 3.4 9.4-1.2 2.7-3.7 4.2-6.4 4.2zM610.6 525.5c-3.9 0-7.1-3.2-7.1-7.1v-28.7c0-3.9 3.2-7.1 7.1-7.1s7.1 3.2 7.1 7.1v28.7c0 4-3.2 7.1-7.1 7.1zM610.6 743.9c-3.9 0-7.1-3.2-7.1-7.1v-28.7c0-3.9 3.2-7.1 7.1-7.1s7.1 3.2 7.1 7.1v28.7c0 3.9-3.2 7.1-7.1 7.1z"></path><path d="M615.5 615.4h-14c-27.8 0-50.4-22.6-50.4-50.4s22.6-50.4 50.4-50.4h23.9c14.7 0 28.7 6.5 38.3 17.7 2.6 3 2.2 7.4-.8 10-3 2.5-7.4 2.2-10-.8-6.9-8.1-17-12.7-27.5-12.7h-23.9c-20 0-36.2 16.2-36.2 36.2s16.2 36.2 36.2 36.2h14c3.9 0 7.1 3.2 7.1 7.1s-3.2 7.1-7.1 7.1z"></path><path d="M620.8 712.1h-26.7c-16.2 0-31.5-7.1-42.1-19.5-2.6-3-2.2-7.4.8-10 2.9-2.6 7.4-2.2 10 .8 7.9 9.2 19.3 14.5 31.3 14.5h26.7c22.7 0 41.2-18.5 41.2-41.3 0-22.7-18.5-41.2-41.2-41.2h-15.6c-3.9 0-7.1-3.2-7.1-7.1s3.2-7.1 7.1-7.1h15.6c30.6 0 55.4 24.9 55.4 55.4s-24.8 55.5-55.4 55.5z"></path></g></svg>