<svg xmlns="http://www.w3.org/2000/svg" width="24" height="24" fill="none" viewBox="0 0 24 24"><g clip-path="url(#clip0_201_18)"><path fill="url(#paint0_linear_201_18)" d="M14.014 6.984a6.972 6.972 0 01-2.052 4.938 7.019 7.019 0 01-4.955 2.046 7.019 7.019 0 01-4.955-2.046A6.972 6.972 0 010 6.984c0-1.852.738-3.629 2.052-4.938A7.019 7.019 0 017.007 0c1.859 0 3.64.736 4.955 2.046a6.972 6.972 0 012.052 4.938z"></path><path fill="url(#paint1_linear_201_18)" d="M23.78 17.014a6.966 6.966 0 01-2.053 4.94A7.01 7.01 0 0116.77 24a7.021 7.021 0 01-4.956-2.046 6.974 6.974 0 01-2.053-4.94c0-1.853.738-3.63 2.053-4.94a7.021 7.021 0 017.639-1.515 7.01 7.01 0 013.793 3.781c.353.848.534 1.756.534 2.674z"></path><path fill="#000" fill-rule="evenodd" d="M.026 7.582A7.007 7.007 0 107.879.054 12.732 12.732 0 00.026 7.582z" clip-rule="evenodd" opacity="0.05"></path><path fill="#000" fill-rule="evenodd" d="M23.762 16.512a7.008 7.008 0 10-7.627 7.46 12.732 12.732 0 007.627-7.46z" clip-rule="evenodd" opacity="0.05"></path><path fill="#000" fill-rule="evenodd" d="M.354 9.178A7.004 7.004 0 109.472.445 11.914 11.914 0 00.354 9.178z" clip-rule="evenodd" opacity="0.1"></path><path fill="#000" fill-rule="evenodd" d="M23.443 14.87a7.007 7.007 0 10-8.953 8.752 11.914 11.914 0 008.953-8.752z" clip-rule="evenodd" opacity="0.1"></path><path fill="#000" fill-rule="evenodd" d="M.611 9.84A7.002 7.002 0 1010.126.73 11.51 11.51 0 00.611 9.84z" clip-rule="evenodd" opacity="0.1"></path><path fill="#000" fill-rule="evenodd" d="M23.185 14.194a7.005 7.005 0 10-9.37 9.156 11.51 11.51 0 009.37-9.156z" clip-rule="evenodd" opacity="0.1"></path><path fill="url(#paint2_linear_201_18)" d="M22.99 12.052a11.031 11.031 0 01-3.251 7.822 11.101 11.101 0 01-7.848 3.24 11.13 11.13 0 01-7.848-3.24 11.059 11.059 0 01-3.25-7.822 11.03 11.03 0 013.25-7.822A11.101 11.101 0 0111.891.99a11.13 11.13 0 017.848 3.24 11.03 11.03 0 013.25 7.822z"></path><path fill="#fff" fill-rule="evenodd" d="M8.77 11.668a3.487 3.487 0 01-1.093-1.154 3.189 3.189 0 01-.375-1.594c-.02-.704.221-1.391.676-1.93a4.064 4.064 0 011.76-1.176 6.796 6.796 0 012.304-.388 8.948 8.948 0 011.532.118c.363.056.72.148 1.064.274.316.107.601.29.832.532.17.199.26.453.256.714a1.036 1.036 0 01-.27.745.898.898 0 01-.68.283 1.223 1.223 0 01-.504-.114 9.146 9.146 0 00-1.202-.44 4.364 4.364 0 00-1.159-.144 2.644 2.644 0 00-1.451.372 1.207 1.207 0 00-.58 1.084 1.09 1.09 0 00.302.762c.232.241.507.438.81.58.34.168.846.392 1.52.67.075.024.147.053.218.088.657.26 1.287.584 1.881.967.47.306.865.712 1.159 1.189.289.5.434 1.072.418 1.65a3.32 3.32 0 01-.58 1.991 3.443 3.443 0 01-1.62 1.203 6.83 6.83 0 01-2.434.396 7.672 7.672 0 01-3.32-.628 1.807 1.807 0 01-.683-.53 1.195 1.195 0 01-.222-.724.945.945 0 01.292-.736c.207-.182.477-.277.753-.266.307.005.609.082.88.227.337.168.603.295.797.379a4.005 4.005 0 001.572.309 2.36 2.36 0 001.486-.396 1.309 1.309 0 00.5-1.085c.001-.294-.111-.578-.313-.792a3.333 3.333 0 00-.923-.672c-.407-.214-.98-.476-1.717-.784a10.635 10.635 0 01-1.886-.98" clip-rule="evenodd"></path></g><defs><linearGradient id="paint0_linear_201_18" x1="5.914" x2="8.1" y1="0.085" y2="13.883" gradientUnits="userSpaceOnUse"><stop offset="0.012" stop-color="#00B7F0"></stop><stop offset="0.339" stop-color="#009DE5"></stop><stop offset="0.755" stop-color="#0082D9"></stop><stop offset="1" stop-color="#0078D4"></stop></linearGradient><linearGradient id="paint1_linear_201_18" x1="10.703" x2="22.837" y1="20.516" y2="13.511" gradientUnits="userSpaceOnUse"><stop stop-color="#0078D4"></stop><stop offset="0.37" stop-color="#007AD5"></stop><stop offset="0.573" stop-color="#0082D9"></stop><stop offset="0.735" stop-color="#0090DF"></stop><stop offset="0.875" stop-color="#00A3E7"></stop><stop offset="1" stop-color="#00BCF2"></stop></linearGradient><linearGradient id="paint2_linear_201_18" x1="7.56" x2="18.633" y1="4.551" y2="23.73" gradientUnits="userSpaceOnUse"><stop stop-color="#00B7F0"></stop><stop offset="1" stop-color="#007CC1"></stop></linearGradient><clipPath id="clip0_201_18"><path fill="#fff" d="M0 0H23.78V24H0z"></path></clipPath></defs></svg>