<svg xmlns="http://www.w3.org/2000/svg" width="24" height="24" fill="none" viewBox="0 0 24 24"><g clip-path="url(#clip0_201_2)"><path fill="url(#paint0_linear_201_2)" d="M12 24c6.627 0 12-5.373 12-12S18.627 0 12 0 0 5.373 0 12s5.373 12 12 12z"></path><path fill="#fff" fill-rule="evenodd" d="M5.432 11.873c3.498-1.524 5.83-2.529 6.998-3.014 3.332-1.386 4.025-1.627 4.476-1.635.1-.002.322.023.465.14a.505.505 0 01.171.325c.016.093.036.306.02.472-.18 1.898-.962 6.502-1.36 8.627-.168.9-.499 1.201-.82 1.23-.696.065-1.226-.46-1.9-.902-1.057-.693-1.653-1.124-2.678-1.8-1.185-.78-.417-1.21.258-1.91.177-.184 3.247-2.977 3.307-3.23.007-.032.014-.15-.056-.212-.07-.063-.174-.041-.249-.024-.106.024-1.793 1.139-5.061 3.345-.48.33-.913.49-1.302.481-.428-.01-1.252-.242-1.865-.441-.752-.245-1.349-.374-1.297-.789.027-.216.325-.437.893-.663z" clip-rule="evenodd"></path></g><defs><linearGradient id="paint0_linear_201_2" x1="12" x2="12" y1="0" y2="23.822" gradientUnits="userSpaceOnUse"><stop stop-color="#2AABEE"></stop><stop offset="1" stop-color="#229ED9"></stop></linearGradient><clipPath id="clip0_201_2"><path fill="#fff" d="M0 0H24V24H0z"></path></clipPath></defs></svg>