<svg xmlns="http://www.w3.org/2000/svg" width="24" height="24" fill="none" viewBox="0 0 24 24"><path fill="url(#paint0_linear_201_12)" d="M12.005 0C5.385 0 .002 5.38 0 11.995a11.965 11.965 0 001.835 6.383l.285.454L.908 23.26l4.541-1.191.439.26A11.985 11.985 0 0011.996 24H12c6.614 0 11.997-5.382 12-11.996a11.918 11.918 0 00-3.512-8.486A11.922 11.922 0 0012.005 0z"></path><path fill="#fff" fill-rule="evenodd" d="M8.392 5.96c-.27-.6-.555-.613-.812-.623l-.692-.008c-.24 0-.631.09-.961.45-.33.362-1.263 1.235-1.263 3.01 0 1.774 1.293 3.489 1.473 3.73.18.24 2.495 3.999 6.162 5.445 3.047 1.202 3.668.963 4.33.902.66-.06 2.133-.872 2.434-1.715.3-.842.3-1.563.21-1.714-.09-.151-.33-.24-.691-.421-.361-.181-2.135-1.053-2.465-1.174-.33-.12-.571-.18-.812.18-.24.362-.931 1.174-1.142 1.415-.21.24-.42.27-.782.09-.36-.18-1.522-.561-2.9-1.79-1.073-.956-1.797-2.137-2.008-2.498-.21-.36-.022-.556.159-.736.162-.162.36-.421.541-.632.181-.21.24-.36.36-.601.12-.24.06-.451-.03-.632-.09-.18-.79-1.964-1.111-2.678" clip-rule="evenodd"></path><defs><linearGradient id="paint0_linear_201_12" x1="11.756" x2="11.877" y1="1.44" y2="21.95" gradientUnits="userSpaceOnUse"><stop stop-color="#57D163"></stop><stop offset="1" stop-color="#23B33A"></stop></linearGradient></defs></svg>