<svg xmlns="http://www.w3.org/2000/svg" xml:space="preserve" id="free_svg__Layer_1" x="0" y="0" viewBox="0 0 1000 1000"><style>.free_svg__st1{fill:#00afb2}</style><path d="M458.3 891.5c-103.9 0-208-72.3-258.4-186.7-65.3-148.1-16.4-313.5 108.9-368.7 53.8-23.7 115.7-24.1 174.6-1.2 50.5-28.2 105.1-36.9 158-25.3 133.7 29.4 214.2 182 179.4 340-34.5 157.2-170.4 261.8-303.5 233.7-19.3 5.6-39.2 8.2-59 8.2zm-62.6-559.3c-28.1 0-55.7 5.6-81.2 16.9-118.1 52.1-163.7 209.1-101.6 350 57.4 130.4 187.4 203.6 302.2 170.2 1.1-.4 2.4-.4 3.5-.1C644.5 896.8 774 797 807.1 646.6c33.1-150.4-42.6-295.4-168.6-323.1-50.6-11.1-102.7-2.3-150.9 25.4-1.9 1.1-4.2 1.3-6.2.4-28.3-11.4-57.3-17.1-85.7-17.1z" class="free_svg__st1"></path><path d="M486.6 345.1c-3.2 0-6-2.1-6.9-5.3-9.3-36.1-18.9-73.4-35.2-94.8-15.7-20.7-38.5-27.6-62.7-35-3.7-1.1-5.8-5.1-4.7-8.8s5-5.8 8.9-4.7c25.2 7.7 51.4 15.6 69.8 39.9 18 23.7 28 62.4 37.6 99.9 1 3.8-1.3 7.6-5.1 8.6-.6.2-1.1.2-1.7.2zM510 303.9c-1.2 0-2.4-.2-3.5-.5-6.2-1.9-8.2-8.1-8.8-10.1-4.2-13-3.9-43.6 9.6-70.9 12.8-25.8 38.4-49.9 70.2-65.9 25.7-13 54.9-20.4 78.4-26.4l12-3.1c25.9-6.8 44-13.2 52.7-16.2 6.2-2.2 11.5-4 14.8 1.4 3.3 5.6.5 8.2-11.4 19.2-14 12.9-39.1 36.1-73.6 65.2-34.4 29.1-77.8 63.6-103.6 84.2-20.3 15.9-29.3 23.1-36.8 23.1zm1.7-13.3h.2-.2zm190.8-159c-8.6 2.7-19 5.8-31.1 9l-12.1 3.1c-24 6.1-51.2 13-75.5 25.3-29.1 14.7-52.4 36.4-63.9 59.6-12.1 24.4-11.7 51.4-8.8 60.4 0 .1.1.2.1.3 4.5-2 14.7-10.2 25.5-18.8 26.9-21.5 70.1-55.9 104.4-84.9 26.3-22.2 47.1-40.9 61.4-54zM416.2 585.8c-33.4 0-60.6-27.2-60.6-60.6v-33.5c0-33.4 27.2-60.6 60.6-60.6 33.4 0 60.6 27.2 60.6 60.6v33.5c0 33.4-27.2 60.6-60.6 60.6zm0-140.6c-25.6 0-46.4 20.8-46.4 46.4v33.5c0 25.6 20.8 46.4 46.4 46.4 25.6 0 46.4-20.8 46.4-46.4v-33.5c0-25.5-20.8-46.4-46.4-46.4zM583.8 765c-33.4 0-60.6-27.2-60.6-60.6v-33.5c0-33.4 27.2-60.6 60.6-60.6s60.6 27.2 60.6 60.6v33.5c0 33.4-27.2 60.6-60.6 60.6zm0-140.5c-25.6 0-46.4 20.8-46.4 46.4v33.5c0 25.6 20.8 46.4 46.4 46.4s46.4-20.8 46.4-46.4v-33.5c0-25.6-20.8-46.4-46.4-46.4zM419.4 736.7c-1.3 0-2.6-.3-3.7-1.1-3.3-2.1-4.4-6.4-2.3-9.8l156-252.7c2.1-3.3 6.4-4.4 9.7-2.3 3.3 2.1 4.4 6.4 2.3 9.8l-156 252.7c-1.3 2.2-3.6 3.4-6 3.4z" class="free_svg__st1"></path></svg>