<svg xmlns="http://www.w3.org/2000/svg" xml:space="preserve" viewBox="0 0 1000 1000"><path fill="none" d="M0 0h1000v1000H0z"></path><g fill="#00AFB2"><path d="M500.2 534.6c-3.9 0-7.1-3.2-7.1-7.1V193.6c0-3.9 3.2-7.1 7.1-7.1s7.1 3.2 7.1 7.1v333.9c0 3.9-3.2 7.1-7.1 7.1z"></path><path d="M582.9 291.2c-2.1 0-4.1-.9-5.5-2.7l-81.5-102.1c-2.4-3.1-1.9-7.5 1.1-10 3-2.4 7.5-1.9 10 1.1l81.5 102.1c2.4 3.1 1.9 7.5-1.1 10-1.4 1.1-3 1.6-4.5 1.6z"></path><path d="M417.2 291.2c-1.6 0-3.1-.5-4.4-1.6-3.1-2.4-3.6-6.9-1.1-10l81.5-102.1c2.5-3.1 6.9-3.5 10-1.1 3.1 2.4 3.6 6.9 1.1 10l-81.5 102.1c-1.5 1.7-3.6 2.7-5.6 2.7zM501.4 550.5c-1.6 0-3.1-.5-4.4-1.6-3.1-2.4-3.6-6.9-1.1-10l81.5-102.1c2.5-3.1 6.9-3.5 10-1.1 3.1 2.4 3.6 6.9 1.1 10L507 547.8c-1.5 1.8-3.5 2.7-5.6 2.7z"></path><path d="M498.6 550.5c-2.1 0-4.1-.9-5.5-2.7l-81.5-102.1c-2.4-3.1-1.9-7.5 1.1-10 3.1-2.4 7.5-1.9 10 1.1L504.2 539c2.4 3.1 1.9 7.5-1.1 10-1.4 1-2.9 1.5-4.5 1.5z"></path><path d="M889.1 825.1H110.6c-9.1 0-17.5-3.7-23.7-10.4-6.7-7.3-10.1-17.5-9.3-28L108.8 394c1.4-18.1 17.2-32.8 35.1-32.8h298.6c3.9 0 7.1 3.2 7.1 7.1s-3.2 7.1-7.1 7.1H143.8c-10.5 0-20.1 9-21 19.7l-31 392.8c-.5 6.6 1.5 12.9 5.5 17.3 3.5 3.7 8.2 5.8 13.3 5.8h778.5c5.2 0 10-2.1 13.5-5.9 4.1-4.4 6.1-10.7 5.6-17.2l-30-392.7c-.8-10.7-10.5-19.7-21.1-19.7H547.9c-3.9 0-7.1-3.2-7.1-7.1s3.2-7.1 7.1-7.1h309.2c18.1 0 33.9 14.7 35.2 32.8l30 392.7c.8 10.4-2.6 20.6-9.4 27.9-6.1 6.7-14.6 10.4-23.8 10.4z"></path><path d="M890.7 591.3h-781c-3.9 0-7.1-3.2-7.1-7.1s3.2-7.1 7.1-7.1h781c3.9 0 7.1 3.2 7.1 7.1s-3.2 7.1-7.1 7.1zM285.7 752.6H152.3c-3.9 0-7.1-3.2-7.1-7.1s3.2-7.1 7.1-7.1h133.4c3.9 0 7.1 3.2 7.1 7.1s-3.1 7.1-7.1 7.1zM468.3 752.6H334.9c-3.9 0-7.1-3.2-7.1-7.1s3.2-7.1 7.1-7.1h133.5c3.9 0 7.1 3.2 7.1 7.1s-3.2 7.1-7.2 7.1zM678.8 780.3c-44.7 0-81.8-38.5-82.7-85.8-.4-23.3 8-44.9 23.6-60.9 14.5-14.7 33.7-22.9 54.1-22.9 43.4 0 80.4 37.4 82.5 83.3 1.1 23.6-7.2 46.4-22.8 62.7-14.4 15.3-33.9 23.6-54.7 23.6zm-5-155.3c-16.6 0-32.2 6.6-44 18.6-13 13.2-19.9 31.2-19.6 50.7.7 39.6 31.5 71.9 68.5 71.9 16.9 0 32.7-6.8 44.5-19.2 12.9-13.5 19.8-32.5 18.8-52.3-1.6-38.4-32.3-69.7-68.2-69.7z"></path><path d="M777.6 780.3c-44.6 0-82.4-38.4-84.1-85.7-.9-23.3 7.1-45 22.5-60.9 14.2-14.8 33.3-22.9 53.7-22.9 43.3 0 81 37.3 84 83.1 1.5 23.6-6.4 46.5-21.7 62.8-14.2 15.3-33.5 23.6-54.4 23.6zM769.8 625c-16.5 0-32 6.6-43.5 18.6-12.7 13.2-19.3 31.1-18.6 50.6 1.5 39.7 32.8 72 70 72 16.9 0 32.5-6.8 44.1-19.1 12.6-13.5 19.1-32.5 17.9-52.2-2.6-38.5-33.9-69.9-69.9-69.9z"></path></g></svg>