<svg xmlns="http://www.w3.org/2000/svg" xml:space="preserve" viewBox="0 0 1000 1000"><path fill="none" d="M0 0h1000v1000H0z"></path><g fill="#00AFB2"><path d="M695.1 946.9H305c-3.9 0-7.1-3.2-7.1-7.1 0-47.6 102.8-76.1 202.1-76.1s202.1 28.4 202.1 76.1c.1 3.9-3.1 7.1-7 7.1zm-381.6-14.2h373c-11.1-27.2-84.6-54.8-186.5-54.8s-175.4 27.6-186.5 54.8z"></path><path d="M500 877.9c-3.9 0-7.1-3.2-7.1-7.1v-296c0-3.9 3.2-7.1 7.1-7.1s7.1 3.2 7.1 7.1v296c0 3.9-3.2 7.1-7.1 7.1z"></path><path d="M500 582.2c-1.9 0-3.7-.8-5.1-2.1L192.9 273c-2-2-2.6-5.1-1.5-7.7 1.1-2.6 3.7-4.4 6.5-4.4h353.6c3.9 0 7.1 3.2 7.1 7.1s-3.2 7.1-7.1 7.1H214.8L500 565l285.2-290H629.6c-3.9 0-7.1-3.2-7.1-7.1s3.2-7.1 7.1-7.1h172.6c2.9 0 5.4 1.7 6.5 4.4 1.1 2.6.5 5.7-1.5 7.7L505.1 580.1c-1.4 1.3-3.2 2.1-5.1 2.1zM630.4 234.3c-7.5 0-15-1.6-22-4.8-26.6-12.2-38.4-43.7-26.2-70.3 12.2-26.6 43.8-38.3 70.3-26.2 26.6 12.2 38.4 43.7 26.2 70.3-5.9 12.9-16.5 22.7-29.7 27.7-6.1 2.2-12.3 3.3-18.6 3.3zm.1-92c-14.8 0-28.9 8.4-35.4 22.7-8.9 19.5-.3 42.6 19.2 51.6 9.5 4.3 20 4.7 29.7 1.1s17.5-10.8 21.8-20.3c8.9-19.5.3-42.6-19.2-51.6-5.2-2.4-10.7-3.5-16.1-3.5z"></path><path d="M549.2 366.1c-1 0-2-.2-2.9-.6-3.6-1.6-5.1-5.8-3.5-9.4l61.5-134.4c1.6-3.6 5.9-5.1 9.4-3.5 3.6 1.6 5.1 5.8 3.5 9.4L555.7 362c-1.3 2.5-3.9 4.1-6.5 4.1zM650.2 145c-1 0-2-.2-2.9-.6-3.6-1.6-5.1-5.8-3.5-9.4l35.5-77.7c1.6-3.6 5.8-5.1 9.4-3.5 3.6 1.6 5.1 5.8 3.5 9.4l-35.5 77.7c-1.2 2.6-3.8 4.1-6.5 4.1zM328.8 369.1c-36.6 0-64.2-14.2-64.2-33 0-3.9 3.2-7.1 7.1-7.1s7.1 3.2 7.1 7.1c0 7.7 19.5 18.8 50 18.8s50-11.1 50-18.8c0-3.9 3.2-7.1 7.1-7.1s7.1 3.2 7.1 7.1c-.1 18.8-27.6 33-64.2 33z"></path><path d="M442.9 369.1c-36.6 0-64.2-14.2-64.2-33 0-3.9 3.2-7.1 7.1-7.1s7.1 3.2 7.1 7.1c0 7.7 19.5 18.8 50 18.8s50-11.1 50-18.8c0-3.9 3.2-7.1 7.1-7.1s7.1 3.2 7.1 7.1c0 18.8-27.6 33-64.2 33z"></path><path d="M557.1 369.1c-36.6 0-64.2-14.2-64.2-33 0-3.9 3.2-7.1 7.1-7.1s7.1 3.2 7.1 7.1c0 7.7 19.5 18.8 50 18.8s50-11.1 50-18.8c0-3.9 3.2-7.1 7.1-7.1s7.1 3.2 7.1 7.1c0 18.8-27.6 33-64.2 33z"></path><path d="M671.3 369.1c-36.6 0-64.2-14.2-64.2-33 0-3.9 3.2-7.1 7.1-7.1s7.1 3.2 7.1 7.1c0 7.7 19.5 18.8 50 18.8s50-11.1 50-18.8c0-3.9 3.2-7.1 7.1-7.1s7.1 3.2 7.1 7.1c-.1 18.8-27.7 33-64.2 33z"></path></g></svg>