<svg xmlns="http://www.w3.org/2000/svg" xml:space="preserve" viewBox="0 0 1000 1000"><path fill="none" d="M0 0h1000v1000H0z"></path><g fill="#FFF"><path d="M760.3 872H239.8c-12.1 0-22-9.9-22-22V150c0-12.1 9.9-22 22-22h520.4c12.1 0 22 9.9 22 22v700c0 12.1-9.8 22-21.9 22zM239.8 142.2c-4.3 0-7.8 3.5-7.8 7.8v700c0 4.3 3.5 7.8 7.8 7.8h520.4c4.3 0 7.8-3.5 7.8-7.8V150c0-4.3-3.5-7.8-7.8-7.8H239.8z"></path><path d="M419.7 363.3H303.3c-5.7 0-10.4-4.7-10.4-10.4V236.5c0-5.7 4.7-10.4 10.4-10.4h116.4c5.7 0 10.4 4.7 10.4 10.4V247c0 3.9-3.2 7.1-7.1 7.1s-7.1-3.2-7.1-7.1v-6.7H307.1v108.9h108.8v-39.9c0-3.9 3.2-7.1 7.1-7.1s7.1 3.2 7.1 7.1v43.6c0 5.7-4.7 10.4-10.4 10.4zM692 243.6H501.2c-3.9 0-7.1-3.2-7.1-7.1s3.2-7.1 7.1-7.1H692c3.9 0 7.1 3.2 7.1 7.1s-3.2 7.1-7.1 7.1zM634.1 298.5H501.2c-3.9 0-7.1-3.2-7.1-7.1s3.2-7.1 7.1-7.1H634c3.9 0 7.1 3.2 7.1 7.1s-3.1 7.1-7 7.1zM667.9 353.3H501.2c-3.9 0-7.1-3.2-7.1-7.1s3.2-7.1 7.1-7.1h166.7c3.9 0 7.1 3.2 7.1 7.1s-3.2 7.1-7.1 7.1zM419.7 570H303.3c-5.7 0-10.4-4.7-10.4-10.4V443.2c0-5.7 4.7-10.4 10.4-10.4h116.4c5.7 0 10.4 4.7 10.4 10.4v116.4c0 5.7-4.7 10.4-10.4 10.4zm-112.6-14.2h108.8V446.9H307.1v108.9zm112.6-108.9h.2-.2zM692 453.6H501.2c-3.9 0-7.1-3.2-7.1-7.1s3.2-7.1 7.1-7.1H692c3.9 0 7.1 3.2 7.1 7.1s-3.2 7.1-7.1 7.1zM634.1 508.5H501.2c-3.9 0-7.1-3.2-7.1-7.1s3.2-7.1 7.1-7.1H634c3.9 0 7.1 3.2 7.1 7.1s-3.1 7.1-7 7.1zM667.9 563.3H501.2c-3.9 0-7.1-3.2-7.1-7.1s3.2-7.1 7.1-7.1h166.7c3.9 0 7.1 3.2 7.1 7.1s-3.2 7.1-7.1 7.1zM419.7 776.6H303.3c-5.7 0-10.4-4.7-10.4-10.4V649.8c0-5.7 4.7-10.4 10.4-10.4h116.4c5.7 0 10.4 4.7 10.4 10.4v116.4c0 5.7-4.7 10.4-10.4 10.4zm-112.6-14.2h108.8V653.6H307.1v108.8zm112.6-108.8h.2-.2zM692 663.5H501.2c-3.9 0-7.1-3.2-7.1-7.1s3.2-7.1 7.1-7.1H692c3.9 0 7.1 3.2 7.1 7.1s-3.2 7.1-7.1 7.1zM634.1 718.4H501.2c-3.9 0-7.1-3.2-7.1-7.1s3.2-7.1 7.1-7.1H634c3.9 0 7.1 3.2 7.1 7.1s-3.1 7.1-7 7.1zM667.9 773.3H501.2c-3.9 0-7.1-3.2-7.1-7.1s3.2-7.1 7.1-7.1h166.7c3.9 0 7.1 3.2 7.1 7.1s-3.2 7.1-7.1 7.1z"></path><path d="M365.1 336.7c-1.9 0-3.8-.8-5.2-2.3L325.6 297c-2.6-2.9-2.4-7.4.4-10 2.9-2.6 7.4-2.4 10 .4l29.5 32.3 71.2-63.2c2.9-2.6 7.4-2.3 10 .6 2.6 2.9 2.3 7.4-.6 10l-76.5 67.8c-1.2 1.2-2.9 1.8-4.5 1.8z"></path></g></svg>