<svg xmlns="http://www.w3.org/2000/svg" xml:space="preserve" viewBox="0 0 1000 1000"><path fill="none" d="M0 0h1000v1000H0z"></path><g fill="#FFF"><path d="M317.6 685.2c-1.8 0-3.6-.7-5-2.1-2-2-2.6-4.9-1.6-7.5l60-156.8c1.4-3.7 5.5-5.5 9.1-4.1 3.7 1.4 5.5 5.5 4.1 9.1l-54.3 141.9 143.6-55.2c3.6-1.4 7.7.4 9.2 4.1 1.4 3.6-.4 7.8-4.1 9.2l-158.5 61c-.8.2-1.6.4-2.5.4z"></path><path d="M477.7 622.6c-1.8 0-3.6-.7-5-2.1l-97.2-97.2c-1.3-1.3-2.1-3.1-2.1-5s.8-3.7 2.1-5l371.1-371.1c2.8-2.8 7.3-2.8 10 0l97.2 97.1c1.3 1.3 2.1 3.1 2.1 5s-.8 3.7-2.1 5L482.7 620.5c-1.4 1.4-3.2 2.1-5 2.1zm-87.1-104.2 87.1 87.1 361-361-87.1-87.1-361 361zM388.3 652.2c-1.8 0-3.6-.7-5-2.1l-41-41c-2.8-2.8-2.8-7.3 0-10 2.8-2.8 7.3-2.8 10 0l41 41c2.8 2.8 2.8 7.3 0 10-1.4 1.4-3.2 2.1-5 2.1z"></path><path d="M808.7 289.9c-1.8 0-3.6-.7-5-2.1L713 197.1c-2.8-2.8-2.8-7.3 0-10 2.8-2.8 7.3-2.8 10 0l90.7 90.7c2.8 2.8 2.8 7.3 0 10-1.3 1.4-3.1 2.1-5 2.1zM682.1 859.8H230.9c-47.8 0-86.7-38.9-86.7-86.7V321.8c0-47.8 38.9-86.7 86.7-86.7h364.3c3.9 0 7.1 3.2 7.1 7.1s-3.2 7.1-7.1 7.1H230.9c-40 0-72.5 32.5-72.5 72.5V773c0 40 32.5 72.5 72.5 72.5h451.2c40 0 72.5-32.5 72.5-72.5V393.2c0-3.9 3.2-7.1 7.1-7.1s7.1 3.2 7.1 7.1v379.9c0 47.8-38.9 86.7-86.7 86.7z"></path><path d="M680.3 814.3H232.7c-23.8 0-43.1-19.3-43.1-43.1V323.7c0-23.7 19.3-43.1 43.1-43.1h316.7c3.9 0 7.1 3.2 7.1 7.1s-3.2 7.1-7.1 7.1H232.7c-15.9 0-28.9 13-28.9 28.9v447.6c0 15.9 13 28.9 28.9 28.9h447.6c15.9 0 28.9-13 28.9-28.9V437.4c0-3.9 3.2-7.1 7.1-7.1s7.1 3.2 7.1 7.1v333.9c0 23.7-19.4 43-43.1 43z"></path></g></svg>