<svg xmlns="http://www.w3.org/2000/svg" viewBox="0 0 1000 1000"><path fill="none" d="M0 0h1000v1000H0z"></path><g fill="#00AEB1"><path d="M499.9 831.3c-.3 0-.6 0-.8-.1-16.9-1.9-84.4-47.4-85.1-47.9-31.5-21.6-77.3-56.2-111.3-106.3-30.2-44.5-52.9-103.6-69.3-180.8-13.9-65.2-21.9-136.3-26.8-184.1-4-39.7-3.8-40.5-3.3-42.3 1.1-4.3 1.1-4.3 20.9-7.9 15.2-2.8 46.7-8.6 75.3-23.5 12.1-6.3 23.7-14.2 36-22.5 16.9-11.4 34.3-23.3 53.8-31.3 34.9-14.4 75.3-16.1 110.6-15.8 35.2-.3 75.7 1.5 110.6 15.8 19.5 8 37 19.9 53.8 31.3 12.3 8.3 23.9 16.2 36 22.5 28.6 14.9 60.2 20.7 75.3 23.5 19.7 3.7 19.7 3.7 20.9 7.9.5 1.8.7 2.6-3.3 42.3-4.9 47.8-12.9 118.9-26.8 184.1-16.4 77.2-39.1 136.3-69.3 180.8-34 50.1-79.8 84.6-111.3 106.3-.7.5-68.1 46.1-85.1 47.9-.3.1-.1.3-.9.1h.1zM215.7 276.1c.4 4.3 1.3 14.1 3.4 34.7 4.8 47.5 12.8 118.2 26.6 182.8 16.1 75.5 38.1 133.2 67.4 176.4 32.8 48.3 77.4 81.9 108 103 16.6 11.4 70.1 44.9 78.7 45.8 9.1-.9 63.2-34.8 79.3-45.8 30.7-21.1 75.2-54.7 108-103 29.3-43.1 51.3-100.8 67.4-176.4 13.7-64.6 21.7-135.2 26.6-182.8 2.1-20.2 3-30 3.3-34.7-2.3-.4-5.7-1-10.8-2-15.8-2.9-48.5-9-78.8-24.7-12.8-6.6-25.2-15.1-37.3-23.3-16.3-11.1-33.3-22.5-51.6-30.1-32.9-13.5-72-15.1-105.8-14.9h-.1c-34-.4-72.9 1.4-105.8 14.9-18.3 7.5-35.2 19-51.6 30.1-12.1 8.2-24.5 16.6-37.3 23.3-30.3 15.8-63.1 21.8-78.8 24.7-5.2 1-8.6 1.6-10.8 2z"></path><path d="M498 772.9c-.3 0-.5 0-.8-.1-3.4-.5-5.8-3.7-5.3-7.1.5-3.4 3.8-5.7 7.1-5.3 6.8-1.1 52.4-29.9 66.5-39.7 26.3-18.3 64.6-47.4 92.8-89.3 1.9-2.9 5.8-3.6 8.7-1.7 2.9 1.9 3.6 5.8 1.7 8.7-29.3 43.6-68.8 73.7-96 92.6-.6.5-61.2 41.9-74.7 41.9zM265.7 350.6c-3.2 0-5.9-2.4-6.2-5.6-3.4-33.4-3.4-33.4-2.7-35.3 1-3.9 1-3.9 18.6-7.2 5.7-1.1 35.4-7.1 64.6-22.4 10.4-5.4 20.3-12.3 30.9-19.5 14.6-10 29.6-20.3 46.5-27.3 30.2-12.5 65.2-14.2 95.6-13.8 3.4 0 6.2 2.8 6.2 6.3 0 3.4-2.8 6.2-6.2 6.2-1 .5-3.1 0-4.7 0-27.9 0-59.4 1.8-86 12.9-15.7 6.5-30.2 16.5-44.2 26.1-10.4 7.1-21.2 14.5-32.2 20.3-23.8 12.5-50.8 20.4-68.1 23.7-3.8.7-6.6 1.2-8.5 1.6.5 4.3 1.3 13.2 2.8 27.4.3 3.4-2.2 6.5-5.6 6.8-.3-.2-.6-.2-.8-.2zm331.6 247.3c-1.1 0-2.2-.3-3.1-.8l-95.8-55.5L408 597c-2.1 1.3-4.8 1.2-6.9-.2-2-1.4-3-4-2.5-6.4l23.2-108.3-80.7-68.8c-1.9-1.6-2.6-4.2-1.9-6.6.7-2.4 2.8-4.1 5.3-4.4l110.2-11.4 40.5-98c.9-2.3 3.2-3.8 5.7-3.8 2.6-.4 4.8 1.4 5.8 3.7l44.9 101.3 105.7 8.2c2.5.2 4.6 1.9 5.4 4.2.8 2.4.1 5-1.7 6.6l-82.4 74 24.8 103c.6 2.4-.3 5-2.3 6.5-1.2.9-2.5 1.3-3.8 1.3zm-99-69.9c1.1 0 2.2.3 3.1.8l86.5 50.1-22.3-92.5c-.5-2.2.2-4.6 1.9-6.1l74.3-66.7-94.9-7.4c-2.3-.2-4.3-1.6-5.2-3.7l-40.5-91.3-36.4 87.9c-.9 2.1-2.8 3.6-5.1 3.8l-99.4 10.3 72.4 61.7c1.7 1.5 2.5 3.8 2.1 6.1l-20.9 97.7L495 529c1-.7 2.1-1 3.3-1zm-39.2-131.2h.2-.2z"></path><path d="M557.5 543.4c-1.1 0-2.2-.3-3.1-.8l-54.9-31.8-51.7 31.7c-2.1 1.3-4.8 1.2-6.9-.2-2-1.4-3-4-2.5-6.4l13.3-62-46.1-39.3c-1.9-1.6-2.6-4.2-1.9-6.6.7-2.4 2.8-4.1 5.3-4.4l63.1-6.5 23.2-56.1c.9-2.3 3.2-3.8 5.7-3.8 2.6-.1 4.8 1.4 5.8 3.7l25.7 58 60.5 4.7c2.5.2 4.6 1.9 5.4 4.2.8 2.4.1 5-1.7 6.6l-47.2 42.4 14.2 59c.6 2.4-.3 5-2.3 6.5-1.3.7-2.6 1.1-3.9 1.1zm-58.1-46.2c1.1 0 2.2.3 3.1.8l45.5 26.4-11.6-48.4c-.5-2.2.2-4.6 1.9-6.1l39.2-35.1-49.7-3.9c-2.3-.2-4.3-1.6-5.2-3.7l-21.3-48.1-19 46c-.9 2.1-2.8 3.6-5.1 3.8l-52.3 5.4 37.9 32.3c1.7 1.5 2.5 3.8 2.1 6.1l-11 51.4 42.4-26c.8-.6 2-.9 3.1-.9zm-23-74.4h.2-.2z"></path></g></svg>