<svg xmlns="http://www.w3.org/2000/svg" viewBox="0 0 1000 1000"><path fill="none" d="M0 0h1000v1000H0z"></path><g fill="#00AEB1"><path d="M723.4 432.7c-3.4 0-6.2-2.8-6.2-6.2v-30.2c0-3.4 2.8-6.2 6.2-6.2s6.2 2.8 6.2 6.2v30.2c0 3.5-2.8 6.2-6.2 6.2zm0 229.6c-3.4 0-6.2-2.8-6.2-6.2v-30.2c0-3.4 2.8-6.2 6.2-6.2s6.2 2.8 6.2 6.2V656c0 3.5-2.8 6.3-6.2 6.3z"></path><path d="M728.5 527.2h-14.7c-28.5 0-51.7-23.2-51.7-51.7s23.2-51.7 51.7-51.7h25.1c15.1 0 29.4 6.6 39.3 18.2 2.2 2.6 1.9 6.6-.7 8.8-2.6 2.2-6.5 1.9-8.8-.7-7.5-8.8-18.4-13.8-29.8-13.8h-25.1c-21.6 0-39.2 17.6-39.2 39.2s17.6 39.2 39.2 39.2h14.7c3.4 0 6.2 2.8 6.2 6.2s-2.7 6.3-6.2 6.3z"></path><path d="M734.2 628.8h-28c-16.7 0-32.5-7.3-43.4-20.1-2.2-2.6-1.9-6.6.7-8.8 2.6-2.2 6.6-1.9 8.8.7 8.5 10 20.9 15.7 33.9 15.7h28c24.6 0 44.6-20 44.6-44.6s-20-44.6-44.6-44.6h-16.4c-3.4 0-6.2-2.8-6.2-6.2s2.8-6.2 6.2-6.2h16.4c31.5 0 57 25.6 57 57.1s-25.6 57-57 57zM459.7 396.9h-.4l-145.7-10.1c-3.4-.2-6-3.2-5.8-6.6.2-3.4 3.2-6.1 6.6-5.8l136.1 9.4L404 255.5c-1.2-3.2.5-6.8 3.7-8 3.2-1.1 6.8.5 8 3.7l49.8 137.3c.7 2 .4 4.2-.9 5.9-1.1 1.6-3 2.5-4.9 2.5z"></path><path d="M273.5 752.9c-27 0-54-4.8-80-14.5C136.3 717 90.8 674.7 65.4 619.1 40 563.5 37.7 501.4 59.1 444.2S122.8 341.4 178.3 316c94.9-43.4 207.1-17 272.8 64 2.2 2.7 1.8 6.6-.9 8.8-2.7 2.1-6.6 1.8-8.8-.9-62.1-76.7-168.2-101.5-257.9-60.5-52.5 24-92.6 67-112.7 121.2-20.2 54.1-18.1 112.9 6 165.4 24 52.5 67 92.6 121.2 112.7 54.1 20.2 112.9 18.1 165.4-6 64.1-29.3 110-88.2 122.8-157.5.6-3.4 4-5.6 7.3-5 3.4.6 5.6 3.9 5 7.3-13.5 73.3-62.1 135.6-129.9 166.6-30.5 13.8-62.7 20.8-95.1 20.8zm453.2-.1c-67.4 0-133.3-29.8-177.8-84.8-2.2-2.7-1.8-6.6.9-8.8 2.7-2.2 6.6-1.8 8.8.9 62.1 76.6 168.2 101.5 257.9 60.6 52.5-24 92.6-67 112.8-121.2 20.2-54.1 18.1-112.9-6-165.4-49.6-108.4-178.1-156.4-286.6-106.8-64.1 29.3-110 88.2-122.8 157.5-.6 3.4-3.9 5.6-7.3 5-3.4-.6-5.6-3.9-5-7.3 13.5-73.3 62.1-135.6 129.9-166.6 114.8-52.4 250.7-1.7 303.1 113 25.4 55.6 27.6 117.7 6.3 174.9S877.2 706.6 821.6 732c-30.5 14.1-62.9 20.8-94.9 20.8z"></path><path d="M492.2 571.7c-.4 0-.8 0-1.2-.1-3.4-.6-5.6-3.9-5-7.3l16.2-85.4c.6-3.4 3.9-5.6 7.3-5s5.6 3.9 5 7.3l-16.2 85.4c-.5 3.1-3.1 5.1-6.1 5.1zm234 135.6c-99.9 0-181.1-81.3-181.1-181.2 0-99.9 81.3-181.1 181.1-181.1 99.9 0 181.1 81.3 181.1 181.1.1 100-81.2 181.2-181.1 181.2zm0-349.8c-93 0-168.7 75.7-168.7 168.7s75.7 168.7 168.7 168.7 168.7-75.7 168.7-168.7-75.7-168.7-168.7-168.7z"></path></g></svg>