<svg xmlns="http://www.w3.org/2000/svg" viewBox="0 0 1000 1000"><path fill="none" d="M0 0h1000v1000H0z"></path><path fill="#00AEB1" d="M466.6 814c-83.4 0-166.9-58-207.4-149.8-52.4-118.9-13.1-251.6 87.4-295.9 43.1-19 92.7-19.4 140-1.1 40.4-22.5 84.2-29.5 126.7-20.2 107.3 23.6 172 146 144.1 272.9C729.7 746 620.8 829.8 513.9 807.5c-15.5 4.4-31.4 6.5-47.3 6.5zm-50.1-447.8c-22.5 0-44.4 4.5-64.8 13.4-94.3 41.5-130.6 166.9-81.1 279.5C316.5 763.2 420.2 821.7 511.9 795c1-.3 2.1-.3 3.1-.1 100.6 21.9 203.9-57.8 230.3-177.8 26.4-120.1-33.9-235.9-134.6-258-40.3-8.9-82-1.9-120.4 20.3-1.7.9-3.7 1.1-5.4.4-22.6-9-45.8-13.6-68.4-13.6z"></path><path fill="#00AEB1" d="M489.2 376.6c-2.8 0-5.3-1.9-6-4.7-7.4-28.9-15.1-58.7-28-75.7-11.2-14.7-27-20.6-44-26-3.3-1-5.1-4.5-4.1-7.7 1-3.3 4.5-5.2 7.8-4.2 18.4 5.7 36.8 12.7 50.2 30.3 14.5 19 22.5 50.1 30.2 80.2.9 3.3-1.1 6.7-4.5 7.6-.6.1-1.1.2-1.6.2zm18.8-33c-1 0-2-.2-3-.5-3.5-1.1-6-3.9-7.5-8.5-3.4-10.5-3.2-35.2 7.7-57.2 10.3-20.8 30.8-40.1 56.4-53 20.6-10.4 44.1-16.4 62.9-21.2l9.5-2.4c20.4-5.4 35-10.5 42-12.9 5.1-1.8 9.8-3.4 12.6 1.3 2.9 4.9.4 7.2-9.2 16.1-10.1 9.3-30.9 28.6-58.9 52.2-27.7 23.4-62.6 51.2-83.4 67.8-15.7 12.5-22.9 18.3-29.1 18.3zm1.8-11.6h.2-.2zm150.1-125.7c-6.4 2-14 4.2-22.5 6.4l-9.7 2.5c-19.2 4.9-41 10.4-60.4 20.2-23.2 11.7-41.8 29-50.9 47.4-9.4 19.1-9.3 40.1-7.2 47.5 3.8-1.9 11.6-8.2 19.8-14.7 21.2-16.9 55.9-44.6 83.5-67.9 19.8-16.5 36.1-31 47.4-41.4zm-227 362.9c-27.1 0-49.1-22-49.1-49.1v-26.8c0-27.1 22-49.1 49.1-49.1s49.1 22 49.1 49.1v26.8c-.1 27.1-22.1 49.1-49.1 49.1zm0-112.5c-20.2 0-36.6 16.4-36.6 36.6v26.8c0 20.2 16.4 36.6 36.6 36.6s36.6-16.4 36.6-36.6v-26.8c0-20.2-16.5-36.6-36.6-36.6zm134.2 256.1c-27.1 0-49.1-22-49.1-49.1v-26.9c0-27.1 22-49.1 49.1-49.1s49.1 22 49.1 49.1v26.9c0 27-22.1 49.1-49.1 49.1zm0-112.6c-20.2 0-36.6 16.4-36.6 36.6v26.9c0 20.2 16.4 36.6 36.6 36.6s36.6-16.4 36.6-36.6v-26.9c0-20.2-16.4-36.6-36.6-36.6zM435.4 690c-1.1 0-2.2-.3-3.3-.9-2.9-1.8-3.8-5.7-2-8.6L555 478.1c1.8-2.9 5.6-3.9 8.6-2 2.9 1.8 3.8 5.7 2 8.6L440.7 687.1c-1.1 1.9-3.2 2.9-5.3 2.9z"></path></svg>