<svg xmlns="http://www.w3.org/2000/svg" viewBox="0 0 1000 1000"><path fill="none" d="M0 0h1000v1000H0z"></path><path fill="#00AEB1" d="M562.8 117.2c-15.5 0-28.1-12.6-28.1-28s12.6-28 28.1-28c15.5 0 28 12.6 28 28s-12.5 28-28 28zm0-43.6c-8.6 0-15.6 7-15.6 15.6s7 15.6 15.6 15.6 15.6-7 15.6-15.6-7-15.6-15.6-15.6zM152.6 441.1c-10.2 0-18.5-8.3-18.5-18.5s8.3-18.5 18.5-18.5 18.5 8.3 18.5 18.5-8.4 18.5-18.5 18.5zm0-24.4c-3.3 0-6 2.7-6 6s2.7 6 6 6 6-2.7 6-6-2.7-6-6-6zm439.4-158H407.2c-14.3 0-26-11.7-26-26s11.6-26 26-26H592c14.3 0 26 11.6 26 26 0 14.3-11.6 26-26 26zm-184.8-39.5c-7.4 0-13.5 6-13.5 13.5 0 7.4 6 13.5 13.5 13.5H592c7.4 0 13.5-6 13.5-13.5 0-7.4-6-13.5-13.5-13.5H407.2z"></path><path fill="#00AEB1" d="M492.9 938.9C354 938.9 241 825.9 241 687.1c0-108.6 71.5-206.5 174.5-239.7v-195c0-3.4 2.8-6.2 6.2-6.2H564c3.4 0 6.2 2.8 6.2 6.2v194.9c103 33.2 174.5 131.1 174.5 239.7 0 138.9-113 251.9-251.8 251.9zm-65-680.2V452c0 2.8-1.8 5.2-4.4 6-100.1 30.2-170 124.5-170 229.2 0 132 107.4 239.4 239.4 239.4s239.4-107.4 239.4-239.4c0-104.7-69.9-198.9-170-229.2-2.6-.8-4.4-3.2-4.4-6V258.7h-130z"></path><path fill="#00AEB1" d="M730.2 647.1H256.6c-3.4 0-6.2-2.8-6.2-6.2s2.8-6.2 6.2-6.2h473.6c3.4 0 6.2 2.8 6.2 6.2s-2.8 6.2-6.2 6.2zm-183.9-73.7c-15.5 0-28-12.6-28-28 0-15.5 12.6-28.1 28-28.1s28 12.6 28 28.1c.1 15.4-12.5 28-28 28zm0-43.7c-8.6 0-15.6 7-15.6 15.6s7 15.6 15.6 15.6 15.6-7 15.6-15.6-7-15.6-15.6-15.6zM355.2 784.2c-15.5 0-28-12.6-28-28s12.6-28 28-28c15.5 0 28.1 12.6 28.1 28s-12.6 28-28.1 28zm0-43.6c-8.6 0-15.6 7-15.6 15.6s7 15.6 15.6 15.6 15.6-7 15.6-15.6-7-15.6-15.6-15.6zM526.6 887c-15.5 0-28-12.6-28-28.1 0-15.5 12.6-28 28-28 15.5 0 28.1 12.6 28.1 28 0 15.5-12.6 28.1-28.1 28.1zm0-43.6c-8.6 0-15.6 7-15.6 15.6s7 15.6 15.6 15.6 15.6-7 15.6-15.6-7-15.6-15.6-15.6zm141.3-80c-15.5 0-28.1-12.6-28.1-28s12.6-28 28.1-28 28 12.6 28 28-12.6 28-28 28zm0-43.6c-8.6 0-15.6 7-15.6 15.6s7 15.6 15.6 15.6 15.6-7 15.6-15.6-7.1-15.6-15.6-15.6zm-86.7 20.3c-15.5 0-28.1-12.6-28.1-28s12.6-28 28.1-28 28 12.6 28 28-12.5 28-28 28zm0-43.6c-8.6 0-15.6 7-15.6 15.6s7 15.6 15.6 15.6 15.6-7 15.6-15.6-7-15.6-15.6-15.6z"></path><circle cx="521.4" cy="745.7" r="10.4" fill="none" clip-rule="evenodd"></circle><circle cx="619" cy="786.2" r="10.4" fill="none" clip-rule="evenodd"></circle><path fill="#00AEB1" d="M500.3 331c-1.6 0-3.2-.6-4.4-1.8l-35.6-35.6c-2.4-2.4-2.4-6.4 0-8.8 2.4-2.4 6.4-2.4 8.8 0l35.6 35.6c2.4 2.4 2.4 6.4 0 8.8-1.2 1.1-2.8 1.8-4.4 1.8z"></path><path fill="#00AEB1" d="M464.7 330.9c-1.6 0-3.2-.6-4.4-1.8-2.4-2.4-2.4-6.4 0-8.8l35.6-35.6c2.4-2.4 6.4-2.4 8.8 0 2.4 2.4 2.4 6.4 0 8.8l-35.6 35.6c-1.2 1.2-2.8 1.8-4.4 1.8zm-72.6-166c-1.6 0-3.2-.6-4.4-1.8l-35.6-35.6c-2.4-2.4-2.4-6.4 0-8.8 2.4-2.4 6.4-2.4 8.8 0l35.6 35.6c2.4 2.4 2.4 6.4 0 8.8-1.2 1.2-2.8 1.8-4.4 1.8z"></path><path fill="#00AEB1" d="M356.5 164.9c-1.6 0-3.2-.6-4.4-1.8-2.4-2.4-2.4-6.4 0-8.8l35.6-35.6c2.4-2.4 6.4-2.4 8.8 0 2.4 2.4 2.4 6.4 0 8.8l-35.6 35.6c-1.2 1.2-2.8 1.8-4.4 1.8zm503.1 184c-1.6 0-3.2-.6-4.4-1.8l-76.8-76.8c-2.4-2.4-2.4-6.4 0-8.8 2.4-2.4 6.4-2.4 8.8 0l76.8 76.8c2.4 2.4 2.4 6.4 0 8.8-1.2 1.2-2.8 1.8-4.4 1.8z"></path><path fill="#00AEB1" d="M782.8 349c-1.6 0-3.2-.6-4.4-1.8-2.4-2.4-2.4-6.4 0-8.8l76.8-76.8c2.4-2.4 6.4-2.4 8.8 0 2.4 2.4 2.4 6.4 0 8.8l-76.8 76.8c-1.2 1.1-2.8 1.8-4.4 1.8z"></path><circle cx="412.3" cy="586.3" r="14" fill="#00AEB1"></circle><circle cx="509.3" cy="429.3" r="14" fill="#00AEB1"></circle><circle cx="473.3" cy="387.3" r="14" fill="#00AEB1"></circle><circle cx="485" cy="689.7" r="14" fill="#00AEB1"></circle><circle cx="509" cy="735" r="14" fill="#00AEB1"></circle><circle cx="447.7" cy="853" r="14" fill="#00AEB1"></circle></svg>