<svg xmlns="http://www.w3.org/2000/svg" xml:space="preserve" viewBox="0 0 1000 1000"><path fill="none" d="M0 0h1000v1000H0z"></path><g fill="#00AFB2"><path d="M862.8 651.2c-.9 0-1.8-.1-2.7-.4-5.3-1.5-8.3-7-6.9-12.2C898.8 476 826.6 295 677.7 198.5c-186.5-121-431.4-75.5-546 101.2-3 4.6-9.1 5.9-13.7 2.9-4.6-3-5.9-9.1-2.9-13.7 120.5-186 377.8-234 573.5-107.1C844.6 283 920.2 473 872.4 643.9c-1.3 4.4-5.3 7.3-9.6 7.3z"></path><path d="M706.6 521.1c-1.2 0-2.5-.2-3.7-.7-5.1-2-7.5-7.8-5.5-12.9 56.6-140.5 48.7-264.7-19.7-309-91.3-59.2-258.7 36.6-373.2 213.3-3 4.6-9.1 5.9-13.7 2.9-4.6-3-5.9-9.1-2.9-13.7 120.5-186 300.2-284.3 400.7-219.2 76.6 49.6 87.6 183.5 27.3 333.1-1.6 3.8-5.3 6.2-9.3 6.2z"></path><path d="M301.7 409.1c-1.8 0-3.7-.5-5.4-1.6-4.6-3-5.9-9.1-2.9-13.7 5.2-8 3-21.2-5.9-36.3-10.4-17.4-28.1-34.8-50-49-21.9-14.2-45-23.3-65.1-25.6-17.5-2.1-30.4 1.4-35.5 9.4-3 4.6-9.1 5.9-13.7 2.9-4.6-3-5.9-9.1-2.9-13.7 9.6-14.7 28.9-21.2 54.5-18.3 23.1 2.7 49.2 12.9 73.6 28.7s44.3 35.5 56.2 55.5c13.1 22.1 15.1 42.4 5.5 57.2-2 2.9-5.2 4.5-8.4 4.5z"></path><path d="M474.8 521.4c-1.8 0-3.7-.5-5.4-1.6-4.6-3-5.9-9.1-2.9-13.7 5.2-8 3-21.2-5.9-36.3-10.3-17.4-28.1-34.8-50-49-21.9-14.2-45-23.3-65.1-25.6-17.5-2-30.4 1.4-35.5 9.4-3 4.6-9.1 5.9-13.7 2.9-4.6-3-5.9-9.1-2.9-13.7 9.6-14.8 28.9-21.3 54.5-18.3 23.1 2.7 49.2 12.9 73.6 28.7 24.4 15.8 44.3 35.5 56.2 55.5 13.1 22.1 15.1 42.4 5.5 57.2-1.9 2.9-5.1 4.5-8.4 4.5z"></path><path d="M592.4 536.8c-1.9 0-3.8-.5-5.5-1.7l-3.1-2.1c-46.1-29.9-90.1-32.6-100.6-16.2-3 4.6-9.1 5.9-13.7 2.9-4.6-3-5.9-9.1-2.9-13.7 18.6-28.7 74.9-24.1 128.1 10.4l3.3 2.2c4.6 3 5.8 9.2 2.8 13.8-2 2.8-5.2 4.4-8.4 4.4z"></path><path d="M235.6 834.7c-14.4 0-29-4-42-12.4-17.3-11.2-29.2-28.5-33.5-48.8s-.5-41 10.7-58.2l25.8-39.9c3-4.6 9.1-5.9 13.7-2.9 4.6 3 5.9 9.1 2.9 13.7L187.5 726c-8.3 12.8-11.1 28.2-7.9 43.3 3.2 15.1 12.1 28 24.9 36.3 26.6 17.2 62.3 9.6 79.6-17l416.1-642c3-4.6 9.1-5.9 13.7-2.9 4.6 3 5.9 9.1 2.9 13.7l-416.1 642c-14.8 22.9-39.7 35.3-65.1 35.3zM675.9 889.1c-98.9 0-179.4-80.5-179.4-179.4S577 530.3 675.9 530.3s179.4 80.5 179.4 179.4-80.5 179.4-179.4 179.4zm0-339c-88 0-159.6 71.6-159.6 159.6s71.6 159.6 159.6 159.6 159.6-71.6 159.6-159.6-71.6-159.6-159.6-159.6z"></path><path d="M675.9 858.2c-81.9 0-148.5-66.6-148.5-148.5S594 561.2 675.9 561.2s148.5 66.6 148.5 148.5-66.6 148.5-148.5 148.5zm0-277.1c-70.9 0-128.7 57.7-128.7 128.7S605 838.4 675.9 838.4s128.7-57.7 128.7-128.7-57.8-128.6-128.7-128.6z"></path><path d="M673.7 641.9c-5.5 0-9.9-4.4-9.9-9.9v-23.5c0-5.5 4.4-9.9 9.9-9.9s9.9 4.4 9.9 9.9V632c0 5.5-4.4 9.9-9.9 9.9zM673.7 820.9c-5.5 0-9.9-4.4-9.9-9.9v-23.5c0-5.5 4.4-9.9 9.9-9.9s9.9 4.4 9.9 9.9V811c0 5.4-4.4 9.9-9.9 9.9z"></path><path d="M677.7 715.6h-11.5c-25 0-45.4-20.4-45.4-45.4s20.4-45.4 45.4-45.4h19.6c13.2 0 25.8 5.8 34.5 15.9 3.6 4.2 3.1 10.4-1.1 14-4.2 3.5-10.4 3.1-14-1.1-4.9-5.7-12-9-19.4-9h-19.6c-14.1 0-25.5 11.4-25.5 25.5s11.5 25.5 25.5 25.5h11.5c5.5 0 9.9 4.4 9.9 9.9s-4.4 10.1-9.9 10.1z"></path><path d="M682.1 794.8h-21.9c-14.5 0-28.2-6.4-37.6-17.4-3.6-4.2-3.1-10.4 1.1-14 4.1-3.6 10.4-3.1 14 1.1 5.7 6.6 13.9 10.5 22.6 10.5h21.9c16.4 0 29.7-13.3 29.7-29.7s-13.3-29.7-29.7-29.7h-12.8c-5.5 0-9.9-4.4-9.9-9.9s4.4-9.9 9.9-9.9h12.8c27.3 0 49.5 22.2 49.5 49.5s-22.3 49.5-49.6 49.5z"></path></g></svg>