<svg xmlns="http://www.w3.org/2000/svg" xml:space="preserve" viewBox="0 0 1000 1000"><path fill="none" d="M0 0h1000v1000H0z"></path><g fill="#00AFB2"><path d="M869.9 447.8h-193c-5.5 0-9.9-4.4-9.9-9.9s4.4-9.9 9.9-9.9h185.9V313.9H137.3V428H608c5.5 0 9.9 4.4 9.9 9.9s-4.4 9.9-9.9 9.9H130.2c-7 0-12.7-5.7-12.7-12.7V306.7c0-7 5.7-12.7 12.7-12.7h739.7c7 0 12.7 5.7 12.7 12.7v128.4c0 7-5.7 12.7-12.7 12.7zM823.5 921.4H176.6c-7 0-12.6-5.7-12.6-12.7V465.4c0-5.5 4.4-9.9 9.9-9.9s9.9 4.4 9.9 9.9v436.2h632.5V465.4c0-5.5 4.4-9.9 9.9-9.9s9.9 4.4 9.9 9.9v443.4c0 6.9-5.6 12.6-12.6 12.6z"></path><path d="M499.4 304.2h-.3c-4.3-.1-8.1-3.1-9.2-7.2-1.8-6.4-6.2-18.6-11.6-33.4-14.3-39.6-33.8-93.8-33.8-118 0-36.9 24.6-66.9 54.9-66.9 30.3 0 54.9 30 54.9 66.9 0 25.7-20 82.3-38.8 133.4-2.8 7.7-5.2 14.1-6.8 18.6-1.3 4-5 6.6-9.3 6.6zm0-205.8c-19.3 0-35.1 21.1-35.1 47.1 0 20.7 19.6 75.2 32.6 111.3 1 2.6 1.9 5.2 2.8 7.7 12.9-35.2 34.8-96.4 34.8-118.9 0-26-15.7-47.2-35.1-47.2z"></path><path d="M500 303.7c-3.7 0-7.2-2.1-8.9-5.6-1.9-3.8-1.1-8.3 1.8-11.3 5.4-5.6 15.7-18 27.6-32.5 32.2-39.1 76.4-92.7 102.8-106.4 38.8-20.1 88.2-9.7 110.1 23.3 10.2 15.3 13.3 33.5 8.7 51.2-5.1 20-19.7 37.4-39.9 48-27.9 14.5-105.1 23.3-175.4 30.5-10.6 1.1-19.5 2-25.8 2.7-.2.1-.6.1-1 .1zm166-146.3c-11.3 0-22.9 2.6-33.5 8.2-22.8 11.8-67.2 65.8-96.6 101.4-4.2 5.2-8.2 9.9-11.8 14.3.3 0 .6-.1.9-.1 49.4-5 141.4-14.4 168.2-28.4 15.2-7.9 26.1-20.8 29.8-35.3 3.1-12.2 1-24.7-6-35.3-10.7-16-30.3-24.8-51-24.8z"></path><path d="M500 303.7c-.4 0-.8 0-1.2-.1-6.2-.7-15.1-1.6-25.8-2.7-70.2-7.2-147.5-16-175.3-30.5-20.2-10.5-34.7-28-39.9-47.9-4.6-17.7-1.5-35.9 8.7-51.2 22-33 71.4-43.5 110.1-23.3 26.4 13.7 70.5 67.3 102.8 106.4 11.9 14.4 22.2 26.9 27.6 32.5 2.9 3 3.7 7.5 1.8 11.3-1.6 3.4-5.1 5.5-8.8 5.5zM334 157.4c-20.6 0-40.3 8.8-51 24.9-7 10.5-9.2 23.1-6 35.3 3.7 14.5 14.6 27.4 29.8 35.3 26.8 13.9 118.8 23.3 168.2 28.3.3 0 .6.1.9.1-3.6-4.3-7.5-9.1-11.8-14.3-29.4-35.7-73.8-89.6-96.6-101.4-10.6-5.5-22.2-8.2-33.5-8.2zM642.3 594.1c-5.5 0-9.9-4.4-9.9-9.9V309.1c0-5.5 4.4-9.9 9.9-9.9s9.9 4.4 9.9 9.9v275.1c0 5.5-4.4 9.9-9.9 9.9z"></path><path d="M642.3 651.1c-20.9 0-38-17-38-38s17-38 38-38 38 17 38 38-17 38-38 38zm0-56.1c-10 0-18.1 8.1-18.1 18.1s8.1 18.1 18.1 18.1 18.1-8.1 18.1-18.1-8.1-18.1-18.1-18.1z"></path><path d="M760.8 837.5H522.9c-7 0-12.7-5.7-12.7-12.7V616.3c0-4.1 1.9-7.9 5.3-10.3l119.4-85.8c4.4-3.1 10.4-3.2 14.8 0L768.2 606c2.6 1.9 5.2 7.1 5.2 10.2v208.5c.1 7.1-5.6 12.8-12.6 12.8zm-230.7-19.8h223.5V620l-111.3-80.6L530.1 620v197.7zm116.4-281.3zm0 0zm-5.8-8.1h.3-.3z"></path></g></svg>