<svg xmlns="http://www.w3.org/2000/svg" xml:space="preserve" viewBox="0 0 1000 1000"><path fill="none" d="M0 0h1000v1000H0z"></path><g fill="#00AFB2"><path d="M913.9 888.4H86.1c-5.5 0-9.9-4.4-9.9-9.9s4.4-9.9 9.9-9.9h827.8c5.5 0 9.9 4.4 9.9 9.9s-4.4 9.9-9.9 9.9z"></path><path d="M232.2 884.1c-5.5 0-9.9-4.4-9.9-9.9v-182c0-2.6-2.2-4.8-4.8-4.8h-80.9c-2.6 0-4.8 2.1-4.8 4.8v182c0 5.5-4.4 9.9-9.9 9.9s-9.9-4.4-9.9-9.9v-182c0-13.6 11.1-24.6 24.7-24.6h80.9c13.6 0 24.7 11.1 24.7 24.6v182c-.1 5.4-4.6 9.9-10.1 9.9zM446.5 884.1c-5.5 0-9.9-4.4-9.9-9.9v-341c0-2.6-2.2-4.8-4.8-4.8h-80.9c-2.6 0-4.8 2.2-4.8 4.8v341c0 5.5-4.4 9.9-9.9 9.9s-9.9-4.4-9.9-9.9v-341c0-13.6 11.1-24.7 24.6-24.7h80.9c13.6 0 24.6 11.1 24.6 24.7v341c0 5.4-4.5 9.9-9.9 9.9zM660.7 884.1c-5.5 0-9.9-4.4-9.9-9.9V602.5c0-2.6-2.2-4.8-4.8-4.8h-80.9c-2.6 0-4.8 2.2-4.8 4.8v271.6c0 5.5-4.4 9.9-9.9 9.9s-9.9-4.4-9.9-9.9V602.5c0-13.6 11.1-24.7 24.7-24.7H646c13.6 0 24.7 11.1 24.7 24.7v271.6c-.1 5.5-4.5 10-10 10zM875 884.1c-5.5 0-9.9-4.4-9.9-9.9V411.7c0-2.6-2.2-4.8-4.8-4.8h-80.9c-2.6 0-4.8 2.2-4.8 4.8v462.5c0 5.5-4.4 9.9-9.9 9.9s-9.9-4.4-9.9-9.9V411.7c0-13.6 11.1-24.7 24.6-24.7h80.9c13.6 0 24.6 11.1 24.6 24.7v462.5c0 5.4-4.4 9.9-9.9 9.9zM177 556.7c-34.1 0-61.9-27.8-61.9-61.9S142.9 433 177 433s61.9 27.8 61.9 61.9-27.7 61.8-61.9 61.8zm0-103.9c-23.2 0-42 18.9-42 42s18.9 42 42 42 42-18.9 42-42-18.8-42-42-42zM391.3 381.4c-34.1 0-61.8-27.8-61.8-61.9s27.7-61.9 61.8-61.9 61.9 27.8 61.9 61.9-27.8 61.9-61.9 61.9zm0-103.9c-23.2 0-42 18.9-42 42s18.8 42 42 42 42-18.9 42-42-18.8-42-42-42zM605.5 449.6c-34.1 0-61.9-27.8-61.9-61.9s27.8-61.9 61.9-61.9 61.9 27.8 61.9 61.9-27.8 61.9-61.9 61.9zm0-103.9c-23.2 0-42 18.9-42 42s18.9 42 42 42 42-18.9 42-42-18.8-42-42-42zM819.8 235.3c-34.1 0-61.9-27.8-61.9-61.9s27.8-61.9 61.9-61.9 61.9 27.8 61.9 61.9-27.8 61.9-61.9 61.9zm0-103.9c-23.2 0-42 18.9-42 42s18.9 42 42 42 42-18.9 42-42-18.8-42-42-42z"></path><path d="M218.9 471.5c-2.8 0-5.6-1.2-7.5-3.6-3.3-4.1-2.6-10.1 1.5-13.4l132.4-105.6c4.1-3.3 10.1-2.6 13.5 1.5 3.3 4.1 2.6 10.1-1.5 13.4L224.9 469.4c-1.8 1.4-3.9 2.1-6 2.1zM646.1 358.7c-2.5 0-5.1-1-7-2.9-3.9-3.9-3.9-10.2-.1-14l136.4-137.2c3.9-3.9 10.2-3.9 14-.1 3.9 3.9 3.9 10.2.1 14L653.1 355.8c-1.9 1.9-4.4 2.9-7 2.9zM552.7 381.7c-1 0-1.9-.2-2.9-.5l-109.7-38.3c-4.9-1.7-7.6-7.5-6.1-12.8 1.6-5.3 7-8.3 11.8-6.6l109.7 38.3c4.9 1.7 7.6 7.5 6.1 12.8-1.2 4.3-4.9 7.1-8.9 7.1z"></path></g></svg>