<svg xmlns="http://www.w3.org/2000/svg" xml:space="preserve" viewBox="0 0 1000 1000"><path fill="none" d="M0 0h1000v1000H0z"></path><g fill="#00AFB2"><path d="M700.9 600.4H316.1c-5.5 0-9.9-4.4-9.9-9.9s4.4-9.9 9.9-9.9h384.8c27.7 0 50.3-22.5 50.3-50.3V178.2c0-27.7-22.5-50.3-50.3-50.3H118.5c-27.7 0-50.3 22.5-50.3 50.3v352.1c0 27.7 22.5 50.3 50.3 50.3h57.2c5.5 0 9.9 4.4 9.9 9.9s-4.4 9.9-9.9 9.9h-57.2c-38.7 0-70.1-31.5-70.1-70.1V178.2c0-38.7 31.4-70.1 70.1-70.1h582.3c38.7 0 70.1 31.5 70.1 70.1v352.1c.1 38.6-31.4 70.1-70 70.1zM693.4 747.9h-360c-5.5 0-9.9-4.4-9.9-9.9s4.4-9.9 9.9-9.9h360c5.5 0 9.9 4.4 9.9 9.9s-4.4 9.9-9.9 9.9zM881.5 747.9h-44.8c-5.5 0-9.9-4.4-9.9-9.9s4.4-9.9 9.9-9.9h44.8c27.7 0 50.3-22.6 50.3-50.3V325.6c0-27.7-22.5-50.3-50.3-50.3h-23.7c-5.5 0-9.9-4.4-9.9-9.9s4.4-9.9 9.9-9.9h23.7c38.7 0 70.1 31.5 70.1 70.1v352.1c0 38.7-31.5 70.2-70.1 70.2z"></path><path d="M176.1 743.7c-1.3 0-2.5-.3-3.7-.7-3.7-1.5-6.2-5.2-6.2-9.2V593.6c0-5.5 4.4-9.9 9.9-9.9s9.9 4.4 9.9 9.9v115.9l122.6-125.4c3.8-3.9 10.1-4 14-.2s4 10.1.2 14L183.2 740.7c-1.9 2-4.5 3-7.1 3zM835.2 892c-2.6 0-5.2-1-7.1-3L686.7 745.3c-3.8-3.9-3.8-10.2.1-14 3.9-3.8 10.2-3.8 14 .1l124.5 126.4V739.1c0-5.5 4.4-9.9 9.9-9.9s9.9 4.4 9.9 9.9v143c0 4-2.4 7.7-6.2 9.2-1.2.4-2.4.7-3.7.7zM319.4 400.3c-17.1 0-31-13.9-31-31s13.9-31 31-31 31 13.9 31 31-13.9 31-31 31zm0-42.2c-6.2 0-11.1 5-11.1 11.1s5 11.1 11.1 11.1 11.1-5 11.1-11.1c.1-6.1-4.9-11.1-11.1-11.1zM410.5 400.3c-17.1 0-31-13.9-31-31s13.9-31 31-31 31 13.9 31 31-13.9 31-31 31zm0-42.2c-6.2 0-11.1 5-11.1 11.1s5 11.1 11.1 11.1 11.1-5 11.1-11.1-5-11.1-11.1-11.1zM505.3 400.3c-17.1 0-31-13.9-31-31s13.9-31 31-31 31 13.9 31 31-13.9 31-31 31zm0-42.2c-6.2 0-11.1 5-11.1 11.1s5 11.1 11.1 11.1 11.1-5 11.1-11.1-5-11.1-11.1-11.1z"></path></g></svg>