<svg xmlns="http://www.w3.org/2000/svg" xml:space="preserve" viewBox="0 0 1000 1000"><path fill="none" d="M0 0h1000v1000H0z"></path><g fill="#00AFB2"><path d="M451.9 952.2c-120.1 0-240.4-83.5-298.7-215.7-75.4-171.2-18.9-362.4 125.9-426.2 62.1-27.3 133.5-27.9 201.6-1.6h.1c58.2-32.4 121.2-42.5 182.5-29 154.6 34 247.7 210.3 207.5 393-40 181.6-197.1 302.2-350.8 270.2h-.1c-22.3 6.3-45.1 9.3-68 9.3zm-72.2-644.9c-32.3 0-63.9 6.5-93.3 19.4-135.7 59.8-188.1 240.4-116.7 402.6 66.1 150 215.5 234.1 347.5 195.8 1.5-.4 3-.4 4.4-.2 144.8 31.7 293.6-83.1 331.6-256 38.1-173-48.9-339.7-193.8-371.6-58.1-12.8-118.1-2.7-173.5 29.2-2.4 1.4-5.3 1.6-7.8.5-32.4-13.1-65.8-19.7-98.4-19.7z"></path><path d="M484.5 322.2c-4 0-7.7-2.7-8.7-6.7-10.7-41.6-21.7-84.5-40.4-109-16.1-21.2-38.8-29.7-63.4-37.4-4.7-1.5-7.3-6.4-5.9-11.1 1.4-4.8 6.5-7.5 11.3-6 26.5 8.3 53 18.3 72.3 43.7 20.8 27.4 32.4 72.1 43.5 115.4 1.2 4.8-1.7 9.7-6.5 10.9-.7.1-1.5.2-2.2.2zM511.5 274.7c-1.5 0-2.9-.2-4.3-.7-5-1.5-8.6-5.6-10.8-12.2-4.8-15.1-4.5-50.7 11.2-82.4 14.8-29.9 44.4-57.8 81.3-76.4 29.7-15 63.5-23.6 90.7-30.5l13.8-3.5c29.2-7.7 49.4-14.8 60.2-18.6 7.5-2.6 14.3-5 18.4 1.8 4.2 7 .5 10.4-13.3 23.1-14.3 13.2-44 40.8-84.9 75.2-39.7 33.5-89.7 73.4-119.6 97.2-23.3 18.6-33.7 27-42.7 27zM729.9 77.4c.1-.1 0-.2-.1-.2-9.2 2.8-19.8 6-31.9 9.1L684 89.9c-27.7 7-59 15-87 29.1-33.5 16.9-60.2 41.8-73.3 68.3-13.5 27.4-13.4 57.5-10.3 68.3 0 .1.1.1.2.1 5.5-2.9 16.7-11.8 28.4-21.2 30.9-24.6 80.8-64.4 120.3-97.8 28.4-23.9 51.5-44.6 67.6-59.3zM403.3 599.7c-39 0-70.7-31.7-70.7-70.7v-37.6c0-40.6 33.6-73.6 74.2-71.7 37.4 1.8 67.2 32.8 67.2 70.6V529c0 39-31.7 70.7-70.7 70.7zm2.9-162c-30.3-1.6-55.6 23.2-55.6 53.6V528c0 30.4 25.2 55.2 55.6 53.6 27.8-1.5 49.9-24.5 49.9-52.7v-38.7c-.1-27.9-22.2-51-49.9-52.5zM593.1 806.3c-37.4-1.8-67.2-32.8-67.2-70.6V697c0-37.8 29.8-68.8 67.2-70.6 40.5-2 74.2 31.1 74.2 71.7v36.5c0 40.6-33.6 73.7-74.2 71.7zm6.4-161.9c-30.3-1.6-55.6 23.2-55.6 53.6v36.7c0 30.4 25.2 55.3 55.6 53.6 27.8-1.5 49.9-24.5 49.9-52.7v-38.7c0-28-22.2-51-49.9-52.5zM407 773.7c-1.6 0-3.2-.4-4.7-1.3-4.2-2.6-5.5-8.1-2.9-12.4l179.9-291.5c2.6-4.2 8.1-5.6 12.4-2.9 4.2 2.6 5.5 8.1 2.9 12.4L414.7 769.4c-1.7 2.8-4.7 4.3-7.7 4.3z"></path></g></svg>