<svg xmlns="http://www.w3.org/2000/svg" xml:space="preserve" viewBox="0 0 1000 1000"><path fill="none" d="M0 0h1000v1000H0z"></path><g fill="#00AFB2"><path d="M499.8 939.5c-.4 0-.9 0-1.2-.1-23.8-3-112.3-62.9-113.2-63.6-41.7-28.7-102.4-74.5-147.5-140.9-40.1-59-70.1-137.3-91.8-239.5-18.3-86.1-29-180.2-35.4-243.5-5.3-52.5-5-53.7-4.4-56.3 2.1-6.9 2.1-6.9 29-11.9 19.9-3.7 61.4-11.4 99.1-30.9 15.9-8.3 31.2-18.7 47.5-29.7 22.4-15.2 45.5-30.8 71.4-41.5 46.4-19.1 100.4-21 146.8-21.1 46.7-.1 100.4 2 146.8 21.1 25.9 10.7 49.1 26.4 71.4 41.5 16.2 11 31.5 21.4 47.5 29.7 37.6 19.6 79.1 27.2 99.1 30.9 27.1 5 27.1 5 28.9 11.7.7 2.9 1 4.1-4.3 56.6-6.5 63.1-17.1 157-35.5 243.4-21.7 102.1-51.8 180.5-91.8 239.5-45.1 66.4-105.8 112.2-147.5 140.9-.9.6-89.3 60.6-113.2 63.6-.4.1-.9.1-1.4.1h-.3zM126 205.6c.6 6.1 1.8 19 4.4 44.3 6.4 62.8 17 156.2 35.1 241.4 21.2 99.6 50.2 175.6 88.8 232.5 43.2 63.6 101.9 107.9 142.3 135.7 20.8 14.4 91.4 58.7 103.2 60.3 12.1-1.6 82.7-45.9 103.6-60.3 40.4-27.8 99.1-72.1 142.3-135.7 38.6-56.8 67.7-132.9 88.8-232.5 18.2-85.4 28.7-178.7 35.1-241.4 2.5-24.8 3.7-37.7 4.3-44.3-2.9-.5-7-1.3-12.7-2.3-20.9-3.9-64.4-11.9-104.6-32.8-16.9-8.8-33.5-20-49.4-30.8-21.5-14.6-43.8-29.7-67.9-39.6-43.2-17.8-94.6-19.4-139.2-19.6h-7.3c-42.9 0-91.2 2.8-132 19.6-24 9.9-46.3 25-67.8 39.6-16 10.8-32.5 22-49.4 30.8-40.3 20.9-83.7 29-104.6 32.8-5.9 1-10.1 1.7-13 2.3z"></path><path d="M497.3 862.4c-.4 0-.8 0-1.1-.1-5.4-.8-9.1-5.9-8.3-11.3s5.9-9 11.3-8.3c8.9-1.8 69-39.9 86.7-52.2C620.6 766.4 671 728 708 672.9c3-4.5 9.2-5.8 13.8-2.7 4.5 3.1 5.8 9.2 2.7 13.8-38.9 57.9-91.3 97.8-127.3 122.8-.9.6-81 55.6-99.9 55.6zM190.4 304.3c-5 0-9.3-3.8-9.9-8.9-4.5-44.5-4.5-44.5-3.5-47.3 1.6-6.2 2-6.2 25.8-10.7 7.4-1.4 46.5-9.3 84.9-29.5 13.6-7.2 26.7-16.1 40.7-25.7 19.3-13.2 39.3-26.9 61.8-36.2 40.2-16.7 86.7-18.6 127-18.4 5.5 0 9.9 4.5 9.9 10-.1 5.5-4.5 9.9-9.9 9.9h-.1c-38.1.2-82.3 1.6-119.2 16.9-20.6 8.5-39.7 21.6-58.2 34.3-13.8 9.4-28 19.2-42.6 26.9-31.7 16.6-67.5 27.1-90.5 31.4-4.2.8-7.3 1.4-9.7 1.8.8 7.5 2.3 21.8 3.6 34.6.5 5.5-3.4 10.3-8.9 10.9h-1.2zM374.2 631.1c-2 0-4-.6-5.7-1.8-3.2-2.3-4.8-6.3-4-10.2L394.9 477l-105.8-90.3c-3-2.6-4.2-6.7-3-10.5 1.2-3.8 4.5-6.5 8.4-6.9l144.6-15 53.1-128.5c1.5-3.7 5.1-6.1 9-6.1 3.8-.9 7.6 2.3 9.2 5.9l58.9 132.9L708 369.3c4 .3 7.3 3 8.6 6.7 1.3 3.8.2 7.9-2.8 10.6l-108.2 97.1 32.6 135.2c.9 3.9-.5 7.9-3.7 10.3-3.1 2.4-7.5 2.6-10.9.6l-125.8-72.9-118.5 72.8c-1.6.9-3.4 1.4-5.1 1.4zm123.5-95.7c1.7 0 3.4.5 5 1.4L613.5 601 585 482.6c-.9-3.5.3-7.3 3-9.7l95.4-85.6-121.5-9.5c-3.6-.3-6.8-2.5-8.3-5.9l-51.9-117.1-46.6 112.6a9.91 9.91 0 0 1-8.1 6.1l-127.4 13.2 92.7 79.1c2.8 2.4 4 6.1 3.3 9.6l-26.8 125.3L492.6 537c1.5-1.1 3.3-1.6 5.1-1.6zM446 363.6h.3-.3z"></path><path d="M576 559.1c-1.7 0-3.4-.4-5-1.4l-71.7-41.5-67.3 41.4c-3.4 2.1-7.7 2-10.9-.4-3.2-2.3-4.8-6.3-4-10.2l17.4-81-60.2-51.4c-3-2.6-4.2-6.7-3-10.5 1.2-3.8 4.5-6.5 8.4-6.9l82.4-8.5 30.2-73.1c1.5-3.7 5.1-6.1 9-6.1 3.8.1 7.6 2.3 9.2 5.9l33.5 75.7 78.9 6.1c4 .3 7.3 3 8.6 6.7 1.3 3.8.2 7.9-2.8 10.6L567 469.8l18.5 76.9c.9 3.9-.5 7.9-3.7 10.3-1.6 1.4-3.7 2.1-5.8 2.1zm-76.7-64.4c1.7 0 3.4.5 5 1.4L561 529l-14.5-60.2c-.9-3.5.3-7.3 3-9.7l48.8-43.8-61.7-4.8c-3.6-.3-6.8-2.5-8.3-5.9l-26.6-60-23.7 57.2a9.91 9.91 0 0 1-8.1 6.1l-65.2 6.8 47.1 40.2c2.8 2.4 4 6.1 3.3 9.6l-13.7 64.1 52.7-32.4c1.5-1 3.4-1.5 5.2-1.5zM468.9 398h.3-.3z"></path></g></svg>