<svg xmlns="http://www.w3.org/2000/svg" xml:space="preserve" viewBox="0 0 1000 1000"><path fill="none" d="M0 0h1000v1000H0z"></path><g fill="#FFF"><path d="M776.7 943.4c-114.1 0-206.9-92.8-206.9-206.9s92.8-206.9 206.9-206.9c114.1 0 206.9 92.8 206.9 206.9s-92.9 206.9-206.9 206.9zm0-396.8c-104.7 0-189.9 85.2-189.9 189.9S672 926.4 776.7 926.4s189.9-85.2 189.9-189.9c-.1-104.7-85.2-189.9-189.9-189.9z"></path><path d="M776.7 841.8c-4.7 0-8.5-3.8-8.5-8.5V639.7c0-4.7 3.8-8.5 8.5-8.5s8.5 3.8 8.5 8.5v193.7c0 4.6-3.8 8.4-8.5 8.4z"></path><path d="M873.5 745H679.8c-4.7 0-8.5-3.8-8.5-8.5s3.8-8.5 8.5-8.5h193.6c4.7 0 8.5 3.8 8.5 8.5s-3.7 8.5-8.4 8.5zM25 803.7c-.5 0-1 0-1.5-.1-4.6-.8-7.7-5.2-6.9-9.8 6.2-35.7 12.5-71.4 16.8-94.7 4.4-23.9 7.2-36.8 16.8-47.3 9-9.7 22.6-16.2 46.2-25.5 6.9-2.7 14.5-5.7 22.8-8.8 17.7-6.8 38-14.5 58.5-23.2 31.4-13.3 61.4-27.9 82.2-40 20.1-11.7 33.4-22.1 40.5-31.8 5.1-7 7.1-13.7 8.8-19.1.5-1.7 1-3.2 1.4-4.5 1.8-5.3 4.1-8.5 5.8-10.5.4-.5.6-1 .6-1.6V459c0-1.6.1-2.6 0-3.4 0-.4-.2-.7-.4-1-.3-.5-.8-1.2-1.5-2.2-4.1-6.2-10.4-15.5-14.6-23.1-4.6-8.2-7.2-14.6-10.2-25.5l-1-3.8c-2-7.5-5-18.8-8.5-22.6-1-1-2.3-1.7-4.6-2.8-4.9-2.3-11.5-5.4-16.9-15.6-6.4-12.3-10.9-35.2-14.2-52l-1.9-9.5c-2.7-13.6-4.1-20.4 2.6-25.4 2.7-2.1 6.2-2.9 9.9-3.3 1.3-.1 2.3-1.3 2.2-2.6-.3-5.9-.5-14.4-.1-28 1.1-39.9 6-70.3 14.9-93.1 11.2-28.6 31.8-51.9 59.6-67.6C355.9 64 383.7 57 412.6 56.7c27.4-.7 53.2 5.3 79.3 17.2 33 15.1 55.1 35.5 67.5 62.6 13.7 29.7 16.7 69.7 17.9 101.3.5 14.3.6 24 .5 30.8 0 1.6 1.4 2.7 3 2.4 2.8-.6 5.2-.6 7.6 0 11.8 3.3 9.4 17.4 7 31.1-2 11.5-7.4 39.7-14.8 54.3-4.4 8.6-9.5 12.7-13.2 15.6-2.4 1.9-4 3.1-5.2 5.3-2.3 4-4.2 11.7-6 19.1-1.3 5.3-2.6 10.6-4.1 15.2-3.3 10-7.6 16.6-11.4 22.5l-2.9 4.5c-4.3 7.1-6.4 13.2-7.4 21.1-1.3 10-.6 24.1-.4 29.3.1 2.3.3 6.3.5 8.1.1.4.2.8.5 1.2 1.6 2 3.1 4 5.2 7.4l3.1 5c3.4 5.7 7.7 12.9 12.6 19 6.2 7.8 13.6 14.3 24.7 21.7 10.4 6.9 24 14.5 37.3 21.9 1.1.6 1.6 2 1 3.2l-5.4 10.9c-.6 1.3-2.2 1.7-3.4 1.1-14.2-7.9-28-15.6-38.9-22.9-12.5-8.3-21.3-16.1-28.6-25.3-5.6-7.1-10.4-15.1-13.9-20.9l-2.9-4.7c-1.8-2.9-3-4.5-3.9-5.6-.9-1.1-1.8-2.3-2.6-3.9-1.7-3.5-2-7.2-2.4-15.4-.5-9.6-.8-22 .5-32.3 1.3-10.1 4.3-18.7 9.8-27.7l3.1-5c3.4-5.3 6.9-10.8 9.6-18.7 1.4-4.2 2.6-9 3.7-13.8 2.2-9 4.3-17.5 7.8-23.7 2.9-4.9 6.3-7.6 9.4-10 3.3-2.6 5.9-4.6 8.5-9.9 5.2-10.3 10.2-32.4 13.2-49.5.4-2.2.7-4 .9-5.6.3-2-1.7-3.4-3.5-2.5-2.6 1.3-6.9 3.4-11.4.4-4.6-3-4.3-7.8-4.1-12 .3-4.9.8-15-.1-41-.6-17.6-2.3-64.4-16.3-94.8-10.6-23.2-30-40.9-59.1-54.2-23.7-10.8-48.2-15.9-72-15.7-26.2.3-51.1 6.6-72 18.4-24.3 13.7-42.4 34.1-52.1 58.9-8.2 20.9-12.7 49.5-13.7 87.4-.6 22.6.3 30.1.7 33.7.4 3.1.8 7-2.3 10.4-3.1 3.3-7 3.1-9.6 3-.9-.1-1.7-.1-2.4-.1-1.5 0-2.7 1.4-2.4 2.9.3 1.7.7 3.6 1.1 5.6l1.9 9.6c2.9 14.9 7.3 37.3 12.5 47.4 2.7 5.1 5.2 6.3 9.1 8.1 2.9 1.4 6.6 3.1 9.9 6.6 6.4 6.9 9.6 19.1 12.5 29.8l1 3.8c2.6 9.6 4.6 14.6 8.6 21.7 4.1 7.3 10 16.2 13.4 21.2 4.8 7.1 5.3 8.8 5.3 17v26c0 7.3 0 10.3-4.1 13.9-.7.7-2 1.8-3.3 5.6l-1.2 3.8c-1.8 5.9-4.5 14.9-11.3 24.3-8.6 11.7-23.1 23.3-45.6 36.4-21.4 12.5-52.1 27.4-84.1 40.9-20.8 8.8-41.3 16.6-59.1 23.4-8.2 3.1-15.8 6.1-22.7 8.8-20.8 8.1-33.3 13.9-39.9 21.2-6.2 6.7-8.4 16-12.6 38.9-4.3 23.3-10.5 58.9-16.7 94.6-1.1 3.8-4.7 6.7-8.8 6.7z"></path><path d="M452.6 193.9c-1.1 0-2.3-.2-3.3-.7l-85.2-36.1-27.3 17.9c-2 1.3-4.4 1.7-6.8 1.1l-36.6-9.5c-4.6-1.2-7.3-5.8-6.1-10.4 1.2-4.5 5.9-7.2 10.4-6.1l32.9 8.5 28-18.3c2.4-1.5 5.4-1.8 8-.7l78.9 33.5 1.4-13c.3-2.5 1.7-4.8 3.8-6.2s4.8-1.8 7.2-1l60.8 19.4 18.9-7.1c4.4-1.5 9.3.6 10.9 5 1.7 4.4-.6 9.3-5 11l-21.7 8.1c-1.8.6-3.8.7-5.6.1l-53.7-17.2-1.6 14.1c-.3 2.7-1.8 5-4.2 6.4-1.1.9-2.6 1.2-4.1 1.2zM424.4 569.7c-3.4 0-6.8-1.3-12.2-3.8-8.5-4-25.2-12.1-39.9-19.8-16.4-8.6-29.1-16.1-37.6-25-9.3-9.7-12.9-20.4-16.2-29.9-1.5-4.5.8-9.3 5.3-10.8 4.4-1.5 9.3.9 10.8 5.3 2.9 8.6 5.7 16.7 12.4 23.6 7.3 7.6 20.3 14.9 33.2 21.7 14.6 7.6 31 15.6 39.4 19.5 1.8.9 4.3 2.1 5 2.2.3-.1 2.8-1.3 4.7-2.2 6.6-3.1 24-11.5 39.4-20.5 15.2-8.9 27.6-18 34-25 5.7-6.3 6.6-10.9 7.7-16.8.9-4.6 5.2-7.6 10-6.8 4.6.9 7.6 5.3 6.8 10-1.3 6.8-2.9 15.2-11.9 25-10.3 11.2-28.2 22.5-38 28.2-16 9.5-34 18-40.7 21.2-5.4 2.6-8.8 3.9-12.2 3.9z"></path><path d="M478.8 647.8c-.3 0-.6 0-.9-.1-4.2-.6-5.8-2.6-11.4-10.3l-3.6-4.9c-5.3-7.1-13.8-18.4-21.7-28.8l-13.7-18.2c-.7-1-1.5-1.9-2.1-2.8 0 .1-.1.1-.1.1-7 9.3-20.9 28.2-29.3 40-8.1 11.3-11 16-12.5 18.3-1.3 2.1-4.8 4.9-7.2 5.3-5.1 1-7.5-1.2-19-10.8-12.9-10.8-36.5-30.7-48.6-45.4-14.2-17.2-12.9-28.8-9.6-42.2 3-12.5 8.4-29.4 13.7-45.7 1.4-4.5 6.5-7.5 10.9-6.1 4.5 1.4 7.1 5.6 5.7 10.1l-.4 1.2c-5.1 16-10.4 32.6-13.3 44.6-2.6 10.6-3.3 15.8 6.2 27.3 11.1 13.5 34.8 33.4 46.3 43 1.9 1.6 3.4 2.8 4.6 3.9 2.1-3.1 5-7.4 9.4-13.5 8.5-11.9 22.5-30.9 29.6-40.3 4.2-5.6 7.5-10 13.6-10 6.3 0 9.8 4.6 15.5 12.2l14 18.6c7.9 10.4 16.4 21.7 21.8 28.9l3.3 4.5c1-1 2.2-2.2 3.6-3.7 6.6-6.7 17.7-18 27.7-28.7 9.1-9.8 17.4-19.3 20.4-28.7 2.5-7.8 1.9-17-1.9-28.2-3.4-10.1-8.5-19.4-13.9-29.3-2.2-4.1-.7-9.3 3.4-11.5 4.1-2.3 9.3-.7 11.5 3.4 5.5 10.1 11.2 20.5 15 32.1 4.9 14.8 5.6 27.5 2 38.8-4.1 12.8-13.8 23.9-24.2 35.1-10 10.8-21.3 22.3-28 29.1-7.2 7.3-9.5 9.6-10.7 10.5-1.6 1.4-4 2.2-6.1 2.2zm-101.3-17.4h.2-.2z"></path><path d="M389.2 900.1c-3.7 0-7.1-2.4-8.2-6.1-18.6-63.2-37.9-128.5-52.9-186.4-15-57.7-26.1-109.2-36.9-159.1-1-4.6 1.9-9.1 6.5-10.1 4.7-.8 9.1 1.9 10.1 6.5 10.8 49.7 21.9 101.1 36.8 158.4 15 57.6 34.2 122.8 52.8 185.9 1.3 4.5-1.2 9.2-5.8 10.5-.8.2-1.6.4-2.4.4zM462 899.7c-.8 0-1.6-.1-2.4-.3-4.5-1.3-7.1-6-5.8-10.5 18.3-62.6 37.2-127.4 51.6-184.6 14.3-56.8 24.7-108.4 34.7-158.2l8.6.6 8.1 2.8c-10.1 50-20.5 101.7-34.9 159-14.5 57.6-33.4 122.5-51.8 185.2-1 3.6-4.4 6-8.1 6z"></path><path d="M377.4 855.7c-.5 0-1 0-1.5-.1-4.6-.8-7.7-5.3-6.8-9.9 12.6-69.2 25.6-140.8 29.1-179.6 3.2-35.9-1.5-42.2-6.5-48.8-2.8-3.8-2.1-9.1 1.7-11.9 3.8-2.8 9.1-2.1 11.9 1.6 8 10.6 13.4 21.2 9.9 60.6-3.5 39.6-16.6 111.6-29.3 181.2-.9 4-4.5 6.9-8.5 6.9zM471.3 852.5c-4 0-7.6-2.9-8.3-7-12.7-69.5-25.8-141.4-29.3-181.2-3.5-39.4 1.9-50 9.9-60.6 2.8-3.8 8.2-4.5 11.9-1.7 3.8 2.8 4.5 8.1 1.7 11.9-5 6.7-9.8 12.9-6.5 48.8 3.5 39 16.5 110.5 29.1 179.6.8 4.6-2.2 9.1-6.8 9.9-.7.3-1.2.3-1.7.3z"></path></g></svg>