<svg xmlns="http://www.w3.org/2000/svg" xml:space="preserve" viewBox="0 0 1000 1000"><path fill="none" d="M0 0h1000v1000H0z"></path><g fill="#FFF"><path d="M500.3 539.3c-4.5 0-8.2-3.7-8.2-8.2V153.9c0-4.5 3.7-8.2 8.2-8.2 4.5 0 8.2 3.7 8.2 8.2v377.2c0 4.5-3.7 8.2-8.2 8.2z"></path><path d="M593.6 264.3c-2.4 0-4.8-1-6.4-3.1l-92-115.4c-2.8-3.5-2.2-8.7 1.3-11.5 3.5-2.9 8.7-2.3 11.5 1.3L600 251c2.8 3.5 2.2 8.7-1.3 11.5-1.5 1.2-3.3 1.8-5.1 1.8z"></path><path d="M406.4 264.3c-1.8 0-3.6-.6-5.1-1.8-3.5-2.8-4.1-8-1.3-11.5l92-115.4c2.9-3.5 8-4.1 11.5-1.3s4.1 8 1.3 11.5l-92 115.4c-1.6 2-4 3.1-6.4 3.1zM939.6 867.5H60.1c-10.3 0-19.9-4.2-26.9-11.8-7.6-8.3-11.5-19.8-10.5-31.8l35.1-443.7c1.6-20.5 19.5-37.2 39.8-37.2H435c4.5 0 8.2 3.7 8.2 8.2s-3.7 8.2-8.2 8.2H97.6c-11.8 0-22.5 10.1-23.5 22.1L39 825.2c-.6 7.4 1.7 14.5 6.2 19.4 3.9 4.2 9.2 6.5 14.9 6.5h879.5c5.8 0 11.1-2.4 15.1-6.7 4.6-4.9 6.9-11.9 6.3-19.2l-33.9-443.7c-.9-12-11.7-22.1-23.7-22.1H554.1c-4.5 0-8.2-3.7-8.2-8.2s3.7-8.2 8.2-8.2h349.3c20.5 0 38.4 16.7 40 37.2l34 443.8c.9 11.8-3 23.4-10.6 31.6-7.2 7.7-16.8 11.9-27.2 11.9z"></path><path d="M941.4 603.3H59.1c-4.5 0-8.2-3.7-8.2-8.2s3.7-8.2 8.2-8.2h882.3c4.5 0 8.2 3.7 8.2 8.2s-3.7 8.2-8.2 8.2zM258 785.5H107.2c-4.5 0-8.2-3.7-8.2-8.2s3.7-8.2 8.2-8.2H258c4.5 0 8.2 3.7 8.2 8.2s-3.7 8.2-8.2 8.2zM464.2 785.5H313.4c-4.5 0-8.2-3.7-8.2-8.2s3.7-8.2 8.2-8.2h150.8c4.5 0 8.2 3.7 8.2 8.2s-3.6 8.2-8.2 8.2zM702 816.9c-50.6 0-92.6-43.6-93.6-97.1-.5-26.4 9-50.8 26.7-68.9 16.4-16.7 38.1-25.9 61.2-25.9 49.1 0 91 42.3 93.4 94.2 1.2 26.7-8.2 52.6-25.8 71-16.3 17.3-38.3 26.7-61.9 26.7zm-5.6-175.5c-18.7 0-36.2 7.5-49.5 21-14.6 14.9-22.4 35.2-22 57.1.8 44.7 35.5 81 77.2 81 19 0 36.8-7.7 50.1-21.6 14.5-15.2 22.3-36.7 21.3-58.9-2.1-43.3-36.7-78.6-77.1-78.6z"></path><path d="M813.7 816.9c-50.6 0-93.3-43.5-95.2-97-1-26.4 8.1-51 25.5-69 16.1-16.7 37.7-25.9 60.8-25.9 49.1 0 91.7 42.2 95.1 94.1 1.7 26.7-7.2 52.6-24.5 71.1-16.2 17.2-38.1 26.7-61.7 26.7zm-8.9-175.5c-18.6 0-36 7.4-49 20.9-14.3 14.8-21.7 35.1-20.9 57 1.6 44.8 37 81.2 78.8 81.2 19 0 36.7-7.7 49.7-21.6 14.2-15.2 21.6-36.6 20.1-58.8-2.8-43.3-38.2-78.7-78.7-78.7z"></path></g></svg>