<svg xmlns="http://www.w3.org/2000/svg" xml:space="preserve" viewBox="0 0 1000 1000"><path fill="none" d="M0 0h1000v1000H0z"></path><g fill="#FFF"><path d="M281.1 722.2c-2.2 0-4.4-.8-6-2.5-2.4-2.4-3.1-5.9-1.9-9.1l72-188.1c1.7-4.4 6.7-6.5 11-4.9 4.4 1.7 6.6 6.6 4.9 11L296 698.8l172.4-66.3c4.3-1.7 9.3.5 11 4.9 1.7 4.4-.5 9.3-4.9 11l-190.2 73.1c-1.1.5-2.1.7-3.2.7z"></path><path d="M473.2 647.1c-2.2 0-4.4-.8-6-2.5L350.7 528c-1.6-1.6-2.5-3.8-2.5-6 0-2.3.9-4.4 2.5-6L795.9 70.7c3.2-3.2 8.8-3.2 12 0l116.6 116.6c1.6 1.6 2.5 3.8 2.5 6s-.9 4.4-2.5 6L479.2 644.6c-1.6 1.6-3.8 2.5-6 2.5zM368.7 522l104.6 104.6 433.3-433.2L801.9 88.7 368.7 522zM365.9 682.6c-2.2 0-4.4-.8-6-2.5l-49.2-49.2c-3.3-3.3-3.3-8.7 0-12 3.3-3.3 8.7-3.3 12 0l49.2 49.2c3.3 3.3 3.3 8.7 0 12-1.6 1.7-3.8 2.5-6 2.5z"></path><path d="M870.5 247.9c-2.2 0-4.4-.8-6-2.5L755.7 136.6c-3.3-3.3-3.3-8.7 0-12 3.3-3.3 8.7-3.3 12 0l108.8 108.8c3.3 3.3 3.3 8.7 0 12-1.7 1.6-3.8 2.5-6 2.5zM718.5 931.7H177.1C119.7 931.7 73 885 73 827.7V286.2c0-57.4 46.7-104 104.1-104h437.1c4.7 0 8.5 3.8 8.5 8.5s-3.8 8.5-8.5 8.5H177.1c-48 0-87 39.1-87 87v541.5c0 48 39 87 87 87h541.5c48 0 87-39.1 87-87V371.8c0-4.7 3.8-8.5 8.5-8.5s8.5 3.8 8.5 8.5v455.8c0 57.4-46.7 104.1-104.1 104.1z"></path><path d="M716.4 877.2H179.2c-28.5 0-51.7-23.2-51.7-51.7V288.4c0-28.5 23.2-51.7 51.7-51.7h380.1c4.7 0 8.5 3.8 8.5 8.5s-3.8 8.5-8.5 8.5H179.2c-19.1 0-34.7 15.6-34.7 34.7v537.1c0 19.1 15.5 34.7 34.7 34.7h537.1c19.1 0 34.7-15.6 34.7-34.7V424.8c0-4.7 3.8-8.5 8.5-8.5s8.5 3.8 8.5 8.5v400.6c0 28.6-23.1 51.8-51.6 51.8z"></path></g></svg>