<svg xmlns="http://www.w3.org/2000/svg" width="200" height="200" viewBox="0 0 150 150" fill="white"><path d="M87.652 63.035v65.66c0 2.07-1.68 3.75-3.75 3.75h-6.328v8.93c0 1.035-.84 1.875-1.875 1.875h-1.152a1.875 1.875 0 0 1-1.875-1.875v-8.93h-5.824c-2.07 0-3.75-1.68-3.75-3.75v-65.66c0-2.074 1.68-3.75 3.75-3.75h5.84v-8.941c0-1.035.84-1.875 1.874-1.875h1.149c1.035 0 1.875.84 1.875 1.875v8.941h6.332a3.748 3.748 0 0 1 3.734 3.75zm35.965-35.355v65.66a3.746 3.746 0 0 1-3.75 3.75h-6.328v8.941c0 1.035-.84 1.875-1.875 1.875h-1.156a1.875 1.875 0 0 1-1.875-1.875V97.09h-5.817a3.748 3.748 0 0 1-3.75-3.75V27.68c0-2.07 1.68-3.75 3.75-3.75h5.84V15c0-1.035.84-1.875 1.875-1.875h1.156c1.036 0 1.876.84 1.876 1.875v8.93h6.328a3.749 3.749 0 0 1 3.726 3.75zM51.684 39.953v58.793c0 2.07-1.68 3.75-3.75 3.75h-6.086V108c0 1.035-.84 1.875-1.875 1.875H38.82A1.875 1.875 0 0 1 36.945 108v-5.504h-6.062a3.748 3.748 0 0 1-3.75-3.75V39.953c0-2.07 1.676-3.75 3.75-3.75h6.082v-5.5c0-1.039.84-1.875 1.875-1.875h1.148a1.87 1.87 0 0 1 1.875 1.875v5.5h6.09a3.75 3.75 0 0 1 3.73 3.75zm0 0"></path></svg>