<svg xmlns="http://www.w3.org/2000/svg" width="200" height="200" viewBox="0 0 150 150" fill="white"><path d="M81.742 64.07h16.535c2.07 0 3.75 1.676 3.75 3.75v50.196c0 2.07-1.68 3.75-3.75 3.75H81.742c-2.07 0-3.75-1.68-3.75-3.75V67.82c0-2.074 1.68-3.75 3.75-3.75zm0 0M112.465 44.637H129c2.07 0 3.75 1.68 3.75 3.75v69.629c0 2.07-1.68 3.75-3.75 3.75h-16.535c-2.07 0-3.75-1.68-3.75-3.75v-69.63c0-2.07 1.68-3.75 3.75-3.75zm0 0M51.02 87.078h16.53c2.075 0 3.75 1.68 3.75 3.75v27.188c0 2.07-1.675 3.75-3.75 3.75H51.02c-2.07 0-3.75-1.68-3.75-3.75V90.828c0-2.07 1.68-3.75 3.75-3.75zm0 0M20.293 101.91h16.531c2.07 0 3.75 1.68 3.75 3.75v12.356c0 2.07-1.68 3.75-3.75 3.75H20.293a3.748 3.748 0 0 1-3.75-3.75V105.66c0-2.07 1.676-3.75 3.75-3.75zm0 0M17.691 90.148a3.07 3.07 0 0 1-3.078-2.578 3.075 3.075 0 0 1 2.11-3.422L40.5 76.25l29.625-33.64A3.055 3.055 0 0 1 72 41.601l30.45-4.5 17.8-12.86a3.07 3.07 0 0 1 3.594 4.977l-18.41 13.297c-.395.285-.86.476-1.344.547L74.008 47.5 44.543 80.926c-.36.406-.82.71-1.336.883L18.664 90a3.03 3.03 0 0 1-.973.148zm0 0"></path></svg>