<svg xmlns="http://www.w3.org/2000/svg" width="200" height="200" viewBox="0 0 150 150" fill="white"><path d="M78.133 75.266a5.94 5.94 0 0 1-2.746 6.699 5.934 5.934 0 0 1-7.176-.934 5.93 5.93 0 0 1-.941-7.176 5.927 5.927 0 0 1 6.695-2.75 5.955 5.955 0 0 1 4.168 4.16zm0 0"></path><path d="M72.406 22.875c-29.656 0-53.953 24.277-53.953 53.953 0 29.68 24.297 53.957 53.953 53.957 29.653 0 53.969-24.285 53.969-53.957 0-29.668-24.293-53.953-53.969-53.953zm29.516 27.75L87.75 81.175a22.646 22.646 0 0 1-11.012 11.013l-30.554 14.16a2.49 2.49 0 0 1-3.305-3.309l14.16-30.555a22.622 22.622 0 0 1 11.008-11.011l30.578-14.16a2.49 2.49 0 0 1 3.297 3.312zm0 0"></path></svg>