<svg xmlns="http://www.w3.org/2000/svg" width="200" height="200" viewBox="0 0 150 150" fill="white"><path d="M72.23 22.883c.5 5.453 3.473 14.37 3.965 18.832.336 2.992 2.203 20.95 1.496 24.91-.707 3.96-1.355 11.031-4.03 10.926-2.677-.106-4.356-7.348-4.403-9.567a60.697 60.697 0 0 0-.992-9.914c-.989-4.957-5.07-4.73-6.496-3.175-3.235 3.523.55 19.035-.934 28.945-1.395 9.277-.895 15.972.492 22.3.957 4.364 4.98 13.84 9.79 18.473 7.554 7.301 11.855 11.867 15.359 13.535 1.902.91 3.777.247 4.683-1.66.906-1.902 8.145-9.75 9.988-11.988 1.844-2.238-1.527-5.785-2.496-7.023-.968-1.239-8.449-5.989-9.043-12.09-.59-6.106 1.434-15.282 2.746-20.496 1.313-5.215 2.493-9.325 1.297-14.172-1.199-4.852-4.593-26.457-5.746-30.895-1.304-5.035-8.562-21.12-11.437-23.258-2.871-2.136-4.43 4.188-4.239 6.317zM47 73.543v44.707a3.736 3.736 0 0 1-3.738 3.738h-6.317v5.848a1.869 1.869 0 0 1-1.87 1.871h-1.141a1.868 1.868 0 0 1-1.868-1.871v-5.848H26.25a3.738 3.738 0 0 1-3.738-3.738V73.543a3.742 3.742 0 0 1 3.738-3.742h5.824v-5.836c0-1.031.84-1.871 1.871-1.871h1.14c1.036 0 1.872.84 1.872 1.87v5.837h6.316A3.742 3.742 0 0 1 47 73.543zm83.418-46.61v58.278a3.743 3.743 0 0 1-3.742 3.742h-6.313v7.856a1.871 1.871 0 0 1-1.87 1.87h-1.153a1.874 1.874 0 0 1-1.871-1.87v-7.856h-5.801a3.743 3.743 0 0 1-3.742-3.742V26.934a3.743 3.743 0 0 1 3.742-3.743h5.824v-7.855c0-1.031.836-1.871 1.871-1.871h1.153c1.03 0 1.87.84 1.87 1.87v7.856h6.313a3.74 3.74 0 0 1 3.719 3.743zm0 0"></path></svg>