<svg xmlns="http://www.w3.org/2000/svg" width="200" height="200" viewBox="0 0 150 150" fill="white"><path d="M104.441 75c0 16.379-13.277 29.66-29.66 29.66-16.379 0-29.656-13.281-29.656-29.66 0-16.379 13.277-29.66 29.656-29.66 16.383 0 29.66 13.281 29.66 29.66zm0 0M75 35.434a2.672 2.672 0 0 1-2.672-2.668V13.172c0-1.477 1.2-2.672 2.672-2.672a2.673 2.673 0 0 1 2.672 2.672v19.594c0 1.472-1.2 2.668-2.672 2.668zm29.863 12.37a2.666 2.666 0 0 1-2.453-1.652c-.41-.996-.18-2.14.578-2.902l13.86-13.86a2.666 2.666 0 1 1 3.77 3.773L106.765 47.04c-.508.5-1.192.773-1.903.766zm31.965 29.868h-19.594a2.672 2.672 0 0 1 0-5.344h19.594c1.477 0 2.672 1.2 2.672 2.672a2.673 2.673 0 0 1-2.672 2.672zm-18.105 43.719a2.669 2.669 0 0 1-1.875-.782l-13.86-13.859a2.666 2.666 0 1 1 3.773-3.77l13.856 13.856a2.668 2.668 0 0 1-1.875 4.555zM75 139.5a2.673 2.673 0 0 1-2.672-2.672v-19.594a2.672 2.672 0 0 1 5.344 0v19.594c0 1.477-1.2 2.672-2.672 2.672zm-43.723-18.11a2.666 2.666 0 0 1-2.453-1.652c-.41-.996-.18-2.14.578-2.902l13.875-13.856a2.666 2.666 0 0 1 3.774 0 2.662 2.662 0 0 1 0 3.77l-13.887 13.86c-.5.5-1.176.78-1.887.78zm1.489-43.718H13.172A2.673 2.673 0 0 1 10.5 75a2.673 2.673 0 0 1 2.672-2.672h19.594a2.672 2.672 0 0 1 0 5.344zm12.37-29.867a2.656 2.656 0 0 1-1.874-.785L29.39 33.164a2.674 2.674 0 0 1 0-3.773 2.674 2.674 0 0 1 3.773 0L47.04 43.266c.762.765.988 1.91.582 2.902a2.677 2.677 0 0 1-2.457 1.656zm0 0"></path></svg>